<?xml version="1.0" encoding="UTF-8" standalone="no"?>
<!DOCTYPE svg PUBLIC "-//W3C//DTD SVG 1.1//EN" "http://www.w3.org/Graphics/SVG/1.1/DTD/svg11.dtd">
<svg xmlns="http://www.w3.org/2000/svg" version="1.1" viewBox="0.00 0.00 512.00 512.00">
<g stroke-width="2.00" fill="none" stroke-linecap="butt">
<path stroke="#727ea4" vector-effect="non-scaling-stroke" d="
  M 423.57 54.57
  L 418.26 57.98"
/>
<path stroke="#6d8de7" vector-effect="non-scaling-stroke" d="
  M 426.93 55.76
  Q 426.02 56.57 425.92 57.00
  Q 425.13 60.66 422.61 63.41
  Q 422.44 63.59 422.63 63.75
  L 422.82 63.92
  Q 423.18 64.23 423.50 63.87
  Q 426.31 60.74 427.15 56.57"
/>
<path stroke="#6d8de7" vector-effect="non-scaling-stroke" d="
  M 433.36 59.88
  L 426.32 67.21"
/>
<path stroke="#727ea4" vector-effect="non-scaling-stroke" d="
  M 426.32 67.21
  Q 424.23 68.12 423.08 66.92
  Q 422.72 66.54 422.76 66.01
  L 422.81 65.22
  Q 422.83 64.90 422.58 65.09
  Q 422.47 65.17 422.41 65.28
  Q 422.24 65.56 422.33 65.87
  Q 423.22 69.20 423.55 72.54
  C 424.07 77.82 426.52 83.51 428.09 88.72"
/>
<path stroke="#727ea4" vector-effect="non-scaling-stroke" d="
  M 426.72 92.77
  L 409.90 76.69"
/>
<path stroke="#6d8de7" vector-effect="non-scaling-stroke" d="
  M 435.88 64.92
  L 428.38 72.99"
/>
<path stroke="#727ea4" vector-effect="non-scaling-stroke" d="
  M 428.38 72.99
  Q 424.41 74.01 424.43 71.50
  Q 424.45 69.57 426.32 67.21"
/>
<path stroke="#2947a4" vector-effect="non-scaling-stroke" d="
  M 296.17 75.05
  C 295.91 83.61 296.39 91.21 300.01 99.25
  Q 300.23 99.74 300.71 99.49
  C 308.93 95.29 313.89 86.47 316.00 77.66"
/>
<path stroke="#0c2b8c" vector-effect="non-scaling-stroke" d="
  M 378.17 130.89
  Q 377.81 131.62 377.46 132.60
  Q 374.15 141.74 372.84 150.34
  C 372.48 152.69 371.58 159.58 372.76 161.46
  A 0.34 0.34 0.0 0 0 373.39 161.27
  Q 373.17 146.20 379.07 130.59"
/>
<path stroke="#2947a4" vector-effect="non-scaling-stroke" d="
  M 347.24 183.91
  Q 337.31 187.24 327.74 186.44
  Q 312.91 185.20 299.41 180.20
  Q 298.92 180.02 298.93 179.50
  L 300.20 102.15
  Q 300.24 99.55 299.70 102.09
  L 283.41 178.52
  Q 283.31 179.02 282.80 179.10
  Q 268.98 181.16 255.33 178.89"
/>
<path stroke="#4155a4" vector-effect="non-scaling-stroke" d="
  M 255.33 178.89
  Q 255.04 178.72 255.04 178.25
  Q 255.05 158.46 255.04 137.81
  C 255.04 133.98 254.00 131.00 249.75 131.01
  Q 220.38 131.08 190.99 131.06"
/>
<path stroke="#0c2b8c" vector-effect="non-scaling-stroke" d="
  M 225.15 112.82
  L 225.01 113.08
  Q 224.87 113.35 224.93 113.64
  Q 226.43 121.92 226.23 130.34
  A 0.17 0.17 0.0 0 0 226.40 130.51
  L 226.68 130.52
  Q 227.14 130.54 227.17 130.08
  Q 227.60 121.34 225.70 112.77"
/>
<path stroke="#6d8de7" vector-effect="non-scaling-stroke" d="
  M 433.83 60.60
  Q 431.27 64.95 427.34 67.35
  Q 426.79 67.68 426.32 67.21"
/>
<path stroke="#727ea4" vector-effect="non-scaling-stroke" d="
  M 428.38 72.99
  C 427.02 74.15 424.98 76.85 426.97 78.30
  Q 428.05 79.09 429.47 77.79"
/>
<path stroke="#0c2b8c" vector-effect="non-scaling-stroke" d="
  M 429.47 77.79
  Q 429.90 78.11 429.78 78.36"
/>
<path stroke="#727ea4" vector-effect="non-scaling-stroke" d="
  M 429.78 78.36
  Q 428.62 79.91 428.80 81.68
  Q 428.86 82.21 429.36 82.39
  Q 430.50 82.78 431.75 82.17
  A 0.68 0.67 59.9 0 1 432.60 82.40
  Q 432.86 82.78 432.97 83.42"
/>
<path stroke="#6d8de7" vector-effect="non-scaling-stroke" d="
  M 438.65 69.87
  Q 435.43 73.64 434.08 74.58
  Q 431.75 76.18 429.47 77.79"
/>
<path stroke="#6d8de7" vector-effect="non-scaling-stroke" d="
  M 436.08 65.89
  Q 433.05 71.03 428.38 72.99"
/>
<path stroke="#2947a4" vector-effect="non-scaling-stroke" d="
  M 348.00 210.88
  Q 301.82 222.59 256.99 207.77
  Q 256.08 207.48 255.37 206.98"
/>
<path stroke="#587fff" vector-effect="non-scaling-stroke" d="
  M 255.37 206.98
  Q 255.48 206.53 255.25 206.22
  Q 255.02 205.91 255.02 205.53
  L 255.33 178.89"
/>
<path stroke="#6d8de7" vector-effect="non-scaling-stroke" d="
  M 192.33 47.76
  Q 185.76 49.83 182.42 55.80
  A 0.42 0.42 0.0 0 0 182.76 56.43
  L 183.05 56.45
  Q 183.16 56.46 183.22 56.36
  Q 186.08 51.16 191.63 49.02
  A 0.34 0.34 0.0 0 1 192.07 49.45
  Q 190.87 52.82 192.31 56.21
  A 0.28 0.28 0.0 0 0 192.67 56.36
  L 192.91 56.25
  A 0.52 0.52 0.0 0 0 193.20 55.58
  Q 191.80 52.16 193.58 48.75
  Q 193.82 48.29 193.53 47.87
  Q 193.36 47.63 193.19 47.51"
/>
<path stroke="#727ea4" vector-effect="non-scaling-stroke" d="
  M 204.46 58.93
  L 187.04 66.23"
/>
<path stroke="#6d8de7" vector-effect="non-scaling-stroke" d="
  M 172.93 47.86
  Q 173.90 50.42 175.37 51.35
  Q 177.50 52.71 176.05 50.64
  Q 175.09 49.27 173.34 47.72"
/>
<path stroke="#6d8de7" vector-effect="non-scaling-stroke" d="
  M 174.75 44.00
  Q 175.84 47.29 178.29 48.70
  Q 178.76 48.97 178.52 48.48
  Q 177.29 45.90 175.13 43.71"
/>
<path stroke="#4155a4" vector-effect="non-scaling-stroke" d="
  M 255.37 206.98
  L 255.22 207.25
  Q 255.04 207.59 255.04 207.98
  L 255.05 248.71
  A 4.76 4.76 0.0 0 1 250.30 253.47
  L 241.35 253.49"
/>
<path stroke="#3c64e7" vector-effect="non-scaling-stroke" d="
  M 241.35 253.49
  Q 170.86 253.45 100.50 253.42
  Q 94.59 253.42 94.59 247.25
  Q 94.65 194.75 94.61 142.25"
/>
<path stroke="#0c2b8c" vector-effect="non-scaling-stroke" d="
  M 322.78 65.31
  Q 322.44 73.59 316.00 77.66"
/>
<path stroke="#2456e7" vector-effect="non-scaling-stroke" d="
  M 316.00 77.66
  C 308.56 80.43 303.06 78.51 296.49 74.92
  Q 296.37 74.85 296.24 74.91
  Q 296.02 75.00 296.17 75.05"
/>
<path stroke="#0c2b8c" vector-effect="non-scaling-stroke" d="
  M 296.17 75.05
  Q 295.77 74.22 295.47 74.03
  Q 286.40 68.23 284.19 58.51"
/>
<path stroke="#8397e7" vector-effect="non-scaling-stroke" d="
  M 292.93 54.59
  C 295.27 61.17 300.51 67.70 308.06 66.77
  Q 308.25 66.74 308.23 66.55
  L 308.21 66.27
  Q 308.17 65.80 307.70 65.82
  C 300.43 66.09 295.85 60.10 293.85 53.93"
/>
<path stroke="#6d8de7" vector-effect="non-scaling-stroke" d="
  M 438.94 70.76
  Q 435.49 75.83 429.78 78.36"
/>
<path stroke="#727ea4" vector-effect="non-scaling-stroke" d="
  M 373.38 440.31
  Q 361.34 447.61 347.26 446.64
  Q 343.97 446.41 342.97 446.46"
/>
<path stroke="#727ea4" vector-effect="non-scaling-stroke" d="
  M 298.92 439.70
  Q 289.63 439.15 283.00 440.59
  Q 279.58 441.33 268.21 444.63"
/>
<path stroke="#0c2b8c" vector-effect="non-scaling-stroke" d="
  M 241.35 253.49
  Q 241.96 256.14 241.78 259.03
  C 241.33 265.91 236.14 264.42 231.25 264.71"
/>
<path stroke="#3c64e7" vector-effect="non-scaling-stroke" d="
  M 231.25 264.71
  Q 159.24 264.74 87.25 264.68
  Q 81.22 264.68 81.22 258.50
  Q 81.26 205.86 81.25 153.26"
/>
<path stroke="#4155a4" vector-effect="non-scaling-stroke" d="
  M 231.25 264.71
  C 231.31 269.73 232.35 276.41 224.69 275.66"
/>
<path stroke="#6d8de7" vector-effect="non-scaling-stroke" d="
  M 300.69 452.26
  L 271.83 457.03"
/>
<path stroke="#6d8de7" vector-effect="non-scaling-stroke" d="
  M 374.62 449.87
  L 344.59 454.06"
/>
<path stroke="#0c2b8c" vector-effect="non-scaling-stroke" d="
  M 305.50 481.09
  Q 294.42 486.14 292.00 498.77
  A 0.78 0.78 0.0 0 1 291.23 499.41
  L 235.55 499.42"
/>
<path stroke="#0c2b8c" vector-effect="non-scaling-stroke" d="
  M 382.84 481.45
  Q 382.57 489.65 378.01 495.00
  Q 377.31 495.81 376.25 495.81
  Q 357.87 495.72 339.58 495.84"
/>
<path stroke="#6d8de7" vector-effect="non-scaling-stroke" d="
  M 312.83 53.62
  Q 314.75 56.67 314.00 59.80
  Q 313.89 60.22 314.31 60.35
  L 314.56 60.42
  Q 314.77 60.48 314.84 60.28
  Q 316.07 56.69 314.03 53.58
  A 0.52 0.51 -28.9 0 1 314.25 52.83
  Q 317.87 51.18 318.91 47.82
  Q 320.17 43.74 320.88 38.35
  Q 321.14 36.40 320.09 34.72
  C 316.83 29.50 311.84 29.69 306.67 32.11
  Q 305.12 32.84 304.63 34.51
  C 303.46 38.45 301.46 45.84 303.95 49.39
  Q 307.01 53.76 312.10 53.27
  Q 312.57 53.22 312.83 53.62"
/>
<path stroke="#6d8de7" vector-effect="non-scaling-stroke" d="
  M 313.22 47.07
  L 314.72 47.84
  A 0.45 0.39 -33.5 0 0 314.96 47.87
  Q 316.20 47.59 314.41 46.49
  Q 314.24 46.39 314.05 46.30
  Q 311.67 45.23 309.93 48.47
  Q 309.88 48.55 309.96 48.61
  L 310.27 48.85
  Q 310.42 48.97 310.55 48.83
  L 312.11 47.25
  Q 312.60 46.75 313.22 47.07"
/>
<path stroke="#6d8de7" vector-effect="non-scaling-stroke" d="
  M 181.66 46.86
  L 182.24 46.46
  A 0.18 0.18 0.0 0 0 182.28 46.21
  L 181.07 44.49
  A 5.15 0.44 54.9 0 0 177.74 40.52
  L 177.60 40.63
  A 5.15 0.44 54.9 0 0 180.20 45.09
  L 181.41 46.82
  A 0.18 0.18 0.0 0 0 181.66 46.86"
/>
<path stroke="#0c2b8c" vector-effect="non-scaling-stroke" d="
  M 261.96 74.57
  C 259.64 93.24 254.78 111.57 247.67 129.97
  Q 247.62 130.10 247.71 130.20
  L 247.96 130.46
  Q 248.25 130.76 248.41 130.38
  Q 259.32 103.64 262.93 75.05
  A 0.57 0.57 0.0 0 0 262.50 74.43
  L 262.24 74.37
  Q 261.99 74.32 261.96 74.57"
/>
<path stroke="#0c2b8c" vector-effect="non-scaling-stroke" d="
  M 346.94 156.63
  A 0.46 0.46 0.0 0 0 347.26 156.07
  C 340.80 131.98 340.16 107.28 343.52 82.60
  Q 343.56 82.35 343.31 82.32
  L 343.06 82.28
  A 0.40 0.40 0.0 0 0 342.60 82.62
  C 338.86 106.71 339.72 132.92 346.32 156.51
  Q 346.40 156.78 346.67 156.70
  L 346.94 156.63"
/>
<path stroke="#3c64e7" vector-effect="non-scaling-stroke" d="
  M 245.24 139.60
  A 2.45 2.45 0.0 0 0 242.79 137.15
  L 212.77 137.15
  A 2.45 2.45 0.0 0 0 210.32 139.60
  L 210.32 139.78
  A 2.45 2.45 0.0 0 0 212.77 142.23
  L 242.79 142.23
  A 2.45 2.45 0.0 0 0 245.24 139.78
  L 245.24 139.60"
/>
<path stroke="#b8c0ff" vector-effect="non-scaling-stroke" d="
  M 160.04 192.05
  A 0.32 0.32 0.0 0 1 160.04 192.51
  L 139.55 212.98
  A 0.32 0.32 0.0 0 0 139.55 213.44
  L 153.62 227.55
  A 0.32 0.32 0.0 0 0 154.08 227.55
  L 174.57 207.05
  A 0.32 0.32 0.0 0 1 175.03 207.05
  L 195.57 227.59
  A 0.32 0.32 0.0 0 0 196.03 227.59
  L 210.14 213.49
  A 0.32 0.32 0.0 0 0 210.14 213.03
  L 189.60 192.49
  A 0.32 0.32 0.0 0 1 189.60 192.03
  L 210.16 171.47
  A 0.32 0.32 0.0 0 0 210.16 171.01
  L 196.08 156.91
  A 0.32 0.32 0.0 0 0 195.62 156.91
  L 175.06 177.48
  A 0.32 0.32 0.0 0 1 174.60 177.48
  L 154.05 156.94
  A 0.32 0.32 0.0 0 0 153.59 156.94
  L 139.49 171.06
  A 0.32 0.32 0.0 0 0 139.49 171.52
  L 160.04 192.05"
/>
<path stroke="#0c2b8c" vector-effect="non-scaling-stroke" d="
  M 328.20 223.93
  L 327.90 224.06
  Q 327.69 224.15 327.76 224.37
  C 331.04 233.74 338.10 241.18 348.07 242.65
  A 0.25 0.25 0.0 0 0 348.36 242.43
  L 348.39 242.16
  A 0.55 0.54 -82.3 0 0 347.94 241.56
  C 338.29 240.04 331.96 232.87 328.61 224.10
  A 0.31 0.31 0.0 0 0 328.20 223.93"
/>
<path stroke="#0c2b8c" vector-effect="non-scaling-stroke" d="
  M 306.89 417.94
  C 301.62 370.26 294.49 322.90 284.98 275.52
  A 0.47 0.47 0.0 0 0 284.23 275.24
  L 284.01 275.41
  Q 283.90 275.50 283.92 275.63
  Q 298.04 345.96 305.80 417.75
  A 0.50 0.49 -1.9 0 0 306.29 418.20
  L 306.64 418.21
  A 0.24 0.24 0.0 0 0 306.89 417.94"
/>
</g>
<path fill="#111c49" d="
  M 423.57 54.57
  L 418.26 57.98
  L 417.29 55.22
  Q 417.11 54.72 416.58 54.78
  Q 401.34 56.42 392.99 43.98
  C 389.02 38.06 388.28 29.67 390.93 22.95
  C 396.08 9.87 411.38 3.81 424.01 10.58
  C 441.00 19.70 440.49 43.40 423.76 52.39
  Q 423.42 52.58 423.30 52.96
  Q 423.05 53.73 423.57 54.57
  Z
  M 430.39 31.41
  A 17.44 17.44 0.0 0 0 412.95 13.97
  A 17.44 17.44 0.0 0 0 395.51 31.41
  A 17.44 17.44 0.0 0 0 412.95 48.85
  A 17.44 17.44 0.0 0 0 430.39 31.41
  Z"
/>
<path fill="#073ace" d="
  M 322.78 65.31
  Q 322.44 73.59 316.00 77.66
  C 308.56 80.43 303.06 78.51 296.49 74.92
  Q 296.37 74.85 296.24 74.91
  Q 296.02 75.00 296.17 75.05
  Q 295.77 74.22 295.47 74.03
  Q 286.40 68.23 284.19 58.51
  Q 285.95 55.75 287.00 55.26
  Q 288.89 54.38 292.93 54.59
  C 295.27 61.17 300.51 67.70 308.06 66.77
  Q 308.25 66.74 308.23 66.55
  L 308.21 66.27
  Q 308.17 65.80 307.70 65.82
  C 300.43 66.09 295.85 60.10 293.85 53.93
  Q 297.03 49.91 296.23 46.25
  C 295.60 43.35 294.86 40.17 295.68 37.27
  Q 298.72 26.60 308.80 22.72
  C 313.52 20.90 318.34 22.06 322.08 25.36
  Q 328.45 30.97 328.22 39.91
  Q 328.08 45.79 324.48 50.40
  C 322.87 52.46 322.47 54.89 322.56 57.46
  Q 322.70 61.33 322.78 65.31
  Z
  M 312.83 53.62
  Q 314.75 56.67 314.00 59.80
  Q 313.89 60.22 314.31 60.35
  L 314.56 60.42
  Q 314.77 60.48 314.84 60.28
  Q 316.07 56.69 314.03 53.58
  A 0.52 0.51 -28.9 0 1 314.25 52.83
  Q 317.87 51.18 318.91 47.82
  Q 320.17 43.74 320.88 38.35
  Q 321.14 36.40 320.09 34.72
  C 316.83 29.50 311.84 29.69 306.67 32.11
  Q 305.12 32.84 304.63 34.51
  C 303.46 38.45 301.46 45.84 303.95 49.39
  Q 307.01 53.76 312.10 53.27
  Q 312.57 53.22 312.83 53.62
  Z"
/>
<path fill="#d3dfff" d="
  M 312.10 53.27
  Q 307.01 53.76 303.95 49.39
  C 301.46 45.84 303.46 38.45 304.63 34.51
  Q 305.12 32.84 306.67 32.11
  C 311.84 29.69 316.83 29.50 320.09 34.72
  Q 321.14 36.40 320.88 38.35
  Q 320.17 43.74 318.91 47.82
  Q 317.87 51.18 314.25 52.83
  A 0.52 0.51 -28.9 0 0 314.03 53.58
  Q 316.07 56.69 314.84 60.28
  Q 314.77 60.48 314.56 60.42
  L 314.31 60.35
  Q 313.89 60.22 314.00 59.80
  Q 314.75 56.67 312.83 53.62
  Q 312.57 53.22 312.10 53.27
  Z
  M 313.22 47.07
  L 314.72 47.84
  A 0.45 0.39 -33.5 0 0 314.96 47.87
  Q 316.20 47.59 314.41 46.49
  Q 314.24 46.39 314.05 46.30
  Q 311.67 45.23 309.93 48.47
  Q 309.88 48.55 309.96 48.61
  L 310.27 48.85
  Q 310.42 48.97 310.55 48.83
  L 312.11 47.25
  Q 312.60 46.75 313.22 47.07
  Z"
/>
<path fill="#d3dfff" d="
  M 192.33 47.76
  Q 185.76 49.83 182.42 55.80
  A 0.42 0.42 0.0 0 0 182.76 56.43
  L 183.05 56.45
  Q 183.16 56.46 183.22 56.36
  Q 186.08 51.16 191.63 49.02
  A 0.34 0.34 0.0 0 1 192.07 49.45
  Q 190.87 52.82 192.31 56.21
  A 0.28 0.28 0.0 0 0 192.67 56.36
  L 192.91 56.25
  A 0.52 0.52 0.0 0 0 193.20 55.58
  Q 191.80 52.16 193.58 48.75
  Q 193.82 48.29 193.53 47.87
  Q 193.36 47.63 193.19 47.51
  Q 191.40 44.30 191.04 40.93
  A 1.25 1.24 9.1 0 1 192.79 39.67
  Q 194.68 40.51 196.20 42.31
  Q 202.27 49.49 204.46 58.93
  L 187.04 66.23
  L 186.71 63.62
  Q 186.64 63.06 186.08 63.00
  Q 180.85 62.40 177.79 59.24
  Q 173.61 54.93 170.19 49.71
  Q 169.27 48.31 168.95 46.70
  A 0.70 0.70 0.0 0 1 169.88 45.91
  Q 171.64 46.60 172.93 47.86
  Q 173.90 50.42 175.37 51.35
  Q 177.50 52.71 176.05 50.64
  Q 175.09 49.27 173.34 47.72
  Q 171.28 45.19 170.27 42.60
  Q 169.06 39.49 172.03 40.99
  Q 173.27 41.61 174.75 44.00
  Q 175.84 47.29 178.29 48.70
  Q 178.76 48.97 178.52 48.48
  Q 177.29 45.90 175.13 43.71
  Q 173.36 41.10 173.08 38.28
  A 0.75 0.74 10.2 0 1 174.15 37.54
  Q 175.68 38.28 176.74 39.53
  Q 177.89 40.88 177.20 39.25
  L 176.49 37.60
  Q 175.53 35.32 177.79 36.33
  C 181.01 37.77 183.74 42.45 186.05 44.45
  Q 188.17 46.29 192.33 47.76
  Z
  M 181.66 46.86
  L 182.24 46.46
  A 0.18 0.18 0.0 0 0 182.28 46.21
  L 181.07 44.49
  A 5.15 0.44 54.9 0 0 177.74 40.52
  L 177.60 40.63
  A 5.15 0.44 54.9 0 0 180.20 45.09
  L 181.41 46.82
  A 0.18 0.18 0.0 0 0 181.66 46.86
  Z"
/>
<path fill="#073ace" d="
  M 181.66 46.86
  A 0.18 0.18 0.0 0 1 181.41 46.82
  L 180.20 45.09
  A 5.15 0.44 54.9 0 1 177.60 40.63
  L 177.74 40.52
  A 5.15 0.44 54.9 0 1 181.07 44.49
  L 182.28 46.21
  A 0.18 0.18 0.0 0 1 182.24 46.46
  L 181.66 46.86
  Z"
/>
<path fill="#073ace" d="
  M 175.13 43.71
  Q 177.29 45.90 178.52 48.48
  Q 178.76 48.97 178.29 48.70
  Q 175.84 47.29 174.75 44.00
  Q 174.98 44.09 175.13 43.71
  Z"
/>
<path fill="#073ace" d="
  M 312.11 47.25
  L 310.55 48.83
  Q 310.42 48.97 310.27 48.85
  L 309.96 48.61
  Q 309.88 48.55 309.93 48.47
  Q 311.67 45.23 314.05 46.30
  Q 314.24 46.39 314.41 46.49
  Q 316.20 47.59 314.96 47.87
  A 0.45 0.39 -33.5 0 1 314.72 47.84
  L 313.22 47.07
  Q 312.60 46.75 312.11 47.25
  Z"
/>
<path fill="#073ace" d="
  M 193.19 47.51
  Q 193.36 47.63 193.53 47.87
  Q 193.82 48.29 193.58 48.75
  Q 191.80 52.16 193.20 55.58
  A 0.52 0.52 0.0 0 1 192.91 56.25
  L 192.67 56.36
  A 0.28 0.28 0.0 0 1 192.31 56.21
  Q 190.87 52.82 192.07 49.45
  A 0.34 0.34 0.0 0 0 191.63 49.02
  Q 186.08 51.16 183.22 56.36
  Q 183.16 56.46 183.05 56.45
  L 182.76 56.43
  A 0.42 0.42 0.0 0 1 182.42 55.80
  Q 185.76 49.83 192.33 47.76
  Q 192.88 47.80 193.19 47.51
  Z"
/>
<path fill="#073ace" d="
  M 172.93 47.86
  Q 173.14 47.79 173.34 47.72
  Q 175.09 49.27 176.05 50.64
  Q 177.50 52.71 175.37 51.35
  Q 173.90 50.42 172.93 47.86
  Z"
/>
<path fill="#fff3ff" d="
  M 293.85 53.93
  C 295.85 60.10 300.43 66.09 307.70 65.82
  Q 308.17 65.80 308.21 66.27
  L 308.23 66.55
  Q 308.25 66.74 308.06 66.77
  C 300.51 67.70 295.27 61.17 292.93 54.59
  Q 292.91 54.23 293.85 53.93
  Z"
/>
<path fill="#d3dfff" d="
  M 426.93 55.76
  Q 426.02 56.57 425.92 57.00
  Q 425.13 60.66 422.61 63.41
  Q 422.44 63.59 422.63 63.75
  L 422.82 63.92
  Q 423.18 64.23 423.50 63.87
  Q 426.31 60.74 427.15 56.57
  C 430.09 53.57 434.35 55.50 433.36 59.88
  L 426.32 67.21
  Q 424.23 68.12 423.08 66.92
  Q 422.72 66.54 422.76 66.01
  L 422.81 65.22
  Q 422.83 64.90 422.58 65.09
  Q 422.47 65.17 422.41 65.28
  Q 422.24 65.56 422.33 65.87
  Q 423.22 69.20 423.55 72.54
  C 424.07 77.82 426.52 83.51 428.09 88.72
  L 426.72 92.77
  L 409.90 76.69
  Q 411.95 73.90 412.18 72.68
  C 413.07 67.98 414.49 61.26 418.26 57.98
  L 423.57 54.57
  Q 424.79 54.34 426.00 54.47
  Q 427.22 54.59 426.93 55.76
  Z"
/>
<path fill="#073ace" d="
  M 426.93 55.76
  Q 426.82 56.40 427.15 56.57
  Q 426.31 60.74 423.50 63.87
  Q 423.18 64.23 422.82 63.92
  L 422.63 63.75
  Q 422.44 63.59 422.61 63.41
  Q 425.13 60.66 425.92 57.00
  Q 426.02 56.57 426.93 55.76
  Z"
/>
<path fill="#111c49" d="
  M 284.19 58.51
  Q 286.40 68.23 295.47 74.03
  Q 295.77 74.22 296.17 75.05
  C 295.91 83.61 296.39 91.21 300.01 99.25
  Q 300.23 99.74 300.71 99.49
  C 308.93 95.29 313.89 86.47 316.00 77.66
  Q 322.44 73.59 322.78 65.31
  Q 331.11 63.12 338.75 64.25
  C 349.08 65.76 353.64 73.50 356.92 82.67
  Q 365.81 107.55 378.17 130.89
  Q 377.81 131.62 377.46 132.60
  Q 374.15 141.74 372.84 150.34
  C 372.48 152.69 371.58 159.58 372.76 161.46
  A 0.34 0.34 0.0 0 0 373.39 161.27
  Q 373.17 146.20 379.07 130.59
  L 409.90 76.69
  L 426.72 92.77
  L 430.41 96.38
  Q 430.77 96.73 430.61 97.21
  Q 421.07 126.89 412.83 149.78
  C 410.13 157.26 406.34 166.49 401.07 172.52
  Q 389.21 186.10 369.16 178.92
  C 358.79 175.21 352.14 167.18 347.38 157.43
  Q 346.78 156.20 346.89 157.56
  Q 348.01 170.87 347.24 183.91
  Q 337.31 187.24 327.74 186.44
  Q 312.91 185.20 299.41 180.20
  Q 298.92 180.02 298.93 179.50
  L 300.20 102.15
  Q 300.24 99.55 299.70 102.09
  L 283.41 178.52
  Q 283.31 179.02 282.80 179.10
  Q 268.98 181.16 255.33 178.89
  Q 255.04 178.72 255.04 178.25
  Q 255.05 158.46 255.04 137.81
  C 255.04 133.98 254.00 131.00 249.75 131.01
  Q 220.38 131.08 190.99 131.06
  C 185.65 110.96 183.24 89.53 182.30 68.79
  Q 182.28 68.28 182.75 68.08
  L 187.04 66.23
  L 204.46 58.93
  Q 205.30 58.36 205.63 59.27
  Q 215.38 86.04 225.15 112.82
  L 225.01 113.08
  Q 224.87 113.35 224.93 113.64
  Q 226.43 121.92 226.23 130.34
  A 0.17 0.17 0.0 0 0 226.40 130.51
  L 226.68 130.52
  Q 227.14 130.54 227.17 130.08
  Q 227.60 121.34 225.70 112.77
  Q 242.00 91.12 257.16 68.65
  Q 267.20 53.77 284.19 58.51
  Z
  M 261.96 74.57
  C 259.64 93.24 254.78 111.57 247.67 129.97
  Q 247.62 130.10 247.71 130.20
  L 247.96 130.46
  Q 248.25 130.76 248.41 130.38
  Q 259.32 103.64 262.93 75.05
  A 0.57 0.57 0.0 0 0 262.50 74.43
  L 262.24 74.37
  Q 261.99 74.32 261.96 74.57
  Z
  M 346.94 156.63
  A 0.46 0.46 0.0 0 0 347.26 156.07
  C 340.80 131.98 340.16 107.28 343.52 82.60
  Q 343.56 82.35 343.31 82.32
  L 343.06 82.28
  A 0.40 0.40 0.0 0 0 342.60 82.62
  C 338.86 106.71 339.72 132.92 346.32 156.51
  Q 346.40 156.78 346.67 156.70
  L 346.94 156.63
  Z"
/>
<path fill="#073ace" d="
  M 433.36 59.88
  L 433.83 60.60
  Q 431.27 64.95 427.34 67.35
  Q 426.79 67.68 426.32 67.21
  L 433.36 59.88
  Z"
/>
<path fill="#d3dfff" d="
  M 433.83 60.60
  Q 436.64 62.27 435.88 64.92
  L 428.38 72.99
  Q 424.41 74.01 424.43 71.50
  Q 424.45 69.57 426.32 67.21
  Q 426.79 67.68 427.34 67.35
  Q 431.27 64.95 433.83 60.60
  Z"
/>
<path fill="#111c49" d="
  M 426.32 67.21
  Q 424.45 69.57 424.43 71.50
  Q 424.41 74.01 428.38 72.99
  C 427.02 74.15 424.98 76.85 426.97 78.30
  Q 428.05 79.09 429.47 77.79
  Q 429.90 78.11 429.78 78.36
  Q 428.62 79.91 428.80 81.68
  Q 428.86 82.21 429.36 82.39
  Q 430.50 82.78 431.75 82.17
  A 0.68 0.67 59.9 0 1 432.60 82.40
  Q 432.86 82.78 432.97 83.42
  L 435.08 90.51
  Q 435.84 93.07 433.61 94.54
  Q 433.17 94.83 432.67 94.82
  Q 430.43 94.81 429.85 93.50
  Q 428.56 90.54 428.09 88.72
  C 426.52 83.51 424.07 77.82 423.55 72.54
  Q 423.22 69.20 422.33 65.87
  Q 422.24 65.56 422.41 65.28
  Q 422.47 65.17 422.58 65.09
  Q 422.83 64.90 422.81 65.22
  L 422.76 66.01
  Q 422.72 66.54 423.08 66.92
  Q 424.23 68.12 426.32 67.21
  Z"
/>
<path fill="#073ace" d="
  M 435.88 64.92
  Q 435.88 65.62 436.08 65.89
  Q 433.05 71.03 428.38 72.99
  L 435.88 64.92
  Z"
/>
<path fill="#d3dfff" d="
  M 436.08 65.89
  Q 439.11 66.89 438.65 69.87
  Q 435.43 73.64 434.08 74.58
  Q 431.75 76.18 429.47 77.79
  Q 428.05 79.09 426.97 78.30
  C 424.98 76.85 427.02 74.15 428.38 72.99
  Q 433.05 71.03 436.08 65.89
  Z"
/>
<path fill="#073ace" d="
  M 438.65 69.87
  Q 438.96 70.45 438.94 70.76
  Q 435.49 75.83 429.78 78.36
  Q 429.90 78.11 429.47 77.79
  Q 431.75 76.18 434.08 74.58
  Q 435.43 73.64 438.65 69.87
  Z"
/>
<path fill="#d3dfff" d="
  M 438.94 70.76
  Q 441.86 71.45 441.00 73.75
  Q 438.94 79.27 432.97 83.42
  Q 432.86 82.78 432.60 82.40
  A 0.68 0.67 59.9 0 0 431.75 82.17
  Q 430.50 82.78 429.36 82.39
  Q 428.86 82.21 428.80 81.68
  Q 428.62 79.91 429.78 78.36
  Q 435.49 75.83 438.94 70.76
  Z"
/>
<path fill="#073ace" d="
  M 247.67 129.97
  C 254.78 111.57 259.64 93.24 261.96 74.57
  Q 261.99 74.32 262.24 74.37
  L 262.50 74.43
  A 0.57 0.57 0.0 0 1 262.93 75.05
  Q 259.32 103.64 248.41 130.38
  Q 248.25 130.76 247.96 130.46
  L 247.71 130.20
  Q 247.62 130.10 247.67 129.97
  Z"
/>
<path fill="#4071ff" d="
  M 316.00 77.66
  C 313.89 86.47 308.93 95.29 300.71 99.49
  Q 300.23 99.74 300.01 99.25
  C 296.39 91.21 295.91 83.61 296.17 75.05
  Q 296.02 75.00 296.24 74.91
  Q 296.37 74.85 296.49 74.92
  C 303.06 78.51 308.56 80.43 316.00 77.66
  Z"
/>
<path fill="#073ace" d="
  M 346.94 156.63
  L 346.67 156.70
  Q 346.40 156.78 346.32 156.51
  C 339.72 132.92 338.86 106.71 342.60 82.62
  A 0.40 0.40 0.0 0 1 343.06 82.28
  L 343.31 82.32
  Q 343.56 82.35 343.52 82.60
  C 340.16 107.28 340.80 131.98 347.26 156.07
  A 0.46 0.46 0.0 0 1 346.94 156.63
  Z"
/>
<path fill="#4071ff" d="
  M 347.24 183.91
  Q 346.79 197.55 348.00 210.88
  Q 301.82 222.59 256.99 207.77
  Q 256.08 207.48 255.37 206.98
  Q 255.48 206.53 255.25 206.22
  Q 255.02 205.91 255.02 205.53
  L 255.33 178.89
  Q 268.98 181.16 282.80 179.10
  Q 283.31 179.02 283.41 178.52
  L 299.70 102.09
  Q 300.24 99.55 300.20 102.15
  L 298.93 179.50
  Q 298.92 180.02 299.41 180.20
  Q 312.91 185.20 327.74 186.44
  Q 337.31 187.24 347.24 183.91
  Z"
/>
<path fill="#073ace" d="
  M 225.15 112.82
  Q 225.51 112.84 225.70 112.77
  Q 227.60 121.34 227.17 130.08
  Q 227.14 130.54 226.68 130.52
  L 226.40 130.51
  A 0.17 0.17 0.0 0 1 226.23 130.34
  Q 226.43 121.92 224.93 113.64
  Q 224.87 113.35 225.01 113.08
  L 225.15 112.82
  Z"
/>
<path fill="#073ace" d="
  M 378.17 130.89
  Q 378.51 130.91 379.07 130.59
  Q 373.17 146.20 373.39 161.27
  A 0.34 0.34 0.0 0 1 372.76 161.46
  C 371.58 159.58 372.48 152.69 372.84 150.34
  Q 374.15 141.74 377.46 132.60
  Q 377.81 131.62 378.17 130.89
  Z"
/>
<path fill="#708dff" d="
  M 190.99 131.06
  Q 220.38 131.08 249.75 131.01
  C 254.00 131.00 255.04 133.98 255.04 137.81
  Q 255.05 158.46 255.04 178.25
  Q 255.04 178.72 255.33 178.89
  L 255.02 205.53
  Q 255.02 205.91 255.25 206.22
  Q 255.48 206.53 255.37 206.98
  L 255.22 207.25
  Q 255.04 207.59 255.04 207.98
  L 255.05 248.71
  A 4.76 4.76 0.0 0 1 250.30 253.47
  L 241.35 253.49
  Q 170.86 253.45 100.50 253.42
  Q 94.59 253.42 94.59 247.25
  Q 94.65 194.75 94.61 142.25
  C 94.76 137.87 93.34 131.04 100.00 131.05
  Q 145.50 131.12 190.99 131.06
  Z
  M 245.24 139.60
  A 2.45 2.45 0.0 0 0 242.79 137.15
  L 212.77 137.15
  A 2.45 2.45 0.0 0 0 210.32 139.60
  L 210.32 139.78
  A 2.45 2.45 0.0 0 0 212.77 142.23
  L 242.79 142.23
  A 2.45 2.45 0.0 0 0 245.24 139.78
  L 245.24 139.60
  Z
  M 160.04 192.05
  A 0.32 0.32 0.0 0 1 160.04 192.51
  L 139.55 212.98
  A 0.32 0.32 0.0 0 0 139.55 213.44
  L 153.62 227.55
  A 0.32 0.32 0.0 0 0 154.08 227.55
  L 174.57 207.05
  A 0.32 0.32 0.0 0 1 175.03 207.05
  L 195.57 227.59
  A 0.32 0.32 0.0 0 0 196.03 227.59
  L 210.14 213.49
  A 0.32 0.32 0.0 0 0 210.14 213.03
  L 189.60 192.49
  A 0.32 0.32 0.0 0 1 189.60 192.03
  L 210.16 171.47
  A 0.32 0.32 0.0 0 0 210.16 171.01
  L 196.08 156.91
  A 0.32 0.32 0.0 0 0 195.62 156.91
  L 175.06 177.48
  A 0.32 0.32 0.0 0 1 174.60 177.48
  L 154.05 156.94
  A 0.32 0.32 0.0 0 0 153.59 156.94
  L 139.49 171.06
  A 0.32 0.32 0.0 0 0 139.49 171.52
  L 160.04 192.05
  Z"
/>
<rect fill="#073ace" x="210.32" y="137.15" width="34.92" height="5.08" rx="2.45"/>
<path fill="#073ace" d="
  M 94.61 142.25
  Q 94.65 194.75 94.59 247.25
  Q 94.59 253.42 100.50 253.42
  Q 170.86 253.45 241.35 253.49
  Q 241.96 256.14 241.78 259.03
  C 241.33 265.91 236.14 264.42 231.25 264.71
  Q 159.24 264.74 87.25 264.68
  Q 81.22 264.68 81.22 258.50
  Q 81.26 205.86 81.25 153.26
  C 81.28 147.79 79.87 142.32 87.61 142.24
  Q 91.05 142.20 94.61 142.25
  Z"
/>
<path fill="#708dff" d="
  M 81.25 153.26
  Q 81.26 205.86 81.22 258.50
  Q 81.22 264.68 87.25 264.68
  Q 159.24 264.74 231.25 264.71
  C 231.31 269.73 232.35 276.41 224.69 275.66
  Q 150.52 275.66 76.25 275.67
  C 72.65 275.67 70.85 273.29 70.85 269.98
  Q 70.91 214.44 70.88 158.13
  C 70.88 152.39 77.58 153.21 81.25 153.26
  Z"
/>
<path fill="#fff3ff" d="
  M 160.04 192.05
  L 139.49 171.52
  A 0.32 0.32 0.0 0 1 139.49 171.06
  L 153.59 156.94
  A 0.32 0.32 0.0 0 1 154.05 156.94
  L 174.60 177.48
  A 0.32 0.32 0.0 0 0 175.06 177.48
  L 195.62 156.91
  A 0.32 0.32 0.0 0 1 196.08 156.91
  L 210.16 171.01
  A 0.32 0.32 0.0 0 1 210.16 171.47
  L 189.60 192.03
  A 0.32 0.32 0.0 0 0 189.60 192.49
  L 210.14 213.03
  A 0.32 0.32 0.0 0 1 210.14 213.49
  L 196.03 227.59
  A 0.32 0.32 0.0 0 1 195.57 227.59
  L 175.03 207.05
  A 0.32 0.32 0.0 0 0 174.57 207.05
  L 154.08 227.55
  A 0.32 0.32 0.0 0 1 153.62 227.55
  L 139.55 213.44
  A 0.32 0.32 0.0 0 1 139.55 212.98
  L 160.04 192.51
  A 0.32 0.32 0.0 0 0 160.04 192.05
  Z"
/>
<path fill="#111c49" d="
  M 255.37 206.98
  Q 256.08 207.48 256.99 207.77
  Q 301.82 222.59 348.00 210.88
  L 384.57 429.01
  Q 384.66 429.50 384.36 429.91
  Q 379.86 435.93 373.38 440.31
  Q 361.34 447.61 347.26 446.64
  Q 343.97 446.41 342.97 446.46
  Q 328.07 444.35 312.75 441.33
  Q 307.88 440.38 298.92 439.70
  Q 289.63 439.15 283.00 440.59
  Q 279.58 441.33 268.21 444.63
  Q 238.83 450.15 216.92 430.57
  A 2.16 2.15 24.1 0 1 216.21 428.73
  Q 222.16 373.39 224.29 317.50
  Q 224.96 300.00 224.69 275.66
  C 232.35 276.41 231.31 269.73 231.25 264.71
  C 236.14 264.42 241.33 265.91 241.78 259.03
  Q 241.96 256.14 241.35 253.49
  L 250.30 253.47
  A 4.76 4.76 0.0 0 0 255.05 248.71
  L 255.04 207.98
  Q 255.04 207.59 255.22 207.25
  L 255.37 206.98
  Z
  M 328.20 223.93
  L 327.90 224.06
  Q 327.69 224.15 327.76 224.37
  C 331.04 233.74 338.10 241.18 348.07 242.65
  A 0.25 0.25 0.0 0 0 348.36 242.43
  L 348.39 242.16
  A 0.55 0.54 -82.3 0 0 347.94 241.56
  C 338.29 240.04 331.96 232.87 328.61 224.10
  A 0.31 0.31 0.0 0 0 328.20 223.93
  Z
  M 306.89 417.94
  C 301.62 370.26 294.49 322.90 284.98 275.52
  A 0.47 0.47 0.0 0 0 284.23 275.24
  L 284.01 275.41
  Q 283.90 275.50 283.92 275.63
  Q 298.04 345.96 305.80 417.75
  A 0.50 0.49 -1.9 0 0 306.29 418.20
  L 306.64 418.21
  A 0.24 0.24 0.0 0 0 306.89 417.94
  Z"
/>
<path fill="#073ace" d="
  M 328.61 224.10
  C 331.96 232.87 338.29 240.04 347.94 241.56
  A 0.55 0.54 -82.3 0 1 348.39 242.16
  L 348.36 242.43
  A 0.25 0.25 0.0 0 1 348.07 242.65
  C 338.10 241.18 331.04 233.74 327.76 224.37
  Q 327.69 224.15 327.90 224.06
  L 328.20 223.93
  A 0.31 0.31 0.0 0 1 328.61 224.10
  Z"
/>
<path fill="#073ace" d="
  M 284.98 275.52
  C 294.49 322.90 301.62 370.26 306.89 417.94
  A 0.24 0.24 0.0 0 1 306.64 418.21
  L 306.29 418.20
  A 0.50 0.49 -1.9 0 1 305.80 417.75
  Q 298.04 345.96 283.92 275.63
  Q 283.90 275.50 284.01 275.41
  L 284.23 275.24
  A 0.47 0.47 0.0 0 1 284.98 275.52
  Z"
/>
<path fill="#d3dfff" d="
  M 298.92 439.70
  Q 298.62 446.91 300.69 452.26
  L 271.83 457.03
  L 268.21 444.63
  Q 279.58 441.33 283.00 440.59
  Q 289.63 439.15 298.92 439.70
  Z"
/>
<path fill="#d3dfff" d="
  M 373.38 440.31
  L 374.62 449.87
  L 344.59 454.06
  Q 345.40 450.91 342.97 446.46
  Q 343.97 446.41 347.26 446.64
  Q 361.34 447.61 373.38 440.31
  Z"
/>
<path fill="#073ace" d="
  M 374.62 449.87
  Q 375.52 449.68 376.21 450.20
  Q 376.70 450.57 376.79 451.13
  Q 378.76 463.80 380.65 475.90
  Q 380.89 477.41 381.55 478.84
  Q 382.26 480.38 382.84 481.45
  Q 382.57 489.65 378.01 495.00
  Q 377.31 495.81 376.25 495.81
  Q 357.87 495.72 339.58 495.84
  C 342.93 489.26 347.57 484.68 349.91 476.78
  Q 350.06 476.30 349.94 475.82
  L 344.59 454.06
  L 374.62 449.87
  Z"
/>
<path fill="#073ace" d="
  M 300.69 452.26
  Q 303.95 466.35 305.50 481.09
  Q 294.42 486.14 292.00 498.77
  A 0.78 0.78 0.0 0 1 291.23 499.41
  L 235.55 499.42
  Q 240.49 490.89 250.27 488.79
  C 259.16 486.88 270.14 485.43 275.61 477.20
  Q 276.33 476.11 275.97 474.81
  Q 273.51 465.96 271.83 457.03
  L 300.69 452.26
  Z"
/>
<path fill="#111c49" d="
  M 305.50 481.09
  L 311.02 502.74
  A 0.78 0.77 82.8 0 1 310.27 503.71
  L 235.29 503.71
  A 1.86 1.86 0.0 0 1 233.56 501.18
  Q 234.04 499.92 235.55 499.42
  L 291.23 499.41
  A 0.78 0.78 0.0 0 0 292.00 498.77
  Q 294.42 486.14 305.50 481.09
  Z"
/>
<path fill="#111c49" d="
  M 382.84 481.45
  Q 390.17 491.93 393.77 502.76
  Q 394.08 503.66 393.12 503.66
  L 339.05 503.67
  A 0.84 0.82 76.6 0 1 338.31 503.20
  Q 336.37 499.20 339.58 495.84
  Q 357.87 495.72 376.25 495.81
  Q 377.31 495.81 378.01 495.00
  Q 382.57 489.65 382.84 481.45
  Z"
/>
</svg>
