<svg xmlns="http://www.w3.org/2000/svg" xmlns:xlink="http://www.w3.org/1999/xlink" width="500" zoomAndPan="magnify" viewBox="0 0 375 374.999991" height="500" preserveAspectRatio="xMidYMid meet" version="1.0"><defs><g/></defs><rect x="-37.5" width="450" fill="#ffffff" y="-37.499999" height="449.999989" fill-opacity="1"/><rect x="-37.5" width="450" fill="#ffffff" y="-37.499999" height="449.999989" fill-opacity="1"/><g fill="#0e076d" fill-opacity="1"><g transform="translate(121.612848, 69.367848)"><g><path d="M -1.140625 -12.03125 L 1.9375 -13.640625 C 2.28125 -13.816406 2.570312 -13.769531 2.8125 -13.5 L 10.6875 -6.109375 C 10.71875 -6.078125 10.75 -6.03125 10.78125 -5.96875 C 10.8125 -5.90625 10.8125 -5.828125 10.78125 -5.734375 C 10.75 -5.640625 10.691406 -5.570312 10.609375 -5.53125 L 8 -4.171875 C 7.707031 -4.015625 7.457031 -4.035156 7.25 -4.234375 L 6.421875 -4.984375 L 3.375 -3.390625 L 3.515625 -2.28125 C 3.554688 -2 3.429688 -1.785156 3.140625 -1.640625 L 0.53125 -0.28125 C 0.445312 -0.226562 0.351562 -0.21875 0.25 -0.25 C 0.15625 -0.28125 0.09375 -0.328125 0.0625 -0.390625 C 0.03125 -0.453125 0.0078125 -0.5 0 -0.53125 L -1.546875 -11.234375 C -1.617188 -11.585938 -1.484375 -11.851562 -1.140625 -12.03125 Z M 2.65625 -6.546875 L 4.265625 -7.390625 L 2.078125 -9.578125 Z M 2.65625 -6.546875 "/></g></g></g><g fill="#0e076d" fill-opacity="1"><g transform="translate(134.497436, 62.795771)"><g><path d="M -2.703125 -10.96875 L 1.734375 -12.703125 C 3.160156 -13.265625 4.394531 -13.394531 5.4375 -13.09375 C 6.488281 -12.789062 7.25 -12.039062 7.71875 -10.84375 C 8.1875 -9.644531 8.132812 -8.597656 7.5625 -7.703125 C 6.988281 -6.816406 5.984375 -6.085938 4.546875 -5.515625 L 3.578125 -5.140625 L 4.6875 -2.296875 C 4.726562 -2.179688 4.722656 -2.066406 4.671875 -1.953125 C 4.617188 -1.847656 4.539062 -1.773438 4.4375 -1.734375 L 1.375 -0.53125 C 1.257812 -0.488281 1.144531 -0.488281 1.03125 -0.53125 C 0.925781 -0.582031 0.851562 -0.664062 0.8125 -0.78125 L -2.953125 -10.40625 C -2.992188 -10.507812 -2.988281 -10.617188 -2.9375 -10.734375 C -2.894531 -10.847656 -2.816406 -10.925781 -2.703125 -10.96875 Z M 1.765625 -9.515625 L 2.421875 -7.875 L 3.46875 -8.28125 C 3.644531 -8.351562 3.773438 -8.476562 3.859375 -8.65625 C 3.941406 -8.84375 3.929688 -9.0625 3.828125 -9.3125 C 3.734375 -9.5625 3.597656 -9.75 3.421875 -9.875 C 3.253906 -10 3.050781 -10.015625 2.8125 -9.921875 Z M 1.765625 -9.515625 "/></g></g></g><g fill="#0e076d" fill-opacity="1"><g transform="translate(147.167597, 57.977765)"><g><path d="M 4.03125 -4.53125 L 8.28125 -5.734375 C 8.40625 -5.765625 8.519531 -5.75 8.625 -5.6875 C 8.726562 -5.632812 8.796875 -5.546875 8.828125 -5.421875 L 9.46875 -3.109375 C 9.507812 -2.984375 9.5 -2.867188 9.4375 -2.765625 C 9.382812 -2.671875 9.296875 -2.609375 9.171875 -2.578125 L 1.421875 -0.390625 C 1.304688 -0.359375 1.195312 -0.367188 1.09375 -0.421875 C 1 -0.484375 0.929688 -0.578125 0.890625 -0.703125 L -1.890625 -10.640625 C -1.921875 -10.753906 -1.910156 -10.863281 -1.859375 -10.96875 C -1.804688 -11.070312 -1.722656 -11.140625 -1.609375 -11.171875 L 1.46875 -12.046875 C 1.570312 -12.078125 1.679688 -12.0625 1.796875 -12 C 1.910156 -11.9375 1.984375 -11.847656 2.015625 -11.734375 Z M 4.03125 -4.53125 "/></g></g></g><g fill="#0e076d" fill-opacity="1"><g transform="translate(159.1464, 54.787875)"><g><path d="M 4.640625 -0.90625 L 1.4375 -0.28125 C 1.320312 -0.257812 1.21875 -0.28125 1.125 -0.34375 C 1.03125 -0.414062 0.972656 -0.507812 0.953125 -0.625 L -1.046875 -10.765625 C -1.066406 -10.878906 -1.046875 -10.988281 -0.984375 -11.09375 C -0.921875 -11.195312 -0.832031 -11.257812 -0.71875 -11.28125 L 2.484375 -11.90625 C 2.597656 -11.9375 2.707031 -11.914062 2.8125 -11.84375 C 2.914062 -11.769531 2.976562 -11.675781 3 -11.5625 L 5 -1.421875 C 5.019531 -1.304688 4.992188 -1.195312 4.921875 -1.09375 C 4.847656 -1 4.753906 -0.9375 4.640625 -0.90625 Z M 4.640625 -0.90625 "/></g></g></g><g fill="#0e076d" fill-opacity="1"><g transform="translate(167.203256, 53.167063)"><g><path d="M 4.09375 -7.421875 L 4.375 -4.75 C 4.46875 -3.894531 4.910156 -3.507812 5.703125 -3.59375 C 6.296875 -3.65625 6.660156 -3.988281 6.796875 -4.59375 C 6.835938 -4.769531 6.890625 -4.894531 6.953125 -4.96875 C 7.023438 -5.039062 7.15625 -5.085938 7.34375 -5.109375 L 10.59375 -5.453125 C 10.6875 -5.460938 10.769531 -5.4375 10.84375 -5.375 C 10.925781 -5.320312 10.972656 -5.253906 10.984375 -5.171875 C 11.078125 -4.242188 10.894531 -3.429688 10.4375 -2.734375 C 9.59375 -1.472656 8.132812 -0.726562 6.0625 -0.5 C 4.4375 -0.320312 3.101562 -0.535156 2.0625 -1.140625 C 1.019531 -1.753906 0.421875 -2.800781 0.265625 -4.28125 L -0.03125 -6.984375 C -0.195312 -8.453125 0.171875 -9.601562 1.078125 -10.4375 C 1.992188 -11.28125 3.238281 -11.785156 4.8125 -11.953125 C 6.882812 -12.179688 8.46875 -11.757812 9.5625 -10.6875 C 10.164062 -10.132812 10.519531 -9.394531 10.625 -8.46875 C 10.632812 -8.375 10.609375 -8.285156 10.546875 -8.203125 C 10.484375 -8.117188 10.40625 -8.070312 10.3125 -8.0625 L 7.0625 -7.71875 C 6.882812 -7.695312 6.753906 -7.710938 6.671875 -7.765625 C 6.585938 -7.828125 6.503906 -7.941406 6.421875 -8.109375 C 6.148438 -8.660156 5.722656 -8.90625 5.140625 -8.84375 C 4.347656 -8.757812 4 -8.285156 4.09375 -7.421875 Z M 4.09375 -7.421875 "/></g></g></g><g fill="#0e076d" fill-opacity="1"><g transform="translate(180.982846, 51.749645)"><g><path d="M 4.546875 -11.203125 L 8.015625 -11.203125 C 8.398438 -11.203125 8.640625 -11.023438 8.734375 -10.671875 L 12.296875 -0.46875 C 12.304688 -0.4375 12.3125 -0.382812 12.3125 -0.3125 C 12.3125 -0.238281 12.273438 -0.164062 12.203125 -0.09375 C 12.140625 -0.03125 12.0625 0 11.96875 0 L 9.015625 0 C 8.691406 0 8.484375 -0.132812 8.390625 -0.40625 L 8 -1.453125 L 4.5625 -1.453125 L 4.171875 -0.40625 C 4.078125 -0.132812 3.867188 0 3.546875 0 L 0.59375 0 C 0.5 0 0.414062 -0.03125 0.34375 -0.09375 C 0.269531 -0.164062 0.234375 -0.238281 0.234375 -0.3125 C 0.234375 -0.382812 0.238281 -0.4375 0.25 -0.46875 L 3.828125 -10.671875 C 3.921875 -11.023438 4.160156 -11.203125 4.546875 -11.203125 Z M 5.375 -4.578125 L 7.1875 -4.578125 L 6.265625 -7.546875 Z M 5.375 -4.578125 "/></g></g></g><g fill="#0e076d" fill-opacity="1"><g transform="translate(195.45212, 51.88771)"><g><path d="M 2.09375 -11.046875 L 11.40625 -10.046875 C 11.53125 -10.035156 11.628906 -9.976562 11.703125 -9.875 C 11.773438 -9.78125 11.804688 -9.675781 11.796875 -9.5625 L 11.515625 -7 C 11.503906 -6.882812 11.453125 -6.789062 11.359375 -6.71875 C 11.273438 -6.644531 11.171875 -6.613281 11.046875 -6.625 L 8.40625 -6.90625 L 7.625 0.375 C 7.613281 0.5 7.5625 0.597656 7.46875 0.671875 C 7.375 0.742188 7.269531 0.773438 7.15625 0.765625 L 3.984375 0.421875 C 3.867188 0.410156 3.769531 0.359375 3.6875 0.265625 C 3.613281 0.171875 3.582031 0.0625 3.59375 -0.0625 L 4.375 -7.34375 L 1.734375 -7.625 C 1.617188 -7.632812 1.519531 -7.6875 1.4375 -7.78125 C 1.363281 -7.875 1.332031 -7.976562 1.34375 -8.09375 L 1.625 -10.65625 C 1.632812 -10.769531 1.6875 -10.863281 1.78125 -10.9375 C 1.875 -11.019531 1.976562 -11.054688 2.09375 -11.046875 Z M 2.09375 -11.046875 "/></g></g></g><g fill="#0e076d" fill-opacity="1"><g transform="translate(208.5702, 53.471785)"><g><path d="M 4.65625 0.890625 L 1.4375 0.28125 C 1.332031 0.257812 1.242188 0.195312 1.171875 0.09375 C 1.109375 0 1.085938 -0.109375 1.109375 -0.234375 L 3.046875 -10.375 C 3.066406 -10.488281 3.125 -10.578125 3.21875 -10.640625 C 3.320312 -10.710938 3.425781 -10.738281 3.53125 -10.71875 L 6.75 -10.109375 C 6.851562 -10.085938 6.941406 -10.023438 7.015625 -9.921875 C 7.085938 -9.828125 7.113281 -9.722656 7.09375 -9.609375 L 5.15625 0.53125 C 5.132812 0.65625 5.070312 0.75 4.96875 0.8125 C 4.863281 0.882812 4.757812 0.910156 4.65625 0.890625 Z M 4.65625 0.890625 "/></g></g></g><g fill="#0e076d" fill-opacity="1"><g transform="translate(216.653127, 54.985411)"><g><path d="M 10.765625 -8.625 L 13.640625 -7.828125 C 13.734375 -7.804688 13.800781 -7.75 13.84375 -7.65625 C 13.882812 -7.5625 13.894531 -7.484375 13.875 -7.421875 C 13.863281 -7.359375 13.847656 -7.3125 13.828125 -7.28125 L 8.1875 1.734375 C 8 2.046875 7.71875 2.148438 7.34375 2.046875 L 3.84375 1.078125 C 3.46875 0.972656 3.28125 0.734375 3.28125 0.359375 L 3.125 -10.28125 C 3.125 -10.3125 3.128906 -10.359375 3.140625 -10.421875 C 3.160156 -10.484375 3.21875 -10.539062 3.3125 -10.59375 C 3.40625 -10.644531 3.5 -10.660156 3.59375 -10.640625 L 6.453125 -9.84375 C 6.816406 -9.738281 7 -9.5 7 -9.125 L 6.859375 -2.984375 L 9.9375 -8.3125 C 10.113281 -8.625 10.390625 -8.726562 10.765625 -8.625 Z M 10.765625 -8.625 "/></g></g></g><g fill="#0e076d" fill-opacity="1"><g transform="translate(229.658517, 58.711263)"><g><path d="M 5.796875 -8.640625 C 6.992188 -9.023438 8.34375 -8.914062 9.84375 -8.3125 C 11.34375 -7.71875 12.394531 -6.867188 13 -5.765625 C 13.601562 -4.660156 13.640625 -3.441406 13.109375 -2.109375 L 12.1875 0.21875 C 11.644531 1.570312 10.785156 2.421875 9.609375 2.765625 C 8.429688 3.109375 7.082031 2.976562 5.5625 2.375 C 4.050781 1.769531 2.988281 0.941406 2.375 -0.109375 C 1.757812 -1.171875 1.722656 -2.378906 2.265625 -3.734375 L 3.1875 -6.0625 C 3.726562 -7.40625 4.597656 -8.265625 5.796875 -8.640625 Z M 6.03125 -1.125 C 6.15625 -0.851562 6.382812 -0.648438 6.71875 -0.515625 C 7.0625 -0.378906 7.367188 -0.367188 7.640625 -0.484375 C 7.921875 -0.609375 8.144531 -0.875 8.3125 -1.28125 L 9.296875 -3.78125 C 9.453125 -4.175781 9.472656 -4.515625 9.359375 -4.796875 C 9.242188 -5.078125 9.015625 -5.285156 8.671875 -5.421875 C 8.335938 -5.554688 8.03125 -5.5625 7.75 -5.4375 C 7.46875 -5.3125 7.25 -5.050781 7.09375 -4.65625 L 6.109375 -2.15625 C 5.941406 -1.75 5.914062 -1.40625 6.03125 -1.125 Z M 6.03125 -1.125 "/></g></g></g><g fill="#0e076d" fill-opacity="1"><g transform="translate(242.661718, 64.00729)"><g><path d="M 4.234375 -6.453125 C 4.734375 -7.410156 5.539062 -7.976562 6.65625 -8.15625 C 7.78125 -8.34375 8.988281 -8.09375 10.28125 -7.40625 C 11.582031 -6.726562 12.484375 -5.859375 12.984375 -4.796875 C 13.484375 -3.734375 13.550781 -2.859375 13.1875 -2.171875 C 13.144531 -2.085938 13.078125 -2.03125 12.984375 -2 C 12.890625 -1.96875 12.800781 -1.972656 12.71875 -2.015625 L 9.90625 -3.5 C 9.675781 -3.613281 9.507812 -3.796875 9.40625 -4.046875 C 9.3125 -4.296875 9.113281 -4.5 8.8125 -4.65625 C 8.351562 -4.894531 8.054688 -4.890625 7.921875 -4.640625 C 7.847656 -4.484375 7.898438 -4.300781 8.078125 -4.09375 C 8.253906 -3.894531 8.625 -3.597656 9.1875 -3.203125 C 10.507812 -2.273438 11.34375 -1.414062 11.6875 -0.625 C 12.039062 0.164062 11.960938 1.046875 11.453125 2.015625 C 10.941406 2.984375 10.082031 3.535156 8.875 3.671875 C 7.664062 3.816406 6.347656 3.515625 4.921875 2.765625 C 3.492188 2.015625 2.523438 1.128906 2.015625 0.109375 C 1.515625 -0.898438 1.488281 -1.820312 1.9375 -2.65625 C 1.976562 -2.738281 2.046875 -2.796875 2.140625 -2.828125 C 2.234375 -2.859375 2.320312 -2.847656 2.40625 -2.796875 L 5.09375 -1.390625 C 5.289062 -1.285156 5.460938 -1.070312 5.609375 -0.75 C 5.753906 -0.425781 6.039062 -0.15625 6.46875 0.0625 C 7.164062 0.4375 7.582031 0.488281 7.71875 0.21875 C 7.8125 0.0390625 7.753906 -0.15625 7.546875 -0.375 C 7.335938 -0.601562 6.90625 -0.945312 6.25 -1.40625 C 3.976562 -3.007812 3.304688 -4.691406 4.234375 -6.453125 Z M 4.234375 -6.453125 "/></g></g></g><g fill="#2a15bc" fill-opacity="1"><g transform="translate(71.928715, 189.398307)"><g><path d="M 30.921875 -76.21875 L 54.546875 -76.21875 C 57.160156 -76.21875 58.796875 -75.019531 59.453125 -72.625 L 83.71875 -3.15625 C 83.789062 -2.9375 83.828125 -2.59375 83.828125 -2.125 C 83.828125 -1.65625 83.59375 -1.179688 83.125 -0.703125 C 82.65625 -0.234375 82.09375 0 81.4375 0 L 61.296875 0 C 59.117188 0 57.703125 -0.90625 57.046875 -2.71875 L 54.4375 -9.90625 L 31.03125 -9.90625 L 28.421875 -2.71875 C 27.765625 -0.90625 26.347656 0 24.171875 0 L 4.03125 0 C 3.375 0 2.8125 -0.234375 2.34375 -0.703125 C 1.875 -1.179688 1.640625 -1.65625 1.640625 -2.125 C 1.640625 -2.59375 1.671875 -2.9375 1.734375 -3.15625 L 26.015625 -72.625 C 26.671875 -75.019531 28.304688 -76.21875 30.921875 -76.21875 Z M 36.578125 -31.140625 L 48.890625 -31.140625 L 42.671875 -51.390625 Z M 36.578125 -31.140625 "/></g></g></g><g fill="#2a15bc" fill-opacity="1"><g transform="translate(157.385738, 189.398307)"><g><path d="M 69.03125 -32.546875 L 69.03125 -23.953125 C 69.03125 -15.828125 66.851562 -9.617188 62.5 -5.328125 C 58.144531 -1.046875 52.828125 1.09375 46.546875 1.09375 C 40.265625 1.09375 35.238281 -0.613281 31.46875 -4.03125 L 31.46875 17.75 C 31.46875 18.539062 31.175781 19.226562 30.59375 19.8125 C 30.007812 20.394531 29.320312 20.6875 28.53125 20.6875 L 8.390625 20.6875 C 7.585938 20.6875 6.894531 20.394531 6.3125 19.8125 C 5.726562 19.226562 5.4375 18.539062 5.4375 17.75 L 5.4375 -53.671875 C 5.4375 -54.472656 5.726562 -55.160156 6.3125 -55.734375 C 6.894531 -56.316406 7.585938 -56.609375 8.390625 -56.609375 L 26.890625 -56.609375 C 27.691406 -56.609375 28.378906 -56.316406 28.953125 -55.734375 C 29.535156 -55.160156 29.828125 -54.472656 29.828125 -53.671875 L 29.828125 -50.40625 C 33.609375 -55.269531 38.941406 -57.703125 45.828125 -57.703125 C 52.722656 -57.703125 58.3125 -55.648438 62.59375 -51.546875 C 66.882812 -47.453125 69.03125 -41.117188 69.03125 -32.546875 Z M 31.46875 -31.90625 L 31.46875 -23.84375 C 31.6875 -20.21875 33.5 -18.40625 36.90625 -18.40625 C 40.539062 -18.40625 42.359375 -20.507812 42.359375 -24.71875 L 42.359375 -31.90625 C 42.359375 -36.113281 40.539062 -38.21875 36.90625 -38.21875 C 33.28125 -38.21875 31.46875 -36.113281 31.46875 -31.90625 Z M 31.46875 -31.90625 "/></g></g></g><g fill="#2a15bc" fill-opacity="1"><g transform="translate(230.214713, 189.398307)"><g><path d="M 69.03125 -32.546875 L 69.03125 -23.953125 C 69.03125 -15.828125 66.851562 -9.617188 62.5 -5.328125 C 58.144531 -1.046875 52.828125 1.09375 46.546875 1.09375 C 40.265625 1.09375 35.238281 -0.613281 31.46875 -4.03125 L 31.46875 17.75 C 31.46875 18.539062 31.175781 19.226562 30.59375 19.8125 C 30.007812 20.394531 29.320312 20.6875 28.53125 20.6875 L 8.390625 20.6875 C 7.585938 20.6875 6.894531 20.394531 6.3125 19.8125 C 5.726562 19.226562 5.4375 18.539062 5.4375 17.75 L 5.4375 -53.671875 C 5.4375 -54.472656 5.726562 -55.160156 6.3125 -55.734375 C 6.894531 -56.316406 7.585938 -56.609375 8.390625 -56.609375 L 26.890625 -56.609375 C 27.691406 -56.609375 28.378906 -56.316406 28.953125 -55.734375 C 29.535156 -55.160156 29.828125 -54.472656 29.828125 -53.671875 L 29.828125 -50.40625 C 33.609375 -55.269531 38.941406 -57.703125 45.828125 -57.703125 C 52.722656 -57.703125 58.3125 -55.648438 62.59375 -51.546875 C 66.882812 -47.453125 69.03125 -41.117188 69.03125 -32.546875 Z M 31.46875 -31.90625 L 31.46875 -23.84375 C 31.6875 -20.21875 33.5 -18.40625 36.90625 -18.40625 C 40.539062 -18.40625 42.359375 -20.507812 42.359375 -24.71875 L 42.359375 -31.90625 C 42.359375 -36.113281 40.539062 -38.21875 36.90625 -38.21875 C 33.28125 -38.21875 31.46875 -36.113281 31.46875 -31.90625 Z M 31.46875 -31.90625 "/></g></g></g><g fill="#0e076d" fill-opacity="1"><g transform="translate(79.757054, 260.947905)"><g><path d="M 21.28125 0 L 6.40625 0 C 5.789062 0 5.257812 -0.21875 4.8125 -0.65625 C 4.375 -1.101562 4.15625 -1.632812 4.15625 -2.25 L 4.15625 -56.78125 C 4.15625 -57.382812 4.375 -57.90625 4.8125 -58.34375 C 5.257812 -58.789062 5.789062 -59.015625 6.40625 -59.015625 L 21.28125 -59.015625 C 21.882812 -59.015625 22.410156 -58.789062 22.859375 -58.34375 C 23.304688 -57.90625 23.53125 -57.382812 23.53125 -56.78125 L 23.53125 -2.25 C 23.53125 -1.632812 23.304688 -1.101562 22.859375 -0.65625 C 22.410156 -0.21875 21.882812 0 21.28125 0 Z M 21.28125 0 "/></g></g></g><g fill="#0e076d" fill-opacity="1"><g transform="translate(107.43615, 260.947905)"><g><path d="M 21.28125 0 L 6.40625 0 C 5.789062 0 5.257812 -0.21875 4.8125 -0.65625 C 4.375 -1.101562 4.15625 -1.632812 4.15625 -2.25 L 4.15625 -40.984375 C 4.15625 -41.585938 4.375 -42.109375 4.8125 -42.546875 C 5.257812 -42.992188 5.789062 -43.21875 6.40625 -43.21875 L 21.28125 -43.21875 C 21.882812 -43.21875 22.410156 -42.992188 22.859375 -42.546875 C 23.304688 -42.109375 23.53125 -41.585938 23.53125 -40.984375 L 23.53125 -2.25 C 23.53125 -1.632812 23.304688 -1.101562 22.859375 -0.65625 C 22.410156 -0.21875 21.882812 0 21.28125 0 Z M 23.109375 -59.265625 L 23.109375 -49.203125 C 23.109375 -48.597656 22.882812 -48.070312 22.4375 -47.625 C 22 -47.1875 21.472656 -46.96875 20.859375 -46.96875 L 6.8125 -46.96875 C 6.207031 -46.96875 5.679688 -47.1875 5.234375 -47.625 C 4.796875 -48.070312 4.578125 -48.597656 4.578125 -49.203125 L 4.578125 -59.265625 C 4.578125 -59.878906 4.796875 -60.40625 5.234375 -60.84375 C 5.679688 -61.289062 6.207031 -61.515625 6.8125 -61.515625 L 20.859375 -61.515625 C 21.472656 -61.515625 22 -61.289062 22.4375 -60.84375 C 22.882812 -60.40625 23.109375 -59.878906 23.109375 -59.265625 Z M 23.109375 -59.265625 "/></g></g></g><g fill="#0e076d" fill-opacity="1"><g transform="translate(135.115247, 260.947905)"><g><path d="M 23.28125 -24.515625 L 23.28125 -18.703125 C 23.28125 -16.816406 23.523438 -15.457031 24.015625 -14.625 C 24.515625 -13.800781 25.289062 -13.390625 26.34375 -13.390625 C 27.40625 -13.390625 28.128906 -13.566406 28.515625 -13.921875 C 28.898438 -14.285156 29.300781 -14.976562 29.71875 -16 C 30.132812 -17.03125 30.925781 -17.546875 32.09375 -17.546875 L 48.296875 -17.546875 C 48.898438 -17.546875 49.425781 -17.320312 49.875 -16.875 C 50.320312 -16.425781 50.546875 -15.84375 50.546875 -15.125 C 50.546875 -14.40625 50.296875 -13.4375 49.796875 -12.21875 C 49.296875 -11 48.4375 -9.613281 47.21875 -8.0625 C 46 -6.507812 44.5 -5.082031 42.71875 -3.78125 C 40.945312 -2.476562 38.617188 -1.382812 35.734375 -0.5 C 32.859375 0.382812 29.675781 0.828125 26.1875 0.828125 C 19.257812 0.828125 13.644531 -0.984375 9.34375 -4.609375 C 5.050781 -8.242188 2.90625 -13.273438 2.90625 -19.703125 L 2.90625 -23.53125 C 2.90625 -29.957031 5.050781 -34.984375 9.34375 -38.609375 C 13.644531 -42.242188 19.257812 -44.0625 26.1875 -44.0625 C 30.28125 -44.0625 33.988281 -43.4375 37.3125 -42.1875 C 40.644531 -40.9375 43.210938 -39.410156 45.015625 -37.609375 C 46.816406 -35.804688 48.1875 -34.046875 49.125 -32.328125 C 50.070312 -30.617188 50.546875 -29.304688 50.546875 -28.390625 C 50.546875 -27.472656 50.320312 -26.789062 49.875 -26.34375 C 49.425781 -25.90625 48.898438 -25.6875 48.296875 -25.6875 L 32.09375 -25.6875 C 31.03125 -25.6875 30.222656 -26.238281 29.671875 -27.34375 C 28.898438 -29.007812 27.875 -29.84375 26.59375 -29.84375 C 24.382812 -29.84375 23.28125 -28.066406 23.28125 -24.515625 Z M 23.28125 -24.515625 "/></g></g></g><g fill="#0e076d" fill-opacity="1"><g transform="translate(188.146071, 260.947905)"><g><path d="M 23.28125 -24.515625 L 23.28125 -18.703125 C 23.28125 -16.816406 23.523438 -15.457031 24.015625 -14.625 C 24.515625 -13.800781 25.289062 -13.390625 26.34375 -13.390625 C 27.40625 -13.390625 28.128906 -13.566406 28.515625 -13.921875 C 28.898438 -14.285156 29.300781 -14.976562 29.71875 -16 C 30.132812 -17.03125 30.925781 -17.546875 32.09375 -17.546875 L 48.296875 -17.546875 C 48.898438 -17.546875 49.425781 -17.320312 49.875 -16.875 C 50.320312 -16.425781 50.546875 -15.84375 50.546875 -15.125 C 50.546875 -14.40625 50.296875 -13.4375 49.796875 -12.21875 C 49.296875 -11 48.4375 -9.613281 47.21875 -8.0625 C 46 -6.507812 44.5 -5.082031 42.71875 -3.78125 C 40.945312 -2.476562 38.617188 -1.382812 35.734375 -0.5 C 32.859375 0.382812 29.675781 0.828125 26.1875 0.828125 C 19.257812 0.828125 13.644531 -0.984375 9.34375 -4.609375 C 5.050781 -8.242188 2.90625 -13.273438 2.90625 -19.703125 L 2.90625 -23.53125 C 2.90625 -29.957031 5.050781 -34.984375 9.34375 -38.609375 C 13.644531 -42.242188 19.257812 -44.0625 26.1875 -44.0625 C 30.28125 -44.0625 33.988281 -43.4375 37.3125 -42.1875 C 40.644531 -40.9375 43.210938 -39.410156 45.015625 -37.609375 C 46.816406 -35.804688 48.1875 -34.046875 49.125 -32.328125 C 50.070312 -30.617188 50.546875 -29.304688 50.546875 -28.390625 C 50.546875 -27.472656 50.320312 -26.789062 49.875 -26.34375 C 49.425781 -25.90625 48.898438 -25.6875 48.296875 -25.6875 L 32.09375 -25.6875 C 31.03125 -25.6875 30.222656 -26.238281 29.671875 -27.34375 C 28.898438 -29.007812 27.875 -29.84375 26.59375 -29.84375 C 24.382812 -29.84375 23.28125 -28.066406 23.28125 -24.515625 Z M 23.28125 -24.515625 "/></g></g></g><g fill="#0e076d" fill-opacity="1"><g transform="translate(241.176896, 260.947905)"><g><path d="M 2.90625 -18.78125 L 2.90625 -24.4375 C 2.90625 -30.757812 5.148438 -35.609375 9.640625 -38.984375 C 14.128906 -42.367188 19.921875 -44.0625 27.015625 -44.0625 C 34.109375 -44.0625 39.898438 -42.367188 44.390625 -38.984375 C 48.878906 -35.609375 51.125 -30.757812 51.125 -24.4375 L 51.125 -18.78125 C 51.125 -12.414062 48.960938 -7.554688 44.640625 -4.203125 C 40.316406 -0.847656 34.441406 0.828125 27.015625 0.828125 C 19.585938 0.828125 13.710938 -0.847656 9.390625 -4.203125 C 5.066406 -7.554688 2.90625 -12.414062 2.90625 -18.78125 Z M 30.75 -18.125 L 30.75 -25.109375 C 30.75 -27.210938 30.472656 -28.675781 29.921875 -29.5 C 29.367188 -30.332031 28.398438 -30.75 27.015625 -30.75 C 25.628906 -30.75 24.660156 -30.332031 24.109375 -29.5 C 23.554688 -28.675781 23.28125 -27.210938 23.28125 -25.109375 L 23.28125 -18.125 C 23.28125 -15.90625 23.554688 -14.40625 24.109375 -13.625 C 24.660156 -12.851562 25.628906 -12.46875 27.015625 -12.46875 C 28.398438 -12.46875 29.367188 -12.882812 29.921875 -13.71875 C 30.472656 -14.550781 30.75 -16.019531 30.75 -18.125 Z M 30.75 -18.125 "/></g></g></g><g fill="#0e076d" fill-opacity="1"><g transform="translate(124.76279, 317.738192)"><g><path d="M 3.859375 -6.6875 C 4.296875 -7.675781 5.0625 -8.296875 6.15625 -8.546875 C 7.257812 -8.804688 8.476562 -8.632812 9.8125 -8.03125 C 11.15625 -7.425781 12.109375 -6.601562 12.671875 -5.5625 C 13.234375 -4.53125 13.351562 -3.65625 13.03125 -2.9375 C 12.988281 -2.851562 12.921875 -2.796875 12.828125 -2.765625 C 12.742188 -2.734375 12.65625 -2.734375 12.5625 -2.765625 L 9.671875 -4.078125 C 9.441406 -4.179688 9.269531 -4.351562 9.15625 -4.59375 C 9.039062 -4.84375 8.828125 -5.039062 8.515625 -5.1875 C 8.046875 -5.394531 7.75 -5.367188 7.625 -5.109375 C 7.5625 -4.953125 7.625 -4.773438 7.8125 -4.578125 C 8 -4.378906 8.382812 -4.101562 8.96875 -3.75 C 10.34375 -2.894531 11.226562 -2.085938 11.625 -1.328125 C 12.019531 -0.566406 11.988281 0.3125 11.53125 1.3125 C 11.082031 2.3125 10.257812 2.914062 9.0625 3.125 C 7.875 3.34375 6.546875 3.117188 5.078125 2.453125 C 3.617188 1.796875 2.601562 0.976562 2.03125 0 C 1.46875 -0.976562 1.382812 -1.898438 1.78125 -2.765625 C 1.8125 -2.847656 1.875 -2.90625 1.96875 -2.9375 C 2.0625 -2.976562 2.148438 -2.976562 2.234375 -2.9375 L 5.015625 -1.6875 C 5.210938 -1.59375 5.390625 -1.390625 5.546875 -1.078125 C 5.710938 -0.765625 6.015625 -0.515625 6.453125 -0.328125 C 7.179688 0.00390625 7.609375 0.03125 7.734375 -0.25 C 7.816406 -0.425781 7.742188 -0.617188 7.515625 -0.828125 C 7.296875 -1.035156 6.84375 -1.351562 6.15625 -1.78125 C 3.800781 -3.238281 3.035156 -4.875 3.859375 -6.6875 Z M 3.859375 -6.6875 "/></g></g></g><g fill="#0e076d" fill-opacity="1"><g transform="translate(137.970935, 323.555188)"><g><path d="M 5.25 -8.96875 C 6.425781 -9.414062 7.78125 -9.382812 9.3125 -8.875 C 10.851562 -8.375 11.957031 -7.59375 12.625 -6.53125 C 13.300781 -5.46875 13.414062 -4.253906 12.96875 -2.890625 L 12.171875 -0.515625 C 11.722656 0.867188 10.921875 1.769531 9.765625 2.1875 C 8.617188 2.601562 7.265625 2.550781 5.703125 2.03125 C 4.148438 1.519531 3.035156 0.753906 2.359375 -0.265625 C 1.691406 -1.285156 1.582031 -2.488281 2.03125 -3.875 L 2.828125 -6.25 C 3.273438 -7.625 4.082031 -8.53125 5.25 -8.96875 Z M 5.953125 -1.46875 C 6.085938 -1.195312 6.328125 -1.003906 6.671875 -0.890625 C 7.023438 -0.785156 7.335938 -0.800781 7.609375 -0.9375 C 7.878906 -1.070312 8.082031 -1.347656 8.21875 -1.765625 L 9.0625 -4.328125 C 9.195312 -4.734375 9.195312 -5.070312 9.0625 -5.34375 C 8.925781 -5.613281 8.679688 -5.800781 8.328125 -5.90625 C 7.984375 -6.019531 7.675781 -6.007812 7.40625 -5.875 C 7.132812 -5.738281 6.929688 -5.46875 6.796875 -5.0625 L 5.953125 -2.5 C 5.816406 -2.082031 5.816406 -1.738281 5.953125 -1.46875 Z M 5.953125 -1.46875 "/></g></g></g><g fill="#0e076d" fill-opacity="1"><g transform="translate(152.277775, 328.078796)"><g><path d="M 3.84375 -10.625 L 11.71875 -8.890625 C 11.832031 -8.859375 11.921875 -8.789062 11.984375 -8.6875 C 12.046875 -8.59375 12.066406 -8.488281 12.046875 -8.375 L 11.53125 -6.015625 C 11.5 -5.890625 11.429688 -5.789062 11.328125 -5.71875 C 11.234375 -5.65625 11.128906 -5.640625 11.015625 -5.671875 L 6.546875 -6.65625 L 6.28125 -5.5 L 10.4375 -4.578125 C 10.550781 -4.554688 10.640625 -4.492188 10.703125 -4.390625 C 10.773438 -4.296875 10.796875 -4.191406 10.765625 -4.078125 L 10.25 -1.71875 C 10.226562 -1.601562 10.164062 -1.507812 10.0625 -1.4375 C 9.957031 -1.375 9.847656 -1.351562 9.734375 -1.375 L 5.578125 -2.296875 L 4.9375 0.640625 C 4.90625 0.753906 4.835938 0.84375 4.734375 0.90625 C 4.640625 0.976562 4.535156 1 4.421875 0.96875 L 1.4375 0.3125 C 1.320312 0.289062 1.226562 0.226562 1.15625 0.125 C 1.09375 0.0195312 1.078125 -0.0859375 1.109375 -0.203125 L 3.328125 -10.296875 C 3.347656 -10.410156 3.410156 -10.5 3.515625 -10.5625 C 3.617188 -10.625 3.726562 -10.644531 3.84375 -10.625 Z M 3.84375 -10.625 "/></g></g></g><g fill="#0e076d" fill-opacity="1"><g transform="translate(165.461051, 330.846026)"><g><path d="M 2.21875 -11.015625 L 11.515625 -9.921875 C 11.640625 -9.898438 11.738281 -9.84375 11.8125 -9.75 C 11.882812 -9.65625 11.914062 -9.550781 11.90625 -9.4375 L 11.59375 -6.875 C 11.582031 -6.757812 11.53125 -6.664062 11.4375 -6.59375 C 11.34375 -6.519531 11.234375 -6.492188 11.109375 -6.515625 L 8.484375 -6.828125 L 7.625 0.453125 C 7.613281 0.578125 7.5625 0.675781 7.46875 0.75 C 7.375 0.820312 7.269531 0.851562 7.15625 0.84375 L 3.96875 0.46875 C 3.851562 0.457031 3.753906 0.40625 3.671875 0.3125 C 3.597656 0.21875 3.566406 0.109375 3.578125 -0.015625 L 4.4375 -7.296875 L 1.8125 -7.609375 C 1.695312 -7.617188 1.601562 -7.664062 1.53125 -7.75 C 1.457031 -7.84375 1.425781 -7.945312 1.4375 -8.0625 L 1.75 -10.625 C 1.757812 -10.738281 1.8125 -10.832031 1.90625 -10.90625 C 2 -10.988281 2.101562 -11.023438 2.21875 -11.015625 Z M 2.21875 -11.015625 "/></g></g></g><g fill="#0e076d" fill-opacity="1"><g transform="translate(179.501235, 332.419994)"><g><path d="M 5.0625 0.03125 L 2.765625 0.015625 C 2.566406 0.015625 2.398438 -0.046875 2.265625 -0.171875 C 2.128906 -0.296875 2.050781 -0.4375 2.03125 -0.59375 L 0.625 -10.796875 L 0.625 -10.84375 C 0.625 -10.9375 0.65625 -11.019531 0.71875 -11.09375 C 0.789062 -11.164062 0.875 -11.203125 0.96875 -11.203125 L 3.953125 -11.1875 C 4.304688 -11.175781 4.5 -11.023438 4.53125 -10.734375 L 5.046875 -6.21875 L 5.703125 -8.21875 C 5.816406 -8.53125 6 -8.6875 6.25 -8.6875 L 7.890625 -8.671875 C 8.140625 -8.671875 8.320312 -8.515625 8.4375 -8.203125 L 9.078125 -6.21875 L 9.640625 -10.703125 C 9.671875 -10.992188 9.863281 -11.140625 10.21875 -11.140625 L 13.203125 -11.125 C 13.296875 -11.125 13.375 -11.085938 13.4375 -11.015625 C 13.507812 -10.941406 13.546875 -10.859375 13.546875 -10.765625 L 13.546875 -10.71875 L 12.015625 -0.53125 C 11.992188 -0.375 11.914062 -0.234375 11.78125 -0.109375 C 11.644531 0.00390625 11.476562 0.0625 11.28125 0.0625 L 8.984375 0.046875 C 8.660156 0.046875 8.445312 -0.0976562 8.34375 -0.390625 L 7.046875 -3.671875 L 5.71875 -0.40625 C 5.601562 -0.113281 5.382812 0.03125 5.0625 0.03125 Z M 5.0625 0.03125 "/></g></g></g><g fill="#0e076d" fill-opacity="1"><g transform="translate(196.495304, 332.306675)"><g><path d="M 3.28125 -11.640625 L 6.734375 -12.03125 C 7.117188 -12.070312 7.378906 -11.921875 7.515625 -11.578125 L 12.171875 -1.828125 C 12.179688 -1.796875 12.191406 -1.742188 12.203125 -1.671875 C 12.210938 -1.597656 12.1875 -1.523438 12.125 -1.453125 C 12.0625 -1.378906 11.984375 -1.335938 11.890625 -1.328125 L 8.953125 -1 C 8.640625 -0.957031 8.421875 -1.066406 8.296875 -1.328125 L 7.796875 -2.328125 L 4.375 -1.9375 L 4.09375 -0.859375 C 4.03125 -0.578125 3.84375 -0.421875 3.53125 -0.390625 L 0.59375 -0.0625 C 0.5 -0.0507812 0.410156 -0.078125 0.328125 -0.140625 C 0.253906 -0.203125 0.210938 -0.269531 0.203125 -0.34375 C 0.191406 -0.414062 0.191406 -0.46875 0.203125 -0.5 L 2.640625 -11.03125 C 2.679688 -11.394531 2.894531 -11.597656 3.28125 -11.640625 Z M 4.84375 -5.140625 L 6.640625 -5.34375 L 5.40625 -8.1875 Z M 4.84375 -5.140625 "/></g></g></g><g fill="#0e076d" fill-opacity="1"><g transform="translate(211.848497, 330.423561)"><g><path d="M 10.96875 -2.984375 C 11.007812 -2.921875 11.035156 -2.851562 11.046875 -2.78125 C 11.066406 -2.707031 11.050781 -2.628906 11 -2.546875 C 10.945312 -2.472656 10.875 -2.425781 10.78125 -2.40625 L 7.578125 -1.6875 C 7.253906 -1.613281 7 -1.703125 6.8125 -1.953125 L 4.8125 -4.640625 L 4.171875 -4.5 L 4.828125 -1.515625 C 4.859375 -1.398438 4.835938 -1.289062 4.765625 -1.1875 C 4.703125 -1.09375 4.613281 -1.03125 4.5 -1 L 1.4375 -0.3125 C 1.320312 -0.289062 1.210938 -0.3125 1.109375 -0.375 C 1.015625 -0.445312 0.953125 -0.539062 0.921875 -0.65625 L -1.328125 -10.75 C -1.347656 -10.851562 -1.328125 -10.957031 -1.265625 -11.0625 C -1.203125 -11.164062 -1.113281 -11.226562 -1 -11.25 L 3.625 -12.28125 C 5.125 -12.613281 6.367188 -12.539062 7.359375 -12.0625 C 8.359375 -11.582031 9 -10.710938 9.28125 -9.453125 C 9.5625 -8.203125 9.21875 -7.085938 8.25 -6.109375 Z M 3.140625 -9.109375 L 3.5 -7.46875 L 4.640625 -7.71875 C 4.867188 -7.769531 5.023438 -7.882812 5.109375 -8.0625 C 5.203125 -8.238281 5.222656 -8.441406 5.171875 -8.671875 C 5.117188 -8.910156 5.015625 -9.097656 4.859375 -9.234375 C 4.710938 -9.378906 4.519531 -9.421875 4.28125 -9.359375 Z M 3.140625 -9.109375 "/></g></g></g><g fill="#0e076d" fill-opacity="1"><g transform="translate(226.212458, 327.052136)"><g><path d="M 3.640625 -4.515625 L 8.328125 -6.078125 C 8.429688 -6.109375 8.535156 -6.09375 8.640625 -6.03125 C 8.742188 -5.976562 8.816406 -5.894531 8.859375 -5.78125 L 9.5625 -3.65625 C 9.601562 -3.53125 9.597656 -3.414062 9.546875 -3.3125 C 9.492188 -3.207031 9.414062 -3.140625 9.3125 -3.109375 L 1.390625 -0.46875 C 1.285156 -0.425781 1.179688 -0.429688 1.078125 -0.484375 C 0.972656 -0.535156 0.898438 -0.625 0.859375 -0.75 L -2.40625 -10.546875 C -2.445312 -10.648438 -2.441406 -10.753906 -2.390625 -10.859375 C -2.335938 -10.972656 -2.257812 -11.050781 -2.15625 -11.09375 L 5.640625 -13.6875 C 5.742188 -13.726562 5.847656 -13.71875 5.953125 -13.65625 C 6.066406 -13.601562 6.144531 -13.523438 6.1875 -13.421875 L 6.890625 -11.28125 C 6.929688 -11.164062 6.921875 -11.050781 6.859375 -10.9375 C 6.804688 -10.832031 6.726562 -10.757812 6.625 -10.71875 L 2.0625 -9.203125 L 2.375 -8.265625 L 6.59375 -9.671875 C 6.707031 -9.710938 6.820312 -9.703125 6.9375 -9.640625 C 7.050781 -9.585938 7.125 -9.503906 7.15625 -9.390625 L 7.8125 -7.421875 C 7.851562 -7.316406 7.84375 -7.207031 7.78125 -7.09375 C 7.726562 -6.976562 7.644531 -6.898438 7.53125 -6.859375 L 3.3125 -5.453125 Z M 3.640625 -4.515625 "/></g></g></g><g fill="#0e076d" fill-opacity="1"><g transform="translate(239.445719, 322.490143)"><g><path d="M -2.484375 -7.3125 C -2.921875 -8.300781 -2.867188 -9.289062 -2.328125 -10.28125 C -1.796875 -11.28125 -0.863281 -12.082031 0.46875 -12.6875 C 1.8125 -13.289062 3.054688 -13.457031 4.203125 -13.1875 C 5.347656 -12.925781 6.082031 -12.4375 6.40625 -11.71875 C 6.445312 -11.632812 6.445312 -11.546875 6.40625 -11.453125 C 6.375 -11.359375 6.3125 -11.296875 6.21875 -11.265625 L 3.328125 -9.953125 C 3.097656 -9.847656 2.851562 -9.832031 2.59375 -9.90625 C 2.332031 -9.988281 2.046875 -9.957031 1.734375 -9.8125 C 1.265625 -9.601562 1.09375 -9.367188 1.21875 -9.109375 C 1.28125 -8.953125 1.445312 -8.878906 1.71875 -8.890625 C 1.988281 -8.898438 2.457031 -9.007812 3.125 -9.21875 C 4.664062 -9.675781 5.851562 -9.800781 6.6875 -9.59375 C 7.519531 -9.382812 8.160156 -8.78125 8.609375 -7.78125 C 9.066406 -6.78125 8.976562 -5.757812 8.34375 -4.71875 C 7.71875 -3.6875 6.671875 -2.835938 5.203125 -2.171875 C 3.742188 -1.515625 2.457031 -1.300781 1.34375 -1.53125 C 0.238281 -1.757812 -0.507812 -2.304688 -0.90625 -3.171875 C -0.9375 -3.253906 -0.9375 -3.335938 -0.90625 -3.421875 C -0.875 -3.515625 -0.816406 -3.582031 -0.734375 -3.625 L 2.046875 -4.875 C 2.242188 -4.96875 2.507812 -4.972656 2.84375 -4.890625 C 3.1875 -4.804688 3.578125 -4.859375 4.015625 -5.046875 C 4.742188 -5.378906 5.046875 -5.6875 4.921875 -5.96875 C 4.835938 -6.144531 4.644531 -6.21875 4.34375 -6.1875 C 4.050781 -6.15625 3.507812 -6.019531 2.71875 -5.78125 C 0.0703125 -4.988281 -1.660156 -5.5 -2.484375 -7.3125 Z M -2.484375 -7.3125 "/></g></g></g></svg>