<?xml version="1.0" encoding="UTF-8" standalone="no"?>
<!DOCTYPE svg PUBLIC "-//W3C//DTD SVG 1.1//EN" "http://www.w3.org/Graphics/SVG/1.1/DTD/svg11.dtd">
<svg xmlns="http://www.w3.org/2000/svg" version="1.1" viewBox="0.00 0.00 512.00 512.00">
<g stroke-width="2.00" fill="none" stroke-linecap="butt">
<path stroke="#042ea9" vector-effect="non-scaling-stroke" d="
  M 365.63 1.03
  Q 370.68 2.52 375.85 3.56
  Q 383.27 5.05 386.08 5.89
  C 433.00 19.99 466.80 60.72 471.36 109.55
  Q 472.07 117.17 472.06 128.64
  Q 471.89 260.87 472.08 386.32
  Q 472.10 396.78 471.23 405.29
  C 466.00 456.62 428.05 498.68 377.67 509.68
  Q 373.07 510.68 368.57 512.00"
/>
<path stroke="#839de7" vector-effect="non-scaling-stroke" d="
  M 233.04 67.53
  A 53.55 53.52 0.5 0 0 203.24 96.76
  A 53.49 53.49 0.0 0 0 203.50 138.49
  A 53.52 53.51 -0.6 0 0 232.53 166.92"
/>
<path stroke="#7790da" vector-effect="non-scaling-stroke" d="
  M 232.53 166.92
  A 53.53 53.50 48.4 0 0 266.75 168.95
  A 53.54 53.52 5.4 0 0 300.68 140.91
  A 53.52 53.49 52.4 0 0 305.10 106.74
  A 53.50 53.48 -79.1 0 0 281.98 72.57
  A 53.44 53.43 65.0 0 0 258.90 64.18
  A 53.48 53.02 45.2 0 0 247.26 64.08
  A 53.90 53.72 31.3 0 0 233.04 67.53"
/>
<path stroke="#f3f3f3" vector-effect="non-scaling-stroke" d="
  M 232.53 166.92
  Q 252.50 158.25 261.05 139.62
  C 269.54 121.12 266.91 99.84 254.18 83.83
  Q 246.50 74.17 233.04 67.53"
/>
<path stroke="#839de7" vector-effect="non-scaling-stroke" d="
  M 258.98 202.33
  Q 229.61 205.60 199.21 208.72
  Q 191.57 209.50 189.03 210.54
  C 181.27 213.73 179.57 220.64 179.65 228.53
  Q 179.72 235.09 179.36 241.02
  C 178.94 248.04 181.95 254.32 188.54 257.11
  Q 191.90 258.53 197.22 258.54
  Q 204.95 258.56 213.66 259.04
  Q 214.11 259.06 214.11 259.51
  L 213.96 395.99
  Q 213.96 396.54 213.41 396.58
  Q 207.18 397.02 201.06 397.16
  Q 194.53 397.30 190.97 399.09
  C 185.13 402.03 182.51 407.66 182.66 414.11
  Q 182.78 418.73 182.49 423.72
  C 182.02 431.95 184.16 438.62 191.85 441.95
  Q 194.63 443.16 202.41 443.11
  Q 241.85 442.86 281.30 442.83"
/>
<path stroke="#7790da" vector-effect="non-scaling-stroke" d="
  M 281.30 442.83
  Q 307.35 443.27 317.25 442.87
  C 327.91 442.44 333.11 434.87 332.98 424.83
  Q 332.90 419.04 332.88 412.97
  Q 332.84 403.61 325.70 399.05
  Q 322.37 396.92 316.72 396.54
  Q 309.65 396.07 303.28 395.96
  Q 302.73 395.95 302.74 395.41
  C 302.98 368.39 302.78 342.36 303.21 316.24
  Q 304.02 265.78 304.05 214.30
  C 304.06 207.52 299.97 202.05 293.69 199.83
  Q 290.75 198.80 284.33 199.48
  Q 272.05 200.78 258.98 202.33"
/>
<path stroke="#f3f3f3" vector-effect="non-scaling-stroke" d="
  M 281.30 442.83
  Q 282.68 441.83 284.21 441.00
  C 289.71 438.00 292.70 433.38 292.61 426.96
  Q 292.55 422.24 292.69 416.99
  Q 292.87 410.32 291.83 407.23
  Q 289.60 400.69 283.33 398.05
  Q 280.40 396.82 273.53 396.56
  Q 268.47 396.36 263.58 396.10
  Q 262.24 396.02 262.30 394.68
  Q 262.42 391.75 262.44 389.00
  Q 263.22 301.38 263.95 213.75
  Q 263.99 208.61 258.98 202.33"
/>
</g>
<path fill="#073ace" d="
  M 365.63 1.03
  Q 370.68 2.52 375.85 3.56
  Q 383.27 5.05 386.08 5.89
  C 433.00 19.99 466.80 60.72 471.36 109.55
  Q 472.07 117.17 472.06 128.64
  Q 471.89 260.87 472.08 386.32
  Q 472.10 396.78 471.23 405.29
  C 466.00 456.62 428.05 498.68 377.67 509.68
  Q 373.07 510.68 368.57 512.00
  L 107.28 512.00
  Q 67.22 507.16 38.83 480.92
  Q 3.02 447.84 0.00 397.62
  L 0.00 115.75
  Q 3.42 62.32 42.96 28.95
  Q 71.49 4.88 109.27 1.52
  Q 115.14 1.00 129.24 1.00
  Q 247.53 0.98 365.63 1.03
  Z
  M 233.04 67.53
  A 53.55 53.52 0.5 0 0 203.24 96.76
  A 53.49 53.49 0.0 0 0 203.50 138.49
  A 53.52 53.51 -0.6 0 0 232.53 166.92
  A 53.53 53.50 48.4 0 0 266.75 168.95
  A 53.54 53.52 5.4 0 0 300.68 140.91
  A 53.52 53.49 52.4 0 0 305.10 106.74
  A 53.50 53.48 -79.1 0 0 281.98 72.57
  A 53.44 53.43 65.0 0 0 258.90 64.18
  A 53.48 53.02 45.2 0 0 247.26 64.08
  A 53.90 53.72 31.3 0 0 233.04 67.53
  Z
  M 258.98 202.33
  Q 229.61 205.60 199.21 208.72
  Q 191.57 209.50 189.03 210.54
  C 181.27 213.73 179.57 220.64 179.65 228.53
  Q 179.72 235.09 179.36 241.02
  C 178.94 248.04 181.95 254.32 188.54 257.11
  Q 191.90 258.53 197.22 258.54
  Q 204.95 258.56 213.66 259.04
  Q 214.11 259.06 214.11 259.51
  L 213.96 395.99
  Q 213.96 396.54 213.41 396.58
  Q 207.18 397.02 201.06 397.16
  Q 194.53 397.30 190.97 399.09
  C 185.13 402.03 182.51 407.66 182.66 414.11
  Q 182.78 418.73 182.49 423.72
  C 182.02 431.95 184.16 438.62 191.85 441.95
  Q 194.63 443.16 202.41 443.11
  Q 241.85 442.86 281.30 442.83
  Q 307.35 443.27 317.25 442.87
  C 327.91 442.44 333.11 434.87 332.98 424.83
  Q 332.90 419.04 332.88 412.97
  Q 332.84 403.61 325.70 399.05
  Q 322.37 396.92 316.72 396.54
  Q 309.65 396.07 303.28 395.96
  Q 302.73 395.95 302.74 395.41
  C 302.98 368.39 302.78 342.36 303.21 316.24
  Q 304.02 265.78 304.05 214.30
  C 304.06 207.52 299.97 202.05 293.69 199.83
  Q 290.75 198.80 284.33 199.48
  Q 272.05 200.78 258.98 202.33
  Z"
/>
<path fill="#002283" d="
  M 365.63 1.03
  Q 376.86 1.01 388.01 0.99
  Q 400.84 0.96 407.96 1.90
  Q 439.47 6.03 464.16 24.84
  Q 506.68 57.24 512.00 112.13
  L 512.00 401.25
  Q 511.27 406.87 510.31 412.47
  Q 503.83 450.40 476.87 477.62
  Q 448.11 506.68 405.63 512.00
  L 368.57 512.00
  Q 373.07 510.68 377.67 509.68
  C 428.05 498.68 466.00 456.62 471.23 405.29
  Q 472.10 396.78 472.08 386.32
  Q 471.89 260.87 472.06 128.64
  Q 472.07 117.17 471.36 109.55
  C 466.80 60.72 433.00 19.99 386.08 5.89
  Q 383.27 5.05 375.85 3.56
  Q 370.68 2.52 365.63 1.03
  Z"
/>
<path fill="#e6e6e6" d="
  M 232.53 166.92
  Q 252.50 158.25 261.05 139.62
  C 269.54 121.12 266.91 99.84 254.18 83.83
  Q 246.50 74.17 233.04 67.53
  A 53.90 53.72 31.3 0 1 247.26 64.08
  A 53.48 53.02 45.2 0 1 258.90 64.18
  A 53.44 53.43 65.0 0 1 281.98 72.57
  A 53.50 53.48 -79.1 0 1 305.10 106.74
  A 53.52 53.49 52.4 0 1 300.68 140.91
  A 53.54 53.52 5.4 0 1 266.75 168.95
  A 53.53 53.50 48.4 0 1 232.53 166.92
  Z"
/>
<path fill="#ffffff" d="
  M 233.04 67.53
  Q 246.50 74.17 254.18 83.83
  C 266.91 99.84 269.54 121.12 261.05 139.62
  Q 252.50 158.25 232.53 166.92
  A 53.52 53.51 -0.6 0 1 203.50 138.49
  A 53.49 53.49 0.0 0 1 203.24 96.76
  A 53.55 53.52 0.5 0 1 233.04 67.53
  Z"
/>
<path fill="#e6e6e6" d="
  M 281.30 442.83
  Q 282.68 441.83 284.21 441.00
  C 289.71 438.00 292.70 433.38 292.61 426.96
  Q 292.55 422.24 292.69 416.99
  Q 292.87 410.32 291.83 407.23
  Q 289.60 400.69 283.33 398.05
  Q 280.40 396.82 273.53 396.56
  Q 268.47 396.36 263.58 396.10
  Q 262.24 396.02 262.30 394.68
  Q 262.42 391.75 262.44 389.00
  Q 263.22 301.38 263.95 213.75
  Q 263.99 208.61 258.98 202.33
  Q 272.05 200.78 284.33 199.48
  Q 290.75 198.80 293.69 199.83
  C 299.97 202.05 304.06 207.52 304.05 214.30
  Q 304.02 265.78 303.21 316.24
  C 302.78 342.36 302.98 368.39 302.74 395.41
  Q 302.73 395.95 303.28 395.96
  Q 309.65 396.07 316.72 396.54
  Q 322.37 396.92 325.70 399.05
  Q 332.84 403.61 332.88 412.97
  Q 332.90 419.04 332.98 424.83
  C 333.11 434.87 327.91 442.44 317.25 442.87
  Q 307.35 443.27 281.30 442.83
  Z"
/>
<path fill="#ffffff" d="
  M 258.98 202.33
  Q 263.99 208.61 263.95 213.75
  Q 263.22 301.38 262.44 389.00
  Q 262.42 391.75 262.30 394.68
  Q 262.24 396.02 263.58 396.10
  Q 268.47 396.36 273.53 396.56
  Q 280.40 396.82 283.33 398.05
  Q 289.60 400.69 291.83 407.23
  Q 292.87 410.32 292.69 416.99
  Q 292.55 422.24 292.61 426.96
  C 292.70 433.38 289.71 438.00 284.21 441.00
  Q 282.68 441.83 281.30 442.83
  Q 241.85 442.86 202.41 443.11
  Q 194.63 443.16 191.85 441.95
  C 184.16 438.62 182.02 431.95 182.49 423.72
  Q 182.78 418.73 182.66 414.11
  C 182.51 407.66 185.13 402.03 190.97 399.09
  Q 194.53 397.30 201.06 397.16
  Q 207.18 397.02 213.41 396.58
  Q 213.96 396.54 213.96 395.99
  L 214.11 259.51
  Q 214.11 259.06 213.66 259.04
  Q 204.95 258.56 197.22 258.54
  Q 191.90 258.53 188.54 257.11
  C 181.95 254.32 178.94 248.04 179.36 241.02
  Q 179.72 235.09 179.65 228.53
  C 179.57 220.64 181.27 213.73 189.03 210.54
  Q 191.57 209.50 199.21 208.72
  Q 229.61 205.60 258.98 202.33
  Z"
/>
</svg>
