<?xml version="1.0" encoding="UTF-8" standalone="no"?>
<!DOCTYPE svg PUBLIC "-//W3C//DTD SVG 1.1//EN" "http://www.w3.org/Graphics/SVG/1.1/DTD/svg11.dtd">
<svg xmlns="http://www.w3.org/2000/svg" version="1.1" viewBox="0.00 0.00 512.00 512.00">
<g stroke-width="2.00" fill="none" stroke-linecap="butt">
<path stroke="#919abe" vector-effect="non-scaling-stroke" d="
  M 216.18 49.70
  L 216.25 126.01
  Q 216.25 126.53 216.76 126.54
  L 220.30 126.61"
/>
<path stroke="#a08da4" vector-effect="non-scaling-stroke" d="
  M 220.30 126.61
  L 210.31 145.66"
/>
<path stroke="#919abe" vector-effect="non-scaling-stroke" d="
  M 210.31 145.66
  L 119.88 119.32
  A 0.49 0.49 0.0 0 0 119.30 119.56
  L 52.49 241.19
  A 0.29 0.28 23.5 0 0 52.66 241.60
  L 145.06 269.88"
/>
<path stroke="#a08da4" vector-effect="non-scaling-stroke" d="
  M 145.06 269.88
  L 123.46 311.02"
/>
<path stroke="#839de7" vector-effect="non-scaling-stroke" d="
  M 123.46 311.02
  C 97.71 289.42 57.31 300.29 45.20 331.22
  C 34.25 359.18 48.72 389.15 77.63 398.32"
/>
<path stroke="#a08da4" vector-effect="non-scaling-stroke" d="
  M 77.63 398.32
  Q 74.63 404.12 71.51 409.99
  C 65.90 420.51 69.44 434.44 79.35 441.80
  Q 82.48 444.13 92.18 447.59
  Q 147.58 467.36 209.58 490.09
  C 218.35 493.30 224.44 495.51 232.75 492.98
  Q 242.51 490.01 247.48 480.60
  Q 266.63 444.29 285.53 407.80"
/>
<path stroke="#919abe" vector-effect="non-scaling-stroke" d="
  M 285.53 407.80
  L 285.56 415.89
  Q 285.56 416.50 286.17 416.50
  L 312.03 416.50
  Q 312.56 416.50 312.56 415.96
  L 312.56 390.01
  A 0.61 0.60 90.0 0 0 311.96 389.40
  L 295.12 389.39"
/>
<path stroke="#a08da4" vector-effect="non-scaling-stroke" d="
  M 295.12 389.39
  L 314.22 352.59"
/>
<path stroke="#a0b8ff" vector-effect="non-scaling-stroke" d="
  M 314.22 352.59
  Q 330.90 371.84 355.00 374.74
  C 381.59 377.94 408.33 364.13 420.32 339.77
  Q 432.10 315.84 423.48 289.68"
/>
<path stroke="#c7d5ff" vector-effect="non-scaling-stroke" d="
  M 423.48 289.68
  Q 424.20 289.71 424.48 289.54
  Q 441.74 278.93 447.22 260.63
  C 453.83 238.54 444.90 215.71 425.57 203.40
  Q 415.85 197.20 402.99 196.18
  Q 399.40 195.89 395.55 195.79"
/>
<path stroke="#a08da4" vector-effect="non-scaling-stroke" d="
  M 395.55 195.79
  Q 415.31 157.94 434.68 120.21
  Q 438.36 113.03 435.78 103.34"
/>
<path stroke="#a0b8ff" vector-effect="non-scaling-stroke" d="
  M 435.78 103.34
  Q 437.58 103.14 439.44 103.08
  C 453.84 102.62 465.93 92.14 469.49 78.53
  C 471.15 72.16 470.44 64.94 470.56 58.42
  Q 470.72 50.47 469.31 45.31
  C 465.60 31.74 453.06 21.23 438.56 21.24
  Q 402.61 21.27 363.33 21.17
  C 354.79 21.15 347.75 23.08 341.14 28.32
  Q 329.77 37.34 329.02 52.51
  Q 328.77 57.61 328.73 62.70"
/>
<path stroke="#a08da4" vector-effect="non-scaling-stroke" d="
  M 328.73 62.70
  Q 304.82 56.48 281.00 50.48
  Q 272.30 48.29 263.43 53.24"
/>
<path stroke="#839de7" vector-effect="non-scaling-stroke" d="
  M 263.43 53.24
  L 263.46 36.81
  A 0.46 0.46 0.0 0 0 263.00 36.35
  L 244.69 36.39
  Q 244.03 36.40 244.03 37.05
  L 243.83 82.03"
/>
<path stroke="#a08da4" vector-effect="non-scaling-stroke" d="
  M 243.83 82.03
  L 235.51 97.81"
/>
<path stroke="#919abe" vector-effect="non-scaling-stroke" d="
  M 235.51 97.81
  L 235.44 48.30
  Q 235.44 47.80 234.94 47.79
  L 221.14 47.66"
/>
<path stroke="#a08da4" vector-effect="non-scaling-stroke" d="
  M 221.14 47.66
  Q 237.13 40.45 248.31 27.17
  Q 248.82 26.58 248.66 27.34
  Q 247.89 31.07 248.24 34.83
  A 1.19 1.19 0.0 0 0 248.61 35.59
  Q 249.62 36.57 250.83 35.51
  A 1.39 1.38 -21.8 0 0 251.31 34.40
  Q 251.03 27.57 253.78 20.71
  Q 254.05 20.04 254.04 19.32
  Q 254.02 18.26 252.91 17.99
  A 1.77 1.74 35.0 0 0 251.54 18.22
  Q 244.70 22.68 236.05 23.39
  Q 234.56 23.52 234.49 25.01
  Q 234.48 25.30 234.60 25.57
  Q 235.07 26.58 236.18 26.52
  Q 241.40 26.24 245.83 24.50
  Q 246.82 24.12 246.13 24.92
  Q 225.95 48.42 195.20 50.87
  Q 193.67 50.99 193.76 52.52
  Q 193.78 52.79 193.89 53.05
  Q 194.31 54.02 195.37 53.95
  Q 206.33 53.24 216.18 49.70"
/>
<path stroke="#322763" vector-effect="non-scaling-stroke" d="
  M 221.14 47.66
  L 216.18 49.70"
/>
<path stroke="#322763" vector-effect="non-scaling-stroke" d="
  M 235.51 97.81
  L 235.50 113.29"
/>
<path stroke="#919abe" vector-effect="non-scaling-stroke" d="
  M 235.50 113.29
  L 235.45 125.98
  Q 235.45 126.49 234.94 126.50
  L 228.71 126.65"
/>
<path stroke="#322763" vector-effect="non-scaling-stroke" d="
  M 228.71 126.65
  L 220.30 126.61"
/>
<path stroke="#a08da4" vector-effect="non-scaling-stroke" d="
  M 419.34 103.74
  Q 419.12 104.41 418.80 105.04
  Q 326.42 287.65 233.96 470.22
  C 231.84 474.42 226.51 476.08 222.24 474.56
  Q 155.53 450.78 86.06 426.06
  C 79.80 423.84 77.61 417.77 80.83 411.57
  Q 116.87 342.19 153.08 272.34"
/>
<path stroke="#919abe" vector-effect="non-scaling-stroke" d="
  M 153.08 272.34
  L 238.53 298.51
  Q 238.91 298.62 239.10 298.27
  L 305.27 174.48
  A 0.42 0.41 22.8 0 0 305.02 173.88
  L 217.60 148.11"
/>
<path stroke="#a08da4" vector-effect="non-scaling-stroke" d="
  M 217.60 148.11
  L 228.71 126.65"
/>
<path stroke="#a08da4" vector-effect="non-scaling-stroke" d="
  M 235.50 113.29
  L 243.89 97.38"
/>
<path stroke="#322763" vector-effect="non-scaling-stroke" d="
  M 210.31 145.66
  L 217.60 148.11"
/>
<path stroke="#4046a4" vector-effect="non-scaling-stroke" d="
  M 435.78 103.34
  Q 427.81 103.04 419.88 103.36
  Q 419.50 103.38 419.34 103.74"
/>
<path stroke="#a0b8ff" vector-effect="non-scaling-stroke" d="
  M 419.34 103.74
  Q 419.51 103.28 419.00 103.26
  Q 412.12 103.08 398.12 103.29
  Q 397.58 103.29 397.28 103.73
  L 377.83 131.52
  Q 377.11 132.56 377.29 131.30
  L 381.33 103.83
  Q 381.42 103.23 380.81 103.23
  Q 372.09 103.19 362.98 103.24
  Q 349.03 103.31 339.05 94.47
  Q 338.57 94.05 338.00 93.82"
/>
<path stroke="#4046a4" vector-effect="non-scaling-stroke" d="
  M 338.00 93.82
  Q 338.13 93.79 338.20 93.68
  Q 338.31 93.52 338.18 93.38
  Q 329.29 84.17 328.90 71.24
  Q 328.78 66.98 328.73 62.70"
/>
<path stroke="#242a8c" vector-effect="non-scaling-stroke" d="
  M 263.43 53.24
  L 263.57 60.36"
/>
<path stroke="#839de7" vector-effect="non-scaling-stroke" d="
  M 263.57 60.36
  L 263.41 125.91
  Q 263.41 126.57 262.75 126.58
  L 244.37 126.60
  A 0.36 0.36 0.0 0 1 244.01 126.24
  L 243.89 97.38"
/>
<path stroke="#242a8c" vector-effect="non-scaling-stroke" d="
  M 243.89 97.38
  L 243.83 82.03"
/>
<path stroke="#a08da4" vector-effect="non-scaling-stroke" d="
  M 338.00 93.82
  Q 317.55 88.27 297.11 82.68
  Q 292.46 81.41 290.72 79.89
  C 287.32 76.93 286.64 72.25 288.66 68.18
  Q 289.99 65.52 291.22 62.82
  A 0.26 0.25 -70.7 0 0 291.05 62.46
  Q 281.74 60.25 272.48 58.07
  Q 267.69 56.94 263.57 60.36"
/>
<path stroke="#6763a4" vector-effect="non-scaling-stroke" d="
  M 395.55 195.79
  L 368.94 247.09"
/>
<path stroke="#4046a4" vector-effect="non-scaling-stroke" d="
  M 368.94 247.09
  Q 368.74 247.87 368.15 248.66"
/>
<path stroke="#a08da4" vector-effect="non-scaling-stroke" d="
  M 368.15 248.66
  L 315.13 351.45"
/>
<path stroke="#4046a4" vector-effect="non-scaling-stroke" d="
  M 315.13 351.45
  L 314.22 352.59"
/>
<path stroke="#322763" vector-effect="non-scaling-stroke" d="
  M 295.12 389.39
  L 285.93 389.41
  Q 285.46 389.41 285.46 389.88
  L 285.53 407.80"
/>
<path stroke="#242a8c" vector-effect="non-scaling-stroke" d="
  M 77.63 398.32
  L 123.46 311.02"
/>
<path stroke="#322763" vector-effect="non-scaling-stroke" d="
  M 145.06 269.88
  L 153.08 272.34"
/>
<path stroke="#a0b8ff" vector-effect="non-scaling-stroke" d="
  M 315.13 351.45
  Q 319.58 356.35 323.07 359.18
  C 349.21 380.37 385.37 378.05 408.71 353.59
  C 426.12 335.33 430.50 306.90 419.32 284.15
  C 409.32 263.81 390.75 251.16 368.15 248.66"
/>
<path stroke="#678eff" vector-effect="non-scaling-stroke" d="
  M 423.48 289.68
  Q 420.99 283.50 419.45 280.77
  Q 405.41 255.93 378.02 248.77
  C 375.34 248.07 371.96 247.77 368.94 247.09"
/>
<path stroke="#888ea4" vector-effect="non-scaling-stroke" d="
  M 208.28 59.75
  A 0.28 0.28 0.0 0 0 208.00 59.47
  L 189.22 59.47
  A 0.28 0.28 0.0 0 0 188.94 59.75
  L 188.94 126.31
  A 0.28 0.28 0.0 0 0 189.22 126.59
  L 208.00 126.59
  A 0.28 0.28 0.0 0 0 208.28 126.31
  L 208.28 59.75"
/>
<path stroke="#839de7" vector-effect="non-scaling-stroke" d="
  M 355.52 389.69
  A 0.29 0.29 0.0 0 0 355.23 389.40
  L 328.75 389.40
  A 0.29 0.29 0.0 0 0 328.46 389.69
  L 328.46 416.21
  A 0.29 0.29 0.0 0 0 328.75 416.50
  L 355.23 416.50
  A 0.29 0.29 0.0 0 0 355.52 416.21
  L 355.52 389.69"
/>
<path stroke="#888ea4" vector-effect="non-scaling-stroke" d="
  M 395.85 389.73
  A 0.33 0.33 0.0 0 0 395.52 389.40
  L 369.08 389.40
  A 0.33 0.33 0.0 0 0 368.75 389.73
  L 368.75 416.17
  A 0.33 0.33 0.0 0 0 369.08 416.50
  L 395.52 416.50
  A 0.33 0.33 0.0 0 0 395.85 416.17
  L 395.85 389.73"
/>
<path stroke="#2947a4" vector-effect="non-scaling-stroke" d="
  M 395.04 86.49
  C 392.95 92.23 400.69 96.33 404.26 91.36
  Q 405.93 89.04 404.87 86.37
  Q 404.64 85.77 405.27 85.77
  L 425.69 85.77
  A 1.52 1.51 0.4 0 0 427.21 84.28
  C 427.24 82.20 424.18 82.20 422.79 82.28
  Q 422.20 82.32 422.19 81.73
  Q 422.10 73.66 422.25 66.47
  Q 422.44 57.77 420.96 53.63
  Q 416.44 40.94 402.51 38.44
  Q 401.80 38.31 401.79 37.58
  L 401.75 34.75
  A 1.85 1.83 -73.0 0 0 400.97 33.26
  Q 399.84 32.46 398.85 32.79
  Q 397.16 33.35 397.12 35.12
  L 397.06 37.79
  Q 397.05 38.35 396.50 38.47
  Q 380.98 41.98 377.88 56.18
  Q 377.03 60.05 377.26 68.75
  Q 377.43 75.59 377.22 81.65
  Q 377.20 82.30 376.56 82.30
  L 372.04 82.32
  Q 370.76 82.33 370.46 83.57
  Q 370.38 83.91 370.40 84.25
  Q 370.51 85.77 372.03 85.77
  L 394.54 85.77
  Q 395.31 85.77 395.04 86.49"
/>
<path stroke="#c7d5ff" vector-effect="non-scaling-stroke" d="
  M 322.59 183.06
  A 0.37 0.37 0.0 0 0 322.15 183.25
  L 310.29 206.94
  A 0.37 0.37 0.0 0 0 310.51 207.46
  L 338.20 216.16
  A 0.37 0.37 0.0 0 0 338.65 215.96
  L 349.29 191.90
  A 0.37 0.37 0.0 0 0 349.07 191.40
  L 322.59 183.06"
/>
<path stroke="#c7d5ff" vector-effect="non-scaling-stroke" d="
  M 305.84 219.20
  A 0.40 0.40 0.0 0 0 305.36 219.40
  L 293.55 243.03
  A 0.40 0.40 0.0 0 0 293.79 243.59
  L 321.41 252.26
  A 0.40 0.40 0.0 0 0 321.89 252.04
  L 332.52 228.02
  A 0.40 0.40 0.0 0 0 332.27 227.48
  L 305.84 219.20"
/>
<path stroke="#c7d5ff" vector-effect="non-scaling-stroke" d="
  M 286.71 257.13
  A 0.41 0.41 0.0 0 0 286.22 257.34
  L 274.42 280.96
  A 0.41 0.41 0.0 0 0 274.66 281.53
  L 302.26 290.19
  A 0.41 0.41 0.0 0 0 302.76 289.97
  L 313.37 265.97
  A 0.41 0.41 0.0 0 0 313.12 265.41
  L 286.71 257.13"
/>
<path stroke="#a0b8ff" vector-effect="non-scaling-stroke" d="
  M 229.23 367.55
  C 233.04 360.83 232.32 353.10 226.61 347.75
  Q 223.94 345.25 217.08 343.15
  Q 189.87 334.83 164.20 326.56
  C 157.27 324.33 151.11 323.96 145.69 329.16
  C 142.92 331.81 140.50 336.45 139.71 340.06
  Q 137.89 348.35 144.23 354.61
  Q 146.57 356.92 151.82 358.69
  Q 186.31 370.30 220.73 382.30
  Q 221.23 382.48 221.48 382.01
  C 224.10 377.14 226.54 372.28 229.23 367.55"
/>
<path stroke="#888ea4" vector-effect="non-scaling-stroke" d="
  M 141.28 398.38
  C 163.68 406.20 186.07 414.60 208.68 422.90
  C 214.63 425.08 219.03 426.07 224.49 423.19
  C 230.27 420.13 232.49 414.71 233.22 408.42
  C 234.24 399.75 229.48 394.11 221.76 391.12
  Q 192.36 379.71 165.99 369.19
  C 160.58 367.04 154.85 367.38 150.23 370.96
  Q 145.68 374.48 144.62 379.49
  Q 142.82 388.07 141.04 397.97
  A 0.37 0.36 -76.0 0 0 141.28 398.38"
/>
<path stroke="#a08da4" vector-effect="non-scaling-stroke" d="
  M 416.1848 146.9796
  A 3.70 3.70 0.0 0 0 414.4382 142.0471
  L 412.2358 140.9966
  A 3.70 3.70 0.0 0 0 407.3034 142.7433
  L 392.7952 173.1604
  A 3.70 3.70 0.0 0 0 394.5418 178.0929
  L 396.7442 179.1434
  A 3.70 3.70 0.0 0 0 401.6766 177.3967
  L 416.1848 146.9796"
/>
<path stroke="#3253be" vector-effect="non-scaling-stroke" d="
  M 172.96 199.73
  Q 172.57 199.58 172.74 199.19
  L 193.57 151.59
  Q 193.80 151.08 193.26 150.92
  C 163.46 141.71 132.19 157.65 123.08 187.57
  C 114.19 216.72 130.70 247.58 159.83 256.53
  C 188.97 265.48 218.85 249.50 228.69 220.81
  A 0.35 0.35 0.0 0 0 228.48 220.37
  L 172.96 199.73"
/>
<path stroke="#5970be" vector-effect="non-scaling-stroke" d="
  M 185.60 185.48
  Q 182.65 191.43 180.43 196.50
  Q 180.23 196.95 180.70 197.12
  L 227.69 213.84
  Q 228.25 214.04 228.44 213.48
  Q 232.78 200.56 231.28 187.75
  C 229.27 170.54 217.24 160.01 200.97 155.33
  Q 200.35 155.15 200.07 155.74
  Q 192.81 170.91 185.60 185.48"
/>
<path stroke="#a08da4" vector-effect="non-scaling-stroke" d="
  M 393.58 173.52
  A 2.96 2.96 0.0 0 0 395.00 177.47
  L 397.07 178.43
  A 2.96 2.96 0.0 0 0 400.99 177.02
  L 415.45 146.61
  A 2.96 2.96 0.0 0 0 413.87 142.59
  L 411.65 141.71
  A 2.96 2.96 0.0 0 0 407.89 143.20
  L 393.58 173.52"
/>
<path stroke="#6763a4" vector-effect="non-scaling-stroke" d="
  M 325.61 203.95
  L 324.62 197.59
  A 1.00 1.00 0.0 0 0 323.46 196.75
  L 323.09 196.81
  A 0.60 0.60 0.0 0 0 322.60 197.49
  L 323.99 206.27
  A 1.01 1.01 0.0 0 0 325.54 206.96
  L 344.28 194.86
  A 0.65 0.65 0.0 0 0 344.51 194.04
  L 344.36 193.74
  Q 343.89 192.74 342.96 193.34
  L 326.17 204.21
  A 0.37 0.36 69.1 0 1 325.61 203.95"
/>
<path stroke="#6763a4" vector-effect="non-scaling-stroke" d="
  M 308.63 240.01
  L 307.66 233.79
  Q 307.48 232.68 306.44 233.09
  L 306.10 233.23
  A 0.60 0.59 -15.8 0 0 305.73 233.88
  L 307.12 242.25
  A 0.74 0.74 0.0 0 0 308.07 242.84
  Q 308.99 242.56 309.78 242.05
  Q 318.04 236.65 326.28 231.28
  A 0.69 0.68 -34.1 0 0 326.47 230.31
  L 326.31 230.08
  Q 325.80 229.36 325.06 229.84
  L 309.04 240.20
  A 0.27 0.27 0.0 0 1 308.63 240.01"
/>
<path stroke="#a0b8ff" vector-effect="non-scaling-stroke" d="
  M 362.66 311.80
  A 0.31 0.31 0.0 0 1 362.35 311.49
  L 362.35 284.53
  A 0.31 0.31 0.0 0 0 362.06 284.22
  L 361.09 284.17
  A 0.31 0.31 0.0 0 0 360.76 284.48
  L 360.77 312.99
  A 0.31 0.31 0.0 0 0 361.08 313.30
  L 399.91 313.30
  A 0.31 0.31 0.0 0 0 400.22 312.97
  L 400.15 312.09
  A 0.31 0.31 0.0 0 0 399.84 311.80
  L 362.66 311.80"
/>
<path stroke="#6763a4" vector-effect="non-scaling-stroke" d="
  M 287.74 278.75
  L 286.81 272.94
  Q 286.69 272.20 285.94 272.25
  L 285.51 272.27
  A 0.63 0.63 0.0 0 0 284.93 273.00
  L 286.22 281.26
  A 1.01 1.00 69.0 0 0 287.76 281.95
  L 305.37 270.40
  Q 306.00 269.98 305.53 269.38
  L 305.27 269.06
  Q 304.81 268.48 304.19 268.89
  L 288.62 279.13
  Q 287.88 279.62 287.74 278.75"
/>
<path stroke="#a0b8ff" vector-effect="non-scaling-stroke" d="
  M 174.26 347.16
  A 4.72 4.72 0.0 0 0 169.54 342.44
  A 4.72 4.72 0.0 0 0 164.82 347.16
  A 4.72 4.72 0.0 0 0 169.54 351.88
  A 4.72 4.72 0.0 0 0 174.26 347.16"
/>
<path stroke="#a0b8ff" vector-effect="non-scaling-stroke" d="
  M 187.86 351.00
  A 4.71 4.71 0.0 0 0 183.15 346.29
  A 4.71 4.71 0.0 0 0 178.44 351.00
  A 4.71 4.71 0.0 0 0 183.15 355.71
  A 4.71 4.71 0.0 0 0 187.86 351.00"
/>
<path stroke="#a0b8ff" vector-effect="non-scaling-stroke" d="
  M 201.20 354.76
  A 4.71 4.71 0.0 0 0 196.49 350.05
  A 4.71 4.71 0.0 0 0 191.78 354.76
  A 4.71 4.71 0.0 0 0 196.49 359.47
  A 4.71 4.71 0.0 0 0 201.20 354.76"
/>
<path stroke="#888ea4" vector-effect="non-scaling-stroke" d="
  M 178.89 392.32
  A 4.71 4.71 0.0 0 0 174.18 387.61
  A 4.71 4.71 0.0 0 0 169.47 392.32
  A 4.71 4.71 0.0 0 0 174.18 397.03
  A 4.71 4.71 0.0 0 0 178.89 392.32"
/>
<path stroke="#888ea4" vector-effect="non-scaling-stroke" d="
  M 192.01 396.83
  A 4.71 4.71 0.0 0 0 187.30 392.12
  A 4.71 4.71 0.0 0 0 182.59 396.83
  A 4.71 4.71 0.0 0 0 187.30 401.54
  A 4.71 4.71 0.0 0 0 192.01 396.83"
/>
<path stroke="#888ea4" vector-effect="non-scaling-stroke" d="
  M 205.38 401.43
  A 4.71 4.71 0.0 0 0 200.67 396.72
  A 4.71 4.71 0.0 0 0 195.96 401.43
  A 4.71 4.71 0.0 0 0 200.67 406.14
  A 4.71 4.71 0.0 0 0 205.38 401.43"
/>
</g>
<path fill="#ffffff" d="
  M 250.88 0.00
  L 254.73 0.00
  Q 271.80 3.40 273.17 20.54
  Q 273.23 21.21 273.79 21.58
  Q 279.28 25.15 281.39 31.56
  Q 281.54 32.02 282.00 32.14
  L 311.36 39.59
  A 0.36 0.35 -72.9 0 0 311.78 39.36
  C 319.49 17.31 338.52 3.18 361.81 3.25
  Q 394.86 3.37 428.03 3.17
  Q 440.80 3.10 447.02 4.36
  C 471.37 9.31 488.41 30.29 488.44 55.13
  C 488.45 62.93 488.98 71.61 487.80 79.23
  C 484.89 98.04 472.26 113.01 454.42 119.81
  A 1.08 1.06 -4.8 0 0 453.76 120.58
  C 452.92 124.62 451.37 128.44 449.47 132.12
  Q 436.72 156.75 423.94 181.29
  Q 423.64 181.87 424.24 182.13
  Q 426.10 182.93 427.91 183.81
  C 472.55 205.44 481.11 263.61 444.60 297.56
  A 1.01 0.99 65.2 0 0 444.29 298.43
  C 448.77 330.42 435.74 360.21 409.54 378.90
  Q 409.10 379.22 409.34 379.71
  Q 411.57 384.14 411.51 389.02
  Q 411.40 397.22 411.57 406.14
  Q 411.71 413.32 410.22 417.17
  C 406.82 425.95 399.29 429.55 390.09 429.52
  Q 347.01 429.38 305.35 429.51
  Q 300.75 429.52 296.26 428.42
  Q 295.79 428.30 295.56 428.73
  Q 280.90 456.69 267.75 482.46
  Q 262.68 492.39 258.33 497.28
  Q 247.04 509.98 228.61 512.00
  L 222.51 512.00
  Q 215.63 511.23 210.00 509.19
  Q 145.26 485.72 80.51 462.29
  C 57.46 453.94 45.88 430.12 52.96 406.80
  Q 53.12 406.29 52.69 405.96
  Q 32.57 390.84 26.27 368.58
  C 16.76 334.99 33.03 300.82 64.71 286.50
  Q 88.72 275.65 116.18 284.69
  Q 116.36 284.75 116.44 284.59
  L 118.04 281.41
  Q 118.12 281.25 117.95 281.20
  Q 82.44 270.33 48.34 259.89
  Q 37.13 256.45 34.64 245.10
  C 33.56 240.18 34.91 235.47 37.27 231.19
  Q 69.10 173.42 100.95 115.22
  Q 105.17 107.51 107.86 105.35
  C 114.54 99.99 121.13 100.22 129.22 102.68
  Q 150.05 109.00 169.65 114.65
  Q 170.26 114.82 170.25 114.19
  Q 170.24 88.07 170.25 60.61
  Q 170.25 53.56 174.62 48.38
  Q 176.10 46.64 177.00 44.69
  C 180.66 36.84 187.55 33.17 196.00 32.63
  Q 205.49 32.02 215.04 27.02
  Q 215.49 26.79 215.52 26.29
  C 216.16 15.12 222.97 6.85 234.18 5.73
  Q 238.30 5.33 239.48 4.50
  Q 244.66 0.89 250.88 0.00
  Z
  M 216.18 49.70
  L 216.25 126.01
  Q 216.25 126.53 216.76 126.54
  L 220.30 126.61
  L 210.31 145.66
  L 119.88 119.32
  A 0.49 0.49 0.0 0 0 119.30 119.56
  L 52.49 241.19
  A 0.29 0.28 23.5 0 0 52.66 241.60
  L 145.06 269.88
  L 123.46 311.02
  C 97.71 289.42 57.31 300.29 45.20 331.22
  C 34.25 359.18 48.72 389.15 77.63 398.32
  Q 74.63 404.12 71.51 409.99
  C 65.90 420.51 69.44 434.44 79.35 441.80
  Q 82.48 444.13 92.18 447.59
  Q 147.58 467.36 209.58 490.09
  C 218.35 493.30 224.44 495.51 232.75 492.98
  Q 242.51 490.01 247.48 480.60
  Q 266.63 444.29 285.53 407.80
  L 285.56 415.89
  Q 285.56 416.50 286.17 416.50
  L 312.03 416.50
  Q 312.56 416.50 312.56 415.96
  L 312.56 390.01
  A 0.61 0.60 90.0 0 0 311.96 389.40
  L 295.12 389.39
  L 314.22 352.59
  Q 330.90 371.84 355.00 374.74
  C 381.59 377.94 408.33 364.13 420.32 339.77
  Q 432.10 315.84 423.48 289.68
  Q 424.20 289.71 424.48 289.54
  Q 441.74 278.93 447.22 260.63
  C 453.83 238.54 444.90 215.71 425.57 203.40
  Q 415.85 197.20 402.99 196.18
  Q 399.40 195.89 395.55 195.79
  Q 415.31 157.94 434.68 120.21
  Q 438.36 113.03 435.78 103.34
  Q 437.58 103.14 439.44 103.08
  C 453.84 102.62 465.93 92.14 469.49 78.53
  C 471.15 72.16 470.44 64.94 470.56 58.42
  Q 470.72 50.47 469.31 45.31
  C 465.60 31.74 453.06 21.23 438.56 21.24
  Q 402.61 21.27 363.33 21.17
  C 354.79 21.15 347.75 23.08 341.14 28.32
  Q 329.77 37.34 329.02 52.51
  Q 328.77 57.61 328.73 62.70
  Q 304.82 56.48 281.00 50.48
  Q 272.30 48.29 263.43 53.24
  L 263.46 36.81
  A 0.46 0.46 0.0 0 0 263.00 36.35
  L 244.69 36.39
  Q 244.03 36.40 244.03 37.05
  L 243.83 82.03
  L 235.51 97.81
  L 235.44 48.30
  Q 235.44 47.80 234.94 47.79
  L 221.14 47.66
  Q 237.13 40.45 248.31 27.17
  Q 248.82 26.58 248.66 27.34
  Q 247.89 31.07 248.24 34.83
  A 1.19 1.19 0.0 0 0 248.61 35.59
  Q 249.62 36.57 250.83 35.51
  A 1.39 1.38 -21.8 0 0 251.31 34.40
  Q 251.03 27.57 253.78 20.71
  Q 254.05 20.04 254.04 19.32
  Q 254.02 18.26 252.91 17.99
  A 1.77 1.74 35.0 0 0 251.54 18.22
  Q 244.70 22.68 236.05 23.39
  Q 234.56 23.52 234.49 25.01
  Q 234.48 25.30 234.60 25.57
  Q 235.07 26.58 236.18 26.52
  Q 241.40 26.24 245.83 24.50
  Q 246.82 24.12 246.13 24.92
  Q 225.95 48.42 195.20 50.87
  Q 193.67 50.99 193.76 52.52
  Q 193.78 52.79 193.89 53.05
  Q 194.31 54.02 195.37 53.95
  Q 206.33 53.24 216.18 49.70
  Z
  M 208.28 59.75
  A 0.28 0.28 0.0 0 0 208.00 59.47
  L 189.22 59.47
  A 0.28 0.28 0.0 0 0 188.94 59.75
  L 188.94 126.31
  A 0.28 0.28 0.0 0 0 189.22 126.59
  L 208.00 126.59
  A 0.28 0.28 0.0 0 0 208.28 126.31
  L 208.28 59.75
  Z
  M 355.52 389.69
  A 0.29 0.29 0.0 0 0 355.23 389.40
  L 328.75 389.40
  A 0.29 0.29 0.0 0 0 328.46 389.69
  L 328.46 416.21
  A 0.29 0.29 0.0 0 0 328.75 416.50
  L 355.23 416.50
  A 0.29 0.29 0.0 0 0 355.52 416.21
  L 355.52 389.69
  Z
  M 395.85 389.73
  A 0.33 0.33 0.0 0 0 395.52 389.40
  L 369.08 389.40
  A 0.33 0.33 0.0 0 0 368.75 389.73
  L 368.75 416.17
  A 0.33 0.33 0.0 0 0 369.08 416.50
  L 395.52 416.50
  A 0.33 0.33 0.0 0 0 395.85 416.17
  L 395.85 389.73
  Z"
/>
<path fill="#401a49" d="
  M 221.14 47.66
  L 216.18 49.70
  Q 206.33 53.24 195.37 53.95
  Q 194.31 54.02 193.89 53.05
  Q 193.78 52.79 193.76 52.52
  Q 193.67 50.99 195.20 50.87
  Q 225.95 48.42 246.13 24.92
  Q 246.82 24.12 245.83 24.50
  Q 241.40 26.24 236.18 26.52
  Q 235.07 26.58 234.60 25.57
  Q 234.48 25.30 234.49 25.01
  Q 234.56 23.52 236.05 23.39
  Q 244.70 22.68 251.54 18.22
  A 1.77 1.74 35.0 0 1 252.91 17.99
  Q 254.02 18.26 254.04 19.32
  Q 254.05 20.04 253.78 20.71
  Q 251.03 27.57 251.31 34.40
  A 1.39 1.38 -21.8 0 1 250.83 35.51
  Q 249.62 36.57 248.61 35.59
  A 1.19 1.19 0.0 0 1 248.24 34.83
  Q 247.89 31.07 248.66 27.34
  Q 248.82 26.58 248.31 27.17
  Q 237.13 40.45 221.14 47.66
  Z"
/>
<path fill="#4071ff" d="
  M 435.78 103.34
  Q 427.81 103.04 419.88 103.36
  Q 419.50 103.38 419.34 103.74
  Q 419.51 103.28 419.00 103.26
  Q 412.12 103.08 398.12 103.29
  Q 397.58 103.29 397.28 103.73
  L 377.83 131.52
  Q 377.11 132.56 377.29 131.30
  L 381.33 103.83
  Q 381.42 103.23 380.81 103.23
  Q 372.09 103.19 362.98 103.24
  Q 349.03 103.31 339.05 94.47
  Q 338.57 94.05 338.00 93.82
  Q 338.13 93.79 338.20 93.68
  Q 338.31 93.52 338.18 93.38
  Q 329.29 84.17 328.90 71.24
  Q 328.78 66.98 328.73 62.70
  Q 328.77 57.61 329.02 52.51
  Q 329.77 37.34 341.14 28.32
  C 347.75 23.08 354.79 21.15 363.33 21.17
  Q 402.61 21.27 438.56 21.24
  C 453.06 21.23 465.60 31.74 469.31 45.31
  Q 470.72 50.47 470.56 58.42
  C 470.44 64.94 471.15 72.16 469.49 78.53
  C 465.93 92.14 453.84 102.62 439.44 103.08
  Q 437.58 103.14 435.78 103.34
  Z
  M 395.04 86.49
  C 392.95 92.23 400.69 96.33 404.26 91.36
  Q 405.93 89.04 404.87 86.37
  Q 404.64 85.77 405.27 85.77
  L 425.69 85.77
  A 1.52 1.51 0.4 0 0 427.21 84.28
  C 427.24 82.20 424.18 82.20 422.79 82.28
  Q 422.20 82.32 422.19 81.73
  Q 422.10 73.66 422.25 66.47
  Q 422.44 57.77 420.96 53.63
  Q 416.44 40.94 402.51 38.44
  Q 401.80 38.31 401.79 37.58
  L 401.75 34.75
  A 1.85 1.83 -73.0 0 0 400.97 33.26
  Q 399.84 32.46 398.85 32.79
  Q 397.16 33.35 397.12 35.12
  L 397.06 37.79
  Q 397.05 38.35 396.50 38.47
  Q 380.98 41.98 377.88 56.18
  Q 377.03 60.05 377.26 68.75
  Q 377.43 75.59 377.22 81.65
  Q 377.20 82.30 376.56 82.30
  L 372.04 82.32
  Q 370.76 82.33 370.46 83.57
  Q 370.38 83.91 370.40 84.25
  Q 370.51 85.77 372.03 85.77
  L 394.54 85.77
  Q 395.31 85.77 395.04 86.49
  Z"
/>
<path fill="#111c49" d="
  M 394.54 85.77
  L 372.03 85.77
  Q 370.51 85.77 370.40 84.25
  Q 370.38 83.91 370.46 83.57
  Q 370.76 82.33 372.04 82.32
  L 376.56 82.30
  Q 377.20 82.30 377.22 81.65
  Q 377.43 75.59 377.26 68.75
  Q 377.03 60.05 377.88 56.18
  Q 380.98 41.98 396.50 38.47
  Q 397.05 38.35 397.06 37.79
  L 397.12 35.12
  Q 397.16 33.35 398.85 32.79
  Q 399.84 32.46 400.97 33.26
  A 1.85 1.83 -73.0 0 1 401.75 34.75
  L 401.79 37.58
  Q 401.80 38.31 402.51 38.44
  Q 416.44 40.94 420.96 53.63
  Q 422.44 57.77 422.25 66.47
  Q 422.10 73.66 422.19 81.73
  Q 422.20 82.32 422.79 82.28
  C 424.18 82.20 427.24 82.20 427.21 84.28
  A 1.52 1.51 0.4 0 1 425.69 85.77
  L 405.27 85.77
  Q 404.64 85.77 404.87 86.37
  Q 405.93 89.04 404.26 91.36
  C 400.69 96.33 392.95 92.23 395.04 86.49
  Q 395.31 85.77 394.54 85.77
  Z"
/>
<path fill="#073ace" d="
  M 263.43 53.24
  L 263.57 60.36
  L 263.41 125.91
  Q 263.41 126.57 262.75 126.58
  L 244.37 126.60
  A 0.36 0.36 0.0 0 1 244.01 126.24
  L 243.89 97.38
  L 243.83 82.03
  L 244.03 37.05
  Q 244.03 36.40 244.69 36.39
  L 263.00 36.35
  A 0.46 0.46 0.0 0 1 263.46 36.81
  L 263.43 53.24
  Z"
/>
<path fill="#23347c" d="
  M 221.14 47.66
  L 234.94 47.79
  Q 235.44 47.80 235.44 48.30
  L 235.51 97.81
  L 235.50 113.29
  L 235.45 125.98
  Q 235.45 126.49 234.94 126.50
  L 228.71 126.65
  L 220.30 126.61
  L 216.76 126.54
  Q 216.25 126.53 216.25 126.01
  L 216.18 49.70
  L 221.14 47.66
  Z"
/>
<path fill="#401a49" d="
  M 328.73 62.70
  Q 328.78 66.98 328.90 71.24
  Q 329.29 84.17 338.18 93.38
  Q 338.31 93.52 338.20 93.68
  Q 338.13 93.79 338.00 93.82
  Q 317.55 88.27 297.11 82.68
  Q 292.46 81.41 290.72 79.89
  C 287.32 76.93 286.64 72.25 288.66 68.18
  Q 289.99 65.52 291.22 62.82
  A 0.26 0.25 -70.7 0 0 291.05 62.46
  Q 281.74 60.25 272.48 58.07
  Q 267.69 56.94 263.57 60.36
  L 263.43 53.24
  Q 272.30 48.29 281.00 50.48
  Q 304.82 56.48 328.73 62.70
  Z"
/>
<path fill="#ffffff" d="
  M 338.00 93.82
  Q 338.57 94.05 339.05 94.47
  Q 349.03 103.31 362.98 103.24
  Q 372.09 103.19 380.81 103.23
  Q 381.42 103.23 381.33 103.83
  L 377.29 131.30
  Q 377.11 132.56 377.83 131.52
  L 397.28 103.73
  Q 397.58 103.29 398.12 103.29
  Q 412.12 103.08 419.00 103.26
  Q 419.51 103.28 419.34 103.74
  Q 419.12 104.41 418.80 105.04
  Q 326.42 287.65 233.96 470.22
  C 231.84 474.42 226.51 476.08 222.24 474.56
  Q 155.53 450.78 86.06 426.06
  C 79.80 423.84 77.61 417.77 80.83 411.57
  Q 116.87 342.19 153.08 272.34
  L 238.53 298.51
  Q 238.91 298.62 239.10 298.27
  L 305.27 174.48
  A 0.42 0.41 22.8 0 0 305.02 173.88
  L 217.60 148.11
  L 228.71 126.65
  L 234.94 126.50
  Q 235.45 126.49 235.45 125.98
  L 235.50 113.29
  L 243.89 97.38
  L 244.01 126.24
  A 0.36 0.36 0.0 0 0 244.37 126.60
  L 262.75 126.58
  Q 263.41 126.57 263.41 125.91
  L 263.57 60.36
  Q 267.69 56.94 272.48 58.07
  Q 281.74 60.25 291.05 62.46
  A 0.26 0.25 -70.7 0 1 291.22 62.82
  Q 289.99 65.52 288.66 68.18
  C 286.64 72.25 287.32 76.93 290.72 79.89
  Q 292.46 81.41 297.11 82.68
  Q 317.55 88.27 338.00 93.82
  Z
  M 322.59 183.06
  A 0.37 0.37 0.0 0 0 322.15 183.25
  L 310.29 206.94
  A 0.37 0.37 0.0 0 0 310.51 207.46
  L 338.20 216.16
  A 0.37 0.37 0.0 0 0 338.65 215.96
  L 349.29 191.90
  A 0.37 0.37 0.0 0 0 349.07 191.40
  L 322.59 183.06
  Z
  M 305.84 219.20
  A 0.40 0.40 0.0 0 0 305.36 219.40
  L 293.55 243.03
  A 0.40 0.40 0.0 0 0 293.79 243.59
  L 321.41 252.26
  A 0.40 0.40 0.0 0 0 321.89 252.04
  L 332.52 228.02
  A 0.40 0.40 0.0 0 0 332.27 227.48
  L 305.84 219.20
  Z
  M 286.71 257.13
  A 0.41 0.41 0.0 0 0 286.22 257.34
  L 274.42 280.96
  A 0.41 0.41 0.0 0 0 274.66 281.53
  L 302.26 290.19
  A 0.41 0.41 0.0 0 0 302.76 289.97
  L 313.37 265.97
  A 0.41 0.41 0.0 0 0 313.12 265.41
  L 286.71 257.13
  Z
  M 229.23 367.55
  C 233.04 360.83 232.32 353.10 226.61 347.75
  Q 223.94 345.25 217.08 343.15
  Q 189.87 334.83 164.20 326.56
  C 157.27 324.33 151.11 323.96 145.69 329.16
  C 142.92 331.81 140.50 336.45 139.71 340.06
  Q 137.89 348.35 144.23 354.61
  Q 146.57 356.92 151.82 358.69
  Q 186.31 370.30 220.73 382.30
  Q 221.23 382.48 221.48 382.01
  C 224.10 377.14 226.54 372.28 229.23 367.55
  Z
  M 141.28 398.38
  C 163.68 406.20 186.07 414.60 208.68 422.90
  C 214.63 425.08 219.03 426.07 224.49 423.19
  C 230.27 420.13 232.49 414.71 233.22 408.42
  C 234.24 399.75 229.48 394.11 221.76 391.12
  Q 192.36 379.71 165.99 369.19
  C 160.58 367.04 154.85 367.38 150.23 370.96
  Q 145.68 374.48 144.62 379.49
  Q 142.82 388.07 141.04 397.97
  A 0.37 0.36 -76.0 0 0 141.28 398.38
  Z"
/>
<rect fill="#111c49" x="188.94" y="59.47" width="19.34" height="67.12" rx="0.28"/>
<path fill="#401a49" d="
  M 243.83 82.03
  L 243.89 97.38
  L 235.50 113.29
  L 235.51 97.81
  L 243.83 82.03
  Z"
/>
<path fill="#401a49" d="
  M 435.78 103.34
  Q 438.36 113.03 434.68 120.21
  Q 415.31 157.94 395.55 195.79
  L 368.94 247.09
  Q 368.74 247.87 368.15 248.66
  L 315.13 351.45
  L 314.22 352.59
  L 295.12 389.39
  L 285.93 389.41
  Q 285.46 389.41 285.46 389.88
  L 285.53 407.80
  Q 266.63 444.29 247.48 480.60
  Q 242.51 490.01 232.75 492.98
  C 224.44 495.51 218.35 493.30 209.58 490.09
  Q 147.58 467.36 92.18 447.59
  Q 82.48 444.13 79.35 441.80
  C 69.44 434.44 65.90 420.51 71.51 409.99
  Q 74.63 404.12 77.63 398.32
  L 123.46 311.02
  L 145.06 269.88
  L 153.08 272.34
  Q 116.87 342.19 80.83 411.57
  C 77.61 417.77 79.80 423.84 86.06 426.06
  Q 155.53 450.78 222.24 474.56
  C 226.51 476.08 231.84 474.42 233.96 470.22
  Q 326.42 287.65 418.80 105.04
  Q 419.12 104.41 419.34 103.74
  Q 419.50 103.38 419.88 103.36
  Q 427.81 103.04 435.78 103.34
  Z
  M 416.1848 146.9796
  A 3.70 3.70 0.0 0 0 414.4382 142.0471
  L 412.2358 140.9966
  A 3.70 3.70 0.0 0 0 407.3034 142.7433
  L 392.7952 173.1604
  A 3.70 3.70 0.0 0 0 394.5418 178.0929
  L 396.7442 179.1434
  A 3.70 3.70 0.0 0 0 401.6766 177.3967
  L 416.1848 146.9796
  Z"
/>
<path fill="#23347c" d="
  M 210.31 145.66
  L 217.60 148.11
  L 305.02 173.88
  A 0.42 0.41 22.8 0 1 305.27 174.48
  L 239.10 298.27
  Q 238.91 298.62 238.53 298.51
  L 153.08 272.34
  L 145.06 269.88
  L 52.66 241.60
  A 0.29 0.28 23.5 0 1 52.49 241.19
  L 119.30 119.56
  A 0.49 0.49 0.0 0 1 119.88 119.32
  L 210.31 145.66
  Z
  M 172.96 199.73
  Q 172.57 199.58 172.74 199.19
  L 193.57 151.59
  Q 193.80 151.08 193.26 150.92
  C 163.46 141.71 132.19 157.65 123.08 187.57
  C 114.19 216.72 130.70 247.58 159.83 256.53
  C 188.97 265.48 218.85 249.50 228.69 220.81
  A 0.35 0.35 0.0 0 0 228.48 220.37
  L 172.96 199.73
  Z
  M 185.60 185.48
  Q 182.65 191.43 180.43 196.50
  Q 180.23 196.95 180.70 197.12
  L 227.69 213.84
  Q 228.25 214.04 228.44 213.48
  Q 232.78 200.56 231.28 187.75
  C 229.27 170.54 217.24 160.01 200.97 155.33
  Q 200.35 155.15 200.07 155.74
  Q 192.81 170.91 185.60 185.48
  Z"
/>
<path fill="#401a49" d="
  M 220.30 126.61
  L 228.71 126.65
  L 217.60 148.11
  L 210.31 145.66
  L 220.30 126.61
  Z"
/>
<path fill="#ffffff" d="
  M 401.6766 177.3967
  A 3.70 3.70 0.0 0 1 396.7442 179.1434
  L 394.5418 178.0929
  A 3.70 3.70 0.0 0 1 392.7952 173.1604
  L 407.3034 142.7433
  A 3.70 3.70 0.0 0 1 412.2358 140.9966
  L 414.4382 142.0471
  A 3.70 3.70 0.0 0 1 416.1848 146.9796
  L 401.6766 177.3967
  Z
  M 393.58 173.52
  A 2.96 2.96 0.0 0 0 395.00 177.47
  L 397.07 178.43
  A 2.96 2.96 0.0 0 0 400.99 177.02
  L 415.45 146.61
  A 2.96 2.96 0.0 0 0 413.87 142.59
  L 411.65 141.71
  A 2.96 2.96 0.0 0 0 407.89 143.20
  L 393.58 173.52
  Z"
/>
<path fill="#401a49" d="
  M 393.58 173.52
  L 407.89 143.20
  A 2.96 2.96 0.0 0 1 411.65 141.71
  L 413.87 142.59
  A 2.96 2.96 0.0 0 1 415.45 146.61
  L 400.99 177.02
  A 2.96 2.96 0.0 0 1 397.07 178.43
  L 395.00 177.47
  A 2.96 2.96 0.0 0 1 393.58 173.52
  Z"
/>
<path fill="#4071ff" d="
  M 172.96 199.73
  L 228.48 220.37
  A 0.35 0.35 0.0 0 1 228.69 220.81
  C 218.85 249.50 188.97 265.48 159.83 256.53
  C 130.70 247.58 114.19 216.72 123.08 187.57
  C 132.19 157.65 163.46 141.71 193.26 150.92
  Q 193.80 151.08 193.57 151.59
  L 172.74 199.19
  Q 172.57 199.58 172.96 199.73
  Z"
/>
<path fill="#8eabff" d="
  M 185.60 185.48
  Q 192.81 170.91 200.07 155.74
  Q 200.35 155.15 200.97 155.33
  C 217.24 160.01 229.27 170.54 231.28 187.75
  Q 232.78 200.56 228.44 213.48
  Q 228.25 214.04 227.69 213.84
  L 180.70 197.12
  Q 180.23 196.95 180.43 196.50
  Q 182.65 191.43 185.60 185.48
  Z"
/>
<path fill="#8eabff" d="
  M 322.59 183.06
  L 349.07 191.40
  A 0.37 0.37 0.0 0 1 349.29 191.90
  L 338.65 215.96
  A 0.37 0.37 0.0 0 1 338.20 216.16
  L 310.51 207.46
  A 0.37 0.37 0.0 0 1 310.29 206.94
  L 322.15 183.25
  A 0.37 0.37 0.0 0 1 322.59 183.06
  Z
  M 325.61 203.95
  L 324.62 197.59
  A 1.00 1.00 0.0 0 0 323.46 196.75
  L 323.09 196.81
  A 0.60 0.60 0.0 0 0 322.60 197.49
  L 323.99 206.27
  A 1.01 1.01 0.0 0 0 325.54 206.96
  L 344.28 194.86
  A 0.65 0.65 0.0 0 0 344.51 194.04
  L 344.36 193.74
  Q 343.89 192.74 342.96 193.34
  L 326.17 204.21
  A 0.37 0.36 69.1 0 1 325.61 203.95
  Z"
/>
<path fill="#401a49" d="
  M 325.61 203.95
  A 0.37 0.36 69.1 0 0 326.17 204.21
  L 342.96 193.34
  Q 343.89 192.74 344.36 193.74
  L 344.51 194.04
  A 0.65 0.65 0.0 0 1 344.28 194.86
  L 325.54 206.96
  A 1.01 1.01 0.0 0 1 323.99 206.27
  L 322.60 197.49
  A 0.60 0.60 0.0 0 1 323.09 196.81
  L 323.46 196.75
  A 1.00 1.00 0.0 0 1 324.62 197.59
  L 325.61 203.95
  Z"
/>
<path fill="#8eabff" d="
  M 395.55 195.79
  Q 399.40 195.89 402.99 196.18
  Q 415.85 197.20 425.57 203.40
  C 444.90 215.71 453.83 238.54 447.22 260.63
  Q 441.74 278.93 424.48 289.54
  Q 424.20 289.71 423.48 289.68
  Q 420.99 283.50 419.45 280.77
  Q 405.41 255.93 378.02 248.77
  C 375.34 248.07 371.96 247.77 368.94 247.09
  L 395.55 195.79
  Z"
/>
<path fill="#8eabff" d="
  M 305.84 219.20
  L 332.27 227.48
  A 0.40 0.40 0.0 0 1 332.52 228.02
  L 321.89 252.04
  A 0.40 0.40 0.0 0 1 321.41 252.26
  L 293.79 243.59
  A 0.40 0.40 0.0 0 1 293.55 243.03
  L 305.36 219.40
  A 0.40 0.40 0.0 0 1 305.84 219.20
  Z
  M 308.63 240.01
  L 307.66 233.79
  Q 307.48 232.68 306.44 233.09
  L 306.10 233.23
  A 0.60 0.59 -15.8 0 0 305.73 233.88
  L 307.12 242.25
  A 0.74 0.74 0.0 0 0 308.07 242.84
  Q 308.99 242.56 309.78 242.05
  Q 318.04 236.65 326.28 231.28
  A 0.69 0.68 -34.1 0 0 326.47 230.31
  L 326.31 230.08
  Q 325.80 229.36 325.06 229.84
  L 309.04 240.20
  A 0.27 0.27 0.0 0 1 308.63 240.01
  Z"
/>
<path fill="#401a49" d="
  M 308.63 240.01
  A 0.27 0.27 0.0 0 0 309.04 240.20
  L 325.06 229.84
  Q 325.80 229.36 326.31 230.08
  L 326.47 230.31
  A 0.69 0.68 -34.1 0 1 326.28 231.28
  Q 318.04 236.65 309.78 242.05
  Q 308.99 242.56 308.07 242.84
  A 0.74 0.74 0.0 0 1 307.12 242.25
  L 305.73 233.88
  A 0.60 0.59 -15.8 0 1 306.10 233.23
  L 306.44 233.09
  Q 307.48 232.68 307.66 233.79
  L 308.63 240.01
  Z"
/>
<path fill="#4071ff" d="
  M 368.94 247.09
  C 371.96 247.77 375.34 248.07 378.02 248.77
  Q 405.41 255.93 419.45 280.77
  Q 420.99 283.50 423.48 289.68
  Q 432.10 315.84 420.32 339.77
  C 408.33 364.13 381.59 377.94 355.00 374.74
  Q 330.90 371.84 314.22 352.59
  L 315.13 351.45
  Q 319.58 356.35 323.07 359.18
  C 349.21 380.37 385.37 378.05 408.71 353.59
  C 426.12 335.33 430.50 306.90 419.32 284.15
  C 409.32 263.81 390.75 251.16 368.15 248.66
  Q 368.74 247.87 368.94 247.09
  Z"
/>
<path fill="#ffffff" d="
  M 368.15 248.66
  C 390.75 251.16 409.32 263.81 419.32 284.15
  C 430.50 306.90 426.12 335.33 408.71 353.59
  C 385.37 378.05 349.21 380.37 323.07 359.18
  Q 319.58 356.35 315.13 351.45
  L 368.15 248.66
  Z
  M 362.66 311.80
  A 0.31 0.31 0.0 0 1 362.35 311.49
  L 362.35 284.53
  A 0.31 0.31 0.0 0 0 362.06 284.22
  L 361.09 284.17
  A 0.31 0.31 0.0 0 0 360.76 284.48
  L 360.77 312.99
  A 0.31 0.31 0.0 0 0 361.08 313.30
  L 399.91 313.30
  A 0.31 0.31 0.0 0 0 400.22 312.97
  L 400.15 312.09
  A 0.31 0.31 0.0 0 0 399.84 311.80
  L 362.66 311.80
  Z"
/>
<path fill="#8eabff" d="
  M 286.71 257.13
  L 313.12 265.41
  A 0.41 0.41 0.0 0 1 313.37 265.97
  L 302.76 289.97
  A 0.41 0.41 0.0 0 1 302.26 290.19
  L 274.66 281.53
  A 0.41 0.41 0.0 0 1 274.42 280.96
  L 286.22 257.34
  A 0.41 0.41 0.0 0 1 286.71 257.13
  Z
  M 287.74 278.75
  L 286.81 272.94
  Q 286.69 272.20 285.94 272.25
  L 285.51 272.27
  A 0.63 0.63 0.0 0 0 284.93 273.00
  L 286.22 281.26
  A 1.01 1.00 69.0 0 0 287.76 281.95
  L 305.37 270.40
  Q 306.00 269.98 305.53 269.38
  L 305.27 269.06
  Q 304.81 268.48 304.19 268.89
  L 288.62 279.13
  Q 287.88 279.62 287.74 278.75
  Z"
/>
<path fill="#401a49" d="
  M 288.62 279.13
  L 304.19 268.89
  Q 304.81 268.48 305.27 269.06
  L 305.53 269.38
  Q 306.00 269.98 305.37 270.40
  L 287.76 281.95
  A 1.01 1.00 69.0 0 1 286.22 281.26
  L 284.93 273.00
  A 0.63 0.63 0.0 0 1 285.51 272.27
  L 285.94 272.25
  Q 286.69 272.20 286.81 272.94
  L 287.74 278.75
  Q 287.88 279.62 288.62 279.13
  Z"
/>
<path fill="#4071ff" d="
  M 362.66 311.80
  L 399.84 311.80
  A 0.31 0.31 0.0 0 1 400.15 312.09
  L 400.22 312.97
  A 0.31 0.31 0.0 0 1 399.91 313.30
  L 361.08 313.30
  A 0.31 0.31 0.0 0 1 360.77 312.99
  L 360.76 284.48
  A 0.31 0.31 0.0 0 1 361.09 284.17
  L 362.06 284.22
  A 0.31 0.31 0.0 0 1 362.35 284.53
  L 362.35 311.49
  A 0.31 0.31 0.0 0 0 362.66 311.80
  Z"
/>
<path fill="#073ace" d="
  M 123.46 311.02
  L 77.63 398.32
  C 48.72 389.15 34.25 359.18 45.20 331.22
  C 57.31 300.29 97.71 289.42 123.46 311.02
  Z"
/>
<path fill="#4071ff" d="
  M 229.23 367.55
  C 226.54 372.28 224.10 377.14 221.48 382.01
  Q 221.23 382.48 220.73 382.30
  Q 186.31 370.30 151.82 358.69
  Q 146.57 356.92 144.23 354.61
  Q 137.89 348.35 139.71 340.06
  C 140.50 336.45 142.92 331.81 145.69 329.16
  C 151.11 323.96 157.27 324.33 164.20 326.56
  Q 189.87 334.83 217.08 343.15
  Q 223.94 345.25 226.61 347.75
  C 232.32 353.10 233.04 360.83 229.23 367.55
  Z
  M 174.26 347.16
  A 4.72 4.72 0.0 0 0 169.54 342.44
  A 4.72 4.72 0.0 0 0 164.82 347.16
  A 4.72 4.72 0.0 0 0 169.54 351.88
  A 4.72 4.72 0.0 0 0 174.26 347.16
  Z
  M 187.86 351.00
  A 4.71 4.71 0.0 0 0 183.15 346.29
  A 4.71 4.71 0.0 0 0 178.44 351.00
  A 4.71 4.71 0.0 0 0 183.15 355.71
  A 4.71 4.71 0.0 0 0 187.86 351.00
  Z
  M 201.20 354.76
  A 4.71 4.71 0.0 0 0 196.49 350.05
  A 4.71 4.71 0.0 0 0 191.78 354.76
  A 4.71 4.71 0.0 0 0 196.49 359.47
  A 4.71 4.71 0.0 0 0 201.20 354.76
  Z"
/>
<circle fill="#ffffff" cx="169.54" cy="347.16" r="4.72"/>
<circle fill="#ffffff" cx="183.15" cy="351.00" r="4.71"/>
<circle fill="#ffffff" cx="196.49" cy="354.76" r="4.71"/>
<path fill="#111c49" d="
  M 208.68 422.90
  C 186.07 414.60 163.68 406.20 141.28 398.38
  A 0.37 0.36 -76.0 0 1 141.04 397.97
  Q 142.82 388.07 144.62 379.49
  Q 145.68 374.48 150.23 370.96
  C 154.85 367.38 160.58 367.04 165.99 369.19
  Q 192.36 379.71 221.76 391.12
  C 229.48 394.11 234.24 399.75 233.22 408.42
  C 232.49 414.71 230.27 420.13 224.49 423.19
  C 219.03 426.07 214.63 425.08 208.68 422.90
  Z
  M 178.89 392.32
  A 4.71 4.71 0.0 0 0 174.18 387.61
  A 4.71 4.71 0.0 0 0 169.47 392.32
  A 4.71 4.71 0.0 0 0 174.18 397.03
  A 4.71 4.71 0.0 0 0 178.89 392.32
  Z
  M 192.01 396.83
  A 4.71 4.71 0.0 0 0 187.30 392.12
  A 4.71 4.71 0.0 0 0 182.59 396.83
  A 4.71 4.71 0.0 0 0 187.30 401.54
  A 4.71 4.71 0.0 0 0 192.01 396.83
  Z
  M 205.38 401.43
  A 4.71 4.71 0.0 0 0 200.67 396.72
  A 4.71 4.71 0.0 0 0 195.96 401.43
  A 4.71 4.71 0.0 0 0 200.67 406.14
  A 4.71 4.71 0.0 0 0 205.38 401.43
  Z"
/>
<circle fill="#ffffff" cx="174.18" cy="392.32" r="4.71"/>
<path fill="#23347c" d="
  M 295.12 389.39
  L 311.96 389.40
  A 0.61 0.60 90.0 0 1 312.56 390.01
  L 312.56 415.96
  Q 312.56 416.50 312.03 416.50
  L 286.17 416.50
  Q 285.56 416.50 285.56 415.89
  L 285.53 407.80
  L 285.46 389.88
  Q 285.46 389.41 285.93 389.41
  L 295.12 389.39
  Z"
/>
<rect fill="#073ace" x="328.46" y="389.40" width="27.06" height="27.10" rx="0.29"/>
<rect fill="#111c49" x="368.75" y="389.40" width="27.10" height="27.10" rx="0.33"/>
<circle fill="#ffffff" cx="187.30" cy="396.83" r="4.71"/>
<circle fill="#ffffff" cx="200.67" cy="401.43" r="4.71"/>
</svg>
