<?xml version="1.0" encoding="UTF-8" standalone="no"?>
<!DOCTYPE svg PUBLIC "-//W3C//DTD SVG 1.1//EN" "http://www.w3.org/Graphics/SVG/1.1/DTD/svg11.dtd">
<svg xmlns="http://www.w3.org/2000/svg" version="1.1" viewBox="0.00 0.00 128.00 128.00">
<g stroke-width="2.00" fill="none" stroke-linecap="butt">
<path stroke="#668cff" vector-effect="non-scaling-stroke" d="
  M 62.18 6.41
  L 61.52 8.97"
/>
<path stroke="#96acf4" vector-effect="non-scaling-stroke" d="
  M 61.52 8.97
  L 47.30 3.71
  A 0.36 0.36 0.0 0 0 46.83 3.96
  Q 41.06 26.27 31.24 47.25
  Q 24.58 61.48 16.01 72.94"
/>
<path stroke="#668cff" vector-effect="non-scaling-stroke" d="
  M 105.02 22.47
  Q 105.15 22.93 104.26 24.05
  Q 103.90 24.51 104.17 24.87"
/>
<path stroke="#cfd7f4" vector-effect="non-scaling-stroke" d="
  M 104.17 24.87
  L 99.90 34.22
  A 0.53 0.53 0.0 0 1 99.26 34.50
  L 58.06 21.62
  Q 57.53 21.45 57.70 20.92
  L 61.52 8.97"
/>
<path stroke="#cfd7f4" vector-effect="non-scaling-stroke" d="
  M 65.58 3.90
  A 0.86 0.86 0.0 0 0 64.45 4.49
  L 60.51 19.57
  A 0.86 0.86 0.0 0 0 61.08 20.60
  L 98.52 32.78
  A 0.86 0.86 0.0 0 0 99.60 32.25
  L 104.36 18.73
  A 0.86 0.86 0.0 0 0 103.84 17.63
  L 65.58 3.90"
/>
<path stroke="#96acf4" vector-effect="non-scaling-stroke" d="
  M 104.17 24.87
  L 119.26 30.51
  A 0.63 0.62 -70.4 0 1 119.63 31.30
  L 87.72 122.03
  A 0.84 0.83 -68.4 0 1 86.60 122.52
  L 9.37 89.19"
/>
<path stroke="#80e674" vector-effect="non-scaling-stroke" d="
  M 86.53 59.30
  L 101.26 51.18
  Q 101.56 51.01 101.30 50.79
  L 94.51 44.95
  A 0.44 0.43 47.9 0 0 93.97 44.92
  L 84.41 51.94"
/>
<path stroke="#afbff4" vector-effect="non-scaling-stroke" d="
  M 84.41 51.94
  Q 78.62 41.31 66.49 40.23
  Q 57.63 39.44 52.05 44.56
  Q 46.02 50.10 44.59 57.63
  Q 41.42 74.31 55.30 82.41
  C 61.16 85.83 69.61 85.98 75.45 82.47
  Q 87.73 75.08 86.53 59.30"
/>
<path stroke="#2fad80" vector-effect="non-scaling-stroke" d="
  M 84.41 51.94
  L 82.10 53.61"
/>
<path stroke="#afbff4" vector-effect="non-scaling-stroke" d="
  M 82.10 53.61
  Q 77.67 47.35 71.23 45.31
  C 57.11 40.82 39.69 55.26 47.96 70.35
  C 52.60 78.81 63.58 82.84 72.47 79.14
  C 79.98 76.02 85.75 68.93 84.66 60.29"
/>
<path stroke="#2fad80" vector-effect="non-scaling-stroke" d="
  M 84.66 60.29
  L 86.53 59.30"
/>
<path stroke="#80e674" vector-effect="non-scaling-stroke" d="
  M 82.10 53.61
  L 59.91 69.93
  Q 59.19 70.46 59.30 69.57
  L 61.19 55.24
  A 0.33 0.32 88.1 0 0 60.81 54.88
  L 53.82 56.19
  A 0.42 0.42 0.0 0 0 53.49 56.68
  L 57.10 74.92
  A 0.36 0.35 -19.9 0 0 57.63 75.16
  L 84.66 60.29"
/>
<path stroke="#8584b3" vector-effect="non-scaling-stroke" d="
  M 77.22 108.08
  Q 77.03 108.32 77.03 108.63
  Q 77.02 109.40 77.69 109.79
  Q 79.37 110.77 81.61 110.62
  Q 81.82 110.61 81.93 110.43
  Q 82.02 110.26 82.03 110.08
  Q 82.04 109.77 81.73 109.73
  L 78.75 109.38
  A 0.82 0.82 0.0 0 1 78.26 108.00
  L 80.01 106.18
  Q 80.75 105.42 79.70 105.60
  Q 75.22 106.38 73.71 106.09
  Q 68.15 105.02 73.58 103.66
  C 75.81 103.10 79.13 101.80 80.40 99.71
  A 2.38 2.38 0.0 0 0 78.91 96.16
  C 74.49 95.10 70.53 98.92 69.65 102.87
  A 1.31 1.31 0.0 0 1 67.90 103.81
  Q 66.38 103.22 67.43 101.93
  Q 68.22 100.97 67.01 101.29
  L 64.75 101.91
  Q 63.96 102.12 64.02 101.31
  Q 64.04 101.07 64.24 100.93
  Q 65.03 100.37 64.07 100.25
  Q 62.71 100.07 61.33 100.88
  Q 61.05 101.04 60.81 100.83
  Q 60.35 100.44 60.88 100.16
  Q 61.55 99.81 61.89 99.17
  Q 62.20 98.60 61.57 98.73
  Q 59.51 99.17 57.33 98.82
  Q 56.57 98.69 57.17 98.21
  C 59.71 96.15 62.37 93.14 62.28 89.70
  A 1.66 1.65 -67.7 0 0 61.81 88.57
  C 57.85 84.44 52.26 91.00 52.02 95.04
  Q 51.94 96.32 51.49 97.49
  Q 51.32 97.94 51.54 98.37
  Q 52.39 99.99 53.95 99.65
  C 55.50 99.31 57.10 99.73 58.61 99.93
  Q 59.06 99.99 59.16 100.43
  Q 59.60 102.21 61.70 101.63
  Q 62.43 101.43 62.87 102.03
  Q 63.69 103.15 64.98 102.61
  Q 65.64 102.34 65.86 103.02
  Q 66.57 105.14 68.97 104.70
  Q 69.55 104.59 69.85 105.11
  Q 71.29 107.61 76.61 106.97
  Q 78.29 106.77 77.22 108.08"
/>
<path stroke="#8584b3" vector-effect="non-scaling-stroke" d="
  M 82.2493 114.8868
  A 0.56 0.56 0.0 0 0 81.9616 114.1490
  L 47.6060 99.0679
  A 0.56 0.56 0.0 0 0 46.8681 99.3556
  L 46.5707 100.0332
  A 0.56 0.56 0.0 0 0 46.8584 100.7710
  L 81.2140 115.8521
  A 0.56 0.56 0.0 0 0 81.9519 115.5644
  L 82.2493 114.8868"
/>
<path stroke="#8584b3" vector-effect="non-scaling-stroke" d="
  M 82.30 105.37
  A 0.45 0.44 -9.9 0 0 82.72 104.78
  Q 82.52 104.19 81.93 103.95
  Q 81.38 103.74 81.15 104.28
  L 80.97 104.72
  Q 80.70 105.39 81.43 105.38
  L 82.30 105.37"
/>
<path stroke="#8584b3" vector-effect="non-scaling-stroke" d="
  M 62.73 16.80
  L 62.64 17.45"
/>
<path stroke="#cfd7f4" vector-effect="non-scaling-stroke" d="
  M 62.64 17.45
  L 61.85 19.06
  Q 61.52 19.74 62.24 19.97
  L 95.21 30.72
  Q 95.67 30.87 96.04 30.55
  Q 96.30 30.32 96.55 30.26"
/>
<path stroke="#8584b3" vector-effect="non-scaling-stroke" d="
  M 96.55 30.26
  Q 98.12 30.63 99.11 29.55"
/>
<path stroke="#cfd7f4" vector-effect="non-scaling-stroke" d="
  M 99.11 29.55
  Q 101.62 25.11 102.35 20.15
  A 0.80 0.75 -21.3 0 1 102.56 19.71
  Q 103.07 19.15 102.66 18.39
  A 0.77 0.77 0.0 0 0 102.24 18.03
  L 66.05 5.02
  A 0.57 0.56 -71.9 0 0 65.31 5.40
  Q 64.04 9.76 62.72 14.74
  Q 62.46 15.72 62.73 16.80"
/>
<path stroke="#5564be" vector-effect="non-scaling-stroke" d="
  M 99.11 29.55
  Q 99.13 28.19 97.74 27.75
  A 1.33 1.33 0.0 0 0 96.03 29.27
  Q 96.11 29.70 96.55 30.26"
/>
<path stroke="#5564be" vector-effect="non-scaling-stroke" d="
  M 62.64 17.45
  Q 62.89 18.66 64.42 18.79
  A 1.22 1.22 0.0 0 0 65.53 16.88
  Q 64.76 15.77 62.73 16.80"
/>
<path stroke="#5564be" vector-effect="non-scaling-stroke" d="
  M 68.7399 8.7176
  A 1.44 1.22 0.7 0 0 67.3149 7.4801
  A 1.44 1.22 0.7 0 0 65.8601 8.6824
  A 1.44 1.22 0.7 0 0 67.2851 9.9199
  A 1.44 1.22 0.7 0 0 68.7399 8.7176"
/>
<path stroke="#5564be" vector-effect="non-scaling-stroke" d="
  M 102.0926 20.3335
  A 1.58 1.19 8.5 0 0 100.7059 18.9231
  A 1.58 1.19 8.5 0 0 98.9674 19.8665
  A 1.58 1.19 8.5 0 0 100.3541 21.2769
  A 1.58 1.19 8.5 0 0 102.0926 20.3335"
/>
<path stroke="#1c39be" vector-effect="non-scaling-stroke" d="
  M 7.33 94.30
  Q 7.50 94.35 7.65 94.49
  Q 7.82 94.65 8.05 94.74
  L 87.96 126.08
  A 0.80 0.79 -69.4 0 0 89.00 125.60
  Q 105.36 79.19 121.89 32.16
  Q 122.15 31.42 122.09 30.64
  Q 122.06 30.26 121.68 30.30
  L 121.39 30.33
  Q 121.05 30.36 121.03 30.70
  Q 120.98 31.62 120.70 32.43
  Q 104.88 77.32 88.35 124.34
  Q 88.09 125.09 87.34 124.80
  L 7.43 93.98"
/>
<path stroke="#8584b3" vector-effect="non-scaling-stroke" d="
  M 55.21 93.00
  Q 57.26 92.67 55.62 93.94
  Q 54.42 94.86 53.41 96.04
  Q 53.06 96.46 53.42 96.88
  Q 54.12 97.67 54.99 98.08
  Q 55.40 98.27 55.78 98.01
  Q 60.13 95.01 61.26 91.08
  Q 61.86 88.98 59.85 88.33
  C 56.74 87.33 53.67 91.81 53.11 94.23
  Q 53.07 94.39 53.19 94.50
  Q 53.33 94.62 53.51 94.59
  Q 53.68 94.55 53.78 94.42
  Q 54.76 93.07 55.21 93.00"
/>
<path stroke="#8584b3" vector-effect="non-scaling-stroke" d="
  M 71.03 103.34
  C 74.12 102.65 77.19 101.77 79.48 99.47
  A 1.32 1.32 0.0 0 0 79.17 97.38
  C 75.45 95.38 71.71 99.56 70.55 102.80
  Q 70.30 103.51 71.03 103.34"
/>
<path stroke="#5564be" vector-effect="non-scaling-stroke" d="
  M 53.6575 98.8811
  A 0.94 0.37 43.0 0 0 53.2223 97.9694
  A 0.94 0.37 43.0 0 0 52.2825 97.5989
  A 0.94 0.37 43.0 0 0 52.7177 98.5106
  A 0.94 0.37 43.0 0 0 53.6575 98.8811"
/>
</g>
<path fill="#2c61ff" d="
  M 45.11 0.00
  Q 45.40 -0.03 45.42 0.00
  L 62.18 6.41
  L 61.52 8.97
  L 47.30 3.71
  A 0.36 0.36 0.0 0 0 46.83 3.96
  Q 41.06 26.27 31.24 47.25
  Q 24.58 61.48 16.01 72.94
  L 45.11 0.00
  Z"
/>
<path fill="#9fb7ff" d="
  M 105.02 22.47
  Q 105.15 22.93 104.26 24.05
  Q 103.90 24.51 104.17 24.87
  L 99.90 34.22
  A 0.53 0.53 0.0 0 1 99.26 34.50
  L 58.06 21.62
  Q 57.53 21.45 57.70 20.92
  L 61.52 8.97
  L 62.18 6.41
  L 63.90 1.23
  Q 64.06 0.76 64.52 0.94
  L 74.58 4.91
  Q 75.15 5.14 75.58 4.69
  C 83.81 -3.82 98.49 2.52 99.14 13.98
  Q 99.17 14.58 99.73 14.80
  L 106.53 17.46
  Q 107.04 17.66 106.83 18.17
  L 105.02 22.47
  Z
  M 65.58 3.90
  A 0.86 0.86 0.0 0 0 64.45 4.49
  L 60.51 19.57
  A 0.86 0.86 0.0 0 0 61.08 20.60
  L 98.52 32.78
  A 0.86 0.86 0.0 0 0 99.60 32.25
  L 104.36 18.73
  A 0.86 0.86 0.0 0 0 103.84 17.63
  L 65.58 3.90
  Z"
/>
<path fill="#fff7e8" d="
  M 61.52 8.97
  L 57.70 20.92
  Q 57.53 21.45 58.06 21.62
  L 99.26 34.50
  A 0.53 0.53 0.0 0 0 99.90 34.22
  L 104.17 24.87
  L 119.26 30.51
  A 0.63 0.62 -70.4 0 1 119.63 31.30
  L 87.72 122.03
  A 0.84 0.83 -68.4 0 1 86.60 122.52
  L 9.37 89.19
  L 4.66 86.99
  Q 4.19 86.77 4.57 86.41
  Q 11.22 80.11 16.01 72.94
  Q 24.58 61.48 31.24 47.25
  Q 41.06 26.27 46.83 3.96
  A 0.36 0.36 0.0 0 1 47.30 3.71
  L 61.52 8.97
  Z
  M 86.53 59.30
  L 101.26 51.18
  Q 101.56 51.01 101.30 50.79
  L 94.51 44.95
  A 0.44 0.43 47.9 0 0 93.97 44.92
  L 84.41 51.94
  Q 78.62 41.31 66.49 40.23
  Q 57.63 39.44 52.05 44.56
  Q 46.02 50.10 44.59 57.63
  Q 41.42 74.31 55.30 82.41
  C 61.16 85.83 69.61 85.98 75.45 82.47
  Q 87.73 75.08 86.53 59.30
  Z
  M 77.22 108.08
  Q 77.03 108.32 77.03 108.63
  Q 77.02 109.40 77.69 109.79
  Q 79.37 110.77 81.61 110.62
  Q 81.82 110.61 81.93 110.43
  Q 82.02 110.26 82.03 110.08
  Q 82.04 109.77 81.73 109.73
  L 78.75 109.38
  A 0.82 0.82 0.0 0 1 78.26 108.00
  L 80.01 106.18
  Q 80.75 105.42 79.70 105.60
  Q 75.22 106.38 73.71 106.09
  Q 68.15 105.02 73.58 103.66
  C 75.81 103.10 79.13 101.80 80.40 99.71
  A 2.38 2.38 0.0 0 0 78.91 96.16
  C 74.49 95.10 70.53 98.92 69.65 102.87
  A 1.31 1.31 0.0 0 1 67.90 103.81
  Q 66.38 103.22 67.43 101.93
  Q 68.22 100.97 67.01 101.29
  L 64.75 101.91
  Q 63.96 102.12 64.02 101.31
  Q 64.04 101.07 64.24 100.93
  Q 65.03 100.37 64.07 100.25
  Q 62.71 100.07 61.33 100.88
  Q 61.05 101.04 60.81 100.83
  Q 60.35 100.44 60.88 100.16
  Q 61.55 99.81 61.89 99.17
  Q 62.20 98.60 61.57 98.73
  Q 59.51 99.17 57.33 98.82
  Q 56.57 98.69 57.17 98.21
  C 59.71 96.15 62.37 93.14 62.28 89.70
  A 1.66 1.65 -67.7 0 0 61.81 88.57
  C 57.85 84.44 52.26 91.00 52.02 95.04
  Q 51.94 96.32 51.49 97.49
  Q 51.32 97.94 51.54 98.37
  Q 52.39 99.99 53.95 99.65
  C 55.50 99.31 57.10 99.73 58.61 99.93
  Q 59.06 99.99 59.16 100.43
  Q 59.60 102.21 61.70 101.63
  Q 62.43 101.43 62.87 102.03
  Q 63.69 103.15 64.98 102.61
  Q 65.64 102.34 65.86 103.02
  Q 66.57 105.14 68.97 104.70
  Q 69.55 104.59 69.85 105.11
  Q 71.29 107.61 76.61 106.97
  Q 78.29 106.77 77.22 108.08
  Z
  M 82.2493 114.8868
  A 0.56 0.56 0.0 0 0 81.9616 114.1490
  L 47.6060 99.0679
  A 0.56 0.56 0.0 0 0 46.8681 99.3556
  L 46.5707 100.0332
  A 0.56 0.56 0.0 0 0 46.8584 100.7710
  L 81.2140 115.8521
  A 0.56 0.56 0.0 0 0 81.9519 115.5644
  L 82.2493 114.8868
  Z
  M 82.30 105.37
  A 0.45 0.44 -9.9 0 0 82.72 104.78
  Q 82.52 104.19 81.93 103.95
  Q 81.38 103.74 81.15 104.28
  L 80.97 104.72
  Q 80.70 105.39 81.43 105.38
  L 82.30 105.37
  Z"
/>
<path fill="#fff7e8" d="
  M 65.58 3.90
  L 103.84 17.63
  A 0.86 0.86 0.0 0 1 104.36 18.73
  L 99.60 32.25
  A 0.86 0.86 0.0 0 1 98.52 32.78
  L 61.08 20.60
  A 0.86 0.86 0.0 0 1 60.51 19.57
  L 64.45 4.49
  A 0.86 0.86 0.0 0 1 65.58 3.90
  Z
  M 62.73 16.80
  L 62.64 17.45
  L 61.85 19.06
  Q 61.52 19.74 62.24 19.97
  L 95.21 30.72
  Q 95.67 30.87 96.04 30.55
  Q 96.30 30.32 96.55 30.26
  Q 98.12 30.63 99.11 29.55
  Q 101.62 25.11 102.35 20.15
  A 0.80 0.75 -21.3 0 1 102.56 19.71
  Q 103.07 19.15 102.66 18.39
  A 0.77 0.77 0.0 0 0 102.24 18.03
  L 66.05 5.02
  A 0.57 0.56 -71.9 0 0 65.31 5.40
  Q 64.04 9.76 62.72 14.74
  Q 62.46 15.72 62.73 16.80
  Z"
/>
<path fill="#9fb7ff" d="
  M 99.11 29.55
  Q 99.13 28.19 97.74 27.75
  A 1.33 1.33 0.0 0 0 96.03 29.27
  Q 96.11 29.70 96.55 30.26
  Q 96.30 30.32 96.04 30.55
  Q 95.67 30.87 95.21 30.72
  L 62.24 19.97
  Q 61.52 19.74 61.85 19.06
  L 62.64 17.45
  Q 62.89 18.66 64.42 18.79
  A 1.22 1.22 0.0 0 0 65.53 16.88
  Q 64.76 15.77 62.73 16.80
  Q 62.46 15.72 62.72 14.74
  Q 64.04 9.76 65.31 5.40
  A 0.57 0.56 -71.9 0 1 66.05 5.02
  L 102.24 18.03
  A 0.77 0.77 0.0 0 1 102.66 18.39
  Q 103.07 19.15 102.56 19.71
  A 0.80 0.75 -21.3 0 0 102.35 20.15
  Q 101.62 25.11 99.11 29.55
  Z
  M 68.7399 8.7176
  A 1.44 1.22 0.7 0 0 67.3149 7.4801
  A 1.44 1.22 0.7 0 0 65.8601 8.6824
  A 1.44 1.22 0.7 0 0 67.2851 9.9199
  A 1.44 1.22 0.7 0 0 68.7399 8.7176
  Z
  M 102.0926 20.3335
  A 1.58 1.19 8.5 0 0 100.7059 18.9231
  A 1.58 1.19 8.5 0 0 98.9674 19.8665
  A 1.58 1.19 8.5 0 0 100.3541 21.2769
  A 1.58 1.19 8.5 0 0 102.0926 20.3335
  Z"
/>
<ellipse fill="#0b107d" cx="0.00" cy="0.00" transform="translate(67.30,8.70) rotate(0.7)" rx="1.44" ry="1.22"/>
<path fill="#0b107d" d="
  M 62.64 17.45
  L 62.73 16.80
  Q 64.76 15.77 65.53 16.88
  A 1.22 1.22 0.0 0 1 64.42 18.79
  Q 62.89 18.66 62.64 17.45
  Z"
/>
<ellipse fill="#0b107d" cx="0.00" cy="0.00" transform="translate(100.53,20.10) rotate(8.5)" rx="1.58" ry="1.19"/>
<path fill="#2c61ff" d="
  M 105.02 22.47
  L 123.67 29.52
  A 0.40 0.39 20.3 0 1 123.91 30.02
  L 89.75 127.43
  A 0.54 0.54 0.0 0 1 89.05 127.76
  L 6.72 97.65
  Q 6.22 97.46 6.39 96.95
  L 7.33 94.30
  Q 7.50 94.35 7.65 94.49
  Q 7.82 94.65 8.05 94.74
  L 87.96 126.08
  A 0.80 0.79 -69.4 0 0 89.00 125.60
  Q 105.36 79.19 121.89 32.16
  Q 122.15 31.42 122.09 30.64
  Q 122.06 30.26 121.68 30.30
  L 121.39 30.33
  Q 121.05 30.36 121.03 30.70
  Q 120.98 31.62 120.70 32.43
  Q 104.88 77.32 88.35 124.34
  Q 88.09 125.09 87.34 124.80
  L 7.43 93.98
  L 9.37 89.19
  L 86.60 122.52
  A 0.84 0.83 -68.4 0 0 87.72 122.03
  L 119.63 31.30
  A 0.63 0.62 -70.4 0 0 119.26 30.51
  L 104.17 24.87
  Q 103.90 24.51 104.26 24.05
  Q 105.15 22.93 105.02 22.47
  Z"
/>
<path fill="#0b107d" d="
  M 99.11 29.55
  Q 98.12 30.63 96.55 30.26
  Q 96.11 29.70 96.03 29.27
  A 1.33 1.33 0.0 0 1 97.74 27.75
  Q 99.13 28.19 99.11 29.55
  Z"
/>
<path fill="#0b107d" d="
  M 7.33 94.30
  Q 7.19 94.08 7.43 93.98
  L 87.34 124.80
  Q 88.09 125.09 88.35 124.34
  Q 104.88 77.32 120.70 32.43
  Q 120.98 31.62 121.03 30.70
  Q 121.05 30.36 121.39 30.33
  L 121.68 30.30
  Q 122.06 30.26 122.09 30.64
  Q 122.15 31.42 121.89 32.16
  Q 105.36 79.19 89.00 125.60
  A 0.80 0.79 -69.4 0 1 87.96 126.08
  L 8.05 94.74
  Q 7.82 94.65 7.65 94.49
  Q 7.50 94.35 7.33 94.30
  Z"
/>
<path fill="#5e86ff" d="
  M 84.41 51.94
  L 82.10 53.61
  Q 77.67 47.35 71.23 45.31
  C 57.11 40.82 39.69 55.26 47.96 70.35
  C 52.60 78.81 63.58 82.84 72.47 79.14
  C 79.98 76.02 85.75 68.93 84.66 60.29
  L 86.53 59.30
  Q 87.73 75.08 75.45 82.47
  C 69.61 85.98 61.16 85.83 55.30 82.41
  Q 41.42 74.31 44.59 57.63
  Q 46.02 50.10 52.05 44.56
  Q 57.63 39.44 66.49 40.23
  Q 78.62 41.31 84.41 51.94
  Z"
/>
<path fill="#fff7e8" d="
  M 82.10 53.61
  L 59.91 69.93
  Q 59.19 70.46 59.30 69.57
  L 61.19 55.24
  A 0.33 0.32 88.1 0 0 60.81 54.88
  L 53.82 56.19
  A 0.42 0.42 0.0 0 0 53.49 56.68
  L 57.10 74.92
  A 0.36 0.35 -19.9 0 0 57.63 75.16
  L 84.66 60.29
  C 85.75 68.93 79.98 76.02 72.47 79.14
  C 63.58 82.84 52.60 78.81 47.96 70.35
  C 39.69 55.26 57.11 40.82 71.23 45.31
  Q 77.67 47.35 82.10 53.61
  Z"
/>
<path fill="#00d400" d="
  M 86.53 59.30
  L 84.66 60.29
  L 57.63 75.16
  A 0.36 0.35 -19.9 0 1 57.10 74.92
  L 53.49 56.68
  A 0.42 0.42 0.0 0 1 53.82 56.19
  L 60.81 54.88
  A 0.33 0.32 88.1 0 1 61.19 55.24
  L 59.30 69.57
  Q 59.19 70.46 59.91 69.93
  L 82.10 53.61
  L 84.41 51.94
  L 93.97 44.92
  A 0.44 0.43 47.9 0 1 94.51 44.95
  L 101.30 50.79
  Q 101.56 51.01 101.26 51.18
  L 86.53 59.30
  Z"
/>
<path fill="#0b107d" d="
  M 77.22 108.08
  Q 78.29 106.77 76.61 106.97
  Q 71.29 107.61 69.85 105.11
  Q 69.55 104.59 68.97 104.70
  Q 66.57 105.14 65.86 103.02
  Q 65.64 102.34 64.98 102.61
  Q 63.69 103.15 62.87 102.03
  Q 62.43 101.43 61.70 101.63
  Q 59.60 102.21 59.16 100.43
  Q 59.06 99.99 58.61 99.93
  C 57.10 99.73 55.50 99.31 53.95 99.65
  Q 52.39 99.99 51.54 98.37
  Q 51.32 97.94 51.49 97.49
  Q 51.94 96.32 52.02 95.04
  C 52.26 91.00 57.85 84.44 61.81 88.57
  A 1.66 1.65 -67.7 0 1 62.28 89.70
  C 62.37 93.14 59.71 96.15 57.17 98.21
  Q 56.57 98.69 57.33 98.82
  Q 59.51 99.17 61.57 98.73
  Q 62.20 98.60 61.89 99.17
  Q 61.55 99.81 60.88 100.16
  Q 60.35 100.44 60.81 100.83
  Q 61.05 101.04 61.33 100.88
  Q 62.71 100.07 64.07 100.25
  Q 65.03 100.37 64.24 100.93
  Q 64.04 101.07 64.02 101.31
  Q 63.96 102.12 64.75 101.91
  L 67.01 101.29
  Q 68.22 100.97 67.43 101.93
  Q 66.38 103.22 67.90 103.81
  A 1.31 1.31 0.0 0 0 69.65 102.87
  C 70.53 98.92 74.49 95.10 78.91 96.16
  A 2.38 2.38 0.0 0 1 80.40 99.71
  C 79.13 101.80 75.81 103.10 73.58 103.66
  Q 68.15 105.02 73.71 106.09
  Q 75.22 106.38 79.70 105.60
  Q 80.75 105.42 80.01 106.18
  L 78.26 108.00
  A 0.82 0.82 0.0 0 0 78.75 109.38
  L 81.73 109.73
  Q 82.04 109.77 82.03 110.08
  Q 82.02 110.26 81.93 110.43
  Q 81.82 110.61 81.61 110.62
  Q 79.37 110.77 77.69 109.79
  Q 77.02 109.40 77.03 108.63
  Q 77.03 108.32 77.22 108.08
  Z
  M 55.21 93.00
  Q 57.26 92.67 55.62 93.94
  Q 54.42 94.86 53.41 96.04
  Q 53.06 96.46 53.42 96.88
  Q 54.12 97.67 54.99 98.08
  Q 55.40 98.27 55.78 98.01
  Q 60.13 95.01 61.26 91.08
  Q 61.86 88.98 59.85 88.33
  C 56.74 87.33 53.67 91.81 53.11 94.23
  Q 53.07 94.39 53.19 94.50
  Q 53.33 94.62 53.51 94.59
  Q 53.68 94.55 53.78 94.42
  Q 54.76 93.07 55.21 93.00
  Z
  M 71.03 103.34
  C 74.12 102.65 77.19 101.77 79.48 99.47
  A 1.32 1.32 0.0 0 0 79.17 97.38
  C 75.45 95.38 71.71 99.56 70.55 102.80
  Q 70.30 103.51 71.03 103.34
  Z
  M 53.6575 98.8811
  A 0.94 0.37 43.0 0 0 53.2223 97.9694
  A 0.94 0.37 43.0 0 0 52.2825 97.5989
  A 0.94 0.37 43.0 0 0 52.7177 98.5106
  A 0.94 0.37 43.0 0 0 53.6575 98.8811
  Z"
/>
<path fill="#fff7e8" d="
  M 55.21 93.00
  Q 54.76 93.07 53.78 94.42
  Q 53.68 94.55 53.51 94.59
  Q 53.33 94.62 53.19 94.50
  Q 53.07 94.39 53.11 94.23
  C 53.67 91.81 56.74 87.33 59.85 88.33
  Q 61.86 88.98 61.26 91.08
  Q 60.13 95.01 55.78 98.01
  Q 55.40 98.27 54.99 98.08
  Q 54.12 97.67 53.42 96.88
  Q 53.06 96.46 53.41 96.04
  Q 54.42 94.86 55.62 93.94
  Q 57.26 92.67 55.21 93.00
  Z"
/>
<path fill="#fff7e8" d="
  M 79.48 99.47
  C 77.19 101.77 74.12 102.65 71.03 103.34
  Q 70.30 103.51 70.55 102.80
  C 71.71 99.56 75.45 95.38 79.17 97.38
  A 1.32 1.32 0.0 0 1 79.48 99.47
  Z"
/>
<ellipse fill="#9fb7ff" cx="0.00" cy="0.00" transform="translate(52.97,98.24) rotate(43.0)" rx="0.94" ry="0.37"/>
<rect fill="#0b107d" x="-19.32" y="-0.93" transform="translate(64.41,107.46) rotate(23.7)" width="38.64" height="1.86" rx="0.56"/>
<path fill="#0b107d" d="
  M 82.30 105.37
  L 81.43 105.38
  Q 80.70 105.39 80.97 104.72
  L 81.15 104.28
  Q 81.38 103.74 81.93 103.95
  Q 82.52 104.19 82.72 104.78
  A 0.45 0.44 -9.9 0 1 82.30 105.37
  Z"
/>
</svg>
