<?xml version="1.0" encoding="UTF-8" standalone="no"?>
<!DOCTYPE svg PUBLIC "-//W3C//DTD SVG 1.1//EN" "http://www.w3.org/Graphics/SVG/1.1/DTD/svg11.dtd">
<svg xmlns="http://www.w3.org/2000/svg" version="1.1" viewBox="0.00 0.00 512.00 512.00">
<g stroke-width="2.00" fill="none" stroke-linecap="butt">
<path stroke="#c4d3ff" vector-effect="non-scaling-stroke" d="
  M 142.89 122.22
  Q 138.74 122.01 134.50 122.04
  Q 132.36 122.05 129.65 122.72"
/>
<path stroke="#94b0ff" vector-effect="non-scaling-stroke" d="
  M 129.65 122.72
  Q 125.62 123.08 121.04 123.04
  C 117.43 123.02 114.36 123.58 110.92 124.13
  Q 110.43 124.22 110.29 124.70
  Q 109.54 127.38 109.09 130.30
  Q 101.92 176.06 88.30 255.13
  Q 86.67 264.58 84.43 274.79
  Q 78.46 301.85 73.56 329.00
  Q 70.37 346.72 68.08 365.38"
/>
<path stroke="#c4d3ff" vector-effect="non-scaling-stroke" d="
  M 68.08 365.38
  Q 64.59 368.83 58.19 373.40
  Q 45.38 382.57 33.05 388.50
  Q 32.59 388.72 33.09 388.77
  Q 48.87 390.41 64.76 390.41
  Q 65.25 390.41 65.37 391.30"
/>
<path stroke="#94b0ff" vector-effect="non-scaling-stroke" d="
  M 65.37 391.30
  L 65.05 407.51
  A 0.35 0.35 0.0 0 0 65.40 407.86
  Q 86.11 407.81 106.19 407.97
  C 119.40 408.08 133.67 408.79 147.26 408.93
  C 179.41 409.23 211.12 409.40 242.75 408.67
  Q 285.59 407.68 328.93 408.87
  C 339.57 409.17 349.89 408.86 360.82 409.30
  Q 374.10 409.84 386.90 410.01"
/>
<path stroke="#92ace3" vector-effect="non-scaling-stroke" d="
  M 386.90 410.01
  Q 390.04 408.55 391.09 407.88
  C 406.72 397.88 420.97 385.81 434.86 373.58"
/>
<path stroke="#8691be" vector-effect="non-scaling-stroke" d="
  M 434.86 373.58
  Q 435.38 372.47 435.95 373.06
  Q 439.45 376.71 442.92 379.72
  Q 455.29 390.46 471.23 402.92
  C 472.87 404.20 476.35 406.61 478.54 406.18
  A 2.07 2.06 -8.1 0 0 480.20 403.98
  Q 479.59 396.64 478.39 388.84
  Q 471.81 346.16 464.31 309.48
  Q 462.12 298.74 460.52 289.92
  C 452.63 246.11 445.19 200.70 440.19 155.51
  C 439.04 145.07 436.06 132.62 430.14 123.65
  Q 429.82 123.18 429.03 122.69"
/>
<path stroke="#94b0ff" vector-effect="non-scaling-stroke" d="
  M 429.03 122.69
  Q 428.56 122.02 427.50 122.02
  Q 419.88 122.00 412.25 122.01
  Q 412.01 122.01 411.48 122.37"
/>
<path stroke="#c4d3ff" vector-effect="non-scaling-stroke" d="
  M 411.48 122.37
  Q 411.31 122.31 411.16 122.22
  Q 410.90 122.08 410.61 122.08
  L 398.26 122.11"
/>
<path stroke="#92ace3" vector-effect="non-scaling-stroke" d="
  M 398.26 122.11
  C 398.29 110.59 391.44 102.05 380.12 101.18
  C 372.47 100.60 364.30 104.55 360.58 111.33
  Q 358.08 115.88 357.38 122.16"
/>
<path stroke="#c4d3ff" vector-effect="non-scaling-stroke" d="
  M 357.38 122.16
  Q 356.16 122.40 355.28 122.08"
/>
<path stroke="#92ace3" vector-effect="non-scaling-stroke" d="
  M 355.28 122.08
  C 355.33 114.06 352.92 106.68 345.54 102.65
  C 339.48 99.34 332.83 99.21 326.60 102.11
  Q 315.02 107.49 314.37 122.29"
/>
<path stroke="#c4d3ff" vector-effect="non-scaling-stroke" d="
  M 314.37 122.29
  Q 298.93 121.67 283.96 122.35
  Q 270.54 122.95 263.99 122.97
  Q 248.11 123.01 232.41 123.07"
/>
<path stroke="#92ace3" vector-effect="non-scaling-stroke" d="
  M 232.41 123.07
  Q 232.10 123.42 231.84 123.31
  Q 231.53 123.17 231.53 122.84
  Q 231.47 110.52 222.81 105.05
  C 211.42 97.86 196.58 103.22 192.14 115.92
  C 191.40 118.02 191.23 120.22 190.65 122.39"
/>
<path stroke="#c4d3ff" vector-effect="non-scaling-stroke" d="
  M 190.65 122.39
  L 183.76 122.26"
/>
<path stroke="#92ace3" vector-effect="non-scaling-stroke" d="
  M 183.76 122.26
  C 184.19 112.29 180.45 103.68 170.94 100.44
  Q 163.43 97.89 155.60 101.17
  Q 143.61 106.22 142.89 122.22"
/>
<path stroke="#6e90e3" vector-effect="non-scaling-stroke" d="
  M 183.76 122.26
  C 183.76 126.34 178.84 126.98 177.67 122.95"
/>
<path stroke="#3e6de3" vector-effect="non-scaling-stroke" d="
  M 177.67 122.95
  Q 177.55 122.65 177.70 122.18"
/>
<path stroke="#92ace3" vector-effect="non-scaling-stroke" d="
  M 177.70 122.18
  C 178.20 116.70 176.87 110.95 172.21 107.78
  C 165.60 103.27 156.68 105.30 152.13 111.39
  Q 148.79 115.86 149.05 122.23"
/>
<path stroke="#3e6de3" vector-effect="non-scaling-stroke" d="
  M 149.05 122.23
  Q 149.52 122.49 149.35 122.70"
/>
<path stroke="#6e90e3" vector-effect="non-scaling-stroke" d="
  M 149.35 122.70
  Q 149.24 122.97 149.15 123.24
  Q 149.06 123.52 149.10 123.81
  C 150.55 133.00 156.45 135.98 165.05 137.30
  Q 167.67 137.70 167.74 140.35
  Q 167.75 140.76 167.58 141.11
  Q 166.50 143.35 164.03 143.11
  Q 144.48 141.16 142.89 122.22"
/>
<path stroke="#94b0ff" vector-effect="non-scaling-stroke" d="
  M 177.70 122.18
  L 149.05 122.23"
/>
<path stroke="#7094ff" vector-effect="non-scaling-stroke" d="
  M 411.48 122.37
  Q 412.24 122.66 412.03 124.01
  C 410.81 131.85 409.83 139.66 408.52 147.33
  C 399.66 199.10 392.44 247.59 388.01 294.49
  Q 385.68 319.19 377.77 340.78
  Q 372.34 355.57 364.66 364.77
  Q 353.77 377.81 334.96 382.99
  Q 317.24 387.87 297.50 389.64
  Q 287.91 390.50 280.99 390.64
  Q 235.42 391.60 176.00 391.20
  Q 121.60 390.83 66.02 390.57
  Q 65.68 390.57 65.56 390.78
  Q 65.45 390.97 65.37 391.30"
/>
<path stroke="#7094ff" vector-effect="non-scaling-stroke" d="
  M 68.08 365.38
  Q 83.18 348.83 91.59 327.54
  Q 101.29 302.98 106.84 276.70
  Q 111.00 257.01 113.47 240.33
  Q 116.06 222.87 118.97 207.50
  Q 120.98 196.87 122.21 188.10
  Q 126.79 155.48 129.65 122.72"
/>
<path stroke="#7094ff" vector-effect="non-scaling-stroke" d="
  M 149.35 122.70
  Q 161.03 122.29 176.75 122.63
  Q 177.50 122.64 177.67 122.95"
/>
<path stroke="#c4d3ff" vector-effect="non-scaling-stroke" d="
  M 225.40 123.04
  L 196.81 122.73"
/>
<path stroke="#6e90e3" vector-effect="non-scaling-stroke" d="
  M 398.26 122.11
  C 397.69 125.91 392.57 125.78 392.23 121.68"
/>
<path stroke="#92ace3" vector-effect="non-scaling-stroke" d="
  M 392.23 121.68
  C 392.05 110.38 383.11 104.38 372.89 108.38
  Q 364.93 111.49 363.53 121.70"
/>
<path stroke="#6e90e3" vector-effect="non-scaling-stroke" d="
  M 363.53 121.70
  Q 362.82 134.08 374.06 137.79
  Q 376.83 138.70 379.21 139.08
  Q 381.51 139.45 381.93 141.73
  Q 382.01 142.19 381.87 142.65
  Q 381.07 145.25 378.36 144.94
  Q 357.70 142.55 357.38 122.16"
/>
<path stroke="#6e90e3" vector-effect="non-scaling-stroke" d="
  M 232.41 123.07
  Q 231.67 124.26 230.90 125.12
  C 228.69 127.59 225.89 126.21 225.40 123.04"
/>
<path stroke="#92ace3" vector-effect="non-scaling-stroke" d="
  M 225.40 123.04
  Q 225.98 116.27 222.00 112.00
  Q 216.48 106.08 207.72 108.48
  Q 197.98 111.14 196.81 122.73"
/>
<path stroke="#6e90e3" vector-effect="non-scaling-stroke" d="
  M 196.81 122.73
  Q 196.09 134.36 206.73 138.56
  Q 209.06 139.49 212.61 139.74
  Q 215.16 139.93 215.54 142.46
  Q 215.60 142.90 215.49 143.33
  Q 214.73 146.08 211.91 145.74
  Q 190.55 143.16 190.65 122.39"
/>
<path stroke="#c4d3ff" vector-effect="non-scaling-stroke" d="
  M 392.23 121.68
  L 363.53 121.70"
/>
<path stroke="#c4d3ff" vector-effect="non-scaling-stroke" d="
  M 349.15 122.14
  L 320.48 122.13"
/>
<path stroke="#3253be" vector-effect="non-scaling-stroke" d="
  M 429.03 122.69
  Q 428.77 123.78 428.69 124.76
  Q 425.87 157.31 420.96 191.12
  Q 419.71 199.73 417.52 210.81
  Q 408.79 255.13 402.17 299.99
  Q 395.72 343.66 391.95 372.00
  Q 391.88 372.46 392.11 372.79"
/>
<path stroke="#3e6de3" vector-effect="non-scaling-stroke" d="
  M 392.11 372.79
  L 386.90 410.01"
/>
<path stroke="#6e90e3" vector-effect="non-scaling-stroke" d="
  M 355.28 122.08
  C 354.80 125.95 349.78 125.96 349.15 122.14"
/>
<path stroke="#92ace3" vector-effect="non-scaling-stroke" d="
  M 349.15 122.14
  C 350.14 111.01 341.27 103.07 330.42 107.10
  Q 320.97 110.61 320.48 122.13"
/>
<path stroke="#6e90e3" vector-effect="non-scaling-stroke" d="
  M 320.48 122.13
  C 320.47 135.09 331.68 139.27 342.79 137.58
  Q 345.55 137.16 346.29 139.85
  Q 346.40 140.25 346.37 140.66
  Q 346.24 142.90 344.04 143.35
  C 332.87 145.66 319.23 141.62 315.48 129.51
  Q 314.47 126.26 314.37 122.29"
/>
<path stroke="#304fa1" vector-effect="non-scaling-stroke" d="
  M 434.86 373.58
  L 434.66 373.17
  Q 434.43 372.69 433.89 372.69
  L 392.11 372.79"
/>
<path stroke="#6e90e3" vector-effect="non-scaling-stroke" d="
  M 327.52 152.23
  A 1.29 1.28 -12.8 0 0 326.34 151.49
  Q 269.22 151.69 219.42 151.81
  Q 210.55 151.83 201.00 152.28
  A 1.33 1.33 0.0 0 0 199.75 153.40
  Q 198.50 161.28 200.66 169.38
  A 1.04 1.03 82.0 0 0 201.67 170.15
  Q 264.07 169.58 327.31 168.22
  A 0.57 0.57 0.0 0 0 327.86 167.75
  C 328.60 163.33 329.41 156.18 327.52 152.23"
/>
<path stroke="#7094ff" vector-effect="non-scaling-stroke" d="
  M 379.8662 206.9579
  A 1.51 1.51 0.0 0 0 378.3509 205.4531
  L 345.7511 205.5669
  A 1.51 1.51 0.0 0 0 344.2464 207.0822
  L 344.2738 214.9221
  A 1.51 1.51 0.0 0 0 345.7891 216.4269
  L 378.3889 216.3131
  A 1.51 1.51 0.0 0 0 379.8936 214.7978
  L 379.8662 206.9579"
/>
<path stroke="#7094ff" vector-effect="non-scaling-stroke" d="
  M 270.7772 207.1590
  A 1.47 1.47 0.0 0 0 269.2995 205.6967
  L 237.4400 205.8635
  A 1.47 1.47 0.0 0 0 235.9777 207.3412
  L 236.0228 215.9610
  A 1.47 1.47 0.0 0 0 237.5005 217.4233
  L 269.3600 217.2565
  A 1.47 1.47 0.0 0 0 270.8223 215.7788
  L 270.7772 207.1590"
/>
<path stroke="#7094ff" vector-effect="non-scaling-stroke" d="
  M 323.94 206.02
  L 290.88 206.14
  A 1.18 1.18 0.0 0 0 289.71 207.32
  L 289.73 214.28
  A 2.34 2.20 -0.2 0 0 292.08 216.47
  L 322.82 216.37
  A 2.34 2.20 -0.2 0 0 325.15 214.16
  L 325.13 207.20
  A 1.18 1.18 0.0 0 0 323.94 206.02"
/>
<path stroke="#7094ff" vector-effect="non-scaling-stroke" d="
  M 179.93 218.08
  Q 198.58 218.54 214.40 217.60
  A 0.97 0.96 3.0 0 0 215.29 216.81
  Q 216.12 211.87 215.45 207.20
  A 0.79 0.77 -3.7 0 0 214.67 206.53
  L 179.27 206.61
  A 0.60 0.59 89.1 0 0 178.68 207.23
  L 179.05 217.22
  A 0.90 0.89 -0.3 0 0 179.93 218.08"
/>
<path stroke="#7094ff" vector-effect="non-scaling-stroke" d="
  M 162.88 217.46
  A 1.64 1.64 0.0 0 0 164.48 215.87
  L 164.68 208.97
  A 1.64 1.64 0.0 0 0 163.05 207.29
  L 130.93 207.21
  A 1.64 1.64 0.0 0 0 129.29 208.88
  L 129.41 216.56
  A 1.64 1.64 0.0 0 0 131.09 218.17
  L 162.88 217.46"
/>
<path stroke="#cfdbff" vector-effect="non-scaling-stroke" d="
  M 199.03 340.34
  Q 194.80 355.43 188.82 366.34
  Q 185.84 371.78 180.94 375.12
  A 1.50 1.50 0.0 0 0 180.28 376.40
  Q 180.30 377.33 180.85 377.84
  Q 182.25 379.14 183.80 378.02
  Q 189.52 373.88 193.24 366.60
  Q 199.21 354.96 203.22 340.18
  Q 203.36 339.67 203.88 339.67
  L 253.34 339.62
  Q 253.59 339.62 253.52 339.86
  Q 249.59 354.25 242.90 366.43
  Q 239.78 372.11 234.43 375.41
  A 1.72 1.72 0.0 0 0 233.86 377.76
  L 234.21 378.34
  A 1.54 1.53 -29.9 0 0 236.27 378.89
  C 241.63 375.88 245.30 370.82 247.95 365.55
  Q 253.65 354.20 257.61 340.26
  A 0.89 0.88 -81.3 0 1 258.47 339.62
  L 307.70 340.27
  Q 308.35 340.28 308.14 340.90
  Q 305.24 349.70 300.62 358.76
  Q 294.84 370.07 287.36 374.95
  A 1.83 1.82 -24.7 0 0 286.60 376.99
  Q 286.77 377.55 287.20 377.93
  A 2.12 2.12 0.0 0 0 289.77 378.10
  Q 297.25 373.11 302.60 363.46
  Q 308.57 352.70 312.30 340.94
  Q 312.48 340.37 313.07 340.39
  L 346.04 341.37
  Q 348.00 341.42 348.24 339.48
  Q 348.28 339.21 348.19 338.94
  Q 347.70 337.42 346.11 337.38
  L 314.49 336.41
  Q 313.89 336.40 314.07 335.83
  Q 319.46 318.17 323.07 299.85
  Q 323.18 299.29 323.75 299.27
  L 358.50 298.02
  Q 360.20 297.96 360.53 296.30
  Q 360.57 296.05 360.53 295.80
  Q 360.22 293.96 358.35 294.03
  L 324.55 295.25
  Q 324.03 295.26 324.13 294.75
  Q 327.49 276.94 330.03 258.45
  A 0.58 0.57 -86.9 0 1 330.57 257.96
  Q 345.02 257.43 359.50 256.23
  Q 361.91 256.03 364.87 255.38
  Q 366.06 255.11 366.39 253.93
  Q 366.63 253.09 366.03 252.23
  A 1.55 1.55 0.0 0 0 364.57 251.57
  Q 349.03 253.41 331.34 253.92
  Q 330.73 253.93 330.79 253.33
  L 333.50 229.61
  Q 333.67 228.17 332.41 227.43
  Q 332.05 227.22 331.64 227.21
  Q 329.76 227.16 329.54 229.04
  L 326.76 253.54
  Q 326.68 254.24 325.97 254.26
  L 274.86 255.65
  Q 274.49 255.66 274.53 255.29
  L 277.42 232.37
  Q 277.63 230.71 276.12 229.97
  Q 275.87 229.85 275.58 229.85
  Q 273.71 229.89 273.47 231.76
  L 270.51 255.25
  A 0.53 0.52 2.5 0 1 270.00 255.71
  L 219.72 256.58
  A 0.32 0.31 -86.0 0 1 219.41 256.22
  L 222.27 232.40
  Q 222.51 230.43 220.58 229.95
  Q 220.31 229.88 220.03 229.93
  Q 218.51 230.17 218.33 231.70
  L 215.41 256.01
  A 0.69 0.69 0.0 0 1 214.74 256.61
  L 165.80 257.11
  Q 165.25 257.11 165.31 256.56
  L 168.13 231.23
  Q 168.32 229.51 166.59 229.48
  L 165.94 229.47
  A 1.79 1.79 0.0 0 0 164.13 231.06
  L 161.28 256.63
  A 0.63 0.63 0.0 0 1 160.65 257.19
  L 125.56 257.35
  A 1.61 1.60 18.2 0 0 124.27 258.00
  Q 123.54 258.98 123.77 259.77
  Q 124.24 261.35 125.89 261.34
  L 160.13 261.17
  A 0.36 0.36 0.0 0 1 160.49 261.58
  Q 157.97 279.15 154.45 296.21
  A 0.49 0.49 0.0 0 1 153.96 296.60
  L 126.08 296.26
  Q 124.14 296.24 123.82 298.16
  Q 123.67 299.10 124.82 299.93
  A 1.62 1.59 62.9 0 0 125.78 300.25
  L 152.83 300.59
  Q 153.46 300.60 153.33 301.22
  Q 149.41 319.06 143.29 336.09
  A 0.74 0.74 0.0 0 1 142.61 336.58
  L 110.96 337.38
  Q 109.34 337.42 109.22 339.04
  L 109.20 339.37
  Q 109.05 341.44 111.12 341.38
  L 140.89 340.61
  Q 141.47 340.60 141.26 341.14
  C 136.53 353.10 129.15 366.78 117.43 372.20
  A 1.54 1.54 0.0 0 0 116.54 373.48
  Q 116.45 374.50 117.06 375.14
  Q 118.15 376.29 119.58 375.60
  C 132.47 369.44 140.65 354.06 145.61 340.97
  A 0.76 0.75 -80.2 0 1 146.30 340.48
  L 198.54 339.70
  Q 199.21 339.69 199.03 340.34"
/>
<path stroke="#cfdbff" vector-effect="non-scaling-stroke" d="
  M 319.87 295.38
  A 0.30 0.30 0.0 0 0 320.16 295.12
  L 326.15 258.56
  A 0.30 0.30 0.0 0 0 325.85 258.21
  L 274.26 259.63
  A 0.30 0.30 0.0 0 0 273.97 259.88
  L 268.02 296.07
  A 0.30 0.30 0.0 0 0 268.32 296.42
  L 319.87 295.38"
/>
<path stroke="#cfdbff" vector-effect="non-scaling-stroke" d="
  M 263.63 296.46
  A 0.32 0.32 0.0 0 0 263.94 296.19
  L 269.91 260.06
  A 0.32 0.32 0.0 0 0 269.59 259.69
  L 219.16 260.55
  A 0.32 0.32 0.0 0 0 218.85 260.82
  L 213.20 296.48
  A 0.32 0.32 0.0 0 0 213.52 296.85
  L 263.63 296.46"
/>
<path stroke="#cfdbff" vector-effect="non-scaling-stroke" d="
  M 165.06 261.10
  A 0.35 0.35 0.0 0 0 164.72 261.39
  L 158.69 296.29
  A 0.35 0.35 0.0 0 0 159.03 296.70
  L 208.80 296.79
  A 0.35 0.35 0.0 0 0 209.15 296.49
  L 214.79 260.99
  A 0.35 0.35 0.0 0 0 214.45 260.58
  L 165.06 261.10"
/>
<path stroke="#cfdbff" vector-effect="non-scaling-stroke" d="
  M 309.83 335.88
  C 313.73 323.94 316.69 311.58 319.01 299.83
  Q 319.10 299.40 318.65 299.41
  L 267.45 300.43
  A 0.48 0.47 -85.4 0 0 267.00 300.82
  Q 263.76 317.98 259.09 335.33
  A 0.24 0.24 0.0 0 0 259.32 335.63
  L 309.23 336.31
  A 0.63 0.62 8.9 0 0 309.83 335.88"
/>
<path stroke="#cfdbff" vector-effect="non-scaling-stroke" d="
  M 255.01 335.07
  Q 259.79 317.47 262.93 300.78
  A 0.25 0.25 0.0 0 0 262.68 300.48
  L 212.66 300.83
  A 0.48 0.47 5.0 0 0 212.19 301.22
  Q 209.31 317.36 204.67 335.18
  Q 204.51 335.79 205.14 335.78
  Q 228.41 335.44 254.11 335.75
  Q 254.83 335.76 255.01 335.07"
/>
<path stroke="#cfdbff" vector-effect="non-scaling-stroke" d="
  M 208.19 301.06
  Q 208.24 300.80 207.97 300.80
  L 157.84 300.68
  A 0.41 0.39 5.1 0 0 157.44 301.00
  Q 153.68 318.69 147.61 335.89
  Q 147.40 336.46 148.01 336.45
  L 199.96 335.69
  Q 200.41 335.68 200.53 335.25
  Q 204.95 318.61 208.19 301.06"
/>
</g>
<path fill="#e8eeff" d="
  M 127.04 102.55
  Q 131.83 92.17 139.14 87.14
  C 154.57 76.53 173.56 76.88 188.96 87.73
  Q 189.31 87.98 189.69 87.78
  Q 207.32 78.19 224.93 84.26
  C 234.62 87.60 242.16 93.67 246.74 102.45
  Q 247.10 103.13 247.86 103.13
  Q 273.91 103.19 298.33 102.29
  A 1.12 1.11 11.7 0 0 299.28 101.67
  C 303.07 93.88 308.94 87.77 316.68 84.28
  Q 336.98 75.12 356.48 86.01
  Q 357.35 86.49 358.24 86.05
  Q 377.76 76.52 396.78 85.64
  Q 407.50 90.78 413.40 101.51
  Q 413.68 102.02 414.26 102.02
  Q 422.17 102.07 429.28 102.22
  Q 434.04 102.31 438.90 105.01
  C 445.38 108.60 449.97 116.62 452.52 123.23
  Q 458.08 137.65 460.03 153.26
  C 461.56 165.48 462.89 178.10 464.51 189.57
  Q 473.25 251.46 482.87 300.98
  Q 484.13 307.45 485.33 313.53
  Q 492.04 347.39 498.45 389.50
  C 499.78 398.27 501.68 407.06 497.20 415.42
  Q 491.98 425.14 480.70 426.14
  C 472.32 426.88 464.40 422.87 457.98 417.85
  Q 446.60 408.94 435.51 399.62
  A 0.66 0.65 44.6 0 0 434.66 399.62
  Q 418.78 413.02 404.29 422.78
  C 398.86 426.43 393.31 430.00 386.93 429.91
  C 374.37 429.73 361.37 429.17 349.34 429.00
  C 312.52 428.50 277.57 427.79 239.18 428.62
  Q 181.69 429.85 119.69 428.15
  Q 94.32 427.45 68.51 427.89
  Q 62.16 427.99 58.87 426.79
  Q 47.45 422.63 45.21 410.01
  Q 45.11 409.42 44.51 409.39
  Q 35.68 408.95 27.05 407.50
  Q 22.87 406.80 19.95 404.44
  Q 9.31 395.81 12.65 383.09
  Q 15.26 373.11 25.53 369.56
  Q 28.26 368.61 30.64 367.12
  Q 39.20 361.77 47.83 356.47
  A 3.56 3.56 0.0 0 0 49.50 353.92
  Q 50.30 347.94 51.24 342.06
  Q 56.78 307.11 64.63 272.52
  Q 66.85 262.76 68.51 252.89
  Q 72.28 230.40 76.26 207.26
  Q 82.88 168.81 89.08 128.89
  Q 90.64 118.83 92.50 115.68
  Q 98.00 106.40 108.73 104.34
  Q 116.60 102.83 126.26 103.04
  Q 126.81 103.05 127.04 102.55
  Z
  M 142.89 122.22
  Q 138.74 122.01 134.50 122.04
  Q 132.36 122.05 129.65 122.72
  Q 125.62 123.08 121.04 123.04
  C 117.43 123.02 114.36 123.58 110.92 124.13
  Q 110.43 124.22 110.29 124.70
  Q 109.54 127.38 109.09 130.30
  Q 101.92 176.06 88.30 255.13
  Q 86.67 264.58 84.43 274.79
  Q 78.46 301.85 73.56 329.00
  Q 70.37 346.72 68.08 365.38
  Q 64.59 368.83 58.19 373.40
  Q 45.38 382.57 33.05 388.50
  Q 32.59 388.72 33.09 388.77
  Q 48.87 390.41 64.76 390.41
  Q 65.25 390.41 65.37 391.30
  L 65.05 407.51
  A 0.35 0.35 0.0 0 0 65.40 407.86
  Q 86.11 407.81 106.19 407.97
  C 119.40 408.08 133.67 408.79 147.26 408.93
  C 179.41 409.23 211.12 409.40 242.75 408.67
  Q 285.59 407.68 328.93 408.87
  C 339.57 409.17 349.89 408.86 360.82 409.30
  Q 374.10 409.84 386.90 410.01
  Q 390.04 408.55 391.09 407.88
  C 406.72 397.88 420.97 385.81 434.86 373.58
  Q 435.38 372.47 435.95 373.06
  Q 439.45 376.71 442.92 379.72
  Q 455.29 390.46 471.23 402.92
  C 472.87 404.20 476.35 406.61 478.54 406.18
  A 2.07 2.06 -8.1 0 0 480.20 403.98
  Q 479.59 396.64 478.39 388.84
  Q 471.81 346.16 464.31 309.48
  Q 462.12 298.74 460.52 289.92
  C 452.63 246.11 445.19 200.70 440.19 155.51
  C 439.04 145.07 436.06 132.62 430.14 123.65
  Q 429.82 123.18 429.03 122.69
  Q 428.56 122.02 427.50 122.02
  Q 419.88 122.00 412.25 122.01
  Q 412.01 122.01 411.48 122.37
  Q 411.31 122.31 411.16 122.22
  Q 410.90 122.08 410.61 122.08
  L 398.26 122.11
  C 398.29 110.59 391.44 102.05 380.12 101.18
  C 372.47 100.60 364.30 104.55 360.58 111.33
  Q 358.08 115.88 357.38 122.16
  Q 356.16 122.40 355.28 122.08
  C 355.33 114.06 352.92 106.68 345.54 102.65
  C 339.48 99.34 332.83 99.21 326.60 102.11
  Q 315.02 107.49 314.37 122.29
  Q 298.93 121.67 283.96 122.35
  Q 270.54 122.95 263.99 122.97
  Q 248.11 123.01 232.41 123.07
  Q 232.10 123.42 231.84 123.31
  Q 231.53 123.17 231.53 122.84
  Q 231.47 110.52 222.81 105.05
  C 211.42 97.86 196.58 103.22 192.14 115.92
  C 191.40 118.02 191.23 120.22 190.65 122.39
  L 183.76 122.26
  C 184.19 112.29 180.45 103.68 170.94 100.44
  Q 163.43 97.89 155.60 101.17
  Q 143.61 106.22 142.89 122.22
  Z"
/>
<path fill="#3c69c6" d="
  M 183.76 122.26
  C 183.76 126.34 178.84 126.98 177.67 122.95
  Q 177.55 122.65 177.70 122.18
  C 178.20 116.70 176.87 110.95 172.21 107.78
  C 165.60 103.27 156.68 105.30 152.13 111.39
  Q 148.79 115.86 149.05 122.23
  Q 149.52 122.49 149.35 122.70
  Q 149.24 122.97 149.15 123.24
  Q 149.06 123.52 149.10 123.81
  C 150.55 133.00 156.45 135.98 165.05 137.30
  Q 167.67 137.70 167.74 140.35
  Q 167.75 140.76 167.58 141.11
  Q 166.50 143.35 164.03 143.11
  Q 144.48 141.16 142.89 122.22
  Q 143.61 106.22 155.60 101.17
  Q 163.43 97.89 170.94 100.44
  C 180.45 103.68 184.19 112.29 183.76 122.26
  Z"
/>
<path fill="#3c69c6" d="
  M 355.28 122.08
  C 354.80 125.95 349.78 125.96 349.15 122.14
  C 350.14 111.01 341.27 103.07 330.42 107.10
  Q 320.97 110.61 320.48 122.13
  C 320.47 135.09 331.68 139.27 342.79 137.58
  Q 345.55 137.16 346.29 139.85
  Q 346.40 140.25 346.37 140.66
  Q 346.24 142.90 344.04 143.35
  C 332.87 145.66 319.23 141.62 315.48 129.51
  Q 314.47 126.26 314.37 122.29
  Q 315.02 107.49 326.60 102.11
  C 332.83 99.21 339.48 99.34 345.54 102.65
  C 352.92 106.68 355.33 114.06 355.28 122.08
  Z"
/>
<path fill="#3c69c6" d="
  M 398.26 122.11
  C 397.69 125.91 392.57 125.78 392.23 121.68
  C 392.05 110.38 383.11 104.38 372.89 108.38
  Q 364.93 111.49 363.53 121.70
  Q 362.82 134.08 374.06 137.79
  Q 376.83 138.70 379.21 139.08
  Q 381.51 139.45 381.93 141.73
  Q 382.01 142.19 381.87 142.65
  Q 381.07 145.25 378.36 144.94
  Q 357.70 142.55 357.38 122.16
  Q 358.08 115.88 360.58 111.33
  C 364.30 104.55 372.47 100.60 380.12 101.18
  C 391.44 102.05 398.29 110.59 398.26 122.11
  Z"
/>
<path fill="#3c69c6" d="
  M 232.41 123.07
  Q 231.67 124.26 230.90 125.12
  C 228.69 127.59 225.89 126.21 225.40 123.04
  Q 225.98 116.27 222.00 112.00
  Q 216.48 106.08 207.72 108.48
  Q 197.98 111.14 196.81 122.73
  Q 196.09 134.36 206.73 138.56
  Q 209.06 139.49 212.61 139.74
  Q 215.16 139.93 215.54 142.46
  Q 215.60 142.90 215.49 143.33
  Q 214.73 146.08 211.91 145.74
  Q 190.55 143.16 190.65 122.39
  C 191.23 120.22 191.40 118.02 192.14 115.92
  C 196.58 103.22 211.42 97.86 222.81 105.05
  Q 231.47 110.52 231.53 122.84
  Q 231.53 123.17 231.84 123.31
  Q 232.10 123.42 232.41 123.07
  Z"
/>
<path fill="#e8eeff" d="
  M 177.70 122.18
  L 149.05 122.23
  Q 148.79 115.86 152.13 111.39
  C 156.68 105.30 165.60 103.27 172.21 107.78
  C 176.87 110.95 178.20 116.70 177.70 122.18
  Z"
/>
<path fill="#e8eeff" d="
  M 349.15 122.14
  L 320.48 122.13
  Q 320.97 110.61 330.42 107.10
  C 341.27 103.07 350.14 111.01 349.15 122.14
  Z"
/>
<path fill="#e8eeff" d="
  M 392.23 121.68
  L 363.53 121.70
  Q 364.93 111.49 372.89 108.38
  C 383.11 104.38 392.05 110.38 392.23 121.68
  Z"
/>
<path fill="#e8eeff" d="
  M 225.40 123.04
  L 196.81 122.73
  Q 197.98 111.14 207.72 108.48
  Q 216.48 106.08 222.00 112.00
  Q 225.98 116.27 225.40 123.04
  Z"
/>
<path fill="#9fb7ff" d="
  M 392.23 121.68
  C 392.57 125.78 397.69 125.91 398.26 122.11
  L 410.61 122.08
  Q 410.90 122.08 411.16 122.22
  Q 411.31 122.31 411.48 122.37
  Q 412.24 122.66 412.03 124.01
  C 410.81 131.85 409.83 139.66 408.52 147.33
  C 399.66 199.10 392.44 247.59 388.01 294.49
  Q 385.68 319.19 377.77 340.78
  Q 372.34 355.57 364.66 364.77
  Q 353.77 377.81 334.96 382.99
  Q 317.24 387.87 297.50 389.64
  Q 287.91 390.50 280.99 390.64
  Q 235.42 391.60 176.00 391.20
  Q 121.60 390.83 66.02 390.57
  Q 65.68 390.57 65.56 390.78
  Q 65.45 390.97 65.37 391.30
  Q 65.25 390.41 64.76 390.41
  Q 48.87 390.41 33.09 388.77
  Q 32.59 388.72 33.05 388.50
  Q 45.38 382.57 58.19 373.40
  Q 64.59 368.83 68.08 365.38
  Q 83.18 348.83 91.59 327.54
  Q 101.29 302.98 106.84 276.70
  Q 111.00 257.01 113.47 240.33
  Q 116.06 222.87 118.97 207.50
  Q 120.98 196.87 122.21 188.10
  Q 126.79 155.48 129.65 122.72
  Q 132.36 122.05 134.50 122.04
  Q 138.74 122.01 142.89 122.22
  Q 144.48 141.16 164.03 143.11
  Q 166.50 143.35 167.58 141.11
  Q 167.75 140.76 167.74 140.35
  Q 167.67 137.70 165.05 137.30
  C 156.45 135.98 150.55 133.00 149.10 123.81
  Q 149.06 123.52 149.15 123.24
  Q 149.24 122.97 149.35 122.70
  Q 161.03 122.29 176.75 122.63
  Q 177.50 122.64 177.67 122.95
  C 178.84 126.98 183.76 126.34 183.76 122.26
  L 190.65 122.39
  Q 190.55 143.16 211.91 145.74
  Q 214.73 146.08 215.49 143.33
  Q 215.60 142.90 215.54 142.46
  Q 215.16 139.93 212.61 139.74
  Q 209.06 139.49 206.73 138.56
  Q 196.09 134.36 196.81 122.73
  L 225.40 123.04
  C 225.89 126.21 228.69 127.59 230.90 125.12
  Q 231.67 124.26 232.41 123.07
  Q 248.11 123.01 263.99 122.97
  Q 270.54 122.95 283.96 122.35
  Q 298.93 121.67 314.37 122.29
  Q 314.47 126.26 315.48 129.51
  C 319.23 141.62 332.87 145.66 344.04 143.35
  Q 346.24 142.90 346.37 140.66
  Q 346.40 140.25 346.29 139.85
  Q 345.55 137.16 342.79 137.58
  C 331.68 139.27 320.47 135.09 320.48 122.13
  L 349.15 122.14
  C 349.78 125.96 354.80 125.95 355.28 122.08
  Q 356.16 122.40 357.38 122.16
  Q 357.70 142.55 378.36 144.94
  Q 381.07 145.25 381.87 142.65
  Q 382.01 142.19 381.93 141.73
  Q 381.51 139.45 379.21 139.08
  Q 376.83 138.70 374.06 137.79
  Q 362.82 134.08 363.53 121.70
  L 392.23 121.68
  Z
  M 327.52 152.23
  A 1.29 1.28 -12.8 0 0 326.34 151.49
  Q 269.22 151.69 219.42 151.81
  Q 210.55 151.83 201.00 152.28
  A 1.33 1.33 0.0 0 0 199.75 153.40
  Q 198.50 161.28 200.66 169.38
  A 1.04 1.03 82.0 0 0 201.67 170.15
  Q 264.07 169.58 327.31 168.22
  A 0.57 0.57 0.0 0 0 327.86 167.75
  C 328.60 163.33 329.41 156.18 327.52 152.23
  Z
  M 379.8662 206.9579
  A 1.51 1.51 0.0 0 0 378.3509 205.4531
  L 345.7511 205.5669
  A 1.51 1.51 0.0 0 0 344.2464 207.0822
  L 344.2738 214.9221
  A 1.51 1.51 0.0 0 0 345.7891 216.4269
  L 378.3889 216.3131
  A 1.51 1.51 0.0 0 0 379.8936 214.7978
  L 379.8662 206.9579
  Z
  M 270.7772 207.1590
  A 1.47 1.47 0.0 0 0 269.2995 205.6967
  L 237.4400 205.8635
  A 1.47 1.47 0.0 0 0 235.9777 207.3412
  L 236.0228 215.9610
  A 1.47 1.47 0.0 0 0 237.5005 217.4233
  L 269.3600 217.2565
  A 1.47 1.47 0.0 0 0 270.8223 215.7788
  L 270.7772 207.1590
  Z
  M 323.94 206.02
  L 290.88 206.14
  A 1.18 1.18 0.0 0 0 289.71 207.32
  L 289.73 214.28
  A 2.34 2.20 -0.2 0 0 292.08 216.47
  L 322.82 216.37
  A 2.34 2.20 -0.2 0 0 325.15 214.16
  L 325.13 207.20
  A 1.18 1.18 0.0 0 0 323.94 206.02
  Z
  M 179.93 218.08
  Q 198.58 218.54 214.40 217.60
  A 0.97 0.96 3.0 0 0 215.29 216.81
  Q 216.12 211.87 215.45 207.20
  A 0.79 0.77 -3.7 0 0 214.67 206.53
  L 179.27 206.61
  A 0.60 0.59 89.1 0 0 178.68 207.23
  L 179.05 217.22
  A 0.90 0.89 -0.3 0 0 179.93 218.08
  Z
  M 162.88 217.46
  A 1.64 1.64 0.0 0 0 164.48 215.87
  L 164.68 208.97
  A 1.64 1.64 0.0 0 0 163.05 207.29
  L 130.93 207.21
  A 1.64 1.64 0.0 0 0 129.29 208.88
  L 129.41 216.56
  A 1.64 1.64 0.0 0 0 131.09 218.17
  L 162.88 217.46
  Z
  M 199.03 340.34
  Q 194.80 355.43 188.82 366.34
  Q 185.84 371.78 180.94 375.12
  A 1.50 1.50 0.0 0 0 180.28 376.40
  Q 180.30 377.33 180.85 377.84
  Q 182.25 379.14 183.80 378.02
  Q 189.52 373.88 193.24 366.60
  Q 199.21 354.96 203.22 340.18
  Q 203.36 339.67 203.88 339.67
  L 253.34 339.62
  Q 253.59 339.62 253.52 339.86
  Q 249.59 354.25 242.90 366.43
  Q 239.78 372.11 234.43 375.41
  A 1.72 1.72 0.0 0 0 233.86 377.76
  L 234.21 378.34
  A 1.54 1.53 -29.9 0 0 236.27 378.89
  C 241.63 375.88 245.30 370.82 247.95 365.55
  Q 253.65 354.20 257.61 340.26
  A 0.89 0.88 -81.3 0 1 258.47 339.62
  L 307.70 340.27
  Q 308.35 340.28 308.14 340.90
  Q 305.24 349.70 300.62 358.76
  Q 294.84 370.07 287.36 374.95
  A 1.83 1.82 -24.7 0 0 286.60 376.99
  Q 286.77 377.55 287.20 377.93
  A 2.12 2.12 0.0 0 0 289.77 378.10
  Q 297.25 373.11 302.60 363.46
  Q 308.57 352.70 312.30 340.94
  Q 312.48 340.37 313.07 340.39
  L 346.04 341.37
  Q 348.00 341.42 348.24 339.48
  Q 348.28 339.21 348.19 338.94
  Q 347.70 337.42 346.11 337.38
  L 314.49 336.41
  Q 313.89 336.40 314.07 335.83
  Q 319.46 318.17 323.07 299.85
  Q 323.18 299.29 323.75 299.27
  L 358.50 298.02
  Q 360.20 297.96 360.53 296.30
  Q 360.57 296.05 360.53 295.80
  Q 360.22 293.96 358.35 294.03
  L 324.55 295.25
  Q 324.03 295.26 324.13 294.75
  Q 327.49 276.94 330.03 258.45
  A 0.58 0.57 -86.9 0 1 330.57 257.96
  Q 345.02 257.43 359.50 256.23
  Q 361.91 256.03 364.87 255.38
  Q 366.06 255.11 366.39 253.93
  Q 366.63 253.09 366.03 252.23
  A 1.55 1.55 0.0 0 0 364.57 251.57
  Q 349.03 253.41 331.34 253.92
  Q 330.73 253.93 330.79 253.33
  L 333.50 229.61
  Q 333.67 228.17 332.41 227.43
  Q 332.05 227.22 331.64 227.21
  Q 329.76 227.16 329.54 229.04
  L 326.76 253.54
  Q 326.68 254.24 325.97 254.26
  L 274.86 255.65
  Q 274.49 255.66 274.53 255.29
  L 277.42 232.37
  Q 277.63 230.71 276.12 229.97
  Q 275.87 229.85 275.58 229.85
  Q 273.71 229.89 273.47 231.76
  L 270.51 255.25
  A 0.53 0.52 2.5 0 1 270.00 255.71
  L 219.72 256.58
  A 0.32 0.31 -86.0 0 1 219.41 256.22
  L 222.27 232.40
  Q 222.51 230.43 220.58 229.95
  Q 220.31 229.88 220.03 229.93
  Q 218.51 230.17 218.33 231.70
  L 215.41 256.01
  A 0.69 0.69 0.0 0 1 214.74 256.61
  L 165.80 257.11
  Q 165.25 257.11 165.31 256.56
  L 168.13 231.23
  Q 168.32 229.51 166.59 229.48
  L 165.94 229.47
  A 1.79 1.79 0.0 0 0 164.13 231.06
  L 161.28 256.63
  A 0.63 0.63 0.0 0 1 160.65 257.19
  L 125.56 257.35
  A 1.61 1.60 18.2 0 0 124.27 258.00
  Q 123.54 258.98 123.77 259.77
  Q 124.24 261.35 125.89 261.34
  L 160.13 261.17
  A 0.36 0.36 0.0 0 1 160.49 261.58
  Q 157.97 279.15 154.45 296.21
  A 0.49 0.49 0.0 0 1 153.96 296.60
  L 126.08 296.26
  Q 124.14 296.24 123.82 298.16
  Q 123.67 299.10 124.82 299.93
  A 1.62 1.59 62.9 0 0 125.78 300.25
  L 152.83 300.59
  Q 153.46 300.60 153.33 301.22
  Q 149.41 319.06 143.29 336.09
  A 0.74 0.74 0.0 0 1 142.61 336.58
  L 110.96 337.38
  Q 109.34 337.42 109.22 339.04
  L 109.20 339.37
  Q 109.05 341.44 111.12 341.38
  L 140.89 340.61
  Q 141.47 340.60 141.26 341.14
  C 136.53 353.10 129.15 366.78 117.43 372.20
  A 1.54 1.54 0.0 0 0 116.54 373.48
  Q 116.45 374.50 117.06 375.14
  Q 118.15 376.29 119.58 375.60
  C 132.47 369.44 140.65 354.06 145.61 340.97
  A 0.76 0.75 -80.2 0 1 146.30 340.48
  L 198.54 339.70
  Q 199.21 339.69 199.03 340.34
  Z"
/>
<path fill="#4071ff" d="
  M 177.70 122.18
  Q 177.55 122.65 177.67 122.95
  Q 177.50 122.64 176.75 122.63
  Q 161.03 122.29 149.35 122.70
  Q 149.52 122.49 149.05 122.23
  L 177.70 122.18
  Z"
/>
<path fill="#4071ff" d="
  M 429.03 122.69
  Q 428.77 123.78 428.69 124.76
  Q 425.87 157.31 420.96 191.12
  Q 419.71 199.73 417.52 210.81
  Q 408.79 255.13 402.17 299.99
  Q 395.72 343.66 391.95 372.00
  Q 391.88 372.46 392.11 372.79
  L 386.90 410.01
  Q 374.10 409.84 360.82 409.30
  C 349.89 408.86 339.57 409.17 328.93 408.87
  Q 285.59 407.68 242.75 408.67
  C 211.12 409.40 179.41 409.23 147.26 408.93
  C 133.67 408.79 119.40 408.08 106.19 407.97
  Q 86.11 407.81 65.40 407.86
  A 0.35 0.35 0.0 0 1 65.05 407.51
  L 65.37 391.30
  Q 65.45 390.97 65.56 390.78
  Q 65.68 390.57 66.02 390.57
  Q 121.60 390.83 176.00 391.20
  Q 235.42 391.60 280.99 390.64
  Q 287.91 390.50 297.50 389.64
  Q 317.24 387.87 334.96 382.99
  Q 353.77 377.81 364.66 364.77
  Q 372.34 355.57 377.77 340.78
  Q 385.68 319.19 388.01 294.49
  C 392.44 247.59 399.66 199.10 408.52 147.33
  C 409.83 139.66 410.81 131.85 412.03 124.01
  Q 412.24 122.66 411.48 122.37
  Q 412.01 122.01 412.25 122.01
  Q 419.88 122.00 427.50 122.02
  Q 428.56 122.02 429.03 122.69
  Z"
/>
<path fill="#4071ff" d="
  M 129.65 122.72
  Q 126.79 155.48 122.21 188.10
  Q 120.98 196.87 118.97 207.50
  Q 116.06 222.87 113.47 240.33
  Q 111.00 257.01 106.84 276.70
  Q 101.29 302.98 91.59 327.54
  Q 83.18 348.83 68.08 365.38
  Q 70.37 346.72 73.56 329.00
  Q 78.46 301.85 84.43 274.79
  Q 86.67 264.58 88.30 255.13
  Q 101.92 176.06 109.09 130.30
  Q 109.54 127.38 110.29 124.70
  Q 110.43 124.22 110.92 124.13
  C 114.36 123.58 117.43 123.02 121.04 123.04
  Q 125.62 123.08 129.65 122.72
  Z"
/>
<path fill="#23347c" d="
  M 429.03 122.69
  Q 429.82 123.18 430.14 123.65
  C 436.06 132.62 439.04 145.07 440.19 155.51
  C 445.19 200.70 452.63 246.11 460.52 289.92
  Q 462.12 298.74 464.31 309.48
  Q 471.81 346.16 478.39 388.84
  Q 479.59 396.64 480.20 403.98
  A 2.07 2.06 -8.1 0 1 478.54 406.18
  C 476.35 406.61 472.87 404.20 471.23 402.92
  Q 455.29 390.46 442.92 379.72
  Q 439.45 376.71 435.95 373.06
  Q 435.38 372.47 434.86 373.58
  L 434.66 373.17
  Q 434.43 372.69 433.89 372.69
  L 392.11 372.79
  Q 391.88 372.46 391.95 372.00
  Q 395.72 343.66 402.17 299.99
  Q 408.79 255.13 417.52 210.81
  Q 419.71 199.73 420.96 191.12
  Q 425.87 157.31 428.69 124.76
  Q 428.77 123.78 429.03 122.69
  Z"
/>
<path fill="#3c69c6" d="
  M 327.52 152.23
  C 329.41 156.18 328.60 163.33 327.86 167.75
  A 0.57 0.57 0.0 0 1 327.31 168.22
  Q 264.07 169.58 201.67 170.15
  A 1.04 1.03 82.0 0 1 200.66 169.38
  Q 198.50 161.28 199.75 153.40
  A 1.33 1.33 0.0 0 1 201.00 152.28
  Q 210.55 151.83 219.42 151.81
  Q 269.22 151.69 326.34 151.49
  A 1.29 1.28 -12.8 0 1 327.52 152.23
  Z"
/>
<rect fill="#4071ff" x="-17.81" y="-5.43" transform="translate(362.07,210.94) rotate(-0.2)" width="35.62" height="10.86" rx="1.51"/>
<rect fill="#4071ff" x="-17.40" y="-5.78" transform="translate(253.40,211.56) rotate(-0.3)" width="34.80" height="11.56" rx="1.47"/>
<path fill="#4071ff" d="
  M 323.94 206.02
  A 1.18 1.18 0.0 0 1 325.13 207.20
  L 325.15 214.16
  A 2.34 2.20 -0.2 0 1 322.82 216.37
  L 292.08 216.47
  A 2.34 2.20 -0.2 0 1 289.73 214.28
  L 289.71 207.32
  A 1.18 1.18 0.0 0 1 290.88 206.14
  L 323.94 206.02
  Z"
/>
<path fill="#4071ff" d="
  M 179.93 218.08
  A 0.90 0.89 -0.3 0 1 179.05 217.22
  L 178.68 207.23
  A 0.60 0.59 89.1 0 1 179.27 206.61
  L 214.67 206.53
  A 0.79 0.77 -3.7 0 1 215.45 207.20
  Q 216.12 211.87 215.29 216.81
  A 0.97 0.96 3.0 0 1 214.40 217.60
  Q 198.58 218.54 179.93 218.08
  Z"
/>
<path fill="#4071ff" d="
  M 162.88 217.46
  L 131.09 218.17
  A 1.64 1.64 0.0 0 1 129.41 216.56
  L 129.29 208.88
  A 1.64 1.64 0.0 0 1 130.93 207.21
  L 163.05 207.29
  A 1.64 1.64 0.0 0 1 164.68 208.97
  L 164.48 215.87
  A 1.64 1.64 0.0 0 1 162.88 217.46
  Z"
/>
<path fill="#ffffff" d="
  M 198.54 339.70
  L 146.30 340.48
  A 0.76 0.75 -80.2 0 0 145.61 340.97
  C 140.65 354.06 132.47 369.44 119.58 375.60
  Q 118.15 376.29 117.06 375.14
  Q 116.45 374.50 116.54 373.48
  A 1.54 1.54 0.0 0 1 117.43 372.20
  C 129.15 366.78 136.53 353.10 141.26 341.14
  Q 141.47 340.60 140.89 340.61
  L 111.12 341.38
  Q 109.05 341.44 109.20 339.37
  L 109.22 339.04
  Q 109.34 337.42 110.96 337.38
  L 142.61 336.58
  A 0.74 0.74 0.0 0 0 143.29 336.09
  Q 149.41 319.06 153.33 301.22
  Q 153.46 300.60 152.83 300.59
  L 125.78 300.25
  A 1.62 1.59 62.9 0 1 124.82 299.93
  Q 123.67 299.10 123.82 298.16
  Q 124.14 296.24 126.08 296.26
  L 153.96 296.60
  A 0.49 0.49 0.0 0 0 154.45 296.21
  Q 157.97 279.15 160.49 261.58
  A 0.36 0.36 0.0 0 0 160.13 261.17
  L 125.89 261.34
  Q 124.24 261.35 123.77 259.77
  Q 123.54 258.98 124.27 258.00
  A 1.61 1.60 18.2 0 1 125.56 257.35
  L 160.65 257.19
  A 0.63 0.63 0.0 0 0 161.28 256.63
  L 164.13 231.06
  A 1.79 1.79 0.0 0 1 165.94 229.47
  L 166.59 229.48
  Q 168.32 229.51 168.13 231.23
  L 165.31 256.56
  Q 165.25 257.11 165.80 257.11
  L 214.74 256.61
  A 0.69 0.69 0.0 0 0 215.41 256.01
  L 218.33 231.70
  Q 218.51 230.17 220.03 229.93
  Q 220.31 229.88 220.58 229.95
  Q 222.51 230.43 222.27 232.40
  L 219.41 256.22
  A 0.32 0.31 -86.0 0 0 219.72 256.58
  L 270.00 255.71
  A 0.53 0.52 2.5 0 0 270.51 255.25
  L 273.47 231.76
  Q 273.71 229.89 275.58 229.85
  Q 275.87 229.85 276.12 229.97
  Q 277.63 230.71 277.42 232.37
  L 274.53 255.29
  Q 274.49 255.66 274.86 255.65
  L 325.97 254.26
  Q 326.68 254.24 326.76 253.54
  L 329.54 229.04
  Q 329.76 227.16 331.64 227.21
  Q 332.05 227.22 332.41 227.43
  Q 333.67 228.17 333.50 229.61
  L 330.79 253.33
  Q 330.73 253.93 331.34 253.92
  Q 349.03 253.41 364.57 251.57
  A 1.55 1.55 0.0 0 1 366.03 252.23
  Q 366.63 253.09 366.39 253.93
  Q 366.06 255.11 364.87 255.38
  Q 361.91 256.03 359.50 256.23
  Q 345.02 257.43 330.57 257.96
  A 0.58 0.57 -86.9 0 0 330.03 258.45
  Q 327.49 276.94 324.13 294.75
  Q 324.03 295.26 324.55 295.25
  L 358.35 294.03
  Q 360.22 293.96 360.53 295.80
  Q 360.57 296.05 360.53 296.30
  Q 360.20 297.96 358.50 298.02
  L 323.75 299.27
  Q 323.18 299.29 323.07 299.85
  Q 319.46 318.17 314.07 335.83
  Q 313.89 336.40 314.49 336.41
  L 346.11 337.38
  Q 347.70 337.42 348.19 338.94
  Q 348.28 339.21 348.24 339.48
  Q 348.00 341.42 346.04 341.37
  L 313.07 340.39
  Q 312.48 340.37 312.30 340.94
  Q 308.57 352.70 302.60 363.46
  Q 297.25 373.11 289.77 378.10
  A 2.12 2.12 0.0 0 1 287.20 377.93
  Q 286.77 377.55 286.60 376.99
  A 1.83 1.82 -24.7 0 1 287.36 374.95
  Q 294.84 370.07 300.62 358.76
  Q 305.24 349.70 308.14 340.90
  Q 308.35 340.28 307.70 340.27
  L 258.47 339.62
  A 0.89 0.88 -81.3 0 0 257.61 340.26
  Q 253.65 354.20 247.95 365.55
  C 245.30 370.82 241.63 375.88 236.27 378.89
  A 1.54 1.53 -29.9 0 1 234.21 378.34
  L 233.86 377.76
  A 1.72 1.72 0.0 0 1 234.43 375.41
  Q 239.78 372.11 242.90 366.43
  Q 249.59 354.25 253.52 339.86
  Q 253.59 339.62 253.34 339.62
  L 203.88 339.67
  Q 203.36 339.67 203.22 340.18
  Q 199.21 354.96 193.24 366.60
  Q 189.52 373.88 183.80 378.02
  Q 182.25 379.14 180.85 377.84
  Q 180.30 377.33 180.28 376.40
  A 1.50 1.50 0.0 0 1 180.94 375.12
  Q 185.84 371.78 188.82 366.34
  Q 194.80 355.43 199.03 340.34
  Q 199.21 339.69 198.54 339.70
  Z
  M 319.87 295.38
  A 0.30 0.30 0.0 0 0 320.16 295.12
  L 326.15 258.56
  A 0.30 0.30 0.0 0 0 325.85 258.21
  L 274.26 259.63
  A 0.30 0.30 0.0 0 0 273.97 259.88
  L 268.02 296.07
  A 0.30 0.30 0.0 0 0 268.32 296.42
  L 319.87 295.38
  Z
  M 263.63 296.46
  A 0.32 0.32 0.0 0 0 263.94 296.19
  L 269.91 260.06
  A 0.32 0.32 0.0 0 0 269.59 259.69
  L 219.16 260.55
  A 0.32 0.32 0.0 0 0 218.85 260.82
  L 213.20 296.48
  A 0.32 0.32 0.0 0 0 213.52 296.85
  L 263.63 296.46
  Z
  M 165.06 261.10
  A 0.35 0.35 0.0 0 0 164.72 261.39
  L 158.69 296.29
  A 0.35 0.35 0.0 0 0 159.03 296.70
  L 208.80 296.79
  A 0.35 0.35 0.0 0 0 209.15 296.49
  L 214.79 260.99
  A 0.35 0.35 0.0 0 0 214.45 260.58
  L 165.06 261.10
  Z
  M 309.83 335.88
  C 313.73 323.94 316.69 311.58 319.01 299.83
  Q 319.10 299.40 318.65 299.41
  L 267.45 300.43
  A 0.48 0.47 -85.4 0 0 267.00 300.82
  Q 263.76 317.98 259.09 335.33
  A 0.24 0.24 0.0 0 0 259.32 335.63
  L 309.23 336.31
  A 0.63 0.62 8.9 0 0 309.83 335.88
  Z
  M 255.01 335.07
  Q 259.79 317.47 262.93 300.78
  A 0.25 0.25 0.0 0 0 262.68 300.48
  L 212.66 300.83
  A 0.48 0.47 5.0 0 0 212.19 301.22
  Q 209.31 317.36 204.67 335.18
  Q 204.51 335.79 205.14 335.78
  Q 228.41 335.44 254.11 335.75
  Q 254.83 335.76 255.01 335.07
  Z
  M 208.19 301.06
  Q 208.24 300.80 207.97 300.80
  L 157.84 300.68
  A 0.41 0.39 5.1 0 0 157.44 301.00
  Q 153.68 318.69 147.61 335.89
  Q 147.40 336.46 148.01 336.45
  L 199.96 335.69
  Q 200.41 335.68 200.53 335.25
  Q 204.95 318.61 208.19 301.06
  Z"
/>
<path fill="#9fb7ff" d="
  M 319.87 295.38
  L 268.32 296.42
  A 0.30 0.30 0.0 0 1 268.02 296.07
  L 273.97 259.88
  A 0.30 0.30 0.0 0 1 274.26 259.63
  L 325.85 258.21
  A 0.30 0.30 0.0 0 1 326.15 258.56
  L 320.16 295.12
  A 0.30 0.30 0.0 0 1 319.87 295.38
  Z"
/>
<path fill="#9fb7ff" d="
  M 263.63 296.46
  L 213.52 296.85
  A 0.32 0.32 0.0 0 1 213.20 296.48
  L 218.85 260.82
  A 0.32 0.32 0.0 0 1 219.16 260.55
  L 269.59 259.69
  A 0.32 0.32 0.0 0 1 269.91 260.06
  L 263.94 296.19
  A 0.32 0.32 0.0 0 1 263.63 296.46
  Z"
/>
<path fill="#9fb7ff" d="
  M 165.06 261.10
  L 214.45 260.58
  A 0.35 0.35 0.0 0 1 214.79 260.99
  L 209.15 296.49
  A 0.35 0.35 0.0 0 1 208.80 296.79
  L 159.03 296.70
  A 0.35 0.35 0.0 0 1 158.69 296.29
  L 164.72 261.39
  A 0.35 0.35 0.0 0 1 165.06 261.10
  Z"
/>
<path fill="#9fb7ff" d="
  M 319.01 299.83
  C 316.69 311.58 313.73 323.94 309.83 335.88
  A 0.63 0.62 8.9 0 1 309.23 336.31
  L 259.32 335.63
  A 0.24 0.24 0.0 0 1 259.09 335.33
  Q 263.76 317.98 267.00 300.82
  A 0.48 0.47 -85.4 0 1 267.45 300.43
  L 318.65 299.41
  Q 319.10 299.40 319.01 299.83
  Z"
/>
<path fill="#9fb7ff" d="
  M 255.01 335.07
  Q 254.83 335.76 254.11 335.75
  Q 228.41 335.44 205.14 335.78
  Q 204.51 335.79 204.67 335.18
  Q 209.31 317.36 212.19 301.22
  A 0.48 0.47 5.0 0 1 212.66 300.83
  L 262.68 300.48
  A 0.25 0.25 0.0 0 1 262.93 300.78
  Q 259.79 317.47 255.01 335.07
  Z"
/>
<path fill="#9fb7ff" d="
  M 208.19 301.06
  Q 204.95 318.61 200.53 335.25
  Q 200.41 335.68 199.96 335.69
  L 148.01 336.45
  Q 147.40 336.46 147.61 335.89
  Q 153.68 318.69 157.44 301.00
  A 0.41 0.39 5.1 0 1 157.84 300.68
  L 207.97 300.80
  Q 208.24 300.80 208.19 301.06
  Z"
/>
<path fill="#3c69c6" d="
  M 434.86 373.58
  C 420.97 385.81 406.72 397.88 391.09 407.88
  Q 390.04 408.55 386.90 410.01
  L 392.11 372.79
  L 433.89 372.69
  Q 434.43 372.69 434.66 373.17
  L 434.86 373.58
  Z"
/>
</svg>
