<?xml version="1.0" encoding="UTF-8" standalone="no"?>
<!DOCTYPE svg PUBLIC "-//W3C//DTD SVG 1.1//EN" "http://www.w3.org/Graphics/SVG/1.1/DTD/svg11.dtd">
<svg xmlns="http://www.w3.org/2000/svg" version="1.1" viewBox="0.00 0.00 512.00 512.00">
<g stroke-width="2.00" fill="none" stroke-linecap="butt">
<path stroke="#95b1ff" vector-effect="non-scaling-stroke" d="
  M 221.54 11.97
  Q 220.75 12.04 220.02 12.17
  Q 209.85 13.90 201.78 15.69
  C 169.10 22.93 137.13 37.31 109.93 57.63
  Q 37.72 111.58 15.77 200.49"
/>
<path stroke="#7995e7" vector-effect="non-scaling-stroke" d="
  M 15.77 200.49
  Q 9.55 228.96 9.58 258.03"
/>
<path stroke="#c5d4ff" vector-effect="non-scaling-stroke" d="
  M 9.58 258.03
  Q 10.38 317.40 37.15 369.24"
/>
<path stroke="#7995e7" vector-effect="non-scaling-stroke" d="
  M 37.15 369.24
  Q 59.28 411.29 94.28 441.86"
/>
<path stroke="#95b1ff" vector-effect="non-scaling-stroke" d="
  M 94.28 441.86
  Q 114.70 459.50 138.04 472.23
  C 208.38 510.62 292.46 512.15 364.19 477.45
  Q 379.19 470.19 395.03 459.46"
/>
<path stroke="#7995e7" vector-effect="non-scaling-stroke" d="
  M 395.03 459.46
  Q 437.00 430.57 464.68 387.03"
/>
<path stroke="#75809e" vector-effect="non-scaling-stroke" d="
  M 464.68 387.03
  Q 507.12 318.77 501.69 236.97"
/>
<path stroke="#95b1ff" vector-effect="non-scaling-stroke" d="
  M 501.69 236.97
  Q 501.29 233.85 501.03 231.24
  C 493.15 152.93 449.06 84.46 381.28 43.71"
/>
<path stroke="#7995e7" vector-effect="non-scaling-stroke" d="
  M 381.28 43.71
  Q 307.14 0.85 221.54 11.97"
/>
<path stroke="#2456e7" vector-effect="non-scaling-stroke" d="
  M 381.28 43.71
  C 374.12 57.31 368.99 74.11 370.65 89.55"
/>
<path stroke="#042586" vector-effect="non-scaling-stroke" d="
  M 370.65 89.55
  L 338.96 83.84"
/>
<path stroke="#2456e7" vector-effect="non-scaling-stroke" d="
  M 338.96 83.84
  C 336.54 74.15 329.74 69.18 320.20 67.57
  Q 301.88 64.47 284.64 61.10
  Q 277.73 59.74 273.13 60.62
  Q 264.91 62.19 259.92 69.53"
/>
<path stroke="#042586" vector-effect="non-scaling-stroke" d="
  M 259.92 69.53
  L 221.63 62.60"
/>
<path stroke="#2456e7" vector-effect="non-scaling-stroke" d="
  M 221.63 62.60
  Q 230.73 37.19 221.54 11.97"
/>
<path stroke="#20419e" vector-effect="non-scaling-stroke" d="
  M 501.69 236.97
  L 424.05 236.97"
/>
<path stroke="#2456e7" vector-effect="non-scaling-stroke" d="
  M 424.05 236.97
  Q 424.08 236.69 424.10 236.46
  Q 424.15 235.96 423.88 235.53
  C 413.14 219.16 407.29 199.82 409.36 180.34
  C 409.86 175.57 411.06 170.87 412.18 166.23
  C 415.25 153.59 412.12 145.66 402.42 137.29"
/>
<path stroke="#20419e" vector-effect="non-scaling-stroke" d="
  M 402.42 137.29
  L 409.75 97.09
  A 0.48 0.47 -80.2 0 0 409.37 96.54
  L 370.65 89.55"
/>
<path stroke="#20419e" vector-effect="non-scaling-stroke" d="
  M 221.63 62.60
  L 186.81 56.30
  Q 186.32 56.21 186.23 56.70
  L 173.54 126.93"
/>
<path stroke="#2456e7" vector-effect="non-scaling-stroke" d="
  M 173.54 126.93
  C 164.51 132.36 157.01 135.70 147.17 139.67
  C 136.77 143.88 128.95 150.71 124.49 161.32
  Q 122.02 167.19 119.89 172.61
  C 116.10 182.21 110.62 189.74 102.28 195.45
  C 78.67 211.60 44.78 211.16 18.74 201.81
  Q 16.86 201.13 15.77 200.49"
/>
<path stroke="#20419e" vector-effect="non-scaling-stroke" d="
  M 259.92 69.53
  L 257.60 74.36
  A 0.47 0.47 0.0 0 0 257.94 75.02
  L 338.88 89.64
  Q 339.42 89.74 339.38 89.18
  L 338.96 83.84"
/>
<path stroke="#042586" vector-effect="non-scaling-stroke" d="
  M 402.42 137.29
  L 381.40 253.34"
/>
<path stroke="#75809e" vector-effect="non-scaling-stroke" d="
  M 381.40 253.34
  L 363.65 253.96
  A 0.27 0.27 0.0 0 1 363.37 253.65
  L 389.84 107.49
  A 0.55 0.55 0.0 0 0 389.40 106.86
  L 346.61 99.13"
/>
<path stroke="#20419e" vector-effect="non-scaling-stroke" d="
  M 346.61 99.13
  L 345.67 93.09
  A 0.33 0.32 1.2 0 0 345.40 92.81
  L 250.69 75.65
  Q 249.99 75.52 249.55 76.09
  L 245.86 80.87"
/>
<path stroke="#75809e" vector-effect="non-scaling-stroke" d="
  M 245.86 80.87
  L 202.80 73.06
  Q 202.35 72.98 202.27 73.43
  L 172.64 236.92"
/>
<path stroke="#50649e" vector-effect="non-scaling-stroke" d="
  M 172.64 236.92
  Q 172.45 237.05 172.01 236.95
  Q 163.09 234.81 154.59 231.63"
/>
<path stroke="#042586" vector-effect="non-scaling-stroke" d="
  M 154.59 231.63
  L 173.54 126.93"
/>
<path stroke="#042586" vector-effect="non-scaling-stroke" d="
  M 424.05 236.97
  L 418.84 237.07
  Q 418.33 237.08 418.32 237.59
  L 418.21 252.07"
/>
<path stroke="#042586" vector-effect="non-scaling-stroke" d="
  M 464.68 387.03
  L 418.80 386.68
  Q 418.30 386.68 418.29 386.18
  L 418.20 378.21"
/>
<path stroke="#5379e7" vector-effect="non-scaling-stroke" d="
  M 154.59 231.63
  C 145.45 229.58 136.01 231.77 126.72 234.93
  C 113.72 239.35 100.50 244.51 87.25 246.97
  C 62.12 251.64 35.47 254.50 9.58 258.03"
/>
<path stroke="#95b1ff" vector-effect="non-scaling-stroke" d="
  M 245.86 80.87
  L 238.34 90.71
  A 0.24 0.24 0.0 0 0 238.49 91.09
  L 347.63 110.87
  Q 348.17 110.97 348.09 110.42
  L 346.61 99.13"
/>
<path stroke="#7995e7" vector-effect="non-scaling-stroke" d="
  M 381.40 253.34
  L 418.21 252.07"
/>
<path stroke="#75809e" vector-effect="non-scaling-stroke" d="
  M 418.21 252.07
  L 418.20 378.21"
/>
<path stroke="#7995e7" vector-effect="non-scaling-stroke" d="
  M 418.20 378.21
  L 360.00 371.47"
/>
<path stroke="#75809e" vector-effect="non-scaling-stroke" d="
  M 360.00 371.47
  L 352.06 370.51
  Q 351.57 370.45 351.58 369.95
  L 351.91 358.63"
/>
<path stroke="#9ba8cd" vector-effect="non-scaling-stroke" d="
  M 351.91 358.63
  Q 354.81 313.16 353.14 267.87
  Q 353.13 267.37 352.63 267.40
  Q 310.35 269.21 266.61 268.46"
/>
<path stroke="#c5d4ff" vector-effect="non-scaling-stroke" d="
  M 266.61 268.46
  Q 274.25 260.69 273.64 252.80"
/>
<path stroke="#75809e" vector-effect="non-scaling-stroke" d="
  M 273.64 252.80
  L 348.76 266.42
  Q 349.31 266.52 349.46 265.99
  L 349.57 265.61
  Q 349.86 264.61 348.84 264.43
  L 273.20 250.73"
/>
<path stroke="#c5d4ff" vector-effect="non-scaling-stroke" d="
  M 273.20 250.73
  L 270.64 247.95
  Q 270.29 247.57 269.79 247.55
  L 249.71 246.53"
/>
<path stroke="#75809e" vector-effect="non-scaling-stroke" d="
  M 249.71 246.53
  L 189.33 235.58
  A 0.91 0.91 0.0 0 0 188.51 235.84
  Q 188.01 236.36 188.45 237.11
  A 0.96 0.95 79.9 0 0 189.09 237.56
  L 226.25 244.49"
/>
<path stroke="#c5d4ff" vector-effect="non-scaling-stroke" d="
  M 226.25 244.49
  Q 199.61 243.18 173.80 237.50
  Q 173.51 237.43 173.21 237.25
  Q 172.96 237.10 172.64 236.92"
/>
<path stroke="#50649e" vector-effect="non-scaling-stroke" d="
  M 226.25 244.49
  L 249.71 246.53"
/>
<path stroke="#50649e" vector-effect="non-scaling-stroke" d="
  M 273.20 250.73
  Q 272.69 251.21 273.64 252.80"
/>
<path stroke="#768ccd" vector-effect="non-scaling-stroke" d="
  M 266.61 268.46
  Q 257.87 268.08 247.75 266.78
  C 226.80 264.08 207.89 261.06 188.01 257.83
  Q 185.43 257.41 182.59 258.03
  C 165.67 261.73 152.19 263.90 137.74 264.43
  Q 135.77 264.50 133.71 265.84
  Q 125.06 271.46 116.44 277.21"
/>
<path stroke="#50649e" vector-effect="non-scaling-stroke" d="
  M 116.44 277.21
  L 113.51 279.14"
/>
<path stroke="#768ccd" vector-effect="non-scaling-stroke" d="
  M 113.51 279.14
  L 88.36 295.59"
/>
<path stroke="#50649e" vector-effect="non-scaling-stroke" d="
  M 88.36 295.59
  L 86.61 295.45
  A 1.35 1.35 0.0 0 0 85.34 297.48
  C 92.38 309.39 105.39 320.41 120.12 313.52
  Q 135.92 306.13 150.79 296.36
  Q 151.99 295.57 153.49 295.47
  Q 166.86 294.61 177.70 296.63
  C 180.95 297.24 184.41 298.45 187.05 300.46
  C 203.24 312.75 220.64 324.54 239.21 331.68
  Q 244.96 333.88 250.18 336.76
  Q 278.81 352.55 301.20 366.94
  Q 304.23 368.89 307.57 371.33
  C 314.00 376.02 319.23 381.33 315.72 390.11
  Q 314.11 394.16 311.07 397.54
  Q 310.62 398.04 310.41 397.39
  C 305.98 383.40 291.34 374.03 278.62 385.89
  A 0.75 0.74 33.8 0 1 277.84 386.04
  Q 266.87 381.93 257.75 377.68
  Q 226.98 363.36 196.24 347.96
  Q 194.98 347.32 194.22 348.51
  Q 194.12 348.66 194.09 348.84
  Q 193.88 349.90 194.84 350.38
  Q 222.80 364.43 254.25 379.15
  Q 261.78 382.68 269.35 385.79
  Q 269.94 386.04 269.59 386.57
  C 263.14 396.23 251.79 402.96 239.93 400.93
  Q 233.51 399.82 227.60 397.83
  C 208.94 391.53 189.90 382.54 171.69 373.25
  Q 170.62 372.70 169.94 373.69
  Q 169.73 373.98 169.66 374.33
  A 1.10 1.09 20.2 0 0 170.22 375.52
  Q 196.73 389.75 225.49 400.18
  Q 225.91 400.33 225.55 400.60
  Q 216.16 407.83 205.12 411.02
  Q 198.74 412.86 190.18 410.49
  C 175.34 406.39 160.32 399.65 146.87 392.75
  A 1.18 1.17 -43.0 0 0 145.85 392.72
  Q 144.75 393.20 144.87 394.29
  A 1.06 1.04 -79.4 0 0 145.42 395.11
  Q 162.53 404.08 181.06 410.64"
/>
<path stroke="#5379e7" vector-effect="non-scaling-stroke" d="
  M 181.06 410.64
  Q 163.29 414.65 145.30 414.57
  Q 141.92 414.56 138.22 414.06
  Q 133.08 413.36 131.26 412.42
  Q 120.53 406.87 110.90 402.35
  Q 76.54 386.24 37.15 369.24"
/>
<path stroke="#2456e7" vector-effect="non-scaling-stroke" d="
  M 395.03 459.46
  Q 393.24 431.26 373.78 411.21
  Q 360.83 397.87 343.26 389.43"
/>
<path stroke="#26386c" vector-effect="non-scaling-stroke" d="
  M 351.91 358.63
  L 344.46 358.07"
/>
<path stroke="#9ba8cd" vector-effect="non-scaling-stroke" d="
  M 344.46 358.07
  L 329.30 356.81
  Q 328.80 356.77 328.37 357.03
  L 312.02 366.57"
/>
<path stroke="#26386c" vector-effect="non-scaling-stroke" d="
  M 312.02 366.57
  L 309.02 368.23
  Q 308.57 368.48 308.14 368.20
  Q 283.56 351.78 255.98 336.90
  Q 254.61 336.17 256.13 336.47
  Q 264.13 338.05 272.42 336.82
  Q 273.45 336.67 273.36 335.62
  L 273.32 335.14
  Q 273.22 334.04 272.12 334.16
  Q 260.07 335.45 248.33 331.88
  C 227.20 325.44 207.96 312.77 190.12 299.21
  C 187.28 297.06 184.11 295.29 180.61 294.45
  Q 168.98 291.65 152.80 292.70
  Q 151.11 292.82 149.68 293.75
  Q 135.06 303.27 119.14 310.88
  C 107.12 316.62 96.53 309.01 89.80 299.30
  A 0.25 0.25 0.0 0 1 90.04 298.91
  C 98.20 300.19 106.39 299.18 111.94 292.42
  Q 116.91 286.36 116.44 277.21"
/>
<path stroke="#75809e" vector-effect="non-scaling-stroke" d="
  M 312.02 366.57
  L 341.43 371.84
  Q 341.93 371.93 342.02 371.43
  L 344.46 358.07"
/>
<path stroke="#042586" vector-effect="non-scaling-stroke" d="
  M 360.00 371.47
  L 356.41 391.27
  A 0.39 0.38 9.5 0 1 355.96 391.59
  L 343.26 389.43"
/>
<path stroke="#20419e" vector-effect="non-scaling-stroke" d="
  M 343.26 389.43
  L 320.29 385.17
  Q 319.76 385.07 319.69 385.61
  Q 318.54 394.17 311.88 400.84
  C 310.95 401.78 310.09 403.13 308.53 402.40
  Q 291.48 394.31 273.09 387.16
  A 0.63 0.62 26.3 0 0 272.34 387.41
  Q 264.70 399.83 250.29 403.44
  C 243.57 405.12 236.19 403.36 229.71 401.37
  Q 229.22 401.22 228.83 401.55
  C 221.04 408.12 207.89 415.41 197.02 414.54"
/>
<path stroke="#042586" vector-effect="non-scaling-stroke" d="
  M 197.02 414.54
  Q 189.01 413.48 181.06 410.64"
/>
<path stroke="#26386c" vector-effect="non-scaling-stroke" d="
  M 88.36 295.59
  C 95.73 297.60 104.86 297.05 109.91 290.41
  Q 113.66 285.47 113.51 279.14"
/>
<path stroke="#2456e7" vector-effect="non-scaling-stroke" d="
  M 197.02 414.54
  Q 191.37 418.62 185.07 422.10
  Q 174.79 427.77 163.54 426.66
  C 157.43 426.06 151.10 423.72 144.99 422.12
  Q 134.63 419.40 123.99 422.03
  Q 106.53 426.34 94.28 441.86"
/>
<path stroke="#042586" vector-effect="non-scaling-stroke" d="
  M 308.51 38.39
  A 12.32 12.32 0.0 0 0 296.19 26.07
  A 12.32 12.32 0.0 0 0 283.87 38.39
  A 12.32 12.32 0.0 0 0 296.19 50.71
  A 12.32 12.32 0.0 0 0 308.51 38.39"
/>
<path stroke="#20419e" vector-effect="non-scaling-stroke" d="
  M 112.48 160.39
  A 18.64 18.64 0.0 0 0 93.84 141.75
  A 18.64 18.64 0.0 0 0 75.20 160.39
  A 18.64 18.64 0.0 0 0 93.84 179.03
  A 18.64 18.64 0.0 0 0 112.48 160.39"
/>
<path stroke="#042586" vector-effect="non-scaling-stroke" d="
  M 306.64 38.39
  A 10.44 10.44 0.0 0 0 296.20 27.95
  A 10.44 10.44 0.0 0 0 285.76 38.39
  A 10.44 10.44 0.0 0 0 296.20 48.83
  A 10.44 10.44 0.0 0 0 306.64 38.39"
/>
<path stroke="#20419e" vector-effect="non-scaling-stroke" d="
  M 464.10 186.93
  A 17.90 17.90 0.0 0 0 446.20 169.03
  A 17.90 17.90 0.0 0 0 428.30 186.93
  A 17.90 17.90 0.0 0 0 446.20 204.83
  A 17.90 17.90 0.0 0 0 464.10 186.93"
/>
<path stroke="#20419e" vector-effect="non-scaling-stroke" d="
  M 307.51 73.31
  A 6.11 6.11 0.0 0 0 301.40 67.20
  A 6.11 6.11 0.0 0 0 295.29 73.31
  A 6.11 6.11 0.0 0 0 301.40 79.42
  A 6.11 6.11 0.0 0 0 307.51 73.31"
/>
<path stroke="#20419e" vector-effect="non-scaling-stroke" d="
  M 305.56 73.31
  A 4.17 4.17 0.0 0 0 301.39 69.14
  A 4.17 4.17 0.0 0 0 297.22 73.31
  A 4.17 4.17 0.0 0 0 301.39 77.48
  A 4.17 4.17 0.0 0 0 305.56 73.31"
/>
<path stroke="#75809e" vector-effect="non-scaling-stroke" d="
  M 240.61 132.02
  A 0.42 0.42 0.0 0 1 240.27 131.53
  L 243.26 115.13
  A 0.42 0.42 0.0 0 0 242.91 114.63
  L 241.57 114.43
  A 0.42 0.42 0.0 0 0 241.10 114.77
  L 237.77 133.10
  A 0.42 0.42 0.0 0 0 238.11 133.59
  L 244.94 134.80
  A 0.42 0.42 0.0 0 0 245.43 134.44
  L 245.56 133.30
  A 0.42 0.42 0.0 0 0 245.22 132.84
  L 240.61 132.02"
/>
<path stroke="#75809e" vector-effect="non-scaling-stroke" d="
  M 256.98 133.31
  L 256.91 136.40
  A 0.77 0.76 4.1 0 0 257.59 137.18
  L 258.48 137.27
  Q 259.04 137.33 259.03 136.77
  L 258.98 118.24
  Q 258.98 117.48 258.23 117.37
  L 256.74 117.15
  Q 256.07 117.05 255.83 117.68
  L 249.28 134.92
  Q 249.06 135.49 249.61 135.77
  Q 249.85 135.88 250.10 135.91
  A 1.20 1.19 12.6 0 0 251.37 135.11
  L 252.26 132.52
  Q 252.44 131.99 252.98 132.08
  L 256.43 132.65
  A 0.66 0.65 -85.0 0 1 256.98 133.31"
/>
<path stroke="#75809e" vector-effect="non-scaling-stroke" d="
  M 266.92 134.41
  L 267.81 119.47
  Q 267.83 119.11 267.47 119.06
  L 266.21 118.88
  A 0.44 0.43 -84.5 0 0 265.72 119.29
  L 264.67 137.77
  Q 264.63 138.42 265.27 138.52
  L 266.95 138.78
  Q 267.55 138.87 267.74 138.29
  L 271.53 126.22
  Q 272.01 124.70 271.96 126.30
  Q 271.79 132.41 271.40 138.94
  Q 271.36 139.56 271.97 139.71
  L 273.31 140.02
  Q 274.08 140.20 274.32 139.44
  L 279.75 121.98
  A 0.69 0.69 0.0 0 0 279.22 121.09
  L 278.95 121.04
  Q 278.03 120.88 277.77 121.78
  Q 275.73 128.84 273.77 134.81
  Q 273.17 136.64 273.29 134.72
  L 274.12 120.99
  Q 274.16 120.39 273.60 120.18
  Q 272.78 119.88 272.02 120.03
  Q 271.63 120.11 271.51 120.49
  L 267.22 134.47
  Q 266.85 135.67 266.92 134.41"
/>
<path stroke="#75809e" vector-effect="non-scaling-stroke" d="
  M 291.91 134.70
  A 0.43 0.43 0.0 0 1 292.42 134.35
  L 295.97 135.04
  A 0.43 0.43 0.0 0 0 296.47 134.73
  L 296.76 133.62
  A 0.43 0.43 0.0 0 0 296.42 133.09
  L 292.77 132.44
  A 0.43 0.43 0.0 0 1 292.43 131.94
  L 293.46 126.27
  A 0.43 0.43 0.0 0 1 293.96 125.92
  L 298.61 126.74
  A 0.43 0.43 0.0 0 0 299.10 126.40
  L 299.30 125.28
  A 0.43 0.43 0.0 0 0 298.95 124.78
  L 292.17 123.58
  A 0.43 0.43 0.0 0 0 291.67 123.92
  L 288.35 142.35
  A 0.43 0.43 0.0 0 0 288.73 142.86
  L 290.05 142.99
  A 0.43 0.43 0.0 0 0 290.52 142.64
  L 291.91 134.70"
/>
<path stroke="#75809e" vector-effect="non-scaling-stroke" d="
  M 305.9235 126.5246
  A 0.47 0.47 0.0 0 0 305.5451 125.9781
  L 304.3251 125.7564
  A 0.47 0.47 0.0 0 0 303.7786 126.1348
  L 300.4565 144.4154
  A 0.47 0.47 0.0 0 0 300.8349 144.9619
  L 302.0549 145.1836
  A 0.47 0.47 0.0 0 0 302.6014 144.8052
  L 305.9235 126.5246"
/>
<path stroke="#75809e" vector-effect="non-scaling-stroke" d="
  M 314.09 138.51
  A 1.85 1.85 0.0 0 1 315.45 140.60
  L 314.46 146.71
  A 0.69 0.68 12.3 0 0 314.97 147.49
  L 316.03 147.75
  A 0.53 0.52 -80.7 0 0 316.68 147.28
  C 316.90 144.48 318.58 140.10 316.45 137.87
  Q 316.15 137.55 316.56 137.38
  Q 318.57 136.55 319.06 133.32
  C 319.92 127.58 315.81 127.91 312.07 127.16
  Q 311.34 127.01 311.21 127.75
  L 307.99 145.54
  A 0.75 0.74 8.8 0 0 308.63 146.41
  L 309.43 146.52
  A 0.62 0.61 8.7 0 0 310.12 146.02
  L 311.38 139.01
  Q 311.58 137.86 312.71 138.15
  L 314.09 138.51"
/>
<path stroke="#75809e" vector-effect="non-scaling-stroke" d="
  M 326.40 134.85
  Q 326.55 142.08 326.47 148.99
  Q 326.46 149.54 327.00 149.71
  Q 327.50 149.87 328.03 149.79
  A 0.70 0.68 5.6 0 0 328.58 149.35
  Q 331.14 142.63 333.65 136.00
  Q 333.70 135.89 333.82 135.92
  L 333.82 135.92
  Q 333.94 135.96 333.92 136.08
  Q 332.77 143.00 331.48 149.76
  A 0.80 0.80 0.0 0 0 332.19 150.70
  L 332.81 150.75
  Q 333.44 150.81 333.56 150.19
  L 336.79 132.28
  Q 336.91 131.65 336.27 131.54
  L 334.33 131.23
  Q 333.76 131.14 333.56 131.68
  L 328.67 144.65
  Q 328.19 145.94 328.19 144.56
  L 328.21 130.79
  A 0.83 0.82 5.5 0 0 327.54 129.98
  L 325.80 129.65
  A 0.74 0.74 0.0 0 0 324.93 130.24
  L 321.68 148.18
  A 0.57 0.57 0.0 0 0 322.16 148.85
  L 322.93 148.95
  Q 323.61 149.04 323.71 148.37
  Q 324.70 141.43 326.13 134.82
  Q 326.38 133.69 326.40 134.85"
/>
<path stroke="#75809e" vector-effect="non-scaling-stroke" d="
  M 346.6388 165.9910
  A 0.78 0.78 0.0 0 0 346.0108 165.0841
  L 218.6961 141.9471
  A 0.78 0.78 0.0 0 0 217.7892 142.5751
  L 217.7212 142.9490
  A 0.78 0.78 0.0 0 0 218.3492 143.8559
  L 345.6639 166.9929
  A 0.78 0.78 0.0 0 0 346.5708 166.3649
  L 346.6388 165.9910"
/>
<path stroke="#75809e" vector-effect="non-scaling-stroke" d="
  M 363.2986 189.9682
  A 0.75 0.75 0.0 0 0 362.6947 189.0962
  L 202.8921 160.0551
  A 0.75 0.75 0.0 0 0 202.0201 160.6589
  L 201.9414 161.0918
  A 0.75 0.75 0.0 0 0 202.5453 161.9638
  L 362.3479 191.0049
  A 0.75 0.75 0.0 0 0 363.2199 190.4011
  L 363.2986 189.9682"
/>
<path stroke="#75809e" vector-effect="non-scaling-stroke" d="
  M 359.8562 208.7835
  A 0.71 0.71 0.0 0 0 359.2846 207.9579
  L 199.4623 178.9133
  A 0.71 0.71 0.0 0 0 198.6368 179.4849
  L 198.5438 179.9965
  A 0.71 0.71 0.0 0 0 199.1154 180.8221
  L 358.9377 209.8667
  A 0.71 0.71 0.0 0 0 359.7632 209.2951
  L 359.8562 208.7835"
/>
<path stroke="#75809e" vector-effect="non-scaling-stroke" d="
  M 356.4414 227.8193
  A 0.90 0.90 0.0 0 0 355.7168 226.7729
  L 196.1700 197.7783
  A 0.90 0.90 0.0 0 0 195.1236 198.5029
  L 195.0986 198.6407
  A 0.90 0.90 0.0 0 0 195.8232 199.6871
  L 355.3700 228.6817
  A 0.90 0.90 0.0 0 0 356.4164 227.9571
  L 356.4414 227.8193"
/>
<path stroke="#75809e" vector-effect="non-scaling-stroke" d="
  M 353.0250 246.6597
  A 0.88 0.88 0.0 0 0 352.3165 245.6365
  L 192.7304 216.6348
  A 0.88 0.88 0.0 0 0 191.7072 217.3432
  L 191.6750 217.5203
  A 0.88 0.88 0.0 0 0 192.3835 218.5435
  L 351.9696 247.5452
  A 0.88 0.88 0.0 0 0 352.9928 246.8368
  L 353.0250 246.6597"
/>
<path stroke="#75809e" vector-effect="non-scaling-stroke" d="
  M 403.36 360.66
  A 12.35 6.41 0.0 0 0 391.01 354.25
  A 12.35 6.41 0.0 0 0 378.66 360.66
  A 12.35 6.41 0.0 0 0 391.01 367.07
  A 12.35 6.41 0.0 0 0 403.36 360.66"
/>
<path stroke="#75809e" vector-effect="non-scaling-stroke" d="
  M 256.38 121.31
  L 253.27 129.94
  Q 253.18 130.18 253.44 130.23
  L 256.73 130.81
  Q 256.95 130.85 256.96 130.62
  Q 257.06 125.98 256.92 121.39
  Q 256.88 119.92 256.38 121.31"
/>
<path stroke="#75809e" vector-effect="non-scaling-stroke" d="
  M 313.08 129.74
  L 311.98 135.60
  A 0.40 0.40 0.0 0 0 312.30 136.07
  L 313.87 136.36
  A 2.38 2.32 -79.4 0 0 316.59 134.45
  L 316.96 132.48
  A 2.38 2.32 -79.4 0 0 315.11 129.72
  L 313.54 129.42
  A 0.40 0.40 0.0 0 0 313.08 129.74"
/>
<path stroke="#20419e" vector-effect="non-scaling-stroke" d="
  M 110.55 160.39
  A 16.71 16.71 0.0 0 0 93.84 143.68
  A 16.71 16.71 0.0 0 0 77.13 160.39
  A 16.71 16.71 0.0 0 0 93.84 177.10
  A 16.71 16.71 0.0 0 0 110.55 160.39"
/>
<path stroke="#20419e" vector-effect="non-scaling-stroke" d="
  M 462.16 186.93
  A 15.96 15.96 0.0 0 0 446.20 170.97
  A 15.96 15.96 0.0 0 0 430.24 186.93
  A 15.96 15.96 0.0 0 0 446.20 202.89
  A 15.96 15.96 0.0 0 0 462.16 186.93"
/>
<path stroke="#50649e" vector-effect="non-scaling-stroke" d="
  M 300.61 387.15
  C 295.03 382.18 287.17 381.87 281.56 387.05
  Q 281.23 387.35 281.64 387.51
  Q 294.23 392.64 307.36 398.74
  Q 307.98 399.03 307.77 398.38
  Q 305.62 391.62 300.61 387.15"
/>
<path stroke="#20419e" vector-effect="non-scaling-stroke" d="
  M 366.03 429.46
  A 14.92 14.92 0.0 0 0 351.11 414.54
  A 14.92 14.92 0.0 0 0 336.19 429.46
  A 14.92 14.92 0.0 0 0 351.11 444.38
  A 14.92 14.92 0.0 0 0 366.03 429.46"
/>
<path stroke="#20419e" vector-effect="non-scaling-stroke" d="
  M 235.58 454.52
  A 22.32 22.32 0.0 0 0 213.26 432.20
  A 22.32 22.32 0.0 0 0 190.94 454.52
  A 22.32 22.32 0.0 0 0 213.26 476.84
  A 22.32 22.32 0.0 0 0 235.58 454.52"
/>
<path stroke="#20419e" vector-effect="non-scaling-stroke" d="
  M 364.11 429.45
  A 13.00 13.00 0.0 0 0 351.11 416.45
  A 13.00 13.00 0.0 0 0 338.11 429.45
  A 13.00 13.00 0.0 0 0 351.11 442.45
  A 13.00 13.00 0.0 0 0 364.11 429.45"
/>
<path stroke="#20419e" vector-effect="non-scaling-stroke" d="
  M 233.65 454.52
  A 20.39 20.39 0.0 0 0 213.26 434.13
  A 20.39 20.39 0.0 0 0 192.87 454.52
  A 20.39 20.39 0.0 0 0 213.26 474.91
  A 20.39 20.39 0.0 0 0 233.65 454.52"
/>
</g>
<path fill="#eaf0ff" d="
  M 249.64 0.00
  L 262.73 0.00
  Q 325.02 2.03 377.43 30.57
  Q 423.28 55.53 454.91 94.85
  Q 508.97 162.05 512.00 249.87
  L 512.00 264.00
  Q 511.12 277.73 510.62 282.37
  C 502.85 355.39 464.46 422.14 404.21 464.70
  Q 340.79 509.49 261.87 512.00
  L 250.52 512.00
  Q 194.37 510.42 145.56 486.90
  C 62.23 446.76 6.03 364.81 0.63 271.99
  Q 0.38 267.68 0.00 263.37
  L 0.00 248.02
  Q 4.29 151.04 68.82 81.32
  Q 101.04 46.51 145.82 24.82
  Q 193.62 1.68 249.64 0.00
  Z
  M 221.54 11.97
  Q 220.75 12.04 220.02 12.17
  Q 209.85 13.90 201.78 15.69
  C 169.10 22.93 137.13 37.31 109.93 57.63
  Q 37.72 111.58 15.77 200.49
  Q 9.55 228.96 9.58 258.03
  Q 10.38 317.40 37.15 369.24
  Q 59.28 411.29 94.28 441.86
  Q 114.70 459.50 138.04 472.23
  C 208.38 510.62 292.46 512.15 364.19 477.45
  Q 379.19 470.19 395.03 459.46
  Q 437.00 430.57 464.68 387.03
  Q 507.12 318.77 501.69 236.97
  Q 501.29 233.85 501.03 231.24
  C 493.15 152.93 449.06 84.46 381.28 43.71
  Q 307.14 0.85 221.54 11.97
  Z"
/>
<path fill="#073ace" d="
  M 381.28 43.71
  C 374.12 57.31 368.99 74.11 370.65 89.55
  L 338.96 83.84
  C 336.54 74.15 329.74 69.18 320.20 67.57
  Q 301.88 64.47 284.64 61.10
  Q 277.73 59.74 273.13 60.62
  Q 264.91 62.19 259.92 69.53
  L 221.63 62.60
  Q 230.73 37.19 221.54 11.97
  Q 307.14 0.85 381.28 43.71
  Z
  M 308.51 38.39
  A 12.32 12.32 0.0 0 0 296.19 26.07
  A 12.32 12.32 0.0 0 0 283.87 38.39
  A 12.32 12.32 0.0 0 0 296.19 50.71
  A 12.32 12.32 0.0 0 0 308.51 38.39
  Z"
/>
<path fill="#4071ff" d="
  M 221.54 11.97
  Q 230.73 37.19 221.63 62.60
  L 186.81 56.30
  Q 186.32 56.21 186.23 56.70
  L 173.54 126.93
  C 164.51 132.36 157.01 135.70 147.17 139.67
  C 136.77 143.88 128.95 150.71 124.49 161.32
  Q 122.02 167.19 119.89 172.61
  C 116.10 182.21 110.62 189.74 102.28 195.45
  C 78.67 211.60 44.78 211.16 18.74 201.81
  Q 16.86 201.13 15.77 200.49
  Q 37.72 111.58 109.93 57.63
  C 137.13 37.31 169.10 22.93 201.78 15.69
  Q 209.85 13.90 220.02 12.17
  Q 220.75 12.04 221.54 11.97
  Z
  M 112.48 160.39
  A 18.64 18.64 0.0 0 0 93.84 141.75
  A 18.64 18.64 0.0 0 0 75.20 160.39
  A 18.64 18.64 0.0 0 0 93.84 179.03
  A 18.64 18.64 0.0 0 0 112.48 160.39
  Z"
/>
<path fill="#00103d" d="
  M 308.51 38.39
  A 12.32 12.32 0.0 0 1 296.19 50.71
  A 12.32 12.32 0.0 0 1 283.87 38.39
  A 12.32 12.32 0.0 0 1 296.19 26.07
  A 12.32 12.32 0.0 0 1 308.51 38.39
  Z
  M 306.64 38.39
  A 10.44 10.44 0.0 0 0 296.20 27.95
  A 10.44 10.44 0.0 0 0 285.76 38.39
  A 10.44 10.44 0.0 0 0 296.20 48.83
  A 10.44 10.44 0.0 0 0 306.64 38.39
  Z"
/>
<circle fill="#073ace" cx="296.20" cy="38.39" r="10.44"/>
<path fill="#4071ff" d="
  M 381.28 43.71
  C 449.06 84.46 493.15 152.93 501.03 231.24
  Q 501.29 233.85 501.69 236.97
  L 424.05 236.97
  Q 424.08 236.69 424.10 236.46
  Q 424.15 235.96 423.88 235.53
  C 413.14 219.16 407.29 199.82 409.36 180.34
  C 409.86 175.57 411.06 170.87 412.18 166.23
  C 415.25 153.59 412.12 145.66 402.42 137.29
  L 409.75 97.09
  A 0.48 0.47 -80.2 0 0 409.37 96.54
  L 370.65 89.55
  C 368.99 74.11 374.12 57.31 381.28 43.71
  Z
  M 464.10 186.93
  A 17.90 17.90 0.0 0 0 446.20 169.03
  A 17.90 17.90 0.0 0 0 428.30 186.93
  A 17.90 17.90 0.0 0 0 446.20 204.83
  A 17.90 17.90 0.0 0 0 464.10 186.93
  Z"
/>
<path fill="#00103d" d="
  M 221.63 62.60
  L 259.92 69.53
  L 257.60 74.36
  A 0.47 0.47 0.0 0 0 257.94 75.02
  L 338.88 89.64
  Q 339.42 89.74 339.38 89.18
  L 338.96 83.84
  L 370.65 89.55
  L 409.37 96.54
  A 0.48 0.47 -80.2 0 1 409.75 97.09
  L 402.42 137.29
  L 381.40 253.34
  L 363.65 253.96
  A 0.27 0.27 0.0 0 1 363.37 253.65
  L 389.84 107.49
  A 0.55 0.55 0.0 0 0 389.40 106.86
  L 346.61 99.13
  L 345.67 93.09
  A 0.33 0.32 1.2 0 0 345.40 92.81
  L 250.69 75.65
  Q 249.99 75.52 249.55 76.09
  L 245.86 80.87
  L 202.80 73.06
  Q 202.35 72.98 202.27 73.43
  L 172.64 236.92
  Q 172.45 237.05 172.01 236.95
  Q 163.09 234.81 154.59 231.63
  L 173.54 126.93
  L 186.23 56.70
  Q 186.32 56.21 186.81 56.30
  L 221.63 62.60
  Z"
/>
<path fill="#4071ff" d="
  M 338.96 83.84
  L 339.38 89.18
  Q 339.42 89.74 338.88 89.64
  L 257.94 75.02
  A 0.47 0.47 0.0 0 1 257.60 74.36
  L 259.92 69.53
  Q 264.91 62.19 273.13 60.62
  Q 277.73 59.74 284.64 61.10
  Q 301.88 64.47 320.20 67.57
  C 329.74 69.18 336.54 74.15 338.96 83.84
  Z
  M 307.51 73.31
  A 6.11 6.11 0.0 0 0 301.40 67.20
  A 6.11 6.11 0.0 0 0 295.29 73.31
  A 6.11 6.11 0.0 0 0 301.40 79.42
  A 6.11 6.11 0.0 0 0 307.51 73.31
  Z"
/>
<path fill="#00103d" d="
  M 307.51 73.31
  A 6.11 6.11 0.0 0 1 301.40 79.42
  A 6.11 6.11 0.0 0 1 295.29 73.31
  A 6.11 6.11 0.0 0 1 301.40 67.20
  A 6.11 6.11 0.0 0 1 307.51 73.31
  Z
  M 305.56 73.31
  A 4.17 4.17 0.0 0 0 301.39 69.14
  A 4.17 4.17 0.0 0 0 297.22 73.31
  A 4.17 4.17 0.0 0 0 301.39 77.48
  A 4.17 4.17 0.0 0 0 305.56 73.31
  Z"
/>
<circle fill="#4071ff" cx="301.39" cy="73.31" r="4.17"/>
<path fill="#eaf0ff" d="
  M 245.86 80.87
  L 238.34 90.71
  A 0.24 0.24 0.0 0 0 238.49 91.09
  L 347.63 110.87
  Q 348.17 110.97 348.09 110.42
  L 346.61 99.13
  L 389.40 106.86
  A 0.55 0.55 0.0 0 1 389.84 107.49
  L 363.37 253.65
  A 0.27 0.27 0.0 0 0 363.65 253.96
  L 381.40 253.34
  L 418.21 252.07
  L 418.20 378.21
  L 360.00 371.47
  L 352.06 370.51
  Q 351.57 370.45 351.58 369.95
  L 351.91 358.63
  Q 354.81 313.16 353.14 267.87
  Q 353.13 267.37 352.63 267.40
  Q 310.35 269.21 266.61 268.46
  Q 274.25 260.69 273.64 252.80
  L 348.76 266.42
  Q 349.31 266.52 349.46 265.99
  L 349.57 265.61
  Q 349.86 264.61 348.84 264.43
  L 273.20 250.73
  L 270.64 247.95
  Q 270.29 247.57 269.79 247.55
  L 249.71 246.53
  L 189.33 235.58
  A 0.91 0.91 0.0 0 0 188.51 235.84
  Q 188.01 236.36 188.45 237.11
  A 0.96 0.95 79.9 0 0 189.09 237.56
  L 226.25 244.49
  Q 199.61 243.18 173.80 237.50
  Q 173.51 237.43 173.21 237.25
  Q 172.96 237.10 172.64 236.92
  L 202.27 73.43
  Q 202.35 72.98 202.80 73.06
  L 245.86 80.87
  Z
  M 240.61 132.02
  A 0.42 0.42 0.0 0 1 240.27 131.53
  L 243.26 115.13
  A 0.42 0.42 0.0 0 0 242.91 114.63
  L 241.57 114.43
  A 0.42 0.42 0.0 0 0 241.10 114.77
  L 237.77 133.10
  A 0.42 0.42 0.0 0 0 238.11 133.59
  L 244.94 134.80
  A 0.42 0.42 0.0 0 0 245.43 134.44
  L 245.56 133.30
  A 0.42 0.42 0.0 0 0 245.22 132.84
  L 240.61 132.02
  Z
  M 256.98 133.31
  L 256.91 136.40
  A 0.77 0.76 4.1 0 0 257.59 137.18
  L 258.48 137.27
  Q 259.04 137.33 259.03 136.77
  L 258.98 118.24
  Q 258.98 117.48 258.23 117.37
  L 256.74 117.15
  Q 256.07 117.05 255.83 117.68
  L 249.28 134.92
  Q 249.06 135.49 249.61 135.77
  Q 249.85 135.88 250.10 135.91
  A 1.20 1.19 12.6 0 0 251.37 135.11
  L 252.26 132.52
  Q 252.44 131.99 252.98 132.08
  L 256.43 132.65
  A 0.66 0.65 -85.0 0 1 256.98 133.31
  Z
  M 266.92 134.41
  L 267.81 119.47
  Q 267.83 119.11 267.47 119.06
  L 266.21 118.88
  A 0.44 0.43 -84.5 0 0 265.72 119.29
  L 264.67 137.77
  Q 264.63 138.42 265.27 138.52
  L 266.95 138.78
  Q 267.55 138.87 267.74 138.29
  L 271.53 126.22
  Q 272.01 124.70 271.96 126.30
  Q 271.79 132.41 271.40 138.94
  Q 271.36 139.56 271.97 139.71
  L 273.31 140.02
  Q 274.08 140.20 274.32 139.44
  L 279.75 121.98
  A 0.69 0.69 0.0 0 0 279.22 121.09
  L 278.95 121.04
  Q 278.03 120.88 277.77 121.78
  Q 275.73 128.84 273.77 134.81
  Q 273.17 136.64 273.29 134.72
  L 274.12 120.99
  Q 274.16 120.39 273.60 120.18
  Q 272.78 119.88 272.02 120.03
  Q 271.63 120.11 271.51 120.49
  L 267.22 134.47
  Q 266.85 135.67 266.92 134.41
  Z
  M 291.91 134.70
  A 0.43 0.43 0.0 0 1 292.42 134.35
  L 295.97 135.04
  A 0.43 0.43 0.0 0 0 296.47 134.73
  L 296.76 133.62
  A 0.43 0.43 0.0 0 0 296.42 133.09
  L 292.77 132.44
  A 0.43 0.43 0.0 0 1 292.43 131.94
  L 293.46 126.27
  A 0.43 0.43 0.0 0 1 293.96 125.92
  L 298.61 126.74
  A 0.43 0.43 0.0 0 0 299.10 126.40
  L 299.30 125.28
  A 0.43 0.43 0.0 0 0 298.95 124.78
  L 292.17 123.58
  A 0.43 0.43 0.0 0 0 291.67 123.92
  L 288.35 142.35
  A 0.43 0.43 0.0 0 0 288.73 142.86
  L 290.05 142.99
  A 0.43 0.43 0.0 0 0 290.52 142.64
  L 291.91 134.70
  Z
  M 305.9235 126.5246
  A 0.47 0.47 0.0 0 0 305.5451 125.9781
  L 304.3251 125.7564
  A 0.47 0.47 0.0 0 0 303.7786 126.1348
  L 300.4565 144.4154
  A 0.47 0.47 0.0 0 0 300.8349 144.9619
  L 302.0549 145.1836
  A 0.47 0.47 0.0 0 0 302.6014 144.8052
  L 305.9235 126.5246
  Z
  M 314.09 138.51
  A 1.85 1.85 0.0 0 1 315.45 140.60
  L 314.46 146.71
  A 0.69 0.68 12.3 0 0 314.97 147.49
  L 316.03 147.75
  A 0.53 0.52 -80.7 0 0 316.68 147.28
  C 316.90 144.48 318.58 140.10 316.45 137.87
  Q 316.15 137.55 316.56 137.38
  Q 318.57 136.55 319.06 133.32
  C 319.92 127.58 315.81 127.91 312.07 127.16
  Q 311.34 127.01 311.21 127.75
  L 307.99 145.54
  A 0.75 0.74 8.8 0 0 308.63 146.41
  L 309.43 146.52
  A 0.62 0.61 8.7 0 0 310.12 146.02
  L 311.38 139.01
  Q 311.58 137.86 312.71 138.15
  L 314.09 138.51
  Z
  M 326.40 134.85
  Q 326.55 142.08 326.47 148.99
  Q 326.46 149.54 327.00 149.71
  Q 327.50 149.87 328.03 149.79
  A 0.70 0.68 5.6 0 0 328.58 149.35
  Q 331.14 142.63 333.65 136.00
  Q 333.70 135.89 333.82 135.92
  L 333.82 135.92
  Q 333.94 135.96 333.92 136.08
  Q 332.77 143.00 331.48 149.76
  A 0.80 0.80 0.0 0 0 332.19 150.70
  L 332.81 150.75
  Q 333.44 150.81 333.56 150.19
  L 336.79 132.28
  Q 336.91 131.65 336.27 131.54
  L 334.33 131.23
  Q 333.76 131.14 333.56 131.68
  L 328.67 144.65
  Q 328.19 145.94 328.19 144.56
  L 328.21 130.79
  A 0.83 0.82 5.5 0 0 327.54 129.98
  L 325.80 129.65
  A 0.74 0.74 0.0 0 0 324.93 130.24
  L 321.68 148.18
  A 0.57 0.57 0.0 0 0 322.16 148.85
  L 322.93 148.95
  Q 323.61 149.04 323.71 148.37
  Q 324.70 141.43 326.13 134.82
  Q 326.38 133.69 326.40 134.85
  Z
  M 346.6388 165.9910
  A 0.78 0.78 0.0 0 0 346.0108 165.0841
  L 218.6961 141.9471
  A 0.78 0.78 0.0 0 0 217.7892 142.5751
  L 217.7212 142.9490
  A 0.78 0.78 0.0 0 0 218.3492 143.8559
  L 345.6639 166.9929
  A 0.78 0.78 0.0 0 0 346.5708 166.3649
  L 346.6388 165.9910
  Z
  M 363.2986 189.9682
  A 0.75 0.75 0.0 0 0 362.6947 189.0962
  L 202.8921 160.0551
  A 0.75 0.75 0.0 0 0 202.0201 160.6589
  L 201.9414 161.0918
  A 0.75 0.75 0.0 0 0 202.5453 161.9638
  L 362.3479 191.0049
  A 0.75 0.75 0.0 0 0 363.2199 190.4011
  L 363.2986 189.9682
  Z
  M 359.8562 208.7835
  A 0.71 0.71 0.0 0 0 359.2846 207.9579
  L 199.4623 178.9133
  A 0.71 0.71 0.0 0 0 198.6368 179.4849
  L 198.5438 179.9965
  A 0.71 0.71 0.0 0 0 199.1154 180.8221
  L 358.9377 209.8667
  A 0.71 0.71 0.0 0 0 359.7632 209.2951
  L 359.8562 208.7835
  Z
  M 356.4414 227.8193
  A 0.90 0.90 0.0 0 0 355.7168 226.7729
  L 196.1700 197.7783
  A 0.90 0.90 0.0 0 0 195.1236 198.5029
  L 195.0986 198.6407
  A 0.90 0.90 0.0 0 0 195.8232 199.6871
  L 355.3700 228.6817
  A 0.90 0.90 0.0 0 0 356.4164 227.9571
  L 356.4414 227.8193
  Z
  M 353.0250 246.6597
  A 0.88 0.88 0.0 0 0 352.3165 245.6365
  L 192.7304 216.6348
  A 0.88 0.88 0.0 0 0 191.7072 217.3432
  L 191.6750 217.5203
  A 0.88 0.88 0.0 0 0 192.3835 218.5435
  L 351.9696 247.5452
  A 0.88 0.88 0.0 0 0 352.9928 246.8368
  L 353.0250 246.6597
  Z
  M 403.36 360.66
  A 12.35 6.41 0.0 0 0 391.01 354.25
  A 12.35 6.41 0.0 0 0 378.66 360.66
  A 12.35 6.41 0.0 0 0 391.01 367.07
  A 12.35 6.41 0.0 0 0 403.36 360.66
  Z"
/>
<path fill="#4071ff" d="
  M 346.61 99.13
  L 348.09 110.42
  Q 348.17 110.97 347.63 110.87
  L 238.49 91.09
  A 0.24 0.24 0.0 0 1 238.34 90.71
  L 245.86 80.87
  L 249.55 76.09
  Q 249.99 75.52 250.69 75.65
  L 345.40 92.81
  A 0.33 0.32 1.2 0 1 345.67 93.09
  L 346.61 99.13
  Z"
/>
<path fill="#00103d" d="
  M 240.61 132.02
  L 245.22 132.84
  A 0.42 0.42 0.0 0 1 245.56 133.30
  L 245.43 134.44
  A 0.42 0.42 0.0 0 1 244.94 134.80
  L 238.11 133.59
  A 0.42 0.42 0.0 0 1 237.77 133.10
  L 241.10 114.77
  A 0.42 0.42 0.0 0 1 241.57 114.43
  L 242.91 114.63
  A 0.42 0.42 0.0 0 1 243.26 115.13
  L 240.27 131.53
  A 0.42 0.42 0.0 0 0 240.61 132.02
  Z"
/>
<path fill="#00103d" d="
  M 256.43 132.65
  L 252.98 132.08
  Q 252.44 131.99 252.26 132.52
  L 251.37 135.11
  A 1.20 1.19 12.6 0 1 250.10 135.91
  Q 249.85 135.88 249.61 135.77
  Q 249.06 135.49 249.28 134.92
  L 255.83 117.68
  Q 256.07 117.05 256.74 117.15
  L 258.23 117.37
  Q 258.98 117.48 258.98 118.24
  L 259.03 136.77
  Q 259.04 137.33 258.48 137.27
  L 257.59 137.18
  A 0.77 0.76 4.1 0 1 256.91 136.40
  L 256.98 133.31
  A 0.66 0.65 -85.0 0 0 256.43 132.65
  Z
  M 256.38 121.31
  L 253.27 129.94
  Q 253.18 130.18 253.44 130.23
  L 256.73 130.81
  Q 256.95 130.85 256.96 130.62
  Q 257.06 125.98 256.92 121.39
  Q 256.88 119.92 256.38 121.31
  Z"
/>
<path fill="#00103d" d="
  M 267.22 134.47
  L 271.51 120.49
  Q 271.63 120.11 272.02 120.03
  Q 272.78 119.88 273.60 120.18
  Q 274.16 120.39 274.12 120.99
  L 273.29 134.72
  Q 273.17 136.64 273.77 134.81
  Q 275.73 128.84 277.77 121.78
  Q 278.03 120.88 278.95 121.04
  L 279.22 121.09
  A 0.69 0.69 0.0 0 1 279.75 121.98
  L 274.32 139.44
  Q 274.08 140.20 273.31 140.02
  L 271.97 139.71
  Q 271.36 139.56 271.40 138.94
  Q 271.79 132.41 271.96 126.30
  Q 272.01 124.70 271.53 126.22
  L 267.74 138.29
  Q 267.55 138.87 266.95 138.78
  L 265.27 138.52
  Q 264.63 138.42 264.67 137.77
  L 265.72 119.29
  A 0.44 0.43 -84.5 0 1 266.21 118.88
  L 267.47 119.06
  Q 267.83 119.11 267.81 119.47
  L 266.92 134.41
  Q 266.85 135.67 267.22 134.47
  Z"
/>
<path fill="#eaf0ff" d="
  M 253.27 129.94
  L 256.38 121.31
  Q 256.88 119.92 256.92 121.39
  Q 257.06 125.98 256.96 130.62
  Q 256.95 130.85 256.73 130.81
  L 253.44 130.23
  Q 253.18 130.18 253.27 129.94
  Z"
/>
<path fill="#00103d" d="
  M 291.91 134.70
  L 290.52 142.64
  A 0.43 0.43 0.0 0 1 290.05 142.99
  L 288.73 142.86
  A 0.43 0.43 0.0 0 1 288.35 142.35
  L 291.67 123.92
  A 0.43 0.43 0.0 0 1 292.17 123.58
  L 298.95 124.78
  A 0.43 0.43 0.0 0 1 299.30 125.28
  L 299.10 126.40
  A 0.43 0.43 0.0 0 1 298.61 126.74
  L 293.96 125.92
  A 0.43 0.43 0.0 0 0 293.46 126.27
  L 292.43 131.94
  A 0.43 0.43 0.0 0 0 292.77 132.44
  L 296.42 133.09
  A 0.43 0.43 0.0 0 1 296.76 133.62
  L 296.47 134.73
  A 0.43 0.43 0.0 0 1 295.97 135.04
  L 292.42 134.35
  A 0.43 0.43 0.0 0 0 291.91 134.70
  Z"
/>
<rect fill="#00103d" x="-1.09" y="-9.76" transform="translate(303.19,135.47) rotate(10.3)" width="2.18" height="19.52" rx="0.47"/>
<path fill="#073ace" d="
  M 173.54 126.93
  L 154.59 231.63
  C 145.45 229.58 136.01 231.77 126.72 234.93
  C 113.72 239.35 100.50 244.51 87.25 246.97
  C 62.12 251.64 35.47 254.50 9.58 258.03
  Q 9.55 228.96 15.77 200.49
  Q 16.86 201.13 18.74 201.81
  C 44.78 211.16 78.67 211.60 102.28 195.45
  C 110.62 189.74 116.10 182.21 119.89 172.61
  Q 122.02 167.19 124.49 161.32
  C 128.95 150.71 136.77 143.88 147.17 139.67
  C 157.01 135.70 164.51 132.36 173.54 126.93
  Z"
/>
<path fill="#00103d" d="
  M 311.38 139.01
  L 310.12 146.02
  A 0.62 0.61 8.7 0 1 309.43 146.52
  L 308.63 146.41
  A 0.75 0.74 8.8 0 1 307.99 145.54
  L 311.21 127.75
  Q 311.34 127.01 312.07 127.16
  C 315.81 127.91 319.92 127.58 319.06 133.32
  Q 318.57 136.55 316.56 137.38
  Q 316.15 137.55 316.45 137.87
  C 318.58 140.10 316.90 144.48 316.68 147.28
  A 0.53 0.52 -80.7 0 1 316.03 147.75
  L 314.97 147.49
  A 0.69 0.68 12.3 0 1 314.46 146.71
  L 315.45 140.60
  A 1.85 1.85 0.0 0 0 314.09 138.51
  L 312.71 138.15
  Q 311.58 137.86 311.38 139.01
  Z
  M 313.08 129.74
  L 311.98 135.60
  A 0.40 0.40 0.0 0 0 312.30 136.07
  L 313.87 136.36
  A 2.38 2.32 -79.4 0 0 316.59 134.45
  L 316.96 132.48
  A 2.38 2.32 -79.4 0 0 315.11 129.72
  L 313.54 129.42
  A 0.40 0.40 0.0 0 0 313.08 129.74
  Z"
/>
<path fill="#eaf0ff" d="
  M 313.08 129.74
  A 0.40 0.40 0.0 0 1 313.54 129.42
  L 315.11 129.72
  A 2.38 2.32 -79.4 0 1 316.96 132.48
  L 316.59 134.45
  A 2.38 2.32 -79.4 0 1 313.87 136.36
  L 312.30 136.07
  A 0.40 0.40 0.0 0 1 311.98 135.60
  L 313.08 129.74
  Z"
/>
<path fill="#00103d" d="
  M 326.13 134.82
  Q 324.70 141.43 323.71 148.37
  Q 323.61 149.04 322.93 148.95
  L 322.16 148.85
  A 0.57 0.57 0.0 0 1 321.68 148.18
  L 324.93 130.24
  A 0.74 0.74 0.0 0 1 325.80 129.65
  L 327.54 129.98
  A 0.83 0.82 5.5 0 1 328.21 130.79
  L 328.19 144.56
  Q 328.19 145.94 328.67 144.65
  L 333.56 131.68
  Q 333.76 131.14 334.33 131.23
  L 336.27 131.54
  Q 336.91 131.65 336.79 132.28
  L 333.56 150.19
  Q 333.44 150.81 332.81 150.75
  L 332.19 150.70
  A 0.80 0.80 0.0 0 1 331.48 149.76
  Q 332.77 143.00 333.92 136.08
  Q 333.94 135.96 333.82 135.92
  L 333.82 135.92
  Q 333.70 135.89 333.65 136.00
  Q 331.14 142.63 328.58 149.35
  A 0.70 0.68 5.6 0 1 328.03 149.79
  Q 327.50 149.87 327.00 149.71
  Q 326.46 149.54 326.47 148.99
  Q 326.55 142.08 326.40 134.85
  Q 326.38 133.69 326.13 134.82
  Z"
/>
<path fill="#073ace" d="
  M 402.42 137.29
  C 412.12 145.66 415.25 153.59 412.18 166.23
  C 411.06 170.87 409.86 175.57 409.36 180.34
  C 407.29 199.82 413.14 219.16 423.88 235.53
  Q 424.15 235.96 424.10 236.46
  Q 424.08 236.69 424.05 236.97
  L 418.84 237.07
  Q 418.33 237.08 418.32 237.59
  L 418.21 252.07
  L 381.40 253.34
  L 402.42 137.29
  Z"
/>
<path fill="#00103d" d="
  M 112.48 160.39
  A 18.64 18.64 0.0 0 1 93.84 179.03
  A 18.64 18.64 0.0 0 1 75.20 160.39
  A 18.64 18.64 0.0 0 1 93.84 141.75
  A 18.64 18.64 0.0 0 1 112.48 160.39
  Z
  M 110.55 160.39
  A 16.71 16.71 0.0 0 0 93.84 143.68
  A 16.71 16.71 0.0 0 0 77.13 160.39
  A 16.71 16.71 0.0 0 0 93.84 177.10
  A 16.71 16.71 0.0 0 0 110.55 160.39
  Z"
/>
<rect fill="#00103d" x="-65.48" y="-0.97" transform="translate(282.18,154.47) rotate(10.3)" width="130.96" height="1.94" rx="0.78"/>
<circle fill="#4071ff" cx="93.84" cy="160.39" r="16.71"/>
<rect fill="#00103d" x="-81.96" y="-0.97" transform="translate(282.62,175.53) rotate(10.3)" width="163.92" height="1.94" rx="0.75"/>
<path fill="#00103d" d="
  M 464.10 186.93
  A 17.90 17.90 0.0 0 1 446.20 204.83
  A 17.90 17.90 0.0 0 1 428.30 186.93
  A 17.90 17.90 0.0 0 1 446.20 169.03
  A 17.90 17.90 0.0 0 1 464.10 186.93
  Z
  M 462.16 186.93
  A 15.96 15.96 0.0 0 0 446.20 170.97
  A 15.96 15.96 0.0 0 0 430.24 186.93
  A 15.96 15.96 0.0 0 0 446.20 202.89
  A 15.96 15.96 0.0 0 0 462.16 186.93
  Z"
/>
<circle fill="#4071ff" cx="446.20" cy="186.93" r="15.96"/>
<rect fill="#00103d" x="-81.93" y="-0.97" transform="translate(279.20,194.39) rotate(10.3)" width="163.86" height="1.94" rx="0.71"/>
<rect fill="#00103d" x="-81.98" y="-0.97" transform="translate(275.77,213.23) rotate(10.3)" width="163.96" height="1.94" rx="0.90"/>
<rect fill="#00103d" x="-81.98" y="-0.97" transform="translate(272.35,232.09) rotate(10.3)" width="163.96" height="1.94" rx="0.88"/>
<path fill="#9fb7ff" d="
  M 154.59 231.63
  Q 163.09 234.81 172.01 236.95
  Q 172.45 237.05 172.64 236.92
  Q 172.96 237.10 173.21 237.25
  Q 173.51 237.43 173.80 237.50
  Q 199.61 243.18 226.25 244.49
  L 249.71 246.53
  L 269.79 247.55
  Q 270.29 247.57 270.64 247.95
  L 273.20 250.73
  Q 272.69 251.21 273.64 252.80
  Q 274.25 260.69 266.61 268.46
  Q 257.87 268.08 247.75 266.78
  C 226.80 264.08 207.89 261.06 188.01 257.83
  Q 185.43 257.41 182.59 258.03
  C 165.67 261.73 152.19 263.90 137.74 264.43
  Q 135.77 264.50 133.71 265.84
  Q 125.06 271.46 116.44 277.21
  L 113.51 279.14
  L 88.36 295.59
  L 86.61 295.45
  A 1.35 1.35 0.0 0 0 85.34 297.48
  C 92.38 309.39 105.39 320.41 120.12 313.52
  Q 135.92 306.13 150.79 296.36
  Q 151.99 295.57 153.49 295.47
  Q 166.86 294.61 177.70 296.63
  C 180.95 297.24 184.41 298.45 187.05 300.46
  C 203.24 312.75 220.64 324.54 239.21 331.68
  Q 244.96 333.88 250.18 336.76
  Q 278.81 352.55 301.20 366.94
  Q 304.23 368.89 307.57 371.33
  C 314.00 376.02 319.23 381.33 315.72 390.11
  Q 314.11 394.16 311.07 397.54
  Q 310.62 398.04 310.41 397.39
  C 305.98 383.40 291.34 374.03 278.62 385.89
  A 0.75 0.74 33.8 0 1 277.84 386.04
  Q 266.87 381.93 257.75 377.68
  Q 226.98 363.36 196.24 347.96
  Q 194.98 347.32 194.22 348.51
  Q 194.12 348.66 194.09 348.84
  Q 193.88 349.90 194.84 350.38
  Q 222.80 364.43 254.25 379.15
  Q 261.78 382.68 269.35 385.79
  Q 269.94 386.04 269.59 386.57
  C 263.14 396.23 251.79 402.96 239.93 400.93
  Q 233.51 399.82 227.60 397.83
  C 208.94 391.53 189.90 382.54 171.69 373.25
  Q 170.62 372.70 169.94 373.69
  Q 169.73 373.98 169.66 374.33
  A 1.10 1.09 20.2 0 0 170.22 375.52
  Q 196.73 389.75 225.49 400.18
  Q 225.91 400.33 225.55 400.60
  Q 216.16 407.83 205.12 411.02
  Q 198.74 412.86 190.18 410.49
  C 175.34 406.39 160.32 399.65 146.87 392.75
  A 1.18 1.17 -43.0 0 0 145.85 392.72
  Q 144.75 393.20 144.87 394.29
  A 1.06 1.04 -79.4 0 0 145.42 395.11
  Q 162.53 404.08 181.06 410.64
  Q 163.29 414.65 145.30 414.57
  Q 141.92 414.56 138.22 414.06
  Q 133.08 413.36 131.26 412.42
  Q 120.53 406.87 110.90 402.35
  Q 76.54 386.24 37.15 369.24
  Q 10.38 317.40 9.58 258.03
  C 35.47 254.50 62.12 251.64 87.25 246.97
  C 100.50 244.51 113.72 239.35 126.72 234.93
  C 136.01 231.77 145.45 229.58 154.59 231.63
  Z"
/>
<path fill="#00103d" d="
  M 249.71 246.53
  L 226.25 244.49
  L 189.09 237.56
  A 0.96 0.95 79.9 0 1 188.45 237.11
  Q 188.01 236.36 188.51 235.84
  A 0.91 0.91 0.0 0 1 189.33 235.58
  L 249.71 246.53
  Z"
/>
<path fill="#00103d" d="
  M 424.05 236.97
  L 501.69 236.97
  Q 507.12 318.77 464.68 387.03
  L 418.80 386.68
  Q 418.30 386.68 418.29 386.18
  L 418.20 378.21
  L 418.21 252.07
  L 418.32 237.59
  Q 418.33 237.08 418.84 237.07
  L 424.05 236.97
  Z"
/>
<path fill="#00103d" d="
  M 273.20 250.73
  L 348.84 264.43
  Q 349.86 264.61 349.57 265.61
  L 349.46 265.99
  Q 349.31 266.52 348.76 266.42
  L 273.64 252.80
  Q 272.69 251.21 273.20 250.73
  Z"
/>
<path fill="#4c609a" d="
  M 266.61 268.46
  Q 310.35 269.21 352.63 267.40
  Q 353.13 267.37 353.14 267.87
  Q 354.81 313.16 351.91 358.63
  L 344.46 358.07
  L 329.30 356.81
  Q 328.80 356.77 328.37 357.03
  L 312.02 366.57
  L 309.02 368.23
  Q 308.57 368.48 308.14 368.20
  Q 283.56 351.78 255.98 336.90
  Q 254.61 336.17 256.13 336.47
  Q 264.13 338.05 272.42 336.82
  Q 273.45 336.67 273.36 335.62
  L 273.32 335.14
  Q 273.22 334.04 272.12 334.16
  Q 260.07 335.45 248.33 331.88
  C 227.20 325.44 207.96 312.77 190.12 299.21
  C 187.28 297.06 184.11 295.29 180.61 294.45
  Q 168.98 291.65 152.80 292.70
  Q 151.11 292.82 149.68 293.75
  Q 135.06 303.27 119.14 310.88
  C 107.12 316.62 96.53 309.01 89.80 299.30
  A 0.25 0.25 0.0 0 1 90.04 298.91
  C 98.20 300.19 106.39 299.18 111.94 292.42
  Q 116.91 286.36 116.44 277.21
  Q 125.06 271.46 133.71 265.84
  Q 135.77 264.50 137.74 264.43
  C 152.19 263.90 165.67 261.73 182.59 258.03
  Q 185.43 257.41 188.01 257.83
  C 207.89 261.06 226.80 264.08 247.75 266.78
  Q 257.87 268.08 266.61 268.46
  Z"
/>
<path fill="#00103d" d="
  M 116.44 277.21
  Q 116.91 286.36 111.94 292.42
  C 106.39 299.18 98.20 300.19 90.04 298.91
  A 0.25 0.25 0.0 0 0 89.80 299.30
  C 96.53 309.01 107.12 316.62 119.14 310.88
  Q 135.06 303.27 149.68 293.75
  Q 151.11 292.82 152.80 292.70
  Q 168.98 291.65 180.61 294.45
  C 184.11 295.29 187.28 297.06 190.12 299.21
  C 207.96 312.77 227.20 325.44 248.33 331.88
  Q 260.07 335.45 272.12 334.16
  Q 273.22 334.04 273.32 335.14
  L 273.36 335.62
  Q 273.45 336.67 272.42 336.82
  Q 264.13 338.05 256.13 336.47
  Q 254.61 336.17 255.98 336.90
  Q 283.56 351.78 308.14 368.20
  Q 308.57 368.48 309.02 368.23
  L 312.02 366.57
  L 341.43 371.84
  Q 341.93 371.93 342.02 371.43
  L 344.46 358.07
  L 351.91 358.63
  L 351.58 369.95
  Q 351.57 370.45 352.06 370.51
  L 360.00 371.47
  L 356.41 391.27
  A 0.39 0.38 9.5 0 1 355.96 391.59
  L 343.26 389.43
  L 320.29 385.17
  Q 319.76 385.07 319.69 385.61
  Q 318.54 394.17 311.88 400.84
  C 310.95 401.78 310.09 403.13 308.53 402.40
  Q 291.48 394.31 273.09 387.16
  A 0.63 0.62 26.3 0 0 272.34 387.41
  Q 264.70 399.83 250.29 403.44
  C 243.57 405.12 236.19 403.36 229.71 401.37
  Q 229.22 401.22 228.83 401.55
  C 221.04 408.12 207.89 415.41 197.02 414.54
  Q 189.01 413.48 181.06 410.64
  Q 162.53 404.08 145.42 395.11
  A 1.06 1.04 -79.4 0 1 144.87 394.29
  Q 144.75 393.20 145.85 392.72
  A 1.18 1.17 -43.0 0 1 146.87 392.75
  C 160.32 399.65 175.34 406.39 190.18 410.49
  Q 198.74 412.86 205.12 411.02
  Q 216.16 407.83 225.55 400.60
  Q 225.91 400.33 225.49 400.18
  Q 196.73 389.75 170.22 375.52
  A 1.10 1.09 20.2 0 1 169.66 374.33
  Q 169.73 373.98 169.94 373.69
  Q 170.62 372.70 171.69 373.25
  C 189.90 382.54 208.94 391.53 227.60 397.83
  Q 233.51 399.82 239.93 400.93
  C 251.79 402.96 263.14 396.23 269.59 386.57
  Q 269.94 386.04 269.35 385.79
  Q 261.78 382.68 254.25 379.15
  Q 222.80 364.43 194.84 350.38
  Q 193.88 349.90 194.09 348.84
  Q 194.12 348.66 194.22 348.51
  Q 194.98 347.32 196.24 347.96
  Q 226.98 363.36 257.75 377.68
  Q 266.87 381.93 277.84 386.04
  A 0.75 0.74 33.8 0 0 278.62 385.89
  C 291.34 374.03 305.98 383.40 310.41 397.39
  Q 310.62 398.04 311.07 397.54
  Q 314.11 394.16 315.72 390.11
  C 319.23 381.33 314.00 376.02 307.57 371.33
  Q 304.23 368.89 301.20 366.94
  Q 278.81 352.55 250.18 336.76
  Q 244.96 333.88 239.21 331.68
  C 220.64 324.54 203.24 312.75 187.05 300.46
  C 184.41 298.45 180.95 297.24 177.70 296.63
  Q 166.86 294.61 153.49 295.47
  Q 151.99 295.57 150.79 296.36
  Q 135.92 306.13 120.12 313.52
  C 105.39 320.41 92.38 309.39 85.34 297.48
  A 1.35 1.35 0.0 0 1 86.61 295.45
  L 88.36 295.59
  C 95.73 297.60 104.86 297.05 109.91 290.41
  Q 113.66 285.47 113.51 279.14
  L 116.44 277.21
  Z
  M 300.61 387.15
  C 295.03 382.18 287.17 381.87 281.56 387.05
  Q 281.23 387.35 281.64 387.51
  Q 294.23 392.64 307.36 398.74
  Q 307.98 399.03 307.77 398.38
  Q 305.62 391.62 300.61 387.15
  Z"
/>
<path fill="#4c609a" d="
  M 113.51 279.14
  Q 113.66 285.47 109.91 290.41
  C 104.86 297.05 95.73 297.60 88.36 295.59
  L 113.51 279.14
  Z"
/>
<ellipse fill="#00103d" cx="391.01" cy="360.66" rx="12.35" ry="6.41"/>
<path fill="#eaf0ff" d="
  M 344.46 358.07
  L 342.02 371.43
  Q 341.93 371.93 341.43 371.84
  L 312.02 366.57
  L 328.37 357.03
  Q 328.80 356.77 329.30 356.81
  L 344.46 358.07
  Z"
/>
<path fill="#073ace" d="
  M 37.15 369.24
  Q 76.54 386.24 110.90 402.35
  Q 120.53 406.87 131.26 412.42
  Q 133.08 413.36 138.22 414.06
  Q 141.92 414.56 145.30 414.57
  Q 163.29 414.65 181.06 410.64
  Q 189.01 413.48 197.02 414.54
  Q 191.37 418.62 185.07 422.10
  Q 174.79 427.77 163.54 426.66
  C 157.43 426.06 151.10 423.72 144.99 422.12
  Q 134.63 419.40 123.99 422.03
  Q 106.53 426.34 94.28 441.86
  Q 59.28 411.29 37.15 369.24
  Z"
/>
<path fill="#073ace" d="
  M 360.00 371.47
  L 418.20 378.21
  L 418.29 386.18
  Q 418.30 386.68 418.80 386.68
  L 464.68 387.03
  Q 437.00 430.57 395.03 459.46
  Q 393.24 431.26 373.78 411.21
  Q 360.83 397.87 343.26 389.43
  L 355.96 391.59
  A 0.39 0.38 9.5 0 0 356.41 391.27
  L 360.00 371.47
  Z"
/>
<path fill="#9fb7ff" d="
  M 300.61 387.15
  Q 305.62 391.62 307.77 398.38
  Q 307.98 399.03 307.36 398.74
  Q 294.23 392.64 281.64 387.51
  Q 281.23 387.35 281.56 387.05
  C 287.17 381.87 295.03 382.18 300.61 387.15
  Z"
/>
<path fill="#4071ff" d="
  M 343.26 389.43
  Q 360.83 397.87 373.78 411.21
  Q 393.24 431.26 395.03 459.46
  Q 379.19 470.19 364.19 477.45
  C 292.46 512.15 208.38 510.62 138.04 472.23
  Q 114.70 459.50 94.28 441.86
  Q 106.53 426.34 123.99 422.03
  Q 134.63 419.40 144.99 422.12
  C 151.10 423.72 157.43 426.06 163.54 426.66
  Q 174.79 427.77 185.07 422.10
  Q 191.37 418.62 197.02 414.54
  C 207.89 415.41 221.04 408.12 228.83 401.55
  Q 229.22 401.22 229.71 401.37
  C 236.19 403.36 243.57 405.12 250.29 403.44
  Q 264.70 399.83 272.34 387.41
  A 0.63 0.62 26.3 0 1 273.09 387.16
  Q 291.48 394.31 308.53 402.40
  C 310.09 403.13 310.95 401.78 311.88 400.84
  Q 318.54 394.17 319.69 385.61
  Q 319.76 385.07 320.29 385.17
  L 343.26 389.43
  Z
  M 366.03 429.46
  A 14.92 14.92 0.0 0 0 351.11 414.54
  A 14.92 14.92 0.0 0 0 336.19 429.46
  A 14.92 14.92 0.0 0 0 351.11 444.38
  A 14.92 14.92 0.0 0 0 366.03 429.46
  Z
  M 235.58 454.52
  A 22.32 22.32 0.0 0 0 213.26 432.20
  A 22.32 22.32 0.0 0 0 190.94 454.52
  A 22.32 22.32 0.0 0 0 213.26 476.84
  A 22.32 22.32 0.0 0 0 235.58 454.52
  Z"
/>
<path fill="#00103d" d="
  M 366.03 429.46
  A 14.92 14.92 0.0 0 1 351.11 444.38
  A 14.92 14.92 0.0 0 1 336.19 429.46
  A 14.92 14.92 0.0 0 1 351.11 414.54
  A 14.92 14.92 0.0 0 1 366.03 429.46
  Z
  M 364.11 429.45
  A 13.00 13.00 0.0 0 0 351.11 416.45
  A 13.00 13.00 0.0 0 0 338.11 429.45
  A 13.00 13.00 0.0 0 0 351.11 442.45
  A 13.00 13.00 0.0 0 0 364.11 429.45
  Z"
/>
<circle fill="#4071ff" cx="351.11" cy="429.45" r="13.00"/>
<path fill="#00103d" d="
  M 235.58 454.52
  A 22.32 22.32 0.0 0 1 213.26 476.84
  A 22.32 22.32 0.0 0 1 190.94 454.52
  A 22.32 22.32 0.0 0 1 213.26 432.20
  A 22.32 22.32 0.0 0 1 235.58 454.52
  Z
  M 233.65 454.52
  A 20.39 20.39 0.0 0 0 213.26 434.13
  A 20.39 20.39 0.0 0 0 192.87 454.52
  A 20.39 20.39 0.0 0 0 213.26 474.91
  A 20.39 20.39 0.0 0 0 233.65 454.52
  Z"
/>
<circle fill="#4071ff" cx="213.26" cy="454.52" r="20.39"/>
</svg>
