<?xml version="1.0" encoding="UTF-8" standalone="no"?>
<!DOCTYPE svg PUBLIC "-//W3C//DTD SVG 1.1//EN" "http://www.w3.org/Graphics/SVG/1.1/DTD/svg11.dtd">
<svg xmlns="http://www.w3.org/2000/svg" version="1.1" viewBox="0.00 0.00 512.00 512.00">
<g stroke-width="2.00" fill="none" stroke-linecap="butt">
<path stroke="#6c8be7" vector-effect="non-scaling-stroke" d="
  M 160.36 27.95
  Q 115.96 47.26 82.85 81.35
  Q 38.01 127.51 20.86 190.00"
/>
<path stroke="#89a7ff" vector-effect="non-scaling-stroke" d="
  M 20.86 190.00
  Q 9.09 234.06 12.77 278.00
  Q 18.75 349.40 62.09 407.17
  Q 67.89 414.90 73.37 421.07"
/>
<path stroke="#6c8be7" vector-effect="non-scaling-stroke" d="
  M 73.37 421.07
  C 108.06 460.21 152.99 487.09 203.97 498.07"
/>
<path stroke="#717ca4" vector-effect="non-scaling-stroke" d="
  M 203.97 498.07
  Q 204.72 498.45 205.57 498.43"
/>
<path stroke="#7a88be" vector-effect="non-scaling-stroke" d="
  M 205.57 498.43
  L 230.30 502.18"
/>
<path stroke="#e4e5f2" vector-effect="non-scaling-stroke" d="
  M 230.30 502.18
  Q 246.16 503.84 261.92 503.22"
/>
<path stroke="#717ca4" vector-effect="non-scaling-stroke" d="
  M 261.92 503.22
  Q 263.82 503.47 263.83 502.80"
/>
<path stroke="#e4e5f2" vector-effect="non-scaling-stroke" d="
  M 263.83 502.80
  Q 264.04 502.93 264.27 503.05
  Q 264.49 503.15 264.73 503.14
  Q 288.34 502.17 312.01 496.40
  C 313.78 495.97 314.96 494.88 316.94 495.16
  Q 317.11 495.19 317.21 495.05
  Q 317.29 494.93 317.27 494.79"
/>
<path stroke="#7a88be" vector-effect="non-scaling-stroke" d="
  M 317.27 494.79
  Q 317.42 494.94 317.68 494.87
  Q 330.07 491.56 342.82 486.39"
/>
<path stroke="#717ca4" vector-effect="non-scaling-stroke" d="
  M 342.82 486.39
  Q 344.12 486.49 346.44 485.10"
/>
<path stroke="#7a88be" vector-effect="non-scaling-stroke" d="
  M 346.44 485.10
  Q 387.09 468.13 418.37 438.37"
/>
<path stroke="#6c8be7" vector-effect="non-scaling-stroke" d="
  M 418.37 438.37
  C 435.77 422.28 451.51 405.66 464.25 385.71"
/>
<path stroke="#89a7ff" vector-effect="non-scaling-stroke" d="
  M 464.25 385.71
  Q 497.96 329.67 499.98 264.25
  Q 501.98 199.49 471.90 141.48"
/>
<path stroke="#6c8be7" vector-effect="non-scaling-stroke" d="
  M 471.90 141.48
  Q 444.77 91.05 397.92 56.13"
/>
<path stroke="#89a7ff" vector-effect="non-scaling-stroke" d="
  M 397.92 56.13
  Q 346.59 17.87 283.25 10.26
  Q 219.89 2.65 160.36 27.95"
/>
<path stroke="#2456e7" vector-effect="non-scaling-stroke" d="
  M 397.92 56.13
  Q 401.38 92.58 386.34 124.63
  Q 375.00 148.77 354.18 166.34"
/>
<path stroke="#2947a4" vector-effect="non-scaling-stroke" d="
  M 354.18 166.34
  Q 358.80 154.69 361.17 143.50
  C 362.92 135.23 363.60 123.90 355.89 118.71
  Q 350.38 115.00 343.83 112.32
  Q 328.43 106.01 310.18 102.70
  Q 307.80 102.27 305.47 100.90
  Q 294.00 94.21 281.36 90.57
  C 271.73 87.80 260.39 86.82 252.99 94.98
  Q 241.95 107.17 249.50 122.62
  Q 249.80 123.23 249.13 123.32
  C 240.81 124.49 234.25 129.64 232.72 138.26
  C 230.81 149.00 242.79 156.48 251.14 159.85"
/>
<path stroke="#7094ff" vector-effect="non-scaling-stroke" d="
  M 251.14 159.85
  Q 251.00 176.13 253.87 193.08"
/>
<path stroke="#2456e7" vector-effect="non-scaling-stroke" d="
  M 253.87 193.08
  Q 243.81 191.32 233.54 187.77"
/>
<path stroke="#9caff2" vector-effect="non-scaling-stroke" d="
  M 233.54 187.77
  Q 225.11 175.10 212.60 164.40
  Q 198.22 152.11 180.50 149.08"
/>
<path stroke="#2456e7" vector-effect="non-scaling-stroke" d="
  M 180.50 149.08
  Q 158.26 120.96 153.94 85.23"
/>
<path stroke="#2947a4" vector-effect="non-scaling-stroke" d="
  M 153.94 85.23
  L 165.31 85.19
  Q 165.88 85.19 166.02 85.75
  Q 167.24 90.93 170.16 95.56
  A 0.58 0.56 51.3 0 1 170.09 96.27
  L 159.65 106.83
  A 0.50 0.49 45.4 0 0 159.65 107.52
  L 168.31 116.28
  A 0.36 0.36 0.0 0 0 168.83 116.28
  L 179.21 105.65
  Q 179.66 105.20 180.19 105.54
  Q 184.58 108.36 189.68 109.53
  Q 190.24 109.66 190.24 110.25
  L 190.24 125.10
  Q 190.24 125.71 190.85 125.71
  L 202.65 125.70
  Q 203.25 125.69 203.25 125.09
  L 203.25 110.27
  Q 203.25 109.72 203.79 109.60
  Q 208.86 108.53 213.54 105.61
  Q 213.96 105.34 214.30 105.70
  L 224.48 116.09
  Q 224.94 116.55 225.40 116.09
  L 233.71 107.64
  Q 234.18 107.17 233.71 106.70
  L 223.68 96.53
  A 0.68 0.67 -51.5 0 1 223.59 95.69
  Q 226.56 91.02 227.80 85.72
  Q 227.93 85.16 228.50 85.16
  L 242.50 85.18
  A 0.68 0.67 90.0 0 0 243.17 84.50
  L 243.18 72.56
  Q 243.18 71.95 242.56 71.95
  L 228.77 71.97
  Q 228.12 71.97 227.99 71.33
  Q 226.89 65.90 223.95 61.10
  Q 223.62 60.57 224.06 60.12
  L 233.91 50.17
  A 0.40 0.40 0.0 0 0 233.91 49.60
  L 225.38 40.97
  Q 224.96 40.55 224.54 40.97
  L 214.93 50.72
  Q 214.51 51.14 214.01 50.82
  Q 209.48 47.88 203.88 46.56
  Q 203.25 46.41 203.25 45.76
  L 203.25 31.97
  Q 203.25 31.44 202.72 31.44
  L 190.90 31.42
  Q 190.24 31.41 190.24 32.07
  L 190.24 45.98
  Q 190.24 46.53 189.69 46.65
  Q 184.26 47.84 179.66 51.00
  Q 179.17 51.34 178.75 50.91
  L 168.89 40.90
  A 0.49 0.48 -44.6 0 0 168.20 40.90
  L 159.46 49.71
  A 0.24 0.24 0.0 0 0 159.46 50.05
  L 169.78 60.46
  Q 170.07 60.75 169.85 61.11
  Q 166.89 65.98 165.85 71.27
  Q 165.73 71.89 165.10 71.88
  L 153.10 71.86"
/>
<path stroke="#2456e7" vector-effect="non-scaling-stroke" d="
  M 153.10 71.86
  Q 152.98 49.32 160.36 27.95"
/>
<path stroke="#2456e7" vector-effect="non-scaling-stroke" d="
  M 471.90 141.48
  Q 422.80 151.11 394.06 190.53
  Q 371.33 221.69 370.20 261.54"
/>
<path stroke="#1537a5" vector-effect="non-scaling-stroke" d="
  M 370.20 261.54
  L 352.13 250.32"
/>
<path stroke="#0c2b8c" vector-effect="non-scaling-stroke" d="
  M 352.13 250.32
  Q 352.18 249.02 351.36 248.64
  Q 339.28 242.89 327.17 236.91"
/>
<path stroke="#5379e7" vector-effect="non-scaling-stroke" d="
  M 327.17 236.91
  L 330.35 192.38
  Q 330.39 191.71 331.06 191.69
  C 338.32 191.52 343.29 189.45 347.05 182.55
  Q 349.21 178.60 349.10 175.34"
/>
<path stroke="#0c2b8c" vector-effect="non-scaling-stroke" d="
  M 349.10 175.34
  Q 349.12 175.78 349.16 175.92
  Q 349.42 176.92 349.83 175.98
  Q 352.09 170.84 354.18 166.34"
/>
<path stroke="#586aa4" vector-effect="non-scaling-stroke" d="
  M 327.17 236.91
  L 326.64 238.86"
/>
<path stroke="#cbd2f2" vector-effect="non-scaling-stroke" d="
  M 326.64 238.86
  Q 326.07 238.77 325.65 239.14
  Q 304.99 257.23 284.19 275.71"
/>
<path stroke="#586aa4" vector-effect="non-scaling-stroke" d="
  M 284.19 275.71
  L 279.62 279.51
  Q 279.20 279.86 278.80 279.50
  Q 278.26 279.03 278.04 278.07"
/>
<path stroke="#cbd2f2" vector-effect="non-scaling-stroke" d="
  M 278.04 278.07
  Q 278.18 278.12 278.30 278.13
  Q 278.66 278.17 278.63 277.80
  L 276.04 242.64"
/>
<path stroke="#586aa4" vector-effect="non-scaling-stroke" d="
  M 276.04 242.64
  L 276.29 240.68"
/>
<path stroke="#5379e7" vector-effect="non-scaling-stroke" d="
  M 276.29 240.68
  L 278.61 222.75"
/>
<path stroke="#586aa4" vector-effect="non-scaling-stroke" d="
  M 278.61 222.75
  L 305.46 214.87
  Q 307.85 214.16 305.36 214.12
  L 279.76 213.65"
/>
<path stroke="#5379e7" vector-effect="non-scaling-stroke" d="
  M 279.76 213.65
  Q 270.50 213.09 264.86 210.68
  C 259.73 208.49 257.48 205.06 255.84 199.73
  Q 254.69 196.01 253.87 193.08"
/>
<path stroke="#0c2b8c" vector-effect="non-scaling-stroke" d="
  M 153.10 71.86
  L 150.88 72.06
  Q 150.29 72.11 150.29 72.71
  L 150.28 84.48
  Q 150.28 85.05 150.85 85.08
  L 153.94 85.23"
/>
<path stroke="#7f94da" vector-effect="non-scaling-stroke" d="
  M 180.50 149.08
  C 167.69 148.31 156.61 151.29 144.63 155.77"
/>
<path stroke="#0c2b8c" vector-effect="non-scaling-stroke" d="
  M 144.63 155.77
  L 141.91 150.70
  Q 141.66 150.24 142.03 149.85
  L 153.94 137.71
  A 0.30 0.30 0.0 0 0 153.94 137.29
  L 143.66 126.76
  Q 143.18 126.27 142.70 126.76
  L 131.08 138.57
  Q 130.60 139.06 130.03 138.68
  Q 124.52 134.97 117.84 133.53
  Q 117.20 133.39 117.20 132.73
  L 117.21 116.03
  Q 117.21 115.42 116.59 115.42
  L 102.19 115.41
  A 0.65 0.65 0.0 0 0 101.54 116.06
  L 101.53 132.81
  A 0.83 0.82 84.0 0 1 100.88 133.62
  Q 94.48 135.10 88.82 138.81
  Q 88.26 139.18 87.79 138.71
  L 75.98 126.71
  A 0.57 0.57 0.0 0 0 75.16 126.71
  L 64.85 137.21
  A 0.43 0.43 0.0 0 0 64.85 137.81
  L 77.15 150.30
  Q 77.41 150.56 77.21 150.87
  Q 73.63 156.68 72.28 163.43
  A 0.56 0.55 -84.2 0 1 71.74 163.88
  L 54.29 163.87
  A 0.56 0.55 90.0 0 0 53.74 164.43
  L 53.71 175.99"
/>
<path stroke="#2456e7" vector-effect="non-scaling-stroke" d="
  M 53.71 175.99
  Q 36.43 180.60 20.86 190.00"
/>
<path stroke="#7f94da" vector-effect="non-scaling-stroke" d="
  M 233.54 187.77
  L 241.50 201.40
  A 0.30 0.30 0.0 0 1 241.24 201.86
  L 162.75 200.46"
/>
<path stroke="#9caff2" vector-effect="non-scaling-stroke" d="
  M 162.75 200.46
  L 148.58 200.30"
/>
<path stroke="#0c2b8c" vector-effect="non-scaling-stroke" d="
  M 279.76 213.65
  L 278.61 222.75"
/>
<path stroke="#0c2b8c" vector-effect="non-scaling-stroke" d="
  M 276.29 240.68
  Q 263.11 242.57 252.09 246.85
  Q 250.35 247.52 251.60 248.85"
/>
<path stroke="#7f94da" vector-effect="non-scaling-stroke" d="
  M 251.60 248.85
  L 245.98 251.37"
/>
<path stroke="#1537a5" vector-effect="non-scaling-stroke" d="
  M 245.98 251.37
  Q 228.74 258.75 215.01 270.52
  Q 211.12 273.86 206.13 279.38"
/>
<path stroke="#586aa4" vector-effect="non-scaling-stroke" d="
  M 349.10 175.34
  Q 350.71 166.85 344.53 162.49
  C 340.77 159.84 337.35 161.76 335.16 165.18
  Q 330.73 172.09 328.36 180.56
  Q 327.82 182.49 327.66 180.50
  L 326.62 166.74
  A 0.90 0.89 -86.1 0 0 325.92 165.93
  C 317.54 164.09 302.20 158.48 307.63 146.50
  Q 307.99 145.71 308.51 145.04
  Q 309.05 144.35 308.18 144.28
  C 289.27 142.76 278.65 129.51 277.42 111.45
  Q 277.38 110.83 276.81 111.10
  C 261.13 118.55 251.50 134.05 250.85 151.34
  Q 250.78 153.25 251.14 159.85"
/>
<path stroke="#1a2863" vector-effect="non-scaling-stroke" d="
  M 352.13 250.32
  Q 351.49 250.77 350.83 250.75"
/>
<path stroke="#848597" vector-effect="non-scaling-stroke" d="
  M 350.83 250.75
  L 320.04 256.05
  A 0.25 0.25 0.0 0 0 319.96 256.52
  Q 330.13 262.15 339.67 267.46
  Q 340.51 267.93 340.23 268.84
  A 0.87 0.87 0.0 0 1 339.40 269.45
  Q 324.36 269.46 309.99 271.30
  C 300.20 272.55 288.14 274.92 280.07 280.66
  Q 279.67 280.94 279.55 281.42
  Q 272.56 308.42 268.37 337.09
  C 266.04 353.08 265.96 370.45 265.49 387.24"
/>
<path stroke="#586aa4" vector-effect="non-scaling-stroke" d="
  M 265.49 387.24
  Q 263.73 387.47 263.55 386.55"
/>
<path stroke="#848597" vector-effect="non-scaling-stroke" d="
  M 263.55 386.55
  C 264.02 369.76 264.12 352.56 266.54 336.00
  Q 270.25 310.53 277.38 282.02
  Q 277.55 281.38 277.26 280.78
  Q 269.00 263.42 252.90 259.15
  Q 248.02 257.86 252.91 256.63
  Q 259.24 255.04 265.21 253.83
  Q 266.51 253.57 265.25 253.17
  L 251.60 248.85"
/>
<path stroke="#848597" vector-effect="non-scaling-stroke" d="
  M 276.04 242.64
  Q 265.35 244.41 256.25 247.40
  Q 255.05 247.80 256.26 248.18
  Q 263.26 250.38 270.36 252.69
  Q 270.71 252.80 270.90 253.10
  Q 271.14 253.50 270.96 253.93
  A 1.20 1.18 5.2 0 1 270.11 254.63
  L 257.29 257.58
  Q 255.86 257.90 257.22 258.45
  Q 271.12 264.03 278.04 278.07"
/>
<path stroke="#848597" vector-effect="non-scaling-stroke" d="
  M 284.19 275.71
  Q 292.91 272.56 295.50 271.95
  Q 312.35 267.96 334.68 267.43
  Q 335.57 267.41 334.79 266.98
  Q 324.96 261.55 315.88 256.46
  Q 315.12 256.03 315.66 255.10
  A 0.89 0.89 0.0 0 1 316.27 254.68
  L 347.21 249.33
  Q 347.84 249.22 347.27 248.94
  L 326.64 238.86"
/>
<path stroke="#8d91b1" vector-effect="non-scaling-stroke" d="
  M 416.11 355.25
  Q 415.96 358.07 414.19 362.04
  Q 413.98 362.52 413.48 362.70
  L 397.88 368.08
  A 0.90 0.90 0.0 0 0 397.31 368.70
  Q 397.09 369.59 397.83 369.87
  Q 405.53 372.84 413.06 375.73
  A 1.32 1.32 0.0 0 1 413.84 376.51
  L 419.57 392.00"
/>
<path stroke="#1537a5" vector-effect="non-scaling-stroke" d="
  M 419.57 392.00
  C 419.29 392.82 418.95 393.47 418.97 394.37
  Q 419.53 415.84 418.37 438.37"
/>
<path stroke="#1a2863" vector-effect="non-scaling-stroke" d="
  M 346.44 485.10
  Q 316.15 477.86 289.05 463.46"
/>
<path stroke="#8d91b1" vector-effect="non-scaling-stroke" d="
  M 289.05 463.46
  L 290.45 452.70"
/>
<path stroke="#6176be" vector-effect="non-scaling-stroke" d="
  M 290.45 452.70
  L 296.79 403.45"
/>
<path stroke="#8d91b1" vector-effect="non-scaling-stroke" d="
  M 296.79 403.45
  L 297.24 400.21"
/>
<path stroke="#1a2863" vector-effect="non-scaling-stroke" d="
  M 297.24 400.21
  Q 303.79 401.93 310.46 403.19
  C 311.44 403.37 312.37 404.07 313.42 404.35
  Q 338.26 410.96 371.67 419.67
  Q 372.56 419.91 372.88 419.04
  L 373.03 418.65
  A 0.56 0.55 -72.2 0 0 372.66 417.92
  L 355.66 413.45
  Q 355.22 413.34 355.30 412.90
  L 367.83 343.60
  Q 367.94 342.99 367.33 342.93
  L 366.93 342.89
  Q 366.01 342.79 365.84 343.70
  L 353.45 412.29
  A 0.49 0.48 12.2 0 1 352.85 412.67
  L 311.70 401.86"
/>
<path stroke="#8d91b1" vector-effect="non-scaling-stroke" d="
  M 311.70 401.86
  Q 312.21 390.95 313.41 382.49
  Q 315.80 365.69 320.46 347.04
  Q 332.69 298.11 350.83 250.75"
/>
<path stroke="#2456e7" vector-effect="non-scaling-stroke" d="
  M 464.25 385.71
  Q 448.52 381.79 434.10 373.69"
/>
<path stroke="#9caff2" vector-effect="non-scaling-stroke" d="
  M 434.10 373.69
  Q 438.58 371.56 442.95 370.16
  A 1.24 1.23 -24.5 0 0 443.63 368.35
  Q 443.55 368.21 442.83 367.94
  Q 435.44 365.19 428.15 362.68
  Q 427.48 362.45 427.23 361.78
  L 421.57 346.10
  A 1.06 1.05 45.5 0 0 419.59 346.08
  L 416.11 355.25"
/>
<path stroke="#3253be" vector-effect="non-scaling-stroke" d="
  M 416.11 355.25
  Q 412.51 327.36 405.71 308.00
  Q 401.91 297.17 397.44 289.31
  C 391.01 278.03 380.98 269.16 370.20 261.54"
/>
<path stroke="#9caff2" vector-effect="non-scaling-stroke" d="
  M 53.72 178.28
  Q 41.76 185.78 34.32 197.51
  Q 34.05 197.94 34.56 197.95
  L 71.78 198.73"
/>
<path stroke="#2456e7" vector-effect="non-scaling-stroke" d="
  M 162.75 200.46
  Q 198.87 232.11 206.13 279.38"
/>
<path stroke="#3253be" vector-effect="non-scaling-stroke" d="
  M 206.13 279.38
  Q 189.48 297.66 181.75 321.13
  C 176.15 338.14 175.48 356.15 174.07 373.86"
/>
<path stroke="#2947a4" vector-effect="non-scaling-stroke" d="
  M 174.07 373.86
  L 128.81 261.01
  A 0.93 0.92 -10.7 0 0 127.95 260.43
  L 21.53 260.42
  A 0.30 0.30 0.0 0 0 21.25 260.81
  L 64.04 395.69
  Q 64.17 396.10 64.61 396.12
  L 101.16 397.35"
/>
<path stroke="#3253be" vector-effect="non-scaling-stroke" d="
  M 101.16 397.35
  Q 107.10 408.22 114.02 417.84"
/>
<path stroke="#2456e7" vector-effect="non-scaling-stroke" d="
  M 114.02 417.84
  Q 109.09 418.71 104.22 419.51
  Q 89.39 421.95 73.37 421.07"
/>
<path stroke="#848597" vector-effect="non-scaling-stroke" d="
  M 144.63 155.77
  L 147.06 163.42
  Q 147.19 163.85 147.65 163.85
  L 164.29 163.86
  Q 164.96 163.86 164.96 164.54
  L 164.95 179.02
  Q 164.95 179.74 164.23 179.74
  L 147.25 179.74
  Q 146.71 179.74 146.59 180.27
  Q 145.10 186.73 141.49 192.34
  Q 141.20 192.77 141.57 193.15
  L 148.58 200.30"
/>
<path stroke="#2947a4" vector-effect="non-scaling-stroke" d="
  M 148.58 200.30
  L 153.78 205.87
  Q 154.10 206.21 153.77 206.55
  L 143.35 217.10
  A 0.30 0.30 0.0 0 1 142.93 217.10
  L 130.25 204.21
  A 0.51 0.50 -38.6 0 0 129.61 204.14
  Q 124.05 207.68 117.54 209.08
  A 0.45 0.45 0.0 0 0 117.19 209.52
  L 117.19 227.53
  Q 117.19 228.26 116.46 228.26
  L 102.15 228.26
  Q 101.54 228.26 101.54 227.65
  L 101.54 209.69
  Q 101.54 209.05 100.92 208.91
  Q 94.75 207.52 89.38 204.02
  A 0.64 0.64 0.0 0 0 88.57 204.11
  L 75.82 217.10
  A 0.29 0.28 44.3 0 1 75.41 217.10
  L 64.97 206.55
  Q 64.62 206.20 64.96 205.84
  L 71.78 198.73"
/>
<path stroke="#848597" vector-effect="non-scaling-stroke" d="
  M 71.78 198.73
  L 77.53 192.92
  Q 77.83 192.61 77.60 192.25
  Q 74.06 186.78 72.54 180.32
  Q 72.41 179.74 71.81 179.74
  L 54.50 179.74
  Q 54.02 179.74 53.86 179.29
  Q 53.69 178.81 53.72 178.28"
/>
<path stroke="#2947a4" vector-effect="non-scaling-stroke" d="
  M 53.72 178.28
  L 53.71 175.99"
/>
<path stroke="#cbd2f2" vector-effect="non-scaling-stroke" d="
  M 263.55 386.55
  Q 262.81 386.94 262.48 386.87
  Q 246.59 383.60 230.75 381.70"
/>
<path stroke="#8d91b1" vector-effect="non-scaling-stroke" d="
  M 230.75 381.70
  Q 231.04 350.10 232.64 319.01
  C 233.84 295.95 237.63 272.87 245.98 251.37"
/>
<path stroke="#6176be" vector-effect="non-scaling-stroke" d="
  M 230.75 381.70
  L 226.46 381.73"
/>
<path stroke="#1a2863" vector-effect="non-scaling-stroke" d="
  M 226.46 381.73
  Q 225.74 380.97 224.97 381.64
  Q 224.54 382.02 224.61 382.59
  Q 225.09 386.67 227.35 389.68
  Q 227.80 390.27 227.06 390.18
  L 209.22 387.88
  A 0.40 0.40 0.0 0 1 208.86 387.47
  L 210.16 344.05
  Q 210.17 343.42 209.55 343.33
  L 209.07 343.26
  Q 208.29 343.16 208.27 343.93
  L 206.95 387.07
  A 0.47 0.46 -85.5 0 1 206.43 387.52
  L 178.70 383.96
  A 0.95 0.93 82.1 0 1 177.96 383.39
  L 174.07 373.86"
/>
<path stroke="#cbd2f2" vector-effect="non-scaling-stroke" d="
  M 290.45 452.70
  Q 277.61 449.17 264.98 445.60
  Q 264.40 445.44 264.43 445.95"
/>
<path stroke="#586aa4" vector-effect="non-scaling-stroke" d="
  M 264.43 445.95
  Q 264.16 444.99 262.53 444.90"
/>
<path stroke="#cbd2f2" vector-effect="non-scaling-stroke" d="
  M 262.53 444.90
  Q 257.40 443.36 252.27 441.90
  C 248.86 440.94 237.32 436.68 239.49 431.37"
/>
<path stroke="#848597" vector-effect="non-scaling-stroke" d="
  M 311.70 401.86
  L 297.45 398.15
  A 0.81 0.81 0.0 0 0 296.47 398.70
  Q 296.14 399.81 297.24 400.21"
/>
<path stroke="#cbd2f2" vector-effect="non-scaling-stroke" d="
  M 296.79 403.45
  Q 292.59 401.87 291.39 400.89
  Q 283.28 394.30 273.90 389.79
  Q 272.06 388.91 269.75 388.33
  Q 267.60 387.80 265.49 387.24"
/>
<path stroke="#848597" vector-effect="non-scaling-stroke" d="
  M 289.05 463.46
  Q 288.12 463.80 288.05 464.64
  Q 288.01 465.15 288.46 465.39
  Q 300.99 472.00 314.16 477.10
  Q 315.14 477.48 315.18 478.21"
/>
<path stroke="#8d91b1" vector-effect="non-scaling-stroke" d="
  M 315.18 478.21
  L 317.27 494.79"
/>
<path stroke="#1a2863" vector-effect="non-scaling-stroke" d="
  M 342.82 486.39
  L 316.73 478.13
  Q 316.25 477.98 315.77 478.08
  L 315.18 478.21"
/>
<path stroke="#7f94da" vector-effect="non-scaling-stroke" d="
  M 434.10 373.69
  L 427.93 375.92
  Q 427.41 376.10 427.22 376.61
  L 421.49 392.10
  A 0.94 0.93 -54.9 0 1 419.90 392.38
  L 419.57 392.00"
/>
<path stroke="#586aa4" vector-effect="non-scaling-stroke" d="
  M 226.46 381.73
  C 226.94 388.47 231.97 392.37 238.00 394.19
  Q 250.56 398.00 263.30 400.20
  A 1.00 0.99 -58.3 0 1 263.72 401.98
  Q 263.38 402.24 262.95 402.16
  C 259.50 401.52 256.08 400.55 252.57 400.93
  C 249.20 401.29 245.76 401.49 242.38 401.46
  Q 222.28 401.30 202.88 400.68
  Q 202.28 400.66 202.67 401.10
  C 209.33 408.66 220.66 412.90 230.60 415.35
  Q 245.76 419.10 260.44 419.81
  A 0.74 0.73 3.1 0 1 261.14 420.58
  L 261.12 421.01
  Q 261.08 421.79 260.30 421.76
  Q 240.52 420.82 222.49 415.01
  Q 221.21 414.59 221.83 415.78
  Q 227.19 425.91 238.88 429.15
  Q 251.70 432.71 263.96 431.73
  A 0.71 0.70 67.9 0 1 264.54 431.98
  Q 264.79 432.29 264.77 432.64
  Q 264.71 433.75 263.60 433.81
  Q 251.27 434.54 239.49 431.37"
/>
<path stroke="#848597" vector-effect="non-scaling-stroke" d="
  M 239.49 431.37
  Q 234.74 430.28 230.29 427.67"
/>
<path stroke="#1a2863" vector-effect="non-scaling-stroke" d="
  M 230.29 427.67
  Q 223.42 423.50 219.82 416.13
  Q 219.58 415.65 219.77 415.16
  L 220.00 414.56
  Q 220.21 414.01 219.66 413.81
  Q 213.89 411.70 208.53 408.42
  Q 208.13 408.18 208.12 408.64
  L 205.57 498.43"
/>
<path stroke="#0c2b8c" vector-effect="non-scaling-stroke" d="
  M 203.97 498.07
  L 204.71 465.00"
/>
<path stroke="#1a2863" vector-effect="non-scaling-stroke" d="
  M 204.71 465.00
  L 206.35 408.27
  A 2.35 2.34 18.8 0 0 205.37 406.29
  Q 202.29 404.08 200.43 401.03
  Q 200.17 400.60 199.66 400.58
  L 101.16 397.35"
/>
<path stroke="#1537a5" vector-effect="non-scaling-stroke" d="
  M 204.71 465.00
  Q 178.70 471.51 155.38 457.86
  C 138.69 448.10 125.11 433.58 114.02 417.84"
/>
<path stroke="#848597" vector-effect="non-scaling-stroke" d="
  M 264.43 445.95
  L 263.83 502.80"
/>
<path stroke="#848597" vector-effect="non-scaling-stroke" d="
  M 262.53 444.90
  L 261.92 503.22"
/>
<path stroke="#8d91b1" vector-effect="non-scaling-stroke" d="
  M 230.29 427.67
  L 230.30 502.18"
/>
<path stroke="#9caff2" vector-effect="non-scaling-stroke" d="
  M 345.42 68.41
  A 1.00 1.00 0.0 0 1 344.82 67.80
  L 339.18 52.15
  A 1.00 1.00 0.0 0 0 337.30 52.14
  L 331.61 67.78
  A 1.00 1.00 0.0 0 1 331.00 68.38
  L 315.35 74.02
  A 1.00 1.00 0.0 0 0 315.34 75.90
  L 330.98 81.59
  A 1.00 1.00 0.0 0 1 331.58 82.20
  L 337.22 97.85
  A 1.00 1.00 0.0 0 0 339.10 97.86
  L 344.79 82.22
  A 1.00 1.00 0.0 0 1 345.40 81.62
  L 361.05 75.98
  A 1.00 1.00 0.0 0 0 361.06 74.10
  L 345.42 68.41"
/>
<path stroke="#2947a4" vector-effect="non-scaling-stroke" d="
  M 196.9427 96.8200
  A 18.74 18.45 89.9 0 0 215.3600 78.0478
  A 18.74 18.45 89.9 0 0 196.8773 59.3400
  A 18.74 18.45 89.9 0 0 178.4600 78.1122
  A 18.74 18.45 89.9 0 0 196.9427 96.8200"
/>
<path stroke="#586aa4" vector-effect="non-scaling-stroke" d="
  M 301.30 151.39
  L 301.46 151.15
  A 0.60 0.60 0.0 0 0 301.31 150.33
  Q 297.28 147.48 292.20 147.40
  Q 291.39 147.39 291.21 148.17
  Q 291.13 148.50 291.27 148.82
  A 0.83 0.82 78.9 0 0 292.01 149.32
  Q 296.13 149.39 299.95 151.69
  Q 300.77 152.19 301.30 151.39"
/>
<path stroke="#586aa4" vector-effect="non-scaling-stroke" d="
  M 255.50 153.23
  C 257.82 151.20 260.22 150.06 263.22 149.59
  A 0.69 0.69 0.0 0 0 263.79 148.77
  L 263.73 148.48
  A 0.94 0.94 0.0 0 0 262.69 147.74
  Q 257.88 148.37 254.48 151.68
  Q 253.74 152.40 254.55 153.05
  L 254.80 153.25
  A 0.55 0.55 0.0 0 0 255.50 153.23"
/>
<path stroke="#586aa4" vector-effect="non-scaling-stroke" d="
  M 262.4695 171.0500
  A 6.04 4.22 90.1 0 0 266.7000 165.0174
  A 6.04 4.22 90.1 0 0 262.4905 158.9700
  A 6.04 4.22 90.1 0 0 258.2600 165.0026
  A 6.04 4.22 90.1 0 0 262.4695 171.0500"
/>
<path stroke="#586aa4" vector-effect="non-scaling-stroke" d="
  M 295.3700 171.0600
  A 6.05 4.21 90.0 0 0 299.5800 165.0100
  A 6.05 4.21 90.0 0 0 295.3700 158.9600
  A 6.05 4.21 90.0 0 0 291.1600 165.0100
  A 6.05 4.21 90.0 0 0 295.3700 171.0600"
/>
<path stroke="#586aa4" vector-effect="non-scaling-stroke" d="
  M 338.73 174.18
  Q 341.57 169.78 345.33 166.57
  A 0.73 0.72 50.8 0 0 345.43 165.57
  L 345.27 165.37
  Q 344.67 164.60 343.93 165.24
  Q 335.35 172.62 333.10 183.30
  Q 332.95 184.02 333.67 184.16
  L 334.04 184.24
  A 0.71 0.71 0.0 0 0 334.85 183.77
  L 336.93 177.56
  A 1.03 1.01 -88.7 0 1 337.60 176.91
  Q 340.63 176.04 343.73 176.96
  A 0.73 0.73 0.0 0 0 344.64 176.47
  L 344.71 176.23
  A 0.95 0.95 0.0 0 0 344.08 175.04
  Q 341.51 174.26 339.01 174.61
  Q 338.39 174.70 338.73 174.18"
/>
<path stroke="#586aa4" vector-effect="non-scaling-stroke" d="
  M 281.17 187.94
  C 286.68 188.66 290.01 184.62 291.18 179.39
  A 0.58 0.57 -71.8 0 0 290.85 178.73
  L 290.57 178.60
  Q 289.63 178.18 289.31 179.16
  Q 288.14 182.84 287.24 183.74
  Q 283.04 187.94 278.53 184.79
  C 277.27 183.90 276.74 182.44 275.98 181.16
  A 0.48 0.48 0.0 0 0 275.33 180.98
  L 275.04 181.14
  Q 274.27 181.56 274.58 182.37
  Q 276.47 187.33 281.17 187.94"
/>
<path stroke="#848597" vector-effect="non-scaling-stroke" d="
  M 87.82 168.79
  Q 87.52 168.86 87.50 169.50
  Q 87.20 181.88 95.80 188.75
  C 106.06 196.95 121.06 194.68 128.04 183.52
  Q 134.03 173.95 130.15 163.06
  Q 130.09 162.91 129.96 162.80
  Q 129.67 162.57 129.57 162.76"
/>
<path stroke="#0c2b8c" vector-effect="non-scaling-stroke" d="
  M 129.57 162.76
  Q 129.60 161.76 129.22 161.02
  C 119.20 141.74 92.37 146.44 87.84 167.01
  Q 87.74 167.43 87.82 168.79"
/>
<path stroke="#7f94da" vector-effect="non-scaling-stroke" d="
  M 129.57 162.76
  Q 121.12 167.53 115.00 175.03
  Q 114.68 175.42 114.23 175.20
  Q 101.64 169.24 87.82 168.79"
/>
<path stroke="#9caff2" vector-effect="non-scaling-stroke" d="
  M 460.52 234.32
  A 1.00 1.00 0.0 0 1 459.92 233.72
  L 454.29 218.04
  A 1.00 1.00 0.0 0 0 452.41 218.04
  L 446.72 233.70
  A 1.00 1.00 0.0 0 1 446.12 234.30
  L 430.44 239.93
  A 1.00 1.00 0.0 0 0 430.44 241.81
  L 446.10 247.50
  A 1.00 1.00 0.0 0 1 446.70 248.10
  L 452.33 263.78
  A 1.00 1.00 0.0 0 0 454.21 263.78
  L 459.90 248.12
  A 1.00 1.00 0.0 0 1 460.50 247.52
  L 476.18 241.89
  A 1.00 1.00 0.0 0 0 476.18 240.01
  L 460.52 234.32"
/>
<path stroke="#9caff2" vector-effect="non-scaling-stroke" d="
  M 180.81 263.00
  A 1.01 1.01 0.0 0 1 180.20 262.39
  L 174.59 246.70
  A 1.01 1.01 0.0 0 0 172.69 246.70
  L 167.02 262.37
  A 1.01 1.01 0.0 0 1 166.41 262.98
  L 150.72 268.59
  A 1.01 1.01 0.0 0 0 150.72 270.49
  L 166.39 276.16
  A 1.01 1.01 0.0 0 1 167.00 276.77
  L 172.61 292.46
  A 1.01 1.01 0.0 0 0 174.51 292.46
  L 180.18 276.79
  A 1.01 1.01 0.0 0 1 180.79 276.18
  L 196.48 270.57
  A 1.01 1.01 0.0 0 0 196.48 268.67
  L 180.81 263.00"
/>
<path stroke="#2947a4" vector-effect="non-scaling-stroke" d="
  M 73.77 313.86
  A 1.08 1.08 0.0 0 0 72.73 315.26
  L 79.92 338.82
  A 1.08 1.08 0.0 0 0 80.95 339.58
  L 111.63 339.58
  A 1.08 1.08 0.0 0 0 112.67 338.22
  L 106.33 314.87
  A 1.08 1.08 0.0 0 0 105.30 314.07
  L 73.77 313.86"
/>
<path stroke="#2947a4" vector-effect="non-scaling-stroke" d="
  M 75.59 315.81
  A 0.38 0.38 0.0 0 0 75.22 316.31
  L 81.64 337.31
  A 0.38 0.38 0.0 0 0 82.00 337.58
  L 109.85 337.58
  A 0.38 0.38 0.0 0 0 110.22 337.10
  L 104.57 316.33
  A 0.38 0.38 0.0 0 0 104.20 316.05
  L 75.59 315.81"
/>
</g>
<path fill="#d1dcff" d="
  M 250.38 0.00
  L 262.52 0.00
  Q 358.15 3.75 427.94 66.42
  C 453.82 89.67 474.63 118.52 489.08 150.15
  Q 508.52 192.73 511.34 240.26
  Q 511.59 244.46 512.00 248.63
  L 512.00 263.75
  Q 511.61 266.71 511.45 269.75
  Q 508.85 318.24 489.19 361.61
  C 474.49 394.04 452.74 423.79 425.69 447.56
  Q 356.00 508.84 261.40 512.00
  L 248.50 512.00
  Q 161.44 508.40 94.79 454.78
  C 68.79 433.87 46.82 407.28 31.05 378.25
  Q 1.83 324.49 0.00 262.11
  L 0.00 248.00
  Q 0.47 242.13 0.91 236.26
  Q 3.76 197.90 17.63 162.20
  Q 21.17 153.09 25.78 143.95
  Q 66.57 63.00 146.31 24.55
  Q 194.18 1.46 250.38 0.00
  Z
  M 160.36 27.95
  Q 115.96 47.26 82.85 81.35
  Q 38.01 127.51 20.86 190.00
  Q 9.09 234.06 12.77 278.00
  Q 18.75 349.40 62.09 407.17
  Q 67.89 414.90 73.37 421.07
  C 108.06 460.21 152.99 487.09 203.97 498.07
  Q 204.72 498.45 205.57 498.43
  L 230.30 502.18
  Q 246.16 503.84 261.92 503.22
  Q 263.82 503.47 263.83 502.80
  Q 264.04 502.93 264.27 503.05
  Q 264.49 503.15 264.73 503.14
  Q 288.34 502.17 312.01 496.40
  C 313.78 495.97 314.96 494.88 316.94 495.16
  Q 317.11 495.19 317.21 495.05
  Q 317.29 494.93 317.27 494.79
  Q 317.42 494.94 317.68 494.87
  Q 330.07 491.56 342.82 486.39
  Q 344.12 486.49 346.44 485.10
  Q 387.09 468.13 418.37 438.37
  C 435.77 422.28 451.51 405.66 464.25 385.71
  Q 497.96 329.67 499.98 264.25
  Q 501.98 199.49 471.90 141.48
  Q 444.77 91.05 397.92 56.13
  Q 346.59 17.87 283.25 10.26
  Q 219.89 2.65 160.36 27.95
  Z"
/>
<path fill="#4071ff" d="
  M 397.92 56.13
  Q 401.38 92.58 386.34 124.63
  Q 375.00 148.77 354.18 166.34
  Q 358.80 154.69 361.17 143.50
  C 362.92 135.23 363.60 123.90 355.89 118.71
  Q 350.38 115.00 343.83 112.32
  Q 328.43 106.01 310.18 102.70
  Q 307.80 102.27 305.47 100.90
  Q 294.00 94.21 281.36 90.57
  C 271.73 87.80 260.39 86.82 252.99 94.98
  Q 241.95 107.17 249.50 122.62
  Q 249.80 123.23 249.13 123.32
  C 240.81 124.49 234.25 129.64 232.72 138.26
  C 230.81 149.00 242.79 156.48 251.14 159.85
  Q 251.00 176.13 253.87 193.08
  Q 243.81 191.32 233.54 187.77
  Q 225.11 175.10 212.60 164.40
  Q 198.22 152.11 180.50 149.08
  Q 158.26 120.96 153.94 85.23
  L 165.31 85.19
  Q 165.88 85.19 166.02 85.75
  Q 167.24 90.93 170.16 95.56
  A 0.58 0.56 51.3 0 1 170.09 96.27
  L 159.65 106.83
  A 0.50 0.49 45.4 0 0 159.65 107.52
  L 168.31 116.28
  A 0.36 0.36 0.0 0 0 168.83 116.28
  L 179.21 105.65
  Q 179.66 105.20 180.19 105.54
  Q 184.58 108.36 189.68 109.53
  Q 190.24 109.66 190.24 110.25
  L 190.24 125.10
  Q 190.24 125.71 190.85 125.71
  L 202.65 125.70
  Q 203.25 125.69 203.25 125.09
  L 203.25 110.27
  Q 203.25 109.72 203.79 109.60
  Q 208.86 108.53 213.54 105.61
  Q 213.96 105.34 214.30 105.70
  L 224.48 116.09
  Q 224.94 116.55 225.40 116.09
  L 233.71 107.64
  Q 234.18 107.17 233.71 106.70
  L 223.68 96.53
  A 0.68 0.67 -51.5 0 1 223.59 95.69
  Q 226.56 91.02 227.80 85.72
  Q 227.93 85.16 228.50 85.16
  L 242.50 85.18
  A 0.68 0.67 90.0 0 0 243.17 84.50
  L 243.18 72.56
  Q 243.18 71.95 242.56 71.95
  L 228.77 71.97
  Q 228.12 71.97 227.99 71.33
  Q 226.89 65.90 223.95 61.10
  Q 223.62 60.57 224.06 60.12
  L 233.91 50.17
  A 0.40 0.40 0.0 0 0 233.91 49.60
  L 225.38 40.97
  Q 224.96 40.55 224.54 40.97
  L 214.93 50.72
  Q 214.51 51.14 214.01 50.82
  Q 209.48 47.88 203.88 46.56
  Q 203.25 46.41 203.25 45.76
  L 203.25 31.97
  Q 203.25 31.44 202.72 31.44
  L 190.90 31.42
  Q 190.24 31.41 190.24 32.07
  L 190.24 45.98
  Q 190.24 46.53 189.69 46.65
  Q 184.26 47.84 179.66 51.00
  Q 179.17 51.34 178.75 50.91
  L 168.89 40.90
  A 0.49 0.48 -44.6 0 0 168.20 40.90
  L 159.46 49.71
  A 0.24 0.24 0.0 0 0 159.46 50.05
  L 169.78 60.46
  Q 170.07 60.75 169.85 61.11
  Q 166.89 65.98 165.85 71.27
  Q 165.73 71.89 165.10 71.88
  L 153.10 71.86
  Q 152.98 49.32 160.36 27.95
  Q 219.89 2.65 283.25 10.26
  Q 346.59 17.87 397.92 56.13
  Z
  M 345.42 68.41
  A 1.00 1.00 0.0 0 1 344.82 67.80
  L 339.18 52.15
  A 1.00 1.00 0.0 0 0 337.30 52.14
  L 331.61 67.78
  A 1.00 1.00 0.0 0 1 331.00 68.38
  L 315.35 74.02
  A 1.00 1.00 0.0 0 0 315.34 75.90
  L 330.98 81.59
  A 1.00 1.00 0.0 0 1 331.58 82.20
  L 337.22 97.85
  A 1.00 1.00 0.0 0 0 339.10 97.86
  L 344.79 82.22
  A 1.00 1.00 0.0 0 1 345.40 81.62
  L 361.05 75.98
  A 1.00 1.00 0.0 0 0 361.06 74.10
  L 345.42 68.41
  Z"
/>
<path fill="#073ace" d="
  M 160.36 27.95
  Q 152.98 49.32 153.10 71.86
  L 150.88 72.06
  Q 150.29 72.11 150.29 72.71
  L 150.28 84.48
  Q 150.28 85.05 150.85 85.08
  L 153.94 85.23
  Q 158.26 120.96 180.50 149.08
  C 167.69 148.31 156.61 151.29 144.63 155.77
  L 141.91 150.70
  Q 141.66 150.24 142.03 149.85
  L 153.94 137.71
  A 0.30 0.30 0.0 0 0 153.94 137.29
  L 143.66 126.76
  Q 143.18 126.27 142.70 126.76
  L 131.08 138.57
  Q 130.60 139.06 130.03 138.68
  Q 124.52 134.97 117.84 133.53
  Q 117.20 133.39 117.20 132.73
  L 117.21 116.03
  Q 117.21 115.42 116.59 115.42
  L 102.19 115.41
  A 0.65 0.65 0.0 0 0 101.54 116.06
  L 101.53 132.81
  A 0.83 0.82 84.0 0 1 100.88 133.62
  Q 94.48 135.10 88.82 138.81
  Q 88.26 139.18 87.79 138.71
  L 75.98 126.71
  A 0.57 0.57 0.0 0 0 75.16 126.71
  L 64.85 137.21
  A 0.43 0.43 0.0 0 0 64.85 137.81
  L 77.15 150.30
  Q 77.41 150.56 77.21 150.87
  Q 73.63 156.68 72.28 163.43
  A 0.56 0.55 -84.2 0 1 71.74 163.88
  L 54.29 163.87
  A 0.56 0.55 90.0 0 0 53.74 164.43
  L 53.71 175.99
  Q 36.43 180.60 20.86 190.00
  Q 38.01 127.51 82.85 81.35
  Q 115.96 47.26 160.36 27.95
  Z"
/>
<path fill="#111c49" d="
  M 153.94 85.23
  L 150.85 85.08
  Q 150.28 85.05 150.28 84.48
  L 150.29 72.71
  Q 150.29 72.11 150.88 72.06
  L 153.10 71.86
  L 165.10 71.88
  Q 165.73 71.89 165.85 71.27
  Q 166.89 65.98 169.85 61.11
  Q 170.07 60.75 169.78 60.46
  L 159.46 50.05
  A 0.24 0.24 0.0 0 1 159.46 49.71
  L 168.20 40.90
  A 0.49 0.48 -44.6 0 1 168.89 40.90
  L 178.75 50.91
  Q 179.17 51.34 179.66 51.00
  Q 184.26 47.84 189.69 46.65
  Q 190.24 46.53 190.24 45.98
  L 190.24 32.07
  Q 190.24 31.41 190.90 31.42
  L 202.72 31.44
  Q 203.25 31.44 203.25 31.97
  L 203.25 45.76
  Q 203.25 46.41 203.88 46.56
  Q 209.48 47.88 214.01 50.82
  Q 214.51 51.14 214.93 50.72
  L 224.54 40.97
  Q 224.96 40.55 225.38 40.97
  L 233.91 49.60
  A 0.40 0.40 0.0 0 1 233.91 50.17
  L 224.06 60.12
  Q 223.62 60.57 223.95 61.10
  Q 226.89 65.90 227.99 71.33
  Q 228.12 71.97 228.77 71.97
  L 242.56 71.95
  Q 243.18 71.95 243.18 72.56
  L 243.17 84.50
  A 0.68 0.67 90.0 0 1 242.50 85.18
  L 228.50 85.16
  Q 227.93 85.16 227.80 85.72
  Q 226.56 91.02 223.59 95.69
  A 0.68 0.67 -51.5 0 0 223.68 96.53
  L 233.71 106.70
  Q 234.18 107.17 233.71 107.64
  L 225.40 116.09
  Q 224.94 116.55 224.48 116.09
  L 214.30 105.70
  Q 213.96 105.34 213.54 105.61
  Q 208.86 108.53 203.79 109.60
  Q 203.25 109.72 203.25 110.27
  L 203.25 125.09
  Q 203.25 125.69 202.65 125.70
  L 190.85 125.71
  Q 190.24 125.71 190.24 125.10
  L 190.24 110.25
  Q 190.24 109.66 189.68 109.53
  Q 184.58 108.36 180.19 105.54
  Q 179.66 105.20 179.21 105.65
  L 168.83 116.28
  A 0.36 0.36 0.0 0 1 168.31 116.28
  L 159.65 107.52
  A 0.50 0.49 45.4 0 1 159.65 106.83
  L 170.09 96.27
  A 0.58 0.56 51.3 0 0 170.16 95.56
  Q 167.24 90.93 166.02 85.75
  Q 165.88 85.19 165.31 85.19
  L 153.94 85.23
  Z
  M 196.9427 96.8200
  A 18.74 18.45 89.9 0 0 215.3600 78.0478
  A 18.74 18.45 89.9 0 0 196.8773 59.3400
  A 18.74 18.45 89.9 0 0 178.4600 78.1122
  A 18.74 18.45 89.9 0 0 196.9427 96.8200
  Z"
/>
<path fill="#f7ede5" d="
  M 345.42 68.41
  L 361.06 74.10
  A 1.00 1.00 0.0 0 1 361.05 75.98
  L 345.40 81.62
  A 1.00 1.00 0.0 0 0 344.79 82.22
  L 339.10 97.86
  A 1.00 1.00 0.0 0 1 337.22 97.85
  L 331.58 82.20
  A 1.00 1.00 0.0 0 0 330.98 81.59
  L 315.34 75.90
  A 1.00 1.00 0.0 0 1 315.35 74.02
  L 331.00 68.38
  A 1.00 1.00 0.0 0 0 331.61 67.78
  L 337.30 52.14
  A 1.00 1.00 0.0 0 1 339.18 52.15
  L 344.82 67.80
  A 1.00 1.00 0.0 0 0 345.42 68.41
  Z"
/>
<path fill="#073ace" d="
  M 397.92 56.13
  Q 444.77 91.05 471.90 141.48
  Q 422.80 151.11 394.06 190.53
  Q 371.33 221.69 370.20 261.54
  L 352.13 250.32
  Q 352.18 249.02 351.36 248.64
  Q 339.28 242.89 327.17 236.91
  L 330.35 192.38
  Q 330.39 191.71 331.06 191.69
  C 338.32 191.52 343.29 189.45 347.05 182.55
  Q 349.21 178.60 349.10 175.34
  Q 349.12 175.78 349.16 175.92
  Q 349.42 176.92 349.83 175.98
  Q 352.09 170.84 354.18 166.34
  Q 375.00 148.77 386.34 124.63
  Q 401.38 92.58 397.92 56.13
  Z"
/>
<ellipse fill="#4071ff" cx="0.00" cy="0.00" transform="translate(196.91,78.08) rotate(89.9)" rx="18.74" ry="18.45"/>
<path fill="#111c49" d="
  M 354.18 166.34
  Q 352.09 170.84 349.83 175.98
  Q 349.42 176.92 349.16 175.92
  Q 349.12 175.78 349.10 175.34
  Q 350.71 166.85 344.53 162.49
  C 340.77 159.84 337.35 161.76 335.16 165.18
  Q 330.73 172.09 328.36 180.56
  Q 327.82 182.49 327.66 180.50
  L 326.62 166.74
  A 0.90 0.89 -86.1 0 0 325.92 165.93
  C 317.54 164.09 302.20 158.48 307.63 146.50
  Q 307.99 145.71 308.51 145.04
  Q 309.05 144.35 308.18 144.28
  C 289.27 142.76 278.65 129.51 277.42 111.45
  Q 277.38 110.83 276.81 111.10
  C 261.13 118.55 251.50 134.05 250.85 151.34
  Q 250.78 153.25 251.14 159.85
  C 242.79 156.48 230.81 149.00 232.72 138.26
  C 234.25 129.64 240.81 124.49 249.13 123.32
  Q 249.80 123.23 249.50 122.62
  Q 241.95 107.17 252.99 94.98
  C 260.39 86.82 271.73 87.80 281.36 90.57
  Q 294.00 94.21 305.47 100.90
  Q 307.80 102.27 310.18 102.70
  Q 328.43 106.01 343.83 112.32
  Q 350.38 115.00 355.89 118.71
  C 363.60 123.90 362.92 135.23 361.17 143.50
  Q 358.80 154.69 354.18 166.34
  Z"
/>
<path fill="#9fb7ff" d="
  M 349.10 175.34
  Q 349.21 178.60 347.05 182.55
  C 343.29 189.45 338.32 191.52 331.06 191.69
  Q 330.39 191.71 330.35 192.38
  L 327.17 236.91
  L 326.64 238.86
  Q 326.07 238.77 325.65 239.14
  Q 304.99 257.23 284.19 275.71
  L 279.62 279.51
  Q 279.20 279.86 278.80 279.50
  Q 278.26 279.03 278.04 278.07
  Q 278.18 278.12 278.30 278.13
  Q 278.66 278.17 278.63 277.80
  L 276.04 242.64
  L 276.29 240.68
  L 278.61 222.75
  L 305.46 214.87
  Q 307.85 214.16 305.36 214.12
  L 279.76 213.65
  Q 270.50 213.09 264.86 210.68
  C 259.73 208.49 257.48 205.06 255.84 199.73
  Q 254.69 196.01 253.87 193.08
  Q 251.00 176.13 251.14 159.85
  Q 250.78 153.25 250.85 151.34
  C 251.50 134.05 261.13 118.55 276.81 111.10
  Q 277.38 110.83 277.42 111.45
  C 278.65 129.51 289.27 142.76 308.18 144.28
  Q 309.05 144.35 308.51 145.04
  Q 307.99 145.71 307.63 146.50
  C 302.20 158.48 317.54 164.09 325.92 165.93
  A 0.90 0.89 -86.1 0 1 326.62 166.74
  L 327.66 180.50
  Q 327.82 182.49 328.36 180.56
  Q 330.73 172.09 335.16 165.18
  C 337.35 161.76 340.77 159.84 344.53 162.49
  Q 350.71 166.85 349.10 175.34
  Z
  M 301.30 151.39
  L 301.46 151.15
  A 0.60 0.60 0.0 0 0 301.31 150.33
  Q 297.28 147.48 292.20 147.40
  Q 291.39 147.39 291.21 148.17
  Q 291.13 148.50 291.27 148.82
  A 0.83 0.82 78.9 0 0 292.01 149.32
  Q 296.13 149.39 299.95 151.69
  Q 300.77 152.19 301.30 151.39
  Z
  M 255.50 153.23
  C 257.82 151.20 260.22 150.06 263.22 149.59
  A 0.69 0.69 0.0 0 0 263.79 148.77
  L 263.73 148.48
  A 0.94 0.94 0.0 0 0 262.69 147.74
  Q 257.88 148.37 254.48 151.68
  Q 253.74 152.40 254.55 153.05
  L 254.80 153.25
  A 0.55 0.55 0.0 0 0 255.50 153.23
  Z
  M 262.4695 171.0500
  A 6.04 4.22 90.1 0 0 266.7000 165.0174
  A 6.04 4.22 90.1 0 0 262.4905 158.9700
  A 6.04 4.22 90.1 0 0 258.2600 165.0026
  A 6.04 4.22 90.1 0 0 262.4695 171.0500
  Z
  M 295.3700 171.0600
  A 6.05 4.21 90.0 0 0 299.5800 165.0100
  A 6.05 4.21 90.0 0 0 295.3700 158.9600
  A 6.05 4.21 90.0 0 0 291.1600 165.0100
  A 6.05 4.21 90.0 0 0 295.3700 171.0600
  Z
  M 338.73 174.18
  Q 341.57 169.78 345.33 166.57
  A 0.73 0.72 50.8 0 0 345.43 165.57
  L 345.27 165.37
  Q 344.67 164.60 343.93 165.24
  Q 335.35 172.62 333.10 183.30
  Q 332.95 184.02 333.67 184.16
  L 334.04 184.24
  A 0.71 0.71 0.0 0 0 334.85 183.77
  L 336.93 177.56
  A 1.03 1.01 -88.7 0 1 337.60 176.91
  Q 340.63 176.04 343.73 176.96
  A 0.73 0.73 0.0 0 0 344.64 176.47
  L 344.71 176.23
  A 0.95 0.95 0.0 0 0 344.08 175.04
  Q 341.51 174.26 339.01 174.61
  Q 338.39 174.70 338.73 174.18
  Z
  M 281.17 187.94
  C 286.68 188.66 290.01 184.62 291.18 179.39
  A 0.58 0.57 -71.8 0 0 290.85 178.73
  L 290.57 178.60
  Q 289.63 178.18 289.31 179.16
  Q 288.14 182.84 287.24 183.74
  Q 283.04 187.94 278.53 184.79
  C 277.27 183.90 276.74 182.44 275.98 181.16
  A 0.48 0.48 0.0 0 0 275.33 180.98
  L 275.04 181.14
  Q 274.27 181.56 274.58 182.37
  Q 276.47 187.33 281.17 187.94
  Z"
/>
<path fill="#111c49" d="
  M 144.63 155.77
  L 147.06 163.42
  Q 147.19 163.85 147.65 163.85
  L 164.29 163.86
  Q 164.96 163.86 164.96 164.54
  L 164.95 179.02
  Q 164.95 179.74 164.23 179.74
  L 147.25 179.74
  Q 146.71 179.74 146.59 180.27
  Q 145.10 186.73 141.49 192.34
  Q 141.20 192.77 141.57 193.15
  L 148.58 200.30
  L 153.78 205.87
  Q 154.10 206.21 153.77 206.55
  L 143.35 217.10
  A 0.30 0.30 0.0 0 1 142.93 217.10
  L 130.25 204.21
  A 0.51 0.50 -38.6 0 0 129.61 204.14
  Q 124.05 207.68 117.54 209.08
  A 0.45 0.45 0.0 0 0 117.19 209.52
  L 117.19 227.53
  Q 117.19 228.26 116.46 228.26
  L 102.15 228.26
  Q 101.54 228.26 101.54 227.65
  L 101.54 209.69
  Q 101.54 209.05 100.92 208.91
  Q 94.75 207.52 89.38 204.02
  A 0.64 0.64 0.0 0 0 88.57 204.11
  L 75.82 217.10
  A 0.29 0.28 44.3 0 1 75.41 217.10
  L 64.97 206.55
  Q 64.62 206.20 64.96 205.84
  L 71.78 198.73
  L 77.53 192.92
  Q 77.83 192.61 77.60 192.25
  Q 74.06 186.78 72.54 180.32
  Q 72.41 179.74 71.81 179.74
  L 54.50 179.74
  Q 54.02 179.74 53.86 179.29
  Q 53.69 178.81 53.72 178.28
  L 53.71 175.99
  L 53.74 164.43
  A 0.56 0.55 -90.0 0 1 54.29 163.87
  L 71.74 163.88
  A 0.56 0.55 -84.2 0 0 72.28 163.43
  Q 73.63 156.68 77.21 150.87
  Q 77.41 150.56 77.15 150.30
  L 64.85 137.81
  A 0.43 0.43 0.0 0 1 64.85 137.21
  L 75.16 126.71
  A 0.57 0.57 0.0 0 1 75.98 126.71
  L 87.79 138.71
  Q 88.26 139.18 88.82 138.81
  Q 94.48 135.10 100.88 133.62
  A 0.83 0.82 84.0 0 0 101.53 132.81
  L 101.54 116.06
  A 0.65 0.65 0.0 0 1 102.19 115.41
  L 116.59 115.42
  Q 117.21 115.42 117.21 116.03
  L 117.20 132.73
  Q 117.20 133.39 117.84 133.53
  Q 124.52 134.97 130.03 138.68
  Q 130.60 139.06 131.08 138.57
  L 142.70 126.76
  Q 143.18 126.27 143.66 126.76
  L 153.94 137.29
  A 0.30 0.30 0.0 0 1 153.94 137.71
  L 142.03 149.85
  Q 141.66 150.24 141.91 150.70
  L 144.63 155.77
  Z
  M 87.82 168.79
  Q 87.52 168.86 87.50 169.50
  Q 87.20 181.88 95.80 188.75
  C 106.06 196.95 121.06 194.68 128.04 183.52
  Q 134.03 173.95 130.15 163.06
  Q 130.09 162.91 129.96 162.80
  Q 129.67 162.57 129.57 162.76
  Q 129.60 161.76 129.22 161.02
  C 119.20 141.74 92.37 146.44 87.84 167.01
  Q 87.74 167.43 87.82 168.79
  Z"
/>
<path fill="#4071ff" d="
  M 471.90 141.48
  Q 501.98 199.49 499.98 264.25
  Q 497.96 329.67 464.25 385.71
  Q 448.52 381.79 434.10 373.69
  Q 438.58 371.56 442.95 370.16
  A 1.24 1.23 -24.5 0 0 443.63 368.35
  Q 443.55 368.21 442.83 367.94
  Q 435.44 365.19 428.15 362.68
  Q 427.48 362.45 427.23 361.78
  L 421.57 346.10
  A 1.06 1.05 45.5 0 0 419.59 346.08
  L 416.11 355.25
  Q 412.51 327.36 405.71 308.00
  Q 401.91 297.17 397.44 289.31
  C 391.01 278.03 380.98 269.16 370.20 261.54
  Q 371.33 221.69 394.06 190.53
  Q 422.80 151.11 471.90 141.48
  Z
  M 460.52 234.32
  A 1.00 1.00 0.0 0 1 459.92 233.72
  L 454.29 218.04
  A 1.00 1.00 0.0 0 0 452.41 218.04
  L 446.72 233.70
  A 1.00 1.00 0.0 0 1 446.12 234.30
  L 430.44 239.93
  A 1.00 1.00 0.0 0 0 430.44 241.81
  L 446.10 247.50
  A 1.00 1.00 0.0 0 1 446.70 248.10
  L 452.33 263.78
  A 1.00 1.00 0.0 0 0 454.21 263.78
  L 459.90 248.12
  A 1.00 1.00 0.0 0 1 460.50 247.52
  L 476.18 241.89
  A 1.00 1.00 0.0 0 0 476.18 240.01
  L 460.52 234.32
  Z"
/>
<path fill="#111c49" d="
  M 299.95 151.69
  Q 296.13 149.39 292.01 149.32
  A 0.83 0.82 78.9 0 1 291.27 148.82
  Q 291.13 148.50 291.21 148.17
  Q 291.39 147.39 292.20 147.40
  Q 297.28 147.48 301.31 150.33
  A 0.60 0.60 0.0 0 1 301.46 151.15
  L 301.30 151.39
  Q 300.77 152.19 299.95 151.69
  Z"
/>
<path fill="#111c49" d="
  M 263.22 149.59
  C 260.22 150.06 257.82 151.20 255.50 153.23
  A 0.55 0.55 0.0 0 1 254.80 153.25
  L 254.55 153.05
  Q 253.74 152.40 254.48 151.68
  Q 257.88 148.37 262.69 147.74
  A 0.94 0.94 0.0 0 1 263.73 148.48
  L 263.79 148.77
  A 0.69 0.69 0.0 0 1 263.22 149.59
  Z"
/>
<path fill="#073ace" d="
  M 129.57 162.76
  Q 121.12 167.53 115.00 175.03
  Q 114.68 175.42 114.23 175.20
  Q 101.64 169.24 87.82 168.79
  Q 87.74 167.43 87.84 167.01
  C 92.37 146.44 119.20 141.74 129.22 161.02
  Q 129.60 161.76 129.57 162.76
  Z"
/>
<path fill="#f7ede5" d="
  M 180.50 149.08
  Q 198.22 152.11 212.60 164.40
  Q 225.11 175.10 233.54 187.77
  L 241.50 201.40
  A 0.30 0.30 0.0 0 1 241.24 201.86
  L 162.75 200.46
  L 148.58 200.30
  L 141.57 193.15
  Q 141.20 192.77 141.49 192.34
  Q 145.10 186.73 146.59 180.27
  Q 146.71 179.74 147.25 179.74
  L 164.23 179.74
  Q 164.95 179.74 164.95 179.02
  L 164.96 164.54
  Q 164.96 163.86 164.29 163.86
  L 147.65 163.85
  Q 147.19 163.85 147.06 163.42
  L 144.63 155.77
  C 156.61 151.29 167.69 148.31 180.50 149.08
  Z"
/>
<ellipse fill="#111c49" cx="0.00" cy="0.00" transform="translate(262.48,165.01) rotate(90.1)" rx="6.04" ry="4.22"/>
<ellipse fill="#111c49" cx="0.00" cy="0.00" transform="translate(295.37,165.01) rotate(90.0)" rx="6.05" ry="4.21"/>
<path fill="#f7ede5" d="
  M 129.57 162.76
  Q 129.67 162.57 129.96 162.80
  Q 130.09 162.91 130.15 163.06
  Q 134.03 173.95 128.04 183.52
  C 121.06 194.68 106.06 196.95 95.80 188.75
  Q 87.20 181.88 87.50 169.50
  Q 87.52 168.86 87.82 168.79
  Q 101.64 169.24 114.23 175.20
  Q 114.68 175.42 115.00 175.03
  Q 121.12 167.53 129.57 162.76
  Z"
/>
<path fill="#111c49" d="
  M 339.01 174.61
  Q 341.51 174.26 344.08 175.04
  A 0.95 0.95 0.0 0 1 344.71 176.23
  L 344.64 176.47
  A 0.73 0.73 0.0 0 1 343.73 176.96
  Q 340.63 176.04 337.60 176.91
  A 1.03 1.01 -88.7 0 0 336.93 177.56
  L 334.85 183.77
  A 0.71 0.71 0.0 0 1 334.04 184.24
  L 333.67 184.16
  Q 332.95 184.02 333.10 183.30
  Q 335.35 172.62 343.93 165.24
  Q 344.67 164.60 345.27 165.37
  L 345.43 165.57
  A 0.73 0.72 50.8 0 1 345.33 166.57
  Q 341.57 169.78 338.73 174.18
  Q 338.39 174.70 339.01 174.61
  Z"
/>
<path fill="#4071ff" d="
  M 53.71 175.99
  L 53.72 178.28
  Q 41.76 185.78 34.32 197.51
  Q 34.05 197.94 34.56 197.95
  L 71.78 198.73
  L 64.96 205.84
  Q 64.62 206.20 64.97 206.55
  L 75.41 217.10
  A 0.29 0.28 44.3 0 0 75.82 217.10
  L 88.57 204.11
  A 0.64 0.64 0.0 0 1 89.38 204.02
  Q 94.75 207.52 100.92 208.91
  Q 101.54 209.05 101.54 209.69
  L 101.54 227.65
  Q 101.54 228.26 102.15 228.26
  L 116.46 228.26
  Q 117.19 228.26 117.19 227.53
  L 117.19 209.52
  A 0.45 0.45 0.0 0 1 117.54 209.08
  Q 124.05 207.68 129.61 204.14
  A 0.51 0.50 -38.6 0 1 130.25 204.21
  L 142.93 217.10
  A 0.30 0.30 0.0 0 0 143.35 217.10
  L 153.77 206.55
  Q 154.10 206.21 153.78 205.87
  L 148.58 200.30
  L 162.75 200.46
  Q 198.87 232.11 206.13 279.38
  Q 189.48 297.66 181.75 321.13
  C 176.15 338.14 175.48 356.15 174.07 373.86
  L 128.81 261.01
  A 0.93 0.92 -10.7 0 0 127.95 260.43
  L 21.53 260.42
  A 0.30 0.30 0.0 0 0 21.25 260.81
  L 64.04 395.69
  Q 64.17 396.10 64.61 396.12
  L 101.16 397.35
  Q 107.10 408.22 114.02 417.84
  Q 109.09 418.71 104.22 419.51
  Q 89.39 421.95 73.37 421.07
  Q 67.89 414.90 62.09 407.17
  Q 18.75 349.40 12.77 278.00
  Q 9.09 234.06 20.86 190.00
  Q 36.43 180.60 53.71 175.99
  Z
  M 180.81 263.00
  A 1.01 1.01 0.0 0 1 180.20 262.39
  L 174.59 246.70
  A 1.01 1.01 0.0 0 0 172.69 246.70
  L 167.02 262.37
  A 1.01 1.01 0.0 0 1 166.41 262.98
  L 150.72 268.59
  A 1.01 1.01 0.0 0 0 150.72 270.49
  L 166.39 276.16
  A 1.01 1.01 0.0 0 1 167.00 276.77
  L 172.61 292.46
  A 1.01 1.01 0.0 0 0 174.51 292.46
  L 180.18 276.79
  A 1.01 1.01 0.0 0 1 180.79 276.18
  L 196.48 270.57
  A 1.01 1.01 0.0 0 0 196.48 268.67
  L 180.81 263.00
  Z"
/>
<path fill="#f7ede5" d="
  M 53.72 178.28
  Q 53.69 178.81 53.86 179.29
  Q 54.02 179.74 54.50 179.74
  L 71.81 179.74
  Q 72.41 179.74 72.54 180.32
  Q 74.06 186.78 77.60 192.25
  Q 77.83 192.61 77.53 192.92
  L 71.78 198.73
  L 34.56 197.95
  Q 34.05 197.94 34.32 197.51
  Q 41.76 185.78 53.72 178.28
  Z"
/>
<path fill="#111c49" d="
  M 291.18 179.39
  C 290.01 184.62 286.68 188.66 281.17 187.94
  Q 276.47 187.33 274.58 182.37
  Q 274.27 181.56 275.04 181.14
  L 275.33 180.98
  A 0.48 0.48 0.0 0 1 275.98 181.16
  C 276.74 182.44 277.27 183.90 278.53 184.79
  Q 283.04 187.94 287.24 183.74
  Q 288.14 182.84 289.31 179.16
  Q 289.63 178.18 290.57 178.60
  L 290.85 178.73
  A 0.58 0.57 -71.8 0 1 291.18 179.39
  Z"
/>
<path fill="#073ace" d="
  M 233.54 187.77
  Q 243.81 191.32 253.87 193.08
  Q 254.69 196.01 255.84 199.73
  C 257.48 205.06 259.73 208.49 264.86 210.68
  Q 270.50 213.09 279.76 213.65
  L 278.61 222.75
  L 276.29 240.68
  Q 263.11 242.57 252.09 246.85
  Q 250.35 247.52 251.60 248.85
  L 245.98 251.37
  Q 228.74 258.75 215.01 270.52
  Q 211.12 273.86 206.13 279.38
  Q 198.87 232.11 162.75 200.46
  L 241.24 201.86
  A 0.30 0.30 0.0 0 0 241.50 201.40
  L 233.54 187.77
  Z"
/>
<path fill="#111c49" d="
  M 279.76 213.65
  L 305.36 214.12
  Q 307.85 214.16 305.46 214.87
  L 278.61 222.75
  L 279.76 213.65
  Z"
/>
<path fill="#f7ede5" d="
  M 460.52 234.32
  L 476.18 240.01
  A 1.00 1.00 0.0 0 1 476.18 241.89
  L 460.50 247.52
  A 1.00 1.00 0.0 0 0 459.90 248.12
  L 454.21 263.78
  A 1.00 1.00 0.0 0 1 452.33 263.78
  L 446.70 248.10
  A 1.00 1.00 0.0 0 0 446.10 247.50
  L 430.44 241.81
  A 1.00 1.00 0.0 0 1 430.44 239.93
  L 446.12 234.30
  A 1.00 1.00 0.0 0 0 446.72 233.70
  L 452.41 218.04
  A 1.00 1.00 0.0 0 1 454.29 218.04
  L 459.92 233.72
  A 1.00 1.00 0.0 0 0 460.52 234.32
  Z"
/>
<path fill="#111c49" d="
  M 327.17 236.91
  Q 339.28 242.89 351.36 248.64
  Q 352.18 249.02 352.13 250.32
  Q 351.49 250.77 350.83 250.75
  L 320.04 256.05
  A 0.25 0.25 0.0 0 0 319.96 256.52
  Q 330.13 262.15 339.67 267.46
  Q 340.51 267.93 340.23 268.84
  A 0.87 0.87 0.0 0 1 339.40 269.45
  Q 324.36 269.46 309.99 271.30
  C 300.20 272.55 288.14 274.92 280.07 280.66
  Q 279.67 280.94 279.55 281.42
  Q 272.56 308.42 268.37 337.09
  C 266.04 353.08 265.96 370.45 265.49 387.24
  Q 263.73 387.47 263.55 386.55
  C 264.02 369.76 264.12 352.56 266.54 336.00
  Q 270.25 310.53 277.38 282.02
  Q 277.55 281.38 277.26 280.78
  Q 269.00 263.42 252.90 259.15
  Q 248.02 257.86 252.91 256.63
  Q 259.24 255.04 265.21 253.83
  Q 266.51 253.57 265.25 253.17
  L 251.60 248.85
  Q 250.35 247.52 252.09 246.85
  Q 263.11 242.57 276.29 240.68
  L 276.04 242.64
  Q 265.35 244.41 256.25 247.40
  Q 255.05 247.80 256.26 248.18
  Q 263.26 250.38 270.36 252.69
  Q 270.71 252.80 270.90 253.10
  Q 271.14 253.50 270.96 253.93
  A 1.20 1.18 5.2 0 1 270.11 254.63
  L 257.29 257.58
  Q 255.86 257.90 257.22 258.45
  Q 271.12 264.03 278.04 278.07
  Q 278.26 279.03 278.80 279.50
  Q 279.20 279.86 279.62 279.51
  L 284.19 275.71
  Q 292.91 272.56 295.50 271.95
  Q 312.35 267.96 334.68 267.43
  Q 335.57 267.41 334.79 266.98
  Q 324.96 261.55 315.88 256.46
  Q 315.12 256.03 315.66 255.10
  A 0.89 0.89 0.0 0 1 316.27 254.68
  L 347.21 249.33
  Q 347.84 249.22 347.27 248.94
  L 326.64 238.86
  L 327.17 236.91
  Z"
/>
<path fill="#f7ede5" d="
  M 326.64 238.86
  L 347.27 248.94
  Q 347.84 249.22 347.21 249.33
  L 316.27 254.68
  A 0.89 0.89 0.0 0 0 315.66 255.10
  Q 315.12 256.03 315.88 256.46
  Q 324.96 261.55 334.79 266.98
  Q 335.57 267.41 334.68 267.43
  Q 312.35 267.96 295.50 271.95
  Q 292.91 272.56 284.19 275.71
  Q 304.99 257.23 325.65 239.14
  Q 326.07 238.77 326.64 238.86
  Z"
/>
<path fill="#f7ede5" d="
  M 276.04 242.64
  L 278.63 277.80
  Q 278.66 278.17 278.30 278.13
  Q 278.18 278.12 278.04 278.07
  Q 271.12 264.03 257.22 258.45
  Q 255.86 257.90 257.29 257.58
  L 270.11 254.63
  A 1.20 1.18 5.2 0 0 270.96 253.93
  Q 271.14 253.50 270.90 253.10
  Q 270.71 252.80 270.36 252.69
  Q 263.26 250.38 256.26 248.18
  Q 255.05 247.80 256.25 247.40
  Q 265.35 244.41 276.04 242.64
  Z"
/>
<path fill="#f7ede5" d="
  M 180.81 263.00
  L 196.48 268.67
  A 1.01 1.01 0.0 0 1 196.48 270.57
  L 180.79 276.18
  A 1.01 1.01 0.0 0 0 180.18 276.79
  L 174.51 292.46
  A 1.01 1.01 0.0 0 1 172.61 292.46
  L 167.00 276.77
  A 1.01 1.01 0.0 0 0 166.39 276.16
  L 150.72 270.49
  A 1.01 1.01 0.0 0 1 150.72 268.59
  L 166.41 262.98
  A 1.01 1.01 0.0 0 0 167.02 262.37
  L 172.69 246.70
  A 1.01 1.01 0.0 0 1 174.59 246.70
  L 180.20 262.39
  A 1.01 1.01 0.0 0 0 180.81 263.00
  Z"
/>
<path fill="#f7ede5" d="
  M 251.60 248.85
  L 265.25 253.17
  Q 266.51 253.57 265.21 253.83
  Q 259.24 255.04 252.91 256.63
  Q 248.02 257.86 252.90 259.15
  Q 269.00 263.42 277.26 280.78
  Q 277.55 281.38 277.38 282.02
  Q 270.25 310.53 266.54 336.00
  C 264.12 352.56 264.02 369.76 263.55 386.55
  Q 262.81 386.94 262.48 386.87
  Q 246.59 383.60 230.75 381.70
  Q 231.04 350.10 232.64 319.01
  C 233.84 295.95 237.63 272.87 245.98 251.37
  L 251.60 248.85
  Z"
/>
<path fill="#23347c" d="
  M 352.13 250.32
  L 370.20 261.54
  C 380.98 269.16 391.01 278.03 397.44 289.31
  Q 401.91 297.17 405.71 308.00
  Q 412.51 327.36 416.11 355.25
  Q 415.96 358.07 414.19 362.04
  Q 413.98 362.52 413.48 362.70
  L 397.88 368.08
  A 0.90 0.90 0.0 0 0 397.31 368.70
  Q 397.09 369.59 397.83 369.87
  Q 405.53 372.84 413.06 375.73
  A 1.32 1.32 0.0 0 1 413.84 376.51
  L 419.57 392.00
  C 419.29 392.82 418.95 393.47 418.97 394.37
  Q 419.53 415.84 418.37 438.37
  Q 387.09 468.13 346.44 485.10
  Q 316.15 477.86 289.05 463.46
  L 290.45 452.70
  L 296.79 403.45
  L 297.24 400.21
  Q 303.79 401.93 310.46 403.19
  C 311.44 403.37 312.37 404.07 313.42 404.35
  Q 338.26 410.96 371.67 419.67
  Q 372.56 419.91 372.88 419.04
  L 373.03 418.65
  A 0.56 0.55 -72.2 0 0 372.66 417.92
  L 355.66 413.45
  Q 355.22 413.34 355.30 412.90
  L 367.83 343.60
  Q 367.94 342.99 367.33 342.93
  L 366.93 342.89
  Q 366.01 342.79 365.84 343.70
  L 353.45 412.29
  A 0.49 0.48 12.2 0 1 352.85 412.67
  L 311.70 401.86
  Q 312.21 390.95 313.41 382.49
  Q 315.80 365.69 320.46 347.04
  Q 332.69 298.11 350.83 250.75
  Q 351.49 250.77 352.13 250.32
  Z"
/>
<path fill="#f7ede5" d="
  M 350.83 250.75
  Q 332.69 298.11 320.46 347.04
  Q 315.80 365.69 313.41 382.49
  Q 312.21 390.95 311.70 401.86
  L 297.45 398.15
  A 0.81 0.81 0.0 0 0 296.47 398.70
  Q 296.14 399.81 297.24 400.21
  L 296.79 403.45
  Q 292.59 401.87 291.39 400.89
  Q 283.28 394.30 273.90 389.79
  Q 272.06 388.91 269.75 388.33
  Q 267.60 387.80 265.49 387.24
  C 265.96 370.45 266.04 353.08 268.37 337.09
  Q 272.56 308.42 279.55 281.42
  Q 279.67 280.94 280.07 280.66
  C 288.14 274.92 300.20 272.55 309.99 271.30
  Q 324.36 269.46 339.40 269.45
  A 0.87 0.87 0.0 0 0 340.23 268.84
  Q 340.51 267.93 339.67 267.46
  Q 330.13 262.15 319.96 256.52
  A 0.25 0.25 0.0 0 1 320.04 256.05
  L 350.83 250.75
  Z"
/>
<path fill="#23347c" d="
  M 245.98 251.37
  C 237.63 272.87 233.84 295.95 232.64 319.01
  Q 231.04 350.10 230.75 381.70
  L 226.46 381.73
  Q 225.74 380.97 224.97 381.64
  Q 224.54 382.02 224.61 382.59
  Q 225.09 386.67 227.35 389.68
  Q 227.80 390.27 227.06 390.18
  L 209.22 387.88
  A 0.40 0.40 0.0 0 1 208.86 387.47
  L 210.16 344.05
  Q 210.17 343.42 209.55 343.33
  L 209.07 343.26
  Q 208.29 343.16 208.27 343.93
  L 206.95 387.07
  A 0.47 0.46 -85.5 0 1 206.43 387.52
  L 178.70 383.96
  A 0.95 0.93 82.1 0 1 177.96 383.39
  L 174.07 373.86
  C 175.48 356.15 176.15 338.14 181.75 321.13
  Q 189.48 297.66 206.13 279.38
  Q 211.12 273.86 215.01 270.52
  Q 228.74 258.75 245.98 251.37
  Z"
/>
<path fill="#111c49" d="
  M 174.07 373.86
  L 177.96 383.39
  A 0.95 0.93 82.1 0 0 178.70 383.96
  L 206.43 387.52
  A 0.47 0.46 -85.5 0 0 206.95 387.07
  L 208.27 343.93
  Q 208.29 343.16 209.07 343.26
  L 209.55 343.33
  Q 210.17 343.42 210.16 344.05
  L 208.86 387.47
  A 0.40 0.40 0.0 0 0 209.22 387.88
  L 227.06 390.18
  Q 227.80 390.27 227.35 389.68
  Q 225.09 386.67 224.61 382.59
  Q 224.54 382.02 224.97 381.64
  Q 225.74 380.97 226.46 381.73
  C 226.94 388.47 231.97 392.37 238.00 394.19
  Q 250.56 398.00 263.30 400.20
  A 1.00 0.99 -58.3 0 1 263.72 401.98
  Q 263.38 402.24 262.95 402.16
  C 259.50 401.52 256.08 400.55 252.57 400.93
  C 249.20 401.29 245.76 401.49 242.38 401.46
  Q 222.28 401.30 202.88 400.68
  Q 202.28 400.66 202.67 401.10
  C 209.33 408.66 220.66 412.90 230.60 415.35
  Q 245.76 419.10 260.44 419.81
  A 0.74 0.73 3.1 0 1 261.14 420.58
  L 261.12 421.01
  Q 261.08 421.79 260.30 421.76
  Q 240.52 420.82 222.49 415.01
  Q 221.21 414.59 221.83 415.78
  Q 227.19 425.91 238.88 429.15
  Q 251.70 432.71 263.96 431.73
  A 0.71 0.70 67.9 0 1 264.54 431.98
  Q 264.79 432.29 264.77 432.64
  Q 264.71 433.75 263.60 433.81
  Q 251.27 434.54 239.49 431.37
  Q 234.74 430.28 230.29 427.67
  Q 223.42 423.50 219.82 416.13
  Q 219.58 415.65 219.77 415.16
  L 220.00 414.56
  Q 220.21 414.01 219.66 413.81
  Q 213.89 411.70 208.53 408.42
  Q 208.13 408.18 208.12 408.64
  L 205.57 498.43
  Q 204.72 498.45 203.97 498.07
  L 204.71 465.00
  L 206.35 408.27
  A 2.35 2.34 18.8 0 0 205.37 406.29
  Q 202.29 404.08 200.43 401.03
  Q 200.17 400.60 199.66 400.58
  L 101.16 397.35
  L 64.61 396.12
  Q 64.17 396.10 64.04 395.69
  L 21.25 260.81
  A 0.30 0.30 0.0 0 1 21.53 260.42
  L 127.95 260.43
  A 0.93 0.92 -10.7 0 1 128.81 261.01
  L 174.07 373.86
  Z
  M 73.77 313.86
  A 1.08 1.08 0.0 0 0 72.73 315.26
  L 79.92 338.82
  A 1.08 1.08 0.0 0 0 80.95 339.58
  L 111.63 339.58
  A 1.08 1.08 0.0 0 0 112.67 338.22
  L 106.33 314.87
  A 1.08 1.08 0.0 0 0 105.30 314.07
  L 73.77 313.86
  Z"
/>
<path fill="#4071ff" d="
  M 73.77 313.86
  L 105.30 314.07
  A 1.08 1.08 0.0 0 1 106.33 314.87
  L 112.67 338.22
  A 1.08 1.08 0.0 0 1 111.63 339.58
  L 80.95 339.58
  A 1.08 1.08 0.0 0 1 79.92 338.82
  L 72.73 315.26
  A 1.08 1.08 0.0 0 1 73.77 313.86
  Z
  M 75.59 315.81
  A 0.38 0.38 0.0 0 0 75.22 316.31
  L 81.64 337.31
  A 0.38 0.38 0.0 0 0 82.00 337.58
  L 109.85 337.58
  A 0.38 0.38 0.0 0 0 110.22 337.10
  L 104.57 316.33
  A 0.38 0.38 0.0 0 0 104.20 316.05
  L 75.59 315.81
  Z"
/>
<path fill="#111c49" d="
  M 75.59 315.81
  L 104.20 316.05
  A 0.38 0.38 0.0 0 1 104.57 316.33
  L 110.22 337.10
  A 0.38 0.38 0.0 0 1 109.85 337.58
  L 82.00 337.58
  A 0.38 0.38 0.0 0 1 81.64 337.31
  L 75.22 316.31
  A 0.38 0.38 0.0 0 1 75.59 315.81
  Z"
/>
<path fill="#111c49" d="
  M 297.24 400.21
  Q 296.14 399.81 296.47 398.70
  A 0.81 0.81 0.0 0 1 297.45 398.15
  L 311.70 401.86
  L 352.85 412.67
  A 0.49 0.48 12.2 0 0 353.45 412.29
  L 365.84 343.70
  Q 366.01 342.79 366.93 342.89
  L 367.33 342.93
  Q 367.94 342.99 367.83 343.60
  L 355.30 412.90
  Q 355.22 413.34 355.66 413.45
  L 372.66 417.92
  A 0.56 0.55 -72.2 0 1 373.03 418.65
  L 372.88 419.04
  Q 372.56 419.91 371.67 419.67
  Q 338.26 410.96 313.42 404.35
  C 312.37 404.07 311.44 403.37 310.46 403.19
  Q 303.79 401.93 297.24 400.21
  Z"
/>
<path fill="#f7ede5" d="
  M 434.10 373.69
  L 427.93 375.92
  Q 427.41 376.10 427.22 376.61
  L 421.49 392.10
  A 0.94 0.93 -54.9 0 1 419.90 392.38
  L 419.57 392.00
  L 413.84 376.51
  A 1.32 1.32 0.0 0 0 413.06 375.73
  Q 405.53 372.84 397.83 369.87
  Q 397.09 369.59 397.31 368.70
  A 0.90 0.90 0.0 0 1 397.88 368.08
  L 413.48 362.70
  Q 413.98 362.52 414.19 362.04
  Q 415.96 358.07 416.11 355.25
  L 419.59 346.08
  A 1.06 1.05 45.5 0 1 421.57 346.10
  L 427.23 361.78
  Q 427.48 362.45 428.15 362.68
  Q 435.44 365.19 442.83 367.94
  Q 443.55 368.21 443.63 368.35
  A 1.24 1.23 -24.5 0 1 442.95 370.16
  Q 438.58 371.56 434.10 373.69
  Z"
/>
<path fill="#073ace" d="
  M 434.10 373.69
  Q 448.52 381.79 464.25 385.71
  C 451.51 405.66 435.77 422.28 418.37 438.37
  Q 419.53 415.84 418.97 394.37
  C 418.95 393.47 419.29 392.82 419.57 392.00
  L 419.90 392.38
  A 0.94 0.93 -54.9 0 0 421.49 392.10
  L 427.22 376.61
  Q 427.41 376.10 427.93 375.92
  L 434.10 373.69
  Z"
/>
<path fill="#9fb7ff" d="
  M 230.75 381.70
  Q 246.59 383.60 262.48 386.87
  Q 262.81 386.94 263.55 386.55
  Q 263.73 387.47 265.49 387.24
  Q 267.60 387.80 269.75 388.33
  Q 272.06 388.91 273.90 389.79
  Q 283.28 394.30 291.39 400.89
  Q 292.59 401.87 296.79 403.45
  L 290.45 452.70
  Q 277.61 449.17 264.98 445.60
  Q 264.40 445.44 264.43 445.95
  Q 264.16 444.99 262.53 444.90
  Q 257.40 443.36 252.27 441.90
  C 248.86 440.94 237.32 436.68 239.49 431.37
  Q 251.27 434.54 263.60 433.81
  Q 264.71 433.75 264.77 432.64
  Q 264.79 432.29 264.54 431.98
  A 0.71 0.70 67.9 0 0 263.96 431.73
  Q 251.70 432.71 238.88 429.15
  Q 227.19 425.91 221.83 415.78
  Q 221.21 414.59 222.49 415.01
  Q 240.52 420.82 260.30 421.76
  Q 261.08 421.79 261.12 421.01
  L 261.14 420.58
  A 0.74 0.73 3.1 0 0 260.44 419.81
  Q 245.76 419.10 230.60 415.35
  C 220.66 412.90 209.33 408.66 202.67 401.10
  Q 202.28 400.66 202.88 400.68
  Q 222.28 401.30 242.38 401.46
  C 245.76 401.49 249.20 401.29 252.57 400.93
  C 256.08 400.55 259.50 401.52 262.95 402.16
  Q 263.38 402.24 263.72 401.98
  A 1.00 0.99 -58.3 0 0 263.30 400.20
  Q 250.56 398.00 238.00 394.19
  C 231.97 392.37 226.94 388.47 226.46 381.73
  L 230.75 381.70
  Z"
/>
<path fill="#23347c" d="
  M 204.71 465.00
  Q 178.70 471.51 155.38 457.86
  C 138.69 448.10 125.11 433.58 114.02 417.84
  Q 107.10 408.22 101.16 397.35
  L 199.66 400.58
  Q 200.17 400.60 200.43 401.03
  Q 202.29 404.08 205.37 406.29
  A 2.35 2.34 18.8 0 1 206.35 408.27
  L 204.71 465.00
  Z"
/>
<path fill="#23347c" d="
  M 230.29 427.67
  L 230.30 502.18
  L 205.57 498.43
  L 208.12 408.64
  Q 208.13 408.18 208.53 408.42
  Q 213.89 411.70 219.66 413.81
  Q 220.21 414.01 220.00 414.56
  L 219.77 415.16
  Q 219.58 415.65 219.82 416.13
  Q 223.42 423.50 230.29 427.67
  Z"
/>
<path fill="#073ace" d="
  M 114.02 417.84
  C 125.11 433.58 138.69 448.10 155.38 457.86
  Q 178.70 471.51 204.71 465.00
  L 203.97 498.07
  C 152.99 487.09 108.06 460.21 73.37 421.07
  Q 89.39 421.95 104.22 419.51
  Q 109.09 418.71 114.02 417.84
  Z"
/>
<path fill="#f7ede5" d="
  M 230.29 427.67
  Q 234.74 430.28 239.49 431.37
  C 237.32 436.68 248.86 440.94 252.27 441.90
  Q 257.40 443.36 262.53 444.90
  L 261.92 503.22
  Q 246.16 503.84 230.30 502.18
  L 230.29 427.67
  Z"
/>
<path fill="#111c49" d="
  M 262.53 444.90
  Q 264.16 444.99 264.43 445.95
  L 263.83 502.80
  Q 263.82 503.47 261.92 503.22
  L 262.53 444.90
  Z"
/>
<path fill="#f7ede5" d="
  M 290.45 452.70
  L 289.05 463.46
  Q 288.12 463.80 288.05 464.64
  Q 288.01 465.15 288.46 465.39
  Q 300.99 472.00 314.16 477.10
  Q 315.14 477.48 315.18 478.21
  L 317.27 494.79
  Q 317.29 494.93 317.21 495.05
  Q 317.11 495.19 316.94 495.16
  C 314.96 494.88 313.78 495.97 312.01 496.40
  Q 288.34 502.17 264.73 503.14
  Q 264.49 503.15 264.27 503.05
  Q 264.04 502.93 263.83 502.80
  L 264.43 445.95
  Q 264.40 445.44 264.98 445.60
  Q 277.61 449.17 290.45 452.70
  Z"
/>
<path fill="#111c49" d="
  M 289.05 463.46
  Q 316.15 477.86 346.44 485.10
  Q 344.12 486.49 342.82 486.39
  L 316.73 478.13
  Q 316.25 477.98 315.77 478.08
  L 315.18 478.21
  Q 315.14 477.48 314.16 477.10
  Q 300.99 472.00 288.46 465.39
  Q 288.01 465.15 288.05 464.64
  Q 288.12 463.80 289.05 463.46
  Z"
/>
<path fill="#23347c" d="
  M 342.82 486.39
  Q 330.07 491.56 317.68 494.87
  Q 317.42 494.94 317.27 494.79
  L 315.18 478.21
  L 315.77 478.08
  Q 316.25 477.98 316.73 478.13
  L 342.82 486.39
  Z"
/>
</svg>
