<?xml version="1.0" encoding="UTF-8" standalone="no"?>
<!DOCTYPE svg PUBLIC "-//W3C//DTD SVG 1.1//EN" "http://www.w3.org/Graphics/SVG/1.1/DTD/svg11.dtd">
<svg xmlns="http://www.w3.org/2000/svg" version="1.1" viewBox="0.00 0.00 512.00 512.00">
<g stroke-width="2.00" fill="none" stroke-linecap="butt">
<path stroke="#5379e7" vector-effect="non-scaling-stroke" d="
  M 280.21 12.23
  C 277.15 20.24 266.69 19.74 264.20 11.51"
/>
<path stroke="#5379e7" vector-effect="non-scaling-stroke" d="
  M 348.61 27.38
  L 172.86 27.52"
/>
<path stroke="#5379e7" vector-effect="non-scaling-stroke" d="
  M 464.17 116.25
  Q 461.02 137.46 456.46 157.62"
/>
<path stroke="#7094ff" vector-effect="non-scaling-stroke" d="
  M 456.46 157.62
  L 453.02 171.80"
/>
<path stroke="#5379e7" vector-effect="non-scaling-stroke" d="
  M 453.02 171.80
  Q 447.75 190.74 440.84 209.96"
/>
<path stroke="#7094ff" vector-effect="non-scaling-stroke" d="
  M 440.84 209.96
  L 435.30 223.64"
/>
<path stroke="#5379e7" vector-effect="non-scaling-stroke" d="
  M 435.30 223.64
  Q 428.76 238.11 421.24 252.50
  Q 415.94 262.64 412.17 270.90
  Q 378.46 344.90 378.52 430.37
  Q 378.52 435.55 377.31 439.00
  C 373.76 449.03 364.70 455.28 354.00 455.28
  Q 229.22 455.29 104.56 455.52"
/>
<path stroke="#5379e7" vector-effect="non-scaling-stroke" d="
  M 32.12 360.48
  Q 35.05 344.54 37.05 335.76
  Q 47.21 291.16 65.78 249.22
  C 71.00 237.41 78.21 223.77 83.53 211.35
  Q 115.01 137.79 117.48 56.80"
/>
<path stroke="#cfdbff" vector-effect="non-scaling-stroke" d="
  M 394.6238 44.4932
  A 10.02 7.05 -22.7 0 0 382.6594 41.8561
  A 10.02 7.05 -22.7 0 0 376.1362 52.2268
  A 10.02 7.05 -22.7 0 0 388.1006 54.8639
  A 10.02 7.05 -22.7 0 0 394.6238 44.4932"
/>
<path stroke="#cfdbff" vector-effect="non-scaling-stroke" d="
  M 415.63 59.57
  C 422.88 61.55 428.74 66.13 434.78 70.40
  C 439.28 73.58 445.83 75.78 450.41 71.66
  C 456.95 65.78 453.63 57.52 448.04 52.21
  Q 438.07 42.75 423.33 41.71
  C 417.57 41.30 409.67 42.15 408.60 49.11
  C 407.81 54.27 410.75 58.25 415.63 59.57"
/>
<path stroke="#5379e7" vector-effect="non-scaling-stroke" d="
  M 158.53 98.54
  Q 156.29 92.87 153.91 86.38
  C 152.50 82.54 149.16 80.03 145.04 81.57
  C 140.31 83.33 139.97 87.63 141.67 91.90
  Q 145.91 102.48 149.98 113.43
  C 151.95 118.71 157.94 119.86 161.68 115.65
  Q 176.89 98.56 190.79 82.71
  C 193.61 79.51 193.07 74.62 189.27 72.45
  C 185.34 70.21 182.26 72.16 179.64 75.18
  Q 168.92 87.51 158.97 98.62
  A 0.27 0.26 55.0 0 1 158.53 98.54"
/>
<path stroke="#586aa4" vector-effect="non-scaling-stroke" d="
  M 431.1895 107.6795
  A 8.47 8.47 0.0 0 0 422.7491 99.1799
  L 205.0905 98.4202
  A 8.47 8.47 0.0 0 0 196.5910 106.8605
  L 196.5905 107.0005
  A 8.47 8.47 0.0 0 0 205.0309 115.5001
  L 422.6895 116.2598
  A 8.47 8.47 0.0 0 0 431.1890 107.8195
  L 431.1895 107.6795"
/>
<path stroke="#5379e7" vector-effect="non-scaling-stroke" d="
  M 142.73 172.23
  A 0.28 0.27 54.5 0 1 142.27 172.15
  Q 139.86 166.40 137.38 159.56
  C 134.15 150.64 121.48 155.41 124.83 164.09
  Q 129.38 175.91 133.79 187.32
  C 135.75 192.40 141.52 193.31 145.22 189.40
  Q 146.47 188.08 147.70 186.69
  Q 161.15 171.41 174.64 156.16
  C 180.37 149.68 170.65 140.66 164.24 147.88
  Q 153.73 159.71 142.73 172.23"
/>
<path stroke="#586aa4" vector-effect="non-scaling-stroke" d="
  M 411.6462 186.9335
  A 8.47 8.47 0.0 0 0 403.2505 178.3899
  L 185.6388 176.4908
  A 8.47 8.47 0.0 0 0 177.0952 184.8866
  L 177.0938 185.0465
  A 8.47 8.47 0.0 0 0 185.4895 193.5901
  L 403.1012 195.4892
  A 8.47 8.47 0.0 0 0 411.6448 187.0934
  L 411.6462 186.9335"
/>
<path stroke="#5379e7" vector-effect="non-scaling-stroke" d="
  M 114.74 249.00
  A 0.33 0.33 0.0 0 1 114.19 248.90
  Q 111.56 242.05 109.17 235.87
  C 105.94 227.55 93.40 232.18 97.02 241.39
  Q 101.51 252.82 105.75 264.04
  C 107.66 269.10 113.75 270.23 117.33 266.17
  Q 132.08 249.44 146.16 233.56
  C 152.65 226.23 142.59 217.42 136.27 224.61
  Q 124.72 237.75 114.74 249.00"
/>
<path stroke="#586aa4" vector-effect="non-scaling-stroke" d="
  M 379.3478 263.8750
  A 8.47 8.47 0.0 0 0 370.9371 255.3460
  L 160.1423 253.8744
  A 8.47 8.47 0.0 0 0 151.6133 262.2850
  L 151.6122 262.4450
  A 8.47 8.47 0.0 0 0 160.0229 270.9740
  L 370.8177 272.4456
  A 8.47 8.47 0.0 0 0 379.3467 264.0350
  L 379.3478 263.8750"
/>
<path stroke="#5379e7" vector-effect="non-scaling-stroke" d="
  M 88.05 326.76
  Q 86.09 321.65 83.56 314.91
  Q 82.72 312.66 81.22 311.31
  C 77.48 307.93 71.50 310.15 70.49 315.00
  Q 70.06 317.06 70.99 319.44
  Q 75.79 331.71 79.78 342.26
  C 81.86 347.74 88.00 348.09 91.63 343.98
  Q 107.11 326.43 120.41 311.43
  C 126.55 304.51 116.67 295.57 110.20 302.89
  Q 99.08 315.46 88.96 326.92
  Q 88.37 327.60 88.05 326.76"
/>
<path stroke="#586aa4" vector-effect="non-scaling-stroke" d="
  M 352.4200 340.2444
  A 8.47 8.47 0.0 0 0 344.0691 331.6569
  L 135.5094 328.7447
  A 8.47 8.47 0.0 0 0 126.9220 337.0956
  L 126.9200 337.2356
  A 8.47 8.47 0.0 0 0 135.2709 345.8231
  L 343.8306 348.7353
  A 8.47 8.47 0.0 0 0 352.4180 340.3844
  L 352.4200 340.2444"
/>
<path stroke="#cfdbff" vector-effect="non-scaling-stroke" d="
  M 76.48 419.66
  Q 72.61 418.22 69.00 415.37
  Q 63.48 411.01 58.53 407.41
  C 53.72 403.92 47.10 402.95 42.96 408.20
  C 38.01 414.49 41.98 422.27 46.96 427.07
  Q 58.31 438.03 74.89 438.15
  C 80.46 438.19 85.44 435.47 85.37 429.15
  C 85.30 423.31 81.22 421.42 76.48 419.66"
/>
<path stroke="#cfdbff" vector-effect="non-scaling-stroke" d="
  M 117.7469 430.2082
  A 10.02 7.05 -19.3 0 0 105.9599 426.8662
  A 10.02 7.05 -19.3 0 0 98.8331 436.8318
  A 10.02 7.05 -19.3 0 0 110.6201 440.1738
  A 10.02 7.05 -19.3 0 0 117.7469 430.2082"
/>
<path stroke="#5379e7" vector-effect="non-scaling-stroke" d="
  M 12.81 286.99
  C 22.59 284.80 21.51 271.17 11.64 270.52"
/>
<path stroke="#5379e7" vector-effect="non-scaling-stroke" d="
  M 20.61 193.75
  L 39.86 233.52
  A 0.64 0.64 0.0 0 0 40.72 233.81
  L 50.36 229.14
  A 0.34 0.34 0.0 0 0 50.52 228.68
  L 25.70 177.48"
/>
<path stroke="#5379e7" vector-effect="non-scaling-stroke" d="
  M 81.2122 124.9880
  A 0.27 0.27 0.0 0 0 80.9932 124.6752
  L 70.0618 122.7477
  A 0.27 0.27 0.0 0 0 69.7491 122.9667
  L 58.6078 186.1520
  A 0.27 0.27 0.0 0 0 58.8268 186.4648
  L 69.7582 188.3923
  A 0.27 0.27 0.0 0 0 70.0709 188.1733
  L 81.2122 124.9880"
/>
<path stroke="#2456e7" vector-effect="non-scaling-stroke" d="
  M 489.41 160.54
  Q 487.65 159.81 485.76 159.02
  Q 471.41 153.00 456.46 157.62"
/>
<path stroke="#2456e7" vector-effect="non-scaling-stroke" d="
  M 506.93 218.70
  Q 497.52 234.04 482.04 238.82
  Q 472.43 241.78 462.28 240.10
  Q 446.02 237.41 435.30 223.64"
/>
<path stroke="#2456e7" vector-effect="non-scaling-stroke" d="
  M 440.84 209.96
  Q 447.24 222.87 459.20 227.04
  C 477.45 233.41 496.43 221.85 499.56 203.15
  C 502.09 187.99 493.17 173.87 478.76 168.98
  Q 466.74 164.89 453.02 171.80"
/>
<path stroke="#5379e7" vector-effect="non-scaling-stroke" d="
  M 455.64 417.08
  L 446.66 405.94
  A 0.39 0.39 0.0 0 0 446.11 405.89
  L 424.12 423.66
  A 0.38 0.38 0.0 0 0 424.06 424.19
  L 435.96 438.88"
/>
<path stroke="#5379e7" vector-effect="non-scaling-stroke" d="
  M 469.70 300.11
  A 15.63 15.63 0.0 0 0 454.07 284.48
  A 15.63 15.63 0.0 0 0 438.44 300.11
  A 15.63 15.63 0.0 0 0 454.07 315.74
  A 15.63 15.63 0.0 0 0 469.70 300.11"
/>
<path stroke="#5379e7" vector-effect="non-scaling-stroke" d="
  M 435.43 372.23
  A 0.33 0.33 0.0 0 0 435.92 372.52
  L 457.68 360.46
  A 0.33 0.33 0.0 0 0 457.69 359.89
  L 436.37 347.10
  A 0.33 0.33 0.0 0 0 435.87 347.38
  L 435.43 372.23"
/>
<path stroke="#5379e7" vector-effect="non-scaling-stroke" d="
  M 254.39 475.86
  C 246.82 480.93 238.96 475.81 232.19 472.10
  Q 221.41 466.20 210.92 471.26
  C 203.63 474.78 196.75 480.27 188.29 476.49
  Q 187.77 476.25 187.41 476.70
  L 181.75 484.01
  Q 181.35 484.53 181.88 484.92
  C 191.89 492.23 203.03 489.56 212.83 483.21
  C 217.72 480.05 222.42 480.03 227.49 482.93
  C 235.20 487.34 244.49 491.83 253.53 489.08
  C 260.29 487.03 264.36 481.05 272.11 481.48
  Q 275.57 481.67 278.72 483.22
  C 286.33 486.96 295.83 491.09 303.76 489.01
  Q 307.75 487.96 313.83 484.46
  Q 314.37 484.15 314.11 483.59
  Q 312.04 478.98 308.83 474.42
  Q 308.50 473.95 307.99 474.22
  Q 305.86 475.37 303.74 476.49
  C 300.11 478.41 295.44 477.89 291.75 476.44
  Q 286.21 474.26 280.75 471.71
  C 270.89 467.10 262.86 470.18 254.39 475.86"
/>
</g>
<path fill="#9fb7ff" d="
  M 280.21 12.23
  C 277.15 20.24 266.69 19.74 264.20 11.51
  C 261.97 -1.61 282.94 -2.04 280.21 12.23
  Z"
/>
<path fill="#073ace" d="
  M 264.20 11.51
  C 266.69 19.74 277.15 20.24 280.21 12.23
  Q 315.42 14.72 348.61 27.38
  L 172.86 27.52
  Q 217.06 10.78 264.20 11.51
  Z"
/>
<path fill="#9fb7ff" d="
  M 348.61 27.38
  Q 396.52 27.47 444.75 27.28
  C 455.86 27.24 465.16 33.84 468.40 44.40
  Q 469.46 47.85 469.30 54.15
  Q 468.82 73.55 466.83 93.12
  Q 465.62 105.00 464.17 116.25
  Q 461.02 137.46 456.46 157.62
  L 453.02 171.80
  Q 447.75 190.74 440.84 209.96
  L 435.30 223.64
  Q 428.76 238.11 421.24 252.50
  Q 415.94 262.64 412.17 270.90
  Q 378.46 344.90 378.52 430.37
  Q 378.52 435.55 377.31 439.00
  C 373.76 449.03 364.70 455.28 354.00 455.28
  Q 229.22 455.29 104.56 455.52
  Q 79.85 455.48 55.23 455.52
  Q 46.81 455.53 43.37 454.51
  C 35.98 452.33 30.04 446.44 27.60 439.07
  Q 26.39 435.43 26.43 428.95
  Q 26.55 405.89 28.63 386.87
  Q 29.89 375.39 32.12 360.48
  Q 35.05 344.54 37.05 335.76
  Q 47.21 291.16 65.78 249.22
  C 71.00 237.41 78.21 223.77 83.53 211.35
  Q 115.01 137.79 117.48 56.80
  Q 117.57 53.95 117.72 50.50
  C 118.16 40.41 124.48 32.31 133.77 28.99
  Q 137.78 27.56 144.40 27.65
  Q 157.09 27.83 170.41 27.65
  Q 171.01 27.64 171.60 27.53
  Q 172.38 27.38 172.86 27.52
  L 348.61 27.38
  Z
  M 394.6238 44.4932
  A 10.02 7.05 -22.7 0 0 382.6594 41.8561
  A 10.02 7.05 -22.7 0 0 376.1362 52.2268
  A 10.02 7.05 -22.7 0 0 388.1006 54.8639
  A 10.02 7.05 -22.7 0 0 394.6238 44.4932
  Z
  M 415.63 59.57
  C 422.88 61.55 428.74 66.13 434.78 70.40
  C 439.28 73.58 445.83 75.78 450.41 71.66
  C 456.95 65.78 453.63 57.52 448.04 52.21
  Q 438.07 42.75 423.33 41.71
  C 417.57 41.30 409.67 42.15 408.60 49.11
  C 407.81 54.27 410.75 58.25 415.63 59.57
  Z
  M 158.53 98.54
  Q 156.29 92.87 153.91 86.38
  C 152.50 82.54 149.16 80.03 145.04 81.57
  C 140.31 83.33 139.97 87.63 141.67 91.90
  Q 145.91 102.48 149.98 113.43
  C 151.95 118.71 157.94 119.86 161.68 115.65
  Q 176.89 98.56 190.79 82.71
  C 193.61 79.51 193.07 74.62 189.27 72.45
  C 185.34 70.21 182.26 72.16 179.64 75.18
  Q 168.92 87.51 158.97 98.62
  A 0.27 0.26 55.0 0 1 158.53 98.54
  Z
  M 431.1895 107.6795
  A 8.47 8.47 0.0 0 0 422.7491 99.1799
  L 205.0905 98.4202
  A 8.47 8.47 0.0 0 0 196.5910 106.8605
  L 196.5905 107.0005
  A 8.47 8.47 0.0 0 0 205.0309 115.5001
  L 422.6895 116.2598
  A 8.47 8.47 0.0 0 0 431.1890 107.8195
  L 431.1895 107.6795
  Z
  M 142.73 172.23
  A 0.28 0.27 54.5 0 1 142.27 172.15
  Q 139.86 166.40 137.38 159.56
  C 134.15 150.64 121.48 155.41 124.83 164.09
  Q 129.38 175.91 133.79 187.32
  C 135.75 192.40 141.52 193.31 145.22 189.40
  Q 146.47 188.08 147.70 186.69
  Q 161.15 171.41 174.64 156.16
  C 180.37 149.68 170.65 140.66 164.24 147.88
  Q 153.73 159.71 142.73 172.23
  Z
  M 411.6462 186.9335
  A 8.47 8.47 0.0 0 0 403.2505 178.3899
  L 185.6388 176.4908
  A 8.47 8.47 0.0 0 0 177.0952 184.8866
  L 177.0938 185.0465
  A 8.47 8.47 0.0 0 0 185.4895 193.5901
  L 403.1012 195.4892
  A 8.47 8.47 0.0 0 0 411.6448 187.0934
  L 411.6462 186.9335
  Z
  M 114.74 249.00
  A 0.33 0.33 0.0 0 1 114.19 248.90
  Q 111.56 242.05 109.17 235.87
  C 105.94 227.55 93.40 232.18 97.02 241.39
  Q 101.51 252.82 105.75 264.04
  C 107.66 269.10 113.75 270.23 117.33 266.17
  Q 132.08 249.44 146.16 233.56
  C 152.65 226.23 142.59 217.42 136.27 224.61
  Q 124.72 237.75 114.74 249.00
  Z
  M 379.3478 263.8750
  A 8.47 8.47 0.0 0 0 370.9371 255.3460
  L 160.1423 253.8744
  A 8.47 8.47 0.0 0 0 151.6133 262.2850
  L 151.6122 262.4450
  A 8.47 8.47 0.0 0 0 160.0229 270.9740
  L 370.8177 272.4456
  A 8.47 8.47 0.0 0 0 379.3467 264.0350
  L 379.3478 263.8750
  Z
  M 88.05 326.76
  Q 86.09 321.65 83.56 314.91
  Q 82.72 312.66 81.22 311.31
  C 77.48 307.93 71.50 310.15 70.49 315.00
  Q 70.06 317.06 70.99 319.44
  Q 75.79 331.71 79.78 342.26
  C 81.86 347.74 88.00 348.09 91.63 343.98
  Q 107.11 326.43 120.41 311.43
  C 126.55 304.51 116.67 295.57 110.20 302.89
  Q 99.08 315.46 88.96 326.92
  Q 88.37 327.60 88.05 326.76
  Z
  M 352.4200 340.2444
  A 8.47 8.47 0.0 0 0 344.0691 331.6569
  L 135.5094 328.7447
  A 8.47 8.47 0.0 0 0 126.9220 337.0956
  L 126.9200 337.2356
  A 8.47 8.47 0.0 0 0 135.2709 345.8231
  L 343.8306 348.7353
  A 8.47 8.47 0.0 0 0 352.4180 340.3844
  L 352.4200 340.2444
  Z
  M 76.48 419.66
  Q 72.61 418.22 69.00 415.37
  Q 63.48 411.01 58.53 407.41
  C 53.72 403.92 47.10 402.95 42.96 408.20
  C 38.01 414.49 41.98 422.27 46.96 427.07
  Q 58.31 438.03 74.89 438.15
  C 80.46 438.19 85.44 435.47 85.37 429.15
  C 85.30 423.31 81.22 421.42 76.48 419.66
  Z
  M 117.7469 430.2082
  A 10.02 7.05 -19.3 0 0 105.9599 426.8662
  A 10.02 7.05 -19.3 0 0 98.8331 436.8318
  A 10.02 7.05 -19.3 0 0 110.6201 440.1738
  A 10.02 7.05 -19.3 0 0 117.7469 430.2082
  Z"
/>
<ellipse fill="#ffffff" cx="0.00" cy="0.00" transform="translate(385.38,48.36) rotate(-22.7)" rx="10.02" ry="7.05"/>
<path fill="#ffffff" d="
  M 434.78 70.40
  C 428.74 66.13 422.88 61.55 415.63 59.57
  C 410.75 58.25 407.81 54.27 408.60 49.11
  C 409.67 42.15 417.57 41.30 423.33 41.71
  Q 438.07 42.75 448.04 52.21
  C 453.63 57.52 456.95 65.78 450.41 71.66
  C 445.83 75.78 439.28 73.58 434.78 70.40
  Z"
/>
<path fill="#073ace" d="
  M 117.48 56.80
  Q 115.01 137.79 83.53 211.35
  C 78.21 223.77 71.00 237.41 65.78 249.22
  Q 47.21 291.16 37.05 335.76
  Q 35.05 344.54 32.12 360.48
  Q 16.64 325.16 12.81 286.99
  C 22.59 284.80 21.51 271.17 11.64 270.52
  Q 10.07 231.57 20.61 193.75
  L 39.86 233.52
  A 0.64 0.64 0.0 0 0 40.72 233.81
  L 50.36 229.14
  A 0.34 0.34 0.0 0 0 50.52 228.68
  L 25.70 177.48
  Q 52.78 103.12 117.48 56.80
  Z
  M 81.2122 124.9880
  A 0.27 0.27 0.0 0 0 80.9932 124.6752
  L 70.0618 122.7477
  A 0.27 0.27 0.0 0 0 69.7491 122.9667
  L 58.6078 186.1520
  A 0.27 0.27 0.0 0 0 58.8268 186.4648
  L 69.7582 188.3923
  A 0.27 0.27 0.0 0 0 70.0709 188.1733
  L 81.2122 124.9880
  Z"
/>
<path fill="#073ace" d="
  M 158.53 98.54
  A 0.27 0.26 55.0 0 0 158.97 98.62
  Q 168.92 87.51 179.64 75.18
  C 182.26 72.16 185.34 70.21 189.27 72.45
  C 193.07 74.62 193.61 79.51 190.79 82.71
  Q 176.89 98.56 161.68 115.65
  C 157.94 119.86 151.95 118.71 149.98 113.43
  Q 145.91 102.48 141.67 91.90
  C 139.97 87.63 140.31 83.33 145.04 81.57
  C 149.16 80.03 152.50 82.54 153.91 86.38
  Q 156.29 92.87 158.53 98.54
  Z"
/>
<rect fill="#111c49" x="-117.30" y="-8.54" transform="translate(313.89,107.34) rotate(0.2)" width="234.60" height="17.08" rx="8.47"/>
<path fill="#073ace" d="
  M 464.17 116.25
  Q 479.27 137.28 489.41 160.54
  Q 487.65 159.81 485.76 159.02
  Q 471.41 153.00 456.46 157.62
  Q 461.02 137.46 464.17 116.25
  Z"
/>
<rect fill="#9fb7ff" x="-5.82" y="-32.35" transform="translate(69.91,155.57) rotate(10.0)" width="11.64" height="64.70" rx="0.27"/>
<path fill="#073ace" d="
  M 142.73 172.23
  Q 153.73 159.71 164.24 147.88
  C 170.65 140.66 180.37 149.68 174.64 156.16
  Q 161.15 171.41 147.70 186.69
  Q 146.47 188.08 145.22 189.40
  C 141.52 193.31 135.75 192.40 133.79 187.32
  Q 129.38 175.91 124.83 164.09
  C 121.48 155.41 134.15 150.64 137.38 159.56
  Q 139.86 166.40 142.27 172.15
  A 0.28 0.27 54.5 0 0 142.73 172.23
  Z"
/>
<path fill="#9fb7ff" d="
  M 25.70 177.48
  L 50.52 228.68
  A 0.34 0.34 0.0 0 1 50.36 229.14
  L 40.72 233.81
  A 0.64 0.64 0.0 0 1 39.86 233.52
  L 20.61 193.75
  L 0.24 151.54
  A 0.46 0.46 0.0 0 1 0.45 150.93
  L 10.20 146.22
  A 0.34 0.33 63.8 0 1 10.65 146.38
  L 25.70 177.48
  Z"
/>
<path fill="#4071ff" d="
  M 489.41 160.54
  Q 509.51 172.07 512.00 195.39
  L 512.00 200.76
  Q 510.85 210.52 506.93 218.70
  Q 497.52 234.04 482.04 238.82
  Q 472.43 241.78 462.28 240.10
  Q 446.02 237.41 435.30 223.64
  L 440.84 209.96
  Q 447.24 222.87 459.20 227.04
  C 477.45 233.41 496.43 221.85 499.56 203.15
  C 502.09 187.99 493.17 173.87 478.76 168.98
  Q 466.74 164.89 453.02 171.80
  L 456.46 157.62
  Q 471.41 153.00 485.76 159.02
  Q 487.65 159.81 489.41 160.54
  Z"
/>
<path fill="#073ace" d="
  M 440.84 209.96
  Q 447.75 190.74 453.02 171.80
  Q 466.74 164.89 478.76 168.98
  C 493.17 173.87 502.09 187.99 499.56 203.15
  C 496.43 221.85 477.45 233.41 459.20 227.04
  Q 447.24 222.87 440.84 209.96
  Z"
/>
<rect fill="#111c49" x="-117.28" y="-8.55" transform="translate(294.37,185.99) rotate(0.5)" width="234.56" height="17.10" rx="8.47"/>
<path fill="#073ace" d="
  M 506.93 218.70
  C 518.73 289.81 500.53 361.01 455.64 417.08
  L 446.66 405.94
  A 0.39 0.39 0.0 0 0 446.11 405.89
  L 424.12 423.66
  A 0.38 0.38 0.0 0 0 424.06 424.19
  L 435.96 438.88
  Q 386.41 487.17 319.77 503.57
  C 251.54 520.36 178.98 506.73 121.10 467.63
  Q 114.30 463.04 104.56 455.52
  Q 229.22 455.29 354.00 455.28
  C 364.70 455.28 373.76 449.03 377.31 439.00
  Q 378.52 435.55 378.52 430.37
  Q 378.46 344.90 412.17 270.90
  Q 415.94 262.64 421.24 252.50
  Q 428.76 238.11 435.30 223.64
  Q 446.02 237.41 462.28 240.10
  Q 472.43 241.78 482.04 238.82
  Q 497.52 234.04 506.93 218.70
  Z
  M 469.70 300.11
  A 15.63 15.63 0.0 0 0 454.07 284.48
  A 15.63 15.63 0.0 0 0 438.44 300.11
  A 15.63 15.63 0.0 0 0 454.07 315.74
  A 15.63 15.63 0.0 0 0 469.70 300.11
  Z
  M 435.43 372.23
  A 0.33 0.33 0.0 0 0 435.92 372.52
  L 457.68 360.46
  A 0.33 0.33 0.0 0 0 457.69 359.89
  L 436.37 347.10
  A 0.33 0.33 0.0 0 0 435.87 347.38
  L 435.43 372.23
  Z
  M 254.39 475.86
  C 246.82 480.93 238.96 475.81 232.19 472.10
  Q 221.41 466.20 210.92 471.26
  C 203.63 474.78 196.75 480.27 188.29 476.49
  Q 187.77 476.25 187.41 476.70
  L 181.75 484.01
  Q 181.35 484.53 181.88 484.92
  C 191.89 492.23 203.03 489.56 212.83 483.21
  C 217.72 480.05 222.42 480.03 227.49 482.93
  C 235.20 487.34 244.49 491.83 253.53 489.08
  C 260.29 487.03 264.36 481.05 272.11 481.48
  Q 275.57 481.67 278.72 483.22
  C 286.33 486.96 295.83 491.09 303.76 489.01
  Q 307.75 487.96 313.83 484.46
  Q 314.37 484.15 314.11 483.59
  Q 312.04 478.98 308.83 474.42
  Q 308.50 473.95 307.99 474.22
  Q 305.86 475.37 303.74 476.49
  C 300.11 478.41 295.44 477.89 291.75 476.44
  Q 286.21 474.26 280.75 471.71
  C 270.89 467.10 262.86 470.18 254.39 475.86
  Z"
/>
<path fill="#073ace" d="
  M 114.74 249.00
  Q 124.72 237.75 136.27 224.61
  C 142.59 217.42 152.65 226.23 146.16 233.56
  Q 132.08 249.44 117.33 266.17
  C 113.75 270.23 107.66 269.10 105.75 264.04
  Q 101.51 252.82 97.02 241.39
  C 93.40 232.18 105.94 227.55 109.17 235.87
  Q 111.56 242.05 114.19 248.90
  A 0.33 0.33 0.0 0 0 114.74 249.00
  Z"
/>
<rect fill="#111c49" x="-113.87" y="-8.55" transform="translate(265.48,263.16) rotate(0.4)" width="227.74" height="17.10" rx="8.47"/>
<path fill="#9fb7ff" d="
  M 11.64 270.52
  C 21.51 271.17 22.59 284.80 12.81 286.99
  Q 8.33 287.55 5.46 284.54
  C 0.38 279.23 4.04 270.93 11.64 270.52
  Z"
/>
<circle fill="#9fb7ff" cx="454.07" cy="300.11" r="15.63"/>
<path fill="#073ace" d="
  M 88.96 326.92
  Q 99.08 315.46 110.20 302.89
  C 116.67 295.57 126.55 304.51 120.41 311.43
  Q 107.11 326.43 91.63 343.98
  C 88.00 348.09 81.86 347.74 79.78 342.26
  Q 75.79 331.71 70.99 319.44
  Q 70.06 317.06 70.49 315.00
  C 71.50 310.15 77.48 307.93 81.22 311.31
  Q 82.72 312.66 83.56 314.91
  Q 86.09 321.65 88.05 326.76
  Q 88.37 327.60 88.96 326.92
  Z"
/>
<rect fill="#111c49" x="-112.76" y="-8.54" transform="translate(239.67,338.74) rotate(0.8)" width="225.52" height="17.08" rx="8.47"/>
<path fill="#9fb7ff" d="
  M 435.43 372.23
  L 435.87 347.38
  A 0.33 0.33 0.0 0 1 436.37 347.10
  L 457.69 359.89
  A 0.33 0.33 0.0 0 1 457.68 360.46
  L 435.92 372.52
  A 0.33 0.33 0.0 0 1 435.43 372.23
  Z"
/>
<path fill="#ffffff" d="
  M 76.48 419.66
  C 81.22 421.42 85.30 423.31 85.37 429.15
  C 85.44 435.47 80.46 438.19 74.89 438.15
  Q 58.31 438.03 46.96 427.07
  C 41.98 422.27 38.01 414.49 42.96 408.20
  C 47.10 402.95 53.72 403.92 58.53 407.41
  Q 63.48 411.01 69.00 415.37
  Q 72.61 418.22 76.48 419.66
  Z"
/>
<path fill="#9fb7ff" d="
  M 455.64 417.08
  L 464.19 427.82
  Q 464.53 428.25 464.10 428.60
  L 442.54 446.05
  Q 442.11 446.39 441.76 445.97
  L 435.96 438.88
  L 424.06 424.19
  A 0.38 0.38 0.0 0 1 424.12 423.66
  L 446.11 405.89
  A 0.39 0.39 0.0 0 1 446.66 405.94
  L 455.64 417.08
  Z"
/>
<ellipse fill="#ffffff" cx="0.00" cy="0.00" transform="translate(108.29,433.52) rotate(-19.3)" rx="10.02" ry="7.05"/>
<path fill="#9fb7ff" d="
  M 232.19 472.10
  C 238.96 475.81 246.82 480.93 254.39 475.86
  C 262.86 470.18 270.89 467.10 280.75 471.71
  Q 286.21 474.26 291.75 476.44
  C 295.44 477.89 300.11 478.41 303.74 476.49
  Q 305.86 475.37 307.99 474.22
  Q 308.50 473.95 308.83 474.42
  Q 312.04 478.98 314.11 483.59
  Q 314.37 484.15 313.83 484.46
  Q 307.75 487.96 303.76 489.01
  C 295.83 491.09 286.33 486.96 278.72 483.22
  Q 275.57 481.67 272.11 481.48
  C 264.36 481.05 260.29 487.03 253.53 489.08
  C 244.49 491.83 235.20 487.34 227.49 482.93
  C 222.42 480.03 217.72 480.05 212.83 483.21
  C 203.03 489.56 191.89 492.23 181.88 484.92
  Q 181.35 484.53 181.75 484.01
  L 187.41 476.70
  Q 187.77 476.25 188.29 476.49
  C 196.75 480.27 203.63 474.78 210.92 471.26
  Q 221.41 466.20 232.19 472.10
  Z"
/>
</svg>
