<?xml version="1.0" encoding="UTF-8" standalone="no"?>
<!DOCTYPE svg PUBLIC "-//W3C//DTD SVG 1.1//EN" "http://www.w3.org/Graphics/SVG/1.1/DTD/svg11.dtd">
<svg xmlns="http://www.w3.org/2000/svg" version="1.1" viewBox="0.00 0.00 512.00 512.00">
<g stroke-width="2.00" fill="none" stroke-linecap="butt">
<path stroke="#334795" vector-effect="non-scaling-stroke" d="
  M 486.67 201.20
  L 484.88 199.44"
/>
<path stroke="#334795" vector-effect="non-scaling-stroke" d="
  M 464.81 177.65
  Q 463.73 176.78 463.30 175.60"
/>
<path stroke="#3253be" vector-effect="non-scaling-stroke" d="
  M 455.92 179.42
  L 482.73 207.50"
/>
<path stroke="#252953" vector-effect="non-scaling-stroke" d="
  M 472.59 225.65
  L 470.52 224.73"
/>
<path stroke="#252953" vector-effect="non-scaling-stroke" d="
  M 466.21 222.59
  L 464.22 221.42"
/>
<path stroke="#252953" vector-effect="non-scaling-stroke" d="
  M 444.18 202.93
  L 442.87 200.79"
/>
<path stroke="#252953" vector-effect="non-scaling-stroke" d="
  M 440.62 196.67
  L 439.76 194.47"
/>
<path stroke="#334795" vector-effect="non-scaling-stroke" d="
  M 40.04 335.29
  Q 39.48 336.43 38.33 337.18"
/>
<path stroke="#334795" vector-effect="non-scaling-stroke" d="
  M 16.29 357.18
  Q 15.43 358.17 14.36 358.67"
/>
<path stroke="#252953" vector-effect="non-scaling-stroke" d="
  M 64.40 349.69
  L 63.46 351.82"
/>
<path stroke="#252953" vector-effect="non-scaling-stroke" d="
  M 61.26 356.16
  L 60.00 358.12"
/>
<path stroke="#252953" vector-effect="non-scaling-stroke" d="
  M 41.30 378.02
  L 39.35 379.29"
/>
<path stroke="#252953" vector-effect="non-scaling-stroke" d="
  M 35.04 381.43
  L 32.90 382.30"
/>
<path stroke="#3253be" vector-effect="non-scaling-stroke" d="
  M 17.90 366.15
  L 46.14 340.03
  Q 46.21 339.96 46.22 339.86
  Q 46.23 339.10 46.42 340.00"
/>
<path stroke="#5379e7" vector-effect="non-scaling-stroke" d="
  M 299.63 94.46
  Q 301.15 93.11 303.14 92.72
  Q 312.98 90.78 324.99 91.10
  Q 325.68 91.12 325.45 90.47
  L 316.09 64.65
  Q 315.88 64.07 315.27 64.14
  C 296.82 66.07 271.72 75.41 274.66 98.69
  C 275.96 108.98 279.56 115.86 290.28 119.51
  Q 296.12 121.50 302.17 123.11
  C 306.10 124.16 312.18 126.62 311.49 131.61
  Q 311.42 132.10 311.07 132.44
  C 307.28 136.11 295.70 135.23 290.45 134.61
  A 0.34 0.34 0.0 0 0 290.08 135.04
  L 296.85 161.18
  Q 296.95 161.57 297.35 161.55
  C 314.11 160.72 343.40 154.57 340.65 131.22
  Q 338.60 113.82 320.65 107.95
  Q 313.68 105.67 307.46 103.42
  C 304.03 102.18 299.79 99.29 299.29 95.38
  Q 299.21 94.83 299.63 94.46"
/>
<path stroke="#5379e7" vector-effect="non-scaling-stroke" d="
  M 220.16 148.36
  Q 220.20 150.02 219.61 148.46
  Q 213.76 132.98 206.32 117.59
  Q 204.81 114.46 202.73 111.77
  C 201.91 110.72 200.59 110.24 199.31 110.53
  Q 189.62 112.76 180.63 116.80
  Q 180.35 116.92 180.47 117.20
  C 188.69 137.52 197.77 158.47 208.49 178.02
  Q 211.57 183.65 215.71 188.83
  C 225.91 201.63 236.48 162.95 237.58 158.73
  A 0.31 0.31 0.0 0 1 238.07 158.56
  C 245.37 163.93 254.01 169.70 262.75 171.76
  Q 272.25 174.00 273.03 164.04
  C 273.64 156.28 271.84 147.32 269.89 139.97
  Q 263.31 115.23 253.13 90.76
  A 0.22 0.22 0.0 0 0 252.84 90.63
  L 230.48 98.96
  A 0.47 0.47 0.0 0 0 230.20 99.56
  Q 236.35 116.48 241.70 134.82
  Q 242.19 136.49 242.23 137.71
  Q 242.30 139.45 241.05 138.23
  C 236.03 133.33 231.29 127.61 225.53 123.85
  Q 223.17 122.30 222.21 124.84
  Q 221.21 127.48 220.88 130.56
  Q 219.94 139.33 220.16 148.36"
/>
<path stroke="#5379e7" vector-effect="non-scaling-stroke" d="
  M 149.47 151.98
  Q 149.29 151.48 149.78 151.25
  L 171.23 141.33
  Q 171.63 141.15 171.47 140.74
  Q 168.10 131.92 163.72 123.07
  A 1.86 1.85 69.1 0 0 161.56 122.10
  Q 156.21 123.62 150.14 126.43
  Q 137.30 132.39 124.52 139.16
  A 0.29 0.29 0.0 0 0 124.38 139.52
  Q 134.01 165.23 144.15 189.36
  Q 148.65 200.07 152.31 206.99
  C 153.40 209.05 154.79 212.10 157.71 211.46
  Q 164.12 210.05 170.51 207.58
  Q 184.25 202.28 196.99 196.38
  Q 197.49 196.15 197.33 195.62
  Q 194.17 185.08 189.66 174.94
  Q 189.40 174.37 188.82 174.59
  L 164.28 183.67
  A 1.38 1.37 64.2 0 1 162.62 183.09
  L 159.64 178.16
  Q 159.14 177.33 160.03 176.94
  L 176.76 169.78
  Q 177.33 169.53 177.12 168.94
  L 171.27 152.55
  A 1.45 1.45 0.0 0 0 169.50 151.65
  Q 162.48 153.69 152.75 159.35
  Q 152.26 159.64 152.07 159.11
  L 149.47 151.98"
/>
<path stroke="#5379e7" vector-effect="non-scaling-stroke" d="
  M 99.35 184.38
  Q 99.98 185.98 98.68 184.86
  Q 85.67 173.68 72.16 167.69
  C 68.47 166.05 57.94 162.60 57.23 169.81
  Q 56.76 174.58 57.68 179.68
  Q 59.31 188.69 61.97 197.22
  Q 69.70 222.00 79.64 245.36
  Q 79.89 245.95 80.50 245.73
  L 101.83 237.93
  Q 103.62 237.27 103.15 235.43
  C 100.75 225.86 96.56 216.88 92.50 207.94
  Q 92.03 206.89 93.05 207.42
  Q 108.12 215.26 123.12 220.54
  C 126.38 221.68 132.83 223.59 135.82 222.32
  A 1.29 1.28 87.5 0 0 136.55 221.52
  C 138.05 216.86 135.54 208.14 134.16 203.67
  Q 125.38 175.11 113.09 147.92
  Q 112.15 145.84 109.59 146.32
  C 102.06 147.73 94.82 151.44 88.29 155.35
  A 0.45 0.45 0.0 0 0 88.10 155.89
  L 99.35 184.38"
/>
<path stroke="#172c7c" vector-effect="non-scaling-stroke" d="
  M 376.7878 166.4677
  A 1.07 1.07 0.0 0 0 375.4012 165.8619
  L 84.1669 279.9953
  A 1.07 1.07 0.0 0 0 83.5611 281.3820
  L 83.6122 281.5123
  A 1.07 1.07 0.0 0 0 84.9988 282.1181
  L 376.2331 167.9847
  A 1.07 1.07 0.0 0 0 376.8389 166.5980
  L 376.7878 166.4677"
/>
<path stroke="#172c7c" vector-effect="non-scaling-stroke" d="
  M 411.21 255.25
  Q 412.06 253.12 411.12 252.38
  Q 409.79 251.32 409.01 250.72"
/>
<path stroke="#2456e7" vector-effect="non-scaling-stroke" d="
  M 409.01 250.72
  Q 408.80 248.98 407.35 245.43
  Q 396.39 218.52 385.41 191.68
  A 0.27 0.27 0.0 0 0 385.05 191.53
  L 318.03 218.08
  A 0.30 0.30 0.0 0 0 317.86 218.47
  L 350.34 299.97
  A 0.50 0.50 0.0 0 0 351.01 300.25
  L 417.75 271.83
  A 0.35 0.35 0.0 0 0 417.94 271.37
  L 411.21 255.25"
/>
<path stroke="#334795" vector-effect="non-scaling-stroke" d="
  M 409.01 250.72
  Q 400.38 244.15 391.96 238.56
  Q 389.41 236.86 386.89 235.78
  A 2.87 2.87 0.0 0 0 383.16 237.20
  C 380.13 243.70 380.26 253.21 380.52 260.08
  Q 380.55 260.89 379.95 260.35
  Q 371.15 252.57 361.88 245.19
  Q 356.32 240.76 351.06 237.89
  C 341.31 232.56 341.59 271.71 341.65 275.38
  A 1.07 1.07 0.0 0 0 342.44 276.40
  Q 343.13 276.59 343.74 275.73
  A 1.19 1.14 63.6 0 0 343.97 275.00
  Q 343.75 259.16 346.04 246.53
  Q 346.61 243.32 348.20 240.61
  A 1.59 1.59 0.0 0 1 350.39 240.05
  Q 356.26 243.56 361.87 248.12
  Q 371.98 256.31 380.95 264.30
  A 1.14 1.14 0.0 0 0 382.85 263.40
  Q 382.47 253.71 383.49 244.07
  Q 383.81 241.06 384.98 238.56
  A 1.21 1.20 -61.4 0 1 386.72 238.04
  Q 399.33 246.00 411.21 255.25"
/>
<path stroke="#172c7c" vector-effect="non-scaling-stroke" d="
  M 309.1177 223.5257
  A 1.12 1.12 0.0 0 0 307.6565 222.9145
  L 245.0383 248.5961
  A 1.12 1.12 0.0 0 0 244.4271 250.0573
  L 244.4423 250.0943
  A 1.12 1.12 0.0 0 0 245.9035 250.7055
  L 308.5217 225.0239
  A 1.12 1.12 0.0 0 0 309.1329 223.5627
  L 309.1177 223.5257"
/>
<path stroke="#172c7c" vector-effect="non-scaling-stroke" d="
  M 320.9507 247.9009
  A 1.12 1.12 0.0 0 0 319.4895 247.2896
  L 256.9453 272.9409
  A 1.12 1.12 0.0 0 0 256.3341 274.4021
  L 256.3493 274.4391
  A 1.12 1.12 0.0 0 0 257.8105 275.0504
  L 320.3547 249.3991
  A 1.12 1.12 0.0 0 0 320.9659 247.9379
  L 320.9507 247.9009"
/>
<path stroke="#2456e7" vector-effect="non-scaling-stroke" d="
  M 226.50 270.36
  A 0.33 0.33 0.0 0 0 226.68 269.92
  L 219.84 253.79
  A 0.33 0.33 0.0 0 0 219.41 253.61
  L 108.00 299.52
  A 0.33 0.33 0.0 0 0 107.82 299.96
  L 114.25 315.44
  A 0.33 0.33 0.0 0 0 114.68 315.62
  L 226.50 270.36"
/>
<path stroke="#172c7c" vector-effect="non-scaling-stroke" d="
  M 330.5900 270.6071
  A 1.13 1.13 0.0 0 0 329.1157 269.9904
  L 266.5715 295.6416
  A 1.13 1.13 0.0 0 0 265.9548 297.1159
  L 265.9700 297.1529
  A 1.13 1.13 0.0 0 0 267.4443 297.7696
  L 329.9885 272.1184
  A 1.13 1.13 0.0 0 0 330.6052 270.6441
  L 330.5900 270.6071"
/>
<path stroke="#042da4" vector-effect="non-scaling-stroke" d="
  M 119.39 327.36
  A 0.50 0.50 0.0 0 0 119.12 328.01
  L 125.41 343.16
  A 0.50 0.50 0.0 0 0 126.06 343.43
  L 237.53 298.31
  A 0.50 0.50 0.0 0 0 237.80 297.65
  L 231.14 281.85
  A 0.50 0.50 0.0 0 0 230.49 281.58
  L 119.39 327.36"
/>
<path stroke="#172c7c" vector-effect="non-scaling-stroke" d="
  M 421.0776 291.1451
  A 1.13 1.13 0.0 0 0 419.5887 290.5646
  L 287.5868 348.5094
  A 1.13 1.13 0.0 0 0 287.0063 349.9983
  L 287.0224 350.0349
  A 1.13 1.13 0.0 0 0 288.5113 350.6154
  L 420.5132 292.6706
  A 1.13 1.13 0.0 0 0 421.0937 291.1817
  L 421.0776 291.1451"
/>
<path stroke="#172c7c" vector-effect="non-scaling-stroke" d="
  M 339.9685 293.5995
  A 1.13 1.13 0.0 0 0 338.4942 292.9828
  L 275.9130 318.6492
  A 1.13 1.13 0.0 0 0 275.2963 320.1235
  L 275.3115 320.1605
  A 1.13 1.13 0.0 0 0 276.7858 320.7772
  L 339.3670 295.1108
  A 1.13 1.13 0.0 0 0 339.9837 293.6365
  L 339.9685 293.5995"
/>
<path stroke="#172c7c" vector-effect="non-scaling-stroke" d="
  M 431.5285 311.7091
  A 1.13 1.13 0.0 0 0 430.0396 311.1286
  L 298.0560 369.0654
  A 1.13 1.13 0.0 0 0 297.4755 370.5543
  L 297.4915 370.5909
  A 1.13 1.13 0.0 0 0 298.9804 371.1714
  L 430.9640 313.2346
  A 1.13 1.13 0.0 0 0 431.5445 311.7457
  L 431.5285 311.7091"
/>
<path stroke="#172c7c" vector-effect="non-scaling-stroke" d="
  M 243.1720 315.2728
  A 1.13 1.13 0.0 0 0 241.6977 314.6561
  L 137.3896 357.4360
  A 1.13 1.13 0.0 0 0 136.7729 358.9102
  L 136.7880 358.9472
  A 1.13 1.13 0.0 0 0 138.2623 359.5639
  L 242.5704 316.7840
  A 1.13 1.13 0.0 0 0 243.1871 315.3098
  L 243.1720 315.2728"
/>
<path stroke="#172c7c" vector-effect="non-scaling-stroke" d="
  M 255.5220 336.3928
  A 1.13 1.13 0.0 0 0 254.0477 335.7761
  L 149.7396 378.5560
  A 1.13 1.13 0.0 0 0 149.1229 380.0302
  L 149.1380 380.0672
  A 1.13 1.13 0.0 0 0 150.6123 380.6839
  L 254.9204 337.9040
  A 1.13 1.13 0.0 0 0 255.5371 336.4298
  L 255.5220 336.3928"
/>
<path stroke="#172c7c" vector-effect="non-scaling-stroke" d="
  M 262.8920 358.3328
  A 1.13 1.13 0.0 0 0 261.4177 357.7161
  L 157.1096 400.4960
  A 1.13 1.13 0.0 0 0 156.4929 401.9702
  L 156.5080 402.0072
  A 1.13 1.13 0.0 0 0 157.9823 402.6239
  L 262.2904 359.8440
  A 1.13 1.13 0.0 0 0 262.9071 358.3698
  L 262.8920 358.3328"
/>
<path stroke="#172c7c" vector-effect="non-scaling-stroke" d="
  M 270.9035 380.2404
  A 1.13 1.13 0.0 0 0 269.4292 379.6237
  L 165.1581 422.3884
  A 1.13 1.13 0.0 0 0 164.5414 423.8626
  L 164.5565 423.8996
  A 1.13 1.13 0.0 0 0 166.0308 424.5163
  L 270.3019 381.7516
  A 1.13 1.13 0.0 0 0 270.9186 380.2774
  L 270.9035 380.2404"
/>
<path stroke="#8c8995" vector-effect="non-scaling-stroke" d="
  M 89.10 32.43
  A 0.97 0.96 11.3 0 1 87.74 33.33
  Q 84.14 31.70 80.87 34.11
  C 74.86 38.54 72.34 47.82 79.43 52.89
  Q 82.12 54.82 85.31 55.78
  A 0.37 0.36 -83.6 0 0 85.78 55.40
  Q 85.45 51.13 87.43 47.23
  C 88.72 44.67 91.62 42.93 94.03 45.55
  C 98.68 50.58 96.03 57.44 89.33 58.24
  Q 88.70 58.31 88.96 58.90
  C 90.75 62.78 94.30 63.59 98.24 63.48
  Q 106.61 63.27 111.84 60.35
  A 0.82 0.81 -28.7 0 0 112.16 59.26
  Q 109.76 54.75 111.46 50.11
  C 112.41 47.52 115.80 45.79 117.24 49.25
  Q 119.59 54.91 115.84 59.80
  Q 115.53 60.22 115.89 60.59
  C 122.67 67.47 133.58 57.91 137.16 51.99
  C 140.98 45.66 138.92 39.25 131.74 36.81
  Q 130.57 36.41 130.34 37.63
  Q 129.10 44.35 123.09 45.87
  C 120.11 46.62 117.73 44.41 119.24 41.43
  C 120.95 38.04 124.01 35.66 127.72 34.72
  Q 128.36 34.56 128.25 33.90
  C 126.85 25.30 117.24 16.99 108.86 24.39
  Q 108.39 24.81 108.82 25.27
  Q 112.14 28.83 111.94 33.18
  C 111.78 36.73 108.57 39.93 105.08 37.38
  C 101.19 34.52 102.40 29.22 104.88 25.66
  Q 105.21 25.17 104.71 24.86
  C 101.61 22.95 95.15 20.52 91.85 23.10
  C 89.12 25.24 89.01 29.08 89.10 32.43"
/>
<path stroke="#8c8995" vector-effect="non-scaling-stroke" d="
  M 106.72 26.98
  C 105.01 29.43 103.51 34.05 106.94 35.84
  Q 107.83 36.31 108.55 35.59
  C 110.95 33.20 109.18 28.97 107.19 26.94
  Q 106.93 26.68 106.72 26.98"
/>
<path stroke="#8c8995" vector-effect="non-scaling-stroke" d="
  M 122.15 43.76
  C 125.16 43.09 127.87 40.59 128.04 37.28
  A 0.25 0.25 0.0 0 0 127.70 37.04
  C 125.15 37.97 122.20 40.04 121.24 42.72
  A 0.79 0.79 0.0 0 0 122.15 43.76"
/>
<path stroke="#8c8995" vector-effect="non-scaling-stroke" d="
  M 90.19 47.22
  C 88.45 49.35 87.92 52.65 88.02 55.47
  Q 88.04 56.02 88.58 55.99
  C 93.51 55.77 95.98 50.97 92.39 47.15
  Q 91.25 45.94 90.19 47.22"
/>
<path stroke="#8c8995" vector-effect="non-scaling-stroke" d="
  M 114.2918 57.6976
  A 3.96 1.33 92.0 0 0 115.7592 53.7864
  A 3.96 1.33 92.0 0 0 114.5682 49.7824
  A 3.96 1.33 92.0 0 0 113.1008 53.6936
  A 3.96 1.33 92.0 0 0 114.2918 57.6976"
/>
<path stroke="#252953" vector-effect="non-scaling-stroke" d="
  M 454.70 186.96
  A 5.58 5.58 0.0 0 0 449.12 181.38
  A 5.58 5.58 0.0 0 0 443.54 186.96
  A 5.58 5.58 0.0 0 0 449.12 192.54
  A 5.58 5.58 0.0 0 0 454.70 186.96"
/>
<path stroke="#252953" vector-effect="non-scaling-stroke" d="
  M 465.05 203.71
  A 5.57 5.57 0.0 0 0 459.48 198.14
  A 5.57 5.57 0.0 0 0 453.91 203.71
  A 5.57 5.57 0.0 0 0 459.48 209.28
  A 5.57 5.57 0.0 0 0 465.05 203.71"
/>
<path stroke="#252953" vector-effect="non-scaling-stroke" d="
  M 479.40 216.03
  A 5.58 5.58 0.0 0 0 473.82 210.45
  A 5.58 5.58 0.0 0 0 468.24 216.03
  A 5.58 5.58 0.0 0 0 473.82 221.61
  A 5.58 5.58 0.0 0 0 479.40 216.03"
/>
<path stroke="#252953" vector-effect="non-scaling-stroke" d="
  M 452.36 186.96
  A 3.25 3.25 0.0 0 0 449.11 183.71
  A 3.25 3.25 0.0 0 0 445.86 186.96
  A 3.25 3.25 0.0 0 0 449.11 190.21
  A 3.25 3.25 0.0 0 0 452.36 186.96"
/>
<path stroke="#334795" vector-effect="non-scaling-stroke" d="
  M 380.61 221.44
  A 11.04 11.04 0.0 0 0 369.57 210.40
  A 11.04 11.04 0.0 0 0 358.53 221.44
  A 11.04 11.04 0.0 0 0 369.57 232.48
  A 11.04 11.04 0.0 0 0 380.61 221.44"
/>
<path stroke="#252953" vector-effect="non-scaling-stroke" d="
  M 462.73 203.70
  A 3.25 3.25 0.0 0 0 459.48 200.45
  A 3.25 3.25 0.0 0 0 456.23 203.70
  A 3.25 3.25 0.0 0 0 459.48 206.95
  A 3.25 3.25 0.0 0 0 462.73 203.70"
/>
<path stroke="#334795" vector-effect="non-scaling-stroke" d="
  M 378.32 221.43
  A 8.75 8.75 0.0 0 0 369.57 212.68
  A 8.75 8.75 0.0 0 0 360.82 221.43
  A 8.75 8.75 0.0 0 0 369.57 230.18
  A 8.75 8.75 0.0 0 0 378.32 221.43"
/>
<path stroke="#252953" vector-effect="non-scaling-stroke" d="
  M 477.06 216.01
  A 3.24 3.24 0.0 0 0 473.82 212.77
  A 3.24 3.24 0.0 0 0 470.58 216.01
  A 3.24 3.24 0.0 0 0 473.82 219.25
  A 3.24 3.24 0.0 0 0 477.06 216.01"
/>
<path stroke="#252953" vector-effect="non-scaling-stroke" d="
  M 60.28 348.42
  A 5.57 5.57 0.0 0 0 54.71 342.85
  A 5.57 5.57 0.0 0 0 49.14 348.42
  A 5.57 5.57 0.0 0 0 54.71 353.99
  A 5.57 5.57 0.0 0 0 60.28 348.42"
/>
<path stroke="#252953" vector-effect="non-scaling-stroke" d="
  M 47.86 362.67
  A 5.58 5.58 0.0 0 0 42.28 357.09
  A 5.58 5.58 0.0 0 0 36.70 362.67
  A 5.58 5.58 0.0 0 0 42.28 368.25
  A 5.58 5.58 0.0 0 0 47.86 362.67"
/>
<path stroke="#252953" vector-effect="non-scaling-stroke" d="
  M 31.02 372.90
  A 5.58 5.58 0.0 0 0 25.44 367.32
  A 5.58 5.58 0.0 0 0 19.86 372.90
  A 5.58 5.58 0.0 0 0 25.44 378.48
  A 5.58 5.58 0.0 0 0 31.02 372.90"
/>
<path stroke="#252953" vector-effect="non-scaling-stroke" d="
  M 57.96 348.42
  A 3.25 3.25 0.0 0 0 54.71 345.17
  A 3.25 3.25 0.0 0 0 51.46 348.42
  A 3.25 3.25 0.0 0 0 54.71 351.67
  A 3.25 3.25 0.0 0 0 57.96 348.42"
/>
<path stroke="#252953" vector-effect="non-scaling-stroke" d="
  M 45.54 362.67
  A 3.26 3.26 0.0 0 0 42.28 359.41
  A 3.26 3.26 0.0 0 0 39.02 362.67
  A 3.26 3.26 0.0 0 0 42.28 365.93
  A 3.26 3.26 0.0 0 0 45.54 362.67"
/>
<path stroke="#252953" vector-effect="non-scaling-stroke" d="
  M 28.70 372.90
  A 3.26 3.26 0.0 0 0 25.44 369.64
  A 3.26 3.26 0.0 0 0 22.18 372.90
  A 3.26 3.26 0.0 0 0 25.44 376.16
  A 3.26 3.26 0.0 0 0 28.70 372.90"
/>
<path stroke="#8c8995" vector-effect="non-scaling-stroke" d="
  M 265.70 447.10
  Q 264.96 447.09 264.29 446.78
  C 258.56 444.13 253.28 452.57 252.59 457.03
  C 251.56 463.60 256.85 467.79 262.55 469.46
  A 0.43 0.43 0.0 0 0 263.10 469.02
  Q 262.81 463.22 265.65 459.67
  C 271.27 452.66 279.86 469.76 266.76 471.95
  Q 265.89 472.10 266.33 472.87
  Q 268.63 476.98 273.52 477.12
  C 278.87 477.27 284.73 476.69 289.35 473.90
  Q 289.78 473.65 289.55 473.20
  Q 286.57 467.18 289.54 462.51
  Q 290.31 461.30 291.75 461.06
  C 293.67 460.73 294.77 463.02 295.14 464.54
  Q 296.35 469.53 293.18 473.41
  Q 292.86 473.80 293.19 474.17
  C 302.22 484.55 329.01 458.39 309.33 450.57
  Q 307.88 449.99 307.61 451.53
  Q 306.72 456.62 302.43 458.90
  C 299.57 460.41 294.43 459.72 296.56 455.22
  Q 299.00 450.07 305.12 448.42
  Q 305.63 448.28 305.56 447.76
  C 304.46 439.15 294.42 430.61 286.20 438.13
  A 0.61 0.61 0.0 0 0 286.16 438.99
  Q 289.91 443.08 289.13 447.86
  C 288.63 450.90 285.64 453.26 282.67 451.29
  C 278.48 448.51 279.64 442.93 282.24 439.33
  Q 282.57 438.87 282.08 438.58
  C 277.19 435.64 267.31 432.78 266.59 442.05
  Q 266.42 444.24 266.37 446.45
  A 0.66 0.66 0.0 0 1 265.70 447.10"
/>
<path stroke="#8c8995" vector-effect="non-scaling-stroke" d="
  M 283.49 441.46
  Q 280.83 447.11 283.82 449.40
  A 1.61 1.60 -47.1 0 0 285.86 449.32
  C 288.11 447.30 286.69 443.44 285.18 441.31
  Q 284.21 439.93 283.49 441.46"
/>
<path stroke="#8c8995" vector-effect="non-scaling-stroke" d="
  M 305.41 451.22
  Q 305.55 450.61 304.97 450.82
  Q 300.30 452.49 298.50 456.49
  A 0.70 0.70 0.0 0 0 299.25 457.47
  Q 304.11 456.69 305.41 451.22"
/>
<path stroke="#8c8995" vector-effect="non-scaling-stroke" d="
  M 268.20 460.40
  C 265.76 462.20 265.19 466.52 265.40 469.25
  A 0.57 0.56 -6.7 0 0 266.05 469.76
  C 271.45 468.98 273.29 464.09 269.26 460.46
  A 0.85 0.84 48.0 0 0 268.20 460.40"
/>
<path stroke="#8c8995" vector-effect="non-scaling-stroke" d="
  M 291.5929 471.4665
  A 3.99 1.32 92.4 0 0 293.0788 467.5353
  A 3.99 1.32 92.4 0 0 291.9271 463.4935
  A 3.99 1.32 92.4 0 0 290.4412 467.4247
  A 3.99 1.32 92.4 0 0 291.5929 471.4665"
/>
</g>
<rect fill="#261d2a" x="-3.38" y="-1.15" transform="translate(374.08,15.24) rotate(-10.2)" width="6.76" height="2.30" rx="1.10"/>
<rect fill="#261d2a" x="-3.34" y="-1.15" transform="translate(383.10,15.83) rotate(19.0)" width="6.68" height="2.30" rx="1.02"/>
<path fill="#261d2a" d="
  M 226.74 28.80
  L 221.23 32.54
  Q 220.31 33.16 219.73 32.21
  L 219.60 31.98
  A 0.97 0.97 0.0 0 1 219.89 30.67
  L 224.15 27.79
  Q 225.24 27.05 223.93 27.04
  L 218.27 26.99
  A 0.80 0.79 87.6 0 1 217.49 26.27
  L 217.45 25.82
  A 0.99 0.98 87.3 0 1 218.43 24.74
  L 225.05 24.75
  Q 225.94 24.75 225.33 24.10
  L 221.75 20.28
  Q 221.12 19.60 221.81 19.00
  L 222.16 18.69
  Q 222.84 18.10 223.46 18.75
  L 226.91 22.42
  Q 227.47 23.02 227.48 22.20
  L 227.59 16.50
  Q 227.60 15.68 228.40 15.49
  Q 228.70 15.41 229.00 15.48
  Q 229.90 15.67 229.88 16.59
  L 229.74 23.27
  Q 229.73 24.01 230.34 23.60
  L 236.17 19.64
  A 1.00 0.98 33.5 0 1 236.94 19.49
  Q 237.93 19.72 237.87 20.73
  A 1.08 1.08 0.0 0 1 237.40 21.56
  L 233.38 24.33
  Q 232.65 24.82 233.53 24.81
  L 237.27 24.77
  Q 238.29 24.76 238.24 25.77
  L 238.22 26.17
  Q 238.18 27.02 237.33 27.03
  L 231.82 27.06
  A 0.32 0.31 -21.6 0 0 231.59 27.59
  L 235.48 31.74
  A 1.13 1.12 44.4 0 1 235.50 33.27
  Q 235.26 33.52 234.94 33.67
  A 0.86 0.84 56.1 0 1 233.97 33.47
  L 230.20 29.45
  Q 229.68 28.89 229.65 29.65
  L 229.46 36.31
  A 0.70 0.70 0.0 0 1 228.76 36.99
  L 228.23 36.99
  A 1.00 0.99 -89.7 0 1 227.24 35.98
  L 227.32 29.11
  Q 227.33 28.41 226.74 28.80
  Z"
/>
<path fill="#073ace" d="
  M 67.15 277.81
  Q 40.19 212.20 14.57 144.55
  A 0.42 0.42 0.0 0 1 14.79 144.02
  Q 90.87 111.49 170.15 78.39
  Q 230.26 53.30 283.51 32.30
  Q 300.69 25.53 318.28 19.42
  Q 323.94 17.45 329.41 16.34
  Q 330.03 16.21 330.24 16.81
  Q 335.11 30.93 340.94 44.26
  C 367.06 103.96 395.75 166.99 422.92 229.05
  Q 435.59 258.00 446.59 285.91
  Q 449.09 292.25 451.40 299.47
  Q 453.03 304.57 452.32 307.78
  C 450.99 313.89 444.23 320.37 439.50 323.98
  Q 425.00 335.06 409.01 343.53
  Q 373.27 362.45 331.20 379.33
  Q 264.94 405.92 200.48 425.63
  Q 183.60 430.79 166.50 435.15
  Q 158.05 437.31 149.32 438.48
  Q 147.51 438.72 145.23 438.51
  A 1.41 1.41 0.0 0 1 144.23 437.97
  Q 139.97 432.55 136.55 426.96
  Q 128.86 414.40 122.10 400.92
  C 102.00 360.87 84.21 319.31 67.15 277.81
  Z
  M 299.63 94.46
  Q 301.15 93.11 303.14 92.72
  Q 312.98 90.78 324.99 91.10
  Q 325.68 91.12 325.45 90.47
  L 316.09 64.65
  Q 315.88 64.07 315.27 64.14
  C 296.82 66.07 271.72 75.41 274.66 98.69
  C 275.96 108.98 279.56 115.86 290.28 119.51
  Q 296.12 121.50 302.17 123.11
  C 306.10 124.16 312.18 126.62 311.49 131.61
  Q 311.42 132.10 311.07 132.44
  C 307.28 136.11 295.70 135.23 290.45 134.61
  A 0.34 0.34 0.0 0 0 290.08 135.04
  L 296.85 161.18
  Q 296.95 161.57 297.35 161.55
  C 314.11 160.72 343.40 154.57 340.65 131.22
  Q 338.60 113.82 320.65 107.95
  Q 313.68 105.67 307.46 103.42
  C 304.03 102.18 299.79 99.29 299.29 95.38
  Q 299.21 94.83 299.63 94.46
  Z
  M 220.16 148.36
  Q 220.20 150.02 219.61 148.46
  Q 213.76 132.98 206.32 117.59
  Q 204.81 114.46 202.73 111.77
  C 201.91 110.72 200.59 110.24 199.31 110.53
  Q 189.62 112.76 180.63 116.80
  Q 180.35 116.92 180.47 117.20
  C 188.69 137.52 197.77 158.47 208.49 178.02
  Q 211.57 183.65 215.71 188.83
  C 225.91 201.63 236.48 162.95 237.58 158.73
  A 0.31 0.31 0.0 0 1 238.07 158.56
  C 245.37 163.93 254.01 169.70 262.75 171.76
  Q 272.25 174.00 273.03 164.04
  C 273.64 156.28 271.84 147.32 269.89 139.97
  Q 263.31 115.23 253.13 90.76
  A 0.22 0.22 0.0 0 0 252.84 90.63
  L 230.48 98.96
  A 0.47 0.47 0.0 0 0 230.20 99.56
  Q 236.35 116.48 241.70 134.82
  Q 242.19 136.49 242.23 137.71
  Q 242.30 139.45 241.05 138.23
  C 236.03 133.33 231.29 127.61 225.53 123.85
  Q 223.17 122.30 222.21 124.84
  Q 221.21 127.48 220.88 130.56
  Q 219.94 139.33 220.16 148.36
  Z
  M 149.47 151.98
  Q 149.29 151.48 149.78 151.25
  L 171.23 141.33
  Q 171.63 141.15 171.47 140.74
  Q 168.10 131.92 163.72 123.07
  A 1.86 1.85 69.1 0 0 161.56 122.10
  Q 156.21 123.62 150.14 126.43
  Q 137.30 132.39 124.52 139.16
  A 0.29 0.29 0.0 0 0 124.38 139.52
  Q 134.01 165.23 144.15 189.36
  Q 148.65 200.07 152.31 206.99
  C 153.40 209.05 154.79 212.10 157.71 211.46
  Q 164.12 210.05 170.51 207.58
  Q 184.25 202.28 196.99 196.38
  Q 197.49 196.15 197.33 195.62
  Q 194.17 185.08 189.66 174.94
  Q 189.40 174.37 188.82 174.59
  L 164.28 183.67
  A 1.38 1.37 64.2 0 1 162.62 183.09
  L 159.64 178.16
  Q 159.14 177.33 160.03 176.94
  L 176.76 169.78
  Q 177.33 169.53 177.12 168.94
  L 171.27 152.55
  A 1.45 1.45 0.0 0 0 169.50 151.65
  Q 162.48 153.69 152.75 159.35
  Q 152.26 159.64 152.07 159.11
  L 149.47 151.98
  Z
  M 99.35 184.38
  Q 99.98 185.98 98.68 184.86
  Q 85.67 173.68 72.16 167.69
  C 68.47 166.05 57.94 162.60 57.23 169.81
  Q 56.76 174.58 57.68 179.68
  Q 59.31 188.69 61.97 197.22
  Q 69.70 222.00 79.64 245.36
  Q 79.89 245.95 80.50 245.73
  L 101.83 237.93
  Q 103.62 237.27 103.15 235.43
  C 100.75 225.86 96.56 216.88 92.50 207.94
  Q 92.03 206.89 93.05 207.42
  Q 108.12 215.26 123.12 220.54
  C 126.38 221.68 132.83 223.59 135.82 222.32
  A 1.29 1.28 87.5 0 0 136.55 221.52
  C 138.05 216.86 135.54 208.14 134.16 203.67
  Q 125.38 175.11 113.09 147.92
  Q 112.15 145.84 109.59 146.32
  C 102.06 147.73 94.82 151.44 88.29 155.35
  A 0.45 0.45 0.0 0 0 88.10 155.89
  L 99.35 184.38
  Z
  M 376.7878 166.4677
  A 1.07 1.07 0.0 0 0 375.4012 165.8619
  L 84.1669 279.9953
  A 1.07 1.07 0.0 0 0 83.5611 281.3820
  L 83.6122 281.5123
  A 1.07 1.07 0.0 0 0 84.9988 282.1181
  L 376.2331 167.9847
  A 1.07 1.07 0.0 0 0 376.8389 166.5980
  L 376.7878 166.4677
  Z
  M 411.21 255.25
  Q 412.06 253.12 411.12 252.38
  Q 409.79 251.32 409.01 250.72
  Q 408.80 248.98 407.35 245.43
  Q 396.39 218.52 385.41 191.68
  A 0.27 0.27 0.0 0 0 385.05 191.53
  L 318.03 218.08
  A 0.30 0.30 0.0 0 0 317.86 218.47
  L 350.34 299.97
  A 0.50 0.50 0.0 0 0 351.01 300.25
  L 417.75 271.83
  A 0.35 0.35 0.0 0 0 417.94 271.37
  L 411.21 255.25
  Z
  M 309.1177 223.5257
  A 1.12 1.12 0.0 0 0 307.6565 222.9145
  L 245.0383 248.5961
  A 1.12 1.12 0.0 0 0 244.4271 250.0573
  L 244.4423 250.0943
  A 1.12 1.12 0.0 0 0 245.9035 250.7055
  L 308.5217 225.0239
  A 1.12 1.12 0.0 0 0 309.1329 223.5627
  L 309.1177 223.5257
  Z
  M 320.9507 247.9009
  A 1.12 1.12 0.0 0 0 319.4895 247.2896
  L 256.9453 272.9409
  A 1.12 1.12 0.0 0 0 256.3341 274.4021
  L 256.3493 274.4391
  A 1.12 1.12 0.0 0 0 257.8105 275.0504
  L 320.3547 249.3991
  A 1.12 1.12 0.0 0 0 320.9659 247.9379
  L 320.9507 247.9009
  Z
  M 226.50 270.36
  A 0.33 0.33 0.0 0 0 226.68 269.92
  L 219.84 253.79
  A 0.33 0.33 0.0 0 0 219.41 253.61
  L 108.00 299.52
  A 0.33 0.33 0.0 0 0 107.82 299.96
  L 114.25 315.44
  A 0.33 0.33 0.0 0 0 114.68 315.62
  L 226.50 270.36
  Z
  M 330.5900 270.6071
  A 1.13 1.13 0.0 0 0 329.1157 269.9904
  L 266.5715 295.6416
  A 1.13 1.13 0.0 0 0 265.9548 297.1159
  L 265.9700 297.1529
  A 1.13 1.13 0.0 0 0 267.4443 297.7696
  L 329.9885 272.1184
  A 1.13 1.13 0.0 0 0 330.6052 270.6441
  L 330.5900 270.6071
  Z
  M 119.39 327.36
  A 0.50 0.50 0.0 0 0 119.12 328.01
  L 125.41 343.16
  A 0.50 0.50 0.0 0 0 126.06 343.43
  L 237.53 298.31
  A 0.50 0.50 0.0 0 0 237.80 297.65
  L 231.14 281.85
  A 0.50 0.50 0.0 0 0 230.49 281.58
  L 119.39 327.36
  Z
  M 421.0776 291.1451
  A 1.13 1.13 0.0 0 0 419.5887 290.5646
  L 287.5868 348.5094
  A 1.13 1.13 0.0 0 0 287.0063 349.9983
  L 287.0224 350.0349
  A 1.13 1.13 0.0 0 0 288.5113 350.6154
  L 420.5132 292.6706
  A 1.13 1.13 0.0 0 0 421.0937 291.1817
  L 421.0776 291.1451
  Z
  M 339.9685 293.5995
  A 1.13 1.13 0.0 0 0 338.4942 292.9828
  L 275.9130 318.6492
  A 1.13 1.13 0.0 0 0 275.2963 320.1235
  L 275.3115 320.1605
  A 1.13 1.13 0.0 0 0 276.7858 320.7772
  L 339.3670 295.1108
  A 1.13 1.13 0.0 0 0 339.9837 293.6365
  L 339.9685 293.5995
  Z
  M 431.5285 311.7091
  A 1.13 1.13 0.0 0 0 430.0396 311.1286
  L 298.0560 369.0654
  A 1.13 1.13 0.0 0 0 297.4755 370.5543
  L 297.4915 370.5909
  A 1.13 1.13 0.0 0 0 298.9804 371.1714
  L 430.9640 313.2346
  A 1.13 1.13 0.0 0 0 431.5445 311.7457
  L 431.5285 311.7091
  Z
  M 243.1720 315.2728
  A 1.13 1.13 0.0 0 0 241.6977 314.6561
  L 137.3896 357.4360
  A 1.13 1.13 0.0 0 0 136.7729 358.9102
  L 136.7880 358.9472
  A 1.13 1.13 0.0 0 0 138.2623 359.5639
  L 242.5704 316.7840
  A 1.13 1.13 0.0 0 0 243.1871 315.3098
  L 243.1720 315.2728
  Z
  M 255.5220 336.3928
  A 1.13 1.13 0.0 0 0 254.0477 335.7761
  L 149.7396 378.5560
  A 1.13 1.13 0.0 0 0 149.1229 380.0302
  L 149.1380 380.0672
  A 1.13 1.13 0.0 0 0 150.6123 380.6839
  L 254.9204 337.9040
  A 1.13 1.13 0.0 0 0 255.5371 336.4298
  L 255.5220 336.3928
  Z
  M 262.8920 358.3328
  A 1.13 1.13 0.0 0 0 261.4177 357.7161
  L 157.1096 400.4960
  A 1.13 1.13 0.0 0 0 156.4929 401.9702
  L 156.5080 402.0072
  A 1.13 1.13 0.0 0 0 157.9823 402.6239
  L 262.2904 359.8440
  A 1.13 1.13 0.0 0 0 262.9071 358.3698
  L 262.8920 358.3328
  Z
  M 270.9035 380.2404
  A 1.13 1.13 0.0 0 0 269.4292 379.6237
  L 165.1581 422.3884
  A 1.13 1.13 0.0 0 0 164.5414 423.8626
  L 164.5565 423.8996
  A 1.13 1.13 0.0 0 0 166.0308 424.5163
  L 270.3019 381.7516
  A 1.13 1.13 0.0 0 0 270.9186 380.2774
  L 270.9035 380.2404
  Z"
/>
<rect fill="#261d2a" x="-3.40" y="-1.14" transform="translate(365.66,18.74) rotate(-33.5)" width="6.80" height="2.28" rx="1.09"/>
<rect fill="#261d2a" x="-3.38" y="-1.15" transform="translate(390.82,20.64) rotate(43.5)" width="6.76" height="2.30" rx="1.10"/>
<path fill="#261d2a" d="
  M 86.79 30.00
  C 87.07 17.26 98.24 18.22 106.11 23.08
  Q 106.57 23.36 106.98 23.00
  Q 115.03 15.94 123.38 21.94
  Q 129.56 26.38 130.51 33.81
  Q 130.58 34.31 131.07 34.42
  C 139.27 36.14 143.51 43.26 140.19 51.01
  C 136.69 59.19 122.34 71.25 114.28 62.09
  Q 113.88 61.63 113.37 61.97
  Q 109.21 64.71 103.01 65.43
  C 96.10 66.24 89.17 66.25 86.40 58.68
  Q 86.23 58.23 85.76 58.14
  Q 80.44 57.11 76.49 53.39
  C 69.39 46.68 73.38 35.91 80.79 31.50
  Q 83.34 29.98 86.25 30.45
  Q 86.78 30.54 86.79 30.00
  Z
  M 89.10 32.43
  A 0.97 0.96 11.3 0 1 87.74 33.33
  Q 84.14 31.70 80.87 34.11
  C 74.86 38.54 72.34 47.82 79.43 52.89
  Q 82.12 54.82 85.31 55.78
  A 0.37 0.36 -83.6 0 0 85.78 55.40
  Q 85.45 51.13 87.43 47.23
  C 88.72 44.67 91.62 42.93 94.03 45.55
  C 98.68 50.58 96.03 57.44 89.33 58.24
  Q 88.70 58.31 88.96 58.90
  C 90.75 62.78 94.30 63.59 98.24 63.48
  Q 106.61 63.27 111.84 60.35
  A 0.82 0.81 -28.7 0 0 112.16 59.26
  Q 109.76 54.75 111.46 50.11
  C 112.41 47.52 115.80 45.79 117.24 49.25
  Q 119.59 54.91 115.84 59.80
  Q 115.53 60.22 115.89 60.59
  C 122.67 67.47 133.58 57.91 137.16 51.99
  C 140.98 45.66 138.92 39.25 131.74 36.81
  Q 130.57 36.41 130.34 37.63
  Q 129.10 44.35 123.09 45.87
  C 120.11 46.62 117.73 44.41 119.24 41.43
  C 120.95 38.04 124.01 35.66 127.72 34.72
  Q 128.36 34.56 128.25 33.90
  C 126.85 25.30 117.24 16.99 108.86 24.39
  Q 108.39 24.81 108.82 25.27
  Q 112.14 28.83 111.94 33.18
  C 111.78 36.73 108.57 39.93 105.08 37.38
  C 101.19 34.52 102.40 29.22 104.88 25.66
  Q 105.21 25.17 104.71 24.86
  C 101.61 22.95 95.15 20.52 91.85 23.10
  C 89.12 25.24 89.01 29.08 89.10 32.43
  Z
  M 106.72 26.98
  C 105.01 29.43 103.51 34.05 106.94 35.84
  Q 107.83 36.31 108.55 35.59
  C 110.95 33.20 109.18 28.97 107.19 26.94
  Q 106.93 26.68 106.72 26.98
  Z
  M 122.15 43.76
  C 125.16 43.09 127.87 40.59 128.04 37.28
  A 0.25 0.25 0.0 0 0 127.70 37.04
  C 125.15 37.97 122.20 40.04 121.24 42.72
  A 0.79 0.79 0.0 0 0 122.15 43.76
  Z
  M 90.19 47.22
  C 88.45 49.35 87.92 52.65 88.02 55.47
  Q 88.04 56.02 88.58 55.99
  C 93.51 55.77 95.98 50.97 92.39 47.15
  Q 91.25 45.94 90.19 47.22
  Z
  M 114.2918 57.6976
  A 3.96 1.33 92.0 0 0 115.7592 53.7864
  A 3.96 1.33 92.0 0 0 114.5682 49.7824
  A 3.96 1.33 92.0 0 0 113.1008 53.6936
  A 3.96 1.33 92.0 0 0 114.2918 57.6976
  Z"
/>
<path fill="#f2f5ff" d="
  M 89.10 32.43
  C 89.01 29.08 89.12 25.24 91.85 23.10
  C 95.15 20.52 101.61 22.95 104.71 24.86
  Q 105.21 25.17 104.88 25.66
  C 102.40 29.22 101.19 34.52 105.08 37.38
  C 108.57 39.93 111.78 36.73 111.94 33.18
  Q 112.14 28.83 108.82 25.27
  Q 108.39 24.81 108.86 24.39
  C 117.24 16.99 126.85 25.30 128.25 33.90
  Q 128.36 34.56 127.72 34.72
  C 124.01 35.66 120.95 38.04 119.24 41.43
  C 117.73 44.41 120.11 46.62 123.09 45.87
  Q 129.10 44.35 130.34 37.63
  Q 130.57 36.41 131.74 36.81
  C 138.92 39.25 140.98 45.66 137.16 51.99
  C 133.58 57.91 122.67 67.47 115.89 60.59
  Q 115.53 60.22 115.84 59.80
  Q 119.59 54.91 117.24 49.25
  C 115.80 45.79 112.41 47.52 111.46 50.11
  Q 109.76 54.75 112.16 59.26
  A 0.82 0.81 -28.7 0 1 111.84 60.35
  Q 106.61 63.27 98.24 63.48
  C 94.30 63.59 90.75 62.78 88.96 58.90
  Q 88.70 58.31 89.33 58.24
  C 96.03 57.44 98.68 50.58 94.03 45.55
  C 91.62 42.93 88.72 44.67 87.43 47.23
  Q 85.45 51.13 85.78 55.40
  A 0.37 0.36 -83.6 0 1 85.31 55.78
  Q 82.12 54.82 79.43 52.89
  C 72.34 47.82 74.86 38.54 80.87 34.11
  Q 84.14 31.70 87.74 33.33
  A 0.97 0.96 11.3 0 0 89.10 32.43
  Z"
/>
<path fill="#261d2a" d="
  M 187.96 30.20
  A 7.65 7.65 0.0 0 1 180.31 37.85
  A 7.65 7.65 0.0 0 1 172.66 30.20
  A 7.65 7.65 0.0 0 1 180.31 22.55
  A 7.65 7.65 0.0 0 1 187.96 30.20
  Z
  M 185.75 30.20
  A 5.44 5.44 0.0 0 0 180.31 24.76
  A 5.44 5.44 0.0 0 0 174.87 30.20
  A 5.44 5.44 0.0 0 0 180.31 35.64
  A 5.44 5.44 0.0 0 0 185.75 30.20
  Z"
/>
<rect fill="#261d2a" x="-1.15" y="-3.41" transform="translate(396.51,27.79) rotate(-31.8)" width="2.30" height="6.82" rx="1.11"/>
<path fill="#f2f5ff" d="
  M 106.72 26.98
  Q 106.93 26.68 107.19 26.94
  C 109.18 28.97 110.95 33.20 108.55 35.59
  Q 107.83 36.31 106.94 35.84
  C 103.51 34.05 105.01 29.43 106.72 26.98
  Z"
/>
<rect fill="#261d2a" x="-1.15" y="-3.39" transform="translate(400.18,36.15) rotate(-15.3)" width="2.30" height="6.78" rx="1.08"/>
<path fill="#f2f5ff" d="
  M 128.04 37.28
  C 127.87 40.59 125.16 43.09 122.15 43.76
  A 0.79 0.79 0.0 0 1 121.24 42.72
  C 122.20 40.04 125.15 37.97 127.70 37.04
  A 0.25 0.25 0.0 0 1 128.04 37.28
  Z"
/>
<rect fill="#261d2a" x="-1.15" y="-3.41" transform="translate(401.93,45.27) rotate(-6.1)" width="2.30" height="6.82" rx="1.10"/>
<path fill="#f2f5ff" d="
  M 88.02 55.47
  C 87.92 52.65 88.45 49.35 90.19 47.22
  Q 91.25 45.94 92.39 47.15
  C 95.98 50.97 93.51 55.77 88.58 55.99
  Q 88.04 56.02 88.02 55.47
  Z"
/>
<ellipse fill="#f2f5ff" cx="0.00" cy="0.00" transform="translate(114.43,53.74) rotate(92.0)" rx="3.96" ry="1.33"/>
<path fill="#261d2a" d="
  M 400.59 53.16
  L 399.15 56.54
  Q 398.71 57.57 397.63 57.31
  Q 397.30 57.23 397.03 56.99
  A 0.73 0.73 0.0 0 1 396.83 56.17
  L 398.32 52.49
  Q 398.52 51.98 398.47 51.44
  Q 398.42 51.01 398.70 50.70
  Q 399.11 50.25 399.70 50.31
  L 404.40 50.72
  A 0.92 0.90 84.4 0 1 405.20 51.39
  Q 405.31 51.79 405.19 52.12
  Q 404.84 53.07 403.84 52.96
  L 401.37 52.70
  Q 400.81 52.64 400.59 53.16
  Z"
/>
<rect fill="#261d2a" x="-3.37" y="-1.15" transform="translate(392.67,51.98) rotate(-9.5)" width="6.74" height="2.30" rx="1.09"/>
<rect fill="#261d2a" x="-3.39" y="-1.14" transform="translate(410.80,53.41) rotate(18.2)" width="6.78" height="2.28" rx="1.09"/>
<rect fill="#261d2a" x="-3.38" y="-1.15" transform="translate(384.16,55.16) rotate(-34.8)" width="6.76" height="2.30" rx="1.10"/>
<path fill="#4071ff" d="
  M 16.56 85.14
  C 12.60 84.65 7.22 84.07 3.82 81.94
  A 1.77 1.76 -48.5 0 1 3.65 79.07
  Q 8.92 74.83 16.15 72.37
  Q 16.75 72.17 16.93 71.57
  Q 19.00 64.50 21.77 57.33
  Q 22.55 55.32 23.68 53.70
  Q 24.49 52.54 25.07 53.84
  Q 28.47 61.45 31.35 69.69
  Q 31.55 70.28 32.14 70.47
  Q 40.89 73.30 48.72 76.89
  A 0.70 0.70 0.0 0 1 48.72 78.16
  L 33.35 85.08
  A 0.92 0.90 -3.8 0 0 32.83 85.66
  C 31.15 91.03 29.61 96.85 26.46 101.45
  A 1.17 1.17 0.0 0 1 24.55 101.49
  C 21.27 97.05 19.29 91.05 17.47 85.87
  Q 17.24 85.22 16.56 85.14
  Z"
/>
<rect fill="#261d2a" x="-3.40" y="-1.15" transform="translate(419.06,57.36) rotate(34.4)" width="6.80" height="2.30" rx="1.11"/>
<rect fill="#261d2a" x="-1.15" y="-3.39" transform="translate(394.11,61.96) rotate(40.6)" width="2.30" height="6.78" rx="1.11"/>
<path fill="#261d2a" d="
  M 382.01 65.43
  A 0.45 0.45 0.0 0 1 381.64 65.95
  L 381.10 66.04
  A 2.22 1.36 80.2 0 1 379.38 64.08
  L 379.01 61.92
  A 2.22 1.36 80.2 0 1 379.97 59.50
  L 380.51 59.40
  A 0.45 0.45 0.0 0 1 381.03 59.77
  L 382.01 65.43
  Z"
/>
<rect fill="#261d2a" x="-1.15" y="-3.40" transform="translate(425.56,63.75) rotate(-34.3)" width="2.30" height="6.80" rx="1.10"/>
<path fill="#9fb7ff" d="
  M 299.29 95.38
  C 299.79 99.29 304.03 102.18 307.46 103.42
  Q 313.68 105.67 320.65 107.95
  Q 338.60 113.82 340.65 131.22
  C 343.40 154.57 314.11 160.72 297.35 161.55
  Q 296.95 161.57 296.85 161.18
  L 290.08 135.04
  A 0.34 0.34 0.0 0 1 290.45 134.61
  C 295.70 135.23 307.28 136.11 311.07 132.44
  Q 311.42 132.10 311.49 131.61
  C 312.18 126.62 306.10 124.16 302.17 123.11
  Q 296.12 121.50 290.28 119.51
  C 279.56 115.86 275.96 108.98 274.66 98.69
  C 271.72 75.41 296.82 66.07 315.27 64.14
  Q 315.88 64.07 316.09 64.65
  L 325.45 90.47
  Q 325.68 91.12 324.99 91.10
  Q 312.98 90.78 303.14 92.72
  Q 301.15 93.11 299.63 94.46
  Q 299.21 94.83 299.29 95.38
  Z"
/>
<rect fill="#261d2a" x="-3.32" y="-1.19" transform="translate(386.70,67.13) rotate(-15.6)" width="6.64" height="2.38" rx="1.08"/>
<rect fill="#261d2a" x="-1.15" y="-3.38" transform="translate(429.13,72.15) rotate(-11.3)" width="2.30" height="6.76" rx="1.08"/>
<rect fill="#261d2a" x="-1.15" y="-3.39" transform="translate(429.25,81.28) rotate(9.1)" width="2.30" height="6.78" rx="1.09"/>
<path fill="#261d2a" d="
  M 427.57 90.86
  L 426.50 92.98
  A 0.71 0.71 0.0 0 1 425.49 93.26
  L 424.96 92.94
  Q 424.27 92.52 424.62 91.79
  L 425.23 90.49
  Q 425.51 89.91 424.89 89.74
  Q 423.87 89.45 424.07 88.35
  A 0.81 0.80 4.9 0 1 424.88 87.68
  Q 426.10 87.69 427.10 87.03
  Q 427.77 86.58 428.25 87.23
  Q 428.95 88.18 430.21 88.52
  Q 430.80 88.68 430.84 89.29
  Q 430.88 89.80 430.53 90.20
  A 1.17 1.14 24.7 0 1 429.50 90.57
  L 428.44 90.41
  Q 427.84 90.33 427.57 90.86
  Z"
/>
<rect fill="#261d2a" x="-3.37" y="-1.15" transform="translate(418.32,88.71) rotate(-5.9)" width="6.74" height="2.30" rx="1.09"/>
<rect fill="#261d2a" x="-3.38" y="-1.15" transform="translate(409.72,91.57) rotate(-34.1)" width="6.76" height="2.30" rx="1.10"/>
<rect fill="#261d2a" x="-3.41" y="-1.14" transform="translate(436.20,91.69) rotate(24.3)" width="6.82" height="2.28" rx="1.10"/>
<path fill="#9fb7ff" d="
  M 220.16 148.36
  Q 219.94 139.33 220.88 130.56
  Q 221.21 127.48 222.21 124.84
  Q 223.17 122.30 225.53 123.85
  C 231.29 127.61 236.03 133.33 241.05 138.23
  Q 242.30 139.45 242.23 137.71
  Q 242.19 136.49 241.70 134.82
  Q 236.35 116.48 230.20 99.56
  A 0.47 0.47 0.0 0 1 230.48 98.96
  L 252.84 90.63
  A 0.22 0.22 0.0 0 1 253.13 90.76
  Q 263.31 115.23 269.89 139.97
  C 271.84 147.32 273.64 156.28 273.03 164.04
  Q 272.25 174.00 262.75 171.76
  C 254.01 169.70 245.37 163.93 238.07 158.56
  A 0.31 0.31 0.0 0 0 237.58 158.73
  C 236.48 162.95 225.91 201.63 215.71 188.83
  Q 211.57 183.65 208.49 178.02
  C 197.77 158.47 188.69 137.52 180.47 117.20
  Q 180.35 116.92 180.63 116.80
  Q 189.62 112.76 199.31 110.53
  C 200.59 110.24 201.91 110.72 202.73 111.77
  Q 204.81 114.46 206.32 117.59
  Q 213.76 132.98 219.61 148.46
  Q 220.20 150.02 220.16 148.36
  Z"
/>
<rect fill="#261d2a" x="-3.36" y="-1.12" transform="translate(443.93,96.69) rotate(42.5)" width="6.72" height="2.24" rx="1.07"/>
<rect fill="#261d2a" x="-1.13" y="-3.43" transform="translate(422.03,97.99) rotate(36.5)" width="2.26" height="6.86" rx="1.09"/>
<rect fill="#261d2a" x="-1.16" y="-3.36" transform="translate(404.95,98.98) rotate(8.4)" width="2.32" height="6.72" rx="1.05"/>
<rect fill="#261d2a" x="-1.15" y="-3.35" transform="translate(449.01,104.17) rotate(-19.4)" width="2.30" height="6.70" rx="1.04"/>
<rect fill="#261d2a" x="-3.39" y="-1.14" transform="translate(415.73,104.66) rotate(-37.7)" width="6.78" height="2.28" rx="1.10"/>
<path fill="#261d2a" d="
  M 406.37 104.78
  C 407.85 106.21 407.85 106.30 409.96 106.61
  Q 410.53 106.70 410.71 107.25
  Q 410.87 107.79 410.54 108.25
  Q 410.21 108.73 409.62 108.77
  Q 406.67 108.98 404.93 106.50
  Q 404.57 105.98 404.72 105.40
  Q 404.90 104.69 405.63 104.56
  Q 406.06 104.48 406.37 104.78
  Z"
/>
<rect fill="#261d2a" x="-1.14" y="-3.36" transform="translate(449.83,113.21) rotate(8.0)" width="2.28" height="6.72" rx="1.04"/>
<rect fill="#261d2a" x="-1.14" y="-3.39" transform="translate(446.85,121.86) rotate(28.9)" width="2.28" height="6.78" rx="1.10"/>
<path fill="#9fb7ff" d="
  M 149.47 151.98
  L 152.07 159.11
  Q 152.26 159.64 152.75 159.35
  Q 162.48 153.69 169.50 151.65
  A 1.45 1.45 0.0 0 1 171.27 152.55
  L 177.12 168.94
  Q 177.33 169.53 176.76 169.78
  L 160.03 176.94
  Q 159.14 177.33 159.64 178.16
  L 162.62 183.09
  A 1.38 1.37 64.2 0 0 164.28 183.67
  L 188.82 174.59
  Q 189.40 174.37 189.66 174.94
  Q 194.17 185.08 197.33 195.62
  Q 197.49 196.15 196.99 196.38
  Q 184.25 202.28 170.51 207.58
  Q 164.12 210.05 157.71 211.46
  C 154.79 212.10 153.40 209.05 152.31 206.99
  Q 148.65 200.07 144.15 189.36
  Q 134.01 165.23 124.38 139.52
  A 0.29 0.29 0.0 0 1 124.52 139.16
  Q 137.30 132.39 150.14 126.43
  Q 156.21 123.62 161.56 122.10
  A 1.86 1.85 69.1 0 1 163.72 123.07
  Q 168.10 131.92 171.47 140.74
  Q 171.63 141.15 171.23 141.33
  L 149.78 151.25
  Q 149.29 151.48 149.47 151.98
  Z"
/>
<rect fill="#261d2a" x="-1.14" y="-3.41" transform="translate(441.44,129.24) rotate(43.0)" width="2.28" height="6.82" rx="1.10"/>
<rect fill="#261d2a" x="-3.41" y="-1.14" transform="translate(434.69,135.48) rotate(-38.5)" width="6.82" height="2.28" rx="1.10"/>
<path fill="#9fb7ff" d="
  M 99.35 184.38
  L 88.10 155.89
  A 0.45 0.45 0.0 0 1 88.29 155.35
  C 94.82 151.44 102.06 147.73 109.59 146.32
  Q 112.15 145.84 113.09 147.92
  Q 125.38 175.11 134.16 203.67
  C 135.54 208.14 138.05 216.86 136.55 221.52
  A 1.29 1.28 87.5 0 1 135.82 222.32
  C 132.83 223.59 126.38 221.68 123.12 220.54
  Q 108.12 215.26 93.05 207.42
  Q 92.03 206.89 92.50 207.94
  C 96.56 216.88 100.75 225.86 103.15 235.43
  Q 103.62 237.27 101.83 237.93
  L 80.50 245.73
  Q 79.89 245.95 79.64 245.36
  Q 69.70 222.00 61.97 197.22
  Q 59.31 188.69 57.68 179.68
  Q 56.76 174.58 57.23 169.81
  C 57.94 162.60 68.47 166.05 72.16 167.69
  Q 85.67 173.68 98.68 184.86
  Q 99.98 185.98 99.35 184.38
  Z"
/>
<rect fill="#261d2a" x="-157.47" y="-1.14" transform="translate(230.20,223.99) rotate(-21.4)" width="314.94" height="2.28" rx="1.07"/>
<path fill="#261d2a" d="
  M 486.67 201.20
  L 484.88 199.44
  C 489.06 193.46 492.45 183.99 489.06 177.37
  Q 486.20 171.80 478.31 172.85
  Q 471.60 173.75 464.81 177.65
  Q 463.73 176.78 463.30 175.60
  Q 467.62 173.53 472.01 171.99
  C 480.97 168.86 491.04 169.89 492.58 181.28
  C 493.50 188.07 490.30 195.48 486.67 201.20
  Z"
/>
<path fill="#23347c" d="
  M 455.92 179.42
  L 482.73 207.50
  L 489.08 230.20
  Q 489.23 230.76 488.66 230.65
  Q 480.32 229.11 472.59 225.65
  L 470.52 224.73
  L 466.21 222.59
  L 464.22 221.42
  Q 451.97 214.47 444.18 202.93
  L 442.87 200.79
  L 440.62 196.67
  L 439.76 194.47
  Q 435.64 183.98 435.71 171.37
  Q 435.71 170.58 436.44 170.89
  L 455.92 179.42
  Z
  M 454.70 186.96
  A 5.58 5.58 0.0 0 0 449.12 181.38
  A 5.58 5.58 0.0 0 0 443.54 186.96
  A 5.58 5.58 0.0 0 0 449.12 192.54
  A 5.58 5.58 0.0 0 0 454.70 186.96
  Z
  M 465.05 203.71
  A 5.57 5.57 0.0 0 0 459.48 198.14
  A 5.57 5.57 0.0 0 0 453.91 203.71
  A 5.57 5.57 0.0 0 0 459.48 209.28
  A 5.57 5.57 0.0 0 0 465.05 203.71
  Z
  M 479.40 216.03
  A 5.58 5.58 0.0 0 0 473.82 210.45
  A 5.58 5.58 0.0 0 0 468.24 216.03
  A 5.58 5.58 0.0 0 0 473.82 221.61
  A 5.58 5.58 0.0 0 0 479.40 216.03
  Z"
/>
<path fill="#4071ff" d="
  M 463.30 175.60
  Q 463.73 176.78 464.81 177.65
  L 484.88 199.44
  L 486.67 201.20
  L 487.03 201.88
  Q 487.27 202.36 486.92 202.76
  L 482.73 207.50
  L 455.92 179.42
  Q 459.74 176.65 463.30 175.60
  Z"
/>
<path fill="#261d2a" d="
  M 485.62 178.38
  C 488.56 182.44 489.23 189.07 484.56 192.08
  A 0.75 0.74 -45.4 0 1 483.76 192.09
  L 483.51 191.94
  A 1.01 1.01 0.0 0 1 483.33 190.37
  Q 487.79 185.95 483.81 179.66
  A 0.95 0.95 0.0 0 1 484.23 178.29
  L 484.63 178.11
  A 0.83 0.82 60.1 0 1 485.62 178.38
  Z"
/>
<path fill="#261d2a" d="
  M 454.70 186.96
  A 5.58 5.58 0.0 0 1 449.12 192.54
  A 5.58 5.58 0.0 0 1 443.54 186.96
  A 5.58 5.58 0.0 0 1 449.12 181.38
  A 5.58 5.58 0.0 0 1 454.70 186.96
  Z
  M 452.36 186.96
  A 3.25 3.25 0.0 0 0 449.11 183.71
  A 3.25 3.25 0.0 0 0 445.86 186.96
  A 3.25 3.25 0.0 0 0 449.11 190.21
  A 3.25 3.25 0.0 0 0 452.36 186.96
  Z"
/>
<circle fill="#23347c" cx="449.11" cy="186.96" r="3.25"/>
<path fill="#4071ff" d="
  M 409.01 250.72
  Q 400.38 244.15 391.96 238.56
  Q 389.41 236.86 386.89 235.78
  A 2.87 2.87 0.0 0 0 383.16 237.20
  C 380.13 243.70 380.26 253.21 380.52 260.08
  Q 380.55 260.89 379.95 260.35
  Q 371.15 252.57 361.88 245.19
  Q 356.32 240.76 351.06 237.89
  C 341.31 232.56 341.59 271.71 341.65 275.38
  A 1.07 1.07 0.0 0 0 342.44 276.40
  Q 343.13 276.59 343.74 275.73
  A 1.19 1.14 63.6 0 0 343.97 275.00
  Q 343.75 259.16 346.04 246.53
  Q 346.61 243.32 348.20 240.61
  A 1.59 1.59 0.0 0 1 350.39 240.05
  Q 356.26 243.56 361.87 248.12
  Q 371.98 256.31 380.95 264.30
  A 1.14 1.14 0.0 0 0 382.85 263.40
  Q 382.47 253.71 383.49 244.07
  Q 383.81 241.06 384.98 238.56
  A 1.21 1.20 -61.4 0 1 386.72 238.04
  Q 399.33 246.00 411.21 255.25
  L 417.94 271.37
  A 0.35 0.35 0.0 0 1 417.75 271.83
  L 351.01 300.25
  A 0.50 0.50 0.0 0 1 350.34 299.97
  L 317.86 218.47
  A 0.30 0.30 0.0 0 1 318.03 218.08
  L 385.05 191.53
  A 0.27 0.27 0.0 0 1 385.41 191.68
  Q 396.39 218.52 407.35 245.43
  Q 408.80 248.98 409.01 250.72
  Z
  M 380.61 221.44
  A 11.04 11.04 0.0 0 0 369.57 210.40
  A 11.04 11.04 0.0 0 0 358.53 221.44
  A 11.04 11.04 0.0 0 0 369.57 232.48
  A 11.04 11.04 0.0 0 0 380.61 221.44
  Z"
/>
<path fill="#261d2a" d="
  M 439.76 194.47
  L 440.62 196.67
  Q 435.44 198.80 431.19 201.94
  Q 430.53 202.42 430.45 202.66
  Q 430.12 203.56 431.07 203.46
  Q 437.19 202.78 442.87 200.79
  L 444.18 202.93
  C 440.20 204.12 433.56 206.31 429.50 205.26
  A 2.09 2.09 0.0 0 1 428.12 202.35
  C 429.75 198.86 436.29 195.90 439.76 194.47
  Z"
/>
<path fill="#261d2a" d="
  M 465.05 203.71
  A 5.57 5.57 0.0 0 1 459.48 209.28
  A 5.57 5.57 0.0 0 1 453.91 203.71
  A 5.57 5.57 0.0 0 1 459.48 198.14
  A 5.57 5.57 0.0 0 1 465.05 203.71
  Z
  M 462.73 203.70
  A 3.25 3.25 0.0 0 0 459.48 200.45
  A 3.25 3.25 0.0 0 0 456.23 203.70
  A 3.25 3.25 0.0 0 0 459.48 206.95
  A 3.25 3.25 0.0 0 0 462.73 203.70
  Z"
/>
<circle fill="#23347c" cx="459.48" cy="203.70" r="3.25"/>
<path fill="#261d2a" d="
  M 380.61 221.44
  A 11.04 11.04 0.0 0 1 369.57 232.48
  A 11.04 11.04 0.0 0 1 358.53 221.44
  A 11.04 11.04 0.0 0 1 369.57 210.40
  A 11.04 11.04 0.0 0 1 380.61 221.44
  Z
  M 378.32 221.43
  A 8.75 8.75 0.0 0 0 369.57 212.68
  A 8.75 8.75 0.0 0 0 360.82 221.43
  A 8.75 8.75 0.0 0 0 369.57 230.18
  A 8.75 8.75 0.0 0 0 378.32 221.43
  Z"
/>
<path fill="#261d2a" d="
  M 479.40 216.03
  A 5.58 5.58 0.0 0 1 473.82 221.61
  A 5.58 5.58 0.0 0 1 468.24 216.03
  A 5.58 5.58 0.0 0 1 473.82 210.45
  A 5.58 5.58 0.0 0 1 479.40 216.03
  Z
  M 477.06 216.01
  A 3.24 3.24 0.0 0 0 473.82 212.77
  A 3.24 3.24 0.0 0 0 470.58 216.01
  A 3.24 3.24 0.0 0 0 473.82 219.25
  A 3.24 3.24 0.0 0 0 477.06 216.01
  Z"
/>
<circle fill="#4071ff" cx="369.57" cy="221.43" r="8.75"/>
<circle fill="#23347c" cx="473.82" cy="216.01" r="3.24"/>
<path fill="#261d2a" d="
  M 464.22 221.42
  L 466.21 222.59
  Q 463.51 228.26 462.04 234.88
  Q 461.86 235.72 462.70 235.84
  Q 462.80 235.85 463.18 235.42
  Q 467.50 230.61 470.52 224.73
  L 472.59 225.65
  C 470.70 229.48 466.79 236.46 462.78 237.97
  A 2.08 2.07 74.2 0 1 460.01 236.42
  C 459.22 232.39 462.42 225.20 464.22 221.42
  Z"
/>
<rect fill="#261d2a" x="-34.96" y="-1.14" transform="translate(276.78,236.81) rotate(-22.3)" width="69.92" height="2.28" rx="1.12"/>
<path fill="#261d2a" d="
  M 409.01 250.72
  Q 409.79 251.32 411.12 252.38
  Q 412.06 253.12 411.21 255.25
  Q 399.33 246.00 386.72 238.04
  A 1.21 1.20 -61.4 0 0 384.98 238.56
  Q 383.81 241.06 383.49 244.07
  Q 382.47 253.71 382.85 263.40
  A 1.14 1.14 0.0 0 1 380.95 264.30
  Q 371.98 256.31 361.87 248.12
  Q 356.26 243.56 350.39 240.05
  A 1.59 1.59 0.0 0 0 348.20 240.61
  Q 346.61 243.32 346.04 246.53
  Q 343.75 259.16 343.97 275.00
  A 1.19 1.14 63.6 0 1 343.74 275.73
  Q 343.13 276.59 342.44 276.40
  A 1.07 1.07 0.0 0 1 341.65 275.38
  C 341.59 271.71 341.31 232.56 351.06 237.89
  Q 356.32 240.76 361.88 245.19
  Q 371.15 252.57 379.95 260.35
  Q 380.55 260.89 380.52 260.08
  C 380.26 253.21 380.13 243.70 383.16 237.20
  A 2.87 2.87 0.0 0 1 386.89 235.78
  Q 389.41 236.86 391.96 238.56
  Q 400.38 244.15 409.01 250.72
  Z"
/>
<path fill="#261d2a" d="
  M 0.00 271.15
  L 0.00 269.96
  L 7.18 262.15
  Q 7.53 261.77 7.32 261.31
  C 5.90 258.23 4.18 254.23 4.00 250.75
  A 1.68 1.68 0.0 0 1 6.39 249.14
  L 15.29 253.31
  Q 15.92 253.61 16.41 253.12
  C 18.39 251.18 23.48 246.37 26.37 246.52
  A 1.31 1.30 6.6 0 1 27.59 248.05
  L 25.74 258.51
  A 0.82 0.81 -70.5 0 0 26.14 259.36
  C 28.70 260.77 34.25 263.60 35.70 265.99
  A 1.19 1.18 69.6 0 1 34.89 267.77
  L 23.91 269.64
  A 0.99 0.98 -88.6 0 0 23.11 270.41
  Q 22.18 275.10 19.95 279.56
  A 1.59 1.58 -52.0 0 1 17.33 279.88
  C 15.32 277.52 13.89 274.43 12.35 271.75
  Q 12.06 271.25 11.49 271.34
  Q 5.39 272.35 0.00 271.15
  Z
  M 18.36 254.37
  A 0.37 0.37 0.0 0 0 18.42 254.97
  L 23.06 257.61
  A 0.37 0.37 0.0 0 0 23.61 257.35
  L 24.98 249.54
  A 0.37 0.37 0.0 0 0 24.37 249.19
  L 18.36 254.37
  Z
  M 8.91 259.47
  A 0.48 0.48 0.0 0 0 9.70 259.64
  L 13.60 255.75
  A 0.48 0.48 0.0 0 0 13.47 254.98
  L 6.94 251.84
  A 0.48 0.48 0.0 0 0 6.29 252.44
  L 8.91 259.47
  Z
  M 22.99 260.55
  A 0.48 0.48 0.0 0 0 22.76 260.03
  L 16.49 256.60
  A 0.48 0.48 0.0 0 0 15.93 256.68
  L 10.46 262.12
  A 0.48 0.48 0.0 0 0 10.37 262.67
  L 13.18 268.53
  A 0.48 0.48 0.0 0 0 13.68 268.79
  L 21.10 267.81
  A 0.48 0.48 0.0 0 0 21.50 267.44
  L 22.99 260.55
  Z
  M 25.53 261.58
  A 0.31 0.31 0.0 0 0 25.06 261.78
  L 24.02 266.97
  A 0.31 0.31 0.0 0 0 24.38 267.34
  L 31.87 266.14
  A 0.31 0.31 0.0 0 0 31.98 265.57
  L 25.53 261.58
  Z
  M 10.47 269.19
  A 0.34 0.34 0.0 0 0 10.75 268.70
  L 8.74 264.53
  A 0.34 0.34 0.0 0 0 8.19 264.44
  L 3.84 269.11
  A 0.34 0.34 0.0 0 0 4.11 269.68
  L 10.47 269.19
  Z
  M 20.78 270.72
  A 0.41 0.41 0.0 0 0 20.34 270.20
  L 14.95 270.87
  A 0.41 0.41 0.0 0 0 14.65 271.48
  L 18.11 277.36
  A 0.41 0.41 0.0 0 0 18.86 277.27
  L 20.78 270.72
  Z"
/>
<rect fill="#261d2a" x="-34.92" y="-1.14" transform="translate(288.65,261.17) rotate(-22.3)" width="69.84" height="2.28" rx="1.12"/>
<path fill="#261d2a" d="
  M 484.01 259.84
  C 486.00 260.61 489.36 261.51 490.93 263.05
  A 1.40 1.39 -33.5 0 1 490.46 265.34
  L 483.80 267.98
  Q 483.31 268.17 483.10 268.65
  C 482.16 270.67 480.62 274.69 478.80 276.01
  Q 477.15 277.22 476.56 275.26
  L 474.36 267.92
  Q 474.19 267.34 473.60 267.23
  Q 469.83 266.56 466.48 265.16
  A 1.26 1.26 0.0 0 1 465.88 263.34
  C 467.04 261.42 472.31 259.55 474.30 258.81
  Q 474.84 258.61 475.07 258.08
  C 475.92 256.05 477.25 252.27 479.02 250.86
  A 1.42 1.41 63.1 0 1 481.28 251.60
  L 483.16 258.89
  A 1.41 1.39 3.5 0 0 484.01 259.84
  Z
  M 481.66 261.20
  A 0.36 0.36 0.0 0 1 481.45 260.97
  L 479.56 254.50
  A 0.36 0.36 0.0 0 0 478.88 254.47
  L 476.46 260.76
  A 0.36 0.36 0.0 0 1 476.23 260.97
  L 469.76 262.86
  A 0.36 0.36 0.0 0 0 469.73 263.54
  L 476.02 265.96
  A 0.36 0.36 0.0 0 1 476.23 266.19
  L 478.12 272.66
  A 0.36 0.36 0.0 0 0 478.80 272.69
  L 481.22 266.40
  A 0.36 0.36 0.0 0 1 481.45 266.19
  L 487.92 264.30
  A 0.36 0.36 0.0 0 0 487.95 263.62
  L 481.66 261.20
  Z"
/>
<path fill="#4071ff" d="
  M 226.50 270.36
  L 114.68 315.62
  A 0.33 0.33 0.0 0 1 114.25 315.44
  L 107.82 299.96
  A 0.33 0.33 0.0 0 1 108.00 299.52
  L 219.41 253.61
  A 0.33 0.33 0.0 0 1 219.84 253.79
  L 226.68 269.92
  A 0.33 0.33 0.0 0 1 226.50 270.36
  Z"
/>
<rect fill="#261d2a" x="-34.93" y="-1.15" transform="translate(298.28,283.88) rotate(-22.3)" width="69.86" height="2.30" rx="1.13"/>
<path fill="#001f7a" d="
  M 119.39 327.36
  L 230.49 281.58
  A 0.50 0.50 0.0 0 1 231.14 281.85
  L 237.80 297.65
  A 0.50 0.50 0.0 0 1 237.53 298.31
  L 126.06 343.43
  A 0.50 0.50 0.0 0 1 125.41 343.16
  L 119.12 328.01
  A 0.50 0.50 0.0 0 1 119.39 327.36
  Z"
/>
<rect fill="#261d2a" x="-73.21" y="-1.15" transform="translate(354.05,320.59) rotate(-23.7)" width="146.42" height="2.30" rx="1.13"/>
<rect fill="#261d2a" x="-34.95" y="-1.15" transform="translate(307.64,306.88) rotate(-22.3)" width="69.90" height="2.30" rx="1.13"/>
<rect fill="#261d2a" x="-73.20" y="-1.15" transform="translate(364.51,341.15) rotate(-23.7)" width="146.40" height="2.30" rx="1.13"/>
<rect fill="#261d2a" x="-57.50" y="-1.15" transform="translate(189.98,337.11) rotate(-22.3)" width="115.00" height="2.30" rx="1.13"/>
<path fill="#4071ff" d="
  M 512.00 340.78
  L 512.00 341.30
  L 496.14 348.53
  Q 495.65 348.76 495.52 349.28
  Q 493.28 358.10 489.59 364.74
  A 1.40 1.40 0.0 0 1 487.29 364.96
  Q 486.12 363.56 485.30 361.85
  Q 482.39 355.82 480.27 349.38
  A 1.05 1.05 0.0 0 0 479.37 348.67
  C 476.06 348.39 468.00 347.29 466.15 345.14
  A 1.60 1.59 48.1 0 1 466.26 342.94
  C 469.88 339.52 474.53 337.77 479.08 335.80
  Q 479.60 335.58 479.76 335.03
  Q 481.77 328.20 484.35 321.49
  Q 485.28 319.07 486.65 316.99
  A 0.59 0.59 0.0 0 1 487.68 317.06
  Q 491.07 324.37 494.08 333.19
  A 1.17 1.14 2.0 0 0 494.74 333.88
  L 512.00 340.78
  Z"
/>
<path fill="#261d2a" d="
  M 40.04 335.29
  Q 39.48 336.43 38.33 337.18
  C 33.20 333.87 26.48 330.86 20.43 331.64
  C 6.67 333.41 11.70 349.06 16.29 357.18
  Q 15.43 358.17 14.36 358.67
  C 11.36 352.94 8.91 346.35 9.30 339.93
  C 9.86 330.62 19.69 327.76 27.49 329.91
  Q 34.05 331.71 40.04 335.29
  Z"
/>
<path fill="#23347c" d="
  M 64.40 349.69
  L 63.46 351.82
  L 61.26 356.16
  L 60.00 358.12
  Q 53.03 370.23 41.30 378.02
  L 39.35 379.29
  L 35.04 381.43
  L 32.90 382.30
  Q 21.61 386.70 9.71 386.03
  Q 9.20 386.00 9.40 385.54
  L 17.90 366.15
  L 46.14 340.03
  Q 46.21 339.96 46.22 339.86
  Q 46.23 339.10 46.42 340.00
  Q 46.15 339.43 46.77 339.52
  Q 47.10 339.57 47.43 339.47
  Q 58.33 336.35 69.24 333.26
  A 0.30 0.29 88.3 0 1 69.61 333.61
  Q 67.79 341.78 64.40 349.69
  Z
  M 60.28 348.42
  A 5.57 5.57 0.0 0 0 54.71 342.85
  A 5.57 5.57 0.0 0 0 49.14 348.42
  A 5.57 5.57 0.0 0 0 54.71 353.99
  A 5.57 5.57 0.0 0 0 60.28 348.42
  Z
  M 47.86 362.67
  A 5.58 5.58 0.0 0 0 42.28 357.09
  A 5.58 5.58 0.0 0 0 36.70 362.67
  A 5.58 5.58 0.0 0 0 42.28 368.25
  A 5.58 5.58 0.0 0 0 47.86 362.67
  Z
  M 31.02 372.90
  A 5.58 5.58 0.0 0 0 25.44 367.32
  A 5.58 5.58 0.0 0 0 19.86 372.90
  A 5.58 5.58 0.0 0 0 25.44 378.48
  A 5.58 5.58 0.0 0 0 31.02 372.90
  Z"
/>
<path fill="#261d2a" d="
  M 28.92 338.53
  C 26.20 335.39 21.98 335.90 18.55 338.05
  Q 17.78 338.54 17.13 337.90
  Q 16.77 337.54 16.83 336.89
  A 1.02 0.98 -14.1 0 1 17.31 336.12
  Q 24.98 331.51 30.60 336.95
  A 1.00 0.98 -72.1 0 1 30.91 337.57
  Q 31.07 338.98 29.79 338.94
  A 1.18 1.16 -19.4 0 1 28.92 338.53
  Z"
/>
<path fill="#4071ff" d="
  M 46.42 340.00
  Q 46.23 339.10 46.22 339.86
  Q 46.21 339.96 46.14 340.03
  L 17.90 366.15
  Q 15.91 362.80 14.19 359.24
  Q 14.07 358.99 14.36 358.67
  Q 15.43 358.17 16.29 357.18
  L 38.33 337.18
  Q 39.48 336.43 40.04 335.29
  Q 42.86 335.19 46.42 340.00
  Z"
/>
<rect fill="#261d2a" x="-57.50" y="-1.15" transform="translate(202.33,358.23) rotate(-22.3)" width="115.00" height="2.30" rx="1.13"/>
<path fill="#261d2a" d="
  M 60.28 348.42
  A 5.57 5.57 0.0 0 1 54.71 353.99
  A 5.57 5.57 0.0 0 1 49.14 348.42
  A 5.57 5.57 0.0 0 1 54.71 342.85
  A 5.57 5.57 0.0 0 1 60.28 348.42
  Z
  M 57.96 348.42
  A 3.25 3.25 0.0 0 0 54.71 345.17
  A 3.25 3.25 0.0 0 0 51.46 348.42
  A 3.25 3.25 0.0 0 0 54.71 351.67
  A 3.25 3.25 0.0 0 0 57.96 348.42
  Z"
/>
<circle fill="#23347c" cx="54.71" cy="348.42" r="3.25"/>
<path fill="#261d2a" d="
  M 64.40 349.69
  C 67.98 351.55 75.39 355.81 76.60 359.75
  A 2.10 2.10 0.0 0 1 74.83 362.45
  C 70.52 362.94 63.95 359.94 60.00 358.12
  L 61.26 356.16
  L 73.23 360.38
  Q 74.60 360.86 74.24 359.38
  Q 74.21 359.28 73.54 358.71
  Q 68.97 354.80 63.46 351.82
  L 64.40 349.69
  Z"
/>
<path fill="#261d2a" d="
  M 47.86 362.67
  A 5.58 5.58 0.0 0 1 42.28 368.25
  A 5.58 5.58 0.0 0 1 36.70 362.67
  A 5.58 5.58 0.0 0 1 42.28 357.09
  A 5.58 5.58 0.0 0 1 47.86 362.67
  Z
  M 45.54 362.67
  A 3.26 3.26 0.0 0 0 42.28 359.41
  A 3.26 3.26 0.0 0 0 39.02 362.67
  A 3.26 3.26 0.0 0 0 42.28 365.93
  A 3.26 3.26 0.0 0 0 45.54 362.67
  Z"
/>
<rect fill="#261d2a" x="-57.50" y="-1.15" transform="translate(209.70,380.17) rotate(-22.3)" width="115.00" height="2.30" rx="1.13"/>
<circle fill="#23347c" cx="42.28" cy="362.67" r="3.26"/>
<path fill="#261d2a" d="
  M 31.02 372.90
  A 5.58 5.58 0.0 0 1 25.44 378.48
  A 5.58 5.58 0.0 0 1 19.86 372.90
  A 5.58 5.58 0.0 0 1 25.44 367.32
  A 5.58 5.58 0.0 0 1 31.02 372.90
  Z
  M 28.70 372.90
  A 3.26 3.26 0.0 0 0 25.44 369.64
  A 3.26 3.26 0.0 0 0 22.18 372.90
  A 3.26 3.26 0.0 0 0 25.44 376.16
  A 3.26 3.26 0.0 0 0 28.70 372.90
  Z"
/>
<path fill="#23347c" d="
  M 443.32 398.50
  C 432.81 410.30 422.15 422.68 410.77 433.60
  Q 410.35 434.00 409.92 433.61
  L 386.15 411.83
  A 0.41 0.41 0.0 0 0 385.53 411.90
  Q 378.13 422.84 370.19 433.51
  Q 367.35 437.31 364.10 440.77
  A 0.74 0.74 0.0 0 1 362.99 440.74
  L 344.81 419.13
  Q 344.44 418.70 344.86 418.31
  L 381.85 384.34
  Q 382.26 383.97 382.64 384.37
  L 403.97 407.21
  A 0.35 0.35 0.0 0 0 404.47 407.22
  L 428.34 383.82
  A 0.55 0.55 0.0 0 0 428.32 383.02
  Q 421.88 377.39 416.47 369.66
  A 1.25 1.24 73.5 0 1 417.53 367.70
  Q 433.56 368.25 449.19 367.99
  C 452.16 367.94 455.37 368.31 458.35 368.62
  Q 460.07 368.79 461.57 369.73
  Q 462.01 370.01 461.95 370.52
  C 461.71 372.59 461.26 374.73 461.12 376.82
  Q 460.20 390.64 458.93 404.50
  Q 458.60 408.11 457.42 411.39
  A 0.55 0.55 0.0 0 1 456.50 411.58
  L 444.31 398.49
  Q 443.81 397.95 443.32 398.50
  Z"
/>
<circle fill="#23347c" cx="25.44" cy="372.90" r="3.26"/>
<path fill="#261d2a" d="
  M 41.30 378.02
  Q 43.59 384.60 43.73 391.49
  Q 43.76 393.04 42.85 393.77
  A 2.18 2.17 -46.6 0 1 40.24 393.85
  C 36.83 391.45 34.45 386.19 32.90 382.30
  L 35.04 381.43
  Q 37.32 387.08 40.13 390.85
  Q 42.12 393.51 41.73 390.22
  Q 41.16 385.27 39.35 379.29
  L 41.30 378.02
  Z"
/>
<path fill="#261d2a" d="
  M 504.16 386.26
  A 7.65 7.65 0.0 0 1 496.51 393.91
  A 7.65 7.65 0.0 0 1 488.86 386.26
  A 7.65 7.65 0.0 0 1 496.51 378.61
  A 7.65 7.65 0.0 0 1 504.16 386.26
  Z
  M 501.95 386.25
  A 5.44 5.44 0.0 0 0 496.51 380.81
  A 5.44 5.44 0.0 0 0 491.07 386.25
  A 5.44 5.44 0.0 0 0 496.51 391.69
  A 5.44 5.44 0.0 0 0 501.95 386.25
  Z"
/>
<rect fill="#261d2a" x="-57.48" y="-1.15" transform="translate(217.73,402.07) rotate(-22.3)" width="114.96" height="2.30" rx="1.13"/>
<rect fill="#261d2a" x="-1.15" y="-3.41" transform="translate(73.39,399.35) rotate(20.7)" width="2.30" height="6.82" rx="1.10"/>
<rect fill="#261d2a" x="-1.15" y="-3.37" transform="translate(71.31,408.28) rotate(6.0)" width="2.30" height="6.74" rx="1.02"/>
<rect fill="#261d2a" x="-1.15" y="-3.40" transform="translate(71.81,417.41) rotate(-12.5)" width="2.30" height="6.80" rx="1.10"/>
<rect fill="#261d2a" x="-1.15" y="-3.36" transform="translate(75.41,425.82) rotate(-33.9)" width="2.30" height="6.72" rx="1.10"/>
<rect fill="#261d2a" x="-3.35" y="-1.16" transform="translate(105.98,424.62) rotate(-10.7)" width="6.70" height="2.32" rx="1.09"/>
<rect fill="#261d2a" x="-3.36" y="-1.16" transform="translate(114.77,425.98) rotate(31.4)" width="6.72" height="2.32" rx="1.02"/>
<rect fill="#261d2a" x="-3.40" y="-1.14" transform="translate(97.91,428.71) rotate(-41.3)" width="6.80" height="2.28" rx="1.10"/>
<path fill="#261d2a" d="
  M 46.97 437.35
  A 7.65 7.65 0.0 0 1 39.32 445.00
  A 7.65 7.65 0.0 0 1 31.67 437.35
  A 7.65 7.65 0.0 0 1 39.32 429.70
  A 7.65 7.65 0.0 0 1 46.97 437.35
  Z
  M 44.76 437.35
  A 5.44 5.44 0.0 0 0 39.32 431.91
  A 5.44 5.44 0.0 0 0 33.88 437.35
  A 5.44 5.44 0.0 0 0 39.32 442.79
  A 5.44 5.44 0.0 0 0 44.76 437.35
  Z"
/>
<rect fill="#261d2a" x="-3.40" y="-1.15" transform="translate(81.72,432.39) rotate(37.2)" width="6.80" height="2.30" rx="1.10"/>
<path fill="#261d2a" d="
  M 117.45 430.27
  A 0.45 0.45 0.0 0 1 118.09 430.28
  L 118.36 430.55
  A 2.46 1.57 -44.7 0 1 117.71 433.39
  L 116.42 434.67
  A 2.46 1.57 -44.7 0 1 113.56 435.29
  L 113.30 435.02
  A 0.45 0.45 0.0 0 1 113.30 434.38
  L 117.45 430.27
  Z"
/>
<path fill="#261d2a" d="
  M 91.85 435.24
  Q 92.15 433.98 92.96 433.17
  Q 93.40 432.72 93.97 432.98
  Q 95.04 433.47 94.60 434.50
  Q 93.66 436.68 92.77 438.92
  A 0.83 0.83 0.0 0 1 91.33 439.11
  Q 90.10 437.44 87.74 437.07
  Q 87.19 436.98 86.81 436.58
  Q 86.37 436.11 86.59 435.37
  A 1.02 1.02 0.0 0 1 87.89 434.69
  L 90.98 435.72
  Q 91.67 435.96 91.85 435.24
  Z"
/>
<path fill="#261d2a" d="
  M 264.20 443.66
  C 264.00 430.90 276.11 432.08 283.53 436.82
  A 0.68 0.67 -50.6 0 0 284.37 436.73
  C 293.86 427.50 306.61 436.80 307.84 447.50
  A 0.80 0.79 -88.6 0 0 308.49 448.19
  Q 314.93 449.30 317.67 455.01
  C 323.39 466.95 301.36 486.70 291.58 475.77
  Q 291.21 475.35 290.75 475.67
  Q 285.85 479.07 275.78 479.48
  Q 266.33 479.86 263.73 472.40
  Q 263.58 471.96 263.12 471.87
  Q 258.89 471.06 255.04 468.20
  C 247.63 462.69 249.33 452.91 255.31 447.25
  Q 259.17 443.60 263.65 444.15
  Q 264.21 444.22 264.20 443.66
  Z
  M 265.70 447.10
  Q 264.96 447.09 264.29 446.78
  C 258.56 444.13 253.28 452.57 252.59 457.03
  C 251.56 463.60 256.85 467.79 262.55 469.46
  A 0.43 0.43 0.0 0 0 263.10 469.02
  Q 262.81 463.22 265.65 459.67
  C 271.27 452.66 279.86 469.76 266.76 471.95
  Q 265.89 472.10 266.33 472.87
  Q 268.63 476.98 273.52 477.12
  C 278.87 477.27 284.73 476.69 289.35 473.90
  Q 289.78 473.65 289.55 473.20
  Q 286.57 467.18 289.54 462.51
  Q 290.31 461.30 291.75 461.06
  C 293.67 460.73 294.77 463.02 295.14 464.54
  Q 296.35 469.53 293.18 473.41
  Q 292.86 473.80 293.19 474.17
  C 302.22 484.55 329.01 458.39 309.33 450.57
  Q 307.88 449.99 307.61 451.53
  Q 306.72 456.62 302.43 458.90
  C 299.57 460.41 294.43 459.72 296.56 455.22
  Q 299.00 450.07 305.12 448.42
  Q 305.63 448.28 305.56 447.76
  C 304.46 439.15 294.42 430.61 286.20 438.13
  A 0.61 0.61 0.0 0 0 286.16 438.99
  Q 289.91 443.08 289.13 447.86
  C 288.63 450.90 285.64 453.26 282.67 451.29
  C 278.48 448.51 279.64 442.93 282.24 439.33
  Q 282.57 438.87 282.08 438.58
  C 277.19 435.64 267.31 432.78 266.59 442.05
  Q 266.42 444.24 266.37 446.45
  A 0.66 0.66 0.0 0 1 265.70 447.10
  Z
  M 283.49 441.46
  Q 280.83 447.11 283.82 449.40
  A 1.61 1.60 -47.1 0 0 285.86 449.32
  C 288.11 447.30 286.69 443.44 285.18 441.31
  Q 284.21 439.93 283.49 441.46
  Z
  M 305.41 451.22
  Q 305.55 450.61 304.97 450.82
  Q 300.30 452.49 298.50 456.49
  A 0.70 0.70 0.0 0 0 299.25 457.47
  Q 304.11 456.69 305.41 451.22
  Z
  M 268.20 460.40
  C 265.76 462.20 265.19 466.52 265.40 469.25
  A 0.57 0.56 -6.7 0 0 266.05 469.76
  C 271.45 468.98 273.29 464.09 269.26 460.46
  A 0.85 0.84 48.0 0 0 268.20 460.40
  Z
  M 291.5929 471.4665
  A 3.99 1.32 92.4 0 0 293.0788 467.5353
  A 3.99 1.32 92.4 0 0 291.9271 463.4935
  A 3.99 1.32 92.4 0 0 290.4412 467.4247
  A 3.99 1.32 92.4 0 0 291.5929 471.4665
  Z"
/>
<path fill="#f2f5ff" d="
  M 266.37 446.45
  Q 266.42 444.24 266.59 442.05
  C 267.31 432.78 277.19 435.64 282.08 438.58
  Q 282.57 438.87 282.24 439.33
  C 279.64 442.93 278.48 448.51 282.67 451.29
  C 285.64 453.26 288.63 450.90 289.13 447.86
  Q 289.91 443.08 286.16 438.99
  A 0.61 0.61 0.0 0 1 286.20 438.13
  C 294.42 430.61 304.46 439.15 305.56 447.76
  Q 305.63 448.28 305.12 448.42
  Q 299.00 450.07 296.56 455.22
  C 294.43 459.72 299.57 460.41 302.43 458.90
  Q 306.72 456.62 307.61 451.53
  Q 307.88 449.99 309.33 450.57
  C 329.01 458.39 302.22 484.55 293.19 474.17
  Q 292.86 473.80 293.18 473.41
  Q 296.35 469.53 295.14 464.54
  C 294.77 463.02 293.67 460.73 291.75 461.06
  Q 290.31 461.30 289.54 462.51
  Q 286.57 467.18 289.55 473.20
  Q 289.78 473.65 289.35 473.90
  C 284.73 476.69 278.87 477.27 273.52 477.12
  Q 268.63 476.98 266.33 472.87
  Q 265.89 472.10 266.76 471.95
  C 279.86 469.76 271.27 452.66 265.65 459.67
  Q 262.81 463.22 263.10 469.02
  A 0.43 0.43 0.0 0 1 262.55 469.46
  C 256.85 467.79 251.56 463.60 252.59 457.03
  C 253.28 452.57 258.56 444.13 264.29 446.78
  Q 264.96 447.09 265.70 447.10
  A 0.66 0.66 0.0 0 0 266.37 446.45
  Z"
/>
<rect fill="#261d2a" x="-3.36" y="-1.15" transform="translate(108.02,437.10) rotate(-13.6)" width="6.72" height="2.30" rx="1.06"/>
<rect fill="#261d2a" x="-3.37" y="-1.15" transform="translate(98.89,438.05) rotate(1.9)" width="6.74" height="2.30" rx="1.06"/>
<path fill="#f2f5ff" d="
  M 283.49 441.46
  Q 284.21 439.93 285.18 441.31
  C 286.69 443.44 288.11 447.30 285.86 449.32
  A 1.61 1.60 -47.1 0 1 283.82 449.40
  Q 280.83 447.11 283.49 441.46
  Z"
/>
<rect fill="#261d2a" x="-1.14" y="-3.37" transform="translate(91.13,445.12) rotate(-1.4)" width="2.28" height="6.74" rx="1.01"/>
<rect fill="#261d2a" x="-1.16" y="-3.38" transform="translate(218.71,450.12) rotate(-40.7)" width="2.32" height="6.76" rx="1.11"/>
<rect fill="#261d2a" x="-1.16" y="-3.38" transform="translate(92.85,454.07) rotate(-19.3)" width="2.32" height="6.76" rx="1.08"/>
<path fill="#f2f5ff" d="
  M 305.41 451.22
  Q 304.11 456.69 299.25 457.47
  A 0.70 0.70 0.0 0 1 298.50 456.49
  Q 300.30 452.49 304.97 450.82
  Q 305.55 450.61 305.41 451.22
  Z"
/>
<rect fill="#261d2a" x="-3.32" y="-1.16" transform="translate(159.08,456.29) rotate(-6.2)" width="6.64" height="2.32" rx="1.01"/>
<rect fill="#261d2a" x="-1.16" y="-3.38" transform="translate(222.34,458.39) rotate(-9.5)" width="2.32" height="6.76" rx="1.06"/>
<path fill="#261d2a" d="
  M 164.19 457.79
  A 0.47 0.47 0.0 0 1 164.59 457.26
  L 164.97 457.20
  A 2.67 1.65 81.8 0 1 166.98 459.61
  L 167.17 460.95
  A 2.67 1.65 81.8 0 1 165.92 463.83
  L 165.55 463.89
  A 0.47 0.47 0.0 0 1 165.01 463.49
  L 164.19 457.79
  Z"
/>
<rect fill="#261d2a" x="-1.16" y="-3.33" transform="translate(153.98,462.34) rotate(-2.0)" width="2.32" height="6.66" rx="0.95"/>
<rect fill="#261d2a" x="-1.14" y="-3.39" transform="translate(96.84,462.33) rotate(-32.0)" width="2.28" height="6.78" rx="1.08"/>
<path fill="#f2f5ff" d="
  M 265.40 469.25
  C 265.19 466.52 265.76 462.20 268.20 460.40
  A 0.85 0.84 48.0 0 1 269.26 460.46
  C 273.29 464.09 271.45 468.98 266.05 469.76
  A 0.57 0.56 -6.7 0 1 265.40 469.25
  Z"
/>
<path fill="#261d2a" d="
  M 374.43 468.90
  L 379.97 465.14
  Q 380.84 464.55 381.57 465.31
  Q 381.91 465.65 381.83 466.30
  A 0.94 0.93 76.5 0 1 381.42 466.97
  L 377.36 469.65
  Q 376.50 470.22 377.53 470.22
  L 381.13 470.23
  Q 381.88 470.23 382.15 470.93
  Q 382.27 471.23 382.20 471.55
  Q 381.99 472.46 381.06 472.47
  L 375.97 472.48
  Q 375.13 472.49 375.70 473.10
  L 379.53 477.29
  Q 380.14 477.96 379.50 478.59
  L 379.30 478.79
  Q 378.52 479.55 377.78 478.75
  L 374.01 474.66
  A 0.25 0.25 0.0 0 0 373.58 474.83
  L 373.47 481.23
  Q 373.45 482.22 372.48 482.38
  Q 372.05 482.45 371.63 482.20
  A 0.87 0.87 0.0 0 1 371.21 481.44
  L 371.28 474.50
  Q 371.29 473.81 370.71 474.20
  L 365.22 477.91
  Q 364.18 478.62 363.61 477.49
  L 363.48 477.23
  A 0.80 0.79 -31.1 0 1 363.74 476.22
  L 368.41 472.93
  Q 369.05 472.49 368.27 472.48
  L 362.30 472.39
  Q 361.06 472.38 361.34 471.17
  L 361.40 470.88
  A 0.94 0.93 6.6 0 1 362.31 470.16
  L 369.27 470.15
  A 0.25 0.25 0.0 0 0 369.46 469.73
  L 365.78 465.74
  A 0.99 0.99 0.0 0 1 365.70 464.50
  L 365.85 464.28
  A 1.03 1.03 0.0 0 1 367.45 464.17
  L 370.91 467.92
  Q 371.46 468.51 371.47 467.70
  L 371.52 461.98
  Q 371.54 460.87 372.65 460.80
  Q 372.78 460.79 372.91 460.82
  Q 373.81 461.00 373.80 461.93
  L 373.73 468.52
  Q 373.72 469.39 374.43 468.90
  Z"
/>
<ellipse fill="#f2f5ff" cx="0.00" cy="0.00" transform="translate(291.76,467.48) rotate(92.4)" rx="3.99" ry="1.32"/>
<rect fill="#261d2a" x="-1.16" y="-3.36" transform="translate(222.34,467.54) rotate(8.4)" width="2.32" height="6.72" rx="1.10"/>
<rect fill="#261d2a" x="-1.14" y="-3.39" transform="translate(163.42,469.08) rotate(29.5)" width="2.28" height="6.78" rx="1.10"/>
<rect fill="#261d2a" x="-1.14" y="-3.42" transform="translate(102.23,469.74) rotate(-40.1)" width="2.28" height="6.84" rx="1.09"/>
<path fill="#261d2a" d="
  M 158.60 477.07
  L 157.02 478.64
  Q 156.26 479.39 155.36 478.83
  Q 155.21 478.73 155.13 478.57
  Q 154.80 477.90 155.23 477.30
  Q 156.12 476.04 157.52 475.06
  Q 157.99 474.73 157.61 474.31
  Q 155.71 472.25 154.69 469.48
  Q 154.46 468.88 154.64 468.47
  Q 154.94 467.82 155.80 467.82
  A 0.89 0.87 75.9 0 1 156.58 468.30
  L 159.06 473.08
  Q 159.31 473.57 159.83 473.76
  Q 160.69 474.06 160.38 474.97
  Q 160.23 475.42 160.58 475.72
  Q 162.71 477.55 164.25 480.13
  A 0.93 0.93 0.0 0 1 163.47 481.54
  Q 162.73 481.55 162.20 480.90
  C 161.19 479.66 160.11 478.64 159.39 477.20
  Q 159.09 476.59 158.60 477.07
  Z"
/>
<rect fill="#261d2a" x="-1.13" y="-3.42" transform="translate(219.93,476.41) rotate(21.5)" width="2.26" height="6.84" rx="1.09"/>
<rect fill="#261d2a" x="-3.41" y="-1.14" transform="translate(108.55,476.44) rotate(43.1)" width="6.82" height="2.28" rx="1.10"/>
<rect fill="#261d2a" x="-3.39" y="-1.14" transform="translate(115.81,482.05) rotate(31.9)" width="6.78" height="2.28" rx="1.10"/>
<rect fill="#261d2a" x="-3.45" y="-1.05" transform="translate(150.53,481.97) rotate(-31.7)" width="6.90" height="2.10" rx="1.02"/>
<path fill="#261d2a" d="
  M 217.88 482.70
  Q 216.12 486.32 213.39 488.04
  Q 212.71 488.47 212.98 487.72
  Q 214.04 484.72 216.03 481.98
  Q 216.36 481.52 216.93 481.48
  Q 217.48 481.44 217.80 481.86
  A 0.83 0.81 -51.1 0 1 217.88 482.70
  Z"
/>
<rect fill="#261d2a" x="-3.47" y="-1.08" transform="translate(168.05,485.31) rotate(42.4)" width="6.94" height="2.16" rx="1.04"/>
<rect fill="#261d2a" x="-3.39" y="-1.14" transform="translate(124.12,485.90) rotate(16.4)" width="6.78" height="2.28" rx="1.07"/>
<rect fill="#261d2a" x="-3.36" y="-1.14" transform="translate(142.20,485.82) rotate(-17.3)" width="6.72" height="2.28" rx="1.09"/>
<rect fill="#261d2a" x="-3.37" y="-1.15" transform="translate(133.16,487.23) rotate(-0.4)" width="6.74" height="2.30" rx="1.09"/>
<rect fill="#261d2a" x="-3.40" y="-1.14" transform="translate(175.35,490.96) rotate(32.9)" width="6.80" height="2.28" rx="1.09"/>
<ellipse fill="#261d2a" cx="0.00" cy="0.00" transform="translate(209.48,491.23) rotate(-39.1)" rx="3.84" ry="1.06"/>
<rect fill="#261d2a" x="-3.38" y="-1.16" transform="translate(183.53,495.11) rotate(20.5)" width="6.76" height="2.32" rx="1.11"/>
<rect fill="#261d2a" x="-3.39" y="-1.14" transform="translate(201.53,495.73) rotate(-19.4)" width="6.78" height="2.28" rx="1.08"/>
<rect fill="#261d2a" x="-3.37" y="-1.15" transform="translate(192.48,497.03) rotate(3.0)" width="6.74" height="2.30" rx="1.04"/>
</svg>
