<?xml version="1.0" encoding="UTF-8" standalone="no"?>
<!DOCTYPE svg PUBLIC "-//W3C//DTD SVG 1.1//EN" "http://www.w3.org/Graphics/SVG/1.1/DTD/svg11.dtd">
<svg xmlns="http://www.w3.org/2000/svg" version="1.1" viewBox="0.00 0.00 512.00 512.00">
<g stroke-width="2.00" fill="none" stroke-linecap="butt">
<path stroke="#0c2b8c" vector-effect="non-scaling-stroke" d="
  M 197.71 34.05
  Q 197.08 34.48 196.89 34.91
  Q 196.70 35.34 197.01 35.68
  C 208.21 48.22 222.37 57.61 239.07 59.61
  C 240.30 59.76 241.27 59.22 242.24 58.55
  C 244.33 57.11 246.86 57.66 248.70 59.29
  A 1.32 1.32 0.0 0 0 249.77 59.61
  Q 270.41 56.53 284.83 41.45"
/>
<path stroke="#0c2b8c" vector-effect="non-scaling-stroke" d="
  M 297.61 45.73
  L 291.41 48.47
  Q 290.89 48.69 290.61 49.18
  Q 288.12 53.51 283.34 51.95
  Q 282.77 51.77 282.29 52.13
  Q 268.34 62.59 252.60 65.23
  Q 252.10 65.31 252.34 65.76
  Q 265.04 88.64 259.61 114.07
  C 259.21 115.93 258.42 117.74 258.08 119.63
  Q 257.99 120.11 258.24 120.52
  Q 267.62 136.16 270.81 154.21
  A 0.94 0.93 87.1 0 0 271.65 154.98
  Q 277.19 155.45 279.07 160.09
  C 283.52 171.11 279.48 185.15 275.12 195.84
  Q 274.84 196.53 275.51 196.86
  C 286.88 202.42 271.08 221.40 266.19 226.35
  A 0.31 0.31 0.0 0 0 266.38 226.88
  Q 280.86 228.12 296.84 232.31
  C 303.63 234.09 309.95 236.71 316.69 238.68
  Q 317.87 239.02 318.56 239.95
  C 324.63 248.16 333.35 254.12 343.39 248.04
  Q 349.25 244.49 351.26 241.42
  Q 359.46 228.91 370.10 216.56
  Q 373.35 212.79 376.66 210.80
  Q 388.73 203.57 399.02 212.30
  Q 399.46 212.67 399.78 212.19
  L 425.27 173.70"
/>
<path stroke="#0c2b8c" vector-effect="non-scaling-stroke" d="
  M 427.83 181.60
  L 404.22 218.44
  A 0.87 0.87 0.0 0 0 404.23 219.41
  Q 406.53 222.84 407.11 226.53
  A 1.10 1.09 -86.2 0 0 407.86 227.40
  C 414.62 229.50 421.80 232.96 423.71 240.43
  C 424.70 244.30 424.67 248.19 425.26 251.95
  Q 425.81 255.44 425.50 258.11
  C 423.61 274.37 413.99 287.22 400.16 296.00
  Q 390.35 302.22 380.91 303.49
  A 1.44 1.43 14.4 0 0 379.95 304.05
  Q 375.37 310.06 370.50 316.08
  Q 369.40 317.44 367.92 318.29
  Q 360.99 322.31 353.26 324.45
  A 2.63 2.61 3.5 0 0 351.55 325.95
  C 347.32 335.86 334.32 334.51 325.73 331.13
  Q 325.10 330.88 325.06 331.56
  C 324.99 332.84 324.55 334.31 323.97 335.44
  C 320.22 342.66 312.46 342.68 306.63 337.98
  A 0.37 0.37 0.0 0 0 306.03 338.24
  C 303.76 367.39 292.56 394.05 272.00 414.15
  Q 271.66 414.49 271.69 414.97
  Q 272.40 424.92 267.91 433.07
  A 1.81 1.79 -38.6 0 0 267.75 434.43
  L 274.08 456.22"
/>
<path stroke="#0c2b8c" vector-effect="non-scaling-stroke" d="
  M 250.64 460.52
  L 242.32 443.54
  Q 241.96 442.80 241.18 442.52
  C 238.51 441.56 233.44 439.37 232.11 436.80
  Q 231.83 436.26 231.24 436.41
  Q 210.61 441.69 186.67 437.65
  Q 186.29 437.59 186.06 437.89
  Q 180.34 445.36 172.17 448.25
  Q 171.67 448.43 171.42 448.90
  L 168.21 455.14"
/>
<path stroke="#0c2b8c" vector-effect="non-scaling-stroke" d="
  M 144.63 447.38
  L 146.77 439.95
  A 1.24 1.22 36.9 0 0 146.62 438.95
  Q 143.48 433.95 142.27 428.15
  Q 142.14 427.56 141.54 427.59
  Q 126.76 428.28 110.29 425.49
  Q 105.30 424.65 100.07 423.42"
/>
<path stroke="#0c2b8c" vector-effect="non-scaling-stroke" d="
  M 82.33 409.55
  L 81.14 402.58
  Q 81.06 402.10 80.66 401.83
  L 60.98 388.20"
/>
<path stroke="#0c2b8c" vector-effect="non-scaling-stroke" d="
  M 17.52 309.78
  Q 21.66 301.18 30.48 294.34
  Q 30.95 293.98 30.50 293.58
  C 25.80 289.53 27.82 282.41 34.01 281.68
  Q 36.60 281.37 40.04 278.80
  Q 48.47 272.51 56.88 266.13
  Q 73.66 253.41 93.30 243.99
  Q 94.07 243.63 93.36 243.17
  C 88.62 240.14 83.98 235.61 87.04 230.00
  Q 87.42 229.29 86.70 228.94
  Q 61.34 216.48 54.72 187.15
  Q 53.92 183.60 54.53 180.97
  C 55.95 174.87 63.73 170.97 69.33 169.24
  A 0.97 0.97 0.0 0 0 70.00 168.46
  Q 72.12 153.49 78.31 138.99
  Q 78.50 138.53 78.27 138.09
  C 71.42 125.41 67.47 113.35 67.81 98.91"
/>
<path stroke="#0c2b8c" vector-effect="non-scaling-stroke" d="
  M 191.97 57.37
  C 199.05 53.67 200.73 63.65 200.54 68.01
  Q 200.51 68.68 201.17 68.77
  C 207.03 69.62 212.29 72.77 215.95 77.34
  A 0.48 0.47 51.7 0 0 216.60 77.42
  L 232.91 65.35
  Q 233.55 64.88 232.78 64.70
  Q 210.20 59.59 192.53 39.72
  A 0.56 0.56 0.0 0 0 191.72 39.69
  L 177.17 53.93
  Q 176.81 54.29 176.99 54.76
  L 180.14 62.90
  A 0.47 0.47 0.0 0 0 180.79 63.15
  Q 185.84 60.58 191.97 57.37"
/>
<path stroke="#586aa4" vector-effect="non-scaling-stroke" d="
  M 191.40 256.76
  L 206.16 256.62"
/>
<path stroke="#2947a4" vector-effect="non-scaling-stroke" d="
  M 206.16 256.62
  Q 209.73 256.62 213.49 256.17
  Q 216.93 255.77 219.67 254.26
  C 233.66 246.55 247.02 237.83 258.98 226.57
  C 265.16 220.75 273.00 211.82 274.52 203.75
  C 275.12 200.58 270.27 200.43 268.25 200.74
  A 0.45 0.45 0.0 0 1 267.78 200.10
  C 273.02 189.61 279.12 172.73 274.33 161.75
  C 273.28 159.33 269.54 159.84 267.53 160.42
  Q 266.81 160.63 266.70 159.89
  Q 263.68 138.27 252.71 121.05
  Q 252.38 120.53 252.59 119.95
  C 259.63 100.87 256.18 80.21 245.16 63.09
  Q 244.84 62.59 244.37 62.94
  L 210.26 88.03
  A 1.15 1.13 -54.6 0 1 209.26 88.21
  L 201.27 85.86
  Q 200.50 85.64 201.28 85.43
  L 212.60 82.38
  A 0.63 0.63 0.0 0 0 212.96 81.41
  Q 206.65 72.27 195.28 73.67
  Q 194.56 73.76 194.81 73.08
  Q 196.79 67.79 194.97 62.16
  Q 194.73 61.44 194.07 61.79
  Q 167.09 75.83 140.82 89.40
  Q 136.19 91.79 131.16 93.49
  Q 122.99 96.26 116.15 100.66
  A 0.67 0.66 48.3 0 1 115.36 100.61
  L 81.63 72.37
  A 0.36 0.36 0.0 0 0 81.10 72.45
  Q 72.54 86.27 72.63 102.22
  C 72.71 113.80 76.78 126.90 83.57 137.42
  A 1.32 1.31 40.6 0 1 83.67 138.67
  Q 76.30 155.14 74.23 172.39
  Q 74.17 172.88 73.69 173.00
  Q 68.76 174.17 63.79 176.99
  C 58.16 180.18 58.51 183.81 60.07 189.35
  Q 68.59 219.60 98.71 228.26
  Q 99.88 228.60 98.67 228.77
  C 95.67 229.20 87.77 231.41 92.08 235.94
  Q 94.12 238.08 96.85 239.90
  Q 105.54 245.67 114.29 248.43
  Q 132.51 254.18 152.49 255.72
  C 157.21 256.08 162.16 256.70 166.84 256.81
  Q 179.27 257.08 191.40 256.76"
/>
<path stroke="#7094ff" vector-effect="non-scaling-stroke" d="
  M 206.16 256.62
  Q 198.88 255.49 191.40 256.76"
/>
<path stroke="#586aa4" vector-effect="non-scaling-stroke" d="
  M 238.97 248.43
  L 233.68 251.74"
/>
<path stroke="#888ea4" vector-effect="non-scaling-stroke" d="
  M 233.68 251.74
  Q 226.55 256.07 218.62 260.06
  Q 217.73 260.51 216.74 260.59
  Q 191.90 262.65 166.93 261.57"
/>
<path stroke="#586aa4" vector-effect="non-scaling-stroke" d="
  M 166.93 261.57
  L 158.88 261.15"
/>
<path stroke="#2947a4" vector-effect="non-scaling-stroke" d="
  M 158.88 261.15
  C 138.67 259.80 116.87 256.44 98.81 246.89
  A 1.87 1.85 -43.3 0 0 97.14 246.85
  Q 76.98 256.30 59.02 269.74
  Q 50.99 275.75 43.34 281.60
  Q 38.71 285.14 34.03 286.22
  A 1.40 1.40 0.0 0 0 33.37 288.59
  Q 37.89 292.98 44.54 292.23
  Q 44.69 292.22 44.66 292.36
  Q 44.63 292.52 44.76 292.62
  A 0.04 0.04 0.0 0 1 44.75 292.70
  C 34.56 295.86 26.12 302.50 22.18 312.38
  Q 21.01 315.32 22.97 317.21
  C 25.94 320.08 34.16 313.80 36.54 311.82
  Q 36.66 311.72 36.76 311.83
  L 36.76 311.84
  Q 36.91 312.00 36.75 312.15
  C 31.12 317.38 25.90 323.20 23.02 330.20
  C 21.62 333.61 21.11 339.85 26.24 340.32
  C 32.17 340.85 36.05 336.58 38.72 331.77
  Q 38.79 331.63 38.94 331.70
  L 38.95 331.70
  Q 39.09 331.76 39.03 331.90
  C 35.65 340.47 34.02 349.36 37.06 358.10
  C 38.24 361.47 42.19 366.01 45.84 362.44
  Q 46.34 361.95 46.63 362.59
  Q 50.55 371.24 57.93 378.17
  Q 67.54 387.21 84.92 397.79
  Q 85.48 398.13 86.13 398.06
  C 103.37 396.20 121.55 391.48 135.27 381.55
  Q 144.03 375.21 146.38 364.51
  Q 146.50 363.97 146.18 363.51
  L 138.25 352.19
  A 0.25 0.25 0.0 0 0 137.80 352.27
  Q 136.87 356.03 133.09 357.61
  Q 132.31 357.94 132.63 357.16
  Q 135.33 350.60 130.86 345.06
  Q 130.41 344.50 131.12 344.60
  Q 133.89 345.00 136.06 346.65
  Q 136.48 346.98 136.89 346.63
  L 139.04 344.80
  Q 139.48 344.42 139.51 343.85
  C 139.77 338.87 136.94 331.04 130.93 331.27
  Q 121.27 331.63 113.55 337.95
  Q 113.24 338.21 113.05 337.85
  C 106.31 324.72 103.39 308.46 113.28 296.54
  Q 115.58 293.76 114.15 297.08
  C 110.16 306.37 108.59 319.77 115.61 327.96
  Q 115.96 328.36 116.43 328.12
  Q 121.83 325.42 127.75 325.00
  Q 136.92 324.35 143.02 334.56"
/>
<path stroke="#586aa4" vector-effect="non-scaling-stroke" d="
  M 143.02 334.56
  L 144.59 345.79"
/>
<path stroke="#2947a4" vector-effect="non-scaling-stroke" d="
  M 144.59 345.79
  Q 143.10 348.68 145.66 351.28"
/>
<path stroke="#586aa4" vector-effect="non-scaling-stroke" d="
  M 145.66 351.28
  Q 148.23 355.54 150.94 359.83
  Q 152.77 362.73 152.88 365.09
  Q 153.00 367.95 152.04 370.84"
/>
<path stroke="#2947a4" vector-effect="non-scaling-stroke" d="
  M 152.04 370.84
  C 141.31 392.99 109.49 402.22 87.08 403.17
  Q 86.42 403.20 86.47 403.86
  C 87.91 423.21 133.29 422.80 145.92 421.99
  A 0.75 0.74 86.6 0 1 146.71 422.70
  C 147.43 435.32 157.44 448.37 171.76 442.52
  Q 179.20 439.47 183.60 432.06
  Q 183.89 431.57 184.46 431.67
  Q 205.54 435.59 221.79 432.88
  Q 236.58 430.42 248.92 420.72
  Q 250.02 419.86 249.42 421.12
  Q 245.40 429.61 236.92 433.97
  A 0.24 0.24 0.0 0 0 236.91 434.40
  C 240.66 436.46 245.53 438.67 249.87 438.42
  Q 256.87 438.01 261.03 433.18
  C 266.02 427.40 267.12 420.55 266.25 412.68
  A 1.25 1.24 -24.4 0 1 266.64 411.65
  C 285.51 394.45 296.23 371.26 300.07 345.62
  Q 301.58 335.55 300.43 326.29
  C 297.78 304.92 289.58 283.96 278.25 265.64
  Q 277.22 263.99 278.45 265.50
  Q 300.96 293.21 305.69 328.05
  Q 306.01 330.36 307.28 331.53
  C 309.79 333.84 313.20 336.43 316.74 334.98
  C 323.71 332.12 318.09 321.92 314.50 318.70
  Q 314.45 318.66 314.49 318.61
  L 314.67 318.42
  Q 314.82 318.25 314.99 318.39
  Q 324.73 326.42 335.79 327.99
  C 339.93 328.58 348.36 326.78 346.16 320.74
  Q 345.91 320.05 346.60 320.29
  C 347.49 320.61 348.25 320.47 349.09 320.13
  C 353.72 318.29 358.65 316.91 363.04 314.55
  Q 365.44 313.27 367.10 311.17
  Q 372.28 304.63 377.08 298.42
  Q 377.44 297.96 378.03 297.96
  Q 381.48 297.98 384.80 296.88
  C 400.39 291.71 413.78 279.90 418.61 263.91
  Q 421.08 255.74 419.49 245.49
  C 419.10 242.95 418.60 239.64 416.64 237.77
  C 412.78 234.12 406.88 232.28 401.85 230.85
  Q 400.92 230.59 401.60 231.28
  Q 402.91 232.62 404.00 234.17
  Q 405.07 235.70 403.69 234.44
  Q 401.10 232.07 397.95 230.56
  C 387.13 225.37 381.56 233.32 378.86 242.51
  Q 374.82 256.26 376.60 268.44
  Q 377.53 274.81 378.25 279.90
  Q 378.53 281.92 377.37 280.23
  C 373.00 273.88 370.35 282.08 369.70 285.27
  Q 369.63 285.61 369.29 285.70
  A 0.48 0.48 0.0 0 1 368.69 285.28
  Q 368.23 279.54 370.22 274.74
  Q 370.52 274.01 371.14 273.53
  Q 372.50 272.45 371.72 270.02
  Q 371.52 269.39 371.17 269.95
  L 348.92 304.63
  Q 347.19 307.32 344.52 305.56
  L 342.64 304.33
  Q 340.01 302.61 341.75 299.99
  Q 355.56 279.14 368.58 259.37
  C 369.12 258.56 369.41 257.57 369.57 256.62
  C 370.96 247.79 376.18 217.25 391.48 223.16
  Q 392.36 223.49 392.87 222.71
  L 396.17 217.71
  Q 396.47 217.25 396.11 216.84
  C 389.35 209.04 378.92 213.47 373.40 219.83
  Q 364.54 230.04 356.13 242.52
  C 351.74 249.03 343.72 254.92 335.71 255.30
  C 327.22 255.70 320.10 250.36 315.04 243.73
  A 1.98 1.94 -7.5 0 0 314.20 243.10
  Q 289.00 233.11 262.24 231.02
  Q 261.73 230.98 261.36 231.31
  Q 250.80 240.75 238.97 248.43"
/>
<path stroke="#7094ff" vector-effect="non-scaling-stroke" d="
  M 152.04 370.84
  Q 157.75 382.98 160.46 387.75
  C 169.42 403.56 184.99 414.49 203.18 415.83
  C 238.24 418.40 259.89 382.50 266.14 352.90
  C 273.74 316.95 266.64 274.64 238.97 248.43"
/>
<path stroke="#7094ff" vector-effect="non-scaling-stroke" d="
  M 145.66 351.28
  L 144.59 345.79"
/>
<path stroke="#cfdbff" vector-effect="non-scaling-stroke" d="
  M 166.93 261.57
  Q 159.57 283.01 161.80 305.61
  C 162.20 309.62 164.40 317.22 170.15 312.82
  C 174.03 309.84 176.26 304.70 178.29 299.27
  Q 178.62 298.40 178.86 299.29
  Q 182.05 311.02 186.89 320.50
  Q 188.52 323.71 190.78 325.46
  C 193.06 327.23 196.33 323.21 197.33 321.54
  Q 201.62 314.42 204.33 304.31
  Q 204.56 303.45 205.01 304.22
  C 207.35 308.18 224.27 336.86 230.35 330.28
  Q 232.38 328.09 233.30 325.11
  C 236.04 316.19 236.80 305.50 236.82 296.18
  Q 236.82 295.29 237.44 295.92
  C 240.70 299.24 244.16 302.10 248.51 303.17
  A 2.24 2.24 0.0 0 0 251.27 301.26
  Q 251.55 298.94 251.14 296.51
  Q 247.10 272.38 233.68 251.74"
/>
<path stroke="#7094ff" vector-effect="non-scaling-stroke" d="
  M 158.88 261.15
  Q 134.15 292.80 143.02 334.56"
/>
<path stroke="#2947a4" vector-effect="non-scaling-stroke" d="
  M 401.05 224.23
  Q 400.75 223.69 400.43 224.22
  L 398.82 226.88
  Q 398.35 227.65 399.23 227.85
  Q 400.22 228.07 401.15 227.98
  A 0.88 0.88 0.0 0 0 401.94 227.02
  Q 401.79 225.57 401.05 224.23"
/>
<path stroke="#825736" vector-effect="non-scaling-stroke" d="
  M 305.51 472.69
  Q 301.85 472.46 305.38 471.47
  Q 307.63 470.84 309.34 469.48
  A 1.74 1.73 50.6 0 0 309.58 466.98
  C 306.60 463.55 303.24 464.02 299.05 463.91
  Q 298.03 463.88 297.01 464.06
  Q 285.44 466.15 273.98 471.17
  A 0.83 0.83 0.0 0 1 272.85 470.64
  Q 268.59 455.88 264.37 441.57
  Q 263.97 440.22 263.86 438.90
  A 0.37 0.36 -22.1 0 0 263.26 438.65
  Q 256.78 444.09 248.68 443.84
  A 0.28 0.28 0.0 0 0 248.42 444.25
  L 263.67 474.85
  Q 264.07 475.67 263.25 476.07
  C 259.87 477.73 252.20 481.55 252.81 486.19
  Q 252.89 486.78 253.29 487.21
  C 257.95 492.27 265.72 486.10 269.30 482.42
  Q 269.69 482.02 270.23 482.14
  Q 289.31 486.35 307.11 487.93
  Q 313.26 488.48 319.66 487.85
  Q 323.24 487.49 325.53 485.47
  Q 325.97 485.08 325.99 484.48
  C 326.17 479.78 319.66 475.97 315.53 474.65
  Q 310.36 473.00 305.51 472.69"
/>
<path stroke="#825736" vector-effect="non-scaling-stroke" d="
  M 112.05 472.12
  Q 112.36 472.17 112.44 472.31
  Q 112.59 472.58 112.28 472.60
  C 105.29 472.88 93.09 475.29 90.34 483.09
  C 88.99 486.93 96.15 488.04 98.36 488.11
  Q 105.52 488.32 109.41 487.96
  Q 127.46 486.29 145.81 482.24
  A 1.25 1.25 0.0 0 1 147.00 482.60
  C 150.27 485.99 157.67 491.78 162.30 487.92
  C 167.33 483.73 155.91 477.48 152.89 476.13
  A 0.85 0.85 0.0 0 1 152.47 474.97
  L 165.08 449.82
  A 0.31 0.31 0.0 0 0 164.81 449.37
  Q 157.37 449.19 151.50 444.33
  A 0.35 0.35 0.0 0 0 150.94 444.51
  L 143.38 470.52
  A 1.00 0.99 -70.0 0 1 142.02 471.16
  C 134.84 467.97 113.81 459.94 107.29 466.26
  Q 105.12 468.35 107.29 469.93
  Q 108.01 470.46 110.34 471.47"
/>
<path stroke="#7094ff" vector-effect="non-scaling-stroke" d="
  M 205.79 121.32
  Q 201.37 129.50 197.58 137.88
  C 195.03 143.51 190.65 150.67 183.27 147.08
  Q 179.44 145.22 175.75 142.25
  Q 169.51 137.22 164.55 131.41"
/>
<path stroke="#2947a4" vector-effect="non-scaling-stroke" d="
  M 164.55 131.41
  Q 159.01 122.39 147.98 119.01
  Q 137.07 115.66 128.16 123.41
  Q 120.67 129.91 115.73 139.26
  Q 114.24 142.07 115.53 144.28"
/>
<path stroke="#7094ff" vector-effect="non-scaling-stroke" d="
  M 115.53 144.28
  Q 106.52 163.62 106.22 184.84
  Q 106.19 187.26 107.17 189.14
  C 117.27 208.47 135.64 220.47 158.05 217.58
  Q 169.02 216.17 176.44 211.38"
/>
<path stroke="#998291" vector-effect="non-scaling-stroke" d="
  M 176.44 211.38
  Q 175.76 220.18 181.38 226.35
  C 189.96 235.77 204.32 238.42 215.90 231.82
  C 222.12 228.27 226.42 221.12 224.12 214.03
  Q 223.28 211.42 220.74 212.26
  Q 220.25 212.42 219.99 211.97
  C 217.56 207.68 219.37 203.45 222.44 200.18
  Q 222.57 200.05 222.74 199.98
  Q 222.93 199.92 223.10 199.91"
/>
<path stroke="#7094ff" vector-effect="non-scaling-stroke" d="
  M 223.10 199.91
  Q 229.24 204.21 235.95 204.19
  Q 242.14 204.17 247.47 200.36
  C 261.40 190.41 264.18 173.69 261.90 157.70
  Q 260.86 150.38 256.88 142.47
  Q 252.72 134.20 246.52 126.61"
/>
<path stroke="#2947a4" vector-effect="non-scaling-stroke" d="
  M 246.52 126.61
  Q 240.58 117.93 230.97 112.64
  Q 224.31 108.97 219.45 109.23
  Q 212.42 109.60 208.52 116.91
  Q 207.21 119.37 205.79 121.32"
/>
<path stroke="#586aa4" vector-effect="non-scaling-stroke" d="
  M 246.52 126.61
  C 245.72 128.85 244.39 129.16 242.48 127.85
  Q 234.74 122.52 226.52 120.13
  Q 216.83 117.30 211.38 124.79
  Q 209.86 126.89 208.34 128.84
  A 1.64 1.64 0.0 0 1 205.99 129.10
  C 204.58 127.91 204.68 126.42 205.20 124.62
  Q 205.66 123.03 205.79 121.32"
/>
<path stroke="#c9a591" vector-effect="non-scaling-stroke" d="
  M 223.10 199.91
  Q 223.10 199.59 223.36 199.36
  Q 226.68 196.34 230.65 194.16
  Q 231.10 193.91 231.14 193.40
  Q 231.19 192.83 230.85 192.11"
/>
<path stroke="#cfdbff" vector-effect="non-scaling-stroke" d="
  M 230.85 192.11
  L 236.52 190.56"
/>
<path stroke="#586aa4" vector-effect="non-scaling-stroke" d="
  M 236.52 190.56
  Q 246.11 192.67 255.33 187.87
  A 2.09 2.08 -31.2 0 0 256.08 184.82
  C 254.73 182.89 248.13 183.08 245.92 183.29"
/>
<path stroke="#cfdbff" vector-effect="non-scaling-stroke" d="
  M 245.92 183.29
  Q 247.04 180.81 247.98 178.60
  Q 251.63 169.95 250.38 161.01
  Q 248.78 149.52 242.38 141.35
  C 235.23 132.23 223.31 126.71 212.77 133.31
  C 204.22 138.66 200.94 150.08 202.03 159.99
  Q 202.27 162.18 202.40 164.54"
/>
<path stroke="#c9a591" vector-effect="non-scaling-stroke" d="
  M 202.40 164.54
  Q 191.07 163.36 185.90 171.94
  Q 181.50 179.25 173.73 197.83
  Q 173.51 198.34 173.05 198.65
  C 171.89 199.43 170.59 199.79 169.83 201.05
  C 168.19 203.73 171.52 207.43 173.52 208.72
  Q 175.50 209.99 176.44 211.38"
/>
<path stroke="#586aa4" vector-effect="non-scaling-stroke" d="
  M 164.55 131.41
  C 161.21 134.51 158.03 135.28 154.06 132.60
  Q 151.03 130.57 148.22 129.42
  C 137.55 125.06 126.48 137.05 120.17 144.54
  C 118.87 146.07 116.80 145.64 115.53 144.28"
/>
<path stroke="#888ea4" vector-effect="non-scaling-stroke" d="
  M 245.92 183.29
  Q 241.66 183.74 237.49 185.49
  Q 235.60 186.29 234.69 188.06
  Q 234.45 188.52 234.70 188.97
  Q 235.22 189.92 236.52 190.56"
/>
<path stroke="#f9c991" vector-effect="non-scaling-stroke" d="
  M 230.85 192.11
  L 228.09 185.25"
/>
<path stroke="#b2bbdf" vector-effect="non-scaling-stroke" d="
  M 228.09 185.25
  C 237.11 183.66 240.89 175.02 240.97 166.76
  Q 241.09 154.01 232.61 144.96
  Q 232.56 144.91 232.61 144.87
  Q 232.69 144.81 232.62 144.88
  Q 232.61 144.88 232.62 144.89
  Q 234.91 150.42 230.22 154.50"
/>
<path stroke="#888ea4" vector-effect="non-scaling-stroke" d="
  M 230.22 154.50
  Q 222.06 158.25 218.66 149.78"
/>
<path stroke="#b2bbdf" vector-effect="non-scaling-stroke" d="
  M 218.66 149.78
  Q 218.44 142.06 225.54 140.91
  Q 226.22 140.80 225.55 140.63
  C 216.39 138.39 210.26 145.25 208.62 153.51
  Q 207.37 159.85 208.73 165.85"
/>
<path stroke="#f9c991" vector-effect="non-scaling-stroke" d="
  M 208.73 165.85
  L 202.40 164.54"
/>
<path stroke="#3b4984" vector-effect="non-scaling-stroke" d="
  M 218.66 149.78
  C 212.32 153.58 211.52 161.47 213.57 168.04"
/>
<path stroke="#ab8470" vector-effect="non-scaling-stroke" d="
  M 213.57 168.04
  L 208.73 165.85"
/>
<path stroke="#ab8470" vector-effect="non-scaling-stroke" d="
  M 228.09 185.25
  L 224.28 178.52"
/>
<path stroke="#3b4984" vector-effect="non-scaling-stroke" d="
  M 224.28 178.52
  C 236.21 176.65 235.36 162.04 230.22 154.50"
/>
<path stroke="#825736" vector-effect="non-scaling-stroke" d="
  M 224.28 178.52
  Q 219.80 172.27 213.57 168.04"
/>
<path stroke="#586aa4" vector-effect="non-scaling-stroke" d="
  M 136.42 200.41
  C 134.83 201.08 131.31 202.38 130.69 203.86
  A 2.02 2.02 0.0 0 0 132.12 206.61
  Q 142.09 208.80 151.13 204.27"
/>
<path stroke="#cfdbff" vector-effect="non-scaling-stroke" d="
  M 151.13 204.27
  Q 161.27 203.22 166.35 193.85
  C 173.81 180.08 169.89 161.46 158.96 150.63
  C 150.88 142.64 139.08 139.84 129.91 147.69
  C 123.61 153.09 120.99 162.20 121.37 170.50
  Q 122.20 188.90 136.42 200.41"
/>
<path stroke="#888ea4" vector-effect="non-scaling-stroke" d="
  M 151.13 204.27
  L 152.14 202.78
  A 1.62 1.61 26.1 0 0 151.30 200.34
  C 146.10 198.65 141.46 199.37 136.42 200.41"
/>
<path stroke="#888ea4" vector-effect="non-scaling-stroke" d="
  M 157.74 168.25
  Q 149.82 172.15 146.16 163.64"
/>
<path stroke="#b2bbdf" vector-effect="non-scaling-stroke" d="
  M 146.16 163.64
  Q 145.74 157.54 151.26 155.07
  Q 151.97 154.75 151.21 154.54
  C 142.50 152.16 136.22 158.22 134.23 166.36
  C 131.67 176.86 135.37 190.15 144.70 196.50
  C 152.57 201.86 161.63 198.04 164.66 189.48
  Q 169.34 176.29 161.45 162.96
  Q 161.00 162.19 160.86 163.07
  Q 160.40 166.05 157.74 168.25"
/>
<path stroke="#3b4984" vector-effect="non-scaling-stroke" d="
  M 146.16 163.64
  Q 137.32 169.88 141.10 181.85
  Q 142.96 187.77 148.05 190.78
  C 154.69 194.70 160.38 188.75 161.13 182.34
  Q 162.03 174.71 157.74 168.25"
/>
<path stroke="#f9c991" vector-effect="non-scaling-stroke" d="
  M 215.5277 175.9047
  A 7.68 2.95 23.6 0 0 209.6710 170.1267
  A 7.68 2.95 23.6 0 0 201.4523 169.7553
  A 7.68 2.95 23.6 0 0 207.3090 175.5333
  A 7.68 2.95 23.6 0 0 215.5277 175.9047"
/>
<path stroke="#f9c991" vector-effect="non-scaling-stroke" d="
  M 220.8123 179.4931
  A 2.56 2.26 23.8 0 0 219.3820 176.3922
  A 2.56 2.26 23.8 0 0 216.1277 177.4269
  A 2.56 2.26 23.8 0 0 217.5580 180.5278
  A 2.56 2.26 23.8 0 0 220.8123 179.4931"
/>
<path stroke="#825736" vector-effect="non-scaling-stroke" d="
  M 208.62 204.06
  C 211.34 199.34 216.03 197.04 221.16 195.71
  Q 222.31 195.41 221.14 195.20
  C 215.55 194.21 208.60 198.05 204.27 201.39
  C 196.95 207.01 190.79 210.30 181.48 206.71
  Q 180.74 206.42 180.97 207.18
  Q 181.26 208.15 181.99 208.83
  C 187.99 214.45 202.72 222.35 210.75 216.48
  A 1.62 1.61 63.7 0 0 211.34 214.72
  L 208.51 205.04
  A 1.29 1.27 -39.0 0 1 208.62 204.06"
/>
</g>
<path fill="#111c49" d="
  M 197.71 34.05
  Q 197.08 34.48 196.89 34.91
  Q 196.70 35.34 197.01 35.68
  C 208.21 48.22 222.37 57.61 239.07 59.61
  C 240.30 59.76 241.27 59.22 242.24 58.55
  C 244.33 57.11 246.86 57.66 248.70 59.29
  A 1.32 1.32 0.0 0 0 249.77 59.61
  Q 270.41 56.53 284.83 41.45
  Q 289.78 34.35 293.74 26.00
  A 0.44 0.43 32.9 0 1 294.42 25.86
  L 298.92 29.75
  Q 299.42 30.18 299.02 30.70
  L 294.07 37.04
  Q 293.01 38.39 294.43 37.42
  L 301.22 32.74
  A 0.73 0.73 0.0 0 1 302.15 32.83
  L 309.15 39.83
  Q 309.57 40.24 309.04 40.48
  L 297.61 45.73
  L 291.41 48.47
  Q 290.89 48.69 290.61 49.18
  Q 288.12 53.51 283.34 51.95
  Q 282.77 51.77 282.29 52.13
  Q 268.34 62.59 252.60 65.23
  Q 252.10 65.31 252.34 65.76
  Q 265.04 88.64 259.61 114.07
  C 259.21 115.93 258.42 117.74 258.08 119.63
  Q 257.99 120.11 258.24 120.52
  Q 267.62 136.16 270.81 154.21
  A 0.94 0.93 87.1 0 0 271.65 154.98
  Q 277.19 155.45 279.07 160.09
  C 283.52 171.11 279.48 185.15 275.12 195.84
  Q 274.84 196.53 275.51 196.86
  C 286.88 202.42 271.08 221.40 266.19 226.35
  A 0.31 0.31 0.0 0 0 266.38 226.88
  Q 280.86 228.12 296.84 232.31
  C 303.63 234.09 309.95 236.71 316.69 238.68
  Q 317.87 239.02 318.56 239.95
  C 324.63 248.16 333.35 254.12 343.39 248.04
  Q 349.25 244.49 351.26 241.42
  Q 359.46 228.91 370.10 216.56
  Q 373.35 212.79 376.66 210.80
  Q 388.73 203.57 399.02 212.30
  Q 399.46 212.67 399.78 212.19
  L 425.27 173.70
  Q 457.83 124.52 490.65 74.88
  Q 491.33 73.85 493.24 74.08
  Q 493.79 74.15 494.07 74.69
  Q 495.13 76.70 493.91 78.61
  L 427.83 181.60
  L 404.22 218.44
  A 0.87 0.87 0.0 0 0 404.23 219.41
  Q 406.53 222.84 407.11 226.53
  A 1.10 1.09 -86.2 0 0 407.86 227.40
  C 414.62 229.50 421.80 232.96 423.71 240.43
  C 424.70 244.30 424.67 248.19 425.26 251.95
  Q 425.81 255.44 425.50 258.11
  C 423.61 274.37 413.99 287.22 400.16 296.00
  Q 390.35 302.22 380.91 303.49
  A 1.44 1.43 14.4 0 0 379.95 304.05
  Q 375.37 310.06 370.50 316.08
  Q 369.40 317.44 367.92 318.29
  Q 360.99 322.31 353.26 324.45
  A 2.63 2.61 3.5 0 0 351.55 325.95
  C 347.32 335.86 334.32 334.51 325.73 331.13
  Q 325.10 330.88 325.06 331.56
  C 324.99 332.84 324.55 334.31 323.97 335.44
  C 320.22 342.66 312.46 342.68 306.63 337.98
  A 0.37 0.37 0.0 0 0 306.03 338.24
  C 303.76 367.39 292.56 394.05 272.00 414.15
  Q 271.66 414.49 271.69 414.97
  Q 272.40 424.92 267.91 433.07
  A 1.81 1.79 -38.6 0 0 267.75 434.43
  L 274.08 456.22
  L 276.40 464.00
  Q 276.56 464.53 277.09 464.33
  C 284.75 461.38 293.49 458.67 301.69 458.65
  C 307.76 458.63 315.11 461.65 315.14 468.64
  Q 315.14 469.19 315.67 469.34
  C 321.80 471.00 328.82 475.12 330.73 481.29
  C 332.67 487.56 327.80 491.70 322.15 492.69
  Q 317.64 493.47 313.44 493.38
  C 299.61 493.08 285.67 490.62 271.85 487.90
  Q 271.27 487.79 270.84 488.19
  C 265.13 493.42 256.13 497.69 249.79 491.10
  C 246.37 487.53 247.11 482.42 250.32 478.89
  Q 252.99 475.96 256.63 473.93
  Q 257.17 473.63 256.89 473.08
  L 250.64 460.52
  L 242.32 443.54
  Q 241.96 442.80 241.18 442.52
  C 238.51 441.56 233.44 439.37 232.11 436.80
  Q 231.83 436.26 231.24 436.41
  Q 210.61 441.69 186.67 437.65
  Q 186.29 437.59 186.06 437.89
  Q 180.34 445.36 172.17 448.25
  Q 171.67 448.43 171.42 448.90
  L 168.21 455.14
  L 159.31 472.96
  Q 158.99 473.60 159.62 473.96
  C 163.99 476.48 169.56 481.02 168.52 486.79
  Q 167.82 490.71 164.27 492.85
  C 157.80 496.77 150.45 492.76 145.33 488.19
  A 1.35 1.32 -29.5 0 0 144.16 487.88
  Q 127.72 491.32 111.78 492.92
  Q 104.11 493.68 96.86 493.12
  C 88.32 492.46 80.82 486.38 87.50 477.47
  Q 92.01 471.47 100.39 469.39
  A 0.81 0.80 85.1 0 0 101.00 468.66
  C 101.78 456.50 117.53 458.12 125.55 460.07
  Q 132.64 461.80 139.06 464.32
  Q 139.61 464.54 139.78 463.97
  L 144.63 447.38
  L 146.77 439.95
  A 1.24 1.22 36.9 0 0 146.62 438.95
  Q 143.48 433.95 142.27 428.15
  Q 142.14 427.56 141.54 427.59
  Q 126.76 428.28 110.29 425.49
  Q 105.30 424.65 100.07 423.42
  C 92.29 420.04 86.21 417.45 82.33 409.55
  L 81.14 402.58
  Q 81.06 402.10 80.66 401.83
  L 60.98 388.20
  C 54.45 382.58 48.54 377.15 44.21 369.68
  A 0.89 0.88 71.8 0 0 43.35 369.24
  C 36.94 369.90 32.55 363.43 31.20 357.80
  Q 29.79 351.88 30.36 346.36
  Q 30.42 345.79 29.84 345.86
  C 28.70 346.00 27.16 346.24 26.07 346.06
  C 13.67 344.11 15.81 330.60 20.88 322.90
  Q 21.16 322.48 20.75 322.20
  Q 14.61 318.04 17.52 309.78
  Q 21.66 301.18 30.48 294.34
  Q 30.95 293.98 30.50 293.58
  C 25.80 289.53 27.82 282.41 34.01 281.68
  Q 36.60 281.37 40.04 278.80
  Q 48.47 272.51 56.88 266.13
  Q 73.66 253.41 93.30 243.99
  Q 94.07 243.63 93.36 243.17
  C 88.62 240.14 83.98 235.61 87.04 230.00
  Q 87.42 229.29 86.70 228.94
  Q 61.34 216.48 54.72 187.15
  Q 53.92 183.60 54.53 180.97
  C 55.95 174.87 63.73 170.97 69.33 169.24
  A 0.97 0.97 0.0 0 0 70.00 168.46
  Q 72.12 153.49 78.31 138.99
  Q 78.50 138.53 78.27 138.09
  C 71.42 125.41 67.47 113.35 67.81 98.91
  L 68.01 95.12
  Q 68.04 94.62 67.54 94.57
  L 49.24 92.77
  A 0.26 0.25 -64.5 0 1 49.09 92.33
  L 125.33 17.67
  A 0.54 0.54 0.0 0 1 125.80 17.53
  L 199.50 31.22
  Q 200.03 31.32 199.68 31.73
  L 197.71 34.05
  Z
  M 191.97 57.37
  C 199.05 53.67 200.73 63.65 200.54 68.01
  Q 200.51 68.68 201.17 68.77
  C 207.03 69.62 212.29 72.77 215.95 77.34
  A 0.48 0.47 51.7 0 0 216.60 77.42
  L 232.91 65.35
  Q 233.55 64.88 232.78 64.70
  Q 210.20 59.59 192.53 39.72
  A 0.56 0.56 0.0 0 0 191.72 39.69
  L 177.17 53.93
  Q 176.81 54.29 176.99 54.76
  L 180.14 62.90
  A 0.47 0.47 0.0 0 0 180.79 63.15
  Q 185.84 60.58 191.97 57.37
  Z
  M 191.40 256.76
  L 206.16 256.62
  Q 209.73 256.62 213.49 256.17
  Q 216.93 255.77 219.67 254.26
  C 233.66 246.55 247.02 237.83 258.98 226.57
  C 265.16 220.75 273.00 211.82 274.52 203.75
  C 275.12 200.58 270.27 200.43 268.25 200.74
  A 0.45 0.45 0.0 0 1 267.78 200.10
  C 273.02 189.61 279.12 172.73 274.33 161.75
  C 273.28 159.33 269.54 159.84 267.53 160.42
  Q 266.81 160.63 266.70 159.89
  Q 263.68 138.27 252.71 121.05
  Q 252.38 120.53 252.59 119.95
  C 259.63 100.87 256.18 80.21 245.16 63.09
  Q 244.84 62.59 244.37 62.94
  L 210.26 88.03
  A 1.15 1.13 -54.6 0 1 209.26 88.21
  L 201.27 85.86
  Q 200.50 85.64 201.28 85.43
  L 212.60 82.38
  A 0.63 0.63 0.0 0 0 212.96 81.41
  Q 206.65 72.27 195.28 73.67
  Q 194.56 73.76 194.81 73.08
  Q 196.79 67.79 194.97 62.16
  Q 194.73 61.44 194.07 61.79
  Q 167.09 75.83 140.82 89.40
  Q 136.19 91.79 131.16 93.49
  Q 122.99 96.26 116.15 100.66
  A 0.67 0.66 48.3 0 1 115.36 100.61
  L 81.63 72.37
  A 0.36 0.36 0.0 0 0 81.10 72.45
  Q 72.54 86.27 72.63 102.22
  C 72.71 113.80 76.78 126.90 83.57 137.42
  A 1.32 1.31 40.6 0 1 83.67 138.67
  Q 76.30 155.14 74.23 172.39
  Q 74.17 172.88 73.69 173.00
  Q 68.76 174.17 63.79 176.99
  C 58.16 180.18 58.51 183.81 60.07 189.35
  Q 68.59 219.60 98.71 228.26
  Q 99.88 228.60 98.67 228.77
  C 95.67 229.20 87.77 231.41 92.08 235.94
  Q 94.12 238.08 96.85 239.90
  Q 105.54 245.67 114.29 248.43
  Q 132.51 254.18 152.49 255.72
  C 157.21 256.08 162.16 256.70 166.84 256.81
  Q 179.27 257.08 191.40 256.76
  Z
  M 238.97 248.43
  L 233.68 251.74
  Q 226.55 256.07 218.62 260.06
  Q 217.73 260.51 216.74 260.59
  Q 191.90 262.65 166.93 261.57
  L 158.88 261.15
  C 138.67 259.80 116.87 256.44 98.81 246.89
  A 1.87 1.85 -43.3 0 0 97.14 246.85
  Q 76.98 256.30 59.02 269.74
  Q 50.99 275.75 43.34 281.60
  Q 38.71 285.14 34.03 286.22
  A 1.40 1.40 0.0 0 0 33.37 288.59
  Q 37.89 292.98 44.54 292.23
  Q 44.69 292.22 44.66 292.36
  Q 44.63 292.52 44.76 292.62
  A 0.04 0.04 0.0 0 1 44.75 292.70
  C 34.56 295.86 26.12 302.50 22.18 312.38
  Q 21.01 315.32 22.97 317.21
  C 25.94 320.08 34.16 313.80 36.54 311.82
  Q 36.66 311.72 36.76 311.83
  L 36.76 311.84
  Q 36.91 312.00 36.75 312.15
  C 31.12 317.38 25.90 323.20 23.02 330.20
  C 21.62 333.61 21.11 339.85 26.24 340.32
  C 32.17 340.85 36.05 336.58 38.72 331.77
  Q 38.79 331.63 38.94 331.70
  L 38.95 331.70
  Q 39.09 331.76 39.03 331.90
  C 35.65 340.47 34.02 349.36 37.06 358.10
  C 38.24 361.47 42.19 366.01 45.84 362.44
  Q 46.34 361.95 46.63 362.59
  Q 50.55 371.24 57.93 378.17
  Q 67.54 387.21 84.92 397.79
  Q 85.48 398.13 86.13 398.06
  C 103.37 396.20 121.55 391.48 135.27 381.55
  Q 144.03 375.21 146.38 364.51
  Q 146.50 363.97 146.18 363.51
  L 138.25 352.19
  A 0.25 0.25 0.0 0 0 137.80 352.27
  Q 136.87 356.03 133.09 357.61
  Q 132.31 357.94 132.63 357.16
  Q 135.33 350.60 130.86 345.06
  Q 130.41 344.50 131.12 344.60
  Q 133.89 345.00 136.06 346.65
  Q 136.48 346.98 136.89 346.63
  L 139.04 344.80
  Q 139.48 344.42 139.51 343.85
  C 139.77 338.87 136.94 331.04 130.93 331.27
  Q 121.27 331.63 113.55 337.95
  Q 113.24 338.21 113.05 337.85
  C 106.31 324.72 103.39 308.46 113.28 296.54
  Q 115.58 293.76 114.15 297.08
  C 110.16 306.37 108.59 319.77 115.61 327.96
  Q 115.96 328.36 116.43 328.12
  Q 121.83 325.42 127.75 325.00
  Q 136.92 324.35 143.02 334.56
  L 144.59 345.79
  Q 143.10 348.68 145.66 351.28
  Q 148.23 355.54 150.94 359.83
  Q 152.77 362.73 152.88 365.09
  Q 153.00 367.95 152.04 370.84
  C 141.31 392.99 109.49 402.22 87.08 403.17
  Q 86.42 403.20 86.47 403.86
  C 87.91 423.21 133.29 422.80 145.92 421.99
  A 0.75 0.74 86.6 0 1 146.71 422.70
  C 147.43 435.32 157.44 448.37 171.76 442.52
  Q 179.20 439.47 183.60 432.06
  Q 183.89 431.57 184.46 431.67
  Q 205.54 435.59 221.79 432.88
  Q 236.58 430.42 248.92 420.72
  Q 250.02 419.86 249.42 421.12
  Q 245.40 429.61 236.92 433.97
  A 0.24 0.24 0.0 0 0 236.91 434.40
  C 240.66 436.46 245.53 438.67 249.87 438.42
  Q 256.87 438.01 261.03 433.18
  C 266.02 427.40 267.12 420.55 266.25 412.68
  A 1.25 1.24 -24.4 0 1 266.64 411.65
  C 285.51 394.45 296.23 371.26 300.07 345.62
  Q 301.58 335.55 300.43 326.29
  C 297.78 304.92 289.58 283.96 278.25 265.64
  Q 277.22 263.99 278.45 265.50
  Q 300.96 293.21 305.69 328.05
  Q 306.01 330.36 307.28 331.53
  C 309.79 333.84 313.20 336.43 316.74 334.98
  C 323.71 332.12 318.09 321.92 314.50 318.70
  Q 314.45 318.66 314.49 318.61
  L 314.67 318.42
  Q 314.82 318.25 314.99 318.39
  Q 324.73 326.42 335.79 327.99
  C 339.93 328.58 348.36 326.78 346.16 320.74
  Q 345.91 320.05 346.60 320.29
  C 347.49 320.61 348.25 320.47 349.09 320.13
  C 353.72 318.29 358.65 316.91 363.04 314.55
  Q 365.44 313.27 367.10 311.17
  Q 372.28 304.63 377.08 298.42
  Q 377.44 297.96 378.03 297.96
  Q 381.48 297.98 384.80 296.88
  C 400.39 291.71 413.78 279.90 418.61 263.91
  Q 421.08 255.74 419.49 245.49
  C 419.10 242.95 418.60 239.64 416.64 237.77
  C 412.78 234.12 406.88 232.28 401.85 230.85
  Q 400.92 230.59 401.60 231.28
  Q 402.91 232.62 404.00 234.17
  Q 405.07 235.70 403.69 234.44
  Q 401.10 232.07 397.95 230.56
  C 387.13 225.37 381.56 233.32 378.86 242.51
  Q 374.82 256.26 376.60 268.44
  Q 377.53 274.81 378.25 279.90
  Q 378.53 281.92 377.37 280.23
  C 373.00 273.88 370.35 282.08 369.70 285.27
  Q 369.63 285.61 369.29 285.70
  A 0.48 0.48 0.0 0 1 368.69 285.28
  Q 368.23 279.54 370.22 274.74
  Q 370.52 274.01 371.14 273.53
  Q 372.50 272.45 371.72 270.02
  Q 371.52 269.39 371.17 269.95
  L 348.92 304.63
  Q 347.19 307.32 344.52 305.56
  L 342.64 304.33
  Q 340.01 302.61 341.75 299.99
  Q 355.56 279.14 368.58 259.37
  C 369.12 258.56 369.41 257.57 369.57 256.62
  C 370.96 247.79 376.18 217.25 391.48 223.16
  Q 392.36 223.49 392.87 222.71
  L 396.17 217.71
  Q 396.47 217.25 396.11 216.84
  C 389.35 209.04 378.92 213.47 373.40 219.83
  Q 364.54 230.04 356.13 242.52
  C 351.74 249.03 343.72 254.92 335.71 255.30
  C 327.22 255.70 320.10 250.36 315.04 243.73
  A 1.98 1.94 -7.5 0 0 314.20 243.10
  Q 289.00 233.11 262.24 231.02
  Q 261.73 230.98 261.36 231.31
  Q 250.80 240.75 238.97 248.43
  Z
  M 401.05 224.23
  Q 400.75 223.69 400.43 224.22
  L 398.82 226.88
  Q 398.35 227.65 399.23 227.85
  Q 400.22 228.07 401.15 227.98
  A 0.88 0.88 0.0 0 0 401.94 227.02
  Q 401.79 225.57 401.05 224.23
  Z
  M 305.51 472.69
  Q 301.85 472.46 305.38 471.47
  Q 307.63 470.84 309.34 469.48
  A 1.74 1.73 50.6 0 0 309.58 466.98
  C 306.60 463.55 303.24 464.02 299.05 463.91
  Q 298.03 463.88 297.01 464.06
  Q 285.44 466.15 273.98 471.17
  A 0.83 0.83 0.0 0 1 272.85 470.64
  Q 268.59 455.88 264.37 441.57
  Q 263.97 440.22 263.86 438.90
  A 0.37 0.36 -22.1 0 0 263.26 438.65
  Q 256.78 444.09 248.68 443.84
  A 0.28 0.28 0.0 0 0 248.42 444.25
  L 263.67 474.85
  Q 264.07 475.67 263.25 476.07
  C 259.87 477.73 252.20 481.55 252.81 486.19
  Q 252.89 486.78 253.29 487.21
  C 257.95 492.27 265.72 486.10 269.30 482.42
  Q 269.69 482.02 270.23 482.14
  Q 289.31 486.35 307.11 487.93
  Q 313.26 488.48 319.66 487.85
  Q 323.24 487.49 325.53 485.47
  Q 325.97 485.08 325.99 484.48
  C 326.17 479.78 319.66 475.97 315.53 474.65
  Q 310.36 473.00 305.51 472.69
  Z
  M 110.34 471.47
  Q 110.17 471.52 110.06 471.57
  Q 109.84 471.67 110.01 471.83
  Q 110.81 472.61 112.05 472.12
  Q 112.36 472.17 112.44 472.31
  Q 112.59 472.58 112.28 472.60
  C 105.29 472.88 93.09 475.29 90.34 483.09
  C 88.99 486.93 96.15 488.04 98.36 488.11
  Q 105.52 488.32 109.41 487.96
  Q 127.46 486.29 145.81 482.24
  A 1.25 1.25 0.0 0 1 147.00 482.60
  C 150.27 485.99 157.67 491.78 162.30 487.92
  C 167.33 483.73 155.91 477.48 152.89 476.13
  A 0.85 0.85 0.0 0 1 152.47 474.97
  L 165.08 449.82
  A 0.31 0.31 0.0 0 0 164.81 449.37
  Q 157.37 449.19 151.50 444.33
  A 0.35 0.35 0.0 0 0 150.94 444.51
  L 143.38 470.52
  A 1.00 0.99 -70.0 0 1 142.02 471.16
  C 134.84 467.97 113.81 459.94 107.29 466.26
  Q 105.12 468.35 107.29 469.93
  Q 108.01 470.46 110.34 471.47
  Z"
/>
<path fill="#073ace" d="
  M 284.83 41.45
  Q 270.41 56.53 249.77 59.61
  A 1.32 1.32 0.0 0 1 248.70 59.29
  C 246.86 57.66 244.33 57.11 242.24 58.55
  C 241.27 59.22 240.30 59.76 239.07 59.61
  C 222.37 57.61 208.21 48.22 197.01 35.68
  Q 196.70 35.34 196.89 34.91
  Q 197.08 34.48 197.71 34.05
  Q 241.89 28.91 284.83 41.45
  Z"
/>
<path fill="#073ace" d="
  M 200.54 68.01
  C 200.73 63.65 199.05 53.67 191.97 57.37
  Q 185.84 60.58 180.79 63.15
  A 0.47 0.47 0.0 0 1 180.14 62.90
  L 176.99 54.76
  Q 176.81 54.29 177.17 53.93
  L 191.72 39.69
  A 0.56 0.56 0.0 0 1 192.53 39.72
  Q 210.20 59.59 232.78 64.70
  Q 233.55 64.88 232.91 65.35
  L 216.60 77.42
  A 0.48 0.47 51.7 0 1 215.95 77.34
  C 212.29 72.77 207.03 69.62 201.17 68.77
  Q 200.51 68.68 200.54 68.01
  Z"
/>
<path fill="#073ace" d="
  M 297.61 45.73
  Q 341.48 62.16 374.52 94.98
  Q 404.85 125.10 421.31 164.57
  Q 423.17 169.05 425.27 173.70
  L 399.78 212.19
  Q 399.46 212.67 399.02 212.30
  Q 388.73 203.57 376.66 210.80
  Q 373.35 212.79 370.10 216.56
  Q 359.46 228.91 351.26 241.42
  Q 349.25 244.49 343.39 248.04
  C 333.35 254.12 324.63 248.16 318.56 239.95
  Q 317.87 239.02 316.69 238.68
  C 309.95 236.71 303.63 234.09 296.84 232.31
  Q 280.86 228.12 266.38 226.88
  A 0.31 0.31 0.0 0 1 266.19 226.35
  C 271.08 221.40 286.88 202.42 275.51 196.86
  Q 274.84 196.53 275.12 195.84
  C 279.48 185.15 283.52 171.11 279.07 160.09
  Q 277.19 155.45 271.65 154.98
  A 0.94 0.93 87.1 0 1 270.81 154.21
  Q 267.62 136.16 258.24 120.52
  Q 257.99 120.11 258.08 119.63
  C 258.42 117.74 259.21 115.93 259.61 114.07
  Q 265.04 88.64 252.34 65.76
  Q 252.10 65.31 252.60 65.23
  Q 268.34 62.59 282.29 52.13
  Q 282.77 51.77 283.34 51.95
  Q 288.12 53.51 290.61 49.18
  Q 290.89 48.69 291.41 48.47
  L 297.61 45.73
  Z"
/>
<path fill="#4071ff" d="
  M 206.16 256.62
  Q 198.88 255.49 191.40 256.76
  Q 179.27 257.08 166.84 256.81
  C 162.16 256.70 157.21 256.08 152.49 255.72
  Q 132.51 254.18 114.29 248.43
  Q 105.54 245.67 96.85 239.90
  Q 94.12 238.08 92.08 235.94
  C 87.77 231.41 95.67 229.20 98.67 228.77
  Q 99.88 228.60 98.71 228.26
  Q 68.59 219.60 60.07 189.35
  C 58.51 183.81 58.16 180.18 63.79 176.99
  Q 68.76 174.17 73.69 173.00
  Q 74.17 172.88 74.23 172.39
  Q 76.30 155.14 83.67 138.67
  A 1.32 1.31 40.6 0 0 83.57 137.42
  C 76.78 126.90 72.71 113.80 72.63 102.22
  Q 72.54 86.27 81.10 72.45
  A 0.36 0.36 0.0 0 1 81.63 72.37
  L 115.36 100.61
  A 0.67 0.66 48.3 0 0 116.15 100.66
  Q 122.99 96.26 131.16 93.49
  Q 136.19 91.79 140.82 89.40
  Q 167.09 75.83 194.07 61.79
  Q 194.73 61.44 194.97 62.16
  Q 196.79 67.79 194.81 73.08
  Q 194.56 73.76 195.28 73.67
  Q 206.65 72.27 212.96 81.41
  A 0.63 0.63 0.0 0 1 212.60 82.38
  L 201.28 85.43
  Q 200.50 85.64 201.27 85.86
  L 209.26 88.21
  A 1.15 1.13 -54.6 0 0 210.26 88.03
  L 244.37 62.94
  Q 244.84 62.59 245.16 63.09
  C 256.18 80.21 259.63 100.87 252.59 119.95
  Q 252.38 120.53 252.71 121.05
  Q 263.68 138.27 266.70 159.89
  Q 266.81 160.63 267.53 160.42
  C 269.54 159.84 273.28 159.33 274.33 161.75
  C 279.12 172.73 273.02 189.61 267.78 200.10
  A 0.45 0.45 0.0 0 0 268.25 200.74
  C 270.27 200.43 275.12 200.58 274.52 203.75
  C 273.00 211.82 265.16 220.75 258.98 226.57
  C 247.02 237.83 233.66 246.55 219.67 254.26
  Q 216.93 255.77 213.49 256.17
  Q 209.73 256.62 206.16 256.62
  Z
  M 205.79 121.32
  Q 201.37 129.50 197.58 137.88
  C 195.03 143.51 190.65 150.67 183.27 147.08
  Q 179.44 145.22 175.75 142.25
  Q 169.51 137.22 164.55 131.41
  Q 159.01 122.39 147.98 119.01
  Q 137.07 115.66 128.16 123.41
  Q 120.67 129.91 115.73 139.26
  Q 114.24 142.07 115.53 144.28
  Q 106.52 163.62 106.22 184.84
  Q 106.19 187.26 107.17 189.14
  C 117.27 208.47 135.64 220.47 158.05 217.58
  Q 169.02 216.17 176.44 211.38
  Q 175.76 220.18 181.38 226.35
  C 189.96 235.77 204.32 238.42 215.90 231.82
  C 222.12 228.27 226.42 221.12 224.12 214.03
  Q 223.28 211.42 220.74 212.26
  Q 220.25 212.42 219.99 211.97
  C 217.56 207.68 219.37 203.45 222.44 200.18
  Q 222.57 200.05 222.74 199.98
  Q 222.93 199.92 223.10 199.91
  Q 229.24 204.21 235.95 204.19
  Q 242.14 204.17 247.47 200.36
  C 261.40 190.41 264.18 173.69 261.90 157.70
  Q 260.86 150.38 256.88 142.47
  Q 252.72 134.20 246.52 126.61
  Q 240.58 117.93 230.97 112.64
  Q 224.31 108.97 219.45 109.23
  Q 212.42 109.60 208.52 116.91
  Q 207.21 119.37 205.79 121.32
  Z"
/>
<path fill="#073ace" d="
  M 67.81 98.91
  C 67.47 113.35 71.42 125.41 78.27 138.09
  Q 78.50 138.53 78.31 138.99
  Q 72.12 153.49 70.00 168.46
  A 0.97 0.97 0.0 0 1 69.33 169.24
  C 63.73 170.97 55.95 174.87 54.53 180.97
  Q 53.92 183.60 54.72 187.15
  Q 61.34 216.48 86.70 228.94
  Q 87.42 229.29 87.04 230.00
  C 83.98 235.61 88.62 240.14 93.36 243.17
  Q 94.07 243.63 93.30 243.99
  Q 73.66 253.41 56.88 266.13
  Q 48.47 272.51 40.04 278.80
  Q 36.60 281.37 34.01 281.68
  C 27.82 282.41 25.80 289.53 30.50 293.58
  Q 30.95 293.98 30.48 294.34
  Q 21.66 301.18 17.52 309.78
  Q -1.20 245.98 17.92 183.72
  Q 30.30 143.41 57.99 110.01
  Q 61.36 105.95 67.81 98.91
  Z"
/>
<path fill="#111c49" d="
  M 246.52 126.61
  C 245.72 128.85 244.39 129.16 242.48 127.85
  Q 234.74 122.52 226.52 120.13
  Q 216.83 117.30 211.38 124.79
  Q 209.86 126.89 208.34 128.84
  A 1.64 1.64 0.0 0 1 205.99 129.10
  C 204.58 127.91 204.68 126.42 205.20 124.62
  Q 205.66 123.03 205.79 121.32
  Q 207.21 119.37 208.52 116.91
  Q 212.42 109.60 219.45 109.23
  Q 224.31 108.97 230.97 112.64
  Q 240.58 117.93 246.52 126.61
  Z"
/>
<path fill="#111c49" d="
  M 164.55 131.41
  C 161.21 134.51 158.03 135.28 154.06 132.60
  Q 151.03 130.57 148.22 129.42
  C 137.55 125.06 126.48 137.05 120.17 144.54
  C 118.87 146.07 116.80 145.64 115.53 144.28
  Q 114.24 142.07 115.73 139.26
  Q 120.67 129.91 128.16 123.41
  Q 137.07 115.66 147.98 119.01
  Q 159.01 122.39 164.55 131.41
  Z"
/>
<path fill="#9fb7ff" d="
  M 246.52 126.61
  Q 252.72 134.20 256.88 142.47
  Q 260.86 150.38 261.90 157.70
  C 264.18 173.69 261.40 190.41 247.47 200.36
  Q 242.14 204.17 235.95 204.19
  Q 229.24 204.21 223.10 199.91
  Q 223.10 199.59 223.36 199.36
  Q 226.68 196.34 230.65 194.16
  Q 231.10 193.91 231.14 193.40
  Q 231.19 192.83 230.85 192.11
  L 236.52 190.56
  Q 246.11 192.67 255.33 187.87
  A 2.09 2.08 -31.2 0 0 256.08 184.82
  C 254.73 182.89 248.13 183.08 245.92 183.29
  Q 247.04 180.81 247.98 178.60
  Q 251.63 169.95 250.38 161.01
  Q 248.78 149.52 242.38 141.35
  C 235.23 132.23 223.31 126.71 212.77 133.31
  C 204.22 138.66 200.94 150.08 202.03 159.99
  Q 202.27 162.18 202.40 164.54
  Q 191.07 163.36 185.90 171.94
  Q 181.50 179.25 173.73 197.83
  Q 173.51 198.34 173.05 198.65
  C 171.89 199.43 170.59 199.79 169.83 201.05
  C 168.19 203.73 171.52 207.43 173.52 208.72
  Q 175.50 209.99 176.44 211.38
  Q 169.02 216.17 158.05 217.58
  C 135.64 220.47 117.27 208.47 107.17 189.14
  Q 106.19 187.26 106.22 184.84
  Q 106.52 163.62 115.53 144.28
  C 116.80 145.64 118.87 146.07 120.17 144.54
  C 126.48 137.05 137.55 125.06 148.22 129.42
  Q 151.03 130.57 154.06 132.60
  C 158.03 135.28 161.21 134.51 164.55 131.41
  Q 169.51 137.22 175.75 142.25
  Q 179.44 145.22 183.27 147.08
  C 190.65 150.67 195.03 143.51 197.58 137.88
  Q 201.37 129.50 205.79 121.32
  Q 205.66 123.03 205.20 124.62
  C 204.68 126.42 204.58 127.91 205.99 129.10
  A 1.64 1.64 0.0 0 0 208.34 128.84
  Q 209.86 126.89 211.38 124.79
  Q 216.83 117.30 226.52 120.13
  Q 234.74 122.52 242.48 127.85
  C 244.39 129.16 245.72 128.85 246.52 126.61
  Z
  M 136.42 200.41
  C 134.83 201.08 131.31 202.38 130.69 203.86
  A 2.02 2.02 0.0 0 0 132.12 206.61
  Q 142.09 208.80 151.13 204.27
  Q 161.27 203.22 166.35 193.85
  C 173.81 180.08 169.89 161.46 158.96 150.63
  C 150.88 142.64 139.08 139.84 129.91 147.69
  C 123.61 153.09 120.99 162.20 121.37 170.50
  Q 122.20 188.90 136.42 200.41
  Z"
/>
<path fill="#ffffff" d="
  M 245.92 183.29
  Q 241.66 183.74 237.49 185.49
  Q 235.60 186.29 234.69 188.06
  Q 234.45 188.52 234.70 188.97
  Q 235.22 189.92 236.52 190.56
  L 230.85 192.11
  L 228.09 185.25
  C 237.11 183.66 240.89 175.02 240.97 166.76
  Q 241.09 154.01 232.61 144.96
  Q 232.56 144.91 232.61 144.87
  Q 232.69 144.81 232.62 144.88
  Q 232.61 144.88 232.62 144.89
  Q 234.91 150.42 230.22 154.50
  Q 222.06 158.25 218.66 149.78
  Q 218.44 142.06 225.54 140.91
  Q 226.22 140.80 225.55 140.63
  C 216.39 138.39 210.26 145.25 208.62 153.51
  Q 207.37 159.85 208.73 165.85
  L 202.40 164.54
  Q 202.27 162.18 202.03 159.99
  C 200.94 150.08 204.22 138.66 212.77 133.31
  C 223.31 126.71 235.23 132.23 242.38 141.35
  Q 248.78 149.52 250.38 161.01
  Q 251.63 169.95 247.98 178.60
  Q 247.04 180.81 245.92 183.29
  Z"
/>
<path fill="#6476be" d="
  M 218.66 149.78
  C 212.32 153.58 211.52 161.47 213.57 168.04
  L 208.73 165.85
  Q 207.37 159.85 208.62 153.51
  C 210.26 145.25 216.39 138.39 225.55 140.63
  Q 226.22 140.80 225.54 140.91
  Q 218.44 142.06 218.66 149.78
  Z"
/>
<path fill="#ffffff" d="
  M 151.13 204.27
  L 152.14 202.78
  A 1.62 1.61 26.1 0 0 151.30 200.34
  C 146.10 198.65 141.46 199.37 136.42 200.41
  Q 122.20 188.90 121.37 170.50
  C 120.99 162.20 123.61 153.09 129.91 147.69
  C 139.08 139.84 150.88 142.64 158.96 150.63
  C 169.89 161.46 173.81 180.08 166.35 193.85
  Q 161.27 203.22 151.13 204.27
  Z
  M 157.74 168.25
  Q 149.82 172.15 146.16 163.64
  Q 145.74 157.54 151.26 155.07
  Q 151.97 154.75 151.21 154.54
  C 142.50 152.16 136.22 158.22 134.23 166.36
  C 131.67 176.86 135.37 190.15 144.70 196.50
  C 152.57 201.86 161.63 198.04 164.66 189.48
  Q 169.34 176.29 161.45 162.96
  Q 161.00 162.19 160.86 163.07
  Q 160.40 166.05 157.74 168.25
  Z"
/>
<path fill="#6476be" d="
  M 228.09 185.25
  L 224.28 178.52
  C 236.21 176.65 235.36 162.04 230.22 154.50
  Q 234.91 150.42 232.62 144.89
  Q 232.61 144.88 232.62 144.88
  Q 232.69 144.81 232.61 144.87
  Q 232.56 144.91 232.61 144.96
  Q 241.09 154.01 240.97 166.76
  C 240.89 175.02 237.11 183.66 228.09 185.25
  Z"
/>
<path fill="#111c49" d="
  M 218.66 149.78
  Q 222.06 158.25 230.22 154.50
  C 235.36 162.04 236.21 176.65 224.28 178.52
  Q 219.80 172.27 213.57 168.04
  C 211.52 161.47 212.32 153.58 218.66 149.78
  Z"
/>
<path fill="#6476be" d="
  M 146.16 163.64
  Q 137.32 169.88 141.10 181.85
  Q 142.96 187.77 148.05 190.78
  C 154.69 194.70 160.38 188.75 161.13 182.34
  Q 162.03 174.71 157.74 168.25
  Q 160.40 166.05 160.86 163.07
  Q 161.00 162.19 161.45 162.96
  Q 169.34 176.29 164.66 189.48
  C 161.63 198.04 152.57 201.86 144.70 196.50
  C 135.37 190.15 131.67 176.86 134.23 166.36
  C 136.22 158.22 142.50 152.16 151.21 154.54
  Q 151.97 154.75 151.26 155.07
  Q 145.74 157.54 146.16 163.64
  Z"
/>
<path fill="#111c49" d="
  M 146.16 163.64
  Q 149.82 172.15 157.74 168.25
  Q 162.03 174.71 161.13 182.34
  C 160.38 188.75 154.69 194.70 148.05 190.78
  Q 142.96 187.77 141.10 181.85
  Q 137.32 169.88 146.16 163.64
  Z"
/>
<path fill="#f29222" d="
  M 202.40 164.54
  L 208.73 165.85
  L 213.57 168.04
  Q 219.80 172.27 224.28 178.52
  L 228.09 185.25
  L 230.85 192.11
  Q 231.19 192.83 231.14 193.40
  Q 231.10 193.91 230.65 194.16
  Q 226.68 196.34 223.36 199.36
  Q 223.10 199.59 223.10 199.91
  Q 222.93 199.92 222.74 199.98
  Q 222.57 200.05 222.44 200.18
  C 219.37 203.45 217.56 207.68 219.99 211.97
  Q 220.25 212.42 220.74 212.26
  Q 223.28 211.42 224.12 214.03
  C 226.42 221.12 222.12 228.27 215.90 231.82
  C 204.32 238.42 189.96 235.77 181.38 226.35
  Q 175.76 220.18 176.44 211.38
  Q 175.50 209.99 173.52 208.72
  C 171.52 207.43 168.19 203.73 169.83 201.05
  C 170.59 199.79 171.89 199.43 173.05 198.65
  Q 173.51 198.34 173.73 197.83
  Q 181.50 179.25 185.90 171.94
  Q 191.07 163.36 202.40 164.54
  Z
  M 215.5277 175.9047
  A 7.68 2.95 23.6 0 0 209.6710 170.1267
  A 7.68 2.95 23.6 0 0 201.4523 169.7553
  A 7.68 2.95 23.6 0 0 207.3090 175.5333
  A 7.68 2.95 23.6 0 0 215.5277 175.9047
  Z
  M 220.8123 179.4931
  A 2.56 2.26 23.8 0 0 219.3820 176.3922
  A 2.56 2.26 23.8 0 0 216.1277 177.4269
  A 2.56 2.26 23.8 0 0 217.5580 180.5278
  A 2.56 2.26 23.8 0 0 220.8123 179.4931
  Z
  M 208.62 204.06
  C 211.34 199.34 216.03 197.04 221.16 195.71
  Q 222.31 195.41 221.14 195.20
  C 215.55 194.21 208.60 198.05 204.27 201.39
  C 196.95 207.01 190.79 210.30 181.48 206.71
  Q 180.74 206.42 180.97 207.18
  Q 181.26 208.15 181.99 208.83
  C 187.99 214.45 202.72 222.35 210.75 216.48
  A 1.62 1.61 63.7 0 0 211.34 214.72
  L 208.51 205.04
  A 1.29 1.27 -39.0 0 1 208.62 204.06
  Z"
/>
<ellipse fill="#ffffff" cx="0.00" cy="0.00" transform="translate(208.49,172.83) rotate(23.6)" rx="7.68" ry="2.95"/>
<ellipse fill="#ffffff" cx="0.00" cy="0.00" transform="translate(218.47,178.46) rotate(23.8)" rx="2.56" ry="2.26"/>
<path fill="#073ace" d="
  M 427.83 181.60
  C 465.48 301.00 395.43 426.13 274.08 456.22
  L 267.75 434.43
  A 1.81 1.79 -38.6 0 1 267.91 433.07
  Q 272.40 424.92 271.69 414.97
  Q 271.66 414.49 272.00 414.15
  C 292.56 394.05 303.76 367.39 306.03 338.24
  A 0.37 0.37 0.0 0 1 306.63 337.98
  C 312.46 342.68 320.22 342.66 323.97 335.44
  C 324.55 334.31 324.99 332.84 325.06 331.56
  Q 325.10 330.88 325.73 331.13
  C 334.32 334.51 347.32 335.86 351.55 325.95
  A 2.63 2.61 3.5 0 1 353.26 324.45
  Q 360.99 322.31 367.92 318.29
  Q 369.40 317.44 370.50 316.08
  Q 375.37 310.06 379.95 304.05
  A 1.44 1.43 14.4 0 1 380.91 303.49
  Q 390.35 302.22 400.16 296.00
  C 413.99 287.22 423.61 274.37 425.50 258.11
  Q 425.81 255.44 425.26 251.95
  C 424.67 248.19 424.70 244.30 423.71 240.43
  C 421.80 232.96 414.62 229.50 407.86 227.40
  A 1.10 1.09 -86.2 0 1 407.11 226.53
  Q 406.53 222.84 404.23 219.41
  A 0.87 0.87 0.0 0 1 404.22 218.44
  L 427.83 181.60
  Z"
/>
<path fill="#111c49" d="
  M 245.92 183.29
  C 248.13 183.08 254.73 182.89 256.08 184.82
  A 2.09 2.08 -31.2 0 1 255.33 187.87
  Q 246.11 192.67 236.52 190.56
  Q 235.22 189.92 234.70 188.97
  Q 234.45 188.52 234.69 188.06
  Q 235.60 186.29 237.49 185.49
  Q 241.66 183.74 245.92 183.29
  Z"
/>
<path fill="#111c49" d="
  M 208.62 204.06
  A 1.29 1.27 -39.0 0 0 208.51 205.04
  L 211.34 214.72
  A 1.62 1.61 63.7 0 1 210.75 216.48
  C 202.72 222.35 187.99 214.45 181.99 208.83
  Q 181.26 208.15 180.97 207.18
  Q 180.74 206.42 181.48 206.71
  C 190.79 210.30 196.95 207.01 204.27 201.39
  C 208.60 198.05 215.55 194.21 221.14 195.20
  Q 222.31 195.41 221.16 195.71
  C 216.03 197.04 211.34 199.34 208.62 204.06
  Z"
/>
<path fill="#111c49" d="
  M 151.13 204.27
  Q 142.09 208.80 132.12 206.61
  A 2.02 2.02 0.0 0 1 130.69 203.86
  C 131.31 202.38 134.83 201.08 136.42 200.41
  C 141.46 199.37 146.10 198.65 151.30 200.34
  A 1.62 1.61 26.1 0 1 152.14 202.78
  L 151.13 204.27
  Z"
/>
<path fill="#4071ff" d="
  M 152.04 370.84
  Q 157.75 382.98 160.46 387.75
  C 169.42 403.56 184.99 414.49 203.18 415.83
  C 238.24 418.40 259.89 382.50 266.14 352.90
  C 273.74 316.95 266.64 274.64 238.97 248.43
  Q 250.80 240.75 261.36 231.31
  Q 261.73 230.98 262.24 231.02
  Q 289.00 233.11 314.20 243.10
  A 1.98 1.94 -7.5 0 1 315.04 243.73
  C 320.10 250.36 327.22 255.70 335.71 255.30
  C 343.72 254.92 351.74 249.03 356.13 242.52
  Q 364.54 230.04 373.40 219.83
  C 378.92 213.47 389.35 209.04 396.11 216.84
  Q 396.47 217.25 396.17 217.71
  L 392.87 222.71
  Q 392.36 223.49 391.48 223.16
  C 376.18 217.25 370.96 247.79 369.57 256.62
  C 369.41 257.57 369.12 258.56 368.58 259.37
  Q 355.56 279.14 341.75 299.99
  Q 340.01 302.61 342.64 304.33
  L 344.52 305.56
  Q 347.19 307.32 348.92 304.63
  L 371.17 269.95
  Q 371.52 269.39 371.72 270.02
  Q 372.50 272.45 371.14 273.53
  Q 370.52 274.01 370.22 274.74
  Q 368.23 279.54 368.69 285.28
  A 0.48 0.48 0.0 0 0 369.29 285.70
  Q 369.63 285.61 369.70 285.27
  C 370.35 282.08 373.00 273.88 377.37 280.23
  Q 378.53 281.92 378.25 279.90
  Q 377.53 274.81 376.60 268.44
  Q 374.82 256.26 378.86 242.51
  C 381.56 233.32 387.13 225.37 397.95 230.56
  Q 401.10 232.07 403.69 234.44
  Q 405.07 235.70 404.00 234.17
  Q 402.91 232.62 401.60 231.28
  Q 400.92 230.59 401.85 230.85
  C 406.88 232.28 412.78 234.12 416.64 237.77
  C 418.60 239.64 419.10 242.95 419.49 245.49
  Q 421.08 255.74 418.61 263.91
  C 413.78 279.90 400.39 291.71 384.80 296.88
  Q 381.48 297.98 378.03 297.96
  Q 377.44 297.96 377.08 298.42
  Q 372.28 304.63 367.10 311.17
  Q 365.44 313.27 363.04 314.55
  C 358.65 316.91 353.72 318.29 349.09 320.13
  C 348.25 320.47 347.49 320.61 346.60 320.29
  Q 345.91 320.05 346.16 320.74
  C 348.36 326.78 339.93 328.58 335.79 327.99
  Q 324.73 326.42 314.99 318.39
  Q 314.82 318.25 314.67 318.42
  L 314.49 318.61
  Q 314.45 318.66 314.50 318.70
  C 318.09 321.92 323.71 332.12 316.74 334.98
  C 313.20 336.43 309.79 333.84 307.28 331.53
  Q 306.01 330.36 305.69 328.05
  Q 300.96 293.21 278.45 265.50
  Q 277.22 263.99 278.25 265.64
  C 289.58 283.96 297.78 304.92 300.43 326.29
  Q 301.58 335.55 300.07 345.62
  C 296.23 371.26 285.51 394.45 266.64 411.65
  A 1.25 1.24 -24.4 0 0 266.25 412.68
  C 267.12 420.55 266.02 427.40 261.03 433.18
  Q 256.87 438.01 249.87 438.42
  C 245.53 438.67 240.66 436.46 236.91 434.40
  A 0.24 0.24 0.0 0 1 236.92 433.97
  Q 245.40 429.61 249.42 421.12
  Q 250.02 419.86 248.92 420.72
  Q 236.58 430.42 221.79 432.88
  Q 205.54 435.59 184.46 431.67
  Q 183.89 431.57 183.60 432.06
  Q 179.20 439.47 171.76 442.52
  C 157.44 448.37 147.43 435.32 146.71 422.70
  A 0.75 0.74 86.6 0 0 145.92 421.99
  C 133.29 422.80 87.91 423.21 86.47 403.86
  Q 86.42 403.20 87.08 403.17
  C 109.49 402.22 141.31 392.99 152.04 370.84
  Z"
/>
<path fill="#4071ff" d="
  M 401.05 224.23
  Q 401.79 225.57 401.94 227.02
  A 0.88 0.88 0.0 0 1 401.15 227.98
  Q 400.22 228.07 399.23 227.85
  Q 398.35 227.65 398.82 226.88
  L 400.43 224.22
  Q 400.75 223.69 401.05 224.23
  Z"
/>
<path fill="#4071ff" d="
  M 158.88 261.15
  Q 134.15 292.80 143.02 334.56
  Q 136.92 324.35 127.75 325.00
  Q 121.83 325.42 116.43 328.12
  Q 115.96 328.36 115.61 327.96
  C 108.59 319.77 110.16 306.37 114.15 297.08
  Q 115.58 293.76 113.28 296.54
  C 103.39 308.46 106.31 324.72 113.05 337.85
  Q 113.24 338.21 113.55 337.95
  Q 121.27 331.63 130.93 331.27
  C 136.94 331.04 139.77 338.87 139.51 343.85
  Q 139.48 344.42 139.04 344.80
  L 136.89 346.63
  Q 136.48 346.98 136.06 346.65
  Q 133.89 345.00 131.12 344.60
  Q 130.41 344.50 130.86 345.06
  Q 135.33 350.60 132.63 357.16
  Q 132.31 357.94 133.09 357.61
  Q 136.87 356.03 137.80 352.27
  A 0.25 0.25 0.0 0 1 138.25 352.19
  L 146.18 363.51
  Q 146.50 363.97 146.38 364.51
  Q 144.03 375.21 135.27 381.55
  C 121.55 391.48 103.37 396.20 86.13 398.06
  Q 85.48 398.13 84.92 397.79
  Q 67.54 387.21 57.93 378.17
  Q 50.55 371.24 46.63 362.59
  Q 46.34 361.95 45.84 362.44
  C 42.19 366.01 38.24 361.47 37.06 358.10
  C 34.02 349.36 35.65 340.47 39.03 331.90
  Q 39.09 331.76 38.95 331.70
  L 38.94 331.70
  Q 38.79 331.63 38.72 331.77
  C 36.05 336.58 32.17 340.85 26.24 340.32
  C 21.11 339.85 21.62 333.61 23.02 330.20
  C 25.90 323.20 31.12 317.38 36.75 312.15
  Q 36.91 312.00 36.76 311.84
  L 36.76 311.83
  Q 36.66 311.72 36.54 311.82
  C 34.16 313.80 25.94 320.08 22.97 317.21
  Q 21.01 315.32 22.18 312.38
  C 26.12 302.50 34.56 295.86 44.75 292.70
  A 0.04 0.04 0.0 0 0 44.76 292.62
  Q 44.63 292.52 44.66 292.36
  Q 44.69 292.22 44.54 292.23
  Q 37.89 292.98 33.37 288.59
  A 1.40 1.40 0.0 0 1 34.03 286.22
  Q 38.71 285.14 43.34 281.60
  Q 50.99 275.75 59.02 269.74
  Q 76.98 256.30 97.14 246.85
  A 1.87 1.85 -43.3 0 1 98.81 246.89
  C 116.87 256.44 138.67 259.80 158.88 261.15
  Z"
/>
<path fill="#9fb7ff" d="
  M 238.97 248.43
  C 266.64 274.64 273.74 316.95 266.14 352.90
  C 259.89 382.50 238.24 418.40 203.18 415.83
  C 184.99 414.49 169.42 403.56 160.46 387.75
  Q 157.75 382.98 152.04 370.84
  Q 153.00 367.95 152.88 365.09
  Q 152.77 362.73 150.94 359.83
  Q 148.23 355.54 145.66 351.28
  L 144.59 345.79
  L 143.02 334.56
  Q 134.15 292.80 158.88 261.15
  L 166.93 261.57
  Q 159.57 283.01 161.80 305.61
  C 162.20 309.62 164.40 317.22 170.15 312.82
  C 174.03 309.84 176.26 304.70 178.29 299.27
  Q 178.62 298.40 178.86 299.29
  Q 182.05 311.02 186.89 320.50
  Q 188.52 323.71 190.78 325.46
  C 193.06 327.23 196.33 323.21 197.33 321.54
  Q 201.62 314.42 204.33 304.31
  Q 204.56 303.45 205.01 304.22
  C 207.35 308.18 224.27 336.86 230.35 330.28
  Q 232.38 328.09 233.30 325.11
  C 236.04 316.19 236.80 305.50 236.82 296.18
  Q 236.82 295.29 237.44 295.92
  C 240.70 299.24 244.16 302.10 248.51 303.17
  A 2.24 2.24 0.0 0 0 251.27 301.26
  Q 251.55 298.94 251.14 296.51
  Q 247.10 272.38 233.68 251.74
  L 238.97 248.43
  Z"
/>
<path fill="#ffffff" d="
  M 233.68 251.74
  Q 247.10 272.38 251.14 296.51
  Q 251.55 298.94 251.27 301.26
  A 2.24 2.24 0.0 0 1 248.51 303.17
  C 244.16 302.10 240.70 299.24 237.44 295.92
  Q 236.82 295.29 236.82 296.18
  C 236.80 305.50 236.04 316.19 233.30 325.11
  Q 232.38 328.09 230.35 330.28
  C 224.27 336.86 207.35 308.18 205.01 304.22
  Q 204.56 303.45 204.33 304.31
  Q 201.62 314.42 197.33 321.54
  C 196.33 323.21 193.06 327.23 190.78 325.46
  Q 188.52 323.71 186.89 320.50
  Q 182.05 311.02 178.86 299.29
  Q 178.62 298.40 178.29 299.27
  C 176.26 304.70 174.03 309.84 170.15 312.82
  C 164.40 317.22 162.20 309.62 161.80 305.61
  Q 159.57 283.01 166.93 261.57
  Q 191.90 262.65 216.74 260.59
  Q 217.73 260.51 218.62 260.06
  Q 226.55 256.07 233.68 251.74
  Z"
/>
<path fill="#9fb7ff" d="
  M 206.16 256.62
  L 191.40 256.76
  Q 198.88 255.49 206.16 256.62
  Z"
/>
<path fill="#4071ff" d="
  M 144.59 345.79
  L 145.66 351.28
  Q 143.10 348.68 144.59 345.79
  Z"
/>
<path fill="#073ace" d="
  M 82.33 409.55
  Q 70.76 399.61 60.98 388.20
  L 80.66 401.83
  Q 81.06 402.10 81.14 402.58
  L 82.33 409.55
  Z"
/>
<path fill="#073ace" d="
  M 144.63 447.38
  Q 120.83 438.05 100.07 423.42
  Q 105.30 424.65 110.29 425.49
  Q 126.76 428.28 141.54 427.59
  Q 142.14 427.56 142.27 428.15
  Q 143.48 433.95 146.62 438.95
  A 1.24 1.22 36.9 0 1 146.77 439.95
  L 144.63 447.38
  Z"
/>
<path fill="#073ace" d="
  M 250.64 460.52
  Q 208.81 465.72 168.21 455.14
  L 171.42 448.90
  Q 171.67 448.43 172.17 448.25
  Q 180.34 445.36 186.06 437.89
  Q 186.29 437.59 186.67 437.65
  Q 210.61 441.69 231.24 436.41
  Q 231.83 436.26 232.11 436.80
  C 233.44 439.37 238.51 441.56 241.18 442.52
  Q 241.96 442.80 242.32 443.54
  L 250.64 460.52
  Z"
/>
<path fill="#f29222" d="
  M 305.51 472.69
  Q 310.36 473.00 315.53 474.65
  C 319.66 475.97 326.17 479.78 325.99 484.48
  Q 325.97 485.08 325.53 485.47
  Q 323.24 487.49 319.66 487.85
  Q 313.26 488.48 307.11 487.93
  Q 289.31 486.35 270.23 482.14
  Q 269.69 482.02 269.30 482.42
  C 265.72 486.10 257.95 492.27 253.29 487.21
  Q 252.89 486.78 252.81 486.19
  C 252.20 481.55 259.87 477.73 263.25 476.07
  Q 264.07 475.67 263.67 474.85
  L 248.42 444.25
  A 0.28 0.28 0.0 0 1 248.68 443.84
  Q 256.78 444.09 263.26 438.65
  A 0.37 0.36 -22.1 0 1 263.86 438.90
  Q 263.97 440.22 264.37 441.57
  Q 268.59 455.88 272.85 470.64
  A 0.83 0.83 0.0 0 0 273.98 471.17
  Q 285.44 466.15 297.01 464.06
  Q 298.03 463.88 299.05 463.91
  C 303.24 464.02 306.60 463.55 309.58 466.98
  A 1.74 1.73 50.6 0 1 309.34 469.48
  Q 307.63 470.84 305.38 471.47
  Q 301.85 472.46 305.51 472.69
  Z"
/>
<path fill="#f29222" d="
  M 112.05 472.12
  Q 111.18 471.54 110.34 471.47
  Q 108.01 470.46 107.29 469.93
  Q 105.12 468.35 107.29 466.26
  C 113.81 459.94 134.84 467.97 142.02 471.16
  A 1.00 0.99 -70.0 0 0 143.38 470.52
  L 150.94 444.51
  A 0.35 0.35 0.0 0 1 151.50 444.33
  Q 157.37 449.19 164.81 449.37
  A 0.31 0.31 0.0 0 1 165.08 449.82
  L 152.47 474.97
  A 0.85 0.85 0.0 0 0 152.89 476.13
  C 155.91 477.48 167.33 483.73 162.30 487.92
  C 157.67 491.78 150.27 485.99 147.00 482.60
  A 1.25 1.25 0.0 0 0 145.81 482.24
  Q 127.46 486.29 109.41 487.96
  Q 105.52 488.32 98.36 488.11
  C 96.15 488.04 88.99 486.93 90.34 483.09
  C 93.09 475.29 105.29 472.88 112.28 472.60
  Q 112.59 472.58 112.44 472.31
  Q 112.36 472.17 112.05 472.12
  Z"
/>
</svg>
