<?xml version="1.0" encoding="UTF-8" standalone="no"?>
<!DOCTYPE svg PUBLIC "-//W3C//DTD SVG 1.1//EN" "http://www.w3.org/Graphics/SVG/1.1/DTD/svg11.dtd">
<svg xmlns="http://www.w3.org/2000/svg" version="1.1" viewBox="0.00 0.00 512.00 512.00">
<g stroke-width="2.00" fill="none" stroke-linecap="butt">
<path stroke="#0c2b8c" vector-effect="non-scaling-stroke" d="
  M 335.51 18.99
  Q 334.58 19.22 334.25 19.81"
/>
<path stroke="#305fe7" vector-effect="non-scaling-stroke" d="
  M 334.25 19.81
  C 331.57 19.50 328.90 19.00 326.23 19.00
  Q 256.99 19.00 187.75 18.99
  Q 186.88 18.99 185.92 18.44"
/>
<path stroke="#1537a5" vector-effect="non-scaling-stroke" d="
  M 463.54 113.68
  Q 463.16 113.57 463.01 113.65
  Q 442.08 125.87 419.20 120.11
  Q 398.09 114.79 385.02 95.61"
/>
<path stroke="#1a2863" vector-effect="non-scaling-stroke" d="
  M 385.02 95.61
  L 382.99 92.02
  Q 382.73 91.57 382.23 91.68
  L 364.86 95.48"
/>
<path stroke="#3e5cbe" vector-effect="non-scaling-stroke" d="
  M 364.86 95.48
  L 346.23 99.72"
/>
<path stroke="#7685be" vector-effect="non-scaling-stroke" d="
  M 346.23 99.72
  L 323.46 104.86
  Q 321.03 105.41 323.17 104.15
  L 346.32 90.55"
/>
<path stroke="#3e5cbe" vector-effect="non-scaling-stroke" d="
  M 346.32 90.55
  L 364.92 79.63"
/>
<path stroke="#1a2863" vector-effect="non-scaling-stroke" d="
  M 364.92 79.63
  L 376.17 72.87
  Q 376.60 72.60 376.54 72.10
  Q 374.53 54.57 381.91 39.25"
/>
<path stroke="#7685be" vector-effect="non-scaling-stroke" d="
  M 454.4049 31.7079
  A 7.19 7.19 0.0 0 0 447.8012 23.9759
  L 447.3426 23.9398
  A 7.19 7.19 0.0 0 0 439.6106 30.5435
  L 436.7751 66.5721
  A 7.19 7.19 0.0 0 0 443.3788 74.3041
  L 443.8374 74.3402
  A 7.19 7.19 0.0 0 0 451.5694 67.7365
  L 454.4049 31.7079"
/>
<path stroke="#7685be" vector-effect="non-scaling-stroke" d="
  M 422.5207 42.9660
  A 7.19 7.19 0.0 0 0 414.5741 36.6223
  L 414.1368 36.6713
  A 7.19 7.19 0.0 0 0 407.7931 44.6180
  L 411.7993 80.3340
  A 7.19 7.19 0.0 0 0 419.7459 86.6777
  L 420.1832 86.6287
  A 7.19 7.19 0.0 0 0 426.5269 78.6820
  L 422.5207 42.9660"
/>
<path stroke="#7685be" vector-effect="non-scaling-stroke" d="
  M 450.20 85.38
  A 7.41 7.41 0.0 0 0 442.79 77.97
  A 7.41 7.41 0.0 0 0 435.38 85.38
  A 7.41 7.41 0.0 0 0 442.79 92.79
  A 7.41 7.41 0.0 0 0 450.20 85.38"
/>
<path stroke="#7685be" vector-effect="non-scaling-stroke" d="
  M 428.62 97.86
  A 7.41 7.41 0.0 0 0 421.21 90.45
  A 7.41 7.41 0.0 0 0 413.80 97.86
  A 7.41 7.41 0.0 0 0 421.21 105.27
  A 7.41 7.41 0.0 0 0 428.62 97.86"
/>
<path stroke="#3550a4" vector-effect="non-scaling-stroke" d="
  M 334.25 19.81
  Q 347.12 22.47 355.53 32.24
  Q 364.38 42.51 364.64 56.50
  Q 364.86 67.85 364.92 79.63"
/>
<path stroke="#91adff" vector-effect="non-scaling-stroke" d="
  M 346.32 90.55
  Q 346.26 78.24 346.21 66.42
  Q 346.19 62.52 345.26 60.38
  Q 343.80 57.03 340.66 55.54
  Q 338.65 54.58 332.29 54.62
  Q 318.41 54.72 304.88 54.77"
/>
<path stroke="#7c9eff" vector-effect="non-scaling-stroke" d="
  M 304.88 54.77
  L 187.65 54.81"
/>
<path stroke="#91adff" vector-effect="non-scaling-stroke" d="
  M 187.65 54.81
  Q 187.91 50.24 183.53 49.41
  Q 175.48 47.90 171.53 55.02"
/>
<path stroke="#7c9eff" vector-effect="non-scaling-stroke" d="
  M 171.53 55.02
  Q 167.48 54.28 163.55 55.11"
/>
<path stroke="#91adff" vector-effect="non-scaling-stroke" d="
  M 163.55 55.11
  Q 160.66 48.90 154.80 49.18
  Q 150.77 49.37 146.27 52.85
  Q 136.23 60.63 134.60 74.26
  Q 133.65 82.16 140.25 83.83"
/>
<path stroke="#7c9eff" vector-effect="non-scaling-stroke" d="
  M 140.25 83.83
  L 140.23 169.04"
/>
<path stroke="#91adff" vector-effect="non-scaling-stroke" d="
  M 140.23 169.04
  L 140.28 320.05"
/>
<path stroke="#7c9eff" vector-effect="non-scaling-stroke" d="
  M 140.28 320.05
  L 140.17 366.45"
/>
<path stroke="#91adff" vector-effect="non-scaling-stroke" d="
  M 140.17 366.45
  L 140.10 394.50"
/>
<path stroke="#7c9eff" vector-effect="non-scaling-stroke" d="
  M 140.10 394.50
  L 140.22 408.24"
/>
<path stroke="#91adff" vector-effect="non-scaling-stroke" d="
  M 140.22 408.24
  L 140.24 452.46"
/>
<path stroke="#7c9eff" vector-effect="non-scaling-stroke" d="
  M 140.24 452.46
  Q 141.71 457.10 145.51 458.91
  Q 147.70 459.95 153.15 459.94
  Q 225.53 459.81 298.15 459.80"
/>
<path stroke="#91adff" vector-effect="non-scaling-stroke" d="
  M 298.15 459.80
  Q 295.28 462.34 294.79 463.80
  Q 292.83 469.74 298.38 471.40
  Q 304.44 473.21 309.93 468.95
  Q 315.19 464.87 311.14 460.02"
/>
<path stroke="#7c9eff" vector-effect="non-scaling-stroke" d="
  M 311.14 460.02
  L 319.53 459.64"
/>
<path stroke="#91adff" vector-effect="non-scaling-stroke" d="
  M 319.53 459.64
  Q 321.74 466.59 328.04 467.61
  C 331.42 468.15 335.13 466.84 337.94 465.02
  Q 350.27 457.02 353.71 441.02
  Q 354.55 437.10 354.03 433.95
  Q 352.97 427.50 345.96 427.03"
/>
<path stroke="#7c9eff" vector-effect="non-scaling-stroke" d="
  M 345.96 427.03
  L 346.05 319.25"
/>
<path stroke="#91adff" vector-effect="non-scaling-stroke" d="
  M 346.05 319.25
  L 346.11 274.92"
/>
<path stroke="#7c9eff" vector-effect="non-scaling-stroke" d="
  M 346.11 274.92
  L 346.00 260.27"
/>
<path stroke="#91adff" vector-effect="non-scaling-stroke" d="
  M 346.00 260.27
  L 346.12 231.75"
/>
<path stroke="#7c9eff" vector-effect="non-scaling-stroke" d="
  M 346.12 231.75
  L 346.18 172.56"
/>
<path stroke="#91adff" vector-effect="non-scaling-stroke" d="
  M 346.18 172.56
  L 346.23 99.72"
/>
<path stroke="#3550a4" vector-effect="non-scaling-stroke" d="
  M 364.86 95.48
  Q 364.92 269.85 364.90 444.24
  Q 364.89 459.08 363.65 464.16
  C 360.10 478.70 347.65 490.24 332.51 492.44"
/>
<path stroke="#305fe7" vector-effect="non-scaling-stroke" d="
  M 332.51 492.44
  C 330.06 492.67 327.60 493.00 325.15 493.00
  Q 257.82 493.00 190.50 493.00
  Q 189.26 493.00 185.84 493.30"
/>
<path stroke="#3e5cbe" vector-effect="non-scaling-stroke" d="
  M 122.29 464.58
  Q 120.94 458.78 121.00 452.92"
/>
<path stroke="#305fe7" vector-effect="non-scaling-stroke" d="
  M 121.00 452.92
  L 121.00 391.92"
/>
<path stroke="#3e5cbe" vector-effect="non-scaling-stroke" d="
  M 121.00 391.92
  L 121.01 379.58"
/>
<path stroke="#305fe7" vector-effect="non-scaling-stroke" d="
  M 121.01 379.58
  L 121.00 135.97"
/>
<path stroke="#3e5cbe" vector-effect="non-scaling-stroke" d="
  M 121.00 135.97
  L 121.00 120.63"
/>
<path stroke="#305fe7" vector-effect="non-scaling-stroke" d="
  M 121.00 120.63
  Q 121.00 88.39 121.01 57.00
  Q 121.02 53.80 121.86 48.97"
/>
<path stroke="#3550a4" vector-effect="non-scaling-stroke" d="
  M 280.4774 35.2616
  A 4.18 4.18 0.0 0 0 276.2539 31.1256
  L 221.8969 31.6949
  A 4.18 4.18 0.0 0 0 217.7609 35.9184
  L 217.7626 36.0784
  A 4.18 4.18 0.0 0 0 221.9861 40.2144
  L 276.3431 39.6451
  A 4.18 4.18 0.0 0 0 280.4791 35.4216
  L 280.4774 35.2616"
/>
<path stroke="#3550a4" vector-effect="non-scaling-stroke" d="
  M 213.47 35.95
  A 4.24 4.24 0.0 0 0 209.23 31.71
  A 4.24 4.24 0.0 0 0 204.99 35.95
  A 4.24 4.24 0.0 0 0 209.23 40.19
  A 4.24 4.24 0.0 0 0 213.47 35.95"
/>
<path stroke="#1537a5" vector-effect="non-scaling-stroke" d="
  M 121.00 120.63
  Q 114.33 118.45 110.70 121.95
  C 104.53 127.91 109.50 138.32 118.32 136.42
  Q 119.62 136.14 121.00 135.97"
/>
<path stroke="#1537a5" vector-effect="non-scaling-stroke" d="
  M 121.01 379.58
  Q 93.06 380.93 81.76 404.99
  Q 77.66 413.72 78.19 425.97"
/>
<path stroke="#6888e7" vector-effect="non-scaling-stroke" d="
  M 53.48 395.04
  Q 63.55 394.39 65.24 385.50
  C 66.42 379.32 62.26 373.66 56.17 372.39
  Q 48.11 370.71 43.33 378.96"
/>
<path stroke="#0c2b8c" vector-effect="non-scaling-stroke" d="
  M 17.05 310.55
  Q 36.53 342.43 70.56 355.57
  C 74.11 356.94 77.69 357.65 80.71 354.90
  C 85.08 350.92 84.14 343.62 78.48 341.64
  C 46.63 330.48 25.00 302.99 18.22 270.22
  C 8.44 222.99 30.14 170.92 77.64 154.02
  C 85.20 151.33 85.59 141.87 78.03 138.87
  C 75.70 137.94 73.16 138.75 70.91 139.61
  Q 43.64 150.00 25.24 172.83"
/>
<path stroke="#6888e7" vector-effect="non-scaling-stroke" d="
  M 70.46 94.63
  L 74.23 105.82
  A 0.54 0.54 0.0 0 0 74.91 106.16
  L 101.40 97.17
  A 0.54 0.54 0.0 0 0 101.74 96.49
  L 93.18 71.27"
/>
<path stroke="#0c2b8c" vector-effect="non-scaling-stroke" d="
  M 66.83 293.68
  C 36.80 255.33 50.95 196.05 97.95 179.49
  Q 101.00 178.41 102.53 176.73
  C 106.54 172.33 104.37 165.46 98.64 163.88
  Q 96.03 163.16 91.86 164.75
  Q 66.22 174.49 51.28 196.02
  C 29.61 227.25 29.93 269.18 51.91 300.16
  Q 66.68 320.97 92.07 330.59
  C 95.74 331.98 99.38 332.46 102.26 329.49
  C 106.27 325.35 105.14 318.26 99.54 316.41
  Q 79.43 309.76 66.83 293.68"
/>
<path stroke="#b4c7ff" vector-effect="non-scaling-stroke" d="
  M 163.55 55.11
  Q 163.81 60.75 159.98 64.75
  C 156.02 68.86 151.37 73.00 148.75 78.13
  C 146.67 82.19 144.88 84.27 140.25 83.83"
/>
<path stroke="#b4c7ff" vector-effect="non-scaling-stroke" d="
  M 187.65 54.81
  Q 184.94 61.33 177.53 60.89
  Q 171.98 60.57 171.53 55.02"
/>
<path stroke="#b4c7ff" vector-effect="non-scaling-stroke" d="
  M 304.88 54.77
  Q 223.09 112.00 141.53 168.81
  Q 141.22 169.03 140.91 169.05
  Q 140.60 169.07 140.23 169.04"
/>
<path stroke="#b4c7ff" vector-effect="non-scaling-stroke" d="
  M 346.18 172.56
  L 140.28 320.05"
/>
<path stroke="#0c2b8c" vector-effect="non-scaling-stroke" d="
  M 385.02 95.61
  Q 385.02 278.15 385.02 460.25
  Q 385.02 464.82 382.04 472.56"
/>
<path stroke="#0c2b8c" vector-effect="non-scaling-stroke" d="
  M 334.13 493.42
  L 332.51 492.44"
/>
<path stroke="#0c2b8c" vector-effect="non-scaling-stroke" d="
  M 500.80 194.86
  Q 495.79 185.28 491.03 178.24
  Q 472.46 150.78 441.14 138.28
  C 437.06 136.65 433.16 135.78 429.77 139.03
  C 426.69 141.97 426.43 146.83 429.27 150.00
  Q 430.80 151.72 433.88 152.82
  C 465.05 163.97 486.30 191.71 493.27 223.68
  C 503.76 271.80 481.59 325.95 432.66 342.94
  C 425.12 345.55 425.55 356.02 433.04 358.20
  Q 435.90 359.03 440.38 357.30
  C 467.68 346.72 489.52 325.67 501.19 298.96
  Q 503.49 293.67 506.91 284.04"
/>
<path stroke="#5379e7" vector-effect="non-scaling-stroke" d="
  M 439.87 427.30
  L 417.77 421.51
  A 0.31 0.31 0.0 0 0 417.40 421.89
  L 423.30 443.31"
/>
<path stroke="#0c2b8c" vector-effect="non-scaling-stroke" d="
  M 467.41 287.05
  C 483.63 252.67 477.17 211.38 450.54 183.93
  Q 437.09 170.07 417.31 162.99
  C 405.90 158.91 401.03 174.36 411.13 177.83
  Q 436.72 186.61 450.12 209.71
  C 461.85 229.94 463.20 255.09 454.69 276.12
  Q 442.50 306.22 411.41 317.38
  C 407.19 318.90 404.77 322.54 405.95 327.09
  C 407.49 332.99 413.18 333.98 418.45 331.96
  Q 452.36 318.93 467.41 287.05"
/>
<path stroke="#6888e7" vector-effect="non-scaling-stroke" d="
  M 426.68 385.45
  A 8.44 8.44 0.0 0 0 418.24 377.01
  A 8.44 8.44 0.0 0 0 409.80 385.45
  A 8.44 8.44 0.0 0 0 418.24 393.89
  A 8.44 8.44 0.0 0 0 426.68 385.45"
/>
<path stroke="#b4c7ff" vector-effect="non-scaling-stroke" d="
  M 346.12 231.75
  L 140.17 366.45"
/>
<path stroke="#b4c7ff" vector-effect="non-scaling-stroke" d="
  M 346.00 260.27
  L 140.10 394.50"
/>
<path stroke="#b4c7ff" vector-effect="non-scaling-stroke" d="
  M 346.11 274.92
  L 140.22 408.24"
/>
<path stroke="#b4c7ff" vector-effect="non-scaling-stroke" d="
  M 346.05 319.25
  L 140.24 452.46"
/>
<path stroke="#b4c7ff" vector-effect="non-scaling-stroke" d="
  M 345.96 427.03
  C 338.52 427.43 338.12 433.78 335.00 437.75
  Q 332.02 441.54 324.42 448.94
  Q 319.98 453.26 319.53 459.64"
/>
<path stroke="#b4c7ff" vector-effect="non-scaling-stroke" d="
  M 311.14 460.02
  Q 307.17 457.17 302.07 458.70
  Q 299.75 459.39 298.15 459.80"
/>
<path stroke="#1537a5" vector-effect="non-scaling-stroke" d="
  M 121.00 391.92
  Q 111.93 391.47 104.67 396.14
  C 91.43 404.66 86.37 420.79 93.02 435.21
  Q 98.36 446.81 111.76 451.47
  Q 114.56 452.45 121.00 452.92"
/>
</g>
<path fill="#073ace" d="
  M 335.51 18.99
  Q 334.58 19.22 334.25 19.81
  C 331.57 19.50 328.90 19.00 326.23 19.00
  Q 256.99 19.00 187.75 18.99
  Q 186.88 18.99 185.92 18.44
  Q 190.59 16.88 195.24 15.66
  Q 265.83 -2.77 335.51 18.99
  Z"
/>
<path fill="#23347c" d="
  M 463.54 113.68
  Q 463.16 113.57 463.01 113.65
  Q 442.08 125.87 419.20 120.11
  Q 398.09 114.79 385.02 95.61
  L 382.99 92.02
  Q 382.73 91.57 382.23 91.68
  L 364.86 95.48
  L 346.23 99.72
  L 323.46 104.86
  Q 321.03 105.41 323.17 104.15
  L 346.32 90.55
  L 364.92 79.63
  L 376.17 72.87
  Q 376.60 72.60 376.54 72.10
  Q 374.53 54.57 381.91 39.25
  C 392.03 19.66 411.08 7.47 433.03 7.29
  C 474.49 6.95 502.82 50.06 485.61 88.08
  Q 478.50 103.79 463.60 113.36
  Q 463.37 113.51 463.54 113.68
  Z
  M 454.4049 31.7079
  A 7.19 7.19 0.0 0 0 447.8012 23.9759
  L 447.3426 23.9398
  A 7.19 7.19 0.0 0 0 439.6106 30.5435
  L 436.7751 66.5721
  A 7.19 7.19 0.0 0 0 443.3788 74.3041
  L 443.8374 74.3402
  A 7.19 7.19 0.0 0 0 451.5694 67.7365
  L 454.4049 31.7079
  Z
  M 422.5207 42.9660
  A 7.19 7.19 0.0 0 0 414.5741 36.6223
  L 414.1368 36.6713
  A 7.19 7.19 0.0 0 0 407.7931 44.6180
  L 411.7993 80.3340
  A 7.19 7.19 0.0 0 0 419.7459 86.6777
  L 420.1832 86.6287
  A 7.19 7.19 0.0 0 0 426.5269 78.6820
  L 422.5207 42.9660
  Z
  M 450.20 85.38
  A 7.41 7.41 0.0 0 0 442.79 77.97
  A 7.41 7.41 0.0 0 0 435.38 85.38
  A 7.41 7.41 0.0 0 0 442.79 92.79
  A 7.41 7.41 0.0 0 0 450.20 85.38
  Z
  M 428.62 97.86
  A 7.41 7.41 0.0 0 0 421.21 90.45
  A 7.41 7.41 0.0 0 0 413.80 97.86
  A 7.41 7.41 0.0 0 0 421.21 105.27
  A 7.41 7.41 0.0 0 0 428.62 97.86
  Z"
/>
<path fill="#5984ff" d="
  M 185.92 18.44
  Q 186.88 18.99 187.75 18.99
  Q 256.99 19.00 326.23 19.00
  C 328.90 19.00 331.57 19.50 334.25 19.81
  Q 347.12 22.47 355.53 32.24
  Q 364.38 42.51 364.64 56.50
  Q 364.86 67.85 364.92 79.63
  L 346.32 90.55
  Q 346.26 78.24 346.21 66.42
  Q 346.19 62.52 345.26 60.38
  Q 343.80 57.03 340.66 55.54
  Q 338.65 54.58 332.29 54.62
  Q 318.41 54.72 304.88 54.77
  L 187.65 54.81
  Q 187.91 50.24 183.53 49.41
  Q 175.48 47.90 171.53 55.02
  Q 167.48 54.28 163.55 55.11
  Q 160.66 48.90 154.80 49.18
  Q 150.77 49.37 146.27 52.85
  Q 136.23 60.63 134.60 74.26
  Q 133.65 82.16 140.25 83.83
  L 140.23 169.04
  L 140.28 320.05
  L 140.17 366.45
  L 140.10 394.50
  L 140.22 408.24
  L 140.24 452.46
  Q 141.71 457.10 145.51 458.91
  Q 147.70 459.95 153.15 459.94
  Q 225.53 459.81 298.15 459.80
  Q 295.28 462.34 294.79 463.80
  Q 292.83 469.74 298.38 471.40
  Q 304.44 473.21 309.93 468.95
  Q 315.19 464.87 311.14 460.02
  L 319.53 459.64
  Q 321.74 466.59 328.04 467.61
  C 331.42 468.15 335.13 466.84 337.94 465.02
  Q 350.27 457.02 353.71 441.02
  Q 354.55 437.10 354.03 433.95
  Q 352.97 427.50 345.96 427.03
  L 346.05 319.25
  L 346.11 274.92
  L 346.00 260.27
  L 346.12 231.75
  L 346.18 172.56
  L 346.23 99.72
  L 364.86 95.48
  Q 364.92 269.85 364.90 444.24
  Q 364.89 459.08 363.65 464.16
  C 360.10 478.70 347.65 490.24 332.51 492.44
  C 330.06 492.67 327.60 493.00 325.15 493.00
  Q 257.82 493.00 190.50 493.00
  Q 189.26 493.00 185.84 493.30
  Q 176.73 492.92 167.40 492.94
  Q 155.29 492.97 150.66 491.90
  C 136.69 488.67 126.64 478.67 122.29 464.58
  Q 120.94 458.78 121.00 452.92
  L 121.00 391.92
  L 121.01 379.58
  L 121.00 135.97
  L 121.00 120.63
  Q 121.00 88.39 121.01 57.00
  Q 121.02 53.80 121.86 48.97
  C 126.24 31.53 140.64 19.42 158.75 19.16
  Q 171.13 18.98 183.50 19.01
  Q 184.23 19.01 185.92 18.44
  Z
  M 280.4774 35.2616
  A 4.18 4.18 0.0 0 0 276.2539 31.1256
  L 221.8969 31.6949
  A 4.18 4.18 0.0 0 0 217.7609 35.9184
  L 217.7626 36.0784
  A 4.18 4.18 0.0 0 0 221.9861 40.2144
  L 276.3431 39.6451
  A 4.18 4.18 0.0 0 0 280.4791 35.4216
  L 280.4774 35.2616
  Z
  M 213.47 35.95
  A 4.24 4.24 0.0 0 0 209.23 31.71
  A 4.24 4.24 0.0 0 0 204.99 35.95
  A 4.24 4.24 0.0 0 0 209.23 40.19
  A 4.24 4.24 0.0 0 0 213.47 35.95
  Z"
/>
<path fill="#111c49" d="
  M 335.51 18.99
  C 343.05 18.97 351.92 18.40 358.59 20.09
  Q 374.01 24.00 381.91 39.25
  Q 374.53 54.57 376.54 72.10
  Q 376.60 72.60 376.17 72.87
  L 364.92 79.63
  Q 364.86 67.85 364.64 56.50
  Q 364.38 42.51 355.53 32.24
  Q 347.12 22.47 334.25 19.81
  Q 334.58 19.22 335.51 18.99
  Z"
/>
<rect fill="#c8d6ff" x="-7.42" y="-25.26" transform="translate(445.59,49.14) rotate(4.5)" width="14.84" height="50.52" rx="7.19"/>
<rect fill="#111c49" x="-31.36" y="-4.26" transform="translate(249.12,35.67) rotate(-0.6)" width="62.72" height="8.52" rx="4.18"/>
<circle fill="#111c49" cx="209.23" cy="35.95" r="4.24"/>
<rect fill="#c8d6ff" x="-7.41" y="-25.16" transform="translate(417.16,61.65) rotate(-6.4)" width="14.82" height="50.32" rx="7.19"/>
<path fill="#073ace" d="
  M 121.86 48.97
  Q 121.02 53.80 121.01 57.00
  Q 121.00 88.39 121.00 120.63
  Q 114.33 118.45 110.70 121.95
  C 104.53 127.91 109.50 138.32 118.32 136.42
  Q 119.62 136.14 121.00 135.97
  L 121.01 379.58
  Q 93.06 380.93 81.76 404.99
  Q 77.66 413.72 78.19 425.97
  Q 64.31 411.23 53.48 395.04
  Q 63.55 394.39 65.24 385.50
  C 66.42 379.32 62.26 373.66 56.17 372.39
  Q 48.11 370.71 43.33 378.96
  Q 37.78 368.71 34.09 360.93
  Q 22.89 337.30 17.05 310.55
  Q 36.53 342.43 70.56 355.57
  C 74.11 356.94 77.69 357.65 80.71 354.90
  C 85.08 350.92 84.14 343.62 78.48 341.64
  C 46.63 330.48 25.00 302.99 18.22 270.22
  C 8.44 222.99 30.14 170.92 77.64 154.02
  C 85.20 151.33 85.59 141.87 78.03 138.87
  C 75.70 137.94 73.16 138.75 70.91 139.61
  Q 43.64 150.00 25.24 172.83
  Q 40.59 129.58 70.46 94.63
  L 74.23 105.82
  A 0.54 0.54 0.0 0 0 74.91 106.16
  L 101.40 97.17
  A 0.54 0.54 0.0 0 0 101.74 96.49
  L 93.18 71.27
  Q 106.76 59.02 121.86 48.97
  Z
  M 66.83 293.68
  C 36.80 255.33 50.95 196.05 97.95 179.49
  Q 101.00 178.41 102.53 176.73
  C 106.54 172.33 104.37 165.46 98.64 163.88
  Q 96.03 163.16 91.86 164.75
  Q 66.22 174.49 51.28 196.02
  C 29.61 227.25 29.93 269.18 51.91 300.16
  Q 66.68 320.97 92.07 330.59
  C 95.74 331.98 99.38 332.46 102.26 329.49
  C 106.27 325.35 105.14 318.26 99.54 316.41
  Q 79.43 309.76 66.83 293.68
  Z"
/>
<path fill="#c8d6ff" d="
  M 163.55 55.11
  Q 163.81 60.75 159.98 64.75
  C 156.02 68.86 151.37 73.00 148.75 78.13
  C 146.67 82.19 144.88 84.27 140.25 83.83
  Q 133.65 82.16 134.60 74.26
  Q 136.23 60.63 146.27 52.85
  Q 150.77 49.37 154.80 49.18
  Q 160.66 48.90 163.55 55.11
  Z"
/>
<path fill="#c8d6ff" d="
  M 187.65 54.81
  Q 184.94 61.33 177.53 60.89
  Q 171.98 60.57 171.53 55.02
  Q 175.48 47.90 183.53 49.41
  Q 187.91 50.24 187.65 54.81
  Z"
/>
<path fill="#9fb7ff" d="
  M 304.88 54.77
  Q 223.09 112.00 141.53 168.81
  Q 141.22 169.03 140.91 169.05
  Q 140.60 169.07 140.23 169.04
  L 140.25 83.83
  C 144.88 84.27 146.67 82.19 148.75 78.13
  C 151.37 73.00 156.02 68.86 159.98 64.75
  Q 163.81 60.75 163.55 55.11
  Q 167.48 54.28 171.53 55.02
  Q 171.98 60.57 177.53 60.89
  Q 184.94 61.33 187.65 54.81
  L 304.88 54.77
  Z"
/>
<path fill="#c8d6ff" d="
  M 346.32 90.55
  L 323.17 104.15
  Q 321.03 105.41 323.46 104.86
  L 346.23 99.72
  L 346.18 172.56
  L 140.28 320.05
  L 140.23 169.04
  Q 140.60 169.07 140.91 169.05
  Q 141.22 169.03 141.53 168.81
  Q 223.09 112.00 304.88 54.77
  Q 318.41 54.72 332.29 54.62
  Q 338.65 54.58 340.66 55.54
  Q 343.80 57.03 345.26 60.38
  Q 346.19 62.52 346.21 66.42
  Q 346.26 78.24 346.32 90.55
  Z"
/>
<path fill="#c8d6ff" d="
  M 93.18 71.27
  L 101.74 96.49
  A 0.54 0.54 0.0 0 1 101.40 97.17
  L 74.91 106.16
  A 0.54 0.54 0.0 0 1 74.23 105.82
  L 70.46 94.63
  L 65.43 79.42
  Q 65.27 78.92 65.77 78.75
  L 92.01 69.86
  Q 92.49 69.70 92.70 70.16
  L 93.18 71.27
  Z"
/>
<circle fill="#c8d6ff" cx="442.79" cy="85.38" r="7.41"/>
<circle fill="#c8d6ff" cx="421.21" cy="97.86" r="7.41"/>
<path fill="#111c49" d="
  M 385.02 95.61
  Q 385.02 278.15 385.02 460.25
  Q 385.02 464.82 382.04 472.56
  Q 380.77 474.64 379.20 477.00
  Q 370.91 489.43 356.92 492.26
  Q 353.86 492.88 345.55 492.91
  Q 339.75 492.93 334.13 493.42
  L 332.51 492.44
  C 347.65 490.24 360.10 478.70 363.65 464.16
  Q 364.89 459.08 364.90 444.24
  Q 364.92 269.85 364.86 95.48
  L 382.23 91.68
  Q 382.73 91.57 382.99 92.02
  L 385.02 95.61
  Z"
/>
<path fill="#073ace" d="
  M 385.02 95.61
  Q 398.09 114.79 419.20 120.11
  Q 442.08 125.87 463.01 113.65
  Q 463.16 113.57 463.54 113.68
  Q 464.43 114.67 465.20 115.79
  Q 489.95 152.09 500.80 194.86
  Q 495.79 185.28 491.03 178.24
  Q 472.46 150.78 441.14 138.28
  C 437.06 136.65 433.16 135.78 429.77 139.03
  C 426.69 141.97 426.43 146.83 429.27 150.00
  Q 430.80 151.72 433.88 152.82
  C 465.05 163.97 486.30 191.71 493.27 223.68
  C 503.76 271.80 481.59 325.95 432.66 342.94
  C 425.12 345.55 425.55 356.02 433.04 358.20
  Q 435.90 359.03 440.38 357.30
  C 467.68 346.72 489.52 325.67 501.19 298.96
  Q 503.49 293.67 506.91 284.04
  Q 497.26 363.57 444.03 423.00
  Q 442.11 425.14 439.87 427.30
  L 417.77 421.51
  A 0.31 0.31 0.0 0 0 417.40 421.89
  L 423.30 443.31
  Q 404.28 459.98 382.04 472.56
  Q 385.02 464.82 385.02 460.25
  Q 385.02 278.15 385.02 95.61
  Z
  M 467.41 287.05
  C 483.63 252.67 477.17 211.38 450.54 183.93
  Q 437.09 170.07 417.31 162.99
  C 405.90 158.91 401.03 174.36 411.13 177.83
  Q 436.72 186.61 450.12 209.71
  C 461.85 229.94 463.20 255.09 454.69 276.12
  Q 442.50 306.22 411.41 317.38
  C 407.19 318.90 404.77 322.54 405.95 327.09
  C 407.49 332.99 413.18 333.98 418.45 331.96
  Q 452.36 318.93 467.41 287.05
  Z
  M 426.68 385.45
  A 8.44 8.44 0.0 0 0 418.24 377.01
  A 8.44 8.44 0.0 0 0 409.80 385.45
  A 8.44 8.44 0.0 0 0 418.24 393.89
  A 8.44 8.44 0.0 0 0 426.68 385.45
  Z"
/>
<path fill="#23347c" d="
  M 121.00 120.63
  L 121.00 135.97
  Q 119.62 136.14 118.32 136.42
  C 109.50 138.32 104.53 127.91 110.70 121.95
  Q 114.33 118.45 121.00 120.63
  Z"
/>
<path fill="#111c49" d="
  M 500.80 194.86
  Q 504.55 204.39 505.93 208.75
  Q 511.09 225.12 512.00 242.37
  L 512.00 253.04
  Q 510.99 268.78 506.91 284.04
  Q 503.49 293.67 501.19 298.96
  C 489.52 325.67 467.68 346.72 440.38 357.30
  Q 435.90 359.03 433.04 358.20
  C 425.55 356.02 425.12 345.55 432.66 342.94
  C 481.59 325.95 503.76 271.80 493.27 223.68
  C 486.30 191.71 465.05 163.97 433.88 152.82
  Q 430.80 151.72 429.27 150.00
  C 426.43 146.83 426.69 141.97 429.77 139.03
  C 433.16 135.78 437.06 136.65 441.14 138.28
  Q 472.46 150.78 491.03 178.24
  Q 495.79 185.28 500.80 194.86
  Z"
/>
<path fill="#111c49" d="
  M 17.05 310.55
  Q 1.63 284.25 0.00 252.95
  L 0.00 242.20
  Q 2.06 203.12 25.24 172.83
  Q 43.64 150.00 70.91 139.61
  C 73.16 138.75 75.70 137.94 78.03 138.87
  C 85.59 141.87 85.20 151.33 77.64 154.02
  C 30.14 170.92 8.44 222.99 18.22 270.22
  C 25.00 302.99 46.63 330.48 78.48 341.64
  C 84.14 343.62 85.08 350.92 80.71 354.90
  C 77.69 357.65 74.11 356.94 70.56 355.57
  Q 36.53 342.43 17.05 310.55
  Z"
/>
<path fill="#111c49" d="
  M 467.41 287.05
  Q 452.36 318.93 418.45 331.96
  C 413.18 333.98 407.49 332.99 405.95 327.09
  C 404.77 322.54 407.19 318.90 411.41 317.38
  Q 442.50 306.22 454.69 276.12
  C 463.20 255.09 461.85 229.94 450.12 209.71
  Q 436.72 186.61 411.13 177.83
  C 401.03 174.36 405.90 158.91 417.31 162.99
  Q 437.09 170.07 450.54 183.93
  C 477.17 211.38 483.63 252.67 467.41 287.05
  Z"
/>
<path fill="#111c49" d="
  M 97.95 179.49
  C 50.95 196.05 36.80 255.33 66.83 293.68
  Q 79.43 309.76 99.54 316.41
  C 105.14 318.26 106.27 325.35 102.26 329.49
  C 99.38 332.46 95.74 331.98 92.07 330.59
  Q 66.68 320.97 51.91 300.16
  C 29.93 269.18 29.61 227.25 51.28 196.02
  Q 66.22 174.49 91.86 164.75
  Q 96.03 163.16 98.64 163.88
  C 104.37 165.46 106.54 172.33 102.53 176.73
  Q 101.00 178.41 97.95 179.49
  Z"
/>
<path fill="#9fb7ff" d="
  M 346.18 172.56
  L 346.12 231.75
  L 140.17 366.45
  L 140.28 320.05
  L 346.18 172.56
  Z"
/>
<path fill="#c8d6ff" d="
  M 346.12 231.75
  L 346.00 260.27
  L 140.10 394.50
  L 140.17 366.45
  L 346.12 231.75
  Z"
/>
<path fill="#9fb7ff" d="
  M 346.00 260.27
  L 346.11 274.92
  L 140.22 408.24
  L 140.10 394.50
  L 346.00 260.27
  Z"
/>
<path fill="#c8d6ff" d="
  M 346.11 274.92
  L 346.05 319.25
  L 140.24 452.46
  L 140.22 408.24
  L 346.11 274.92
  Z"
/>
<path fill="#9fb7ff" d="
  M 346.05 319.25
  L 345.96 427.03
  C 338.52 427.43 338.12 433.78 335.00 437.75
  Q 332.02 441.54 324.42 448.94
  Q 319.98 453.26 319.53 459.64
  L 311.14 460.02
  Q 307.17 457.17 302.07 458.70
  Q 299.75 459.39 298.15 459.80
  Q 225.53 459.81 153.15 459.94
  Q 147.70 459.95 145.51 458.91
  Q 141.71 457.10 140.24 452.46
  L 346.05 319.25
  Z"
/>
<path fill="#c8d6ff" d="
  M 53.48 395.04
  Q 40.13 392.27 43.33 378.96
  Q 48.11 370.71 56.17 372.39
  C 62.26 373.66 66.42 379.32 65.24 385.50
  Q 63.55 394.39 53.48 395.04
  Z"
/>
<circle fill="#c8d6ff" cx="418.24" cy="385.45" r="8.44"/>
<path fill="#23347c" d="
  M 121.01 379.58
  L 121.00 391.92
  Q 111.93 391.47 104.67 396.14
  C 91.43 404.66 86.37 420.79 93.02 435.21
  Q 98.36 446.81 111.76 451.47
  Q 114.56 452.45 121.00 452.92
  Q 120.94 458.78 122.29 464.58
  C 101.68 465.31 82.79 450.90 79.06 430.67
  Q 78.60 428.14 78.19 425.97
  Q 77.66 413.72 81.76 404.99
  Q 93.06 380.93 121.01 379.58
  Z"
/>
<path fill="#073ace" d="
  M 121.00 391.92
  L 121.00 452.92
  Q 114.56 452.45 111.76 451.47
  Q 98.36 446.81 93.02 435.21
  C 86.37 420.79 91.43 404.66 104.67 396.14
  Q 111.93 391.47 121.00 391.92
  Z"
/>
<path fill="#9fb7ff" d="
  M 439.87 427.30
  L 453.17 430.75
  Q 454.04 430.97 453.41 431.62
  L 427.79 457.55
  Q 427.36 457.99 427.19 457.39
  L 423.30 443.31
  L 417.40 421.89
  A 0.31 0.31 0.0 0 1 417.77 421.51
  L 439.87 427.30
  Z"
/>
<path fill="#c8d6ff" d="
  M 345.96 427.03
  Q 352.97 427.50 354.03 433.95
  Q 354.55 437.10 353.71 441.02
  Q 350.27 457.02 337.94 465.02
  C 335.13 466.84 331.42 468.15 328.04 467.61
  Q 321.74 466.59 319.53 459.64
  Q 319.98 453.26 324.42 448.94
  Q 332.02 441.54 335.00 437.75
  C 338.12 433.78 338.52 427.43 345.96 427.03
  Z"
/>
<path fill="#c8d6ff" d="
  M 311.14 460.02
  Q 315.19 464.87 309.93 468.95
  Q 304.44 473.21 298.38 471.40
  Q 292.83 469.74 294.79 463.80
  Q 295.28 462.34 298.15 459.80
  Q 299.75 459.39 302.07 458.70
  Q 307.17 457.17 311.14 460.02
  Z"
/>
<path fill="#073ace" d="
  M 332.51 492.44
  L 334.13 493.42
  Q 264.35 514.78 193.50 495.82
  Q 188.85 494.58 185.84 493.30
  Q 189.26 493.00 190.50 493.00
  Q 257.82 493.00 325.15 493.00
  C 327.60 493.00 330.06 492.67 332.51 492.44
  Z"
/>
</svg>
