<?xml version="1.0" encoding="UTF-8" standalone="no"?>
<!DOCTYPE svg PUBLIC "-//W3C//DTD SVG 1.1//EN" "http://www.w3.org/Graphics/SVG/1.1/DTD/svg11.dtd">
<svg xmlns="http://www.w3.org/2000/svg" version="1.1" viewBox="0.00 0.00 512.00 512.00">
<g stroke-width="2.00" fill="none" stroke-linecap="butt">
<path stroke="#cfdbff" vector-effect="non-scaling-stroke" d="
  M 230.78 18.80
  C 171.31 24.18 117.01 52.76 78.88 98.65
  Q 78.76 98.79 78.66 99.24"
/>
<path stroke="#839de7" vector-effect="non-scaling-stroke" d="
  M 78.66 99.24
  Q 77.95 99.75 77.75 99.99
  C 37.08 149.96 20.42 214.10 30.87 277.72"
/>
<path stroke="#888ea4" vector-effect="non-scaling-stroke" d="
  M 30.87 277.72
  Q 41.15 336.97 79.52 383.01
  Q 110.95 420.73 155.38 441.76
  Q 159.23 443.58 163.10 445.50"
/>
<path stroke="#cfdbff" vector-effect="non-scaling-stroke" d="
  M 163.10 445.50
  Q 163.73 445.84 163.87 446.27
  Q 171.47 468.41 179.04 490.56
  Q 179.21 491.05 179.66 491.28
  Q 181.29 492.10 182.99 491.28"
/>
<path stroke="#888ea4" vector-effect="non-scaling-stroke" d="
  M 182.99 491.28
  Q 183.00 492.00 183.94 492.05"
/>
<path stroke="#cfdbff" vector-effect="non-scaling-stroke" d="
  M 183.94 492.05
  Q 186.16 492.76 187.95 492.47"
/>
<path stroke="#888ea4" vector-effect="non-scaling-stroke" d="
  M 187.95 492.47
  Q 188.27 493.18 189.03 492.90"
/>
<path stroke="#cfdbff" vector-effect="non-scaling-stroke" d="
  M 189.03 492.90
  Q 191.31 493.75 192.80 493.01"
/>
<path stroke="#888ea4" vector-effect="non-scaling-stroke" d="
  M 192.80 493.01
  Q 192.99 494.10 194.05 493.94"
/>
<path stroke="#cfdbff" vector-effect="non-scaling-stroke" d="
  M 194.05 493.94
  Q 196.40 494.59 198.16 493.97"
/>
<path stroke="#888ea4" vector-effect="non-scaling-stroke" d="
  M 198.16 493.97
  Q 197.85 494.94 199.07 494.68"
/>
<path stroke="#cfdbff" vector-effect="non-scaling-stroke" d="
  M 199.07 494.68
  L 204.00 495.46"
/>
<path stroke="#888ea4" vector-effect="non-scaling-stroke" d="
  M 204.00 495.46
  Q 204.28 495.81 204.95 495.91"
/>
<path stroke="#cfdbff" vector-effect="non-scaling-stroke" d="
  M 204.95 495.91
  L 207.93 496.19"
/>
<path stroke="#839de7" vector-effect="non-scaling-stroke" d="
  M 207.93 496.19
  L 208.53 496.57"
/>
<path stroke="#cfdbff" vector-effect="non-scaling-stroke" d="
  M 208.53 496.57
  Q 210.03 496.86 210.96 496.59"
/>
<path stroke="#fbf5fa" vector-effect="non-scaling-stroke" d="
  M 210.96 496.59
  Q 213.09 496.57 215.02 496.13
  Q 323.49 471.34 431.99 446.60
  Q 432.49 446.49 432.49 445.97
  L 432.49 443.17"
/>
<path stroke="#839de7" vector-effect="non-scaling-stroke" d="
  M 432.49 443.17
  L 435.04 444.29"
/>
<path stroke="#cfdbff" vector-effect="non-scaling-stroke" d="
  M 435.04 444.29
  Q 435.14 444.83 436.02 444.92
  Q 436.54 444.98 436.77 444.50
  L 440.38 437.07"
/>
<path stroke="#a591b6" vector-effect="non-scaling-stroke" d="
  M 440.38 437.07
  L 447.07 422.89"
/>
<path stroke="#cfdbff" vector-effect="non-scaling-stroke" d="
  M 447.07 422.89
  L 450.97 414.73"
/>
<path stroke="#839de7" vector-effect="non-scaling-stroke" d="
  M 450.97 414.73
  Q 450.59 413.99 450.39 413.89
  Q 432.98 405.58 415.61 397.34"
/>
<path stroke="#fbf5fa" vector-effect="non-scaling-stroke" d="
  M 415.61 397.34
  Q 415.81 394.44 414.29 391.33"
/>
<path stroke="#888ea4" vector-effect="non-scaling-stroke" d="
  M 414.29 391.33
  Q 445.50 357.05 460.45 314.66"
/>
<path stroke="#839de7" vector-effect="non-scaling-stroke" d="
  M 460.45 314.66
  Q 480.54 256.53 468.70 196.50"
/>
<path stroke="#ffd697" vector-effect="non-scaling-stroke" d="
  M 468.70 196.50
  C 511.89 131.82 478.89 45.25 403.25 26.54
  Q 367.32 17.65 332.10 33.36"
/>
<path stroke="#839de7" vector-effect="non-scaling-stroke" d="
  M 332.10 33.36
  Q 283.11 14.28 230.78 18.80"
/>
<path stroke="#83747f" vector-effect="non-scaling-stroke" d="
  M 332.10 33.36
  L 318.03 41.06"
/>
<path stroke="#7f93e1" vector-effect="non-scaling-stroke" d="
  M 318.03 41.06
  L 316.15 33.51
  Q 315.31 30.11 314.38 33.49
  Q 313.19 37.84 312.09 43.00
  A 1.51 1.51 0.0 0 1 310.98 44.16
  L 300.96 46.73
  Q 298.12 47.45 300.88 48.45
  L 305.68 50.18"
/>
<path stroke="#83747f" vector-effect="non-scaling-stroke" d="
  M 305.68 50.18
  C 279.63 72.61 265.74 104.72 267.06 139.07"
/>
<path stroke="#5379e7" vector-effect="non-scaling-stroke" d="
  M 267.06 139.07
  C 258.30 132.26 246.55 135.39 242.24 145.28
  A 0.42 0.41 2.9 0 0 242.75 145.84
  C 245.23 145.05 245.16 144.73 246.64 142.78
  C 251.06 136.96 261.31 136.12 266.34 141.94"
/>
<path stroke="#7f93e1" vector-effect="non-scaling-stroke" d="
  M 266.34 141.94
  L 230.21 148.47"
/>
<path stroke="#5379e7" vector-effect="non-scaling-stroke" d="
  M 230.21 148.47
  Q 229.17 148.51 228.72 148.01
  Q 224.39 143.12 218.78 142.36
  Q 206.17 140.66 200.20 152.87
  A 0.06 0.06 0.0 0 0 200.25 152.96
  Q 201.18 153.12 202.89 152.71
  A 0.75 0.75 0.0 0 0 203.33 152.40
  Q 209.97 141.79 221.76 145.95
  Q 224.12 146.78 225.93 149.25"
/>
<path stroke="#7f93e1" vector-effect="non-scaling-stroke" d="
  M 225.93 149.25
  L 186.51 156.35"
/>
<path stroke="#5379e7" vector-effect="non-scaling-stroke" d="
  M 186.51 156.35
  Q 183.85 153.85 183.00 153.27
  Q 176.66 148.94 169.49 150.44
  Q 159.90 152.44 156.94 161.65"
/>
<path stroke="#7f93e1" vector-effect="non-scaling-stroke" d="
  M 156.94 161.65
  L 139.96 164.76"
/>
<path stroke="#5379e7" vector-effect="non-scaling-stroke" d="
  M 139.96 164.76
  Q 139.54 165.00 139.27 164.71
  C 132.28 157.02 121.52 156.34 113.92 163.39
  Q 113.78 163.52 113.59 163.58
  Q 113.40 163.63 113.22 163.65"
/>
<path stroke="#83747f" vector-effect="non-scaling-stroke" d="
  M 113.22 163.65
  Q 100.73 151.60 84.26 148.29
  C 70.69 145.56 56.00 150.57 49.79 163.95
  Q 44.44 175.46 50.23 184.92
  C 56.86 195.76 69.06 200.00 65.38 215.58
  Q 64.33 220.03 63.12 224.51
  C 56.45 249.11 79.29 262.95 100.58 262.09"
/>
<path stroke="#5379e7" vector-effect="non-scaling-stroke" d="
  M 100.58 262.09
  L 118.67 315.18"
/>
<path stroke="#0c2b8c" vector-effect="non-scaling-stroke" d="
  M 118.67 315.18
  Q 112.78 309.92 107.31 304.97
  Q 99.82 298.21 95.59 295.21
  Q 70.96 277.78 39.24 277.30
  Q 33.74 277.22 30.87 277.72"
/>
<path stroke="#5379e7" vector-effect="non-scaling-stroke" d="
  M 78.66 99.24
  Q 78.65 99.77 79.16 100.33
  Q 88.28 110.25 100.34 117.42"
/>
<path stroke="#7f93e1" vector-effect="non-scaling-stroke" d="
  M 100.34 117.42
  Q 98.60 117.90 98.21 118.34
  A 0.49 0.48 -60.4 0 0 98.42 119.13
  L 109.10 122.41
  Q 109.70 122.59 109.89 123.19
  L 113.16 133.63
  A 0.58 0.58 0.0 0 0 114.27 133.65
  L 117.25 124.89"
/>
<path stroke="#5379e7" vector-effect="non-scaling-stroke" d="
  M 117.25 124.89
  Q 148.71 134.70 178.50 122.55
  Q 199.76 113.87 214.14 95.75"
/>
<path stroke="#7f93e1" vector-effect="non-scaling-stroke" d="
  M 214.14 95.75
  Q 222.17 96.40 219.06 88.79"
/>
<path stroke="#5379e7" vector-effect="non-scaling-stroke" d="
  M 219.06 88.79
  Q 221.75 85.07 224.10 80.32
  Q 237.27 53.67 232.14 24.16
  Q 231.66 21.46 230.78 18.80"
/>
<path stroke="#cfb297" vector-effect="non-scaling-stroke" d="
  M 113.22 163.65
  Q 113.26 164.10 112.93 164.46
  Q 110.64 166.93 109.89 169.78"
/>
<path stroke="#cfb297" vector-effect="non-scaling-stroke" d="
  M 102.08 172.28
  Q 99.91 173.43 99.49 174.44"
/>
<path stroke="#88653c" vector-effect="non-scaling-stroke" d="
  M 99.49 174.44
  Q 99.10 174.82 99.19 174.61"
/>
<path stroke="#cfb297" vector-effect="non-scaling-stroke" d="
  M 99.19 174.61
  Q 96.49 175.88 94.49 177.98
  Q 94.15 178.34 93.68 178.48
  Q 92.47 178.85 91.75 179.99"
/>
<path stroke="#88653c" vector-effect="non-scaling-stroke" d="
  M 91.75 179.99
  Q 90.81 180.26 91.02 180.63"
/>
<path stroke="#cfb297" vector-effect="non-scaling-stroke" d="
  M 91.02 180.63
  Q 89.63 180.49 88.75 182.07"
/>
<path stroke="#88653c" vector-effect="non-scaling-stroke" d="
  M 88.75 182.07
  Q 88.31 182.17 87.90 182.71"
/>
<path stroke="#cfb297" vector-effect="non-scaling-stroke" d="
  M 87.90 182.71
  Q 86.08 183.36 84.87 184.95"
/>
<path stroke="#88653c" vector-effect="non-scaling-stroke" d="
  M 84.87 184.95
  Q 84.01 185.20 83.97 185.60"
/>
<path stroke="#cfb297" vector-effect="non-scaling-stroke" d="
  M 83.97 185.60
  Q 81.93 186.28 80.86 187.90"
/>
<path stroke="#88653c" vector-effect="non-scaling-stroke" d="
  M 80.86 187.90
  Q 80.42 187.98 80.24 188.30"
/>
<path stroke="#cfb297" vector-effect="non-scaling-stroke" d="
  M 80.24 188.30
  Q 78.07 189.17 76.65 190.83
  Q 76.32 191.21 76.49 191.68
  L 100.58 262.09"
/>
<path stroke="#84849f" vector-effect="non-scaling-stroke" d="
  M 138.35 372.27
  Q 138.43 376.19 136.88 380.25
  Q 136.69 380.75 136.17 380.89
  Q 130.53 382.40 125.25 383.74
  Q 124.75 383.87 124.69 384.37
  A 0.71 0.70 -78.3 0 0 125.18 385.13
  L 135.67 388.30
  A 1.01 0.98 89.2 0 1 136.33 388.96
  L 139.66 399.53
  A 0.54 0.53 -23.7 0 0 140.44 399.83
  Q 141.08 399.46 141.31 398.52
  Q 142.35 394.37 144.22 389.64"
/>
<path stroke="#586aa4" vector-effect="non-scaling-stroke" d="
  M 144.22 389.64
  L 163.10 445.50"
/>
<path stroke="#5379e7" vector-effect="non-scaling-stroke" d="
  M 182.99 156.97
  Q 178.28 152.47 172.34 152.83
  Q 163.84 153.34 159.63 161.23"
/>
<path stroke="#cbd1fa" vector-effect="non-scaling-stroke" d="
  M 230.21 148.47
  Q 229.55 149.16 229.79 149.52
  Q 232.69 153.79 232.51 159.00
  Q 232.49 159.50 232.97 159.69
  Q 239.54 162.31 240.23 168.65
  C 241.43 179.68 227.46 184.80 220.90 175.72
  Q 218.69 172.66 219.24 168.85
  Q 220.48 160.32 229.38 159.18
  Q 229.90 159.11 229.90 158.59
  Q 229.88 152.97 225.93 149.25"
/>
<path stroke="#83747f" vector-effect="non-scaling-stroke" d="
  M 468.70 196.50
  Q 460.51 208.50 450.67 216.50"
/>
<path stroke="#ffc064" vector-effect="non-scaling-stroke" d="
  M 450.67 216.50
  Q 414.21 232.46 375.31 239.09"
/>
<path stroke="#fbcc92" vector-effect="non-scaling-stroke" d="
  M 375.31 239.09
  Q 382.54 223.33 392.07 209.81
  Q 401.89 195.88 412.54 180.84
  Q 416.30 175.53 418.45 170.75
  C 424.11 158.17 422.35 141.95 407.57 136.81
  C 396.52 132.96 384.80 138.15 376.74 145.66
  Q 376.18 146.18 375.91 145.47
  C 369.14 127.61 348.81 122.45 336.56 138.55
  Q 330.46 146.56 329.09 157.88
  Q 327.11 174.18 329.77 191.23
  C 332.50 208.72 336.19 225.83 335.63 243.30"
/>
<path stroke="#ffc064" vector-effect="non-scaling-stroke" d="
  M 335.63 243.30
  L 326.05 243.50"
/>
<path stroke="#fbcc92" vector-effect="non-scaling-stroke" d="
  M 326.05 243.50
  Q 324.34 235.85 319.56 229.99
  Q 317.74 227.75 309.94 221.58
  Q 284.59 201.54 273.39 171.24"
/>
<path stroke="#cfb297" vector-effect="non-scaling-stroke" d="
  M 273.39 171.24
  Q 269.99 161.47 268.38 151.75"
/>
<path stroke="#fbcc92" vector-effect="non-scaling-stroke" d="
  M 268.38 151.75
  L 267.19 141.98"
/>
<path stroke="#cfb297" vector-effect="non-scaling-stroke" d="
  M 267.19 141.98
  L 267.06 139.07"
/>
<path stroke="#fbcc92" vector-effect="non-scaling-stroke" d="
  M 305.68 50.18
  L 310.74 51.64
  A 0.94 0.94 0.0 0 1 311.09 53.25
  C 295.59 66.60 283.46 82.34 278.39 102.21
  Q 277.72 104.81 279.14 102.53
  Q 293.31 79.63 311.92 55.46
  A 0.26 0.25 -34.5 0 1 312.37 55.54
  L 314.29 61.75
  Q 315.23 64.79 316.18 61.75
  L 319.14 52.22
  Q 319.32 51.63 319.92 51.45
  Q 325.07 49.89 330.05 48.11
  Q 330.63 47.91 330.95 47.39
  A 0.42 0.42 0.0 0 0 330.72 46.76
  Q 325.64 45.18 319.85 43.85
  C 318.53 43.55 317.97 42.34 318.03 41.06"
/>
<path stroke="#cbd1fa" vector-effect="non-scaling-stroke" d="
  M 219.06 88.79
  Q 209.25 87.26 214.14 95.75"
/>
<path stroke="#cbd1fa" vector-effect="non-scaling-stroke" d="
  M 117.25 124.89
  C 117.38 123.74 117.82 122.58 119.01 122.22
  Q 123.91 120.71 128.82 118.94
  Q 129.28 118.77 129.53 118.36
  A 0.49 0.49 0.0 0 0 129.24 117.63
  L 117.78 114.56
  A 1.06 1.06 0.0 0 1 117.02 113.79
  L 114.48 103.50
  A 0.68 0.68 0.0 0 0 113.57 103.03
  Q 113.19 103.19 113.09 103.60
  Q 111.70 109.46 110.49 114.26
  Q 110.36 114.79 109.82 114.94
  L 100.34 117.42"
/>
<path stroke="#cbd1fa" vector-effect="non-scaling-stroke" d="
  M 267.19 141.98
  L 266.34 141.94"
/>
<path stroke="#cbd1fa" vector-effect="non-scaling-stroke" d="
  M 268.38 151.75
  Q 260.50 153.83 259.97 161.74
  Q 259.76 164.83 261.53 167.24
  Q 266.07 173.43 273.39 171.24"
/>
<path stroke="#fbdfc7" vector-effect="non-scaling-stroke" d="
  M 326.05 243.50
  L 326.55 254.40"
/>
<path stroke="#cbd1fa" vector-effect="non-scaling-stroke" d="
  M 326.55 254.40
  L 323.96 265.35"
/>
<path stroke="#7f93e1" vector-effect="non-scaling-stroke" d="
  M 323.96 265.35
  Q 323.19 266.24 323.65 266.78"
/>
<path stroke="#cbd1fa" vector-effect="non-scaling-stroke" d="
  M 323.65 266.78
  L 321.91 272.97"
/>
<path stroke="#7f93e1" vector-effect="non-scaling-stroke" d="
  M 321.91 272.97
  Q 321.36 273.08 321.56 274.10"
/>
<path stroke="#cbd1fa" vector-effect="non-scaling-stroke" d="
  M 321.56 274.10
  L 319.73 280.53
  A 0.83 0.83 0.0 0 0 319.95 281.36
  C 333.24 293.86 351.66 296.70 369.38 292.34
  A 0.79 0.76 88.4 0 0 369.95 291.72
  L 371.21 284.70"
/>
<path stroke="#7f93e1" vector-effect="non-scaling-stroke" d="
  M 371.21 284.70
  Q 371.73 283.98 371.39 283.10"
/>
<path stroke="#cbd1fa" vector-effect="non-scaling-stroke" d="
  M 371.39 283.10
  Q 372.47 280.07 372.48 277.00"
/>
<path stroke="#7f93e1" vector-effect="non-scaling-stroke" d="
  M 372.48 277.00
  Q 373.32 276.39 372.81 275.54"
/>
<path stroke="#cbd1fa" vector-effect="non-scaling-stroke" d="
  M 372.81 275.54
  L 373.87 272.07"
/>
<path stroke="#7f93e1" vector-effect="non-scaling-stroke" d="
  M 373.87 272.07
  L 379.05 287.22"
/>
<path stroke="#84849f" vector-effect="non-scaling-stroke" d="
  M 379.05 287.22
  L 414.29 391.33"
/>
<path stroke="#7f93e1" vector-effect="non-scaling-stroke" d="
  M 415.61 397.34
  L 244.51 316.25"
/>
<path stroke="#84849f" vector-effect="non-scaling-stroke" d="
  M 244.51 316.25
  C 251.65 308.33 253.86 299.93 253.92 289.64
  Q 253.93 289.02 254.45 289.35
  Q 262.15 294.14 267.67 299.63
  Q 276.48 308.38 285.34 317.51
  Q 295.60 328.08 306.30 332.95
  C 328.35 342.98 354.43 331.74 350.34 304.29
  A 1.35 1.34 0.0 0 0 349.19 303.15
  Q 348.99 303.13 348.80 303.17
  Q 347.42 303.49 347.64 304.89
  C 350.22 320.88 340.33 332.93 324.44 333.74
  C 304.11 334.78 288.81 317.78 276.08 304.11
  Q 264.88 292.06 254.15 285.99
  Q 253.67 285.72 253.60 285.18
  C 250.41 260.76 236.63 240.32 209.12 244.39
  C 183.47 248.19 170.41 274.77 170.24 298.28"
/>
<path stroke="#a287b0" vector-effect="non-scaling-stroke" d="
  M 170.24 298.28
  Q 169.79 298.55 168.08 298.62
  Q 167.59 298.64 167.94 298.99
  L 178.80 309.62"
/>
<path stroke="#cbd1fa" vector-effect="non-scaling-stroke" d="
  M 178.80 309.62
  L 204.91 335.29"
/>
<path stroke="#7f93e1" vector-effect="non-scaling-stroke" d="
  M 204.91 335.29
  L 432.49 443.17"
/>
<path stroke="#cbd1fa" vector-effect="non-scaling-stroke" d="
  M 210.96 496.59
  Q 204.03 477.96 201.42 469.23
  Q 200.92 467.57 200.54 466.88
  A 3.15 3.09 26.0 0 1 200.21 465.95
  Q 199.83 463.81 199.00 461.88
  Q 198.10 459.80 197.59 457.69
  Q 197.15 455.87 196.37 454.45
  Q 195.60 453.08 195.16 451.58
  Q 194.68 449.99 193.90 448.39
  Q 193.82 448.24 193.93 448.12
  Q 194.15 447.86 194.03 447.54
  Q 193.15 445.22 192.42 443.04
  Q 192.37 442.90 192.26 442.98
  Q 192.16 443.06 192.01 442.98
  Q 191.82 442.89 191.92 442.71
  Q 192.29 441.95 191.87 441.42
  Q 191.68 441.18 191.58 440.89
  Q 188.94 432.59 186.11 425.01
  C 185.81 424.20 185.98 423.48 185.70 422.68
  Q 184.99 420.66 184.15 418.22
  Q 182.89 414.57 181.67 410.91
  L 102.08 172.28"
/>
<path stroke="#fbcc92" vector-effect="non-scaling-stroke" d="
  M 102.08 172.28
  Q 104.93 170.76 109.79 170.18
  Q 109.99 170.16 110.06 169.97
  Q 110.17 169.66 109.89 169.78"
/>
<path stroke="#cbd1fa" vector-effect="non-scaling-stroke" d="
  M 109.89 169.78
  Q 111.25 170.25 112.36 169.63"
/>
<path stroke="#fbcc92" vector-effect="non-scaling-stroke" d="
  M 112.36 169.63
  L 117.88 168.70"
/>
<path stroke="#7f93e1" vector-effect="non-scaling-stroke" d="
  M 117.88 168.70
  L 136.09 165.48"
/>
<path stroke="#cbd1fa" vector-effect="non-scaling-stroke" d="
  M 136.09 165.48
  Q 140.47 169.80 140.46 175.76
  Q 140.46 176.37 139.85 176.41
  C 133.41 176.81 128.98 181.94 129.31 188.36
  C 129.66 195.38 136.97 199.78 143.49 197.94
  C 147.77 196.73 151.17 192.58 151.31 188.15
  Q 151.56 180.06 143.73 176.89
  Q 143.24 176.69 143.25 176.16
  Q 143.35 170.16 139.78 165.51
  Q 139.57 165.24 139.78 164.99
  L 139.96 164.76"
/>
<path stroke="#cbd1fa" vector-effect="non-scaling-stroke" d="
  M 156.94 161.65
  Q 158.58 162.11 159.63 161.23"
/>
<path stroke="#7f93e1" vector-effect="non-scaling-stroke" d="
  M 159.63 161.23
  L 182.99 156.97"
/>
<path stroke="#cbd1fa" vector-effect="non-scaling-stroke" d="
  M 182.99 156.97
  Q 187.47 161.12 187.44 167.40
  Q 187.43 167.91 186.93 167.94
  Q 180.43 168.40 177.54 174.05
  C 174.15 180.68 178.04 188.39 185.20 189.73
  C 198.59 192.25 203.82 173.43 190.80 168.50
  Q 190.35 168.33 190.34 167.85
  Q 190.23 161.54 186.51 156.35"
/>
<path stroke="#cbd1fa" vector-effect="non-scaling-stroke" d="
  M 141.57 368.72
  Q 140.85 368.76 140.34 368.98
  Q 139.87 369.19 139.55 369.88
  Q 139.01 371.03 138.35 372.27"
/>
<path stroke="#586aa4" vector-effect="non-scaling-stroke" d="
  M 138.35 372.27
  L 118.67 315.18"
/>
<path stroke="#5379e7" vector-effect="non-scaling-stroke" d="
  M 136.09 165.48
  Q 125.60 156.64 115.12 165.95"
/>
<path stroke="#cfb297" vector-effect="non-scaling-stroke" d="
  M 115.12 165.95
  L 112.36 169.63"
/>
<path stroke="#84849f" vector-effect="non-scaling-stroke" d="
  M 151.69 382.35
  Q 150.11 382.10 150.36 381.42"
/>
<path stroke="#586aa4" vector-effect="non-scaling-stroke" d="
  M 150.36 381.42
  L 83.97 185.60"
/>
<path stroke="#0c2b8c" vector-effect="non-scaling-stroke" d="
  M 149.29 321.00
  L 148.68 321.23"
/>
<path stroke="#586aa4" vector-effect="non-scaling-stroke" d="
  M 148.68 321.23
  L 99.19 174.61"
/>
<path stroke="#5379e7" vector-effect="non-scaling-stroke" d="
  M 208.53 496.57
  Q 208.73 496.63 208.80 496.54
  Q 208.88 496.45 208.84 496.34
  Q 198.53 465.24 188.13 434.22
  Q 185.18 425.41 181.65 415.31
  Q 165.23 368.24 149.29 321.00"
/>
<path stroke="#586aa4" vector-effect="non-scaling-stroke" d="
  M 149.29 321.00
  L 99.49 174.44"
/>
<path stroke="#586aa4" vector-effect="non-scaling-stroke" d="
  M 194.05 493.94
  L 88.75 182.07"
/>
<path stroke="#84849f" vector-effect="non-scaling-stroke" d="
  M 146.40 381.03
  Q 142.89 375.97 141.57 368.72"
/>
<path stroke="#586aa4" vector-effect="non-scaling-stroke" d="
  M 141.57 368.72
  Q 111.24 279.15 81.04 189.49
  Q 80.83 188.88 80.24 188.30"
/>
<path stroke="#cbd1fa" vector-effect="non-scaling-stroke" d="
  M 155.55 382.95
  L 151.69 382.35"
/>
<path stroke="#586aa4" vector-effect="non-scaling-stroke" d="
  M 151.69 382.35
  L 84.87 184.95"
/>
<path stroke="#cbd1fa" vector-effect="non-scaling-stroke" d="
  M 150.36 381.42
  Q 148.42 381.61 146.40 381.03"
/>
<path stroke="#586aa4" vector-effect="non-scaling-stroke" d="
  M 146.40 381.03
  L 80.86 187.90"
/>
<path stroke="#586aa4" vector-effect="non-scaling-stroke" d="
  M 198.16 493.97
  L 91.02 180.63"
/>
<path stroke="#5379e7" vector-effect="non-scaling-stroke" d="
  M 148.68 321.23
  L 207.93 496.19"
/>
<path stroke="#586aa4" vector-effect="non-scaling-stroke" d="
  M 204.95 495.91
  L 95.35 178.25
  Q 95.33 178.20 95.29 178.22
  L 95.00 178.32
  Q 94.78 178.39 94.86 178.61
  L 204.00 495.46"
/>
<path stroke="#586aa4" vector-effect="non-scaling-stroke" d="
  M 199.07 494.68
  L 91.75 179.99"
/>
<path stroke="#586aa4" vector-effect="non-scaling-stroke" d="
  M 192.80 493.01
  L 156.12 384.76"
/>
<path stroke="#84849f" vector-effect="non-scaling-stroke" d="
  M 156.12 384.76
  L 155.55 382.95"
/>
<path stroke="#586aa4" vector-effect="non-scaling-stroke" d="
  M 155.55 382.95
  L 87.90 182.71"
/>
<path stroke="#cbd1fa" vector-effect="non-scaling-stroke" d="
  M 156.12 384.76
  L 152.88 385.83"
/>
<path stroke="#84849f" vector-effect="non-scaling-stroke" d="
  M 152.88 385.83
  Q 152.15 385.78 151.96 386.26"
/>
<path stroke="#cbd1fa" vector-effect="non-scaling-stroke" d="
  M 151.96 386.26
  L 148.73 387.26"
/>
<path stroke="#84849f" vector-effect="non-scaling-stroke" d="
  M 148.73 387.26
  Q 147.95 387.32 147.78 387.67"
/>
<path stroke="#cbd1fa" vector-effect="non-scaling-stroke" d="
  M 147.78 387.67
  Q 144.18 388.01 144.22 389.64"
/>
<path stroke="#fbdfc7" vector-effect="non-scaling-stroke" d="
  M 375.31 239.09
  Q 371.55 247.64 369.21 257.66"
/>
<path stroke="#a287b0" vector-effect="non-scaling-stroke" d="
  M 369.21 257.66
  L 366.37 257.78"
/>
<path stroke="#fbdfc7" vector-effect="non-scaling-stroke" d="
  M 366.37 257.78
  C 367.73 251.43 369.43 246.60 371.91 239.79"
/>
<path stroke="#fbcc92" vector-effect="non-scaling-stroke" d="
  M 371.91 239.79
  Q 379.67 222.52 391.31 206.05
  Q 399.16 194.96 406.39 185.13
  Q 411.69 177.93 415.31 170.98
  C 421.04 159.96 420.38 144.01 406.67 139.38
  C 396.87 136.08 385.72 140.80 378.49 147.72
  Q 378.22 147.98 377.92 148.21
  Q 377.07 148.87 377.30 149.90
  Q 380.96 166.00 374.59 180.23
  C 373.32 183.06 368.76 188.31 365.44 185.36
  C 363.97 184.05 363.63 181.43 363.48 179.54
  Q 362.11 162.53 373.65 148.79
  Q 374.01 148.37 373.84 147.84
  Q 371.19 139.73 365.12 135.17
  C 355.18 127.69 343.01 132.91 337.13 142.48
  C 331.52 151.62 330.56 163.68 331.00 174.75
  C 331.64 190.47 335.17 206.70 337.20 221.00
  Q 338.67 231.33 338.44 243.07"
/>
<path stroke="#fbdfc7" vector-effect="non-scaling-stroke" d="
  M 338.44 243.07
  L 336.55 257.51"
/>
<path stroke="#a287b0" vector-effect="non-scaling-stroke" d="
  M 336.55 257.51
  L 333.90 256.98"
/>
<path stroke="#fbdfc7" vector-effect="non-scaling-stroke" d="
  M 333.90 256.98
  L 335.63 243.30"
/>
<path stroke="#a67b83" vector-effect="non-scaling-stroke" d="
  M 377.47 257.00
  L 369.21 257.66"
/>
<path stroke="#0c2b8c" vector-effect="non-scaling-stroke" d="
  M 460.45 314.66
  L 442.03 301.52"
/>
<path stroke="#83747f" vector-effect="non-scaling-stroke" d="
  M 442.03 301.52
  C 459.80 285.20 455.34 256.53 432.94 246.97
  Q 423.93 243.13 413.17 245.21
  A 0.67 0.67 0.0 0 0 412.64 246.01
  L 415.90 260.78
  A 0.53 0.53 0.0 0 0 416.57 261.18
  C 422.27 259.57 428.60 261.07 432.47 265.72
  C 440.95 275.86 436.24 290.68 423.22 293.22"
/>
<path stroke="#0c2b8c" vector-effect="non-scaling-stroke" d="
  M 423.22 293.22
  Q 401.98 285.90 379.05 287.22"
/>
<path stroke="#5379e7" vector-effect="non-scaling-stroke" d="
  M 373.87 272.07
  L 375.23 264.02"
/>
<path stroke="#2a2e9d" vector-effect="non-scaling-stroke" d="
  M 375.23 264.02
  Q 376.31 261.04 377.56 258.27
  Q 377.81 257.71 377.47 257.00"
/>
<path stroke="#8387b4" vector-effect="non-scaling-stroke" d="
  M 377.47 257.00
  Q 377.95 257.48 378.37 256.86
  Q 383.66 249.16 391.32 245.21
  Q 394.40 243.63 402.47 241.80
  Q 426.56 236.34 447.36 219.86
  Q 449.35 218.29 450.67 216.50"
/>
<path stroke="#a67b83" vector-effect="non-scaling-stroke" d="
  M 333.90 256.98
  Q 333.77 257.04 333.52 256.99"
/>
<path stroke="#cfc5cc" vector-effect="non-scaling-stroke" d="
  M 333.52 256.99
  L 326.55 254.40"
/>
<path stroke="#83747f" vector-effect="non-scaling-stroke" d="
  M 117.88 168.70
  Q 116.98 166.99 115.12 165.95"
/>
<path stroke="#5379e7" vector-effect="non-scaling-stroke" d="
  M 431.52 432.32
  Q 432.65 432.78 432.52 434.24
  Q 432.07 439.37 435.04 444.29"
/>
<path stroke="#5379e7" vector-effect="non-scaling-stroke" d="
  M 371.39 283.10
  Q 345.33 285.64 322.46 273.04
  Q 321.97 272.78 321.91 272.97"
/>
<path stroke="#766db6" vector-effect="non-scaling-stroke" d="
  M 184.52 300.37
  Q 184.50 307.11 178.80 309.62"
/>
<path stroke="#0c2b8c" vector-effect="non-scaling-stroke" d="
  M 244.51 316.25
  L 241.92 315.00"
/>
<path stroke="#84849f" vector-effect="non-scaling-stroke" d="
  M 241.92 315.00
  Q 252.48 303.58 250.95 288.06
  Q 250.90 287.55 250.44 287.34
  C 234.67 279.76 214.92 282.51 210.35 302.02"
/>
<path stroke="#586aa4" vector-effect="non-scaling-stroke" d="
  M 210.35 302.02
  Q 210.48 303.21 209.25 303.20
  Q 208.08 303.19 207.51 302.23"
/>
<path stroke="#84849f" vector-effect="non-scaling-stroke" d="
  M 207.51 302.23
  C 212.18 280.76 232.07 276.88 250.10 284.06
  Q 250.74 284.32 250.64 283.63
  C 247.79 265.27 238.30 248.06 218.25 246.60
  C 194.59 244.87 177.98 264.86 174.29 286.03
  Q 173.04 293.21 172.87 298.93"
/>
<path stroke="#2f1f5b" vector-effect="non-scaling-stroke" d="
  M 172.87 298.93
  Q 171.31 298.29 170.24 298.28"
/>
<path stroke="#5379e7" vector-effect="non-scaling-stroke" d="
  M 450.97 414.73
  Q 449.67 413.54 447.73 414.43
  Q 442.92 416.63 440.15 418.97"
/>
<path stroke="#7f93e1" vector-effect="non-scaling-stroke" d="
  M 440.15 418.97
  L 216.18 312.18"
/>
<path stroke="#5379e7" vector-effect="non-scaling-stroke" d="
  M 219.66 304.51
  L 216.18 312.18"
/>
<path stroke="#cbd1fa" vector-effect="non-scaling-stroke" d="
  M 216.18 312.18
  Q 216.22 313.03 215.87 313.54"
/>
<path stroke="#5379e7" vector-effect="non-scaling-stroke" d="
  M 215.87 313.54
  Q 215.72 313.52 215.57 313.56
  Q 215.39 313.61 215.31 313.78
  L 209.81 324.90"
/>
<path stroke="#cbd1fa" vector-effect="non-scaling-stroke" d="
  M 209.81 324.90
  Q 209.15 325.20 209.22 326.32"
/>
<path stroke="#5379e7" vector-effect="non-scaling-stroke" d="
  M 209.22 326.32
  L 204.91 335.29"
/>
<path stroke="#5379e7" vector-effect="non-scaling-stroke" d="
  M 371.21 284.70
  Q 344.58 286.81 321.56 274.10"
/>
<path stroke="#766db6" vector-effect="non-scaling-stroke" d="
  M 333.52 256.99
  Q 353.70 265.41 375.23 264.02"
/>
<path stroke="#5379e7" vector-effect="non-scaling-stroke" d="
  M 372.81 275.54
  Q 346.89 277.91 323.96 265.35"
/>
<path stroke="#5379e7" vector-effect="non-scaling-stroke" d="
  M 372.48 277.00
  Q 346.52 279.14 323.65 266.78"
/>
<path stroke="#586aa4" vector-effect="non-scaling-stroke" d="
  M 189.03 492.90
  L 152.88 385.83"
/>
<path stroke="#586aa4" vector-effect="non-scaling-stroke" d="
  M 183.94 492.05
  L 148.73 387.26"
/>
<path stroke="#586aa4" vector-effect="non-scaling-stroke" d="
  M 187.95 492.47
  L 151.96 386.26"
/>
<path stroke="#586aa4" vector-effect="non-scaling-stroke" d="
  M 182.99 491.28
  L 147.78 387.67"
/>
<path stroke="#a67b83" vector-effect="non-scaling-stroke" d="
  M 366.37 257.78
  Q 351.47 258.67 336.55 257.51"
/>
<path stroke="#ffc064" vector-effect="non-scaling-stroke" d="
  M 371.91 239.79
  L 338.44 243.07"
/>
<path stroke="#88653c" vector-effect="non-scaling-stroke" d="
  M 442.03 301.52
  Q 435.66 307.19 427.23 308.85
  Q 426.73 308.95 426.61 308.44
  L 423.22 293.22"
/>
<path stroke="#cbd1fa" vector-effect="non-scaling-stroke" d="
  M 432.50 431.29
  Q 432.25 431.67 432.17 432.08
  Q 432.10 432.40 431.78 432.38
  Q 431.66 432.38 431.52 432.32"
/>
<path stroke="#7f93e1" vector-effect="non-scaling-stroke" d="
  M 431.52 432.32
  L 209.22 326.32"
/>
<path stroke="#766db6" vector-effect="non-scaling-stroke" d="
  M 447.07 422.89
  Q 436.77 425.16 440.38 437.07"
/>
<path stroke="#cbd1fa" vector-effect="non-scaling-stroke" d="
  M 207.51 302.23
  Q 207.55 302.85 206.26 302.70
  Q 195.41 301.47 184.52 300.37"
/>
<path stroke="#a287b0" vector-effect="non-scaling-stroke" d="
  M 184.52 300.37
  L 172.87 298.93"
/>
<path stroke="#7f93e1" vector-effect="non-scaling-stroke" d="
  M 241.92 315.00
  L 219.66 304.51"
/>
<path stroke="#cbd1fa" vector-effect="non-scaling-stroke" d="
  M 219.66 304.51
  Q 215.77 303.66 211.50 303.26
  Q 210.19 303.14 210.35 302.02"
/>
<path stroke="#cbd1fa" vector-effect="non-scaling-stroke" d="
  M 440.15 418.97
  Q 439.86 419.69 438.98 419.92"
/>
<path stroke="#7f93e1" vector-effect="non-scaling-stroke" d="
  M 438.98 419.92
  L 215.87 313.54"
/>
<path stroke="#5379e7" vector-effect="non-scaling-stroke" d="
  M 438.98 419.92
  Q 434.60 424.83 432.50 431.29"
/>
<path stroke="#7f93e1" vector-effect="non-scaling-stroke" d="
  M 432.50 431.29
  L 209.81 324.90"
/>
<path stroke="#7f93e1" vector-effect="non-scaling-stroke" d="
  M 249.54 52.42
  A 3.79 3.79 0.0 0 0 245.75 48.63
  A 3.79 3.79 0.0 0 0 241.96 52.42
  A 3.79 3.79 0.0 0 0 245.75 56.21
  A 3.79 3.79 0.0 0 0 249.54 52.42"
/>
<path stroke="#7f93e1" vector-effect="non-scaling-stroke" d="
  M 236.44 75.66
  A 3.79 3.79 0.0 0 0 232.65 71.87
  A 3.79 3.79 0.0 0 0 228.86 75.66
  A 3.79 3.79 0.0 0 0 232.65 79.45
  A 3.79 3.79 0.0 0 0 236.44 75.66"
/>
<path stroke="#7f93e1" vector-effect="non-scaling-stroke" d="
  M 255.29 88.25
  A 3.79 3.79 0.0 0 0 251.50 84.46
  A 3.79 3.79 0.0 0 0 247.71 88.25
  A 3.79 3.79 0.0 0 0 251.50 92.04
  A 3.79 3.79 0.0 0 0 255.29 88.25"
/>
<path stroke="#cbd1fa" vector-effect="non-scaling-stroke" d="
  M 221.74 60.96
  A 3.79 3.79 0.0 0 0 217.95 57.17
  A 3.79 3.79 0.0 0 0 214.16 60.96
  A 3.79 3.79 0.0 0 0 217.95 64.75
  A 3.79 3.79 0.0 0 0 221.74 60.96"
/>
<path stroke="#cbd1fa" vector-effect="non-scaling-stroke" d="
  M 206.18 76.85
  A 3.79 3.79 0.0 0 0 202.39 73.06
  A 3.79 3.79 0.0 0 0 198.60 76.85
  A 3.79 3.79 0.0 0 0 202.39 80.64
  A 3.79 3.79 0.0 0 0 206.18 76.85"
/>
<path stroke="#fbcc92" vector-effect="non-scaling-stroke" d="
  M 453.77 72.67
  C 447.06 75.73 445.17 84.55 446.37 91.21
  C 448.29 101.91 454.04 114.44 464.30 119.13
  C 471.92 122.61 475.56 116.27 476.39 109.84
  C 477.71 99.56 473.52 88.31 467.88 79.82
  C 465.11 75.65 459.18 70.20 453.77 72.67"
/>
<path stroke="#fbcc92" vector-effect="non-scaling-stroke" d="
  M 467.6817 146.0588
  A 10.09 9.17 109.2 0 0 479.6599 139.5457
  A 10.09 9.17 109.2 0 0 474.3183 127.0012
  A 10.09 9.17 109.2 0 0 462.3401 133.5143
  A 10.09 9.17 109.2 0 0 467.6817 146.0588"
/>
<path stroke="#fbcc92" vector-effect="non-scaling-stroke" d="
  M 373.04 177.02
  Q 377.46 164.82 375.04 152.26
  A 0.35 0.35 0.0 0 0 374.42 152.12
  Q 364.06 165.75 366.60 182.27
  A 1.35 1.35 0.0 0 0 368.79 183.11
  Q 371.71 180.69 373.04 177.02"
/>
<path stroke="#84849f" vector-effect="non-scaling-stroke" d="
  M 105.32 315.08
  A 3.79 3.79 0.0 0 0 101.53 311.29
  A 3.79 3.79 0.0 0 0 97.74 315.08
  A 3.79 3.79 0.0 0 0 101.53 318.87
  A 3.79 3.79 0.0 0 0 105.32 315.08"
/>
<path stroke="#84849f" vector-effect="non-scaling-stroke" d="
  M 77.52 323.62
  A 3.79 3.79 0.0 0 0 73.73 319.83
  A 3.79 3.79 0.0 0 0 69.94 323.62
  A 3.79 3.79 0.0 0 0 73.73 327.41
  A 3.79 3.79 0.0 0 0 77.52 323.62"
/>
<path stroke="#84849f" vector-effect="non-scaling-stroke" d="
  M 92.21 338.35
  A 3.77 3.77 0.0 0 0 88.44 334.58
  A 3.77 3.77 0.0 0 0 84.67 338.35
  A 3.77 3.77 0.0 0 0 88.44 342.12
  A 3.77 3.77 0.0 0 0 92.21 338.35"
/>
<path stroke="#84849f" vector-effect="non-scaling-stroke" d="
  M 61.97 339.51
  A 3.79 3.79 0.0 0 0 58.18 335.72
  A 3.79 3.79 0.0 0 0 54.39 339.51
  A 3.79 3.79 0.0 0 0 58.18 343.30
  A 3.79 3.79 0.0 0 0 61.97 339.51"
/>
<path stroke="#84849f" vector-effect="non-scaling-stroke" d="
  M 111.07 350.93
  A 3.79 3.79 0.0 0 0 107.28 347.14
  A 3.79 3.79 0.0 0 0 103.49 350.93
  A 3.79 3.79 0.0 0 0 107.28 354.72
  A 3.79 3.79 0.0 0 0 111.07 350.93"
/>
<path stroke="#84849f" vector-effect="non-scaling-stroke" d="
  M 75.81 354.76
  A 3.77 3.77 0.0 0 0 72.04 350.99
  A 3.77 3.77 0.0 0 0 68.27 354.76
  A 3.77 3.77 0.0 0 0 72.04 358.53
  A 3.77 3.77 0.0 0 0 75.81 354.76"
/>
<path stroke="#84849f" vector-effect="non-scaling-stroke" d="
  M 428.05 335.84
  A 0.81 0.81 0.0 0 1 427.48 335.27
  L 424.49 324.65
  A 0.81 0.81 0.0 0 0 422.93 324.66
  L 420.06 335.31
  A 0.81 0.81 0.0 0 1 419.49 335.88
  L 408.87 338.87
  A 0.81 0.81 0.0 0 0 408.88 340.43
  L 419.53 343.30
  A 0.81 0.81 0.0 0 1 420.10 343.87
  L 423.09 354.49
  A 0.81 0.81 0.0 0 0 424.65 354.48
  L 427.52 343.83
  A 0.81 0.81 0.0 0 1 428.09 343.26
  L 438.71 340.27
  A 0.81 0.81 0.0 0 0 438.70 338.71
  L 428.05 335.84"
/>
</g>
<path fill="#feffff" d="
  M 243.63 0.00
  L 254.24 0.00
  Q 292.92 1.12 329.28 14.09
  Q 329.79 14.27 330.30 14.08
  Q 366.99 0.33 404.52 9.04
  C 453.18 20.34 491.37 59.67 500.34 109.28
  Q 508.85 156.30 484.36 198.36
  A 0.87 0.87 0.0 0 0 484.25 198.94
  C 495.70 266.18 478.12 334.08 435.89 387.77
  A 0.36 0.36 0.0 0 0 436.02 388.32
  Q 446.31 393.11 456.47 398.04
  C 464.74 402.05 467.91 411.86 463.91 420.24
  Q 457.13 434.45 450.31 449.07
  Q 448.74 452.44 446.97 454.55
  C 444.47 457.53 441.15 458.71 437.57 460.08
  Q 435.73 460.79 433.86 461.21
  Q 322.38 486.68 210.89 512.00
  L 207.76 512.00
  Q 193.16 509.32 178.55 506.76
  Q 171.26 505.47 168.36 503.57
  Q 163.67 500.49 161.66 494.59
  Q 155.10 475.41 148.72 456.86
  A 1.23 1.23 0.0 0 0 148.08 456.15
  C 94.20 431.29 51.56 387.48 28.40 332.76
  C 5.52 278.68 3.19 217.04 22.46 161.55
  Q 37.17 119.18 63.79 87.39
  Q 118.64 21.90 200.36 4.81
  Q 218.91 0.93 243.63 0.00
  Z
  M 230.78 18.80
  C 171.31 24.18 117.01 52.76 78.88 98.65
  Q 78.76 98.79 78.66 99.24
  Q 77.95 99.75 77.75 99.99
  C 37.08 149.96 20.42 214.10 30.87 277.72
  Q 41.15 336.97 79.52 383.01
  Q 110.95 420.73 155.38 441.76
  Q 159.23 443.58 163.10 445.50
  Q 163.73 445.84 163.87 446.27
  Q 171.47 468.41 179.04 490.56
  Q 179.21 491.05 179.66 491.28
  Q 181.29 492.10 182.99 491.28
  Q 183.00 492.00 183.94 492.05
  Q 186.16 492.76 187.95 492.47
  Q 188.27 493.18 189.03 492.90
  Q 191.31 493.75 192.80 493.01
  Q 192.99 494.10 194.05 493.94
  Q 196.40 494.59 198.16 493.97
  Q 197.85 494.94 199.07 494.68
  L 204.00 495.46
  Q 204.28 495.81 204.95 495.91
  L 207.93 496.19
  L 208.53 496.57
  Q 210.03 496.86 210.96 496.59
  Q 213.09 496.57 215.02 496.13
  Q 323.49 471.34 431.99 446.60
  Q 432.49 446.49 432.49 445.97
  L 432.49 443.17
  L 435.04 444.29
  Q 435.14 444.83 436.02 444.92
  Q 436.54 444.98 436.77 444.50
  L 440.38 437.07
  L 447.07 422.89
  L 450.97 414.73
  Q 450.59 413.99 450.39 413.89
  Q 432.98 405.58 415.61 397.34
  Q 415.81 394.44 414.29 391.33
  Q 445.50 357.05 460.45 314.66
  Q 480.54 256.53 468.70 196.50
  C 511.89 131.82 478.89 45.25 403.25 26.54
  Q 367.32 17.65 332.10 33.36
  Q 283.11 14.28 230.78 18.80
  Z"
/>
<path fill="#073ace" d="
  M 332.10 33.36
  L 318.03 41.06
  L 316.15 33.51
  Q 315.31 30.11 314.38 33.49
  Q 313.19 37.84 312.09 43.00
  A 1.51 1.51 0.0 0 1 310.98 44.16
  L 300.96 46.73
  Q 298.12 47.45 300.88 48.45
  L 305.68 50.18
  C 279.63 72.61 265.74 104.72 267.06 139.07
  C 258.30 132.26 246.55 135.39 242.24 145.28
  A 0.42 0.41 2.9 0 0 242.75 145.84
  C 245.23 145.05 245.16 144.73 246.64 142.78
  C 251.06 136.96 261.31 136.12 266.34 141.94
  L 230.21 148.47
  Q 229.17 148.51 228.72 148.01
  Q 224.39 143.12 218.78 142.36
  Q 206.17 140.66 200.20 152.87
  A 0.06 0.06 0.0 0 0 200.25 152.96
  Q 201.18 153.12 202.89 152.71
  A 0.75 0.75 0.0 0 0 203.33 152.40
  Q 209.97 141.79 221.76 145.95
  Q 224.12 146.78 225.93 149.25
  L 186.51 156.35
  Q 183.85 153.85 183.00 153.27
  Q 176.66 148.94 169.49 150.44
  Q 159.90 152.44 156.94 161.65
  L 139.96 164.76
  Q 139.54 165.00 139.27 164.71
  C 132.28 157.02 121.52 156.34 113.92 163.39
  Q 113.78 163.52 113.59 163.58
  Q 113.40 163.63 113.22 163.65
  Q 100.73 151.60 84.26 148.29
  C 70.69 145.56 56.00 150.57 49.79 163.95
  Q 44.44 175.46 50.23 184.92
  C 56.86 195.76 69.06 200.00 65.38 215.58
  Q 64.33 220.03 63.12 224.51
  C 56.45 249.11 79.29 262.95 100.58 262.09
  L 118.67 315.18
  Q 112.78 309.92 107.31 304.97
  Q 99.82 298.21 95.59 295.21
  Q 70.96 277.78 39.24 277.30
  Q 33.74 277.22 30.87 277.72
  C 20.42 214.10 37.08 149.96 77.75 99.99
  Q 77.95 99.75 78.66 99.24
  Q 78.65 99.77 79.16 100.33
  Q 88.28 110.25 100.34 117.42
  Q 98.60 117.90 98.21 118.34
  A 0.49 0.48 -60.4 0 0 98.42 119.13
  L 109.10 122.41
  Q 109.70 122.59 109.89 123.19
  L 113.16 133.63
  A 0.58 0.58 0.0 0 0 114.27 133.65
  L 117.25 124.89
  Q 148.71 134.70 178.50 122.55
  Q 199.76 113.87 214.14 95.75
  Q 222.17 96.40 219.06 88.79
  Q 221.75 85.07 224.10 80.32
  Q 237.27 53.67 232.14 24.16
  Q 231.66 21.46 230.78 18.80
  Q 283.11 14.28 332.10 33.36
  Z
  M 249.54 52.42
  A 3.79 3.79 0.0 0 0 245.75 48.63
  A 3.79 3.79 0.0 0 0 241.96 52.42
  A 3.79 3.79 0.0 0 0 245.75 56.21
  A 3.79 3.79 0.0 0 0 249.54 52.42
  Z
  M 236.44 75.66
  A 3.79 3.79 0.0 0 0 232.65 71.87
  A 3.79 3.79 0.0 0 0 228.86 75.66
  A 3.79 3.79 0.0 0 0 232.65 79.45
  A 3.79 3.79 0.0 0 0 236.44 75.66
  Z
  M 255.29 88.25
  A 3.79 3.79 0.0 0 0 251.50 84.46
  A 3.79 3.79 0.0 0 0 247.71 88.25
  A 3.79 3.79 0.0 0 0 251.50 92.04
  A 3.79 3.79 0.0 0 0 255.29 88.25
  Z"
/>
<path fill="#9fb7ff" d="
  M 230.78 18.80
  Q 231.66 21.46 232.14 24.16
  Q 237.27 53.67 224.10 80.32
  Q 221.75 85.07 219.06 88.79
  Q 209.25 87.26 214.14 95.75
  Q 199.76 113.87 178.50 122.55
  Q 148.71 134.70 117.25 124.89
  C 117.38 123.74 117.82 122.58 119.01 122.22
  Q 123.91 120.71 128.82 118.94
  Q 129.28 118.77 129.53 118.36
  A 0.49 0.49 0.0 0 0 129.24 117.63
  L 117.78 114.56
  A 1.06 1.06 0.0 0 1 117.02 113.79
  L 114.48 103.50
  A 0.68 0.68 0.0 0 0 113.57 103.03
  Q 113.19 103.19 113.09 103.60
  Q 111.70 109.46 110.49 114.26
  Q 110.36 114.79 109.82 114.94
  L 100.34 117.42
  Q 88.28 110.25 79.16 100.33
  Q 78.65 99.77 78.66 99.24
  Q 78.76 98.79 78.88 98.65
  C 117.01 52.76 171.31 24.18 230.78 18.80
  Z
  M 221.74 60.96
  A 3.79 3.79 0.0 0 0 217.95 57.17
  A 3.79 3.79 0.0 0 0 214.16 60.96
  A 3.79 3.79 0.0 0 0 217.95 64.75
  A 3.79 3.79 0.0 0 0 221.74 60.96
  Z
  M 206.18 76.85
  A 3.79 3.79 0.0 0 0 202.39 73.06
  A 3.79 3.79 0.0 0 0 198.60 76.85
  A 3.79 3.79 0.0 0 0 202.39 80.64
  A 3.79 3.79 0.0 0 0 206.18 76.85
  Z"
/>
<path fill="#ffad2f" d="
  M 468.70 196.50
  Q 460.51 208.50 450.67 216.50
  Q 414.21 232.46 375.31 239.09
  Q 382.54 223.33 392.07 209.81
  Q 401.89 195.88 412.54 180.84
  Q 416.30 175.53 418.45 170.75
  C 424.11 158.17 422.35 141.95 407.57 136.81
  C 396.52 132.96 384.80 138.15 376.74 145.66
  Q 376.18 146.18 375.91 145.47
  C 369.14 127.61 348.81 122.45 336.56 138.55
  Q 330.46 146.56 329.09 157.88
  Q 327.11 174.18 329.77 191.23
  C 332.50 208.72 336.19 225.83 335.63 243.30
  L 326.05 243.50
  Q 324.34 235.85 319.56 229.99
  Q 317.74 227.75 309.94 221.58
  Q 284.59 201.54 273.39 171.24
  Q 269.99 161.47 268.38 151.75
  L 267.19 141.98
  L 267.06 139.07
  C 265.74 104.72 279.63 72.61 305.68 50.18
  L 310.74 51.64
  A 0.94 0.94 0.0 0 1 311.09 53.25
  C 295.59 66.60 283.46 82.34 278.39 102.21
  Q 277.72 104.81 279.14 102.53
  Q 293.31 79.63 311.92 55.46
  A 0.26 0.25 -34.5 0 1 312.37 55.54
  L 314.29 61.75
  Q 315.23 64.79 316.18 61.75
  L 319.14 52.22
  Q 319.32 51.63 319.92 51.45
  Q 325.07 49.89 330.05 48.11
  Q 330.63 47.91 330.95 47.39
  A 0.42 0.42 0.0 0 0 330.72 46.76
  Q 325.64 45.18 319.85 43.85
  C 318.53 43.55 317.97 42.34 318.03 41.06
  L 332.10 33.36
  Q 367.32 17.65 403.25 26.54
  C 478.89 45.25 511.89 131.82 468.70 196.50
  Z
  M 453.77 72.67
  C 447.06 75.73 445.17 84.55 446.37 91.21
  C 448.29 101.91 454.04 114.44 464.30 119.13
  C 471.92 122.61 475.56 116.27 476.39 109.84
  C 477.71 99.56 473.52 88.31 467.88 79.82
  C 465.11 75.65 459.18 70.20 453.77 72.67
  Z
  M 467.6817 146.0588
  A 10.09 9.17 109.2 0 0 479.6599 139.5457
  A 10.09 9.17 109.2 0 0 474.3183 127.0012
  A 10.09 9.17 109.2 0 0 462.3401 133.5143
  A 10.09 9.17 109.2 0 0 467.6817 146.0588
  Z"
/>
<path fill="#f7ebf4" d="
  M 318.03 41.06
  C 317.97 42.34 318.53 43.55 319.85 43.85
  Q 325.64 45.18 330.72 46.76
  A 0.42 0.42 0.0 0 1 330.95 47.39
  Q 330.63 47.91 330.05 48.11
  Q 325.07 49.89 319.92 51.45
  Q 319.32 51.63 319.14 52.22
  L 316.18 61.75
  Q 315.23 64.79 314.29 61.75
  L 312.37 55.54
  A 0.26 0.25 -34.5 0 0 311.92 55.46
  Q 293.31 79.63 279.14 102.53
  Q 277.72 104.81 278.39 102.21
  C 283.46 82.34 295.59 66.60 311.09 53.25
  A 0.94 0.94 0.0 0 0 310.74 51.64
  L 305.68 50.18
  L 300.88 48.45
  Q 298.12 47.45 300.96 46.73
  L 310.98 44.16
  A 1.51 1.51 0.0 0 0 312.09 43.00
  Q 313.19 37.84 314.38 33.49
  Q 315.31 30.11 316.15 33.51
  L 318.03 41.06
  Z"
/>
<circle fill="#f7ebf4" cx="245.75" cy="52.42" r="3.79"/>
<circle fill="#f7ebf4" cx="217.95" cy="60.96" r="3.79"/>
<circle fill="#f7ebf4" cx="232.65" cy="75.66" r="3.79"/>
<path fill="#f7ebf4" d="
  M 446.37 91.21
  C 445.17 84.55 447.06 75.73 453.77 72.67
  C 459.18 70.20 465.11 75.65 467.88 79.82
  C 473.52 88.31 477.71 99.56 476.39 109.84
  C 475.56 116.27 471.92 122.61 464.30 119.13
  C 454.04 114.44 448.29 101.91 446.37 91.21
  Z"
/>
<circle fill="#f7ebf4" cx="202.39" cy="76.85" r="3.79"/>
<circle fill="#f7ebf4" cx="251.50" cy="88.25" r="3.79"/>
<path fill="#f7ebf4" d="
  M 219.06 88.79
  Q 222.17 96.40 214.14 95.75
  Q 209.25 87.26 219.06 88.79
  Z"
/>
<path fill="#f7ebf4" d="
  M 117.25 124.89
  L 114.27 133.65
  A 0.58 0.58 0.0 0 1 113.16 133.63
  L 109.89 123.19
  Q 109.70 122.59 109.10 122.41
  L 98.42 119.13
  A 0.49 0.48 -60.4 0 1 98.21 118.34
  Q 98.60 117.90 100.34 117.42
  L 109.82 114.94
  Q 110.36 114.79 110.49 114.26
  Q 111.70 109.46 113.09 103.60
  Q 113.19 103.19 113.57 103.03
  A 0.68 0.68 0.0 0 1 114.48 103.50
  L 117.02 113.79
  A 1.06 1.06 0.0 0 0 117.78 114.56
  L 129.24 117.63
  A 0.49 0.49 0.0 0 1 129.53 118.36
  Q 129.28 118.77 128.82 118.94
  Q 123.91 120.71 119.01 122.22
  C 117.82 122.58 117.38 123.74 117.25 124.89
  Z"
/>
<ellipse fill="#f7ebf4" cx="0.00" cy="0.00" transform="translate(471.00,136.53) rotate(109.2)" rx="10.09" ry="9.17"/>
<path fill="#f7ebf4" d="
  M 375.31 239.09
  Q 371.55 247.64 369.21 257.66
  L 366.37 257.78
  C 367.73 251.43 369.43 246.60 371.91 239.79
  Q 379.67 222.52 391.31 206.05
  Q 399.16 194.96 406.39 185.13
  Q 411.69 177.93 415.31 170.98
  C 421.04 159.96 420.38 144.01 406.67 139.38
  C 396.87 136.08 385.72 140.80 378.49 147.72
  Q 378.22 147.98 377.92 148.21
  Q 377.07 148.87 377.30 149.90
  Q 380.96 166.00 374.59 180.23
  C 373.32 183.06 368.76 188.31 365.44 185.36
  C 363.97 184.05 363.63 181.43 363.48 179.54
  Q 362.11 162.53 373.65 148.79
  Q 374.01 148.37 373.84 147.84
  Q 371.19 139.73 365.12 135.17
  C 355.18 127.69 343.01 132.91 337.13 142.48
  C 331.52 151.62 330.56 163.68 331.00 174.75
  C 331.64 190.47 335.17 206.70 337.20 221.00
  Q 338.67 231.33 338.44 243.07
  L 336.55 257.51
  L 333.90 256.98
  L 335.63 243.30
  C 336.19 225.83 332.50 208.72 329.77 191.23
  Q 327.11 174.18 329.09 157.88
  Q 330.46 146.56 336.56 138.55
  C 348.81 122.45 369.14 127.61 375.91 145.47
  Q 376.18 146.18 376.74 145.66
  C 384.80 138.15 396.52 132.96 407.57 136.81
  C 422.35 141.95 424.11 158.17 418.45 170.75
  Q 416.30 175.53 412.54 180.84
  Q 401.89 195.88 392.07 209.81
  Q 382.54 223.33 375.31 239.09
  Z
  M 373.04 177.02
  Q 377.46 164.82 375.04 152.26
  A 0.35 0.35 0.0 0 0 374.42 152.12
  Q 364.06 165.75 366.60 182.27
  A 1.35 1.35 0.0 0 0 368.79 183.11
  Q 371.71 180.69 373.04 177.02
  Z"
/>
<path fill="#ffad2f" d="
  M 371.91 239.79
  L 338.44 243.07
  Q 338.67 231.33 337.20 221.00
  C 335.17 206.70 331.64 190.47 331.00 174.75
  C 330.56 163.68 331.52 151.62 337.13 142.48
  C 343.01 132.91 355.18 127.69 365.12 135.17
  Q 371.19 139.73 373.84 147.84
  Q 374.01 148.37 373.65 148.79
  Q 362.11 162.53 363.48 179.54
  C 363.63 181.43 363.97 184.05 365.44 185.36
  C 368.76 188.31 373.32 183.06 374.59 180.23
  Q 380.96 166.00 377.30 149.90
  Q 377.07 148.87 377.92 148.21
  Q 378.22 147.98 378.49 147.72
  C 385.72 140.80 396.87 136.08 406.67 139.38
  C 420.38 144.01 421.04 159.96 415.31 170.98
  Q 411.69 177.93 406.39 185.13
  Q 399.16 194.96 391.31 206.05
  Q 379.67 222.52 371.91 239.79
  Z"
/>
<path fill="#9fb7ff" d="
  M 267.06 139.07
  L 267.19 141.98
  L 266.34 141.94
  C 261.31 136.12 251.06 136.96 246.64 142.78
  C 245.16 144.73 245.23 145.05 242.75 145.84
  A 0.42 0.41 2.9 0 1 242.24 145.28
  C 246.55 135.39 258.30 132.26 267.06 139.07
  Z"
/>
<path fill="#9fb7ff" d="
  M 230.21 148.47
  Q 229.55 149.16 229.79 149.52
  Q 232.69 153.79 232.51 159.00
  Q 232.49 159.50 232.97 159.69
  Q 239.54 162.31 240.23 168.65
  C 241.43 179.68 227.46 184.80 220.90 175.72
  Q 218.69 172.66 219.24 168.85
  Q 220.48 160.32 229.38 159.18
  Q 229.90 159.11 229.90 158.59
  Q 229.88 152.97 225.93 149.25
  Q 224.12 146.78 221.76 145.95
  Q 209.97 141.79 203.33 152.40
  A 0.75 0.75 0.0 0 1 202.89 152.71
  Q 201.18 153.12 200.25 152.96
  A 0.06 0.06 0.0 0 1 200.20 152.87
  Q 206.17 140.66 218.78 142.36
  Q 224.39 143.12 228.72 148.01
  Q 229.17 148.51 230.21 148.47
  Z"
/>
<path fill="#f7ebf4" d="
  M 266.34 141.94
  L 267.19 141.98
  L 268.38 151.75
  Q 260.50 153.83 259.97 161.74
  Q 259.76 164.83 261.53 167.24
  Q 266.07 173.43 273.39 171.24
  Q 284.59 201.54 309.94 221.58
  Q 317.74 227.75 319.56 229.99
  Q 324.34 235.85 326.05 243.50
  L 326.55 254.40
  L 323.96 265.35
  Q 323.19 266.24 323.65 266.78
  L 321.91 272.97
  Q 321.36 273.08 321.56 274.10
  L 319.73 280.53
  A 0.83 0.83 0.0 0 0 319.95 281.36
  C 333.24 293.86 351.66 296.70 369.38 292.34
  A 0.79 0.76 88.4 0 0 369.95 291.72
  L 371.21 284.70
  Q 371.73 283.98 371.39 283.10
  Q 372.47 280.07 372.48 277.00
  Q 373.32 276.39 372.81 275.54
  L 373.87 272.07
  L 379.05 287.22
  L 414.29 391.33
  Q 415.81 394.44 415.61 397.34
  L 244.51 316.25
  C 251.65 308.33 253.86 299.93 253.92 289.64
  Q 253.93 289.02 254.45 289.35
  Q 262.15 294.14 267.67 299.63
  Q 276.48 308.38 285.34 317.51
  Q 295.60 328.08 306.30 332.95
  C 328.35 342.98 354.43 331.74 350.34 304.29
  A 1.35 1.34 0.0 0 0 349.19 303.15
  Q 348.99 303.13 348.80 303.17
  Q 347.42 303.49 347.64 304.89
  C 350.22 320.88 340.33 332.93 324.44 333.74
  C 304.11 334.78 288.81 317.78 276.08 304.11
  Q 264.88 292.06 254.15 285.99
  Q 253.67 285.72 253.60 285.18
  C 250.41 260.76 236.63 240.32 209.12 244.39
  C 183.47 248.19 170.41 274.77 170.24 298.28
  Q 169.79 298.55 168.08 298.62
  Q 167.59 298.64 167.94 298.99
  L 178.80 309.62
  L 204.91 335.29
  L 432.49 443.17
  L 432.49 445.97
  Q 432.49 446.49 431.99 446.60
  Q 323.49 471.34 215.02 496.13
  Q 213.09 496.57 210.96 496.59
  Q 204.03 477.96 201.42 469.23
  Q 200.92 467.57 200.54 466.88
  A 3.15 3.09 26.0 0 1 200.21 465.95
  Q 199.83 463.81 199.00 461.88
  Q 198.10 459.80 197.59 457.69
  Q 197.15 455.87 196.37 454.45
  Q 195.60 453.08 195.16 451.58
  Q 194.68 449.99 193.90 448.39
  Q 193.82 448.24 193.93 448.12
  Q 194.15 447.86 194.03 447.54
  Q 193.15 445.22 192.42 443.04
  Q 192.37 442.90 192.26 442.98
  Q 192.16 443.06 192.01 442.98
  Q 191.82 442.89 191.92 442.71
  Q 192.29 441.95 191.87 441.42
  Q 191.68 441.18 191.58 440.89
  Q 188.94 432.59 186.11 425.01
  C 185.81 424.20 185.98 423.48 185.70 422.68
  Q 184.99 420.66 184.15 418.22
  Q 182.89 414.57 181.67 410.91
  L 102.08 172.28
  Q 104.93 170.76 109.79 170.18
  Q 109.99 170.16 110.06 169.97
  Q 110.17 169.66 109.89 169.78
  Q 111.25 170.25 112.36 169.63
  L 117.88 168.70
  L 136.09 165.48
  Q 140.47 169.80 140.46 175.76
  Q 140.46 176.37 139.85 176.41
  C 133.41 176.81 128.98 181.94 129.31 188.36
  C 129.66 195.38 136.97 199.78 143.49 197.94
  C 147.77 196.73 151.17 192.58 151.31 188.15
  Q 151.56 180.06 143.73 176.89
  Q 143.24 176.69 143.25 176.16
  Q 143.35 170.16 139.78 165.51
  Q 139.57 165.24 139.78 164.99
  L 139.96 164.76
  L 156.94 161.65
  Q 158.58 162.11 159.63 161.23
  L 182.99 156.97
  Q 187.47 161.12 187.44 167.40
  Q 187.43 167.91 186.93 167.94
  Q 180.43 168.40 177.54 174.05
  C 174.15 180.68 178.04 188.39 185.20 189.73
  C 198.59 192.25 203.82 173.43 190.80 168.50
  Q 190.35 168.33 190.34 167.85
  Q 190.23 161.54 186.51 156.35
  L 225.93 149.25
  Q 229.88 152.97 229.90 158.59
  Q 229.90 159.11 229.38 159.18
  Q 220.48 160.32 219.24 168.85
  Q 218.69 172.66 220.90 175.72
  C 227.46 184.80 241.43 179.68 240.23 168.65
  Q 239.54 162.31 232.97 159.69
  Q 232.49 159.50 232.51 159.00
  Q 232.69 153.79 229.79 149.52
  Q 229.55 149.16 230.21 148.47
  L 266.34 141.94
  Z"
/>
<path fill="#ffad2f" d="
  M 113.22 163.65
  Q 113.26 164.10 112.93 164.46
  Q 110.64 166.93 109.89 169.78
  Q 110.17 169.66 110.06 169.97
  Q 109.99 170.16 109.79 170.18
  Q 104.93 170.76 102.08 172.28
  Q 99.91 173.43 99.49 174.44
  Q 99.10 174.82 99.19 174.61
  Q 96.49 175.88 94.49 177.98
  Q 94.15 178.34 93.68 178.48
  Q 92.47 178.85 91.75 179.99
  Q 90.81 180.26 91.02 180.63
  Q 89.63 180.49 88.75 182.07
  Q 88.31 182.17 87.90 182.71
  Q 86.08 183.36 84.87 184.95
  Q 84.01 185.20 83.97 185.60
  Q 81.93 186.28 80.86 187.90
  Q 80.42 187.98 80.24 188.30
  Q 78.07 189.17 76.65 190.83
  Q 76.32 191.21 76.49 191.68
  L 100.58 262.09
  C 79.29 262.95 56.45 249.11 63.12 224.51
  Q 64.33 220.03 65.38 215.58
  C 69.06 200.00 56.86 195.76 50.23 184.92
  Q 44.44 175.46 49.79 163.95
  C 56.00 150.57 70.69 145.56 84.26 148.29
  Q 100.73 151.60 113.22 163.65
  Z"
/>
<path fill="#9fb7ff" d="
  M 186.51 156.35
  Q 190.23 161.54 190.34 167.85
  Q 190.35 168.33 190.80 168.50
  C 203.82 173.43 198.59 192.25 185.20 189.73
  C 178.04 188.39 174.15 180.68 177.54 174.05
  Q 180.43 168.40 186.93 167.94
  Q 187.43 167.91 187.44 167.40
  Q 187.47 161.12 182.99 156.97
  Q 178.28 152.47 172.34 152.83
  Q 163.84 153.34 159.63 161.23
  Q 158.58 162.11 156.94 161.65
  Q 159.90 152.44 169.49 150.44
  Q 176.66 148.94 183.00 153.27
  Q 183.85 153.85 186.51 156.35
  Z"
/>
<path fill="#9fb7ff" d="
  M 268.38 151.75
  Q 269.99 161.47 273.39 171.24
  Q 266.07 173.43 261.53 167.24
  Q 259.76 164.83 259.97 161.74
  Q 260.50 153.83 268.38 151.75
  Z"
/>
<path fill="#ffad2f" d="
  M 373.04 177.02
  Q 371.71 180.69 368.79 183.11
  A 1.35 1.35 0.0 0 1 366.60 182.27
  Q 364.06 165.75 374.42 152.12
  A 0.35 0.35 0.0 0 1 375.04 152.26
  Q 377.46 164.82 373.04 177.02
  Z"
/>
<path fill="#073ace" d="
  M 182.99 156.97
  L 159.63 161.23
  Q 163.84 153.34 172.34 152.83
  Q 178.28 152.47 182.99 156.97
  Z"
/>
<path fill="#9fb7ff" d="
  M 139.96 164.76
  L 139.78 164.99
  Q 139.57 165.24 139.78 165.51
  Q 143.35 170.16 143.25 176.16
  Q 143.24 176.69 143.73 176.89
  Q 151.56 180.06 151.31 188.15
  C 151.17 192.58 147.77 196.73 143.49 197.94
  C 136.97 199.78 129.66 195.38 129.31 188.36
  C 128.98 181.94 133.41 176.81 139.85 176.41
  Q 140.46 176.37 140.46 175.76
  Q 140.47 169.80 136.09 165.48
  Q 125.60 156.64 115.12 165.95
  L 112.36 169.63
  Q 111.25 170.25 109.89 169.78
  Q 110.64 166.93 112.93 164.46
  Q 113.26 164.10 113.22 163.65
  Q 113.40 163.63 113.59 163.58
  Q 113.78 163.52 113.92 163.39
  C 121.52 156.34 132.28 157.02 139.27 164.71
  Q 139.54 165.00 139.96 164.76
  Z"
/>
<path fill="#073ace" d="
  M 136.09 165.48
  L 117.88 168.70
  Q 116.98 166.99 115.12 165.95
  Q 125.60 156.64 136.09 165.48
  Z"
/>
<path fill="#ffad2f" d="
  M 115.12 165.95
  Q 116.98 166.99 117.88 168.70
  L 112.36 169.63
  L 115.12 165.95
  Z"
/>
<path fill="#9fb7ff" d="
  M 102.08 172.28
  L 181.67 410.91
  Q 182.89 414.57 184.15 418.22
  Q 184.99 420.66 185.70 422.68
  C 185.98 423.48 185.81 424.20 186.11 425.01
  Q 188.94 432.59 191.58 440.89
  Q 191.68 441.18 191.87 441.42
  Q 192.29 441.95 191.92 442.71
  Q 191.82 442.89 192.01 442.98
  Q 192.16 443.06 192.26 442.98
  Q 192.37 442.90 192.42 443.04
  Q 193.15 445.22 194.03 447.54
  Q 194.15 447.86 193.93 448.12
  Q 193.82 448.24 193.90 448.39
  Q 194.68 449.99 195.16 451.58
  Q 195.60 453.08 196.37 454.45
  Q 197.15 455.87 197.59 457.69
  Q 198.10 459.80 199.00 461.88
  Q 199.83 463.81 200.21 465.95
  A 3.15 3.09 26.0 0 0 200.54 466.88
  Q 200.92 467.57 201.42 469.23
  Q 204.03 477.96 210.96 496.59
  Q 210.03 496.86 208.53 496.57
  Q 208.73 496.63 208.80 496.54
  Q 208.88 496.45 208.84 496.34
  Q 198.53 465.24 188.13 434.22
  Q 185.18 425.41 181.65 415.31
  Q 165.23 368.24 149.29 321.00
  L 99.49 174.44
  Q 99.91 173.43 102.08 172.28
  Z"
/>
<path fill="#111c49" d="
  M 99.49 174.44
  L 149.29 321.00
  L 148.68 321.23
  L 99.19 174.61
  Q 99.10 174.82 99.49 174.44
  Z"
/>
<path fill="#9fb7ff" d="
  M 99.19 174.61
  L 148.68 321.23
  L 207.93 496.19
  L 204.95 495.91
  L 95.35 178.25
  Q 95.33 178.20 95.29 178.22
  L 95.00 178.32
  Q 94.78 178.39 94.86 178.61
  L 204.00 495.46
  L 199.07 494.68
  L 91.75 179.99
  Q 92.47 178.85 93.68 178.48
  Q 94.15 178.34 94.49 177.98
  Q 96.49 175.88 99.19 174.61
  Z"
/>
<path fill="#111c49" d="
  M 204.95 495.91
  Q 204.28 495.81 204.00 495.46
  L 94.86 178.61
  Q 94.78 178.39 95.00 178.32
  L 95.29 178.22
  Q 95.33 178.20 95.35 178.25
  L 204.95 495.91
  Z"
/>
<path fill="#111c49" d="
  M 91.75 179.99
  L 199.07 494.68
  Q 197.85 494.94 198.16 493.97
  L 91.02 180.63
  Q 90.81 180.26 91.75 179.99
  Z"
/>
<path fill="#9fb7ff" d="
  M 91.02 180.63
  L 198.16 493.97
  Q 196.40 494.59 194.05 493.94
  L 88.75 182.07
  Q 89.63 180.49 91.02 180.63
  Z"
/>
<path fill="#111c49" d="
  M 88.75 182.07
  L 194.05 493.94
  Q 192.99 494.10 192.80 493.01
  L 156.12 384.76
  L 155.55 382.95
  L 87.90 182.71
  Q 88.31 182.17 88.75 182.07
  Z"
/>
<path fill="#9fb7ff" d="
  M 87.90 182.71
  L 155.55 382.95
  L 151.69 382.35
  L 84.87 184.95
  Q 86.08 183.36 87.90 182.71
  Z"
/>
<path fill="#111c49" d="
  M 84.87 184.95
  L 151.69 382.35
  Q 150.11 382.10 150.36 381.42
  L 83.97 185.60
  Q 84.01 185.20 84.87 184.95
  Z"
/>
<path fill="#9fb7ff" d="
  M 83.97 185.60
  L 150.36 381.42
  Q 148.42 381.61 146.40 381.03
  L 80.86 187.90
  Q 81.93 186.28 83.97 185.60
  Z"
/>
<path fill="#111c49" d="
  M 80.86 187.90
  L 146.40 381.03
  Q 142.89 375.97 141.57 368.72
  Q 111.24 279.15 81.04 189.49
  Q 80.83 188.88 80.24 188.30
  Q 80.42 187.98 80.86 187.90
  Z"
/>
<path fill="#9fb7ff" d="
  M 80.24 188.30
  Q 80.83 188.88 81.04 189.49
  Q 111.24 279.15 141.57 368.72
  Q 140.85 368.76 140.34 368.98
  Q 139.87 369.19 139.55 369.88
  Q 139.01 371.03 138.35 372.27
  L 118.67 315.18
  L 100.58 262.09
  L 76.49 191.68
  Q 76.32 191.21 76.65 190.83
  Q 78.07 189.17 80.24 188.30
  Z"
/>
<path fill="#073ace" d="
  M 468.70 196.50
  Q 480.54 256.53 460.45 314.66
  L 442.03 301.52
  C 459.80 285.20 455.34 256.53 432.94 246.97
  Q 423.93 243.13 413.17 245.21
  A 0.67 0.67 0.0 0 0 412.64 246.01
  L 415.90 260.78
  A 0.53 0.53 0.0 0 0 416.57 261.18
  C 422.27 259.57 428.60 261.07 432.47 265.72
  C 440.95 275.86 436.24 290.68 423.22 293.22
  Q 401.98 285.90 379.05 287.22
  L 373.87 272.07
  L 375.23 264.02
  Q 376.31 261.04 377.56 258.27
  Q 377.81 257.71 377.47 257.00
  Q 377.95 257.48 378.37 256.86
  Q 383.66 249.16 391.32 245.21
  Q 394.40 243.63 402.47 241.80
  Q 426.56 236.34 447.36 219.86
  Q 449.35 218.29 450.67 216.50
  Q 460.51 208.50 468.70 196.50
  Z"
/>
<path fill="#ffd399" d="
  M 450.67 216.50
  Q 449.35 218.29 447.36 219.86
  Q 426.56 236.34 402.47 241.80
  Q 394.40 243.63 391.32 245.21
  Q 383.66 249.16 378.37 256.86
  Q 377.95 257.48 377.47 257.00
  L 369.21 257.66
  Q 371.55 247.64 375.31 239.09
  Q 414.21 232.46 450.67 216.50
  Z"
/>
<path fill="#ffd399" d="
  M 371.91 239.79
  C 369.43 246.60 367.73 251.43 366.37 257.78
  Q 351.47 258.67 336.55 257.51
  L 338.44 243.07
  L 371.91 239.79
  Z"
/>
<path fill="#ffd399" d="
  M 335.63 243.30
  L 333.90 256.98
  Q 333.77 257.04 333.52 256.99
  L 326.55 254.40
  L 326.05 243.50
  L 335.63 243.30
  Z"
/>
<path fill="#111c49" d="
  M 244.51 316.25
  L 241.92 315.00
  Q 252.48 303.58 250.95 288.06
  Q 250.90 287.55 250.44 287.34
  C 234.67 279.76 214.92 282.51 210.35 302.02
  Q 210.48 303.21 209.25 303.20
  Q 208.08 303.19 207.51 302.23
  C 212.18 280.76 232.07 276.88 250.10 284.06
  Q 250.74 284.32 250.64 283.63
  C 247.79 265.27 238.30 248.06 218.25 246.60
  C 194.59 244.87 177.98 264.86 174.29 286.03
  Q 173.04 293.21 172.87 298.93
  Q 171.31 298.29 170.24 298.28
  C 170.41 274.77 183.47 248.19 209.12 244.39
  C 236.63 240.32 250.41 260.76 253.60 285.18
  Q 253.67 285.72 254.15 285.99
  Q 264.88 292.06 276.08 304.11
  C 288.81 317.78 304.11 334.78 324.44 333.74
  C 340.33 332.93 350.22 320.88 347.64 304.89
  Q 347.42 303.49 348.80 303.17
  Q 348.99 303.13 349.19 303.15
  A 1.35 1.34 0.0 0 1 350.34 304.29
  C 354.43 331.74 328.35 342.98 306.30 332.95
  Q 295.60 328.08 285.34 317.51
  Q 276.48 308.38 267.67 299.63
  Q 262.15 294.14 254.45 289.35
  Q 253.93 289.02 253.92 289.64
  C 253.86 299.93 251.65 308.33 244.51 316.25
  Z"
/>
<path fill="#ffad2f" d="
  M 442.03 301.52
  Q 435.66 307.19 427.23 308.85
  Q 426.73 308.95 426.61 308.44
  L 423.22 293.22
  C 436.24 290.68 440.95 275.86 432.47 265.72
  C 428.60 261.07 422.27 259.57 416.57 261.18
  A 0.53 0.53 0.0 0 1 415.90 260.78
  L 412.64 246.01
  A 0.67 0.67 0.0 0 1 413.17 245.21
  Q 423.93 243.13 432.94 246.97
  C 455.34 256.53 459.80 285.20 442.03 301.52
  Z"
/>
<path fill="#f7ebf4" d="
  M 207.51 302.23
  Q 207.55 302.85 206.26 302.70
  Q 195.41 301.47 184.52 300.37
  L 172.87 298.93
  Q 173.04 293.21 174.29 286.03
  C 177.98 264.86 194.59 244.87 218.25 246.60
  C 238.30 248.06 247.79 265.27 250.64 283.63
  Q 250.74 284.32 250.10 284.06
  C 232.07 276.88 212.18 280.76 207.51 302.23
  Z"
/>
<path fill="#9fb7ff" d="
  M 326.55 254.40
  L 333.52 256.99
  Q 353.70 265.41 375.23 264.02
  L 373.87 272.07
  L 372.81 275.54
  Q 346.89 277.91 323.96 265.35
  L 326.55 254.40
  Z"
/>
<path fill="#4c226c" d="
  M 333.52 256.99
  Q 333.77 257.04 333.90 256.98
  L 336.55 257.51
  Q 351.47 258.67 366.37 257.78
  L 369.21 257.66
  L 377.47 257.00
  Q 377.81 257.71 377.56 258.27
  Q 376.31 261.04 375.23 264.02
  Q 353.70 265.41 333.52 256.99
  Z"
/>
<path fill="#073ace" d="
  M 323.96 265.35
  Q 346.89 277.91 372.81 275.54
  Q 373.32 276.39 372.48 277.00
  Q 346.52 279.14 323.65 266.78
  Q 323.19 266.24 323.96 265.35
  Z"
/>
<path fill="#9fb7ff" d="
  M 323.65 266.78
  Q 346.52 279.14 372.48 277.00
  Q 372.47 280.07 371.39 283.10
  Q 345.33 285.64 322.46 273.04
  Q 321.97 272.78 321.91 272.97
  L 323.65 266.78
  Z"
/>
<path fill="#073ace" d="
  M 321.91 272.97
  Q 321.97 272.78 322.46 273.04
  Q 345.33 285.64 371.39 283.10
  Q 371.73 283.98 371.21 284.70
  Q 344.58 286.81 321.56 274.10
  Q 321.36 273.08 321.91 272.97
  Z"
/>
<path fill="#9fb7ff" d="
  M 321.56 274.10
  Q 344.58 286.81 371.21 284.70
  L 369.95 291.72
  A 0.79 0.76 88.4 0 1 369.38 292.34
  C 351.66 296.70 333.24 293.86 319.95 281.36
  A 0.83 0.83 0.0 0 1 319.73 280.53
  L 321.56 274.10
  Z"
/>
<path fill="#111c49" d="
  M 118.67 315.18
  L 138.35 372.27
  Q 138.43 376.19 136.88 380.25
  Q 136.69 380.75 136.17 380.89
  Q 130.53 382.40 125.25 383.74
  Q 124.75 383.87 124.69 384.37
  A 0.71 0.70 -78.3 0 0 125.18 385.13
  L 135.67 388.30
  A 1.01 0.98 89.2 0 1 136.33 388.96
  L 139.66 399.53
  A 0.54 0.53 -23.7 0 0 140.44 399.83
  Q 141.08 399.46 141.31 398.52
  Q 142.35 394.37 144.22 389.64
  L 163.10 445.50
  Q 159.23 443.58 155.38 441.76
  Q 110.95 420.73 79.52 383.01
  Q 41.15 336.97 30.87 277.72
  Q 33.74 277.22 39.24 277.30
  Q 70.96 277.78 95.59 295.21
  Q 99.82 298.21 107.31 304.97
  Q 112.78 309.92 118.67 315.18
  Z
  M 105.32 315.08
  A 3.79 3.79 0.0 0 0 101.53 311.29
  A 3.79 3.79 0.0 0 0 97.74 315.08
  A 3.79 3.79 0.0 0 0 101.53 318.87
  A 3.79 3.79 0.0 0 0 105.32 315.08
  Z
  M 77.52 323.62
  A 3.79 3.79 0.0 0 0 73.73 319.83
  A 3.79 3.79 0.0 0 0 69.94 323.62
  A 3.79 3.79 0.0 0 0 73.73 327.41
  A 3.79 3.79 0.0 0 0 77.52 323.62
  Z
  M 92.21 338.35
  A 3.77 3.77 0.0 0 0 88.44 334.58
  A 3.77 3.77 0.0 0 0 84.67 338.35
  A 3.77 3.77 0.0 0 0 88.44 342.12
  A 3.77 3.77 0.0 0 0 92.21 338.35
  Z
  M 61.97 339.51
  A 3.79 3.79 0.0 0 0 58.18 335.72
  A 3.79 3.79 0.0 0 0 54.39 339.51
  A 3.79 3.79 0.0 0 0 58.18 343.30
  A 3.79 3.79 0.0 0 0 61.97 339.51
  Z
  M 111.07 350.93
  A 3.79 3.79 0.0 0 0 107.28 347.14
  A 3.79 3.79 0.0 0 0 103.49 350.93
  A 3.79 3.79 0.0 0 0 107.28 354.72
  A 3.79 3.79 0.0 0 0 111.07 350.93
  Z
  M 75.81 354.76
  A 3.77 3.77 0.0 0 0 72.04 350.99
  A 3.77 3.77 0.0 0 0 68.27 354.76
  A 3.77 3.77 0.0 0 0 72.04 358.53
  A 3.77 3.77 0.0 0 0 75.81 354.76
  Z"
/>
<path fill="#f7ebf4" d="
  M 241.92 315.00
  L 219.66 304.51
  Q 215.77 303.66 211.50 303.26
  Q 210.19 303.14 210.35 302.02
  C 214.92 282.51 234.67 279.76 250.44 287.34
  Q 250.90 287.55 250.95 288.06
  Q 252.48 303.58 241.92 315.00
  Z"
/>
<path fill="#111c49" d="
  M 423.22 293.22
  L 426.61 308.44
  Q 426.73 308.95 427.23 308.85
  Q 435.66 307.19 442.03 301.52
  L 460.45 314.66
  Q 445.50 357.05 414.29 391.33
  L 379.05 287.22
  Q 401.98 285.90 423.22 293.22
  Z
  M 428.05 335.84
  A 0.81 0.81 0.0 0 1 427.48 335.27
  L 424.49 324.65
  A 0.81 0.81 0.0 0 0 422.93 324.66
  L 420.06 335.31
  A 0.81 0.81 0.0 0 1 419.49 335.88
  L 408.87 338.87
  A 0.81 0.81 0.0 0 0 408.88 340.43
  L 419.53 343.30
  A 0.81 0.81 0.0 0 1 420.10 343.87
  L 423.09 354.49
  A 0.81 0.81 0.0 0 0 424.65 354.48
  L 427.52 343.83
  A 0.81 0.81 0.0 0 1 428.09 343.26
  L 438.71 340.27
  A 0.81 0.81 0.0 0 0 438.70 338.71
  L 428.05 335.84
  Z"
/>
<path fill="#4c226c" d="
  M 170.24 298.28
  Q 171.31 298.29 172.87 298.93
  L 184.52 300.37
  Q 184.50 307.11 178.80 309.62
  L 167.94 298.99
  Q 167.59 298.64 168.08 298.62
  Q 169.79 298.55 170.24 298.28
  Z"
/>
<path fill="#9fb7ff" d="
  M 184.52 300.37
  Q 195.41 301.47 206.26 302.70
  Q 207.55 302.85 207.51 302.23
  Q 208.08 303.19 209.25 303.20
  Q 210.48 303.21 210.35 302.02
  Q 210.19 303.14 211.50 303.26
  Q 215.77 303.66 219.66 304.51
  L 216.18 312.18
  Q 216.22 313.03 215.87 313.54
  Q 215.72 313.52 215.57 313.56
  Q 215.39 313.61 215.31 313.78
  L 209.81 324.90
  Q 209.15 325.20 209.22 326.32
  L 204.91 335.29
  L 178.80 309.62
  Q 184.50 307.11 184.52 300.37
  Z"
/>
<path fill="#073ace" d="
  M 219.66 304.51
  L 241.92 315.00
  L 244.51 316.25
  L 415.61 397.34
  Q 432.98 405.58 450.39 413.89
  Q 450.59 413.99 450.97 414.73
  Q 449.67 413.54 447.73 414.43
  Q 442.92 416.63 440.15 418.97
  L 216.18 312.18
  L 219.66 304.51
  Z"
/>
<circle fill="#f7ebf4" cx="101.53" cy="315.08" r="3.79"/>
<path fill="#f7ebf4" d="
  M 216.18 312.18
  L 440.15 418.97
  Q 439.86 419.69 438.98 419.92
  L 215.87 313.54
  Q 216.22 313.03 216.18 312.18
  Z"
/>
<path fill="#073ace" d="
  M 215.87 313.54
  L 438.98 419.92
  Q 434.60 424.83 432.50 431.29
  L 209.81 324.90
  L 215.31 313.78
  Q 215.39 313.61 215.57 313.56
  Q 215.72 313.52 215.87 313.54
  Z"
/>
<circle fill="#f7ebf4" cx="73.73" cy="323.62" r="3.79"/>
<path fill="#073ace" d="
  M 149.29 321.00
  Q 165.23 368.24 181.65 415.31
  Q 185.18 425.41 188.13 434.22
  Q 198.53 465.24 208.84 496.34
  Q 208.88 496.45 208.80 496.54
  Q 208.73 496.63 208.53 496.57
  L 207.93 496.19
  L 148.68 321.23
  L 149.29 321.00
  Z"
/>
<path fill="#f7ebf4" d="
  M 428.05 335.84
  L 438.70 338.71
  A 0.81 0.81 0.0 0 1 438.71 340.27
  L 428.09 343.26
  A 0.81 0.81 0.0 0 0 427.52 343.83
  L 424.65 354.48
  A 0.81 0.81 0.0 0 1 423.09 354.49
  L 420.10 343.87
  A 0.81 0.81 0.0 0 0 419.53 343.30
  L 408.88 340.43
  A 0.81 0.81 0.0 0 1 408.87 338.87
  L 419.49 335.88
  A 0.81 0.81 0.0 0 0 420.06 335.31
  L 422.93 324.66
  A 0.81 0.81 0.0 0 1 424.49 324.65
  L 427.48 335.27
  A 0.81 0.81 0.0 0 0 428.05 335.84
  Z"
/>
<path fill="#f7ebf4" d="
  M 209.81 324.90
  L 432.50 431.29
  Q 432.25 431.67 432.17 432.08
  Q 432.10 432.40 431.78 432.38
  Q 431.66 432.38 431.52 432.32
  L 209.22 326.32
  Q 209.15 325.20 209.81 324.90
  Z"
/>
<path fill="#073ace" d="
  M 209.22 326.32
  L 431.52 432.32
  Q 432.65 432.78 432.52 434.24
  Q 432.07 439.37 435.04 444.29
  L 432.49 443.17
  L 204.91 335.29
  L 209.22 326.32
  Z"
/>
<circle fill="#f7ebf4" cx="88.44" cy="338.35" r="3.77"/>
<circle fill="#f7ebf4" cx="58.18" cy="339.51" r="3.79"/>
<circle fill="#f7ebf4" cx="107.28" cy="350.93" r="3.79"/>
<circle fill="#f7ebf4" cx="72.04" cy="354.76" r="3.77"/>
<path fill="#f7ebf4" d="
  M 141.57 368.72
  Q 142.89 375.97 146.40 381.03
  Q 148.42 381.61 150.36 381.42
  Q 150.11 382.10 151.69 382.35
  L 155.55 382.95
  L 156.12 384.76
  L 152.88 385.83
  Q 152.15 385.78 151.96 386.26
  L 148.73 387.26
  Q 147.95 387.32 147.78 387.67
  Q 144.18 388.01 144.22 389.64
  Q 142.35 394.37 141.31 398.52
  Q 141.08 399.46 140.44 399.83
  A 0.54 0.53 -23.7 0 1 139.66 399.53
  L 136.33 388.96
  A 1.01 0.98 89.2 0 0 135.67 388.30
  L 125.18 385.13
  A 0.71 0.70 -78.3 0 1 124.69 384.37
  Q 124.75 383.87 125.25 383.74
  Q 130.53 382.40 136.17 380.89
  Q 136.69 380.75 136.88 380.25
  Q 138.43 376.19 138.35 372.27
  Q 139.01 371.03 139.55 369.88
  Q 139.87 369.19 140.34 368.98
  Q 140.85 368.76 141.57 368.72
  Z"
/>
<path fill="#9fb7ff" d="
  M 156.12 384.76
  L 192.80 493.01
  Q 191.31 493.75 189.03 492.90
  L 152.88 385.83
  L 156.12 384.76
  Z"
/>
<path fill="#111c49" d="
  M 152.88 385.83
  L 189.03 492.90
  Q 188.27 493.18 187.95 492.47
  L 151.96 386.26
  Q 152.15 385.78 152.88 385.83
  Z"
/>
<path fill="#9fb7ff" d="
  M 151.96 386.26
  L 187.95 492.47
  Q 186.16 492.76 183.94 492.05
  L 148.73 387.26
  L 151.96 386.26
  Z"
/>
<path fill="#111c49" d="
  M 148.73 387.26
  L 183.94 492.05
  Q 183.00 492.00 182.99 491.28
  L 147.78 387.67
  Q 147.95 387.32 148.73 387.26
  Z"
/>
<path fill="#9fb7ff" d="
  M 147.78 387.67
  L 182.99 491.28
  Q 181.29 492.10 179.66 491.28
  Q 179.21 491.05 179.04 490.56
  Q 171.47 468.41 163.87 446.27
  Q 163.73 445.84 163.10 445.50
  L 144.22 389.64
  Q 144.18 388.01 147.78 387.67
  Z"
/>
<path fill="#9fb7ff" d="
  M 450.97 414.73
  L 447.07 422.89
  Q 436.77 425.16 440.38 437.07
  L 436.77 444.50
  Q 436.54 444.98 436.02 444.92
  Q 435.14 444.83 435.04 444.29
  Q 432.07 439.37 432.52 434.24
  Q 432.65 432.78 431.52 432.32
  Q 431.66 432.38 431.78 432.38
  Q 432.10 432.40 432.17 432.08
  Q 432.25 431.67 432.50 431.29
  Q 434.60 424.83 438.98 419.92
  Q 439.86 419.69 440.15 418.97
  Q 442.92 416.63 447.73 414.43
  Q 449.67 413.54 450.97 414.73
  Z"
/>
<path fill="#4c226c" d="
  M 447.07 422.89
  L 440.38 437.07
  Q 436.77 425.16 447.07 422.89
  Z"
/>
</svg>
