<?xml version="1.0" encoding="UTF-8" standalone="no"?>
<!DOCTYPE svg PUBLIC "-//W3C//DTD SVG 1.1//EN" "http://www.w3.org/Graphics/SVG/1.1/DTD/svg11.dtd">
<svg xmlns="http://www.w3.org/2000/svg" version="1.1" viewBox="0.00 0.00 512.00 512.00">
<g stroke-width="2.00" fill="none" stroke-linecap="butt">
<path stroke="#2456e7" vector-effect="non-scaling-stroke" d="
  M 400.71 168.64
  Q 397.07 169.46 393.46 170.79
  Q 390.75 171.80 388.70 171.61
  Q 385.89 171.35 383.04 170.69
  Q 369.39 167.49 357.85 160.90
  Q 338.29 149.73 332.81 127.73
  Q 330.61 118.94 331.92 111.43"
/>
<path stroke="#2456e7" vector-effect="non-scaling-stroke" d="
  M 358.09 191.29
  Q 358.05 191.13 358.01 191.04
  Q 357.98 190.96 357.90 190.95
  Q 347.39 188.69 338.90 182.11
  Q 323.21 169.98 315.14 151.57"
/>
<path stroke="#7094ff" vector-effect="non-scaling-stroke" d="
  M 336.64 223.75
  Q 336.55 223.54 336.21 223.70
  Q 336.02 223.79 335.91 223.96
  C 330.88 231.73 324.57 238.36 314.90 238.75
  Q 307.68 239.04 298.46 235.53
  C 278.18 227.79 266.69 211.19 265.42 189.00
  C 265.12 183.76 267.62 179.67 271.70 176.70
  Q 276.50 173.21 280.92 171.03"
/>
<path stroke="#2456e7" vector-effect="non-scaling-stroke" d="
  M 310.48 155.42
  Q 305.36 159.32 299.67 162.15
  Q 290.25 166.82 280.92 171.03"
/>
<path stroke="#5379e7" vector-effect="non-scaling-stroke" d="
  M 280.92 171.03
  C 271.25 165.80 261.40 160.70 250.82 158.07
  C 239.20 155.19 230.79 160.02 228.02 171.68
  Q 224.22 187.64 228.26 202.06
  C 236.92 232.92 267.96 261.94 297.70 271.63
  C 309.57 275.50 322.93 276.16 333.56 269.42
  C 351.29 258.19 346.02 238.49 336.64 223.75"
/>
<path stroke="#2456e7" vector-effect="non-scaling-stroke" d="
  M 336.64 223.75
  Q 336.73 222.83 336.87 222.60
  Q 341.36 215.21 345.85 207.82
  Q 350.28 200.53 355.53 194.27"
/>
<path stroke="#2456e7" vector-effect="non-scaling-stroke" d="
  M 393.06 342.99
  Q 382.61 353.09 370.50 355.98
  C 357.64 359.04 344.76 357.39 332.44 353.09
  Q 316.69 347.59 300.76 338.32
  C 267.19 318.79 236.35 292.32 210.18 263.22
  Q 194.69 245.99 182.60 227.95
  C 172.48 212.87 164.29 197.32 159.68 180.48
  Q 155.88 166.60 157.76 153.00
  Q 159.19 142.70 167.04 132.72"
/>
<path stroke="#2947a4" vector-effect="non-scaling-stroke" d="
  M 303.99 387.40
  Q 289.64 386.66 276.02 383.32"
/>
<path stroke="#3253be" vector-effect="non-scaling-stroke" d="
  M 276.02 383.32
  Q 244.74 373.59 218.96 354.32
  C 218.60 354.05 217.80 353.84 217.37 353.77"
/>
<path stroke="#7094ff" vector-effect="non-scaling-stroke" d="
  M 217.37 353.77
  L 195.11 335.49"
/>
<path stroke="#3253be" vector-effect="non-scaling-stroke" d="
  M 195.11 335.49
  Q 194.98 334.70 194.37 334.14
  Q 167.14 309.39 149.04 277.96
  Q 146.10 272.86 136.51 253.57"
/>
<path stroke="#2947a4" vector-effect="non-scaling-stroke" d="
  M 136.51 253.57
  L 130.22 239.04"
/>
<path stroke="#1a2863" vector-effect="non-scaling-stroke" d="
  M 136.51 253.57
  Q 123.90 251.95 110.98 256.47
  Q 80.90 266.99 64.40 291.49
  C 54.69 305.90 47.50 322.01 42.89 338.52
  Q 40.20 348.15 40.06 356.79
  Q 40.05 357.59 40.43 358.32
  A 0.77 0.77 0.0 0 0 41.76 358.36
  Q 45.12 352.81 47.95 346.26
  Q 56.68 326.04 64.16 311.59
  Q 67.57 304.99 71.88 298.48
  Q 77.82 289.47 87.30 282.91
  C 102.38 272.46 125.66 265.25 139.89 281.38
  Q 141.92 283.67 147.44 294.06
  Q 162.46 322.32 185.11 345.26"
/>
<path stroke="#586aa4" vector-effect="non-scaling-stroke" d="
  M 185.11 345.26
  Q 168.30 361.72 150.31 377.55
  C 147.65 379.88 143.16 382.36 139.67 380.49
  Q 134.89 377.93 129.97 372.38
  Q 121.84 363.23 114.02 355.13
  C 109.32 350.26 102.78 344.95 95.55 347.21
  C 89.72 349.04 94.76 361.18 96.23 364.44
  Q 108.29 391.29 127.93 410.56
  Q 132.28 414.83 138.29 418.64
  Q 144.17 422.37 150.72 418.98
  Q 157.94 415.24 163.54 410.57
  Q 179.08 397.65 193.07 382.04
  Q 200.91 373.29 208.00 364.96"
/>
<path stroke="#1a2863" vector-effect="non-scaling-stroke" d="
  M 208.00 364.96
  Q 218.77 373.95 231.24 377.75
  Q 252.43 384.21 276.02 383.32"
/>
<path stroke="#6176be" vector-effect="non-scaling-stroke" d="
  M 195.11 335.49
  L 185.11 345.26"
/>
<path stroke="#6176be" vector-effect="non-scaling-stroke" d="
  M 217.37 353.77
  L 208.00 364.96"
/>
<path stroke="#1a2863" vector-effect="non-scaling-stroke" d="
  M 53.64 421.59
  C 62.68 438.13 76.07 452.57 92.86 461.01
  Q 101.17 465.19 112.08 467.87
  Q 113.90 468.32 115.76 468.23
  A 0.83 0.82 -19.4 0 0 116.39 466.92
  Q 114.51 464.35 111.84 462.17
  C 99.73 452.30 87.07 443.05 75.47 432.06
  C 69.78 426.67 65.58 421.45 62.24 414.09
  C 58.71 406.29 54.06 397.84 48.60 391.20
  Q 47.68 390.08 46.48 389.37
  Q 44.19 388.02 44.21 390.68
  C 44.30 401.68 48.44 412.08 53.64 421.59"
/>
<path stroke="#1a2863" vector-effect="non-scaling-stroke" d="
  M 261.37 437.34
  C 247.02 451.68 227.87 463.61 207.58 466.74
  Q 204.37 467.23 201.63 468.89
  A 0.94 0.94 0.0 0 0 201.67 470.52
  Q 203.43 471.46 205.50 471.68
  C 217.01 472.85 229.83 468.88 239.62 463.14
  Q 257.07 452.91 266.87 435.15
  Q 270.23 429.05 270.88 423.28
  Q 271.03 421.87 269.99 422.84
  Q 268.85 423.89 268.54 425.25
  Q 267.11 431.60 261.37 437.34"
/>
</g>
<path fill="#4071ff" d="
  M 400.71 168.64
  Q 397.07 169.46 393.46 170.79
  Q 390.75 171.80 388.70 171.61
  Q 385.89 171.35 383.04 170.69
  Q 369.39 167.49 357.85 160.90
  Q 338.29 149.73 332.81 127.73
  Q 330.61 118.94 331.92 111.43
  Q 336.39 92.24 341.77 76.25
  Q 344.39 68.48 348.85 59.60
  C 356.07 45.19 366.70 34.69 381.91 29.04
  Q 396.48 23.64 411.89 24.56
  C 442.26 26.39 466.42 44.63 478.70 72.20
  C 485.07 86.49 489.50 103.67 485.68 118.73
  C 479.96 141.33 455.70 151.95 435.76 158.30
  Q 418.38 163.84 400.71 168.64
  Z"
/>
<path fill="#073ace" d="
  M 331.92 111.43
  Q 330.61 118.94 332.81 127.73
  Q 338.29 149.73 357.85 160.90
  Q 369.39 167.49 383.04 170.69
  Q 385.89 171.35 388.70 171.61
  Q 390.75 171.80 393.46 170.79
  Q 397.07 169.46 400.71 168.64
  Q 401.54 169.22 401.85 170.19
  Q 402.00 170.67 401.78 171.12
  Q 399.96 174.76 396.68 177.77
  Q 380.75 192.40 358.75 190.98
  Q 358.29 190.95 358.09 191.29
  Q 358.05 191.13 358.01 191.04
  Q 357.98 190.96 357.90 190.95
  Q 347.39 188.69 338.90 182.11
  Q 323.21 169.98 315.14 151.57
  Q 313.36 146.37 313.06 144.14
  C 311.71 134.17 319.25 120.77 325.17 112.62
  Q 327.23 109.78 330.00 107.58
  A 1.05 1.05 0.0 0 1 331.70 108.33
  L 331.92 111.43
  Z"
/>
<path fill="#073ace" d="
  M 310.48 155.42
  Q 305.36 159.32 299.67 162.15
  Q 290.25 166.82 280.92 171.03
  C 271.25 165.80 261.40 160.70 250.82 158.07
  C 239.20 155.19 230.79 160.02 228.02 171.68
  Q 224.22 187.64 228.26 202.06
  C 236.92 232.92 267.96 261.94 297.70 271.63
  C 309.57 275.50 322.93 276.16 333.56 269.42
  C 351.29 258.19 346.02 238.49 336.64 223.75
  Q 336.73 222.83 336.87 222.60
  Q 341.36 215.21 345.85 207.82
  Q 350.28 200.53 355.53 194.27
  Q 372.76 211.69 385.73 232.28
  C 402.67 259.17 415.16 295.80 402.88 326.83
  Q 399.31 335.85 393.06 342.99
  Q 382.61 353.09 370.50 355.98
  C 357.64 359.04 344.76 357.39 332.44 353.09
  Q 316.69 347.59 300.76 338.32
  C 267.19 318.79 236.35 292.32 210.18 263.22
  Q 194.69 245.99 182.60 227.95
  C 172.48 212.87 164.29 197.32 159.68 180.48
  Q 155.88 166.60 157.76 153.00
  Q 159.19 142.70 167.04 132.72
  Q 177.26 121.10 191.49 117.94
  Q 206.66 114.57 224.02 117.87
  C 254.73 123.69 284.41 138.22 310.48 155.42
  Z"
/>
<path fill="#4071ff" d="
  M 167.04 132.72
  Q 159.19 142.70 157.76 153.00
  Q 155.88 166.60 159.68 180.48
  C 164.29 197.32 172.48 212.87 182.60 227.95
  Q 194.69 245.99 210.18 263.22
  C 236.35 292.32 267.19 318.79 300.76 338.32
  Q 316.69 347.59 332.44 353.09
  C 344.76 357.39 357.64 359.04 370.50 355.98
  Q 382.61 353.09 393.06 342.99
  C 370.98 370.97 340.34 388.30 303.99 387.40
  Q 289.64 386.66 276.02 383.32
  Q 244.74 373.59 218.96 354.32
  C 218.60 354.05 217.80 353.84 217.37 353.77
  L 195.11 335.49
  Q 194.98 334.70 194.37 334.14
  Q 167.14 309.39 149.04 277.96
  Q 146.10 272.86 136.51 253.57
  L 130.22 239.04
  C 126.04 227.74 122.78 216.55 122.64 204.61
  C 122.30 174.96 144.27 149.12 167.04 132.72
  Z"
/>
<path fill="#4071ff" d="
  M 315.14 151.57
  Q 323.21 169.98 338.90 182.11
  Q 347.39 188.69 357.90 190.95
  Q 357.98 190.96 358.01 191.04
  Q 358.05 191.13 358.09 191.29
  L 355.53 194.27
  Q 350.28 200.53 345.85 207.82
  Q 341.36 215.21 336.87 222.60
  Q 336.73 222.83 336.64 223.75
  Q 336.55 223.54 336.21 223.70
  Q 336.02 223.79 335.91 223.96
  C 330.88 231.73 324.57 238.36 314.90 238.75
  Q 307.68 239.04 298.46 235.53
  C 278.18 227.79 266.69 211.19 265.42 189.00
  C 265.12 183.76 267.62 179.67 271.70 176.70
  Q 276.50 173.21 280.92 171.03
  Q 290.25 166.82 299.67 162.15
  Q 305.36 159.32 310.48 155.42
  L 315.14 151.57
  Z"
/>
<path fill="#9fb7ff" d="
  M 280.92 171.03
  Q 276.50 173.21 271.70 176.70
  C 267.62 179.67 265.12 183.76 265.42 189.00
  C 266.69 211.19 278.18 227.79 298.46 235.53
  Q 307.68 239.04 314.90 238.75
  C 324.57 238.36 330.88 231.73 335.91 223.96
  Q 336.02 223.79 336.21 223.70
  Q 336.55 223.54 336.64 223.75
  C 346.02 238.49 351.29 258.19 333.56 269.42
  C 322.93 276.16 309.57 275.50 297.70 271.63
  C 267.96 261.94 236.92 232.92 228.26 202.06
  Q 224.22 187.64 228.02 171.68
  C 230.79 160.02 239.20 155.19 250.82 158.07
  C 261.40 160.70 271.25 165.80 280.92 171.03
  Z"
/>
<path fill="#111c49" d="
  M 130.22 239.04
  L 136.51 253.57
  Q 123.90 251.95 110.98 256.47
  Q 80.90 266.99 64.40 291.49
  C 54.69 305.90 47.50 322.01 42.89 338.52
  Q 40.20 348.15 40.06 356.79
  Q 40.05 357.59 40.43 358.32
  A 0.77 0.77 0.0 0 0 41.76 358.36
  Q 45.12 352.81 47.95 346.26
  Q 56.68 326.04 64.16 311.59
  Q 67.57 304.99 71.88 298.48
  Q 77.82 289.47 87.30 282.91
  C 102.38 272.46 125.66 265.25 139.89 281.38
  Q 141.92 283.67 147.44 294.06
  Q 162.46 322.32 185.11 345.26
  Q 168.30 361.72 150.31 377.55
  C 147.65 379.88 143.16 382.36 139.67 380.49
  Q 134.89 377.93 129.97 372.38
  Q 121.84 363.23 114.02 355.13
  C 109.32 350.26 102.78 344.95 95.55 347.21
  C 89.72 349.04 94.76 361.18 96.23 364.44
  Q 108.29 391.29 127.93 410.56
  Q 132.28 414.83 138.29 418.64
  Q 144.17 422.37 150.72 418.98
  Q 157.94 415.24 163.54 410.57
  Q 179.08 397.65 193.07 382.04
  Q 200.91 373.29 208.00 364.96
  Q 218.77 373.95 231.24 377.75
  Q 252.43 384.21 276.02 383.32
  Q 289.64 386.66 303.99 387.40
  C 300.38 445.44 253.06 482.39 197.49 486.48
  Q 185.08 487.39 168.01 487.64
  Q 131.44 488.18 98.49 476.48
  Q 83.00 470.99 68.21 460.55
  C 42.61 442.49 28.95 414.81 25.86 383.74
  C 20.63 331.28 39.64 282.87 85.01 255.51
  Q 104.66 243.66 130.22 239.04
  Z
  M 53.64 421.59
  C 62.68 438.13 76.07 452.57 92.86 461.01
  Q 101.17 465.19 112.08 467.87
  Q 113.90 468.32 115.76 468.23
  A 0.83 0.82 -19.4 0 0 116.39 466.92
  Q 114.51 464.35 111.84 462.17
  C 99.73 452.30 87.07 443.05 75.47 432.06
  C 69.78 426.67 65.58 421.45 62.24 414.09
  C 58.71 406.29 54.06 397.84 48.60 391.20
  Q 47.68 390.08 46.48 389.37
  Q 44.19 388.02 44.21 390.68
  C 44.30 401.68 48.44 412.08 53.64 421.59
  Z
  M 261.37 437.34
  C 247.02 451.68 227.87 463.61 207.58 466.74
  Q 204.37 467.23 201.63 468.89
  A 0.94 0.94 0.0 0 0 201.67 470.52
  Q 203.43 471.46 205.50 471.68
  C 217.01 472.85 229.83 468.88 239.62 463.14
  Q 257.07 452.91 266.87 435.15
  Q 270.23 429.05 270.88 423.28
  Q 271.03 421.87 269.99 422.84
  Q 268.85 423.89 268.54 425.25
  Q 267.11 431.60 261.37 437.34
  Z"
/>
<path fill="#23347c" d="
  M 136.51 253.57
  Q 146.10 272.86 149.04 277.96
  Q 167.14 309.39 194.37 334.14
  Q 194.98 334.70 195.11 335.49
  L 185.11 345.26
  Q 162.46 322.32 147.44 294.06
  Q 141.92 283.67 139.89 281.38
  C 125.66 265.25 102.38 272.46 87.30 282.91
  Q 77.82 289.47 71.88 298.48
  Q 67.57 304.99 64.16 311.59
  Q 56.68 326.04 47.95 346.26
  Q 45.12 352.81 41.76 358.36
  A 0.77 0.77 0.0 0 1 40.43 358.32
  Q 40.05 357.59 40.06 356.79
  Q 40.20 348.15 42.89 338.52
  C 47.50 322.01 54.69 305.90 64.40 291.49
  Q 80.90 266.99 110.98 256.47
  Q 123.90 251.95 136.51 253.57
  Z"
/>
<path fill="#9fb7ff" d="
  M 195.11 335.49
  L 217.37 353.77
  L 208.00 364.96
  Q 200.91 373.29 193.07 382.04
  Q 179.08 397.65 163.54 410.57
  Q 157.94 415.24 150.72 418.98
  Q 144.17 422.37 138.29 418.64
  Q 132.28 414.83 127.93 410.56
  Q 108.29 391.29 96.23 364.44
  C 94.76 361.18 89.72 349.04 95.55 347.21
  C 102.78 344.95 109.32 350.26 114.02 355.13
  Q 121.84 363.23 129.97 372.38
  Q 134.89 377.93 139.67 380.49
  C 143.16 382.36 147.65 379.88 150.31 377.55
  Q 168.30 361.72 185.11 345.26
  L 195.11 335.49
  Z"
/>
<path fill="#23347c" d="
  M 217.37 353.77
  C 217.80 353.84 218.60 354.05 218.96 354.32
  Q 244.74 373.59 276.02 383.32
  Q 252.43 384.21 231.24 377.75
  Q 218.77 373.95 208.00 364.96
  L 217.37 353.77
  Z"
/>
<path fill="#23347c" d="
  M 53.64 421.59
  C 48.44 412.08 44.30 401.68 44.21 390.68
  Q 44.19 388.02 46.48 389.37
  Q 47.68 390.08 48.60 391.20
  C 54.06 397.84 58.71 406.29 62.24 414.09
  C 65.58 421.45 69.78 426.67 75.47 432.06
  C 87.07 443.05 99.73 452.30 111.84 462.17
  Q 114.51 464.35 116.39 466.92
  A 0.83 0.82 -19.4 0 1 115.76 468.23
  Q 113.90 468.32 112.08 467.87
  Q 101.17 465.19 92.86 461.01
  C 76.07 452.57 62.68 438.13 53.64 421.59
  Z"
/>
<path fill="#23347c" d="
  M 207.58 466.74
  C 227.87 463.61 247.02 451.68 261.37 437.34
  Q 267.11 431.60 268.54 425.25
  Q 268.85 423.89 269.99 422.84
  Q 271.03 421.87 270.88 423.28
  Q 270.23 429.05 266.87 435.15
  Q 257.07 452.91 239.62 463.14
  C 229.83 468.88 217.01 472.85 205.50 471.68
  Q 203.43 471.46 201.67 470.52
  A 0.94 0.94 0.0 0 1 201.63 468.89
  Q 204.37 467.23 207.58 466.74
  Z"
/>
</svg>
