<?xml version="1.0" encoding="UTF-8" standalone="no"?>
<!DOCTYPE svg PUBLIC "-//W3C//DTD SVG 1.1//EN" "http://www.w3.org/Graphics/SVG/1.1/DTD/svg11.dtd">
<svg xmlns="http://www.w3.org/2000/svg" version="1.1" viewBox="0.00 0.00 512.00 512.00">
<g stroke-width="2.00" fill="none" stroke-linecap="butt">
<path stroke="#f4f7ff" vector-effect="non-scaling-stroke" d="
  M 162.57 143.25
  L 151.17 143.22
  A 0.73 0.73 0.0 0 0 150.44 143.95
  L 150.50 158.90"
/>
<path stroke="#cfdbff" vector-effect="non-scaling-stroke" d="
  M 150.50 158.90
  L 137.49 178.23"
/>
<path stroke="#f4f7ff" vector-effect="non-scaling-stroke" d="
  M 137.49 178.23
  Q 136.74 178.18 136.75 177.74
  Q 136.82 160.68 136.71 142.99
  Q 136.70 142.49 136.21 142.49
  L 86.19 142.48
  A 0.72 0.71 -0.0 0 0 85.47 143.19
  L 85.54 270.02"
/>
<path stroke="#cfdbff" vector-effect="non-scaling-stroke" d="
  M 85.54 270.02
  L 65.32 289.97"
/>
<path stroke="#919abe" vector-effect="non-scaling-stroke" d="
  M 65.32 289.97
  L 65.05 184.39
  Q 65.05 183.74 65.69 183.74
  L 72.97 183.74
  Q 73.72 183.74 73.47 183.04
  L 63.15 154.26
  Q 62.82 153.35 62.50 154.26
  L 52.17 183.07
  Q 51.93 183.74 52.65 183.74
  L 59.99 183.74
  Q 60.51 183.74 60.51 184.27
  L 60.50 294.85"
/>
<path stroke="#cfdbff" vector-effect="non-scaling-stroke" d="
  M 60.50 294.85
  Q 41.80 316.35 32.19 342.75
  C 22.11 370.44 17.67 400.30 16.95 429.66
  Q 16.94 430.02 17.31 430.02
  L 293.94 430.04"
/>
<path stroke="#919abe" vector-effect="non-scaling-stroke" d="
  M 293.94 430.04
  Q 294.79 430.38 296.55 429.92"
/>
<path stroke="#cfdbff" vector-effect="non-scaling-stroke" d="
  M 296.55 429.92
  L 387.96 430.01"
/>
<path stroke="#f4f7ff" vector-effect="non-scaling-stroke" d="
  M 387.96 430.01
  L 386.22 437.52
  Q 385.71 439.73 387.33 438.15
  L 395.71 430.01"
/>
<path stroke="#cfdbff" vector-effect="non-scaling-stroke" d="
  M 395.71 430.01
  L 498.92 429.94
  Q 499.43 429.94 499.48 429.44
  Q 504.58 381.16 499.38 332.73"
/>
<path stroke="#839de7" vector-effect="non-scaling-stroke" d="
  M 499.38 332.73
  Q 504.77 330.75 505.35 325.81
  Q 506.35 317.38 497.52 315.52"
/>
<path stroke="#cfdbff" vector-effect="non-scaling-stroke" d="
  M 497.52 315.52
  Q 497.12 310.62 496.03 302.75
  Q 491.26 268.40 484.61 236.99
  Q 483.95 233.86 482.92 230.72"
/>
<path stroke="#a0b8ff" vector-effect="non-scaling-stroke" d="
  M 482.92 230.72
  C 494.90 216.66 490.81 194.41 473.17 187.15
  Q 471.21 186.35 469.46 185.60"
/>
<path stroke="#cfdbff" vector-effect="non-scaling-stroke" d="
  M 469.46 185.60
  L 461.57 166.89"
/>
<path stroke="#a0b8ff" vector-effect="non-scaling-stroke" d="
  M 461.57 166.89
  C 474.91 167.02 486.02 158.48 489.07 145.76
  C 493.79 126.03 476.46 108.48 456.62 112.55
  Q 443.76 115.18 437.13 128.26"
/>
<path stroke="#cfdbff" vector-effect="non-scaling-stroke" d="
  M 437.13 128.26
  L 423.35 114.01"
/>
<path stroke="#f4f7ff" vector-effect="non-scaling-stroke" d="
  M 423.35 114.01
  L 423.32 110.20
  Q 423.31 109.64 422.75 109.65
  L 418.44 109.76"
/>
<path stroke="#cfdbff" vector-effect="non-scaling-stroke" d="
  M 418.44 109.76
  Q 397.39 92.98 372.00 84.31
  C 346.72 75.68 319.92 72.32 293.12 72.88
  Q 273.16 73.29 256.08 77.36
  C 217.90 86.46 187.23 114.06 162.57 143.25"
/>
<path stroke="#c4d3ff" vector-effect="non-scaling-stroke" d="
  M 418.44 109.76
  L 289.78 109.78
  Q 289.25 109.78 289.25 110.30
  L 289.25 172.09
  Q 289.25 172.68 289.84 172.68
  L 422.96 172.68
  Q 423.39 172.68 423.39 172.25
  L 423.35 114.01"
/>
<path stroke="#7094ff" vector-effect="non-scaling-stroke" d="
  M 437.13 128.26
  Q 431.54 142.05 438.88 153.87
  Q 446.47 166.12 461.57 166.89"
/>
<path stroke="#7094ff" vector-effect="non-scaling-stroke" d="
  M 469.46 185.60
  Q 453.04 182.65 442.81 193.07
  Q 437.71 198.25 435.94 204.73
  C 428.18 233.13 462.97 251.97 482.92 230.72"
/>
<path stroke="#5379e7" vector-effect="non-scaling-stroke" d="
  M 497.52 315.52
  C 482.84 315.91 486.66 336.36 499.38 332.73"
/>
<path stroke="#c4d3ff" vector-effect="non-scaling-stroke" d="
  M 395.71 430.01
  L 410.13 416.04
  Q 410.49 415.69 410.99 415.67
  L 482.42 413.42
  Q 482.99 413.40 482.99 412.83
  L 482.22 336.10
  Q 482.22 335.49 481.60 335.49
  L 329.18 335.49
  Q 328.61 335.49 328.63 336.06
  L 332.41 413.78
  A 0.44 0.43 88.6 0 0 332.84 414.20
  L 390.81 414.18
  A 0.40 0.40 0.0 0 1 391.20 414.66
  L 387.96 430.01"
/>
<path stroke="#6176be" vector-effect="non-scaling-stroke" d="
  M 296.55 429.92
  L 322.95 420.25
  Q 324.63 419.63 322.95 419.02
  L 294.66 408.88
  A 0.41 0.41 0.0 0 0 294.11 409.27
  L 294.11 417.93
  A 0.30 0.29 -90.0 0 1 293.82 418.23
  L 65.31 418.23
  A 0.28 0.27 90.0 0 1 65.04 417.95
  L 65.32 289.97"
/>
<path stroke="#c4d3ff" vector-effect="non-scaling-stroke" d="
  M 85.54 270.02
  L 85.54 410.09
  Q 85.54 410.74 86.19 410.74
  L 136.21 410.74
  Q 136.74 410.74 136.74 410.21
  Q 136.77 295.97 136.75 181.75
  Q 136.75 179.62 137.49 178.23"
/>
<path stroke="#c4d3ff" vector-effect="non-scaling-stroke" d="
  M 150.50 158.90
  L 150.53 410.22
  Q 150.53 410.74 151.05 410.74
  L 201.25 410.74
  Q 201.74 410.74 201.74 410.25
  L 201.74 143.79
  Q 201.74 143.32 201.27 143.32
  L 162.57 143.25"
/>
<path stroke="#6176be" vector-effect="non-scaling-stroke" d="
  M 293.94 430.04
  L 294.03 423.27
  Q 294.04 422.75 293.52 422.75
  L 63.02 422.75
  A 2.50 2.50 0.0 0 1 60.52 420.25
  L 60.50 294.85"
/>
<path stroke="#6176be" vector-effect="non-scaling-stroke" d="
  M 264.00 106.63
  A 8.76 8.76 0.0 0 0 255.24 97.87
  A 8.76 8.76 0.0 0 0 246.48 106.63
  A 8.76 8.76 0.0 0 0 255.24 115.39
  A 8.76 8.76 0.0 0 0 264.00 106.63"
/>
<path stroke="#cfdbff" vector-effect="non-scaling-stroke" d="
  M 264.15 392.93
  L 264.24 220.56"
/>
<path stroke="#c4d3ff" vector-effect="non-scaling-stroke" d="
  M 264.24 220.56
  L 264.36 142.66
  Q 264.36 142.06 263.76 142.06
  L 213.47 142.06
  A 0.23 0.23 0.0 0 0 213.24 142.29
  L 213.24 410.25
  Q 213.24 410.76 213.75 410.76
  L 263.81 410.68
  Q 264.41 410.68 264.40 410.08
  L 264.15 392.93"
/>
<path stroke="#f4f7ff" vector-effect="non-scaling-stroke" d="
  M 264.24 220.56
  Q 263.73 219.79 263.82 218.58
  Q 263.86 218.08 263.37 217.95
  Q 261.70 217.52 260.59 219.30"
/>
<path stroke="#8691be" vector-effect="non-scaling-stroke" d="
  M 260.59 219.30
  L 260.44 214.93
  A 0.65 0.65 0.0 0 0 259.79 214.30
  L 217.50 214.26
  A 0.50 0.50 0.0 0 0 217.00 214.76
  L 217.02 402.27
  A 0.76 0.75 90.0 0 0 217.77 403.03
  L 258.96 403.18
  Q 260.39 403.18 260.41 401.75
  L 260.53 394.93"
/>
<path stroke="#f4f7ff" vector-effect="non-scaling-stroke" d="
  M 260.53 394.93
  Q 263.07 395.23 264.15 392.93"
/>
<path stroke="#919abe" vector-effect="non-scaling-stroke" d="
  M 260.59 219.30
  L 260.53 394.93"
/>
<path stroke="#c4d3ff" vector-effect="non-scaling-stroke" d="
  M 423.05 246.67
  A 0.33 0.33 0.0 0 0 423.38 246.34
  L 423.36 183.88
  A 0.33 0.33 0.0 0 0 423.03 183.55
  L 289.58 183.55
  A 0.33 0.33 0.0 0 0 289.25 183.88
  L 289.25 246.34
  A 0.33 0.33 0.0 0 0 289.58 246.67
  L 423.05 246.67"
/>
<path stroke="#c4d3ff" vector-effect="non-scaling-stroke" d="
  M 423.05 319.99
  A 0.32 0.32 0.0 0 0 423.37 319.67
  L 423.37 257.26
  A 0.32 0.32 0.0 0 0 423.05 256.94
  L 289.57 256.94
  A 0.32 0.32 0.0 0 0 289.25 257.26
  L 289.25 319.67
  A 0.32 0.32 0.0 0 0 289.57 319.99
  L 423.05 319.99"
/>
<path stroke="#7094ff" vector-effect="non-scaling-stroke" d="
  M 489.85 286.52
  A 27.50 27.50 0.0 0 0 462.35 259.02
  A 27.50 27.50 0.0 0 0 434.85 286.52
  A 27.50 27.50 0.0 0 0 462.35 314.02
  A 27.50 27.50 0.0 0 0 489.85 286.52"
/>
<path stroke="#94b0ff" vector-effect="non-scaling-stroke" d="
  M 397.73 128.14
  A 1.72 1.72 0.0 0 0 396.01 126.42
  L 314.69 126.42
  A 1.72 1.72 0.0 0 0 312.97 128.14
  L 312.97 128.54
  A 1.72 1.72 0.0 0 0 314.69 130.26
  L 396.01 130.26
  A 1.72 1.72 0.0 0 0 397.73 128.54
  L 397.73 128.14"
/>
<path stroke="#94b0ff" vector-effect="non-scaling-stroke" d="
  M 397.75 138.92
  A 1.76 1.76 0.0 0 0 395.99 137.16
  L 314.73 137.16
  A 1.76 1.76 0.0 0 0 312.97 138.92
  L 312.97 139.20
  A 1.76 1.76 0.0 0 0 314.73 140.96
  L 395.99 140.96
  A 1.76 1.76 0.0 0 0 397.75 139.20
  L 397.75 138.92"
/>
<path stroke="#94b0ff" vector-effect="non-scaling-stroke" d="
  M 397.73 149.48
  A 1.69 1.69 0.0 0 0 396.04 147.79
  L 314.66 147.79
  A 1.69 1.69 0.0 0 0 312.97 149.48
  L 312.97 149.88
  A 1.69 1.69 0.0 0 0 314.66 151.57
  L 396.04 151.57
  A 1.69 1.69 0.0 0 0 397.73 149.88
  L 397.73 149.48"
/>
<path stroke="#94b0ff" vector-effect="non-scaling-stroke" d="
  M 462.96 131.97
  L 462.99 150.57
  Q 462.99 151.91 464.32 151.73
  L 464.85 151.66
  Q 466.07 151.50 466.08 150.27
  L 466.22 127.46
  A 1.37 1.37 0.0 0 0 464.77 126.09
  Q 463.24 126.18 462.19 127.28
  Q 458.53 131.14 455.46 134.62
  Q 454.60 135.58 455.14 136.75
  Q 455.23 136.93 455.41 137.02
  Q 456.86 137.72 458.07 136.45
  Q 460.33 134.08 462.37 131.74
  Q 462.96 131.06 462.96 131.97"
/>
<path stroke="#94b0ff" vector-effect="non-scaling-stroke" d="
  M 132.97 189.76
  A 0.43 0.43 0.0 0 0 132.54 189.33
  L 89.82 189.33
  A 0.43 0.43 0.0 0 0 89.39 189.76
  L 89.39 402.64
  A 0.43 0.43 0.0 0 0 89.82 403.07
  L 132.54 403.07
  A 0.43 0.43 0.0 0 0 132.97 402.64
  L 132.97 189.76"
/>
<path stroke="#7894e7" vector-effect="non-scaling-stroke" d="
  M 197.86 156.68
  A 0.46 0.46 0.0 0 0 197.40 156.22
  L 154.78 156.22
  A 0.46 0.46 0.0 0 0 154.32 156.68
  L 154.32 402.62
  A 0.46 0.46 0.0 0 0 154.78 403.08
  L 197.40 403.08
  A 0.46 0.46 0.0 0 0 197.86 402.62
  L 197.86 156.68"
/>
<path stroke="#94b0ff" vector-effect="non-scaling-stroke" d="
  M 397.74 202.96
  A 1.71 1.71 0.0 0 0 396.03 201.25
  L 314.67 201.25
  A 1.71 1.71 0.0 0 0 312.96 202.96
  L 312.96 203.34
  A 1.71 1.71 0.0 0 0 314.67 205.05
  L 396.03 205.05
  A 1.71 1.71 0.0 0 0 397.74 203.34
  L 397.74 202.96"
/>
<path stroke="#94b0ff" vector-effect="non-scaling-stroke" d="
  M 397.74 213.70
  A 1.74 1.74 0.0 0 0 396.00 211.96
  L 314.70 211.96
  A 1.74 1.74 0.0 0 0 312.96 213.70
  L 312.96 214.04
  A 1.74 1.74 0.0 0 0 314.70 215.78
  L 396.00 215.78
  A 1.74 1.74 0.0 0 0 397.74 214.04
  L 397.74 213.70"
/>
<path stroke="#94b0ff" vector-effect="non-scaling-stroke" d="
  M 397.74 224.39
  A 1.69 1.69 0.0 0 0 396.05 222.70
  L 314.67 222.70
  A 1.69 1.69 0.0 0 0 312.98 224.39
  L 312.98 224.79
  A 1.69 1.69 0.0 0 0 314.67 226.48
  L 396.05 226.48
  A 1.69 1.69 0.0 0 0 397.74 224.79
  L 397.74 224.39"
/>
<path stroke="#94b0ff" vector-effect="non-scaling-stroke" d="
  M 460.31 220.55
  Q 459.15 220.58 459.96 219.75
  Q 464.07 215.55 467.16 212.15
  C 469.98 209.04 471.09 203.05 467.69 199.76
  C 465.33 197.48 461.71 198.00 458.80 199.15
  A 4.64 4.58 -80.9 0 0 456.93 200.52
  Q 456.16 201.45 456.69 202.40
  A 1.43 1.42 55.6 0 0 458.86 202.81
  Q 462.39 199.83 465.22 202.09
  C 467.87 204.19 466.04 208.60 464.13 210.62
  Q 460.75 214.18 457.19 217.70
  Q 455.59 219.28 455.06 221.30
  Q 454.47 223.53 456.76 223.74
  Q 462.88 224.32 469.56 223.69
  A 1.75 1.71 -64.1 0 0 470.37 223.40
  Q 472.24 222.10 471.16 220.75
  A 1.14 1.13 70.2 0 0 470.25 220.32
  L 460.31 220.55"
/>
<path stroke="#94b0ff" vector-effect="non-scaling-stroke" d="
  M 397.75 274.92
  A 1.76 1.76 0.0 0 0 395.99 273.16
  L 314.73 273.16
  A 1.76 1.76 0.0 0 0 312.97 274.92
  L 312.97 275.20
  A 1.76 1.76 0.0 0 0 314.73 276.96
  L 395.99 276.96
  A 1.76 1.76 0.0 0 0 397.75 275.20
  L 397.75 274.92"
/>
<path stroke="#94b0ff" vector-effect="non-scaling-stroke" d="
  M 397.73 285.48
  A 1.69 1.69 0.0 0 0 396.04 283.79
  L 314.66 283.79
  A 1.69 1.69 0.0 0 0 312.97 285.48
  L 312.97 285.88
  A 1.69 1.69 0.0 0 0 314.66 287.57
  L 396.04 287.57
  A 1.69 1.69 0.0 0 0 397.73 285.88
  L 397.73 285.48"
/>
<path stroke="#94b0ff" vector-effect="non-scaling-stroke" d="
  M 397.73 296.19
  A 1.68 1.68 0.0 0 0 396.05 294.51
  L 314.65 294.51
  A 1.68 1.68 0.0 0 0 312.97 296.19
  L 312.97 296.63
  A 1.68 1.68 0.0 0 0 314.65 298.31
  L 396.05 298.31
  A 1.68 1.68 0.0 0 0 397.73 296.63
  L 397.73 296.19"
/>
<path stroke="#94b0ff" vector-effect="non-scaling-stroke" d="
  M 466.45 284.08
  A 0.39 0.39 0.0 0 1 466.45 283.38
  Q 467.89 282.62 468.29 281.07
  C 469.14 277.70 469.12 274.26 465.47 272.83
  Q 460.85 271.01 456.65 273.97
  Q 455.26 274.96 455.56 276.57
  Q 455.61 276.82 455.81 276.99
  Q 457.04 278.05 458.22 276.93
  Q 459.68 275.54 461.55 275.25
  C 467.12 274.38 466.41 282.15 461.02 282.77
  A 1.16 1.11 -70.8 0 0 460.35 283.11
  Q 459.87 283.61 459.92 284.15
  Q 460.03 285.57 461.46 285.55
  C 470.56 285.43 466.95 298.38 460.24 293.76
  Q 459.01 292.92 457.72 292.13
  A 1.43 1.42 -70.0 0 0 455.57 293.14
  C 455.19 295.68 459.27 297.44 461.19 297.71
  Q 467.45 298.60 469.55 292.43
  Q 471.49 286.72 466.45 284.08"
/>
<path stroke="#5379e7" vector-effect="non-scaling-stroke" d="
  M 50.74 389.41
  A 8.76 8.76 0.0 0 0 41.98 380.65
  A 8.76 8.76 0.0 0 0 33.22 389.41
  A 8.76 8.76 0.0 0 0 41.98 398.17
  A 8.76 8.76 0.0 0 0 50.74 389.41"
/>
<path stroke="#94b0ff" vector-effect="non-scaling-stroke" d="
  M 387.44 370.22
  A 5.09 5.09 0.0 0 0 382.35 365.13
  A 5.09 5.09 0.0 0 0 377.26 370.22
  A 5.09 5.09 0.0 0 0 382.35 375.31
  A 5.09 5.09 0.0 0 0 387.44 370.22"
/>
<path stroke="#94b0ff" vector-effect="non-scaling-stroke" d="
  M 412.39 370.22
  A 5.08 5.08 0.0 0 0 407.31 365.14
  A 5.08 5.08 0.0 0 0 402.23 370.22
  A 5.08 5.08 0.0 0 0 407.31 375.30
  A 5.08 5.08 0.0 0 0 412.39 370.22"
/>
<path stroke="#94b0ff" vector-effect="non-scaling-stroke" d="
  M 437.37 370.22
  A 5.08 5.08 0.0 0 0 432.29 365.14
  A 5.08 5.08 0.0 0 0 427.21 370.22
  A 5.08 5.08 0.0 0 0 432.29 375.30
  A 5.08 5.08 0.0 0 0 437.37 370.22"
/>
</g>
<path fill="#ffffff" d="
  M 512.00 372.87
  L 512.00 392.00
  Q 511.36 409.02 510.15 426.00
  C 509.52 434.89 506.12 443.50 495.58 443.50
  Q 445.88 443.51 398.14 443.50
  A 1.71 1.70 -69.3 0 0 396.86 444.08
  Q 392.60 448.92 388.34 451.35
  C 381.60 455.18 372.82 451.44 369.95 444.08
  Q 369.73 443.53 369.14 443.50
  C 346.71 442.37 323.37 442.59 301.72 442.89
  Q 206.52 444.19 133.98 444.68
  Q 98.02 444.92 57.50 443.67
  C 39.72 443.12 21.70 442.24 4.23 439.50
  A 1.37 1.33 74.4 0 1 3.39 439.01
  Q 1.59 436.77 1.03 434.00
  Q 0.40 430.85 0.00 427.62
  L 0.00 418.75
  Q 1.84 398.65 5.24 378.76
  C 10.70 346.74 22.79 315.41 43.37 290.09
  A 1.65 1.62 -26.1 0 0 43.73 289.07
  L 43.73 196.97
  Q 43.73 196.27 43.08 196.03
  C 32.27 191.92 35.50 179.01 38.30 170.99
  Q 39.59 167.33 44.83 154.73
  Q 45.55 152.98 46.06 151.10
  C 47.32 146.47 49.33 143.02 54.03 141.12
  Q 61.73 138.02 68.02 143.05
  Q 68.45 143.39 68.52 142.84
  Q 70.28 128.60 84.02 129.10
  Q 86.30 129.18 88.51 129.15
  C 102.90 128.89 119.42 128.18 134.75 129.49
  Q 137.93 129.77 140.58 131.04
  Q 141.05 131.27 141.50 131.01
  C 144.13 129.53 149.42 129.62 152.39 129.78
  Q 152.96 129.81 153.34 129.38
  C 170.21 110.53 187.90 94.02 208.32 81.44
  Q 227.18 69.83 246.58 65.24
  C 304.54 51.53 370.22 60.64 418.85 95.73
  Q 419.40 96.12 420.06 96.16
  Q 430.36 96.88 433.17 106.98
  A 0.41 0.40 63.8 0 0 433.80 107.20
  C 449.98 94.97 470.48 94.95 485.60 108.91
  Q 494.51 117.14 498.02 128.77
  C 503.85 148.10 495.29 166.02 477.96 175.55
  A 0.33 0.32 -45.3 0 0 477.96 176.12
  Q 489.12 182.12 494.53 192.50
  Q 505.25 213.07 494.36 233.06
  Q 494.12 233.51 494.22 234.01
  Q 497.68 250.79 500.74 267.50
  Q 510.30 319.77 512.00 372.87
  Z
  M 162.57 143.25
  L 151.17 143.22
  A 0.73 0.73 0.0 0 0 150.44 143.95
  L 150.50 158.90
  L 137.49 178.23
  Q 136.74 178.18 136.75 177.74
  Q 136.82 160.68 136.71 142.99
  Q 136.70 142.49 136.21 142.49
  L 86.19 142.48
  A 0.72 0.71 -0.0 0 0 85.47 143.19
  L 85.54 270.02
  L 65.32 289.97
  L 65.05 184.39
  Q 65.05 183.74 65.69 183.74
  L 72.97 183.74
  Q 73.72 183.74 73.47 183.04
  L 63.15 154.26
  Q 62.82 153.35 62.50 154.26
  L 52.17 183.07
  Q 51.93 183.74 52.65 183.74
  L 59.99 183.74
  Q 60.51 183.74 60.51 184.27
  L 60.50 294.85
  Q 41.80 316.35 32.19 342.75
  C 22.11 370.44 17.67 400.30 16.95 429.66
  Q 16.94 430.02 17.31 430.02
  L 293.94 430.04
  Q 294.79 430.38 296.55 429.92
  L 387.96 430.01
  L 386.22 437.52
  Q 385.71 439.73 387.33 438.15
  L 395.71 430.01
  L 498.92 429.94
  Q 499.43 429.94 499.48 429.44
  Q 504.58 381.16 499.38 332.73
  Q 504.77 330.75 505.35 325.81
  Q 506.35 317.38 497.52 315.52
  Q 497.12 310.62 496.03 302.75
  Q 491.26 268.40 484.61 236.99
  Q 483.95 233.86 482.92 230.72
  C 494.90 216.66 490.81 194.41 473.17 187.15
  Q 471.21 186.35 469.46 185.60
  L 461.57 166.89
  C 474.91 167.02 486.02 158.48 489.07 145.76
  C 493.79 126.03 476.46 108.48 456.62 112.55
  Q 443.76 115.18 437.13 128.26
  L 423.35 114.01
  L 423.32 110.20
  Q 423.31 109.64 422.75 109.65
  L 418.44 109.76
  Q 397.39 92.98 372.00 84.31
  C 346.72 75.68 319.92 72.32 293.12 72.88
  Q 273.16 73.29 256.08 77.36
  C 217.90 86.46 187.23 114.06 162.57 143.25
  Z"
/>
<path fill="#9fb7ff" d="
  M 418.44 109.76
  L 289.78 109.78
  Q 289.25 109.78 289.25 110.30
  L 289.25 172.09
  Q 289.25 172.68 289.84 172.68
  L 422.96 172.68
  Q 423.39 172.68 423.39 172.25
  L 423.35 114.01
  L 437.13 128.26
  Q 431.54 142.05 438.88 153.87
  Q 446.47 166.12 461.57 166.89
  L 469.46 185.60
  Q 453.04 182.65 442.81 193.07
  Q 437.71 198.25 435.94 204.73
  C 428.18 233.13 462.97 251.97 482.92 230.72
  Q 483.95 233.86 484.61 236.99
  Q 491.26 268.40 496.03 302.75
  Q 497.12 310.62 497.52 315.52
  C 482.84 315.91 486.66 336.36 499.38 332.73
  Q 504.58 381.16 499.48 429.44
  Q 499.43 429.94 498.92 429.94
  L 395.71 430.01
  L 410.13 416.04
  Q 410.49 415.69 410.99 415.67
  L 482.42 413.42
  Q 482.99 413.40 482.99 412.83
  L 482.22 336.10
  Q 482.22 335.49 481.60 335.49
  L 329.18 335.49
  Q 328.61 335.49 328.63 336.06
  L 332.41 413.78
  A 0.44 0.43 88.6 0 0 332.84 414.20
  L 390.81 414.18
  A 0.40 0.40 0.0 0 1 391.20 414.66
  L 387.96 430.01
  L 296.55 429.92
  L 322.95 420.25
  Q 324.63 419.63 322.95 419.02
  L 294.66 408.88
  A 0.41 0.41 0.0 0 0 294.11 409.27
  L 294.11 417.93
  A 0.30 0.29 -90.0 0 1 293.82 418.23
  L 65.31 418.23
  A 0.28 0.27 90.0 0 1 65.04 417.95
  L 65.32 289.97
  L 85.54 270.02
  L 85.54 410.09
  Q 85.54 410.74 86.19 410.74
  L 136.21 410.74
  Q 136.74 410.74 136.74 410.21
  Q 136.77 295.97 136.75 181.75
  Q 136.75 179.62 137.49 178.23
  L 150.50 158.90
  L 150.53 410.22
  Q 150.53 410.74 151.05 410.74
  L 201.25 410.74
  Q 201.74 410.74 201.74 410.25
  L 201.74 143.79
  Q 201.74 143.32 201.27 143.32
  L 162.57 143.25
  C 187.23 114.06 217.90 86.46 256.08 77.36
  Q 273.16 73.29 293.12 72.88
  C 319.92 72.32 346.72 75.68 372.00 84.31
  Q 397.39 92.98 418.44 109.76
  Z
  M 264.00 106.63
  A 8.76 8.76 0.0 0 0 255.24 97.87
  A 8.76 8.76 0.0 0 0 246.48 106.63
  A 8.76 8.76 0.0 0 0 255.24 115.39
  A 8.76 8.76 0.0 0 0 264.00 106.63
  Z
  M 264.15 392.93
  L 264.24 220.56
  L 264.36 142.66
  Q 264.36 142.06 263.76 142.06
  L 213.47 142.06
  A 0.23 0.23 0.0 0 0 213.24 142.29
  L 213.24 410.25
  Q 213.24 410.76 213.75 410.76
  L 263.81 410.68
  Q 264.41 410.68 264.40 410.08
  L 264.15 392.93
  Z
  M 423.05 246.67
  A 0.33 0.33 0.0 0 0 423.38 246.34
  L 423.36 183.88
  A 0.33 0.33 0.0 0 0 423.03 183.55
  L 289.58 183.55
  A 0.33 0.33 0.0 0 0 289.25 183.88
  L 289.25 246.34
  A 0.33 0.33 0.0 0 0 289.58 246.67
  L 423.05 246.67
  Z
  M 423.05 319.99
  A 0.32 0.32 0.0 0 0 423.37 319.67
  L 423.37 257.26
  A 0.32 0.32 0.0 0 0 423.05 256.94
  L 289.57 256.94
  A 0.32 0.32 0.0 0 0 289.25 257.26
  L 289.25 319.67
  A 0.32 0.32 0.0 0 0 289.57 319.99
  L 423.05 319.99
  Z
  M 489.85 286.52
  A 27.50 27.50 0.0 0 0 462.35 259.02
  A 27.50 27.50 0.0 0 0 434.85 286.52
  A 27.50 27.50 0.0 0 0 462.35 314.02
  A 27.50 27.50 0.0 0 0 489.85 286.52
  Z"
/>
<circle fill="#23347c" cx="255.24" cy="106.63" r="8.76"/>
<path fill="#e8eeff" d="
  M 418.44 109.76
  L 422.75 109.65
  Q 423.31 109.64 423.32 110.20
  L 423.35 114.01
  L 423.39 172.25
  Q 423.39 172.68 422.96 172.68
  L 289.84 172.68
  Q 289.25 172.68 289.25 172.09
  L 289.25 110.30
  Q 289.25 109.78 289.78 109.78
  L 418.44 109.76
  Z
  M 397.73 128.14
  A 1.72 1.72 0.0 0 0 396.01 126.42
  L 314.69 126.42
  A 1.72 1.72 0.0 0 0 312.97 128.14
  L 312.97 128.54
  A 1.72 1.72 0.0 0 0 314.69 130.26
  L 396.01 130.26
  A 1.72 1.72 0.0 0 0 397.73 128.54
  L 397.73 128.14
  Z
  M 397.75 138.92
  A 1.76 1.76 0.0 0 0 395.99 137.16
  L 314.73 137.16
  A 1.76 1.76 0.0 0 0 312.97 138.92
  L 312.97 139.20
  A 1.76 1.76 0.0 0 0 314.73 140.96
  L 395.99 140.96
  A 1.76 1.76 0.0 0 0 397.75 139.20
  L 397.75 138.92
  Z
  M 397.73 149.48
  A 1.69 1.69 0.0 0 0 396.04 147.79
  L 314.66 147.79
  A 1.69 1.69 0.0 0 0 312.97 149.48
  L 312.97 149.88
  A 1.69 1.69 0.0 0 0 314.66 151.57
  L 396.04 151.57
  A 1.69 1.69 0.0 0 0 397.73 149.88
  L 397.73 149.48
  Z"
/>
<path fill="#4071ff" d="
  M 461.57 166.89
  Q 446.47 166.12 438.88 153.87
  Q 431.54 142.05 437.13 128.26
  Q 443.76 115.18 456.62 112.55
  C 476.46 108.48 493.79 126.03 489.07 145.76
  C 486.02 158.48 474.91 167.02 461.57 166.89
  Z
  M 462.96 131.97
  L 462.99 150.57
  Q 462.99 151.91 464.32 151.73
  L 464.85 151.66
  Q 466.07 151.50 466.08 150.27
  L 466.22 127.46
  A 1.37 1.37 0.0 0 0 464.77 126.09
  Q 463.24 126.18 462.19 127.28
  Q 458.53 131.14 455.46 134.62
  Q 454.60 135.58 455.14 136.75
  Q 455.23 136.93 455.41 137.02
  Q 456.86 137.72 458.07 136.45
  Q 460.33 134.08 462.37 131.74
  Q 462.96 131.06 462.96 131.97
  Z"
/>
<path fill="#e8eeff" d="
  M 462.96 131.97
  Q 462.96 131.06 462.37 131.74
  Q 460.33 134.08 458.07 136.45
  Q 456.86 137.72 455.41 137.02
  Q 455.23 136.93 455.14 136.75
  Q 454.60 135.58 455.46 134.62
  Q 458.53 131.14 462.19 127.28
  Q 463.24 126.18 464.77 126.09
  A 1.37 1.37 0.0 0 1 466.22 127.46
  L 466.08 150.27
  Q 466.07 151.50 464.85 151.66
  L 464.32 151.73
  Q 462.99 151.91 462.99 150.57
  L 462.96 131.97
  Z"
/>
<rect fill="#4071ff" x="312.97" y="126.42" width="84.76" height="3.84" rx="1.72"/>
<rect fill="#4071ff" x="312.97" y="137.16" width="84.78" height="3.80" rx="1.76"/>
<path fill="#e8eeff" d="
  M 264.24 220.56
  Q 263.73 219.79 263.82 218.58
  Q 263.86 218.08 263.37 217.95
  Q 261.70 217.52 260.59 219.30
  L 260.44 214.93
  A 0.65 0.65 0.0 0 0 259.79 214.30
  L 217.50 214.26
  A 0.50 0.50 0.0 0 0 217.00 214.76
  L 217.02 402.27
  A 0.76 0.75 90.0 0 0 217.77 403.03
  L 258.96 403.18
  Q 260.39 403.18 260.41 401.75
  L 260.53 394.93
  Q 263.07 395.23 264.15 392.93
  L 264.40 410.08
  Q 264.41 410.68 263.81 410.68
  L 213.75 410.76
  Q 213.24 410.76 213.24 410.25
  L 213.24 142.29
  A 0.23 0.23 0.0 0 1 213.47 142.06
  L 263.76 142.06
  Q 264.36 142.06 264.36 142.66
  L 264.24 220.56
  Z"
/>
<path fill="#e8eeff" d="
  M 137.49 178.23
  Q 136.75 179.62 136.75 181.75
  Q 136.77 295.97 136.74 410.21
  Q 136.74 410.74 136.21 410.74
  L 86.19 410.74
  Q 85.54 410.74 85.54 410.09
  L 85.54 270.02
  L 85.47 143.19
  A 0.72 0.71 0.0 0 1 86.19 142.48
  L 136.21 142.49
  Q 136.70 142.49 136.71 142.99
  Q 136.82 160.68 136.75 177.74
  Q 136.74 178.18 137.49 178.23
  Z
  M 132.97 189.76
  A 0.43 0.43 0.0 0 0 132.54 189.33
  L 89.82 189.33
  A 0.43 0.43 0.0 0 0 89.39 189.76
  L 89.39 402.64
  A 0.43 0.43 0.0 0 0 89.82 403.07
  L 132.54 403.07
  A 0.43 0.43 0.0 0 0 132.97 402.64
  L 132.97 189.76
  Z"
/>
<path fill="#e8eeff" d="
  M 162.57 143.25
  L 201.27 143.32
  Q 201.74 143.32 201.74 143.79
  L 201.74 410.25
  Q 201.74 410.74 201.25 410.74
  L 151.05 410.74
  Q 150.53 410.74 150.53 410.22
  L 150.50 158.90
  L 150.44 143.95
  A 0.73 0.73 0.0 0 1 151.17 143.22
  L 162.57 143.25
  Z
  M 197.86 156.68
  A 0.46 0.46 0.0 0 0 197.40 156.22
  L 154.78 156.22
  A 0.46 0.46 0.0 0 0 154.32 156.68
  L 154.32 402.62
  A 0.46 0.46 0.0 0 0 154.78 403.08
  L 197.40 403.08
  A 0.46 0.46 0.0 0 0 197.86 402.62
  L 197.86 156.68
  Z"
/>
<rect fill="#4071ff" x="312.97" y="147.79" width="84.76" height="3.78" rx="1.69"/>
<path fill="#23347c" d="
  M 65.32 289.97
  L 65.04 417.95
  A 0.28 0.27 90.0 0 0 65.31 418.23
  L 293.82 418.23
  A 0.30 0.29 -90.0 0 0 294.11 417.93
  L 294.11 409.27
  A 0.41 0.41 0.0 0 1 294.66 408.88
  L 322.95 419.02
  Q 324.63 419.63 322.95 420.25
  L 296.55 429.92
  Q 294.79 430.38 293.94 430.04
  L 294.03 423.27
  Q 294.04 422.75 293.52 422.75
  L 63.02 422.75
  A 2.50 2.50 0.0 0 1 60.52 420.25
  L 60.50 294.85
  L 60.51 184.27
  Q 60.51 183.74 59.99 183.74
  L 52.65 183.74
  Q 51.93 183.74 52.17 183.07
  L 62.50 154.26
  Q 62.82 153.35 63.15 154.26
  L 73.47 183.04
  Q 73.72 183.74 72.97 183.74
  L 65.69 183.74
  Q 65.05 183.74 65.05 184.39
  L 65.32 289.97
  Z"
/>
<rect fill="#073ace" x="154.32" y="156.22" width="43.54" height="246.86" rx="0.46"/>
<path fill="#e8eeff" d="
  M 423.05 246.67
  L 289.58 246.67
  A 0.33 0.33 0.0 0 1 289.25 246.34
  L 289.25 183.88
  A 0.33 0.33 0.0 0 1 289.58 183.55
  L 423.03 183.55
  A 0.33 0.33 0.0 0 1 423.36 183.88
  L 423.38 246.34
  A 0.33 0.33 0.0 0 1 423.05 246.67
  Z
  M 397.74 202.96
  A 1.71 1.71 0.0 0 0 396.03 201.25
  L 314.67 201.25
  A 1.71 1.71 0.0 0 0 312.96 202.96
  L 312.96 203.34
  A 1.71 1.71 0.0 0 0 314.67 205.05
  L 396.03 205.05
  A 1.71 1.71 0.0 0 0 397.74 203.34
  L 397.74 202.96
  Z
  M 397.74 213.70
  A 1.74 1.74 0.0 0 0 396.00 211.96
  L 314.70 211.96
  A 1.74 1.74 0.0 0 0 312.96 213.70
  L 312.96 214.04
  A 1.74 1.74 0.0 0 0 314.70 215.78
  L 396.00 215.78
  A 1.74 1.74 0.0 0 0 397.74 214.04
  L 397.74 213.70
  Z
  M 397.74 224.39
  A 1.69 1.69 0.0 0 0 396.05 222.70
  L 314.67 222.70
  A 1.69 1.69 0.0 0 0 312.98 224.39
  L 312.98 224.79
  A 1.69 1.69 0.0 0 0 314.67 226.48
  L 396.05 226.48
  A 1.69 1.69 0.0 0 0 397.74 224.79
  L 397.74 224.39
  Z"
/>
<path fill="#4071ff" d="
  M 469.46 185.60
  Q 471.21 186.35 473.17 187.15
  C 490.81 194.41 494.90 216.66 482.92 230.72
  C 462.97 251.97 428.18 233.13 435.94 204.73
  Q 437.71 198.25 442.81 193.07
  Q 453.04 182.65 469.46 185.60
  Z
  M 460.31 220.55
  Q 459.15 220.58 459.96 219.75
  Q 464.07 215.55 467.16 212.15
  C 469.98 209.04 471.09 203.05 467.69 199.76
  C 465.33 197.48 461.71 198.00 458.80 199.15
  A 4.64 4.58 -80.9 0 0 456.93 200.52
  Q 456.16 201.45 456.69 202.40
  A 1.43 1.42 55.6 0 0 458.86 202.81
  Q 462.39 199.83 465.22 202.09
  C 467.87 204.19 466.04 208.60 464.13 210.62
  Q 460.75 214.18 457.19 217.70
  Q 455.59 219.28 455.06 221.30
  Q 454.47 223.53 456.76 223.74
  Q 462.88 224.32 469.56 223.69
  A 1.75 1.71 -64.1 0 0 470.37 223.40
  Q 472.24 222.10 471.16 220.75
  A 1.14 1.13 70.2 0 0 470.25 220.32
  L 460.31 220.55
  Z"
/>
<rect fill="#4071ff" x="89.39" y="189.33" width="43.58" height="213.74" rx="0.43"/>
<path fill="#e8eeff" d="
  M 460.31 220.55
  L 470.25 220.32
  A 1.14 1.13 70.2 0 1 471.16 220.75
  Q 472.24 222.10 470.37 223.40
  A 1.75 1.71 -64.1 0 1 469.56 223.69
  Q 462.88 224.32 456.76 223.74
  Q 454.47 223.53 455.06 221.30
  Q 455.59 219.28 457.19 217.70
  Q 460.75 214.18 464.13 210.62
  C 466.04 208.60 467.87 204.19 465.22 202.09
  Q 462.39 199.83 458.86 202.81
  A 1.43 1.42 55.6 0 1 456.69 202.40
  Q 456.16 201.45 456.93 200.52
  A 4.64 4.58 -80.9 0 1 458.80 199.15
  C 461.71 198.00 465.33 197.48 467.69 199.76
  C 471.09 203.05 469.98 209.04 467.16 212.15
  Q 464.07 215.55 459.96 219.75
  Q 459.15 220.58 460.31 220.55
  Z"
/>
<rect fill="#4071ff" x="312.96" y="201.25" width="84.78" height="3.80" rx="1.71"/>
<rect fill="#4071ff" x="312.96" y="211.96" width="84.78" height="3.82" rx="1.74"/>
<path fill="#23347c" d="
  M 260.59 219.30
  L 260.53 394.93
  L 260.41 401.75
  Q 260.39 403.18 258.96 403.18
  L 217.77 403.03
  A 0.76 0.75 90.0 0 1 217.02 402.27
  L 217.00 214.76
  A 0.50 0.50 0.0 0 1 217.50 214.26
  L 259.79 214.30
  A 0.65 0.65 0.0 0 1 260.44 214.93
  L 260.59 219.30
  Z"
/>
<path fill="#ffffff" d="
  M 264.24 220.56
  L 264.15 392.93
  Q 263.07 395.23 260.53 394.93
  L 260.59 219.30
  Q 261.70 217.52 263.37 217.95
  Q 263.86 218.08 263.82 218.58
  Q 263.73 219.79 264.24 220.56
  Z"
/>
<rect fill="#4071ff" x="312.98" y="222.70" width="84.76" height="3.78" rx="1.69"/>
<path fill="#e8eeff" d="
  M 423.05 319.99
  L 289.57 319.99
  A 0.32 0.32 0.0 0 1 289.25 319.67
  L 289.25 257.26
  A 0.32 0.32 0.0 0 1 289.57 256.94
  L 423.05 256.94
  A 0.32 0.32 0.0 0 1 423.37 257.26
  L 423.37 319.67
  A 0.32 0.32 0.0 0 1 423.05 319.99
  Z
  M 397.75 274.92
  A 1.76 1.76 0.0 0 0 395.99 273.16
  L 314.73 273.16
  A 1.76 1.76 0.0 0 0 312.97 274.92
  L 312.97 275.20
  A 1.76 1.76 0.0 0 0 314.73 276.96
  L 395.99 276.96
  A 1.76 1.76 0.0 0 0 397.75 275.20
  L 397.75 274.92
  Z
  M 397.73 285.48
  A 1.69 1.69 0.0 0 0 396.04 283.79
  L 314.66 283.79
  A 1.69 1.69 0.0 0 0 312.97 285.48
  L 312.97 285.88
  A 1.69 1.69 0.0 0 0 314.66 287.57
  L 396.04 287.57
  A 1.69 1.69 0.0 0 0 397.73 285.88
  L 397.73 285.48
  Z
  M 397.73 296.19
  A 1.68 1.68 0.0 0 0 396.05 294.51
  L 314.65 294.51
  A 1.68 1.68 0.0 0 0 312.97 296.19
  L 312.97 296.63
  A 1.68 1.68 0.0 0 0 314.65 298.31
  L 396.05 298.31
  A 1.68 1.68 0.0 0 0 397.73 296.63
  L 397.73 296.19
  Z"
/>
<path fill="#4071ff" d="
  M 489.85 286.52
  A 27.50 27.50 0.0 0 1 462.35 314.02
  A 27.50 27.50 0.0 0 1 434.85 286.52
  A 27.50 27.50 0.0 0 1 462.35 259.02
  A 27.50 27.50 0.0 0 1 489.85 286.52
  Z
  M 466.45 284.08
  A 0.39 0.39 0.0 0 1 466.45 283.38
  Q 467.89 282.62 468.29 281.07
  C 469.14 277.70 469.12 274.26 465.47 272.83
  Q 460.85 271.01 456.65 273.97
  Q 455.26 274.96 455.56 276.57
  Q 455.61 276.82 455.81 276.99
  Q 457.04 278.05 458.22 276.93
  Q 459.68 275.54 461.55 275.25
  C 467.12 274.38 466.41 282.15 461.02 282.77
  A 1.16 1.11 -70.8 0 0 460.35 283.11
  Q 459.87 283.61 459.92 284.15
  Q 460.03 285.57 461.46 285.55
  C 470.56 285.43 466.95 298.38 460.24 293.76
  Q 459.01 292.92 457.72 292.13
  A 1.43 1.42 -70.0 0 0 455.57 293.14
  C 455.19 295.68 459.27 297.44 461.19 297.71
  Q 467.45 298.60 469.55 292.43
  Q 471.49 286.72 466.45 284.08
  Z"
/>
<path fill="#e8eeff" d="
  M 466.45 284.08
  Q 471.49 286.72 469.55 292.43
  Q 467.45 298.60 461.19 297.71
  C 459.27 297.44 455.19 295.68 455.57 293.14
  A 1.43 1.42 -70.0 0 1 457.72 292.13
  Q 459.01 292.92 460.24 293.76
  C 466.95 298.38 470.56 285.43 461.46 285.55
  Q 460.03 285.57 459.92 284.15
  Q 459.87 283.61 460.35 283.11
  A 1.16 1.11 -70.8 0 1 461.02 282.77
  C 466.41 282.15 467.12 274.38 461.55 275.25
  Q 459.68 275.54 458.22 276.93
  Q 457.04 278.05 455.81 276.99
  Q 455.61 276.82 455.56 276.57
  Q 455.26 274.96 456.65 273.97
  Q 460.85 271.01 465.47 272.83
  C 469.12 274.26 469.14 277.70 468.29 281.07
  Q 467.89 282.62 466.45 283.38
  A 0.39 0.39 0.0 0 0 466.45 284.08
  Z"
/>
<rect fill="#4071ff" x="312.97" y="273.16" width="84.78" height="3.80" rx="1.76"/>
<rect fill="#4071ff" x="312.97" y="283.79" width="84.76" height="3.78" rx="1.69"/>
<rect fill="#4071ff" x="312.97" y="294.51" width="84.76" height="3.80" rx="1.68"/>
<path fill="#9fb7ff" d="
  M 60.50 294.85
  L 60.52 420.25
  A 2.50 2.50 0.0 0 0 63.02 422.75
  L 293.52 422.75
  Q 294.04 422.75 294.03 423.27
  L 293.94 430.04
  L 17.31 430.02
  Q 16.94 430.02 16.95 429.66
  C 17.67 400.30 22.11 370.44 32.19 342.75
  Q 41.80 316.35 60.50 294.85
  Z
  M 50.74 389.41
  A 8.76 8.76 0.0 0 0 41.98 380.65
  A 8.76 8.76 0.0 0 0 33.22 389.41
  A 8.76 8.76 0.0 0 0 41.98 398.17
  A 8.76 8.76 0.0 0 0 50.74 389.41
  Z"
/>
<path fill="#073ace" d="
  M 497.52 315.52
  Q 506.35 317.38 505.35 325.81
  Q 504.77 330.75 499.38 332.73
  C 486.66 336.36 482.84 315.91 497.52 315.52
  Z"
/>
<path fill="#e8eeff" d="
  M 395.71 430.01
  L 387.33 438.15
  Q 385.71 439.73 386.22 437.52
  L 387.96 430.01
  L 391.20 414.66
  A 0.40 0.40 0.0 0 0 390.81 414.18
  L 332.84 414.20
  A 0.44 0.43 88.6 0 1 332.41 413.78
  L 328.63 336.06
  Q 328.61 335.49 329.18 335.49
  L 481.60 335.49
  Q 482.22 335.49 482.22 336.10
  L 482.99 412.83
  Q 482.99 413.40 482.42 413.42
  L 410.99 415.67
  Q 410.49 415.69 410.13 416.04
  L 395.71 430.01
  Z
  M 387.44 370.22
  A 5.09 5.09 0.0 0 0 382.35 365.13
  A 5.09 5.09 0.0 0 0 377.26 370.22
  A 5.09 5.09 0.0 0 0 382.35 375.31
  A 5.09 5.09 0.0 0 0 387.44 370.22
  Z
  M 412.39 370.22
  A 5.08 5.08 0.0 0 0 407.31 365.14
  A 5.08 5.08 0.0 0 0 402.23 370.22
  A 5.08 5.08 0.0 0 0 407.31 375.30
  A 5.08 5.08 0.0 0 0 412.39 370.22
  Z
  M 437.37 370.22
  A 5.08 5.08 0.0 0 0 432.29 365.14
  A 5.08 5.08 0.0 0 0 427.21 370.22
  A 5.08 5.08 0.0 0 0 432.29 375.30
  A 5.08 5.08 0.0 0 0 437.37 370.22
  Z"
/>
<circle fill="#4071ff" cx="382.35" cy="370.22" r="5.09"/>
<circle fill="#4071ff" cx="407.31" cy="370.22" r="5.08"/>
<circle fill="#4071ff" cx="432.29" cy="370.22" r="5.08"/>
<circle fill="#073ace" cx="41.98" cy="389.41" r="8.76"/>
</svg>
