<?xml version="1.0" encoding="UTF-8" standalone="no"?>
<!DOCTYPE svg PUBLIC "-//W3C//DTD SVG 1.1//EN" "http://www.w3.org/Graphics/SVG/1.1/DTD/svg11.dtd">
<svg xmlns="http://www.w3.org/2000/svg" version="1.1" viewBox="0.00 0.00 512.00 512.00">
<g stroke-width="2.00" fill="none" stroke-linecap="butt">
<path stroke="#3a4056" vector-effect="non-scaling-stroke" d="
  M 223.78 30.84
  Q 223.59 31.60 223.75 32.01
  Q 225.24 35.76 227.44 39.65
  Q 227.59 39.92 227.89 39.82
  Q 228.11 39.74 228.04 39.52
  Q 226.47 34.78 223.78 30.84"
/>
<path stroke="#434c70" vector-effect="non-scaling-stroke" d="
  M 246.08 68.47
  Q 246.69 74.58 238.77 77.84
  Q 231.93 80.67 224.83 82.82
  Q 220.88 84.02 218.39 82.10"
/>
<path stroke="#3a4056" vector-effect="non-scaling-stroke" d="
  M 208.20 49.32
  Q 208.74 50.94 209.76 51.22
  Q 218.56 53.65 223.62 61.34
  Q 223.79 61.60 224.04 61.41
  L 224.26 61.26
  Q 224.51 61.07 224.34 60.81
  Q 219.62 53.47 211.18 50.59
  A 0.36 0.36 0.0 0 1 211.13 49.94
  Q 221.14 44.67 232.40 44.82
  Q 232.88 44.83 232.88 44.35
  L 232.88 44.08
  Q 232.88 43.83 232.62 43.82
  Q 220.40 43.65 209.86 49.58
  Q 209.37 49.86 209.03 49.74
  Q 208.69 49.62 208.20 49.32"
/>
<path stroke="#3a4056" vector-effect="non-scaling-stroke" d="
  M 210.22 35.03
  L 214.08 44.29
  Q 214.26 44.74 214.71 44.54
  L 214.99 44.41
  Q 215.17 44.33 215.09 44.15
  Q 213.35 40.06 211.61 35.91
  Q 211.44 35.51 210.77 35.13"
/>
<path stroke="#3a4056" vector-effect="non-scaling-stroke" d="
  M 215.92 30.99
  L 219.52 40.43
  Q 219.62 40.70 219.89 40.59
  L 220.20 40.46
  A 0.28 0.27 67.8 0 0 220.35 40.09
  L 216.35 30.73"
/>
<path stroke="#3253be" vector-effect="non-scaling-stroke" d="
  M 283.50 209.67
  Q 281.91 207.23 280.55 204.80
  C 270.25 186.34 252.03 173.07 231.97 166.83
  Q 227.21 165.35 219.50 163.83"
/>
<path stroke="#3253be" vector-effect="non-scaling-stroke" d="
  M 272.01 238.75
  C 257.26 214.80 234.44 197.89 209.04 186.57"
/>
<path stroke="#1a2863" vector-effect="non-scaling-stroke" d="
  M 262.88 260.74
  Q 262.69 260.78 262.57 260.47
  Q 252.86 235.08 231.44 218.34
  A 0.38 0.38 0.0 0 0 230.92 218.40
  L 230.75 218.62
  Q 230.60 218.81 230.79 218.95
  Q 252.22 235.77 261.84 261.25
  Q 262.01 261.70 262.69 261.98"
/>
<path stroke="#3253be" vector-effect="non-scaling-stroke" d="
  M 264.37 268.27
  Q 236.01 291.47 201.25 299.69
  Q 177.46 305.32 152.28 302.18"
/>
<path stroke="#1a2863" vector-effect="non-scaling-stroke" d="
  M 152.28 302.18
  Q 154.91 290.04 155.55 277.58
  Q 155.56 277.33 155.31 277.31
  L 155.04 277.30
  Q 154.73 277.28 154.71 277.59
  Q 154.06 287.51 152.35 297.24
  Q 151.93 299.62 151.09 302.02"
/>
<path stroke="#3253be" vector-effect="non-scaling-stroke" d="
  M 151.09 302.02
  Q 120.00 292.82 98.62 268.16"
/>
<path stroke="#3253be" vector-effect="non-scaling-stroke" d="
  M 151.89 235.00
  Q 156.35 239.74 161.57 243.87
  Q 165.47 246.96 167.00 248.61
  C 168.98 250.76 170.98 254.94 173.65 256.63
  A 2.55 2.53 35.9 0 0 176.96 256.11
  C 179.83 252.66 180.39 244.14 180.65 239.43"
/>
<path stroke="#434c70" vector-effect="non-scaling-stroke" d="
  M 180.65 239.43
  Q 180.67 239.51 180.69 239.60"
/>
<path stroke="#3253be" vector-effect="non-scaling-stroke" d="
  M 180.69 239.60
  C 185.35 242.92 189.89 246.78 195.13 248.86
  A 1.70 1.70 0.0 0 0 197.40 246.84
  Q 195.39 239.37 195.51 231.51
  Q 195.61 225.00 191.07 218.63"
/>
<path stroke="#1a2863" vector-effect="non-scaling-stroke" d="
  M 133.96 332.64
  L 126.52 340.15
  Q 125.33 341.35 126.93 340.79
  C 133.92 338.32 142.09 336.23 149.16 337.54
  Q 153.17 338.29 158.13 341.40
  C 162.27 344.00 166.06 341.18 169.49 341.51
  Q 173.66 341.92 173.44 346.19
  Q 173.43 346.31 173.31 346.31
  L 173.05 346.31
  Q 172.68 346.31 172.65 345.94
  Q 172.35 341.56 167.57 342.81
  C 164.16 343.70 160.59 344.40 157.55 342.39
  Q 150.69 337.85 143.52 338.26
  Q 136.36 338.67 129.31 341.17
  Q 124.54 342.86 119.45 344.16
  C 103.49 348.21 88.71 357.95 76.75 369.34
  Q 76.69 369.40 76.64 369.34
  L 76.45 369.15
  Q 76.28 368.97 76.45 368.79
  Q 96.29 348.95 123.48 342.05
  Q 123.95 341.93 124.29 341.56
  L 132.84 332.25"
/>
<path stroke="#2947a4" vector-effect="non-scaling-stroke" d="
  M 151.09 302.02
  Q 148.96 314.00 141.81 323.55
  Q 139.95 326.03 132.84 332.25"
/>
<path stroke="#3253be" vector-effect="non-scaling-stroke" d="
  M 132.84 332.25
  C 116.10 327.07 101.05 320.68 87.08 309.93
  Q 80.66 304.99 74.79 296.74"
/>
<path stroke="#3253be" vector-effect="non-scaling-stroke" d="
  M 272.97 298.38
  Q 240.02 324.54 199.26 332.78
  Q 166.90 339.33 133.96 332.64"
/>
<path stroke="#2947a4" vector-effect="non-scaling-stroke" d="
  M 133.96 332.64
  Q 137.39 329.10 140.57 326.06
  C 147.03 319.87 150.32 311.12 152.28 302.18"
/>
<path stroke="#3a4056" vector-effect="non-scaling-stroke" d="
  M 181.77 212.34
  Q 173.48 213.42 166.68 209.61
  A 0.30 0.30 0.0 0 0 166.27 210.02
  Q 171.68 219.31 181.25 217.69
  Q 181.65 217.62 182.04 217.78
  Q 182.27 217.88 182.62 218.05"
/>
<path stroke="#526ab1" vector-effect="non-scaling-stroke" d="
  M 182.62 218.05
  Q 184.42 224.94 184.22 227.00
  Q 183.56 233.72 180.69 239.60"
/>
<path stroke="#526ab1" vector-effect="non-scaling-stroke" d="
  M 180.65 239.43
  Q 170.14 237.47 162.14 230.60
  A 2.14 2.13 -66.7 0 1 161.41 228.75
  L 162.42 219.03"
/>
<path stroke="#828ebe" vector-effect="non-scaling-stroke" d="
  M 284.29 335.94
  Q 262.92 344.81 245.09 359.68"
/>
<path stroke="#1a2863" vector-effect="non-scaling-stroke" d="
  M 245.09 359.68
  L 243.74 360.16"
/>
<path stroke="#828ebe" vector-effect="non-scaling-stroke" d="
  M 243.74 360.16
  Q 236.29 356.55 227.49 354.22"
/>
<path stroke="#434c70" vector-effect="non-scaling-stroke" d="
  M 227.49 354.22
  Q 201.18 337.67 171.78 348.62
  Q 171.21 348.83 171.08 349.43
  Q 170.55 351.79 170.76 354.52
  Q 171.64 365.78 174.21 375.75
  Q 175.65 381.33 178.56 384.06"
/>
<path stroke="#828ebe" vector-effect="non-scaling-stroke" d="
  M 178.56 384.06
  Q 179.98 386.71 177.01 388.06
  Q 173.95 389.46 171.56 390.99
  C 168.24 393.12 165.86 396.86 163.16 399.99"
/>
<path stroke="#6176be" vector-effect="non-scaling-stroke" d="
  M 163.16 399.99
  C 159.34 404.40 154.24 408.44 148.56 409.98
  Q 148.54 409.99 139.89 411.07
  Q 132.39 412.01 125.42 415.72"
/>
<path stroke="#3253be" vector-effect="non-scaling-stroke" d="
  M 125.42 415.72
  L 108.14 423.74"
/>
<path stroke="#1a2863" vector-effect="non-scaling-stroke" d="
  M 108.14 423.74
  L 102.70 425.22"
/>
<path stroke="#2947a4" vector-effect="non-scaling-stroke" d="
  M 182.39 215.71
  L 182.62 218.05"
/>
<path stroke="#3a4056" vector-effect="non-scaling-stroke" d="
  M 191.00 196.89
  Q 184.97 196.86 183.11 191.44
  Q 182.95 190.98 182.53 190.74
  Q 181.96 190.44 181.36 190.73
  Q 180.98 190.92 180.85 191.33
  C 178.30 199.68 166.21 197.79 166.79 189.15
  Q 166.83 188.48 166.41 189.00
  L 165.10 190.62
  A 0.84 0.84 0.0 0 1 163.79 190.61
  C 158.29 183.62 149.67 188.68 153.14 196.81
  C 154.92 201.00 160.71 205.47 164.59 201.02
  Q 165.03 200.52 165.23 201.15
  Q 167.63 208.62 162.99 215.07"
/>
<path stroke="#c0d0ff" vector-effect="non-scaling-stroke" d="
  M 428.77 374.93
  Q 366.96 378.44 324.08 420.75"
/>
<path stroke="#7982a4" vector-effect="non-scaling-stroke" d="
  M 324.08 420.75
  L 245.09 359.68"
/>
<path stroke="#a2a6b1" vector-effect="non-scaling-stroke" d="
  M 227.49 354.22
  C 228.69 355.78 230.22 356.39 230.94 358.46
  C 232.17 362.01 228.55 362.28 226.18 362.02
  Q 224.89 361.89 226.04 362.48
  Q 229.66 364.34 230.29 366.98
  A 1.94 1.94 0.0 0 1 228.72 369.34
  C 225.41 369.88 221.81 369.10 218.63 368.17
  Q 218.61 368.16 218.61 368.18
  L 218.54 368.42
  Q 218.48 368.59 218.66 368.65
  C 221.55 369.71 227.96 372.53 229.17 375.72
  C 231.42 381.67 218.78 378.03 215.93 377.13
  Q 215.07 376.85 214.47 376.70
  Q 213.59 376.48 214.40 376.88
  L 223.66 381.49"
/>
<path stroke="#3a4056" vector-effect="non-scaling-stroke" d="
  M 223.66 381.49
  Q 223.95 380.96 224.02 382.33"
/>
<path stroke="#a2a6b1" vector-effect="non-scaling-stroke" d="
  M 224.02 382.33
  Q 223.90 382.09 223.82 382.49
  A 0.36 0.36 0.0 0 0 223.97 382.85
  Q 225.09 383.62 225.08 384.94
  A 2.03 2.02 81.5 0 1 223.66 386.86
  C 220.06 387.98 215.35 386.60 211.88 385.37
  Q 211.38 385.19 210.85 385.31
  L 209.29 385.67"
/>
<path stroke="#3a4056" vector-effect="non-scaling-stroke" d="
  M 209.29 385.67
  Q 209.56 385.23 209.04 384.74"
/>
<path stroke="#a2a6b1" vector-effect="non-scaling-stroke" d="
  M 209.04 384.74
  Q 209.05 384.36 208.71 384.35
  Q 208.33 384.33 208.27 384.32
  Q 202.34 383.00 196.93 384.69
  C 191.41 386.41 186.46 387.53 181.61 383.38
  A 1.28 1.27 -25.1 0 0 180.75 383.07
  Q 179.65 383.09 178.56 384.06"
/>
<path stroke="#586aa4" vector-effect="non-scaling-stroke" d="
  M 324.08 420.75
  Q 324.15 420.94 324.13 421.11
  Q 324.09 421.56 323.72 421.30
  L 319.93 418.72"
/>
<path stroke="#7094ff" vector-effect="non-scaling-stroke" d="
  M 429.09 392.20
  L 429.17 405.90
  A 0.98 0.98 0.0 0 1 428.47 406.85
  L 343.54 431.58"
/>
<path stroke="#586aa4" vector-effect="non-scaling-stroke" d="
  M 343.54 431.58
  L 309.87 441.40"
/>
<path stroke="#7094ff" vector-effect="non-scaling-stroke" d="
  M 309.87 441.40
  L 204.98 471.98
  Q 204.43 472.14 203.96 471.81
  L 125.42 415.72"
/>
<path stroke="#7982a4" vector-effect="non-scaling-stroke" d="
  M 243.74 360.16
  L 319.93 418.72"
/>
<path stroke="#c0d0ff" vector-effect="non-scaling-stroke" d="
  M 319.93 418.72
  Q 319.36 419.41 318.83 419.14
  Q 318.58 419.01 318.51 418.99
  Q 259.09 399.79 205.42 430.70
  Q 205.17 430.85 204.93 430.68
  L 163.16 399.99"
/>
<path stroke="#7982a4" vector-effect="non-scaling-stroke" d="
  M 209.04 384.74
  Q 197.55 387.99 187.35 394.13
  A 0.45 0.45 0.0 0 0 187.19 394.75
  L 187.34 395.00
  Q 187.43 395.16 187.59 395.06
  Q 197.81 388.96 209.29 385.67"
/>
<path stroke="#7982a4" vector-effect="non-scaling-stroke" d="
  M 224.02 382.33
  Q 241.93 379.69 259.92 381.42
  Q 260.39 381.47 260.44 381.00
  L 260.47 380.70
  Q 260.49 380.51 260.29 380.49
  Q 241.92 378.66 223.66 381.49"
/>
<path stroke="#2947a4" vector-effect="non-scaling-stroke" d="
  M 108.14 423.74
  L 187.07 485.19
  Q 187.48 485.51 187.99 485.36
  L 317.28 446.75
  Q 317.84 446.58 317.35 446.27
  L 309.87 441.40"
/>
<path stroke="#2947a4" vector-effect="non-scaling-stroke" d="
  M 458.80 404.48
  L 352.62 436.19
  A 2.85 2.83 -36.8 0 1 350.26 435.86
  L 343.54 431.58"
/>
<path stroke="#3a4056" vector-effect="non-scaling-stroke" d="
  M 178.30 182.98
  C 173.93 182.21 173.15 175.69 168.61 175.63
  A 2.13 2.12 -9.1 0 0 166.57 178.44
  Q 167.76 181.93 167.46 186.09
  Q 167.45 186.23 167.57 186.33
  Q 167.61 186.36 167.65 186.37
  Q 167.78 186.42 167.83 186.29
  C 168.74 183.25 172.66 181.98 175.43 182.64
  Q 180.27 183.80 181.00 188.86
  Q 181.05 189.19 181.29 189.42
  Q 181.70 189.79 182.26 189.72
  A 0.76 0.76 0.0 0 0 182.92 189.07
  Q 183.61 184.19 187.98 182.74
  A 0.42 0.42 0.0 0 0 188.22 182.16
  Q 187.05 179.69 184.98 178.42
  Q 184.49 178.12 184.19 178.61
  C 183.01 180.55 180.85 183.44 178.30 182.98"
/>
<path stroke="#3a4056" vector-effect="non-scaling-stroke" d="
  M 180.10 189.49
  A 6.20 6.20 0.0 0 0 173.90 183.29
  A 6.20 6.20 0.0 0 0 167.70 189.49
  A 6.20 6.20 0.0 0 0 173.90 195.69
  A 6.20 6.20 0.0 0 0 180.10 189.49"
/>
<path stroke="#3a4056" vector-effect="non-scaling-stroke" d="
  M 190.27 187.96
  L 189.03 184.01
  A 0.64 0.64 0.0 0 0 188.20 183.60
  C 184.04 185.18 182.55 189.93 185.34 193.44
  Q 187.27 195.85 191.00 195.61"
/>
<path stroke="#3a4056" vector-effect="non-scaling-stroke" d="
  M 159.91 193.83
  Q 159.23 193.94 158.83 194.50
  Q 158.50 194.95 158.63 195.50
  Q 159.07 197.34 160.84 198.11
  C 161.87 198.56 162.90 197.77 163.15 196.79
  Q 163.31 196.14 162.68 196.37
  Q 162.28 196.52 161.95 196.80
  Q 161.50 197.19 160.97 196.91
  Q 160.23 196.53 159.76 195.84
  Q 159.48 195.42 159.74 194.98
  Q 160.16 194.28 160.95 194.49
  Q 162.71 194.96 161.80 193.38
  Q 160.72 191.52 158.89 190.25
  A 1.67 1.66 -55.1 0 0 156.59 190.67
  Q 155.67 191.98 156.21 193.75
  Q 156.28 193.99 156.54 193.97
  L 156.86 193.94
  Q 157.20 193.90 157.16 193.56
  L 156.99 192.02
  A 0.85 0.85 0.0 0 1 158.15 191.13
  Q 159.36 191.60 160.26 193.04
  Q 160.68 193.70 159.91 193.83"
/>
<path stroke="#3a4056" vector-effect="non-scaling-stroke" d="
  M 175.65 201.83
  C 177.74 203.19 179.06 204.10 181.67 204.07
  A 2.55 2.51 18.5 0 0 183.61 203.12
  L 184.20 202.38
  Q 185.05 201.30 183.68 201.31
  L 175.79 201.36
  A 0.26 0.25 -28.8 0 0 175.65 201.83"
/>
<path stroke="#7982a4" vector-effect="non-scaling-stroke" d="
  M 271.88 366.11
  Q 303.52 342.79 341.78 337.63
  A 0.32 0.32 0.0 0 0 342.05 337.27
  L 342.01 336.99
  A 0.42 0.42 0.0 0 0 341.54 336.63
  Q 302.86 341.91 271.23 365.34
  Q 271.14 365.40 271.19 365.50
  L 271.41 365.99
  Q 271.57 366.34 271.88 366.11"
/>
<path stroke="#7982a4" vector-effect="non-scaling-stroke" d="
  M 295.03 370.41
  C 312.91 357.60 333.77 348.85 355.39 344.61
  Q 355.64 344.56 355.59 344.31
  L 355.54 344.05
  Q 355.44 343.59 354.98 343.68
  Q 317.37 351.05 287.21 375.04
  A 0.34 0.34 0.0 0 0 287.15 375.51
  L 287.32 375.74
  Q 287.51 375.99 287.76 375.80
  Q 291.38 373.03 295.03 370.41"
/>
<path stroke="#7982a4" vector-effect="non-scaling-stroke" d="
  M 300.40 388.51
  C 317.64 369.54 344.89 359.20 369.83 352.82
  Q 370.01 352.77 369.97 352.59
  L 369.90 352.31
  Q 369.80 351.87 369.36 351.98
  Q 351.96 356.09 335.60 363.38
  C 322.17 369.35 309.29 377.11 299.81 387.77
  A 0.38 0.38 0.0 0 0 299.78 388.25
  L 299.94 388.48
  Q 300.15 388.78 300.40 388.51"
/>
<path stroke="#7982a4" vector-effect="non-scaling-stroke" d="
  M 311.34 397.19
  C 332.05 378.45 358.84 366.18 386.53 360.08
  A 0.28 0.28 0.0 0 0 386.75 359.74
  L 386.70 359.48
  Q 386.61 359.05 386.18 359.14
  C 358.26 365.25 331.07 377.57 310.46 396.71
  Q 310.34 396.82 310.45 396.94
  L 310.64 397.15
  Q 310.97 397.52 311.34 397.19"
/>
<path stroke="#7982a4" vector-effect="non-scaling-stroke" d="
  M 323.04 404.81
  C 344.60 385.03 372.28 372.40 401.31 368.19
  Q 401.51 368.16 401.48 367.96
  L 401.44 367.66
  Q 401.36 367.17 400.87 367.24
  C 372.20 371.62 343.71 384.07 322.62 404.06
  Q 322.33 404.33 322.60 404.62
  L 322.77 404.80
  Q 322.90 404.94 323.04 404.81"
/>
<path stroke="#3a4056" vector-effect="non-scaling-stroke" d="
  M 204.33 355.27
  C 211.56 356.58 217.23 358.98 223.60 361.73
  Q 223.77 361.80 223.85 361.64
  L 223.97 361.39
  A 0.43 0.42 26.6 0 0 223.78 360.84
  Q 214.71 356.09 204.51 354.30
  A 0.49 0.49 0.0 0 0 203.97 354.59
  Q 203.72 355.17 204.33 355.27"
/>
<path stroke="#3a4056" vector-effect="non-scaling-stroke" d="
  M 200.85 365.27
  C 206.28 365.52 211.53 366.62 216.77 368.22
  Q 217.13 368.33 217.13 367.95
  L 217.13 367.50
  Q 217.13 367.36 216.99 367.32
  Q 209.01 364.57 200.90 364.40
  A 0.28 0.28 0.0 0 0 200.61 364.65
  L 200.57 364.93
  Q 200.52 365.25 200.85 365.27"
/>
<path stroke="#3a4056" vector-effect="non-scaling-stroke" d="
  M 199.49 373.59
  C 204.42 373.54 208.24 374.67 212.65 376.27
  Q 212.91 376.37 212.93 376.09
  L 212.95 375.81
  Q 212.96 375.68 212.84 375.62
  Q 206.56 372.50 199.58 372.69
  Q 199.24 372.70 199.23 373.04
  L 199.23 373.33
  A 0.25 0.25 0.0 0 0 199.49 373.59"
/>
<path stroke="#7982a4" vector-effect="non-scaling-stroke" d="
  M 247.10 371.57
  L 247.16 371.32
  A 0.47 0.46 12.2 0 0 246.79 370.75
  Q 239.33 369.25 231.91 370.90
  Q 231.67 370.95 231.72 371.19
  L 231.77 371.49
  Q 231.84 371.86 232.21 371.80
  Q 239.47 370.60 246.78 371.78
  A 0.29 0.28 -77.6 0 0 247.10 371.57"
/>
<path stroke="#7982a4" vector-effect="non-scaling-stroke" d="
  M 199.18 404.90
  Q 234.37 387.80 274.71 392.96
  Q 275.03 393.00 275.00 392.68
  L 274.96 392.26
  Q 274.93 391.97 274.64 391.93
  C 248.83 388.57 222.06 392.30 198.74 404.05
  Q 198.62 404.12 198.61 404.26
  L 198.59 404.51
  A 0.41 0.41 0.0 0 0 199.18 404.90"
/>
<path stroke="#7982a4" vector-effect="non-scaling-stroke" d="
  M 210.33 415.42
  Q 247.17 400.38 286.37 404.66
  Q 289.74 405.03 298.33 406.79
  A 0.32 0.32 0.0 0 0 298.70 406.54
  L 298.76 406.26
  Q 298.83 405.91 298.48 405.84
  Q 279.97 401.95 261.75 402.99
  Q 234.69 404.53 209.95 414.57
  A 0.34 0.33 59.2 0 0 209.82 415.10
  L 210.01 415.34
  A 0.29 0.29 0.0 0 0 210.33 415.42"
/>
</g>
<path fill="#636363" d="
  M 223.78 30.84
  Q 223.59 31.60 223.75 32.01
  Q 225.24 35.76 227.44 39.65
  Q 227.59 39.92 227.89 39.82
  Q 228.11 39.74 228.04 39.52
  Q 226.47 34.78 223.78 30.84
  Q 222.69 27.48 223.26 24.74
  A 1.19 1.18 25.9 0 1 225.19 24.08
  Q 227.71 26.22 229.70 29.13
  C 234.35 35.95 238.57 43.20 241.55 50.73
  Q 243.93 56.71 243.20 63.97
  Q 243.14 64.56 243.49 65.03
  L 246.08 68.47
  Q 246.69 74.58 238.77 77.84
  Q 231.93 80.67 224.83 82.82
  Q 220.88 84.02 218.39 82.10
  C 216.77 78.56 215.41 74.17 212.56 71.50
  Q 208.41 67.62 206.33 63.11
  Q 203.02 55.91 198.27 49.17
  Q 197.10 47.50 196.98 45.58
  A 0.97 0.96 -19.1 0 1 197.40 44.73
  C 201.00 42.27 205.89 46.43 208.20 49.32
  Q 208.74 50.94 209.76 51.22
  Q 218.56 53.65 223.62 61.34
  Q 223.79 61.60 224.04 61.41
  L 224.26 61.26
  Q 224.51 61.07 224.34 60.81
  Q 219.62 53.47 211.18 50.59
  A 0.36 0.36 0.0 0 1 211.13 49.94
  Q 221.14 44.67 232.40 44.82
  Q 232.88 44.83 232.88 44.35
  L 232.88 44.08
  Q 232.88 43.83 232.62 43.82
  Q 220.40 43.65 209.86 49.58
  Q 209.37 49.86 209.03 49.74
  Q 208.69 49.62 208.20 49.32
  Q 208.26 49.21 208.33 49.09
  Q 208.40 48.98 208.35 48.86
  C 205.29 42.27 201.42 34.45 200.47 27.18
  A 1.23 1.22 4.0 0 1 202.01 25.84
  C 205.12 26.69 208.69 32.35 210.22 35.03
  L 214.08 44.29
  Q 214.26 44.74 214.71 44.54
  L 214.99 44.41
  Q 215.17 44.33 215.09 44.15
  Q 213.35 40.06 211.61 35.91
  Q 211.44 35.51 210.77 35.13
  C 209.03 31.88 206.92 27.19 207.19 23.45
  A 1.48 1.48 0.0 0 1 209.23 22.19
  C 212.07 23.33 214.74 28.30 215.92 30.99
  L 219.52 40.43
  Q 219.62 40.70 219.89 40.59
  L 220.20 40.46
  A 0.28 0.27 67.8 0 0 220.35 40.09
  L 216.35 30.73
  Q 214.59 27.23 214.35 23.25
  Q 214.28 22.13 214.57 21.85
  A 2.19 2.00 -39.8 0 1 217.80 22.00
  L 223.78 30.84
  Z"
/>
<path fill="#111c49" d="
  M 216.35 30.73
  L 220.35 40.09
  A 0.28 0.27 67.8 0 1 220.20 40.46
  L 219.89 40.59
  Q 219.62 40.70 219.52 40.43
  L 215.92 30.99
  Q 216.13 30.95 216.35 30.73
  Z"
/>
<path fill="#111c49" d="
  M 223.78 30.84
  Q 226.47 34.78 228.04 39.52
  Q 228.11 39.74 227.89 39.82
  Q 227.59 39.92 227.44 39.65
  Q 225.24 35.76 223.75 32.01
  Q 223.59 31.60 223.78 30.84
  Z"
/>
<path fill="#111c49" d="
  M 210.22 35.03
  L 210.77 35.13
  Q 211.44 35.51 211.61 35.91
  Q 213.35 40.06 215.09 44.15
  Q 215.17 44.33 214.99 44.41
  L 214.71 44.54
  Q 214.26 44.74 214.08 44.29
  L 210.22 35.03
  Z"
/>
<path fill="#111c49" d="
  M 208.20 49.32
  Q 208.69 49.62 209.03 49.74
  Q 209.37 49.86 209.86 49.58
  Q 220.40 43.65 232.62 43.82
  Q 232.88 43.83 232.88 44.08
  L 232.88 44.35
  Q 232.88 44.83 232.40 44.82
  Q 221.14 44.67 211.13 49.94
  A 0.36 0.36 0.0 0 0 211.18 50.59
  Q 219.62 53.47 224.34 60.81
  Q 224.51 61.07 224.26 61.26
  L 224.04 61.41
  Q 223.79 61.60 223.62 61.34
  Q 218.56 53.65 209.76 51.22
  Q 208.74 50.94 208.20 49.32
  Z"
/>
<path fill="#111c49" d="
  M 352.90 104.71
  C 365.14 88.13 352.89 60.04 329.93 65.53
  Q 323.03 67.19 317.98 72.39
  Q 314.95 75.50 310.76 74.37
  Q 310.17 74.21 309.63 73.92
  Q 305.66 71.83 308.86 68.68
  Q 322.76 54.98 342.24 58.77
  C 358.31 61.90 368.91 75.39 367.74 91.81
  C 366.94 103.04 360.50 111.56 351.52 117.98
  C 342.82 124.21 323.48 137.45 334.65 150.03
  Q 337.89 153.67 333.20 155.00
  Q 332.54 155.19 331.87 155.31
  Q 327.30 156.16 324.67 152.33
  C 318.92 143.96 321.52 133.86 327.63 126.52
  C 334.84 117.86 346.13 113.89 352.90 104.71
  Z"
/>
<path fill="#23347c" d="
  M 246.08 68.47
  Q 249.62 67.74 252.10 71.39
  Q 255.90 76.97 259.06 83.02
  Q 259.34 83.54 259.92 83.59
  C 267.38 84.29 272.27 90.81 274.13 97.77
  C 276.45 106.47 279.97 114.05 283.28 122.11
  C 288.80 135.58 289.87 149.58 289.75 164.24
  Q 289.57 187.21 283.50 209.67
  Q 281.91 207.23 280.55 204.80
  C 270.25 186.34 252.03 173.07 231.97 166.83
  Q 227.21 165.35 219.50 163.83
  C 221.92 150.01 218.71 135.98 215.77 122.80
  Q 214.85 118.70 215.08 111.78
  Q 215.38 102.40 220.07 94.93
  Q 220.34 94.50 220.24 94.01
  Q 219.45 90.07 216.88 85.59
  Q 215.38 82.97 218.39 82.10
  Q 220.88 84.02 224.83 82.82
  Q 231.93 80.67 238.77 77.84
  Q 246.69 74.58 246.08 68.47
  Z"
/>
<path fill="#111c49" d="
  M 191.00 196.89
  Q 184.97 196.86 183.11 191.44
  Q 182.95 190.98 182.53 190.74
  Q 181.96 190.44 181.36 190.73
  Q 180.98 190.92 180.85 191.33
  C 178.30 199.68 166.21 197.79 166.79 189.15
  Q 166.83 188.48 166.41 189.00
  L 165.10 190.62
  A 0.84 0.84 0.0 0 1 163.79 190.61
  C 158.29 183.62 149.67 188.68 153.14 196.81
  C 154.92 201.00 160.71 205.47 164.59 201.02
  Q 165.03 200.52 165.23 201.15
  Q 167.63 208.62 162.99 215.07
  Q 152.77 204.36 146.61 192.36
  C 142.14 183.66 143.81 174.43 154.22 171.54
  Q 154.78 171.38 155.14 170.93
  C 159.58 165.33 168.44 155.47 175.73 154.81
  Q 182.29 154.22 185.96 160.13
  Q 186.80 161.50 188.27 160.84
  C 191.32 159.45 194.85 156.84 198.20 158.02
  C 202.25 159.44 204.48 165.77 205.38 169.58
  C 207.01 176.51 203.21 182.41 196.95 185.38
  Q 196.36 185.66 196.56 186.28
  Q 199.22 194.36 191.00 196.89
  Z
  M 178.30 182.98
  C 173.93 182.21 173.15 175.69 168.61 175.63
  A 2.13 2.12 -9.1 0 0 166.57 178.44
  Q 167.76 181.93 167.46 186.09
  Q 167.45 186.23 167.57 186.33
  Q 167.61 186.36 167.65 186.37
  Q 167.78 186.42 167.83 186.29
  C 168.74 183.25 172.66 181.98 175.43 182.64
  Q 180.27 183.80 181.00 188.86
  Q 181.05 189.19 181.29 189.42
  Q 181.70 189.79 182.26 189.72
  A 0.76 0.76 0.0 0 0 182.92 189.07
  Q 183.61 184.19 187.98 182.74
  A 0.42 0.42 0.0 0 0 188.22 182.16
  Q 187.05 179.69 184.98 178.42
  Q 184.49 178.12 184.19 178.61
  C 183.01 180.55 180.85 183.44 178.30 182.98
  Z
  M 180.10 189.49
  A 6.20 6.20 0.0 0 0 173.90 183.29
  A 6.20 6.20 0.0 0 0 167.70 189.49
  A 6.20 6.20 0.0 0 0 173.90 195.69
  A 6.20 6.20 0.0 0 0 180.10 189.49
  Z
  M 191.00 195.61
  Q 195.36 194.68 196.18 190.47
  Q 196.56 188.49 195.55 186.72
  Q 195.31 186.30 194.85 186.45
  L 190.27 187.96
  L 189.03 184.01
  A 0.64 0.64 0.0 0 0 188.20 183.60
  C 184.04 185.18 182.55 189.93 185.34 193.44
  Q 187.27 195.85 191.00 195.61
  Z"
/>
<path fill="#4071ff" d="
  M 219.50 163.83
  Q 227.21 165.35 231.97 166.83
  C 252.03 173.07 270.25 186.34 280.55 204.80
  Q 281.91 207.23 283.50 209.67
  Q 280.11 224.93 272.01 238.75
  C 257.26 214.80 234.44 197.89 209.04 186.57
  L 219.50 163.83
  Z"
/>
<ellipse fill="#111c49" cx="0.00" cy="0.00" transform="translate(334.60,176.71) rotate(3.0)" rx="5.59" ry="3.64"/>
<path fill="#636363" d="
  M 178.30 182.98
  C 180.85 183.44 183.01 180.55 184.19 178.61
  Q 184.49 178.12 184.98 178.42
  Q 187.05 179.69 188.22 182.16
  A 0.42 0.42 0.0 0 1 187.98 182.74
  Q 183.61 184.19 182.92 189.07
  A 0.76 0.76 0.0 0 1 182.26 189.72
  Q 181.70 189.79 181.29 189.42
  Q 181.05 189.19 181.00 188.86
  Q 180.27 183.80 175.43 182.64
  C 172.66 181.98 168.74 183.25 167.83 186.29
  Q 167.78 186.42 167.65 186.37
  Q 167.61 186.36 167.57 186.33
  Q 167.45 186.23 167.46 186.09
  Q 167.76 181.93 166.57 178.44
  A 2.13 2.12 -9.1 0 1 168.61 175.63
  C 173.15 175.69 173.93 182.21 178.30 182.98
  Z"
/>
<circle fill="#636363" cx="173.90" cy="189.49" r="6.20"/>
<path fill="#636363" d="
  M 190.27 187.96
  L 191.00 195.61
  Q 187.27 195.85 185.34 193.44
  C 182.55 189.93 184.04 185.18 188.20 183.60
  A 0.64 0.64 0.0 0 1 189.03 184.01
  L 190.27 187.96
  Z"
/>
<path fill="#23347c" d="
  M 209.04 186.57
  C 234.44 197.89 257.26 214.80 272.01 238.75
  Q 268.21 250.00 262.88 260.74
  Q 262.69 260.78 262.57 260.47
  Q 252.86 235.08 231.44 218.34
  A 0.38 0.38 0.0 0 0 230.92 218.40
  L 230.75 218.62
  Q 230.60 218.81 230.79 218.95
  Q 252.22 235.77 261.84 261.25
  Q 262.01 261.70 262.69 261.98
  L 264.37 268.27
  Q 236.01 291.47 201.25 299.69
  Q 177.46 305.32 152.28 302.18
  Q 154.91 290.04 155.55 277.58
  Q 155.56 277.33 155.31 277.31
  L 155.04 277.30
  Q 154.73 277.28 154.71 277.59
  Q 154.06 287.51 152.35 297.24
  Q 151.93 299.62 151.09 302.02
  Q 120.00 292.82 98.62 268.16
  Q 122.67 245.92 151.89 235.00
  Q 156.35 239.74 161.57 243.87
  Q 165.47 246.96 167.00 248.61
  C 168.98 250.76 170.98 254.94 173.65 256.63
  A 2.55 2.53 35.9 0 0 176.96 256.11
  C 179.83 252.66 180.39 244.14 180.65 239.43
  Q 180.67 239.51 180.69 239.60
  C 185.35 242.92 189.89 246.78 195.13 248.86
  A 1.70 1.70 0.0 0 0 197.40 246.84
  Q 195.39 239.37 195.51 231.51
  Q 195.61 225.00 191.07 218.63
  Q 199.42 202.30 209.04 186.57
  Z"
/>
<path fill="#636363" d="
  M 191.00 196.89
  C 191.81 201.94 190.16 208.23 185.40 210.92
  Q 184.64 211.35 181.77 212.34
  Q 173.48 213.42 166.68 209.61
  A 0.30 0.30 0.0 0 0 166.27 210.02
  Q 171.68 219.31 181.25 217.69
  Q 181.65 217.62 182.04 217.78
  Q 182.27 217.88 182.62 218.05
  Q 184.42 224.94 184.22 227.00
  Q 183.56 233.72 180.69 239.60
  Q 180.67 239.51 180.65 239.43
  Q 170.14 237.47 162.14 230.60
  A 2.14 2.13 -66.7 0 1 161.41 228.75
  L 162.42 219.03
  L 162.99 215.07
  Q 167.63 208.62 165.23 201.15
  Q 165.03 200.52 164.59 201.02
  C 160.71 205.47 154.92 201.00 153.14 196.81
  C 149.67 188.68 158.29 183.62 163.79 190.61
  A 0.84 0.84 0.0 0 0 165.10 190.62
  L 166.41 189.00
  Q 166.83 188.48 166.79 189.15
  C 166.21 197.79 178.30 199.68 180.85 191.33
  Q 180.98 190.92 181.36 190.73
  Q 181.96 190.44 182.53 190.74
  Q 182.95 190.98 183.11 191.44
  Q 184.97 196.86 191.00 196.89
  Z
  M 159.91 193.83
  Q 159.23 193.94 158.83 194.50
  Q 158.50 194.95 158.63 195.50
  Q 159.07 197.34 160.84 198.11
  C 161.87 198.56 162.90 197.77 163.15 196.79
  Q 163.31 196.14 162.68 196.37
  Q 162.28 196.52 161.95 196.80
  Q 161.50 197.19 160.97 196.91
  Q 160.23 196.53 159.76 195.84
  Q 159.48 195.42 159.74 194.98
  Q 160.16 194.28 160.95 194.49
  Q 162.71 194.96 161.80 193.38
  Q 160.72 191.52 158.89 190.25
  A 1.67 1.66 -55.1 0 0 156.59 190.67
  Q 155.67 191.98 156.21 193.75
  Q 156.28 193.99 156.54 193.97
  L 156.86 193.94
  Q 157.20 193.90 157.16 193.56
  L 156.99 192.02
  A 0.85 0.85 0.0 0 1 158.15 191.13
  Q 159.36 191.60 160.26 193.04
  Q 160.68 193.70 159.91 193.83
  Z
  M 175.65 201.83
  C 177.74 203.19 179.06 204.10 181.67 204.07
  A 2.55 2.51 18.5 0 0 183.61 203.12
  L 184.20 202.38
  Q 185.05 201.30 183.68 201.31
  L 175.79 201.36
  A 0.26 0.25 -28.8 0 0 175.65 201.83
  Z"
/>
<path fill="#111c49" d="
  M 159.91 193.83
  Q 160.68 193.70 160.26 193.04
  Q 159.36 191.60 158.15 191.13
  A 0.85 0.85 0.0 0 0 156.99 192.02
  L 157.16 193.56
  Q 157.20 193.90 156.86 193.94
  L 156.54 193.97
  Q 156.28 193.99 156.21 193.75
  Q 155.67 191.98 156.59 190.67
  A 1.67 1.66 -55.1 0 1 158.89 190.25
  Q 160.72 191.52 161.80 193.38
  Q 162.71 194.96 160.95 194.49
  Q 160.16 194.28 159.74 194.98
  Q 159.48 195.42 159.76 195.84
  Q 160.23 196.53 160.97 196.91
  Q 161.50 197.19 161.95 196.80
  Q 162.28 196.52 162.68 196.37
  Q 163.31 196.14 163.15 196.79
  C 162.90 197.77 161.87 198.56 160.84 198.11
  Q 159.07 197.34 158.63 195.50
  Q 158.50 194.95 158.83 194.50
  Q 159.23 193.94 159.91 193.83
  Z"
/>
<path fill="#111c49" d="
  M 181.67 204.07
  C 179.06 204.10 177.74 203.19 175.65 201.83
  A 0.26 0.25 -28.8 0 1 175.79 201.36
  L 183.68 201.31
  Q 185.05 201.30 184.20 202.38
  L 183.61 203.12
  A 2.55 2.51 18.5 0 1 181.67 204.07
  Z"
/>
<path fill="#111c49" d="
  M 181.77 212.34
  L 182.39 215.71
  L 182.62 218.05
  Q 182.27 217.88 182.04 217.78
  Q 181.65 217.62 181.25 217.69
  Q 171.68 219.31 166.27 210.02
  A 0.30 0.30 0.0 0 1 166.68 209.61
  Q 173.48 213.42 181.77 212.34
  Z"
/>
<path fill="#4071ff" d="
  M 191.07 218.63
  Q 195.61 225.00 195.51 231.51
  Q 195.39 239.37 197.40 246.84
  A 1.70 1.70 0.0 0 1 195.13 248.86
  C 189.89 246.78 185.35 242.92 180.69 239.60
  Q 183.56 233.72 184.22 227.00
  Q 184.42 224.94 182.62 218.05
  L 182.39 215.71
  Q 184.47 214.56 185.83 215.67
  Q 188.86 218.14 191.07 218.63
  Z"
/>
<path fill="#111c49" d="
  M 262.88 260.74
  Q 263.22 261.59 262.69 261.98
  Q 262.01 261.70 261.84 261.25
  Q 252.22 235.77 230.79 218.95
  Q 230.60 218.81 230.75 218.62
  L 230.92 218.40
  A 0.38 0.38 0.0 0 1 231.44 218.34
  Q 252.86 235.08 262.57 260.47
  Q 262.69 260.78 262.88 260.74
  Z"
/>
<path fill="#4071ff" d="
  M 162.42 219.03
  L 161.41 228.75
  A 2.14 2.13 -66.7 0 0 162.14 230.60
  Q 170.14 237.47 180.65 239.43
  C 180.39 244.14 179.83 252.66 176.96 256.11
  A 2.55 2.53 35.9 0 1 173.65 256.63
  C 170.98 254.94 168.98 250.76 167.00 248.61
  Q 165.47 246.96 161.57 243.87
  Q 156.35 239.74 151.89 235.00
  Q 152.84 231.62 154.73 228.55
  Q 155.66 227.05 156.78 224.67
  C 157.93 222.23 159.53 219.65 162.42 219.03
  Z"
/>
<path fill="#4071ff" d="
  M 98.62 268.16
  Q 120.00 292.82 151.09 302.02
  Q 148.96 314.00 141.81 323.55
  Q 139.95 326.03 132.84 332.25
  C 116.10 327.07 101.05 320.68 87.08 309.93
  Q 80.66 304.99 74.79 296.74
  Q 84.25 280.65 98.62 268.16
  Z"
/>
<path fill="#4071ff" d="
  M 264.37 268.27
  L 272.97 298.38
  Q 240.02 324.54 199.26 332.78
  Q 166.90 339.33 133.96 332.64
  Q 137.39 329.10 140.57 326.06
  C 147.03 319.87 150.32 311.12 152.28 302.18
  Q 177.46 305.32 201.25 299.69
  Q 236.01 291.47 264.37 268.27
  Z"
/>
<path fill="#111c49" d="
  M 152.28 302.18
  C 150.32 311.12 147.03 319.87 140.57 326.06
  Q 137.39 329.10 133.96 332.64
  L 126.52 340.15
  Q 125.33 341.35 126.93 340.79
  C 133.92 338.32 142.09 336.23 149.16 337.54
  Q 153.17 338.29 158.13 341.40
  C 162.27 344.00 166.06 341.18 169.49 341.51
  Q 173.66 341.92 173.44 346.19
  Q 173.43 346.31 173.31 346.31
  L 173.05 346.31
  Q 172.68 346.31 172.65 345.94
  Q 172.35 341.56 167.57 342.81
  C 164.16 343.70 160.59 344.40 157.55 342.39
  Q 150.69 337.85 143.52 338.26
  Q 136.36 338.67 129.31 341.17
  Q 124.54 342.86 119.45 344.16
  C 103.49 348.21 88.71 357.95 76.75 369.34
  Q 76.69 369.40 76.64 369.34
  L 76.45 369.15
  Q 76.28 368.97 76.45 368.79
  Q 96.29 348.95 123.48 342.05
  Q 123.95 341.93 124.29 341.56
  L 132.84 332.25
  Q 139.95 326.03 141.81 323.55
  Q 148.96 314.00 151.09 302.02
  Q 151.93 299.62 152.35 297.24
  Q 154.06 287.51 154.71 277.59
  Q 154.73 277.28 155.04 277.30
  L 155.31 277.31
  Q 155.56 277.33 155.55 277.58
  Q 154.91 290.04 152.28 302.18
  Z"
/>
<path fill="#23347c" d="
  M 74.79 296.74
  Q 80.66 304.99 87.08 309.93
  C 101.05 320.68 116.10 327.07 132.84 332.25
  L 124.29 341.56
  Q 123.95 341.93 123.48 342.05
  Q 96.29 348.95 76.45 368.79
  Q 76.28 368.97 76.45 369.15
  L 76.64 369.34
  Q 76.69 369.40 76.75 369.34
  C 88.71 357.95 103.49 348.21 119.45 344.16
  Q 124.54 342.86 129.31 341.17
  Q 136.36 338.67 143.52 338.26
  Q 150.69 337.85 157.55 342.39
  C 160.59 344.40 164.16 343.70 167.57 342.81
  Q 172.35 341.56 172.65 345.94
  Q 172.68 346.31 173.05 346.31
  L 173.31 346.31
  Q 173.43 346.31 173.44 346.19
  Q 173.66 341.92 169.49 341.51
  C 166.06 341.18 162.27 344.00 158.13 341.40
  Q 153.17 338.29 149.16 337.54
  C 142.09 336.23 133.92 338.32 126.93 340.79
  Q 125.33 341.35 126.52 340.15
  L 133.96 332.64
  Q 166.90 339.33 199.26 332.78
  Q 240.02 324.54 272.97 298.38
  L 284.29 335.94
  Q 262.92 344.81 245.09 359.68
  L 243.74 360.16
  Q 236.29 356.55 227.49 354.22
  Q 201.18 337.67 171.78 348.62
  Q 171.21 348.83 171.08 349.43
  Q 170.55 351.79 170.76 354.52
  Q 171.64 365.78 174.21 375.75
  Q 175.65 381.33 178.56 384.06
  Q 179.98 386.71 177.01 388.06
  Q 173.95 389.46 171.56 390.99
  C 168.24 393.12 165.86 396.86 163.16 399.99
  C 159.34 404.40 154.24 408.44 148.56 409.98
  Q 148.54 409.99 139.89 411.07
  Q 132.39 412.01 125.42 415.72
  L 108.14 423.74
  L 102.70 425.22
  Q 91.64 427.34 82.21 420.83
  C 55.01 402.07 46.77 372.12 54.62 340.73
  Q 60.11 318.80 74.79 296.74
  Z"
/>
<path fill="#e0e8ff" d="
  M 428.77 374.93
  Q 366.96 378.44 324.08 420.75
  L 245.09 359.68
  Q 262.92 344.81 284.29 335.94
  C 301.58 329.16 319.17 325.67 337.79 325.97
  Q 339.99 326.01 341.98 327.10
  Q 384.83 350.65 428.77 374.93
  Z
  M 271.88 366.11
  Q 303.52 342.79 341.78 337.63
  A 0.32 0.32 0.0 0 0 342.05 337.27
  L 342.01 336.99
  A 0.42 0.42 0.0 0 0 341.54 336.63
  Q 302.86 341.91 271.23 365.34
  Q 271.14 365.40 271.19 365.50
  L 271.41 365.99
  Q 271.57 366.34 271.88 366.11
  Z
  M 295.03 370.41
  C 312.91 357.60 333.77 348.85 355.39 344.61
  Q 355.64 344.56 355.59 344.31
  L 355.54 344.05
  Q 355.44 343.59 354.98 343.68
  Q 317.37 351.05 287.21 375.04
  A 0.34 0.34 0.0 0 0 287.15 375.51
  L 287.32 375.74
  Q 287.51 375.99 287.76 375.80
  Q 291.38 373.03 295.03 370.41
  Z
  M 300.40 388.51
  C 317.64 369.54 344.89 359.20 369.83 352.82
  Q 370.01 352.77 369.97 352.59
  L 369.90 352.31
  Q 369.80 351.87 369.36 351.98
  Q 351.96 356.09 335.60 363.38
  C 322.17 369.35 309.29 377.11 299.81 387.77
  A 0.38 0.38 0.0 0 0 299.78 388.25
  L 299.94 388.48
  Q 300.15 388.78 300.40 388.51
  Z
  M 311.34 397.19
  C 332.05 378.45 358.84 366.18 386.53 360.08
  A 0.28 0.28 0.0 0 0 386.75 359.74
  L 386.70 359.48
  Q 386.61 359.05 386.18 359.14
  C 358.26 365.25 331.07 377.57 310.46 396.71
  Q 310.34 396.82 310.45 396.94
  L 310.64 397.15
  Q 310.97 397.52 311.34 397.19
  Z
  M 323.04 404.81
  C 344.60 385.03 372.28 372.40 401.31 368.19
  Q 401.51 368.16 401.48 367.96
  L 401.44 367.66
  Q 401.36 367.17 400.87 367.24
  C 372.20 371.62 343.71 384.07 322.62 404.06
  Q 322.33 404.33 322.60 404.62
  L 322.77 404.80
  Q 322.90 404.94 323.04 404.81
  Z"
/>
<path fill="#111c49" d="
  M 271.88 366.11
  Q 271.57 366.34 271.41 365.99
  L 271.19 365.50
  Q 271.14 365.40 271.23 365.34
  Q 302.86 341.91 341.54 336.63
  A 0.42 0.42 0.0 0 1 342.01 336.99
  L 342.05 337.27
  A 0.32 0.32 0.0 0 1 341.78 337.63
  Q 303.52 342.79 271.88 366.11
  Z"
/>
<path fill="#111c49" d="
  M 355.39 344.61
  C 333.77 348.85 312.91 357.60 295.03 370.41
  Q 291.38 373.03 287.76 375.80
  Q 287.51 375.99 287.32 375.74
  L 287.15 375.51
  A 0.34 0.34 0.0 0 1 287.21 375.04
  Q 317.37 351.05 354.98 343.68
  Q 355.44 343.59 355.54 344.05
  L 355.59 344.31
  Q 355.64 344.56 355.39 344.61
  Z"
/>
<path fill="#636363" d="
  M 227.49 354.22
  C 228.69 355.78 230.22 356.39 230.94 358.46
  C 232.17 362.01 228.55 362.28 226.18 362.02
  Q 224.89 361.89 226.04 362.48
  Q 229.66 364.34 230.29 366.98
  A 1.94 1.94 0.0 0 1 228.72 369.34
  C 225.41 369.88 221.81 369.10 218.63 368.17
  Q 218.61 368.16 218.61 368.18
  L 218.54 368.42
  Q 218.48 368.59 218.66 368.65
  C 221.55 369.71 227.96 372.53 229.17 375.72
  C 231.42 381.67 218.78 378.03 215.93 377.13
  Q 215.07 376.85 214.47 376.70
  Q 213.59 376.48 214.40 376.88
  L 223.66 381.49
  Q 223.95 380.96 224.02 382.33
  Q 223.90 382.09 223.82 382.49
  A 0.36 0.36 0.0 0 0 223.97 382.85
  Q 225.09 383.62 225.08 384.94
  A 2.03 2.02 81.5 0 1 223.66 386.86
  C 220.06 387.98 215.35 386.60 211.88 385.37
  Q 211.38 385.19 210.85 385.31
  L 209.29 385.67
  Q 209.56 385.23 209.04 384.74
  Q 209.05 384.36 208.71 384.35
  Q 208.33 384.33 208.27 384.32
  Q 202.34 383.00 196.93 384.69
  C 191.41 386.41 186.46 387.53 181.61 383.38
  A 1.28 1.27 -25.1 0 0 180.75 383.07
  Q 179.65 383.09 178.56 384.06
  Q 175.65 381.33 174.21 375.75
  Q 171.64 365.78 170.76 354.52
  Q 170.55 351.79 171.08 349.43
  Q 171.21 348.83 171.78 348.62
  Q 201.18 337.67 227.49 354.22
  Z
  M 204.33 355.27
  C 211.56 356.58 217.23 358.98 223.60 361.73
  Q 223.77 361.80 223.85 361.64
  L 223.97 361.39
  A 0.43 0.42 26.6 0 0 223.78 360.84
  Q 214.71 356.09 204.51 354.30
  A 0.49 0.49 0.0 0 0 203.97 354.59
  Q 203.72 355.17 204.33 355.27
  Z
  M 200.85 365.27
  C 206.28 365.52 211.53 366.62 216.77 368.22
  Q 217.13 368.33 217.13 367.95
  L 217.13 367.50
  Q 217.13 367.36 216.99 367.32
  Q 209.01 364.57 200.90 364.40
  A 0.28 0.28 0.0 0 0 200.61 364.65
  L 200.57 364.93
  Q 200.52 365.25 200.85 365.27
  Z
  M 199.49 373.59
  C 204.42 373.54 208.24 374.67 212.65 376.27
  Q 212.91 376.37 212.93 376.09
  L 212.95 375.81
  Q 212.96 375.68 212.84 375.62
  Q 206.56 372.50 199.58 372.69
  Q 199.24 372.70 199.23 373.04
  L 199.23 373.33
  A 0.25 0.25 0.0 0 0 199.49 373.59
  Z"
/>
<path fill="#111c49" d="
  M 369.83 352.82
  C 344.89 359.20 317.64 369.54 300.40 388.51
  Q 300.15 388.78 299.94 388.48
  L 299.78 388.25
  A 0.38 0.38 0.0 0 1 299.81 387.77
  C 309.29 377.11 322.17 369.35 335.60 363.38
  Q 351.96 356.09 369.36 351.98
  Q 369.80 351.87 369.90 352.31
  L 369.97 352.59
  Q 370.01 352.77 369.83 352.82
  Z"
/>
<path fill="#111c49" d="
  M 223.60 361.73
  C 217.23 358.98 211.56 356.58 204.33 355.27
  Q 203.72 355.17 203.97 354.59
  A 0.49 0.49 0.0 0 1 204.51 354.30
  Q 214.71 356.09 223.78 360.84
  A 0.43 0.42 26.6 0 1 223.97 361.39
  L 223.85 361.64
  Q 223.77 361.80 223.60 361.73
  Z"
/>
<path fill="#e0e8ff" d="
  M 227.49 354.22
  Q 236.29 356.55 243.74 360.16
  L 319.93 418.72
  Q 319.36 419.41 318.83 419.14
  Q 318.58 419.01 318.51 418.99
  Q 259.09 399.79 205.42 430.70
  Q 205.17 430.85 204.93 430.68
  L 163.16 399.99
  C 165.86 396.86 168.24 393.12 171.56 390.99
  Q 173.95 389.46 177.01 388.06
  Q 179.98 386.71 178.56 384.06
  Q 179.65 383.09 180.75 383.07
  A 1.28 1.27 -25.1 0 1 181.61 383.38
  C 186.46 387.53 191.41 386.41 196.93 384.69
  Q 202.34 383.00 208.27 384.32
  Q 208.33 384.33 208.71 384.35
  Q 209.05 384.36 209.04 384.74
  Q 197.55 387.99 187.35 394.13
  A 0.45 0.45 0.0 0 0 187.19 394.75
  L 187.34 395.00
  Q 187.43 395.16 187.59 395.06
  Q 197.81 388.96 209.29 385.67
  L 210.85 385.31
  Q 211.38 385.19 211.88 385.37
  C 215.35 386.60 220.06 387.98 223.66 386.86
  A 2.03 2.02 81.5 0 0 225.08 384.94
  Q 225.09 383.62 223.97 382.85
  A 0.36 0.36 0.0 0 1 223.82 382.49
  Q 223.90 382.09 224.02 382.33
  Q 241.93 379.69 259.92 381.42
  Q 260.39 381.47 260.44 381.00
  L 260.47 380.70
  Q 260.49 380.51 260.29 380.49
  Q 241.92 378.66 223.66 381.49
  L 214.40 376.88
  Q 213.59 376.48 214.47 376.70
  Q 215.07 376.85 215.93 377.13
  C 218.78 378.03 231.42 381.67 229.17 375.72
  C 227.96 372.53 221.55 369.71 218.66 368.65
  Q 218.48 368.59 218.54 368.42
  L 218.61 368.18
  Q 218.61 368.16 218.63 368.17
  C 221.81 369.10 225.41 369.88 228.72 369.34
  A 1.94 1.94 0.0 0 0 230.29 366.98
  Q 229.66 364.34 226.04 362.48
  Q 224.89 361.89 226.18 362.02
  C 228.55 362.28 232.17 362.01 230.94 358.46
  C 230.22 356.39 228.69 355.78 227.49 354.22
  Z
  M 247.10 371.57
  L 247.16 371.32
  A 0.47 0.46 12.2 0 0 246.79 370.75
  Q 239.33 369.25 231.91 370.90
  Q 231.67 370.95 231.72 371.19
  L 231.77 371.49
  Q 231.84 371.86 232.21 371.80
  Q 239.47 370.60 246.78 371.78
  A 0.29 0.28 -77.6 0 0 247.10 371.57
  Z
  M 199.18 404.90
  Q 234.37 387.80 274.71 392.96
  Q 275.03 393.00 275.00 392.68
  L 274.96 392.26
  Q 274.93 391.97 274.64 391.93
  C 248.83 388.57 222.06 392.30 198.74 404.05
  Q 198.62 404.12 198.61 404.26
  L 198.59 404.51
  A 0.41 0.41 0.0 0 0 199.18 404.90
  Z
  M 210.33 415.42
  Q 247.17 400.38 286.37 404.66
  Q 289.74 405.03 298.33 406.79
  A 0.32 0.32 0.0 0 0 298.70 406.54
  L 298.76 406.26
  Q 298.83 405.91 298.48 405.84
  Q 279.97 401.95 261.75 402.99
  Q 234.69 404.53 209.95 414.57
  A 0.34 0.33 59.2 0 0 209.82 415.10
  L 210.01 415.34
  A 0.29 0.29 0.0 0 0 210.33 415.42
  Z"
/>
<path fill="#111c49" d="
  M 386.53 360.08
  C 358.84 366.18 332.05 378.45 311.34 397.19
  Q 310.97 397.52 310.64 397.15
  L 310.45 396.94
  Q 310.34 396.82 310.46 396.71
  C 331.07 377.57 358.26 365.25 386.18 359.14
  Q 386.61 359.05 386.70 359.48
  L 386.75 359.74
  A 0.28 0.28 0.0 0 1 386.53 360.08
  Z"
/>
<path fill="#111c49" d="
  M 245.09 359.68
  L 324.08 420.75
  Q 324.15 420.94 324.13 421.11
  Q 324.09 421.56 323.72 421.30
  L 319.93 418.72
  L 243.74 360.16
  L 245.09 359.68
  Z"
/>
<path fill="#111c49" d="
  M 216.77 368.22
  C 211.53 366.62 206.28 365.52 200.85 365.27
  Q 200.52 365.25 200.57 364.93
  L 200.61 364.65
  A 0.28 0.28 0.0 0 1 200.90 364.40
  Q 209.01 364.57 216.99 367.32
  Q 217.13 367.36 217.13 367.50
  L 217.13 367.95
  Q 217.13 368.33 216.77 368.22
  Z"
/>
<path fill="#111c49" d="
  M 401.31 368.19
  C 372.28 372.40 344.60 385.03 323.04 404.81
  Q 322.90 404.94 322.77 404.80
  L 322.60 404.62
  Q 322.33 404.33 322.62 404.06
  C 343.71 384.07 372.20 371.62 400.87 367.24
  Q 401.36 367.17 401.44 367.66
  L 401.48 367.96
  Q 401.51 368.16 401.31 368.19
  Z"
/>
<path fill="#111c49" d="
  M 246.78 371.78
  Q 239.47 370.60 232.21 371.80
  Q 231.84 371.86 231.77 371.49
  L 231.72 371.19
  Q 231.67 370.95 231.91 370.90
  Q 239.33 369.25 246.79 370.75
  A 0.47 0.46 12.2 0 1 247.16 371.32
  L 247.10 371.57
  A 0.29 0.28 -77.6 0 1 246.78 371.78
  Z"
/>
<path fill="#111c49" d="
  M 199.49 373.59
  A 0.25 0.25 0.0 0 1 199.23 373.33
  L 199.23 373.04
  Q 199.24 372.70 199.58 372.69
  Q 206.56 372.50 212.84 375.62
  Q 212.96 375.68 212.95 375.81
  L 212.93 376.09
  Q 212.91 376.37 212.65 376.27
  C 208.24 374.67 204.42 373.54 199.49 373.59
  Z"
/>
<path fill="#9fb7ff" d="
  M 428.77 374.93
  L 429.09 392.20
  L 429.17 405.90
  A 0.98 0.98 0.0 0 1 428.47 406.85
  L 343.54 431.58
  L 309.87 441.40
  L 204.98 471.98
  Q 204.43 472.14 203.96 471.81
  L 125.42 415.72
  Q 132.39 412.01 139.89 411.07
  Q 148.54 409.99 148.56 409.98
  C 154.24 408.44 159.34 404.40 163.16 399.99
  L 204.93 430.68
  Q 205.17 430.85 205.42 430.70
  Q 259.09 399.79 318.51 418.99
  Q 318.58 419.01 318.83 419.14
  Q 319.36 419.41 319.93 418.72
  L 323.72 421.30
  Q 324.09 421.56 324.13 421.11
  Q 324.15 420.94 324.08 420.75
  Q 366.96 378.44 428.77 374.93
  Z"
/>
<path fill="#111c49" d="
  M 224.02 382.33
  Q 223.95 380.96 223.66 381.49
  Q 241.92 378.66 260.29 380.49
  Q 260.49 380.51 260.47 380.70
  L 260.44 381.00
  Q 260.39 381.47 259.92 381.42
  Q 241.93 379.69 224.02 382.33
  Z"
/>
<path fill="#111c49" d="
  M 209.04 384.74
  Q 209.56 385.23 209.29 385.67
  Q 197.81 388.96 187.59 395.06
  Q 187.43 395.16 187.34 395.00
  L 187.19 394.75
  A 0.45 0.45 0.0 0 1 187.35 394.13
  Q 197.55 387.99 209.04 384.74
  Z"
/>
<path fill="#111c49" d="
  M 199.18 404.90
  A 0.41 0.41 0.0 0 1 198.59 404.51
  L 198.61 404.26
  Q 198.62 404.12 198.74 404.05
  C 222.06 392.30 248.83 388.57 274.64 391.93
  Q 274.93 391.97 274.96 392.26
  L 275.00 392.68
  Q 275.03 393.00 274.71 392.96
  Q 234.37 387.80 199.18 404.90
  Z"
/>
<path fill="#4071ff" d="
  M 429.09 392.20
  L 458.80 404.48
  L 352.62 436.19
  A 2.85 2.83 -36.8 0 1 350.26 435.86
  L 343.54 431.58
  L 428.47 406.85
  A 0.98 0.98 0.0 0 0 429.17 405.90
  L 429.09 392.20
  Z"
/>
<path fill="#111c49" d="
  M 210.33 415.42
  A 0.29 0.29 0.0 0 1 210.01 415.34
  L 209.82 415.10
  A 0.34 0.33 59.2 0 1 209.95 414.57
  Q 234.69 404.53 261.75 402.99
  Q 279.97 401.95 298.48 405.84
  Q 298.83 405.91 298.76 406.26
  L 298.70 406.54
  A 0.32 0.32 0.0 0 1 298.33 406.79
  Q 289.74 405.03 286.37 404.66
  Q 247.17 400.38 210.33 415.42
  Z"
/>
<path fill="#111c49" d="
  M 458.80 404.48
  L 458.97 409.39
  Q 458.99 409.95 458.45 410.11
  L 351.80 441.92
  Q 351.32 442.07 351.23 442.56
  C 348.64 456.89 331.17 463.18 320.95 451.82
  A 1.14 1.13 60.6 0 0 319.79 451.49
  L 187.99 490.85
  Q 187.49 491.00 187.08 490.67
  L 102.70 425.22
  L 108.14 423.74
  L 187.07 485.19
  Q 187.48 485.51 187.99 485.36
  L 317.28 446.75
  Q 317.84 446.58 317.35 446.27
  L 309.87 441.40
  L 343.54 431.58
  L 350.26 435.86
  A 2.85 2.83 -36.8 0 0 352.62 436.19
  L 458.80 404.48
  Z"
/>
<path fill="#4071ff" d="
  M 125.42 415.72
  L 203.96 471.81
  Q 204.43 472.14 204.98 471.98
  L 309.87 441.40
  L 317.35 446.27
  Q 317.84 446.58 317.28 446.75
  L 187.99 485.36
  Q 187.48 485.51 187.07 485.19
  L 108.14 423.74
  L 125.42 415.72
  Z"
/>
</svg>
